<?xml version="1.0"?>
<svg xmlns="http://www.w3.org/2000/svg" xmlns:xlink="http://www.w3.org/1999/xlink" xmlns:svgjs="http://svgjs.com/svgjs" version="1.1" width="512" height="512" x="0" y="0" viewBox="0 0 64 64" style="enable-background:new 0 0 512 512" xml:space="preserve" class=""><g><path xmlns="http://www.w3.org/2000/svg" d="m32 1c-11.58 0-21 9.421-21 21v2c0 .17.043.337.126.485l9.874 17.774v19.741c0 .553.448 1 1 1h20c.552 0 1-.447 1-1v-19.741l9.874-17.773c.083-.149.126-.316.126-.486v-2c0-11.579-9.42-21-21-21zm0 2c9.577 0 17.501 7.13 18.794 16.357-.646-.529-1.406-.92-2.234-1.144-1.751-7.689-8.609-13.213-16.56-13.213v2c6.799 0 12.698 4.572 14.463 11.027-1.862.166-3.481 1.184-4.463 2.663-1.076-1.62-2.914-2.69-5-2.69s-3.924 1.071-5 2.69c-1.076-1.62-2.914-2.69-5-2.69s-3.924 1.071-5 2.69c-1.076-1.62-2.914-2.69-5-2.69-1.438 0-2.759.51-3.794 1.357 1.293-9.227 9.217-16.357 18.794-16.357zm9.412 38h-3.096l4.648-16.732c.024-.087.036-.177.036-.268 0-2.206 1.794-4 4-4 2.131 0 3.862 1.679 3.978 3.781zm-28.39-17.219c.116-2.102 1.847-3.781 3.978-3.781 2.206 0 4 1.794 4 4 0 .091.012.181.037.268l4.648 16.732h-3.096zm14.738 17.219-4.758-17.129c.068-2.146 1.835-3.871 3.998-3.871 2.206 0 4 1.794 4 4v17zm3.24 2h2v6h-2zm2-2v-17c0-2.206 1.794-4 4-4 2.163 0 3.93 1.725 3.998 3.871l-4.758 17.129zm8 20h-18v-18h6v7c0 .553.448 1 1 1h4c.552 0 1-.447 1-1v-7h6z" fill="#ffffff" data-original="#000000" style="" class=""/><path xmlns="http://www.w3.org/2000/svg" d="m30.124 7.116-.248-1.984c-.72.09-1.435.226-2.125.403l.499 1.938c.608-.158 1.239-.278 1.874-.357z" fill="#ffffff" data-original="#000000" style="" class=""/></g></svg>
