<svg width="500" height="500" viewBox="0 0 500 500" fill="none" xmlns="http://www.w3.org/2000/svg">
<circle cx="250" cy="250" r="250" fill="white"/>
<g clip-path="url(#clip0)">
<path fill-rule="evenodd" clip-rule="evenodd" d="M299.115 284.189C275.406 301.672 241.04 310.999 211.452 310.999C169.965 310.999 132.615 295.649 104.359 270.118C102.139 268.11 104.128 265.374 106.792 266.937C137.286 284.687 174.991 295.364 213.938 295.364C240.205 295.364 269.101 289.928 295.67 278.646C299.684 276.94 303.04 281.275 299.115 284.189" fill="#FF9900"/>
<path fill-rule="evenodd" clip-rule="evenodd" d="M308.972 272.908C305.953 269.034 288.939 271.078 281.302 271.984C278.976 272.268 278.62 270.243 280.716 268.786C294.267 259.245 316.502 261.999 319.095 265.197C321.688 268.413 318.42 290.71 305.687 301.352C303.733 302.987 301.868 302.116 302.738 299.949C305.598 292.806 312.009 276.799 308.972 272.908" fill="#FF9900"/>
<path fill-rule="evenodd" clip-rule="evenodd" d="M281.835 201.432V192.158C281.835 190.754 282.9 189.812 284.179 189.812H325.684C327.016 189.812 328.082 190.772 328.082 192.158V200.1C328.064 201.432 326.945 203.173 324.956 205.927L303.449 236.646C311.441 236.45 319.877 237.641 327.123 241.727C328.757 242.651 329.201 244.001 329.325 245.334V255.23C329.325 256.58 327.833 258.162 326.27 257.344C313.501 250.646 296.54 249.918 282.421 257.415C280.982 258.197 279.473 256.634 279.473 255.283V245.885C279.473 244.374 279.49 241.798 281 239.506L305.917 203.759H284.232C282.9 203.759 281.835 202.818 281.835 201.432" fill="black"/>
<path fill-rule="evenodd" clip-rule="evenodd" d="M130.431 259.3H117.803C116.596 259.211 115.637 258.305 115.548 257.15V192.319C115.548 191.022 116.631 189.991 117.981 189.991H129.756C130.981 190.044 131.958 190.986 132.047 192.159V200.633H132.278C135.35 192.443 141.122 188.623 148.901 188.623C156.804 188.623 161.742 192.443 165.294 200.633C168.348 192.443 175.292 188.623 182.734 188.623C188.026 188.623 193.816 190.808 197.35 195.712C201.346 201.166 200.529 209.09 200.529 216.037L200.512 256.954C200.512 258.251 199.428 259.3 198.079 259.3H185.469C184.208 259.211 183.196 258.198 183.196 256.954V222.593C183.196 219.857 183.444 213.035 182.84 210.441C181.899 206.088 179.075 204.862 175.417 204.862C172.362 204.862 169.165 206.905 167.869 210.174C166.572 213.443 166.697 218.916 166.697 222.593V256.954C166.697 258.251 165.613 259.3 164.263 259.3H151.654C150.375 259.211 149.381 258.198 149.381 256.954L149.363 222.593C149.363 215.362 150.553 204.72 141.584 204.72C132.509 204.72 132.864 215.096 132.864 222.593V256.954C132.864 258.251 131.78 259.3 130.431 259.3" fill="black"/>
<path fill-rule="evenodd" clip-rule="evenodd" d="M363.815 188.623C382.552 188.623 392.693 204.72 392.693 225.187C392.693 244.962 381.486 260.65 363.815 260.65C345.416 260.65 335.399 244.553 335.399 224.494C335.399 204.311 345.54 188.623 363.815 188.623V188.623ZM363.921 201.859C354.615 201.859 354.029 214.545 354.029 222.451C354.029 230.375 353.905 247.289 363.815 247.289C373.601 247.289 374.062 233.644 374.062 225.329C374.062 219.857 373.832 213.319 372.18 208.131C370.759 203.618 367.935 201.859 363.921 201.859" fill="black"/>
<path fill-rule="evenodd" clip-rule="evenodd" d="M416.988 259.3H404.414C403.153 259.211 402.141 258.198 402.141 256.954L402.123 192.105C402.23 190.915 403.277 189.991 404.556 189.991H416.26C417.361 190.044 418.267 190.791 418.515 191.803V201.717H418.746C422.281 192.852 427.236 188.623 435.956 188.623C441.621 188.623 447.145 190.666 450.697 196.263C454 201.451 454 210.174 454 216.446V257.256C453.858 258.393 452.81 259.3 451.567 259.3H438.904C437.75 259.211 436.79 258.358 436.666 257.256V222.042C436.666 214.954 437.483 204.578 428.763 204.578C425.691 204.578 422.867 206.639 421.464 209.766C419.688 213.728 419.457 217.672 419.457 222.042V256.954C419.439 258.251 418.338 259.3 416.988 259.3" fill="black"/>
<path fill-rule="evenodd" clip-rule="evenodd" d="M248.748 228.331C248.748 233.252 248.872 237.356 246.386 241.727C244.379 245.28 241.182 247.466 237.648 247.466C232.799 247.466 229.958 243.77 229.958 238.316C229.958 227.549 239.601 225.595 248.748 225.595V228.331V228.331ZM261.482 259.121C260.647 259.867 259.439 259.92 258.498 259.423C254.307 255.94 253.543 254.324 251.252 251.001C244.325 258.072 239.406 260.187 230.437 260.187C219.799 260.187 211.541 253.631 211.541 240.501C211.541 230.25 217.082 223.267 225.003 219.856C231.858 216.836 241.431 216.303 248.748 215.468V213.833C248.748 210.83 248.979 207.277 247.203 204.683C245.675 202.356 242.727 201.396 240.116 201.396C235.303 201.396 231.023 203.866 229.975 208.983C229.762 210.12 228.928 211.239 227.773 211.292L215.537 209.978C214.506 209.747 213.352 208.912 213.654 207.33C216.46 192.477 229.887 188 241.892 188C248.037 188 256.065 189.635 260.913 194.289C267.058 200.028 266.472 207.686 266.472 216.018V235.704C266.472 241.62 268.923 244.214 271.232 247.412C272.031 248.549 272.209 249.917 271.178 250.77C268.603 252.92 264.021 256.918 261.499 259.156L261.482 259.121" fill="black"/>
<path fill-rule="evenodd" clip-rule="evenodd" d="M83.2072 228.331C83.2072 233.252 83.3315 237.356 80.8451 241.727C78.8382 245.28 75.6592 247.466 72.1072 247.466C67.2587 247.466 64.4349 243.77 64.4349 238.316C64.4349 227.549 74.0785 225.595 83.2072 225.595V228.331V228.331ZM95.9411 259.121C95.1063 259.867 93.8986 259.92 92.9574 259.423C88.766 255.94 88.0201 254.324 85.7113 251.001C78.7849 258.072 73.8832 260.187 64.8966 260.187C54.2761 260.187 46 253.631 46 240.501C46 230.25 51.5589 223.267 59.4621 219.856C66.3174 216.836 75.89 216.303 83.2072 215.468V213.833C83.2072 210.83 83.438 207.277 81.6798 204.683C80.1347 202.356 77.1865 201.396 74.5936 201.396C69.7806 201.396 65.4827 203.866 64.4349 208.983C64.2217 210.12 63.387 211.239 62.2504 211.292L49.996 209.978C48.9659 209.747 47.8293 208.912 48.1134 207.33C50.9373 192.477 64.346 188 76.3518 188C82.4967 188 90.5243 189.635 95.3727 194.289C101.518 200.028 100.932 207.686 100.932 216.018V235.704C100.932 241.62 103.382 244.214 105.691 247.412C106.508 248.549 106.686 249.917 105.656 250.77C103.081 252.92 98.4985 256.918 95.9766 259.156L95.9411 259.121" fill="black"/>
</g>
<defs>
<clipPath id="clip0">
<rect width="408" height="123" fill="white" transform="translate(46 188)"/>
</clipPath>
</defs>
</svg>
