<svg width="500" height="500" viewBox="0 0 500 500" fill="none" xmlns="http://www.w3.org/2000/svg">
<path d="M500 382.4H0V382.7H500V382.4Z" fill="#EBEBEB"/>
<path d="M135.1 398.5H102V398.8H135.1V398.5Z" fill="#EBEBEB"/>
<path d="M214.7 390.9H171.1V391.2H214.7V390.9Z" fill="#EBEBEB"/>
<path d="M101.1 389.199H52.5V389.499H101.1V389.199Z" fill="#EBEBEB"/>
<path d="M281.9 392.6H247.6V392.9H281.9V392.6Z" fill="#EBEBEB"/>
<path d="M449.9 392.6H442.5V392.9H449.9V392.6Z" fill="#EBEBEB"/>
<path d="M339.4 392.6H290.8V392.9H339.4V392.6Z" fill="#EBEBEB"/>
<path d="M420.3 396.801H326.6V397.101H420.3V396.801Z" fill="#EBEBEB"/>
<path d="M237 337.8H43.9C40.8 337.8 38.2 335.2 38.2 332.1V60.7C38.2 57.6 40.8 55 43.9 55H237C240.1 55 242.7 57.6 242.7 60.7V332.1C242.7 335.2 240.2 337.8 237 337.8ZM43.9 55.2C40.9 55.2 38.4 57.6 38.4 60.7V332.1C38.4 335.1 40.8 337.6 43.9 337.6H237C240 337.6 242.5 335.2 242.5 332.1V60.7C242.5 57.7 240.1 55.2 237 55.2H43.9Z" fill="#EBEBEB"/>
<path d="M453.3 337.8H260.2C257.1 337.8 254.5 335.2 254.5 332.1V60.7C254.5 57.6 257.1 55 260.2 55H453.3C456.4 55 459 57.6 459 60.7V332.1C459 335.2 456.5 337.8 453.3 337.8ZM260.2 55.2C257.2 55.2 254.7 57.6 254.7 60.7V332.1C254.7 335.1 257.1 337.6 260.2 337.6H453.3C456.3 337.6 458.8 335.2 458.8 332.1V60.7C458.8 57.7 456.4 55.2 453.3 55.2H260.2Z" fill="#EBEBEB"/>
<path d="M272.4 78H71.3999V222.3H272.4V78Z" fill="#FAFAFA"/>
<path d="M125.3 222.3L159.8 78H198.1L163.7 222.3H125.3Z" fill="white"/>
<path d="M200.2 222.3L234.7 78H248.7L214.2 222.3H200.2Z" fill="white"/>
<path d="M112.1 222.3L146.6 78H151.8L117.3 222.3H112.1Z" fill="white"/>
<path d="M282 73H61.9C61.4 73 61 73.4 61 73.9C61 74.4 61.4 74.8 61.9 74.8H282C282.5 74.8 282.9 74.4 282.9 73.9C282.9 73.4 282.5 73 282 73Z" fill="#E0E0E0"/>
<path d="M168.523 222.555H177.123L177.123 77.6547H168.523L168.523 222.555Z" fill="#F0F0F0"/>
<path d="M177.054 222.555H178.054L178.054 77.6547H177.054L177.054 222.555Z" fill="#E0E0E0"/>
<path d="M70.094 148.95V151.35H273.794V148.95H70.094Z" fill="#F0F0F0"/>
<path d="M273.8 221.3V78.9996V76.5996H271.4H72.4H70V78.9996V221.3V223.7H72.4H271.4H273.8V221.3ZM72.4 221.3V78.9996H271.4V221.3H72.4Z" fill="#F0F0F0"/>
<path d="M273.766 223.656H274.966V76.6562H273.766V223.656Z" fill="#E0E0E0"/>
<path opacity="0.5" d="M238.3 70.9004V310.5H288.6L279.4 70.9004H238.3Z" fill="#EBEBEB"/>
<path opacity="0.5" d="M203.5 70.9004V310.5H253.7L244.5 70.9004H203.5Z" fill="#EBEBEB"/>
<path opacity="0.5" d="M87.4 70.9004V310.5H56.5L62.1 70.9004H87.4Z" fill="#EBEBEB"/>
<path opacity="0.5" d="M108.8 70.9004V310.5H77.8999L83.5999 70.9004H108.8Z" fill="#EBEBEB"/>
<path d="M125.44 382.359H161.24L161.24 261.459H125.44L125.44 382.359Z" fill="#E6E6E6"/>
<path d="M131.4 382.4H125.4V371.5H137.6L131.4 382.4Z" fill="#F0F0F0"/>
<path d="M271.262 382.359H307.062V261.459H271.262V382.359Z" fill="#E6E6E6"/>
<path d="M125.428 378.182H276.428V261.382H125.428L125.428 378.182Z" fill="#F0F0F0"/>
<path d="M130.028 298.691H271.828V266.691H130.028V298.691Z" fill="#E6E6E6"/>
<path d="M194.2 276.601H207.6C213.4 276.601 219 272.601 223 265.701H178.8C182.8 272.601 188.4 276.601 194.2 276.601Z" fill="#F0F0F0"/>
<path d="M270.5 382.4H276.4V371.5H264.2L270.5 382.4Z" fill="#F0F0F0"/>
<path d="M130.028 335.881H271.828V303.881H130.028V335.881Z" fill="#E6E6E6"/>
<path d="M194.2 313.8H207.6C213.4 313.8 219 309.8 223 302.9H178.8C182.8 309.8 188.4 313.8 194.2 313.8Z" fill="#F0F0F0"/>
<path d="M130.028 373.07H271.828V341.07H130.028V373.07Z" fill="#E6E6E6"/>
<path d="M194.2 351H207.6C213.4 351 219 347 223 340.1H178.8C182.8 347 188.4 351 194.2 351Z" fill="#F0F0F0"/>
<path d="M220.2 239.501C217.9 215.601 216.3 176.701 217.5 163.701C217.5 163.201 217.8 162.801 218.1 162.601C219.2 161.801 220.7 162.601 220.6 163.901C220.4 170.301 220.1 186.401 221.5 214.201C222.2 228.001 223.2 237.501 222.5 239.501H220.2Z" fill="white"/>
<path d="M213.6 188C208.3 181.2 197.4 175.8 186.2 175C181.8 174.7 199.5 183.4 206.7 192.2C212.3 199 218.7 210.2 220.8 216.3C219.6 203.7 218.9 194.8 213.6 188Z" fill="white"/>
<path d="M224.7 186.499C230.2 178.899 242.8 172.999 256.4 172.399C261.8 172.099 241.4 181.699 233.8 191.499C227.9 199.099 221.8 211.699 220.2 218.599C219.7 204.199 219.2 194.099 224.7 186.499Z" fill="white"/>
<path d="M214 165.6C209.8 159.9 200.6 155.3 190.9 154.3C187.1 153.9 201.9 161.5 207.7 168.8C212.2 174.5 217 183.8 218.4 188.8C218.1 178.5 218.1 171.3 214 165.6Z" fill="white"/>
<path d="M222.4 166.801C227 160.401 237.7 155.401 249.3 154.801C253.8 154.601 236.6 162.701 230.1 171.001C225.1 177.401 220 188.1 218.6 194C218.2 181.8 217.8 173.201 222.4 166.801Z" fill="white"/>
<path d="M216.8 213.6C213.8 209.3 207 205.7 199.8 204.9C197 204.6 207.9 210.4 212.1 215.9C215.3 220.2 218.7 227.2 219.7 230.9C219.7 223.2 219.8 217.8 216.8 213.6Z" fill="white"/>
<path d="M222.3 211.1C224.9 206.9 231.4 203.3 238.6 202.4C241.4 202.1 231 207.9 227.3 213.4C224.4 217.7 221.7 224.6 221.1 228.3C220.3 220.7 219.6 215.4 222.3 211.1Z" fill="white"/>
<path d="M221.2 261.5C215.4 261.5 210.7 260.3 210.4 254.5L209.4 237.9H233L232 254.5C231.7 260.3 227 261.5 221.2 261.5Z" fill="#E6E6E6"/>
<path d="M232.9 241.701H209.6C208.7 241.701 207.9 241.001 207.8 240.001L207.4 236.801C207.3 235.701 208.1 234.701 209.2 234.701H233.3C234.4 234.701 235.3 235.701 235.1 236.801L234.7 240.001C234.6 240.901 233.8 241.701 232.9 241.701Z" fill="#F0F0F0"/>
<path d="M250 427.5C357.088 427.5 443.9 422.441 443.9 416.2C443.9 409.96 357.088 404.9 250 404.9C142.912 404.9 56.1001 409.96 56.1001 416.2C56.1001 422.441 142.912 427.5 250 427.5Z" fill="#F5F5F5"/>
<path d="M417 103.6H298.2V416.2H417V103.6Z" fill="#DD3D83"/>
<path opacity="0.8" d="M417 103.6H298.2V416.2H417V103.6Z" fill="white"/>
<g opacity="0.4">
<path opacity="0.4" d="M419.8 144.1C415.5 144.5 413.6 145.2 411.8 142.6C410 140.1 403.5 139.6 401.3 142.3C399.1 145 398.3 146.9 393.4 146.1C388.5 145.4 386.9 146.7 386.1 148.7C385.3 150.7 374.1 151.5 377.3 153.7L419.1 147.5C419 147.7 424.1 143.7 419.8 144.1Z" fill="white"/>
<path opacity="0.4" d="M382.3 122.3C381 120.9 377 120.9 373.4 122.7C369.8 124.5 372.4 116.3 365.8 118.6C356.3 121.9 358.8 127.1 354.9 127.2C351 127.3 339.4 130.3 345.4 132.2L380.4 127C380.3 127.1 383.6 123.7 382.3 122.3Z" fill="white"/>
<path opacity="0.4" d="M336.4 177.199C335.4 176.199 332.6 176.199 330.1 177.499C327.6 178.799 329.4 172.899 324.7 174.599C318 176.899 319.7 180.599 316.9 180.699C314.1 180.699 305.9 182.899 310.2 184.299L335 180.599C335 180.599 337.3 178.199 336.4 177.199Z" fill="white"/>
</g>
<path opacity="0.07" d="M403.1 354V365.8C403.1 366.8 402.3 367.6 401.3 367.6H398.1C397.1 367.6 396.3 368.4 396.3 369.4V371.7C396.3 372.7 395.5 373.5 394.5 373.5H382.5C381.5 373.5 380.7 372.7 380.7 371.7V354C380.7 353 379.9 352.2 378.9 352.2H377C376 352.2 375.2 351.4 375.2 350.4V330.1C375.2 329.1 374.4 328.3 373.4 328.3H369.9C368.9 328.3 368.1 329.1 368.1 330.1V342.7C368.1 343.5 367.4 344.1 366.6 344.1C365.8 344.1 365.1 343.5 365.1 342.7V305.2C365.1 304.2 364.3 303.4 363.3 303.4H359.8C358.8 303.4 358 304.2 358 305.2V342.3C358 343.3 357.2 344.1 356.2 344.1H355.8C354.8 344.1 354 343.3 354 342.3V323.1C354 322.8 353.9 322.5 353.8 322.3L343 300.9C342.9 300.7 342.8 300.4 342.8 300.1V273.2C342.8 272.2 342 271.4 341 271.4H330.6C329.6 271.4 328.8 272.2 328.8 273.2V342.3C328.8 343.3 328 344.1 327 344.1H326.3C325.3 344.1 324.5 343.3 324.5 342.3V316C324.5 315 323.7 314.2 322.7 314.2H312.3C311.3 314.2 310.5 315 310.5 316V342.3C310.5 343.3 309.7 344.1 308.7 344.1H307.3C306.3 344.1 305.5 344.9 305.5 345.9V350.4C305.5 351.4 304.7 352.2 303.7 352.2H303.2C302.2 352.2 301.4 353 301.4 354V389.9C301.4 390.9 302.2 391.7 303.2 391.7H408.3C409.3 391.7 410.1 390.9 410.1 389.9V354C410.1 353 409.3 352.2 408.3 352.2H404.8C403.9 352.2 403.1 353 403.1 354Z" fill="#DD3D83"/>
<path opacity="0.07" d="M416.6 395H298.2V405.5H416.6V395Z" fill="#DD3D83"/>
<path d="M428.3 94.9004V416.2H415.3V109.3H310.9V416.2H297.9V94.9004H428.3Z" fill="#263238"/>
<path d="M422.5 94.9004V416.2H409.5V109.3H305.1V416.2H292.1V94.9004H422.5Z" fill="#DD3D83"/>
<path d="M325 133.499C320.5 133.899 314.7 136.899 327.7 140.399C340.7 143.899 342.5 140.099 342.5 140.099C342.5 140.099 337 132.599 325 133.499Z" fill="#DD3D83"/>
<path opacity="0.4" d="M325 133.499C320.5 133.899 314.7 136.899 327.7 140.399C340.7 143.899 342.5 140.099 342.5 140.099C342.5 140.099 337 132.599 325 133.499Z" fill="black"/>
<path d="M348.483 165.824C351.432 165.375 353.384 162.134 352.843 158.585C352.302 155.036 349.474 152.523 346.526 152.972C343.577 153.421 341.626 156.662 342.166 160.211C342.707 163.76 345.535 166.273 348.483 165.824Z" fill="#263238"/>
<path d="M331.185 150.535C334.134 150.086 336.085 146.844 335.545 143.296C335.004 139.747 332.176 137.234 329.227 137.683C326.279 138.132 324.327 141.373 324.868 144.922C325.408 148.471 328.237 150.984 331.185 150.535Z" fill="#263238"/>
<path d="M409.5 345.6V373.4C395 362 380.3 349.2 377.2 342.6C366.1 318.4 344.7 255.1 344.7 255.1L378.3 241.4C378.3 241.4 378.3 241.6 378.4 242.1C379.3 246.2 384 268.6 389.5 302.9C391 312 392.5 322.1 394 332.8C396.8 334.4 402.6 339.3 409.5 345.6Z" fill="#263238"/>
<path opacity="0.2" d="M391.1 311.799C389.4 300.599 387.7 290.399 386.1 281.599L378.4 275.699C378.4 275.699 381.9 293.899 391.1 311.799Z" fill="black"/>
<path d="M409.5 276.699V334.599C407.5 331.299 405.6 328.199 404 325.699C400.2 319.799 395.1 311.599 389.6 302.799C374.7 278.699 357.3 249.999 357.3 249.999L378.5 241.999L388.4 238.299C397 249.599 402.8 261.399 409.5 276.699Z" fill="#263238"/>
<path d="M334.4 198.1C333.7 198.6 333.2 199 332.6 199.4C332 199.8 331.4 200.2 330.8 200.5C329.6 201.2 328.4 201.9 327.2 202.6C324.8 203.9 322.3 205.2 319.8 206.3C318.5 206.9 317.3 207.4 316 207.9C314.7 208.4 313.4 208.9 312.1 209.3C309.5 210.2 306.7 210.8 304 211.4L303.6 211.5C302.1 211.8 300.5 211.5 299.3 210.6C296.5 208.6 294.2 206.4 292.1 204.2C290 202 288.1 199.6 286.3 197.3C284.5 194.9 282.8 192.5 281.3 190C279.7 187.5 278.2 185 276.9 182.3C276.1 180.7 276.7 178.7 278.3 177.9C279.6 177.2 281.2 177.5 282.2 178.6L282.3 178.7C284.2 180.7 286.1 182.8 288 184.8C289.9 186.8 291.9 188.8 293.8 190.7C295.7 192.6 297.8 194.5 299.8 196.2C301.8 197.9 303.9 199.4 305.8 200.6L301.1 199.8C303.3 199.1 305.6 198.3 307.8 197.4C310 196.5 312.2 195.5 314.3 194.4C316.4 193.3 318.6 192.2 320.7 191C321.7 190.4 322.8 189.8 323.8 189.2L325.3 188.3L326.7 187.4L327 187.2C330.1 185.2 334.2 186.1 336.1 189.2C338 192.1 337.2 196 334.4 198.1Z" fill="#B55B52"/>
<path d="M336.9 181.8C325.9 186.2 314.1 193.2 314.1 193.2C316.4 199.9 319.7 207.9 324.9 212.6C324.9 212.6 330 209.6 338.1 202.6C347.2 194.8 346.4 178 336.9 181.8Z" fill="#DD3D83"/>
<path d="M343.3 254.899C345 260.899 346.3 267.799 349 269.099C351.7 270.399 357.9 261.299 360.3 257.899C366.7 258.399 385.4 255.899 391.1 252.199C396.8 248.499 395 243.999 390.4 237.699C377.9 236.399 350.7 250.299 343.3 254.899Z" fill="white"/>
<path d="M363.4 174.1C354.7 175.6 345 178.3 336.9 181.5C327.7 185.2 322.9 192.7 324.6 202.6C326.6 214.4 335.6 241.9 344.1 260.6C345.6 263.8 389.9 243.7 392 239.3C388.5 227 379.4 215.4 375.9 186.1C375.2 180.1 369.3 173.1 363.4 174.1Z" fill="#DD3D83"/>
<path d="M354.6 197.299C357.5 195.799 361.8 194.499 363.5 194.099C364 193.999 364.5 194.199 364.6 194.699C364.9 195.599 365.5 197.199 366.1 198.499C366.3 198.999 366.1 199.599 365.5 199.799C363.2 200.499 359.3 201.899 356.9 202.999C356.5 203.199 356 202.999 355.7 202.599C354.7 201.099 354.2 199.399 354 198.399C354 197.899 354.2 197.499 354.6 197.299Z" fill="white"/>
<path d="M342.6 193.699C342.7 194.499 342.5 195.299 342.1 195.299C341.7 195.399 341.2 194.799 341 193.899C340.9 193.099 341.1 192.299 341.5 192.299C342 192.299 342.5 192.899 342.6 193.699Z" fill="white"/>
<path d="M376.7 182.1C379.1 183.5 381.4 185 383.6 186.5C385.8 188 388.1 189.5 390.3 191.1C392.5 192.7 394.7 194.3 396.8 196C398.9 197.7 401 199.4 403.1 201.2L403.5 201.5C404.7 202.5 405.3 203.9 405.4 205.3C405.5 208.5 405.1 211.5 404.4 214.3C403.7 217.1 402.8 219.7 401.7 222.2C400.6 224.7 399.4 227.1 398 229.4C396.6 231.7 395.2 233.8 393.4 236C392.2 237.4 390.2 237.6 388.8 236.5C387.7 235.6 387.3 234 387.8 232.8L387.9 232.6C388.7 230.5 389.6 228.1 390.4 225.9C391.2 223.6 391.9 221.4 392.4 219.1C393 216.9 393.4 214.6 393.6 212.5C393.8 210.3 393.8 208.3 393.6 206.5L395.8 210.7C391.6 207.7 387.3 204.8 383 201.9L370 193.4H369.9C366.8 191.4 366 187.3 368 184.3C369.7 181.3 373.7 180.4 376.7 182.1Z" fill="#B55B52"/>
<path d="M369.6 175.199C380 180.799 390.9 189.199 390.9 189.199C387.8 195.599 383.1 200.599 377.3 204.599C377.3 204.599 373.2 203.599 365.9 195.699C357.8 186.899 360.6 170.299 369.6 175.199Z" fill="#DD3D83"/>
<path d="M388.5 230.9L382.7 237.5L392.1 242.2C392.1 242.2 396.6 235.6 393.5 232.5L388.5 230.9Z" fill="#B55B52"/>
<path d="M383.2 246.7L386.8 247.8C388.2 248.2 389.7 247.5 390.3 246.2L392.1 242.2L382.7 237.5L381.1 242.9C380.6 244.5 381.5 246.2 383.2 246.7Z" fill="#B55B52"/>
<path d="M342 188.4C342 188.4 346.8 191.5 347.3 195.5C358.8 187.1 360.6 178.8 358.1 175.1C356.2 174.4 354.6 175.1 354.6 175.1C354.6 175.1 351.1 182.4 342 188.4Z" fill="white"/>
<path d="M342 188.4C342 188.4 338.7 192.3 338.3 196.3C331 193 333.6 184.4 335.6 182.1C337.1 180.9 339.7 180 339.7 180C339.7 180 337.1 183.4 342 188.4Z" fill="white"/>
<path d="M347.9 155.6C348.5 161.3 350.2 170.8 354.3 175C355.3 176 355.5 177.6 354.8 178.9C352.6 182.5 349.3 186.2 343.5 188.2C338.1 190 336.6 187.4 336.7 184.7C336.7 183.3 337.5 182 338.6 181.2C343.3 177.7 341.6 173.1 339.2 169.1L347.9 155.6Z" fill="#B55B52"/>
<path opacity="0.2" d="M344.4 161.1L339.3 169C339.9 170 340.5 171.1 340.9 172.2C343.4 171.1 346.1 167.2 345.6 164.4C345.2 162.9 344.8 161.6 344.4 161.1Z" fill="black"/>
<path d="M349.3 146.2C350.1 154.9 350.9 159.9 347.3 165C341.8 172.7 330.8 170.5 327.5 162.3C324.5 154.9 323.8 142 331.6 137.2C339.3 132.5 348.6 137.6 349.3 146.2Z" fill="#B55B52"/>
<path d="M334.3 134.499C329.4 134.999 327.1 137.899 328.4 139.299C324.1 140.099 328 145.299 332.6 143.199C333 144.899 342.2 144.299 342.3 141.799C344.4 147.199 347 146.899 347 146.899C347 146.899 344.3 152.899 348.2 153.699C348.2 157.099 350.6 160.099 353.2 159.499C356 158.899 355.1 154.099 355.1 154.099C360.3 151.799 356.8 146.599 356.8 146.599C356.7 140.899 344.8 128.099 334.3 134.499Z" fill="#263238"/>
<path d="M328 157.2C327 157.2 326 156.6 325.2 155.4C324.4 154.2 323.9 152.6 323.8 150.8C323.7 149 324 147.4 324.6 146.1C325.3 144.8 326.2 144 327.3 143.9C328.4 143.8 329.5 144.5 330.3 145.7C331.1 146.9 331.6 148.5 331.7 150.3C331.9 154 330.3 157.1 328.1 157.2C328.1 157.2 328.1 157.2 328 157.2ZM327.5 144.3H327.4C326.5 144.4 325.7 145 325.1 146.2C324.5 147.4 324.2 149 324.3 150.7C324.4 152.4 324.9 153.9 325.6 155C326.3 156.1 327.2 156.6 328.1 156.6C330 156.5 331.4 153.6 331.2 150.2C331.1 148.5 330.6 147 329.9 145.9C329.2 144.9 328.3 144.3 327.5 144.3Z" fill="white"/>
<path d="M337.6 156.5C336.4 156.5 335.3 155.9 334.4 154.7C333.5 153.5 332.9 151.9 332.8 150.1C332.6 146.4 334.5 143.3 337.1 143.1C339.7 142.9 342 145.8 342.2 149.5C342.3 151.3 341.9 153 341.2 154.3C340.4 155.6 339.3 156.4 338 156.5C337.7 156.5 337.6 156.5 337.6 156.5ZM337.1 143.7C337 143.7 337 143.7 336.9 143.7C334.6 143.8 332.9 146.7 333.2 150.1C333.3 151.8 333.8 153.3 334.7 154.4C335.6 155.5 336.6 156 337.7 156C338.8 155.9 339.8 155.2 340.5 154.1C341.2 152.9 341.6 151.3 341.5 149.6C341.3 146.3 339.3 143.7 337.1 143.7Z" fill="white"/>
<path d="M331.5 150.5C331.4 150.5 331.3 150.5 331.3 150.4C331.2 150.3 331.2 150.1 331.3 150C331.3 150 332.1 149.4 333.1 149.9C333.2 150 333.3 150.1 333.2 150.3C333.1 150.4 333 150.5 332.8 150.4C332.1 150.1 331.6 150.4 331.6 150.5C331.6 150.5 331.5 150.5 331.5 150.5Z" fill="white"/>
<path d="M349.6 151.199C349.5 151.199 349.5 151.199 349.6 151.199C343.7 149.899 341.9 150.199 341.9 150.199C341.8 150.199 341.6 150.099 341.6 149.999C341.6 149.899 341.7 149.699 341.8 149.699C341.9 149.699 343.7 149.299 349.7 150.699C349.8 150.699 349.9 150.899 349.9 150.999C349.8 151.199 349.7 151.199 349.6 151.199Z" fill="white"/>
<path d="M353.6 154.099C352.7 156.299 351.1 157.799 349.5 158.599C347.1 159.699 345.8 157.399 346.4 154.699C346.9 152.299 348.7 148.799 351.1 148.799C353.5 148.899 354.6 151.599 353.6 154.099Z" fill="#B55B52"/>
<path d="M336.8 150.499C336.9 151.199 336.5 151.799 336.1 151.899C335.6 151.899 335.2 151.399 335.2 150.699C335.1 149.999 335.5 149.399 335.9 149.299C336.3 149.299 336.8 149.799 336.8 150.499Z" fill="#263238"/>
<path d="M328.6 151.1C328.7 151.8 328.3 152.4 327.9 152.5C327.4 152.5 327 152 327 151.3C326.9 150.6 327.3 150 327.7 149.9C328.2 149.9 328.6 150.4 328.6 151.1Z" fill="#263238"/>
<path d="M332.1 150.699C332.1 150.699 329.9 154.299 328.9 156.899C330.2 157.999 332.6 157.199 332.6 157.199L332.1 150.699Z" fill="#A02724"/>
<path d="M333.4 160.799C336.1 160.499 337.4 158.699 337.5 158.599C337.6 158.499 337.5 158.399 337.5 158.299C337.4 158.199 337.3 158.299 337.2 158.399C337.2 158.399 335.6 160.499 332.6 160.399C332.5 160.399 332.4 160.499 332.4 160.599C332.4 160.699 332.5 160.799 332.6 160.799C332.8 160.899 333.1 160.799 333.4 160.799Z" fill="#263238"/>
<path d="M340 147.9C340.1 147.9 340.1 147.9 340.2 147.8C340.4 147.6 340.4 147.4 340.2 147.2C338.7 145.5 336.8 145.8 336.7 145.8C336.5 145.8 336.3 146.1 336.4 146.3C336.4 146.5 336.6 146.7 336.9 146.6C337 146.6 338.4 146.4 339.6 147.7C339.7 147.9 339.9 147.9 340 147.9Z" fill="#263238"/>
<path d="M325.3 148.399C325.4 148.399 325.6 148.399 325.7 148.199C326.9 146.799 328.3 146.899 328.4 146.899C328.6 146.899 328.8 146.799 328.9 146.499C328.9 146.299 328.8 146.099 328.5 145.999C328.4 145.999 326.5 145.799 325.1 147.599C325 147.799 325 147.999 325.2 148.199C325.1 148.299 325.2 148.299 325.3 148.399Z" fill="#263238"/>
<path d="M281.5 184.9L272.9 186.5L273.7 176C273.7 176 281.7 175.5 282.8 179.8L281.5 184.9Z" fill="#B55B52"/>
<path d="M265.2 181.3L266.1 177.7C266.5 176.3 267.8 175.3 269.3 175.5L273.7 176L272.9 186.5L267.5 185.1C265.8 184.7 264.8 183 265.2 181.3Z" fill="#B55B52"/>
<path d="M331.5 134.499C333.2 129.699 336.1 126.599 338.8 126.199C340.6 125.899 348 127.199 351.3 128.899C354.5 130.599 359.2 136.699 359.4 138.899C359.6 141.099 356.8 146.699 356.8 146.699C356.8 146.699 343.8 138.199 331.5 134.499Z" fill="#DD3D83"/>
<path d="M335.7 127.999C339 128.699 343.3 129.999 345 130.699C345.5 130.899 345.6 131.299 345.3 131.599C344.8 132.299 343.8 133.599 343.1 134.599C342.8 134.999 342.1 135.199 341.6 134.999C339.3 134.199 335.4 132.899 332.8 132.199C332.3 132.099 332.1 131.699 332.3 131.399C332.8 130.099 333.9 128.899 334.5 128.299C334.8 128.099 335.3 127.899 335.7 127.999Z" fill="white"/>
<path d="M324.6 133.599C334.2 133.599 337.7 139.899 342.7 141.799C347.7 143.699 355.9 142.699 355.9 142.699C355.9 142.699 339.2 131.799 324.6 133.599Z" fill="#DD3D83"/>
<path d="M227.874 184.394L302.396 175.111L298.515 143.953L223.993 153.235L227.874 184.394Z" fill="#DD3D83"/>
<path opacity="0.4" d="M253.885 181.125L302.309 175.094L298.428 143.936L250.004 149.967L253.885 181.125Z" fill="white"/>
<path opacity="0.3" d="M289.5 173.9L288.4 165.1L297.9 163.9L299 172.7L289.5 173.9ZM289.4 165.9L290.3 172.8L298 171.8L297.1 164.9L289.4 165.9Z" fill="white"/>
<path opacity="0.3" d="M278.1 175.301L277 166.501L286.5 165.301L287.6 174.101L278.1 175.301ZM278.1 167.301L279 174.201L286.7 173.201L285.8 166.301L278.1 167.301Z" fill="white"/>
<path d="M270.279 156.492L280.5 155.219L279.387 146.288L269.167 147.561L270.279 156.492Z" fill="white"/>
<path d="M235.089 160.819L240.943 160.09L239.831 151.159L233.976 151.888L235.089 160.819Z" fill="white"/>
<path d="M381 164.4C376.4 163.8 369.2 160.9 365.8 158.2C365.7 158.1 365.7 157.9 365.8 157.8C365.9 157.7 366.1 157.7 366.2 157.8C369.5 160.4 376.6 163.3 381.1 163.9C381.2 163.9 381.4 164.1 381.3 164.2C381.3 164.3 381.1 164.4 381 164.4Z" fill="white"/>
<path d="M314.4 231.2H314.3C310 229.5 303.8 224.8 301.3 221.3C301.2 221.2 301.2 221 301.4 220.9C301.5 220.8 301.7 220.8 301.8 221C304.3 224.4 310.4 229 314.6 230.7C314.7 230.8 314.8 230.9 314.7 231.1C314.6 231.1 314.5 231.2 314.4 231.2Z" fill="white"/>
<path d="M389.5 172.2C384.7 172.2 379.2 170.7 376.8 170C376.7 170 376.6 169.8 376.6 169.7C376.6 169.6 376.8 169.5 376.9 169.5C379.5 170.3 386 172.1 391 171.7C391.1 171.7 391.3 171.8 391.3 171.9C391.3 172 391.2 172.2 391.1 172.2C390.6 172.2 390.1 172.2 389.5 172.2Z" fill="white"/>
<path d="M150.4 129.099C142.1 138.699 153.8 146.599 156.2 154.699C158.5 162.799 157.1 180.299 167.5 190.299C183.6 205.899 202.1 197.099 205.3 187.999C208.4 178.999 207.3 164.599 193.6 154.699C185.4 148.799 191.8 129.399 184.3 126.999C185.8 115.399 148.8 106.799 150.4 129.099Z" fill="#263238"/>
<path d="M205 187.3C204.9 187.3 204.8 187.3 204.8 187.2C204.7 187.1 204.8 186.9 204.9 186.8C207.6 185.1 209 182 208.9 178.2C208.8 171.9 204.3 163.1 194.7 157.3C190.3 154.7 189.9 147 189.5 140.2C189.2 134.8 188.9 129.7 186.8 128C186.2 127.5 185.4 127.3 184.4 127.4C184.3 127.4 184.1 127.3 184.1 127.2C184.1 127.1 184.2 126.9 184.3 126.9C185.4 126.8 186.3 127 187.1 127.6C189.4 129.5 189.7 134.7 190 140.2C190.4 146.9 190.8 154.5 195 156.9C203.7 162 209.3 170.4 209.5 178.2C209.6 182.2 208.1 185.4 205.2 187.3C205.1 187.3 205 187.3 205 187.3Z" fill="#263238"/>
<path d="M131.5 196.699L128.3 198.199L120.6 196.499C119.7 196.299 118.9 195.799 118.4 195.099L116.7 193.099C115.9 192.199 115.9 190.799 116.7 189.899L118.5 187.799C119.4 186.799 120.9 186.599 121.9 187.499L126.1 190.899C126.2 190.899 131.3 192.599 131.5 196.699Z" fill="#FF8B7B"/>
<path d="M158.9 410.7H152.8L151.8 388L162 388.2L158.9 410.7Z" fill="#FF8B7B"/>
<path d="M148.4 214.898C148.4 214.898 147.9 277.898 146.5 305.298C146.5 306.098 146.5 306.898 146.5 307.698C148.5 335.198 151.8 387.998 151.8 387.998L162 388.298C162 388.298 170.9 346.098 165.4 307.898C174.3 264.698 179.1 226.198 171 214.898H148.4V214.898Z" fill="#263238"/>
<path d="M150.8 384.799C150.9 386.399 151.2 390.399 151.5 391.599C151.5 391.799 151.7 391.899 151.8 391.999C156.6 393.899 161.3 393.599 161.7 392.699C162 391.899 162.9 386.999 163.2 385.099C163.3 384.799 163 384.399 162.6 384.499C160.6 384.599 154.6 384.899 151.3 384.299C151.1 384.199 150.8 384.499 150.8 384.799Z" fill="#DD3D83"/>
<path opacity="0.2" d="M165.5 239.898C162.4 250.398 165.4 284.198 167 299.798C169.2 288.498 171.1 277.698 172.5 267.698L165.5 239.898Z" fill="black"/>
<path d="M152.1 407.699H159.9C160.3 407.699 160.5 407.899 160.6 408.299L161.4 414.699C161.5 415.499 160.7 416.199 159.9 416.199C156.4 416.099 154.8 415.999 150.4 415.999C147.7 415.999 146.1 416.299 142.4 416.299C138.8 416.299 138.7 412.699 140.2 412.399C147.2 410.899 148.1 410.099 150.5 408.199C151.1 407.899 151.6 407.699 152.1 407.699Z" fill="#263238"/>
<path d="M151.3 163.498C148.9 162.998 146.6 164.498 146.1 166.898C145.3 170.798 144.4 174.798 143.4 178.798C142.5 182.698 141.4 186.698 140.2 190.398C139.6 192.298 139 194.098 138.3 195.798C137.9 196.598 137.6 197.498 137.2 198.098C137.1 198.198 137.1 198.298 137 198.398C136.4 198.198 135.7 197.798 135 197.398C133.5 196.398 131.8 195.198 130.2 194.098L130.1 193.998C129.4 193.498 128.5 193.398 127.7 193.898C126.6 194.498 126.3 195.798 126.9 196.898C128 198.898 129.3 200.598 130.9 202.298C131.7 203.198 132.6 203.998 133.7 204.698C134.3 205.098 134.9 205.498 135.8 205.798C136.6 206.098 137.8 206.398 139.3 206.098C140 205.998 140.8 205.598 141.4 205.198C141.7 204.998 142 204.698 142.3 204.498C142.5 204.298 142.5 204.298 142.5 204.198L142.7 203.998C143.2 203.398 143.6 202.898 143.9 202.298C144.6 201.198 145.1 200.198 145.6 199.098C146.6 196.998 147.4 194.998 148.1 192.998C149.6 188.898 150.7 184.898 151.8 180.798C152.3 178.798 152.8 176.698 153.3 174.698C153.8 172.598 154.2 170.598 154.6 168.498C155.1 166.198 153.7 163.998 151.3 163.498Z" fill="#FF8B7B"/>
<path d="M145.2 206.299C145.2 208.899 185.3 209.399 185.3 205.999L164.8 200.799L145.2 206.299Z" fill="#263238"/>
<path d="M152.6 161.799C163.2 159.999 173.9 160.199 184.5 162.099C187.1 162.499 188.8 164.999 188.3 167.599C182.6 192.999 183 201.499 183.5 214.799H148.4C146.6 192.499 145.7 179.799 145.5 172.599C145.3 167.199 147.1 162.599 152.6 161.799Z" fill="#FF8B7B"/>
<path opacity="0.2" d="M184.4 169.199C184 171.499 184.7 176.799 185.8 179.699C186.2 177.299 186.8 174.699 187.4 171.899L184.4 169.199Z" fill="black"/>
<path d="M173 143.299C172 148.399 171 157.699 174.6 161.099C174.6 161.099 173.2 166.299 163.8 166.299C153.4 166.299 158.8 161.199 158.8 161.199C164.5 159.799 164.3 155.599 163.3 151.699L173 143.299Z" fill="#FF8B7B"/>
<path opacity="0.2" d="M169 146.699L163.3 151.599C163.5 152.499 163.7 153.499 163.8 154.399C166 154.099 168.9 151.699 169.2 149.399C169.2 148.299 169.2 147.199 169 146.699Z" fill="black"/>
<path d="M154.5 136.799C157 144.899 157.8 148.399 163 151.699C170.8 156.599 180.2 151.799 180.2 143.099C180.2 135.299 176.2 123.299 167.3 121.899C158.7 120.499 152.1 128.599 154.5 136.799Z" fill="#FF8B7B"/>
<path d="M155.4 142.399C159.3 142.699 161 136.299 159.1 132.799C157.2 129.299 150.1 136.399 155.4 142.399Z" fill="#263238"/>
<path d="M153.3 128.3C165.8 135 173.3 122.5 179.8 129.1C176.6 119.8 158.9 115.9 153.3 128.3Z" fill="#263238"/>
<path d="M175.4 141.998C175.4 141.998 172.7 141.298 165.2 140.898C166 142.798 167.6 144.398 171.5 144.598C175.3 144.798 175.4 141.998 175.4 141.998Z" fill="white"/>
<path d="M218.2 395.7L212.1 397.6L203.3 379.1L212.6 376.5L218.2 395.7Z" fill="#FF8B7B"/>
<path d="M210.8 397L217.4 393C217.7 392.8 218 392.9 218.2 393.1L222.6 398.3C223.1 398.8 222.9 399.7 222.3 400.1C219.8 401.6 219.3 401.8 216.2 403.8C214.3 405 211.7 408.4 209.1 410.1C206.5 411.8 204.7 409.5 205.5 408.4C208.6 403.9 209.6 400.5 210 398.2C210.1 397.6 210.4 397.3 210.8 397Z" fill="#263238"/>
<path d="M158 214.898C158 214.898 170.9 280.798 175.7 306.898C180.8 333.998 203.2 379.098 203.2 379.098L212.5 376.498C212.5 376.498 199.7 328.398 193.8 304.498C192.6 261.298 194 226.098 183.4 214.898C171.7 214.898 158 214.898 158 214.898Z" fill="#263238"/>
<path d="M200 374.098C200.7 375.598 202.5 379.098 203.2 380.098C203.3 380.198 203.5 380.298 203.6 380.298C208.7 380.198 213 378.098 213 377.098C213 376.298 211.9 371.298 211.5 369.498C211.4 369.198 211.1 368.998 210.7 369.098C208.9 369.998 203.5 372.498 200.2 373.198C200 373.398 199.9 373.798 200 374.098Z" fill="#DD3D83"/>
<path d="M168.2 135.8C168.4 136.5 168.8 136.9 169.3 136.8C169.7 136.7 170 136.1 169.8 135.4C169.6 134.7 169.2 134.3 168.7 134.4C168.3 134.5 168.1 135.2 168.2 135.8Z" fill="#263238"/>
<path d="M175.8 133.999C176 134.699 176.4 135.099 176.9 134.999C177.3 134.899 177.6 134.299 177.4 133.599C177.2 132.899 176.8 132.499 176.3 132.599C175.8 132.699 175.6 133.399 175.8 133.999Z" fill="#263238"/>
<path d="M176.1 132.698L177.6 131.898C177.6 131.898 177.1 133.298 176.1 132.698Z" fill="#263238"/>
<path d="M173.7 135.799C173.7 135.799 175.5 138.399 177.1 139.499C176.4 140.499 174.8 140.499 174.8 140.499L173.7 135.799Z" fill="#FF5652"/>
<path d="M153.8 143.899C154.8 145.399 156.3 146.299 157.7 146.499C159.8 146.899 160.7 144.899 160 142.999C159.3 141.299 157.4 138.999 155.3 139.399C153.3 139.999 152.7 142.299 153.8 143.899Z" fill="#FF8B7B"/>
<path d="M152.4 128.299C156.3 122.399 161.7 126.199 162.7 127.599C163.7 128.999 153 139.299 157.6 149.399C152.1 146.699 147.8 137.199 152.4 128.299Z" fill="#263238"/>
<path d="M165.1 135.199C165.3 135.199 165.4 134.999 165.4 134.799C165.6 132.899 167.7 131.699 167.7 131.699C167.9 131.599 168 131.299 167.9 131.099C167.8 130.899 167.5 130.799 167.3 130.899C167.2 130.999 164.8 132.299 164.6 134.599C164.6 134.799 164.7 134.999 165 134.999C165 135.199 165 135.199 165.1 135.199Z" fill="#263238"/>
<path d="M177.9 129.9C178 129.9 178.2 129.9 178.3 129.7C178.4 129.5 178.4 129.3 178.2 129.1C176.4 127.7 174.7 128.3 174.6 128.3C174.4 128.4 174.3 128.6 174.3 128.8C174.4 129 174.6 129.1 174.8 129.1C174.9 129.1 176.2 128.6 177.7 129.7C177.8 129.9 177.8 129.9 177.9 129.9Z" fill="#263238"/>
<path d="M202.9 191.799C202.9 191.499 202.9 191.299 202.8 190.999L202.7 190.599L202.6 190.299C202.5 189.899 202.4 189.599 202.3 189.199C201.5 186.499 200.4 184.199 199.2 181.999C198.1 179.799 196.8 177.699 195.5 175.599C192.9 171.399 190.2 167.499 187.3 163.599C185.9 161.699 183.2 161.299 181.3 162.699C179.3 164.099 178.9 166.799 180.3 168.799V168.899C183 172.599 185.7 176.499 188.2 180.299C189.5 182.199 190.7 184.199 191.8 186.099C192.9 187.999 194 189.999 194.7 191.799C194.8 191.999 194.8 192.199 194.9 192.399V192.499C194.9 192.499 194.9 192.499 194.9 192.599C194.9 192.699 194.9 193.099 194.9 193.399C194.8 194.199 194.6 195.099 194.3 196.099C193.6 198.099 192.8 200.199 191.8 202.199C190.8 204.299 189.8 206.299 188.6 208.399C187.5 210.399 186.3 212.499 185.2 214.499C184.7 215.399 184.9 216.499 185.6 217.199C186.5 217.999 187.9 217.899 188.7 216.999C192 213.399 194.9 209.499 197.6 205.399C198.9 203.299 200.2 201.099 201.2 198.699C201.7 197.499 202.2 196.199 202.5 194.599C202.8 193.799 203 192.899 202.9 191.799Z" fill="#FF8B7B"/>
<path d="M168.5 134.499L170 133.699C170 133.699 169.5 135.099 168.5 134.499Z" fill="#263238"/>
<path d="M146.4 170.198C147.5 165.698 148.9 162.498 148.9 162.498C148.9 162.498 151.6 161.698 153.8 161.498C154.8 162.398 159.2 166.298 162 172.098C166.5 167.598 175.1 162.998 180.3 161.298C182.9 160.998 185.6 161.998 185.6 161.998C182 173.198 178.4 184.598 184.8 187.498C184.7 192.798 185 199.498 185.3 206.198C179.2 205.498 155 204.398 145.2 206.498C144.7 199.698 144.5 193.898 144.5 188.998C140 182.998 144.5 175.098 146.4 170.198Z" fill="#DD3D83"/>
<path d="M174.7 167.098C173.6 166.598 172.4 165.998 171.2 165.398C171 165.498 170.8 165.598 170.7 165.698C172 166.398 173.3 167.098 174.6 167.598C175.5 167.998 176.4 168.398 177.3 168.798C179.2 169.598 181.1 170.498 182.9 171.398C182.9 171.198 183 171.098 183 170.898C181.2 169.998 179.3 169.198 177.5 168.398C176.5 167.898 175.6 167.498 174.7 167.098Z" fill="white"/>
<path d="M166.7 184.398C163.8 182.398 160.7 180.298 157.6 178.298C154 176.098 149.9 173.698 145.4 172.598C145.3 172.798 145.3 172.898 145.2 173.098C149.6 174.198 153.8 176.598 157.3 178.798C160.4 180.698 163.4 182.798 166.4 184.798C172.3 188.898 178.4 192.998 185 196.098C185 195.898 185 195.698 185 195.498C178.5 192.498 172.5 188.398 166.7 184.398Z" fill="white"/>
<path d="M184.8 189.698C184.8 189.498 184.8 189.298 184.8 189.098C184.5 188.998 184.2 188.798 183.9 188.698C170.9 183.098 157.4 177.298 147.1 167.498C147 167.698 147 167.898 146.9 168.098C157.2 177.798 170.6 183.598 183.6 189.198C184.1 189.398 184.4 189.598 184.8 189.698Z" fill="white"/>
<path d="M169.7 170.498C173.5 172.998 177.4 175.498 181.4 177.798C181.4 177.598 181.4 177.398 181.5 177.198C177.6 174.898 173.7 172.398 170 169.998C169 169.298 167.9 168.698 166.9 167.998C166.7 168.098 166.6 168.198 166.4 168.298C167.6 169.098 168.6 169.798 169.7 170.498Z" fill="white"/>
<path d="M153.9 196.998C150.1 195.098 147 192.998 144.6 190.598C144.6 190.798 144.6 191.098 144.6 191.298C147 193.498 150.1 195.598 153.7 197.398C156.4 198.698 159.2 199.898 161.9 200.998C164.9 202.198 168 203.498 170.9 205.098C171.3 205.098 171.7 205.098 172.1 205.098C168.9 203.298 165.4 201.898 162.1 200.498C159.4 199.498 156.6 198.398 153.9 196.998Z" fill="white"/>
<path d="M154.7 205.298C151 203.498 147.5 201.298 144.8 198.398C144.8 198.698 144.8 198.898 144.8 199.198C147.3 201.698 150.4 203.698 153.6 205.398C154 205.298 154.3 205.298 154.7 205.298Z" fill="white"/>
<path d="M182.4 197.098C177.9 194.798 173.2 192.898 168.6 191.098C161.2 188.098 153.6 185.098 147 180.298C145.9 179.498 144.7 178.598 143.6 177.398C143.5 177.598 143.5 177.798 143.4 177.998C144.5 179.098 145.7 179.998 146.7 180.798C153.3 185.598 161 188.698 168.4 191.598C173 193.398 177.7 195.298 182.2 197.598C183.1 198.098 184.1 198.598 185.1 199.298C185.1 199.098 185.1 198.898 185.1 198.698C184.1 198.098 183.2 197.598 182.4 197.098Z" fill="white"/>
<path d="M159 193.999C154.4 190.799 149.6 187.599 144.6 184.799C144 184.399 143.3 184.099 142.5 183.799C142.5 183.999 142.5 184.199 142.6 184.399C143.2 184.699 143.8 184.999 144.4 185.299C149.3 188.099 154.1 191.399 158.7 194.499C164.3 198.299 170.2 202.299 176.3 205.499C176.7 205.499 177.1 205.499 177.6 205.599C171.1 202.199 165 197.999 159 193.999Z" fill="white"/>
<path d="M191.1 213.4L187.9 212L180.3 214C179.4 214.2 178.7 214.7 178.1 215.4L176.5 217.5C175.8 218.5 175.8 219.8 176.6 220.7L178.4 222.7C179.3 223.7 180.8 223.8 181.9 222.9L186 219.4C186 219.3 190.9 217 191.1 213.4Z" fill="#FF8B7B"/>
<path d="M186 212.2C186.1 214 187.2 216.9 188.8 218.2C189.7 217.9 190.4 216.5 190.4 216.5C190.4 216.5 187.9 214.3 187.5 210.5C186.5 211 186 212.2 186 212.2Z" fill="#DD3D83"/>
<path d="M131.3 195.5C132.2 192 128.7 190.3 127.2 186C126.6 184.4 125.5 185.2 125.5 187C125.4 189.7 126.8 193.1 126.8 193.1L131.3 195.5Z" fill="#FF8B7B"/>
<path d="M128.8 192.999L123 194.199C122.4 194.299 121.7 193.999 121.4 193.399L114.5 179.599C114.2 178.999 114.5 178.399 115.1 178.299L120.9 177.099C121.5 176.999 122.2 177.299 122.5 177.899L129.4 191.699C129.7 192.299 129.4 192.799 128.8 192.999Z" fill="#DD3D83"/>
<path d="M121.7 174.299C121.5 174.299 121.4 174.199 121.4 173.999L121.6 171.999C121.6 171.899 121.7 171.699 121.9 171.799C122 171.799 122.2 171.899 122.1 172.099L121.9 174.099C121.9 174.199 121.8 174.299 121.7 174.299Z" fill="#DD3D83"/>
<path d="M123.7 175.098C123.6 175.098 123.6 175.098 123.5 174.998C123.4 174.898 123.4 174.698 123.5 174.598L127 171.098C127.1 170.998 127.3 170.998 127.4 171.098C127.5 171.198 127.5 171.398 127.4 171.498L123.9 174.998C123.9 175.098 123.8 175.098 123.7 175.098Z" fill="#DD3D83"/>
<path d="M124.5 177.099C124.4 177.099 124.3 176.999 124.2 176.899C124.2 176.799 124.3 176.599 124.4 176.599L128 175.799C128.1 175.799 128.3 175.899 128.3 175.999C128.3 176.099 128.2 176.299 128.1 176.299L124.5 177.099Z" fill="#DD3D83"/>
<path d="M128.2 193.899L122.4 195.099C121.8 195.199 121.1 194.899 120.8 194.299L113.9 180.499C113.6 179.899 113.9 179.299 114.5 179.199L120.3 177.999C120.9 177.899 121.6 178.199 121.9 178.799L128.8 192.599C129 193.199 128.8 193.799 128.2 193.899Z" fill="#263238"/>
<path d="M116.7 189.899C117.1 189.499 117.5 188.999 117.8 188.499C118.4 187.699 119.7 187.799 120.2 188.699L122.2 191.799C123 193.099 123 194.699 122.2 195.999L122 196.299L116.7 189.899Z" fill="#FF8B7B"/>
<path d="M62.2001 98.3016L61.3 97.7016C64.9 92.2016 69.7001 87.4016 75.4001 84.1016L76 85.0016C70.5 88.3016 65.7001 92.9016 62.2001 98.3016Z" fill="#DD3D83"/>
<path d="M56.3 113.6L55.3 113.4C55.8 110.3 56.7001 107.3 57.9001 104.5L58.9001 104.9C57.6001 107.7 56.8 110.6 56.3 113.6Z" fill="#DD3D83"/>
<path d="M135.8 120.601C135.8 99.2008 118.4 81.8008 97 81.8008C75.6 81.8008 58.2 99.2008 58.2 120.601C58.2 142.001 75.6 159.401 97 159.401C98.7 159.401 100.4 159.301 102.1 159.101L115.8 169.401L118.8 152.701C129.1 145.601 135.8 133.901 135.8 120.601Z" fill="#DD3D83"/>
<path d="M86.1003 133.101C85.8003 133.101 85.6003 132.901 85.5003 132.601L78.6003 109.201C78.5003 109.001 78.6003 108.801 78.7003 108.701C78.8003 108.501 79.0003 108.401 79.2003 108.401L114 105.201C114.2 105.201 114.4 105.201 114.5 105.401C114.6 105.501 114.7 105.701 114.7 105.901L113.1 130.101C113.1 130.401 112.8 130.701 112.5 130.701L86.1003 133.101C86.2003 133.101 86.2003 133.101 86.1003 133.101ZM80.1003 109.601L86.6003 131.701L111.8 129.401L113.3 106.501L80.1003 109.601Z" fill="white"/>
<path d="M79.3001 109.701C79.1001 109.701 78.9001 109.601 78.8001 109.401L76.0001 105.601L70.6001 106.101C70.2001 106.101 69.9001 105.901 69.9001 105.501C69.9001 105.101 70.1001 104.801 70.5001 104.801L76.2001 104.301C76.4001 104.301 76.6001 104.401 76.8001 104.601L79.8001 108.601C80.0001 108.901 80.0001 109.301 79.7001 109.501C79.5001 109.701 79.4001 109.701 79.3001 109.701Z" fill="white"/>
<path d="M90.6001 142.701C88.9001 142.701 87.5001 141.401 87.3001 139.701C87.1001 137.901 88.5001 136.301 90.3001 136.101C92.1001 135.901 93.7001 137.301 93.9001 139.101C94.1001 140.901 92.7001 142.501 90.9001 142.701C90.8001 142.701 90.7001 142.701 90.6001 142.701ZM90.6001 137.501C90.5001 137.501 90.5001 137.501 90.4001 137.501C89.3001 137.601 88.5001 138.601 88.6001 139.601C88.7001 140.701 89.7001 141.501 90.7001 141.401C91.8001 141.301 92.6001 140.301 92.5001 139.301C92.5001 138.201 91.6001 137.501 90.6001 137.501Z" fill="white"/>
<path d="M108.4 141.101C107.6 141.101 106.9 140.801 106.3 140.301C105.6 139.701 105.2 139.001 105.1 138.101C105 137.201 105.3 136.401 105.8 135.701C106.3 135.001 107.1 134.601 108 134.501C109.8 134.301 111.4 135.701 111.6 137.501C111.8 139.301 110.4 140.901 108.6 141.101C108.6 141.101 108.5 141.101 108.4 141.101ZM108.4 135.801C108.3 135.801 108.3 135.801 108.2 135.801C107.7 135.801 107.2 136.101 106.9 136.501C106.6 136.901 106.4 137.401 106.5 137.901C106.5 138.401 106.8 138.901 107.2 139.201C107.6 139.501 108.1 139.701 108.6 139.601C109.7 139.501 110.5 138.501 110.4 137.501C110.3 136.601 109.4 135.801 108.4 135.801Z" fill="white"/>
<path d="M95.9002 126.201C95.5002 126.201 95.2002 126.101 94.9002 125.801L89.2002 121.101C88.5002 120.501 88.4002 119.501 89.0002 118.801C89.6002 118.101 90.6002 118.001 91.3002 118.601L95.7002 122.301L104.8 111.301C105.4 110.601 106.4 110.501 107.1 111.101C107.8 111.701 107.9 112.701 107.3 113.401L97.1002 125.601C96.8002 126.001 96.4002 126.201 95.9002 126.201Z" fill="white"/>
</svg>
