<svg width="2135" height="1033" viewBox="0 0 2135 1033" fill="none" xmlns="http://www.w3.org/2000/svg">
<path d="M2125.7 735.6C2125.6 740.1 2125.5 744.5 2125.2 748.9C2125 753.3 2124.8 757.6 2124.5 761.9C2123.2 780.7 2120.9 798.9 2117.9 816.3C2117 821.5 2116.1 826.6 2115.1 831.6C2114.9 832.8 2114.6 834 2114.5 835.1L2114.3 835.7C2113.7 838.8 2113 841.8 2112.4 844.9C2111.2 850.3 2109.9 855.6 2108.7 860.8C2108.4 861.8 2108.2 862.7 2108 863.7C2104.5 877.4 2100.8 890.2 2096.9 902.2C2096.3 904.2 2095.6 906.2 2095 908.2C2093.3 913.5 2091.5 918.5 2089.8 923.4C2088.5 927 2087.3 930.3 2086.1 933.6C2079.5 951.3 2073 965.9 2067.8 977C2063 987.3 2058.9 995.9 2056.8 1000.3C2055.9 1002.2 2055.3 1003.3 2055.3 1003.3C2055.3 1003.3 1045.5 1003.5 488.1 1003.6C275.6 1003.6 128.9 1003.6 128.9 1003.6C128.9 1003.5 128.8 1003.5 128.8 1003.5C127.5 1002.5 126.3 1001.6 125.2 1000.6C125.1 1000.6 125.1 1000.6 125.1 1000.6C124.6 1000.1 124 999.8 123.6 999.3L97.1 970.6C91.3 962.3 86.5 953.5 82.9 944.3C75.9 927.2 72.5 908.6 72.5 889.2C72.5 888.3 72.5 887.3 72.6 886.3C72.6 884.6 72.7 882.7 72.7 881C72.8 879.5 72.9 877.9 73 876.4C73.5 870.8 74.1 865.1 75 859.5C75 859.3 75.1 859.1 75.1 859C75.3 858.1 75.5 857.1 75.6 856.1C75.8 854.9 76.1 853.7 76.3 852.5C77.1 848.3 78.1 844.1 79.2 839.8C79.4 838.8 79.7 837.8 79.9 836.8C80.3 835.6 80.5 834.4 81 833.2C82 829.5 83.3 825.7 84.6 821.9C87.1 814.6 90 807.3 93.3 799.9C93.5 799.4 93.8 798.7 94 798.2C97 791.6 100.3 785 103.8 778.3C109.2 768.3 115.3 758.4 121.9 748.5C123.4 746.4 124.8 744.3 126.3 742.3C133.7 731.8 141.8 721.5 150.6 711.4C161.3 699.1 172.9 687 185.5 675.3C188.3 672.7 191.1 670.1 194 667.6C194.6 667.1 195.3 666.5 195.9 665.9C197.5 664.5 199.2 663.1 200.8 661.7C207.7 655.7 214.5 650 221.1 644.6C224.5 641.9 227.7 639.2 231 636.6C237.5 631.4 243.8 626.3 249.8 621.4C268.3 606.2 284.7 591.9 297.6 575.8C302.1 570.3 306.1 564.6 309.6 558.7C316.1 547.9 321.1 536.1 324.4 522.8C325.1 519.4 325.9 516 326.4 512.4C328 502.7 328.9 492.3 328.6 480.8C328.5 471.8 327.8 462 326.4 451.7C326.1 449.5 325.8 447.2 325.4 444.9C323.5 432.1 320.6 418.1 316.7 402.9C315.6 398.6 314.4 394.2 313.1 389.8C310.9 382.1 309.2 374.4 307.8 366.9C305.2 352.4 304.1 338.5 304.2 324.9C304.3 312.6 305.5 300.7 307.8 289.2V289C309.8 278.1 312.7 267.5 316.3 257.3C359.9 133.3 508.4 59.9 547.8 43.5C604 20.1 670.6 7.00001 739.7 2.20001C745.3 1.80001 751 1.50001 756.6 1.20001C772.5 0.400012 788.7 0 804.7 0C811.3 0 817.7 0.100012 824.2 0.200012C835 0.500012 845.8 0.8 856.6 1.5C866.6 2 876.5 2.7 886.5 3.5C927.7 7 967.8 12.8 1005.2 20.6C1039.2 27.7 1069.8 36.6 1097.6 46.9C1097.6 46.9 1097.6 46.9 1097.7 47C1163.5 71.3 1213.2 103.1 1252.9 136.2C1262.1 143.8 1270.8 151.6 1279 159.3C1280.1 160.3 1281.3 161.4 1282.4 162.5C1284.9 164.9 1287.4 167.2 1289.9 169.7C1291 170.8 1292.2 171.9 1293.3 173C1300.5 180.2 1307.4 187.4 1314 194.4C1317.3 198 1320.6 201.5 1323.7 205C1341 224.1 1356.3 242 1370.9 257.4C1372.7 259.4 1374.5 261.2 1376.4 263.1C1401.4 288.6 1424.7 305.9 1453.1 307.8C1471 309 1491.8 306 1515.2 301.4C1517.6 300.9 1519.8 300.5 1522.2 299.9C1558.2 292.7 1600.1 282.5 1646.6 278.2C1706.7 272.6 1774.7 277 1848.2 310.3C1850.6 311.4 1852.8 312.5 1855.2 313.6C1865.9 318.8 1876.8 324.5 1887.7 331C1890 332.3 1892.3 333.6 1894.5 335C1905.6 341.8 1916.9 349.4 1928.3 357.8C1928.6 358 1928.8 358.2 1929.1 358.4C1934 361.9 1938.9 365.8 1943.9 369.7C1949.6 374.3 1955.5 379 1961.3 384C1975.3 396.1 1989.6 409.4 2003.9 424.2C2014.3 434.9 2023.9 445.6 2032.7 456.5C2038.8 464 2044.5 471.5 2049.8 479.1C2050.8 480.5 2051.7 481.8 2052.7 483.2C2061.8 496.6 2070 510.1 2077.3 523.6C2078.1 525.2 2079 527 2079.9 528.6C2089.5 547.4 2097.4 566.2 2103.7 585C2104.2 586.6 2104.8 588.2 2105.3 589.7C2108 598.2 2110.4 606.6 2112.6 615.1C2115.5 626.7 2117.9 638.1 2119.8 649.6C2124.5 679.1 2126.2 707.9 2125.7 735.6Z" fill="#DDE8FD"/>
<path d="M454 289.299V911.099H326.1V512.599C327.7 502.899 328.6 492.499 328.3 480.999C328.2 471.999 327.5 462.199 326.1 451.899V289.299H454Z" fill="#D1DFFB"/>
<path d="M425.299 289.299V911.099H297.399V575.899C301.899 570.399 305.899 564.699 309.399 558.799C315.899 547.999 320.899 536.199 324.199 522.899C324.899 519.499 325.699 516.099 326.199 512.499C327.799 502.799 328.699 492.399 328.399 480.899C328.299 471.899 327.599 462.099 326.199 451.799C325.899 449.599 325.599 447.299 325.199 444.999C323.299 432.199 320.399 418.199 316.499 402.999C315.399 398.699 314.199 394.299 312.899 389.899C310.699 382.199 308.999 374.499 307.599 366.999C304.999 352.499 303.899 338.599 303.999 324.999C304.099 312.699 305.299 300.799 307.599 289.299H425.299Z" fill="#DDE8FD"/>
<path d="M307.599 289.3C305.299 300.8 304.099 312.7 303.999 325H326.099H425.199V289.3V289.1H307.499V289.3H307.599Z" fill="#D1DFFB"/>
<path d="M425.3 367V403H316.5C315.4 398.7 314.2 394.3 312.9 389.9C310.7 382.2 309 374.5 307.6 367H425.3Z" fill="#D1DFFB"/>
<path d="M425.299 445V481H328.399C328.299 472 327.599 462.2 326.199 451.9C325.899 449.7 325.599 447.4 325.199 445.1H425.299V445Z" fill="#D1DFFB"/>
<path d="M425.299 522.9V558.8H309.499C315.999 548 320.999 536.2 324.299 522.9H425.299Z" fill="#D1DFFB"/>
<path d="M425.199 600.799H297.399V636.699H425.199V600.799Z" fill="#D1DFFB"/>
<path d="M425.199 678.799H297.399V714.699H425.199V678.799Z" fill="#D1DFFB"/>
<path d="M425.199 756.699H297.399V792.599H425.199V756.699Z" fill="#D1DFFB"/>
<path d="M425.199 834.6H297.399V870.5H425.199V834.6Z" fill="#D1DFFB"/>
<path d="M249.6 621.6V911.1H121.7V748.7C123.2 746.6 124.6 744.5 126.1 742.5C133.5 732 141.6 721.7 150.4 711.6C161.1 699.3 172.7 687.2 185.3 675.5C188.1 672.9 190.9 670.3 193.8 667.8C194.4 667.3 195.1 666.7 195.7 666.1C197.3 664.7 199 663.3 200.6 661.9C207.5 655.9 214.3 650.2 220.9 644.8C224.3 642.1 227.5 639.4 230.8 636.8C237.3 631.6 243.6 626.5 249.6 621.6Z" fill="#D1DFFB"/>
<path d="M220.9 644.799V911.099H93V800.099C93.2 799.599 93.5 798.899 93.7 798.399C96.7 791.799 100 785.199 103.5 778.499C108.9 768.499 115 758.599 121.6 748.699C123.1 746.599 124.5 744.499 126 742.499C133.4 731.999 141.5 721.699 150.3 711.599C161 699.299 172.6 687.199 185.2 675.499C188 672.899 190.8 670.299 193.7 667.799C194.3 667.299 195 666.699 195.6 666.099C197.2 664.699 198.9 663.299 200.5 661.899C207.5 655.899 214.2 650.199 220.9 644.799Z" fill="#DDE8FD"/>
<path d="M220.9 644.799V675.599H185.3C188.1 672.999 190.9 670.399 193.8 667.899C194.4 667.399 195.1 666.799 195.7 666.199C197.3 664.799 199 663.399 200.6 661.999C207.5 655.899 214.2 650.199 220.9 644.799Z" fill="#D1DFFB"/>
<path d="M220.9 711.6V742.5H126.1C133.5 732 141.6 721.7 150.4 711.6H220.9Z" fill="#D1DFFB"/>
<path d="M220.9 778.5V809.4H93V800.1C93.2 799.6 93.5 798.9 93.7 798.4C96.7 791.8 100 785.2 103.5 778.5H220.9Z" fill="#D1DFFB"/>
<path d="M220.8 845.4H93V876.2H220.8V845.4Z" fill="#D1DFFB"/>
<path d="M523.2 892H469.7V970.1H523.2V892Z" fill="#DDE8FD"/>
<path d="M1257.5 581.699V533.399H1242.9V450.499H1164.4V533.399H1091V398.299H1010V485.999H991.499V381.299H910.599V577.599H808.199V692.099H769.899V720.999H681.999V671.299H631.499V536.399H569.199V785.499H506.899V1002.3H569.199H622.599H631.499H681.999H710.499H756.199H769.899H808.199H844.099H910.599H930.899H971.399H991.499H1010H1052.4H1081.3H1091H1164.4H1241.5H1242.9H1257.5H1320V581.699H1257.5Z" fill="#BED2FA"/>
<path d="M991.5 394.6H910.5V414.6H991.5V394.6Z" fill="#D1DFFB"/>
<path d="M991.5 432.199H910.5V452.199H991.5V432.199Z" fill="#D1DFFB"/>
<path d="M991.5 466H910.5V486H991.5V466Z" fill="#D1DFFB"/>
<path d="M1090.9 466H1009.9V486H1090.9V466Z" fill="#D1DFFB"/>
<path d="M1090.9 432.199H1009.9V452.199H1090.9V432.199Z" fill="#D1DFFB"/>
<path d="M1090.9 398.4H1009.9V418.4H1090.9V398.4Z" fill="#D1DFFB"/>
<path d="M1091 498.699H910.5V518.699H1091V498.699Z" fill="#D1DFFB"/>
<path d="M1091 531.5H910.5V551.5H1091V531.5Z" fill="#D1DFFB"/>
<path d="M632.1 536.4H569.2V567.3H632.1V536.4Z" fill="#D1DFFB"/>
<path d="M632.1 582.299H569.2V613.199H632.1V582.299Z" fill="#D1DFFB"/>
<path d="M632.1 628.199H569.2V659.099H632.1V628.199Z" fill="#D1DFFB"/>
<path d="M632.1 676.299H569.2V707.199H632.1V676.299Z" fill="#D1DFFB"/>
<path d="M632.1 723H569.2V753.9H632.1V723Z" fill="#D1DFFB"/>
<path d="M632.1 769.6H569.2V800.5H632.1V769.6Z" fill="#D1DFFB"/>
<path d="M632.1 818.4H569.2V849.3H632.1V818.4Z" fill="#D1DFFB"/>
<path d="M1091 563.6H910.5V576.3H1091V563.6Z" fill="#D1DFFB"/>
<path d="M654.4 536.4H631.2V671.3H654.4V536.4Z" fill="#D1DFFB"/>
<path d="M728.6 671.299H682V720.999H728.6V671.299Z" fill="#D1DFFB"/>
<path d="M1091 398.4H1107.1V533.4H1091V398.4Z" fill="#D1DFFB"/>
<path d="M1001.4 381.299H991.5V485.899H1001.4V381.299Z" fill="#D1DFFB"/>
<g opacity="0.8">
<g opacity="0.8">
<g opacity="0.8">
<g opacity="0.8">
<path opacity="0.8" d="M838.599 597.299H824.899V616.599H838.599V597.299Z" fill="#D1DFFB"/>
<path opacity="0.8" d="M864.3 597.299H850.6V616.599H864.3V597.299Z" fill="#D1DFFB"/>
<path opacity="0.8" d="M889.399 597.299H875.699V616.599H889.399V597.299Z" fill="#D1DFFB"/>
<path opacity="0.8" d="M913.199 597.299H899.499V616.599H913.199V597.299Z" fill="#D1DFFB"/>
<path opacity="0.8" d="M937.399 597.299H923.699V616.599H937.399V597.299Z" fill="#D1DFFB"/>
</g>
<g opacity="0.8">
<path opacity="0.8" d="M961.899 597.299H948.199V616.599H961.899V597.299Z" fill="#D1DFFB"/>
<path opacity="0.8" d="M987.599 597.299H973.899V616.599H987.599V597.299Z" fill="#D1DFFB"/>
<path opacity="0.8" d="M1012.7 597.299H998.999V616.599H1012.7V597.299Z" fill="#D1DFFB"/>
<path opacity="0.8" d="M1036.5 597.299H1022.8V616.599H1036.5V597.299Z" fill="#D1DFFB"/>
<path opacity="0.8" d="M1060.7 597.299H1047V616.599H1060.7V597.299Z" fill="#D1DFFB"/>
</g>
</g>
<g opacity="0.8">
<g opacity="0.8">
<path opacity="0.8" d="M1086 597.299H1072.3V616.599H1086V597.299Z" fill="#D1DFFB"/>
<path opacity="0.8" d="M1111.7 597.299H1098V616.599H1111.7V597.299Z" fill="#D1DFFB"/>
<path opacity="0.8" d="M1136.8 597.299H1123.1V616.599H1136.8V597.299Z" fill="#D1DFFB"/>
<path opacity="0.8" d="M1160.6 597.299H1146.9V616.599H1160.6V597.299Z" fill="#D1DFFB"/>
<path opacity="0.8" d="M1184.8 597.299H1171.1V616.599H1184.8V597.299Z" fill="#D1DFFB"/>
</g>
<g opacity="0.8">
<path opacity="0.8" d="M1209.4 597.299H1195.7V616.599H1209.4V597.299Z" fill="#D1DFFB"/>
<path opacity="0.8" d="M1235 597.299H1221.3V616.599H1235V597.299Z" fill="#D1DFFB"/>
<path opacity="0.8" d="M1260.1 597.299H1246.4V616.599H1260.1V597.299Z" fill="#D1DFFB"/>
<path opacity="0.8" d="M1283.9 597.299H1270.2V616.599H1283.9V597.299Z" fill="#D1DFFB"/>
<path opacity="0.8" d="M1308.2 597.299H1294.5V616.599H1308.2V597.299Z" fill="#D1DFFB"/>
</g>
</g>
</g>
<g opacity="0.8">
<g opacity="0.8">
<g opacity="0.8">
<path opacity="0.8" d="M838.599 631.498H824.899V650.798H838.599V631.498Z" fill="#D1DFFB"/>
<path opacity="0.8" d="M864.3 631.498H850.6V650.798H864.3V631.498Z" fill="#D1DFFB"/>
<path opacity="0.8" d="M889.399 631.498H875.699V650.798H889.399V631.498Z" fill="#D1DFFB"/>
<path opacity="0.8" d="M913.199 631.498H899.499V650.798H913.199V631.498Z" fill="#D1DFFB"/>
<path opacity="0.8" d="M937.399 631.498H923.699V650.798H937.399V631.498Z" fill="#D1DFFB"/>
</g>
<g opacity="0.8">
<path opacity="0.8" d="M961.899 631.498H948.199V650.798H961.899V631.498Z" fill="#D1DFFB"/>
<path opacity="0.8" d="M987.599 631.498H973.899V650.798H987.599V631.498Z" fill="#D1DFFB"/>
<path opacity="0.8" d="M1012.7 631.498H998.999V650.798H1012.7V631.498Z" fill="#D1DFFB"/>
<path opacity="0.8" d="M1036.5 631.498H1022.8V650.798H1036.5V631.498Z" fill="#D1DFFB"/>
<path opacity="0.8" d="M1060.7 631.498H1047V650.798H1060.7V631.498Z" fill="#D1DFFB"/>
</g>
</g>
<g opacity="0.8">
<g opacity="0.8">
<path opacity="0.8" d="M1086 631.498H1072.3V650.798H1086V631.498Z" fill="#D1DFFB"/>
<path opacity="0.8" d="M1111.7 631.498H1098V650.798H1111.7V631.498Z" fill="#D1DFFB"/>
<path opacity="0.8" d="M1136.8 631.498H1123.1V650.798H1136.8V631.498Z" fill="#D1DFFB"/>
<path opacity="0.8" d="M1160.6 631.498H1146.9V650.798H1160.6V631.498Z" fill="#D1DFFB"/>
<path opacity="0.8" d="M1184.8 631.498H1171.1V650.798H1184.8V631.498Z" fill="#D1DFFB"/>
</g>
<g opacity="0.8">
<path opacity="0.8" d="M1209.4 631.498H1195.7V650.798H1209.4V631.498Z" fill="#D1DFFB"/>
<path opacity="0.8" d="M1235 631.498H1221.3V650.798H1235V631.498Z" fill="#D1DFFB"/>
<path opacity="0.8" d="M1260.1 631.498H1246.4V650.798H1260.1V631.498Z" fill="#D1DFFB"/>
<path opacity="0.8" d="M1283.9 631.498H1270.2V650.798H1283.9V631.498Z" fill="#D1DFFB"/>
<path opacity="0.8" d="M1308.2 631.498H1294.5V650.798H1308.2V631.498Z" fill="#D1DFFB"/>
</g>
</g>
</g>
<g opacity="0.8">
<g opacity="0.8">
<g opacity="0.8">
<path opacity="0.8" d="M838.599 665.1H824.899V684.4H838.599V665.1Z" fill="#D1DFFB"/>
<path opacity="0.8" d="M864.3 665.1H850.6V684.4H864.3V665.1Z" fill="#D1DFFB"/>
<path opacity="0.8" d="M889.399 665.1H875.699V684.4H889.399V665.1Z" fill="#D1DFFB"/>
<path opacity="0.8" d="M913.199 665.1H899.499V684.4H913.199V665.1Z" fill="#D1DFFB"/>
<path opacity="0.8" d="M937.399 665.1H923.699V684.4H937.399V665.1Z" fill="#D1DFFB"/>
</g>
<g opacity="0.8">
<path opacity="0.8" d="M961.899 665.1H948.199V684.4H961.899V665.1Z" fill="#D1DFFB"/>
<path opacity="0.8" d="M987.599 665.1H973.899V684.4H987.599V665.1Z" fill="#D1DFFB"/>
<path opacity="0.8" d="M1012.7 665.1H998.999V684.4H1012.7V665.1Z" fill="#D1DFFB"/>
<path opacity="0.8" d="M1036.5 665.1H1022.8V684.4H1036.5V665.1Z" fill="#D1DFFB"/>
<path opacity="0.8" d="M1060.7 665.1H1047V684.4H1060.7V665.1Z" fill="#D1DFFB"/>
</g>
</g>
<g opacity="0.8">
<g opacity="0.8">
<path opacity="0.8" d="M1086 665.1H1072.3V684.4H1086V665.1Z" fill="#D1DFFB"/>
<path opacity="0.8" d="M1111.7 665.1H1098V684.4H1111.7V665.1Z" fill="#D1DFFB"/>
<path opacity="0.8" d="M1136.8 665.1H1123.1V684.4H1136.8V665.1Z" fill="#D1DFFB"/>
<path opacity="0.8" d="M1160.6 665.1H1146.9V684.4H1160.6V665.1Z" fill="#D1DFFB"/>
<path opacity="0.8" d="M1184.8 665.1H1171.1V684.4H1184.8V665.1Z" fill="#D1DFFB"/>
</g>
<g opacity="0.8">
<path opacity="0.8" d="M1209.4 665.1H1195.7V684.4H1209.4V665.1Z" fill="#D1DFFB"/>
<path opacity="0.8" d="M1235 665.1H1221.3V684.4H1235V665.1Z" fill="#D1DFFB"/>
<path opacity="0.8" d="M1260.1 665.1H1246.4V684.4H1260.1V665.1Z" fill="#D1DFFB"/>
<path opacity="0.8" d="M1283.9 665.1H1270.2V684.4H1283.9V665.1Z" fill="#D1DFFB"/>
<path opacity="0.8" d="M1308.2 665.1H1294.5V684.4H1308.2V665.1Z" fill="#D1DFFB"/>
</g>
</g>
</g>
<g opacity="0.8">
<g opacity="0.8">
<g opacity="0.8">
<g opacity="0.8">
<path opacity="0.8" d="M838.599 700.799H824.899V720.099H838.599V700.799Z" fill="#D1DFFB"/>
<path opacity="0.8" d="M864.3 700.799H850.6V720.099H864.3V700.799Z" fill="#D1DFFB"/>
<path opacity="0.8" d="M889.399 700.799H875.699V720.099H889.399V700.799Z" fill="#D1DFFB"/>
<path opacity="0.8" d="M913.199 700.799H899.499V720.099H913.199V700.799Z" fill="#D1DFFB"/>
<path opacity="0.8" d="M937.399 700.799H923.699V720.099H937.399V700.799Z" fill="#D1DFFB"/>
</g>
<g opacity="0.8">
<path opacity="0.8" d="M961.899 700.799H948.199V720.099H961.899V700.799Z" fill="#D1DFFB"/>
<path opacity="0.8" d="M987.599 700.799H973.899V720.099H987.599V700.799Z" fill="#D1DFFB"/>
<path opacity="0.8" d="M1012.7 700.799H998.999V720.099H1012.7V700.799Z" fill="#D1DFFB"/>
<path opacity="0.8" d="M1036.5 700.799H1022.8V720.099H1036.5V700.799Z" fill="#D1DFFB"/>
<path opacity="0.8" d="M1060.7 700.799H1047V720.099H1060.7V700.799Z" fill="#D1DFFB"/>
</g>
</g>
<g opacity="0.8">
<g opacity="0.8">
<path opacity="0.8" d="M1086 700.799H1072.3V720.099H1086V700.799Z" fill="#D1DFFB"/>
<path opacity="0.8" d="M1111.7 700.799H1098V720.099H1111.7V700.799Z" fill="#D1DFFB"/>
<path opacity="0.8" d="M1136.8 700.799H1123.1V720.099H1136.8V700.799Z" fill="#D1DFFB"/>
<path opacity="0.8" d="M1160.6 700.799H1146.9V720.099H1160.6V700.799Z" fill="#D1DFFB"/>
<path opacity="0.8" d="M1184.8 700.799H1171.1V720.099H1184.8V700.799Z" fill="#D1DFFB"/>
</g>
<g opacity="0.8">
<path opacity="0.8" d="M1209.4 700.799H1195.7V720.099H1209.4V700.799Z" fill="#D1DFFB"/>
<path opacity="0.8" d="M1235 700.799H1221.3V720.099H1235V700.799Z" fill="#D1DFFB"/>
<path opacity="0.8" d="M1260.1 700.799H1246.4V720.099H1260.1V700.799Z" fill="#D1DFFB"/>
<path opacity="0.8" d="M1283.9 700.799H1270.2V720.099H1283.9V700.799Z" fill="#D1DFFB"/>
<path opacity="0.8" d="M1308.2 700.799H1294.5V720.099H1308.2V700.799Z" fill="#D1DFFB"/>
</g>
</g>
</g>
<g opacity="0.8">
<g opacity="0.8">
<g opacity="0.8">
<path opacity="0.8" d="M838.599 734.998H824.899V754.298H838.599V734.998Z" fill="#D1DFFB"/>
<path opacity="0.8" d="M864.3 734.998H850.6V754.298H864.3V734.998Z" fill="#D1DFFB"/>
<path opacity="0.8" d="M889.399 734.998H875.699V754.298H889.399V734.998Z" fill="#D1DFFB"/>
<path opacity="0.8" d="M913.199 734.998H899.499V754.298H913.199V734.998Z" fill="#D1DFFB"/>
<path opacity="0.8" d="M937.399 734.998H923.699V754.298H937.399V734.998Z" fill="#D1DFFB"/>
</g>
<g opacity="0.8">
<path opacity="0.8" d="M961.899 734.998H948.199V754.298H961.899V734.998Z" fill="#D1DFFB"/>
<path opacity="0.8" d="M987.599 734.998H973.899V754.298H987.599V734.998Z" fill="#D1DFFB"/>
<path opacity="0.8" d="M1012.7 734.998H998.999V754.298H1012.7V734.998Z" fill="#D1DFFB"/>
<path opacity="0.8" d="M1036.5 734.998H1022.8V754.298H1036.5V734.998Z" fill="#D1DFFB"/>
<path opacity="0.8" d="M1060.7 734.998H1047V754.298H1060.7V734.998Z" fill="#D1DFFB"/>
</g>
</g>
<g opacity="0.8">
<g opacity="0.8">
<path opacity="0.8" d="M1086 734.998H1072.3V754.298H1086V734.998Z" fill="#D1DFFB"/>
<path opacity="0.8" d="M1111.7 734.998H1098V754.298H1111.7V734.998Z" fill="#D1DFFB"/>
<path opacity="0.8" d="M1136.8 734.998H1123.1V754.298H1136.8V734.998Z" fill="#D1DFFB"/>
<path opacity="0.8" d="M1160.6 734.998H1146.9V754.298H1160.6V734.998Z" fill="#D1DFFB"/>
<path opacity="0.8" d="M1184.8 734.998H1171.1V754.298H1184.8V734.998Z" fill="#D1DFFB"/>
</g>
<g opacity="0.8">
<path opacity="0.8" d="M1209.4 734.998H1195.7V754.298H1209.4V734.998Z" fill="#D1DFFB"/>
<path opacity="0.8" d="M1235 734.998H1221.3V754.298H1235V734.998Z" fill="#D1DFFB"/>
<path opacity="0.8" d="M1260.1 734.998H1246.4V754.298H1260.1V734.998Z" fill="#D1DFFB"/>
<path opacity="0.8" d="M1283.9 734.998H1270.2V754.298H1283.9V734.998Z" fill="#D1DFFB"/>
<path opacity="0.8" d="M1308.2 734.998H1294.5V754.298H1308.2V734.998Z" fill="#D1DFFB"/>
</g>
</g>
</g>
<g opacity="0.8">
<g opacity="0.8">
<g opacity="0.8">
<path opacity="0.8" d="M838.599 768.6H824.899V787.9H838.599V768.6Z" fill="#D1DFFB"/>
<path opacity="0.8" d="M864.3 768.6H850.6V787.9H864.3V768.6Z" fill="#D1DFFB"/>
<path opacity="0.8" d="M889.399 768.6H875.699V787.9H889.399V768.6Z" fill="#D1DFFB"/>
<path opacity="0.8" d="M913.199 768.6H899.499V787.9H913.199V768.6Z" fill="#D1DFFB"/>
<path opacity="0.8" d="M937.399 768.6H923.699V787.9H937.399V768.6Z" fill="#D1DFFB"/>
</g>
<g opacity="0.8">
<path opacity="0.8" d="M961.899 768.6H948.199V787.9H961.899V768.6Z" fill="#D1DFFB"/>
<path opacity="0.8" d="M987.599 768.6H973.899V787.9H987.599V768.6Z" fill="#D1DFFB"/>
<path opacity="0.8" d="M1012.7 768.6H998.999V787.9H1012.7V768.6Z" fill="#D1DFFB"/>
<path opacity="0.8" d="M1036.5 768.6H1022.8V787.9H1036.5V768.6Z" fill="#D1DFFB"/>
<path opacity="0.8" d="M1060.7 768.6H1047V787.9H1060.7V768.6Z" fill="#D1DFFB"/>
</g>
</g>
<g opacity="0.8">
<g opacity="0.8">
<path opacity="0.8" d="M1086 768.6H1072.3V787.9H1086V768.6Z" fill="#D1DFFB"/>
<path opacity="0.8" d="M1111.7 768.6H1098V787.9H1111.7V768.6Z" fill="#D1DFFB"/>
<path opacity="0.8" d="M1136.8 768.6H1123.1V787.9H1136.8V768.6Z" fill="#D1DFFB"/>
<path opacity="0.8" d="M1160.6 768.6H1146.9V787.9H1160.6V768.6Z" fill="#D1DFFB"/>
<path opacity="0.8" d="M1184.8 768.6H1171.1V787.9H1184.8V768.6Z" fill="#D1DFFB"/>
</g>
<g opacity="0.8">
<path opacity="0.8" d="M1209.4 768.6H1195.7V787.9H1209.4V768.6Z" fill="#D1DFFB"/>
<path opacity="0.8" d="M1235 768.6H1221.3V787.9H1235V768.6Z" fill="#D1DFFB"/>
<path opacity="0.8" d="M1260.1 768.6H1246.4V787.9H1260.1V768.6Z" fill="#D1DFFB"/>
<path opacity="0.8" d="M1283.9 768.6H1270.2V787.9H1283.9V768.6Z" fill="#D1DFFB"/>
<path opacity="0.8" d="M1308.2 768.6H1294.5V787.9H1308.2V768.6Z" fill="#D1DFFB"/>
</g>
</g>
</g>
</g>
</g>
<path d="M1046.8 829.199H728.6V1000.8H1046.8V829.199Z" fill="#D1DFFB"/>
<path d="M805.599 915H487.399V1000.8H805.599V915Z" fill="#D1DFFB"/>
<path d="M1390.5 856H1072.3V1000.9H1390.5V856Z" fill="#D1DFFB"/>
<path d="M809.199 849.299H749.899V881.099H809.199V849.299Z" fill="#DDE8FD"/>
<path d="M885.3 849.299H826V881.099H885.3V849.299Z" fill="#DDE8FD"/>
<path d="M959.9 849.299H900.6V881.099H959.9V849.299Z" fill="#DDE8FD"/>
<path d="M1033.1 849.299H973.8V881.099H1033.1V849.299Z" fill="#DDE8FD"/>
<path d="M1074 829.199H1043.5V1002.3H1074V829.199Z" fill="#BED2FA"/>
<path d="M1452.8 795.699H1422.3V1002.3H1452.8V795.699Z" fill="#BED2FA"/>
<path d="M1423.3 856H1390.5V999.5H1423.3V856Z" fill="#BED2FA"/>
<path d="M1365.9 864.5C1365.1 866.8 1363 868.1 1361.3 867.5C1359.6 866.9 1358.9 864.5 1359.8 862.2C1360.6 859.9 1366.9 852.6 1366.9 852.6C1366.9 852.6 1366.8 862.2 1365.9 864.5Z" fill="#DDE8FD"/>
<path d="M1349.2 808.4C1348.4 810.7 1346.3 812 1344.6 811.4C1342.9 810.8 1342.2 808.4 1343.1 806.1C1344 803.8 1350.2 796.5 1350.2 796.5C1350.2 796.5 1350.1 806.1 1349.2 808.4Z" fill="#DDE8FD"/>
<path d="M1285.3 893C1284.5 895.3 1282.4 896.6 1280.7 896C1279 895.4 1278.3 893 1279.2 890.7C1280 888.4 1286.3 881.1 1286.3 881.1C1286.3 881.1 1286.1 890.7 1285.3 893Z" fill="#DDE8FD"/>
<path d="M1338.1 985.6C1338.1 985.6 1332.2 998.3 1343.7 999.2C1355.2 1000.1 1362 995.5 1364.8 989.9C1364.8 989.9 1350.5 995.8 1352.7 988.7C1354.9 981.6 1360.5 970.1 1360.5 970.1C1360.5 970.1 1348.4 991.8 1342.4 990.8C1339.6 990.3 1338.1 985.6 1338.1 985.6Z" fill="#DDE8FD"/>
<path d="M583.4 522.9H581.7V536.3H583.4V522.9Z" fill="#DDE8FD"/>
<path d="M642.9 522.9H641.2V536.3H642.9V522.9Z" fill="#DDE8FD"/>
<path d="M1423.3 795.199H1248.2V999.399H1423.3V795.199Z" fill="#DDE8FD"/>
<path d="M1411.5 754.299H1408.3V795.699H1411.5V754.299Z" fill="#DDE8FD"/>
<path d="M1466.7 852.5H1248.2V999.4H1466.7V852.5Z" fill="#DDE8FD"/>
<path d="M1466.7 833.4H1248.2V881.2H1466.7V833.4Z" fill="#D1DFFB"/>
<path d="M1274.2 895.301H1263V911.101H1274.2V895.301Z" fill="#D1DFFB"/>
<path d="M1295.2 895.301H1284V911.101H1295.2V895.301Z" fill="#D1DFFB"/>
<path d="M1315.7 895.301H1304.5V911.101H1315.7V895.301Z" fill="#D1DFFB"/>
<path d="M1335.2 895.301H1324V911.101H1335.2V895.301Z" fill="#D1DFFB"/>
<path d="M1355 895.301H1343.8V911.101H1355V895.301Z" fill="#D1DFFB"/>
<path d="M1375 895.301H1363.8V911.101H1375V895.301Z" fill="#D1DFFB"/>
<path d="M1396 895.301H1384.8V911.101H1396V895.301Z" fill="#D1DFFB"/>
<path d="M1416.5 895.301H1405.3V911.101H1416.5V895.301Z" fill="#D1DFFB"/>
<path d="M1436 895.301H1424.8V911.101H1436V895.301Z" fill="#D1DFFB"/>
<path d="M1455.8 895.301H1444.6V911.101H1455.8V895.301Z" fill="#D1DFFB"/>
<path d="M1274.2 923.201H1263V939.001H1274.2V923.201Z" fill="#D1DFFB"/>
<path d="M1295.2 923.201H1284V939.001H1295.2V923.201Z" fill="#D1DFFB"/>
<path d="M1315.7 923.201H1304.5V939.001H1315.7V923.201Z" fill="#D1DFFB"/>
<path d="M1335.2 923.201H1324V939.001H1335.2V923.201Z" fill="#D1DFFB"/>
<path d="M1355 923.201H1343.8V939.001H1355V923.201Z" fill="#D1DFFB"/>
<path d="M1375 923.201H1363.8V939.001H1375V923.201Z" fill="#D1DFFB"/>
<path d="M1396 923.201H1384.8V939.001H1396V923.201Z" fill="#D1DFFB"/>
<path d="M1416.5 923.201H1405.3V939.001H1416.5V923.201Z" fill="#D1DFFB"/>
<path d="M1436 923.201H1424.8V939.001H1436V923.201Z" fill="#D1DFFB"/>
<path d="M1455.8 923.201H1444.6V939.001H1455.8V923.201Z" fill="#D1DFFB"/>
<path d="M1274.2 950.602H1263V966.401H1274.2V950.602Z" fill="#D1DFFB"/>
<path d="M1295.2 950.602H1284V966.401H1295.2V950.602Z" fill="#D1DFFB"/>
<path d="M1315.7 950.602H1304.5V966.401H1315.7V950.602Z" fill="#D1DFFB"/>
<path d="M1335.2 950.602H1324V966.401H1335.2V950.602Z" fill="#D1DFFB"/>
<path d="M1355 950.602H1343.8V966.401H1355V950.602Z" fill="#D1DFFB"/>
<path d="M1375 950.602H1363.8V966.401H1375V950.602Z" fill="#D1DFFB"/>
<path d="M1396 950.602H1384.8V966.401H1396V950.602Z" fill="#D1DFFB"/>
<path d="M1416.5 950.602H1405.3V966.401H1416.5V950.602Z" fill="#D1DFFB"/>
<path d="M1436 950.602H1424.8V966.401H1436V950.602Z" fill="#D1DFFB"/>
<path d="M1455.8 950.602H1444.6V966.401H1455.8V950.602Z" fill="#D1DFFB"/>
<path d="M1274.2 846.801H1264.8V863.101H1274.2V846.801Z" fill="#BED2FA"/>
<path d="M1367.8 846.801H1358.4V863.101H1367.8V846.801Z" fill="#BED2FA"/>
<path d="M1442.3 846.801H1432.9V863.101H1442.3V846.801Z" fill="#BED2FA"/>
<path d="M547.7 852.5H329.2V999.4H547.7V852.5Z" fill="#DDE8FD"/>
<path d="M547.7 833.4H329.2V881.2H547.7V833.4Z" fill="#D1DFFB"/>
<path d="M355.2 895.301H344V911.101H355.2V895.301Z" fill="#D1DFFB"/>
<path d="M376.2 895.301H365V911.101H376.2V895.301Z" fill="#D1DFFB"/>
<path d="M396.7 895.301H385.5V911.101H396.7V895.301Z" fill="#D1DFFB"/>
<path d="M416.2 895.301H405V911.101H416.2V895.301Z" fill="#D1DFFB"/>
<path d="M436 895.301H424.8V911.101H436V895.301Z" fill="#D1DFFB"/>
<path d="M456 895.301H444.8V911.101H456V895.301Z" fill="#D1DFFB"/>
<path d="M477 895.301H465.8V911.101H477V895.301Z" fill="#D1DFFB"/>
<path d="M497.5 895.301H486.3V911.101H497.5V895.301Z" fill="#D1DFFB"/>
<path d="M517 895.301H505.8V911.101H517V895.301Z" fill="#D1DFFB"/>
<path d="M536.8 895.301H525.6V911.101H536.8V895.301Z" fill="#D1DFFB"/>
<path d="M355.2 923.201H344V939.001H355.2V923.201Z" fill="#D1DFFB"/>
<path d="M376.2 923.201H365V939.001H376.2V923.201Z" fill="#D1DFFB"/>
<path d="M396.7 923.201H385.5V939.001H396.7V923.201Z" fill="#D1DFFB"/>
<path d="M416.2 923.201H405V939.001H416.2V923.201Z" fill="#D1DFFB"/>
<path d="M436 923.201H424.8V939.001H436V923.201Z" fill="#D1DFFB"/>
<path d="M456 923.201H444.8V939.001H456V923.201Z" fill="#D1DFFB"/>
<path d="M477 923.201H465.8V939.001H477V923.201Z" fill="#D1DFFB"/>
<path d="M497.5 923.201H486.3V939.001H497.5V923.201Z" fill="#D1DFFB"/>
<path d="M517 923.201H505.8V939.001H517V923.201Z" fill="#D1DFFB"/>
<path d="M536.8 923.201H525.6V939.001H536.8V923.201Z" fill="#D1DFFB"/>
<path d="M355.2 950.602H344V966.401H355.2V950.602Z" fill="#D1DFFB"/>
<path d="M376.2 950.602H365V966.401H376.2V950.602Z" fill="#D1DFFB"/>
<path d="M396.7 950.602H385.5V966.401H396.7V950.602Z" fill="#D1DFFB"/>
<path d="M416.2 950.602H405V966.401H416.2V950.602Z" fill="#D1DFFB"/>
<path d="M436 950.602H424.8V966.401H436V950.602Z" fill="#D1DFFB"/>
<path d="M456 950.602H444.8V966.401H456V950.602Z" fill="#D1DFFB"/>
<path d="M477 950.602H465.8V966.401H477V950.602Z" fill="#D1DFFB"/>
<path d="M497.5 950.602H486.3V966.401H497.5V950.602Z" fill="#D1DFFB"/>
<path d="M517 950.602H505.8V966.401H517V950.602Z" fill="#D1DFFB"/>
<path d="M536.8 950.602H525.6V966.401H536.8V950.602Z" fill="#D1DFFB"/>
<path d="M355.2 846.801H345.8V863.101H355.2V846.801Z" fill="#BED2FA"/>
<path d="M448.8 846.801H439.4V863.101H448.8V846.801Z" fill="#BED2FA"/>
<path d="M523.3 846.801H513.9V863.101H523.3V846.801Z" fill="#BED2FA"/>
<path d="M315.399 852.5V999.4H123.399L96.8994 970.7V852.5H315.399Z" fill="#DDE8FD"/>
<path d="M315.499 833.4H96.999V881.2H315.499V833.4Z" fill="#D1DFFB"/>
<path d="M123.099 895.301H111.899V911.101H123.099V895.301Z" fill="#D1DFFB"/>
<path d="M144 895.301H132.8V911.101H144V895.301Z" fill="#D1DFFB"/>
<path d="M164.5 895.301H153.3V911.101H164.5V895.301Z" fill="#D1DFFB"/>
<path d="M184 895.301H172.8V911.101H184V895.301Z" fill="#D1DFFB"/>
<path d="M203.8 895.301H192.6V911.101H203.8V895.301Z" fill="#D1DFFB"/>
<path d="M223.899 895.301H212.699V911.101H223.899V895.301Z" fill="#D1DFFB"/>
<path d="M244.8 895.301H233.6V911.101H244.8V895.301Z" fill="#D1DFFB"/>
<path d="M265.399 895.301H254.199V911.101H265.399V895.301Z" fill="#D1DFFB"/>
<path d="M284.8 895.301H273.6V911.101H284.8V895.301Z" fill="#D1DFFB"/>
<path d="M304.599 895.301H293.399V911.101H304.599V895.301Z" fill="#D1DFFB"/>
<path d="M123.099 923.201H111.899V939.001H123.099V923.201Z" fill="#D1DFFB"/>
<path d="M144 923.201H132.8V939.001H144V923.201Z" fill="#D1DFFB"/>
<path d="M164.5 923.201H153.3V939.001H164.5V923.201Z" fill="#D1DFFB"/>
<path d="M184 923.201H172.8V939.001H184V923.201Z" fill="#D1DFFB"/>
<path d="M203.8 923.201H192.6V939.001H203.8V923.201Z" fill="#D1DFFB"/>
<path d="M223.899 923.201H212.699V939.001H223.899V923.201Z" fill="#D1DFFB"/>
<path d="M244.8 923.201H233.6V939.001H244.8V923.201Z" fill="#D1DFFB"/>
<path d="M265.399 923.201H254.199V939.001H265.399V923.201Z" fill="#D1DFFB"/>
<path d="M284.8 923.201H273.6V939.001H284.8V923.201Z" fill="#D1DFFB"/>
<path d="M304.599 923.201H293.399V939.001H304.599V923.201Z" fill="#D1DFFB"/>
<path d="M123.099 950.602H111.899V966.401H123.099V950.602Z" fill="#D1DFFB"/>
<path d="M144 950.602H132.8V966.401H144V950.602Z" fill="#D1DFFB"/>
<path d="M164.5 950.602H153.3V966.401H164.5V950.602Z" fill="#D1DFFB"/>
<path d="M184 950.602H172.8V966.401H184V950.602Z" fill="#D1DFFB"/>
<path d="M203.8 950.602H192.6V966.401H203.8V950.602Z" fill="#D1DFFB"/>
<path d="M223.899 950.602H212.699V966.401H223.899V950.602Z" fill="#D1DFFB"/>
<path d="M244.8 950.602H233.6V966.401H244.8V950.602Z" fill="#D1DFFB"/>
<path d="M265.399 950.602H254.199V966.401H265.399V950.602Z" fill="#D1DFFB"/>
<path d="M284.8 950.602H273.6V966.401H284.8V950.602Z" fill="#D1DFFB"/>
<path d="M304.599 950.602H293.399V966.401H304.599V950.602Z" fill="#D1DFFB"/>
<path d="M123 846.801H113.6V863.101H123V846.801Z" fill="#BED2FA"/>
<path d="M216.599 846.801H207.199V863.101H216.599V846.801Z" fill="#BED2FA"/>
<path d="M291.099 846.801H281.699V863.101H291.099V846.801Z" fill="#BED2FA"/>
<path d="M82.6998 852.498V944.398C75.6998 927.298 72.2998 908.698 72.2998 889.298C72.2998 888.398 72.2998 887.398 72.3998 886.398C72.3998 884.698 72.4998 882.798 72.4998 881.098C72.5998 879.598 72.6998 877.998 72.7998 876.498C73.2998 870.898 73.8998 865.198 74.7998 859.598C74.7998 859.398 74.8998 859.198 74.8998 859.098C75.0998 858.198 75.2998 857.198 75.3998 856.198C75.5998 854.998 75.8998 853.798 76.0998 852.598H82.6998V852.498Z" fill="#DDE8FD"/>
<path d="M82.7 833.299V881.099H72.5C72.6 879.599 72.7 877.999 72.8 876.499C73.3 870.899 73.9 865.199 74.8 859.599C74.8 859.399 74.9 859.199 74.9 859.099C75.1 858.199 75.3 857.199 75.4 856.199C75.6 854.999 75.9 853.799 76.1 852.599C76.9 848.399 77.9 844.199 79 839.899C79.2 838.899 79.5 837.899 79.7 836.899C80.1 835.699 80.3 834.499 80.8 833.299H82.7Z" fill="#D1DFFB"/>
<path d="M2117.9 816.3C2117 821.5 2116.1 826.6 2115.1 831.7C2114.9 832.8 2114.7 834 2114.4 835.1L2114.3 835.7C2113.7 838.8 2113 841.8 2112.4 844.8C2111.2 850.2 2109.9 855.6 2108.7 860.8C2108.5 861.8 2108.2 862.7 2108 863.7C2104.5 877.4 2100.8 890.3 2096.9 902.3C2096.3 904.3 2095.6 906.3 2095 908.2C2093.3 913.5 2091.5 918.6 2089.8 923.5C2088.5 927 2087.3 930.4 2086.1 933.7C2079.5 951.4 2073 966.1 2067.9 977.1C2063.1 987.4 2058.9 996.1 2056.8 1000.4H1067.8V794.3C1143.2 800.1 1243.3 736.5 1316.3 775.6C1399 819.8 1614.5 930.5 1751.9 850.5C1870.8 781.1 2039.9 784.1 2117.9 816.3Z" fill="#BED2FA"/>
<path d="M2132.1 1003.7H2.70001C1.20001 1003.7 0 1002.5 0 1001V1000.7C0 999.2 1.20001 998 2.70001 998H2132.2C2133.7 998 2134.9 999.2 2134.9 1000.7V1001C2134.8 1002.5 2133.6 1003.7 2132.1 1003.7Z" fill="#010117"/>
<path d="M1952.3 998H1882.1C1878.3 994.8 1884.7 987.6 1891.4 987.1C1894.3 986.9 1897.9 987.5 1902.1 988.4C1903.1 975.6 1908.6 917.9 1929.4 920.2C1952.8 922.8 1929.4 945.6 1922.8 959.1C1917.9 969.1 1912.7 983.4 1910.4 990.2C1912.3 990.6 1914.3 991 1916.3 991.4C1919.4 981.9 1930.9 949.9 1945.6 951.7C1962.8 953.9 1955.9 966.7 1943.7 974.3C1934.7 979.9 1923.8 987.9 1918.5 991.7C1922.9 992.4 1927.5 992.9 1932.2 992.8C1944.2 992.6 1950 996.1 1952.3 998Z" fill="#6D89CF"/>
<path d="M211.1 995.101C207.8 989.901 197.9 976.501 184.7 978.301C170.3 980.201 200.6 989.701 209.9 995.201C207.8 995.201 206.1 995.101 204.8 994.601C198.6 992.401 188 996.601 184.6 998.101H243.6C243.2 996.701 242.1 994.401 239.4 992.701C238.4 992.101 236.5 992.001 234 992.201C237.5 988.101 239.9 974.801 230.2 978.201C223.1 980.701 223.1 988.801 223.8 993.501C222.3 993.701 220.7 994.001 219.2 994.201C216.3 979.201 205.9 935.301 184.8 934.101C163.4 932.901 202.9 979.601 216.1 994.601C214.3 994.801 212.6 995.001 211.1 995.101Z" fill="#6D89CF"/>
<path d="M478.8 550.199C451.3 550.199 426 559.899 406.1 575.999C380.1 597.199 363.5 629.499 363.5 665.499C363.5 729.199 478.8 870.699 478.8 870.699C478.8 870.699 531.2 806.399 565.2 744.999C581.8 715.299 594.1 686.299 594.1 665.499C594.1 601.899 542.5 550.199 478.8 550.199ZM478.8 718.199C449 718.199 424.9 694.199 424.9 664.399C424.9 657.099 426.4 650.199 429 643.799C437.1 624.199 456.3 610.499 478.8 610.499C508.6 610.499 532.7 634.599 532.7 664.399C532.7 690.199 514.7 711.599 490.5 716.899C486.9 717.699 482.8 718.199 478.8 718.199Z" fill="#FF8DC4"/>
<path d="M1940.4 719.199C1912.1 719.199 1889.2 742.099 1889.2 770.399C1889.2 798.699 1940.4 861.499 1940.4 861.499C1940.4 861.499 1991.6 798.699 1991.6 770.399C1991.6 742.099 1968.7 719.199 1940.4 719.199ZM1940.4 793.799C1927.2 793.799 1916.5 783.099 1916.5 769.899C1916.5 756.699 1927.2 745.999 1940.4 745.999C1953.6 745.999 1964.3 756.699 1964.3 769.899C1964.3 783.099 1953.6 793.799 1940.4 793.799Z" fill="#FF8DC4"/>
<path d="M244.9 777.301C229.4 777.301 216.9 789.801 216.9 805.301C216.9 820.801 244.9 855.201 244.9 855.201C244.9 855.201 272.9 820.801 272.9 805.301C272.9 789.901 260.3 777.301 244.9 777.301ZM244.9 818.201C237.7 818.201 231.8 812.301 231.8 805.101C231.8 797.901 237.7 792.001 244.9 792.001C252.1 792.001 258 797.901 258 805.101C258 812.301 252.1 818.201 244.9 818.201Z" fill="#8D1E5E"/>
<path d="M529.9 998C529.9 998 550 938 607.5 926.5C665 915 707.6 960 758.9 942.5C810.2 924.9 891 832 987.2 899.9C1083.4 967.8 1077.1 987.2 1137.7 971.3C1198.4 955.4 1212.2 998 1212.2 998H529.9V998Z" fill="#6D89CF"/>
<path d="M589 941.601C589 941.601 547 897.601 525.6 909.401C504.2 921.201 589 941.601 589 941.601Z" fill="#6D89CF"/>
<path d="M578.2 952.8C578.2 952.8 539.5 940.2 529.8 946.5C520.2 952.8 578.2 952.8 578.2 952.8Z" fill="#6D89CF"/>
<path d="M701.3 948.7C701.3 948.7 727.9 889.1 737.1 899.9C746.3 910.7 701.3 948.7 701.3 948.7Z" fill="#6D89CF"/>
<path d="M694.8 944.7C694.8 944.7 705.7 901 689.4 903.7C673.1 906.4 694.8 944.7 694.8 944.7Z" fill="#6D89CF"/>
<path d="M1926.4 695.8C1926.3 695.6 1925.1 691.5 1922.3 684C1921.9 682.9 1920.7 682.4 1919.7 682.8C1918.6 683.2 1918.1 684.4 1918.5 685.4C1921.2 692.8 1922.5 696.9 1922.5 697C1922.8 697.9 1923.6 698.4 1924.4 698.4C1924.6 698.4 1924.8 698.4 1925 698.3C1926.1 698 1926.7 696.9 1926.4 695.8ZM1918 672.5C1916.5 668.8 1915 665 1913.4 661.1C1913 660.1 1911.8 659.6 1910.7 660C1909.7 660.4 1909.2 661.6 1909.6 662.7C1911.2 666.5 1912.8 670.3 1914.2 674C1914.5 674.8 1915.3 675.3 1916.1 675.3C1916.3 675.3 1916.6 675.3 1916.8 675.2C1917.9 674.7 1918.4 673.6 1918 672.5ZM326 664.3C322.4 662.5 318.6 660.8 314.9 659.1C313.9 658.6 312.7 659.1 312.2 660.1C311.7 661.1 312.2 662.3 313.2 662.8C316.9 664.4 320.6 666.2 324.2 667.9C324.5 668 324.8 668.1 325.1 668.1C325.8 668.1 326.6 667.7 326.9 667C327.4 666 327 664.8 326 664.3ZM303.6 654.3C299.8 652.8 296 651.3 292.1 649.9C291 649.5 289.9 650.1 289.5 651.1C289.1 652.2 289.7 653.3 290.7 653.7C294.5 655.1 298.3 656.5 302 658C302.2 658.1 302.5 658.1 302.8 658.1C303.6 658.1 304.4 657.6 304.7 656.8C305.2 655.9 304.7 654.7 303.6 654.3ZM1908.5 649.8C1906.9 646.1 1905.2 642.4 1903.4 638.6C1902.9 637.6 1901.7 637.1 1900.7 637.6C1899.7 638.1 1899.2 639.3 1899.7 640.3C1901.4 644 1903.1 647.8 1904.7 651.4C1905 652.2 1905.8 652.6 1906.6 652.6C1906.9 652.6 1907.2 652.5 1907.4 652.4C1908.5 652.1 1908.9 650.9 1908.5 649.8ZM280.5 646C276.7 644.8 272.7 643.6 268.8 642.4C267.7 642.1 266.6 642.7 266.3 643.8C266 644.9 266.6 646 267.7 646.3C271.6 647.4 275.5 648.6 279.3 649.8C279.5 649.9 279.7 649.9 279.9 649.9C280.8 649.9 281.6 649.3 281.8 648.5C282.2 647.5 281.6 646.3 280.5 646ZM257 639.2C253.1 638.2 249.1 637.3 245.1 636.4C244 636.2 242.9 636.9 242.7 637.9C242.5 639 243.2 640.1 244.3 640.3C248.2 641.2 252.2 642.1 256.1 643.1C256.3 643.1 256.4 643.2 256.6 643.2C257.5 643.2 258.3 642.6 258.6 641.7C258.7 640.6 258.1 639.5 257 639.2ZM233 633.9C229 633.1 225 632.4 220.9 631.8C219.8 631.6 218.8 632.4 218.6 633.5C218.4 634.6 219.2 635.7 220.3 635.8C224.3 636.4 228.3 637.1 232.3 637.9C232.4 637.9 232.6 637.9 232.7 637.9C233.7 637.9 234.5 637.2 234.7 636.2C234.9 635.2 234.1 634.2 233 633.9ZM208.8 630C204.8 629.5 200.7 629 196.6 628.5C195.5 628.4 194.5 629.2 194.4 630.3C194.3 631.4 195.1 632.4 196.2 632.5C200.2 632.9 204.3 633.4 208.3 634C208.4 634 208.5 634 208.6 634C209.6 634 210.5 633.3 210.6 632.2C210.7 631.2 210 630.2 208.8 630ZM1898.2 627.6C1896.4 624 1894.6 620.3 1892.8 616.6C1892.3 615.6 1891.1 615.2 1890.1 615.7C1889.1 616.2 1888.7 617.4 1889.2 618.4C1891 622 1892.9 625.7 1894.6 629.3C1894.9 630 1895.7 630.4 1896.4 630.4C1896.7 630.4 1897 630.3 1897.3 630.2C1898.2 629.8 1898.6 628.6 1898.2 627.6ZM1887.1 605.7C1885.2 602.1 1883.3 598.5 1881.3 594.9C1880.8 593.9 1879.5 593.6 1878.5 594.1C1877.5 594.6 1877.1 595.9 1877.7 596.9C1879.6 600.5 1881.6 604.1 1883.5 607.6C1883.9 608.3 1884.6 608.7 1885.3 608.7C1885.6 608.7 1885.9 608.6 1886.2 608.5C1887.2 607.9 1887.6 606.7 1887.1 605.7ZM1875.3 584.2C1873.3 580.7 1871.2 577.1 1869.2 573.6C1868.6 572.6 1867.4 572.3 1866.4 572.9C1865.4 573.5 1865.1 574.7 1865.7 575.7C1867.8 579.2 1869.8 582.7 1871.8 586.3C1872.2 587 1872.9 587.3 1873.6 587.3C1873.9 587.3 1874.3 587.2 1874.6 587C1875.6 586.4 1875.9 585.2 1875.3 584.2ZM621.3 563.6C620.4 562.9 619.1 563.2 618.5 564.1C616.2 567.4 613.8 570.8 611.5 574.1C610.9 575 611.1 576.3 612 576.9C612.3 577.1 612.7 577.3 613.1 577.3C613.8 577.3 614.4 577 614.8 576.4C617.1 573.1 619.4 569.7 621.8 566.4C622.4 565.5 622.2 564.2 621.3 563.6ZM1862.9 563.1C1860.8 559.6 1858.6 556.1 1856.4 552.7C1855.8 551.7 1854.5 551.5 1853.6 552.1C1852.6 552.7 1852.4 554 1853 554.9C1855.1 558.3 1857.3 561.8 1859.4 565.2C1859.8 565.8 1860.4 566.2 1861.1 566.2C1861.5 566.2 1861.8 566.1 1862.2 565.9C1863.2 565.3 1863.5 564 1862.9 563.1ZM635.7 543.9C634.8 543.2 633.5 543.4 632.9 544.3C630.5 547.6 628 550.9 625.6 554.1C624.9 555 625.1 556.3 626 556.9C626.4 557.2 626.8 557.3 627.2 557.3C627.8 557.3 628.4 557 628.8 556.5C631.2 553.2 633.6 549.9 636 546.7C636.8 545.8 636.6 544.5 635.7 543.9ZM1849.8 542.4C1847.6 539 1845.3 535.6 1843 532.2C1842.4 531.3 1841.1 531 1840.2 531.7C1839.3 532.3 1839 533.6 1839.7 534.5C1842 537.8 1844.2 541.2 1846.5 544.6C1846.9 545.2 1847.5 545.5 1848.2 545.5C1848.6 545.5 1849 545.4 1849.3 545.2C1850.1 544.6 1850.4 543.3 1849.8 542.4ZM650.7 524.6C649.8 523.9 648.5 524 647.8 524.9C645.3 528.1 642.7 531.3 640.2 534.5C639.5 535.4 639.7 536.7 640.6 537.4C641 537.7 641.4 537.8 641.8 537.8C642.4 537.8 643 537.5 643.4 537C645.9 533.8 648.4 530.6 650.9 527.4C651.7 526.6 651.6 525.3 650.7 524.6ZM1836 522.1C1833.7 518.8 1831.3 515.4 1828.9 512.1C1828.2 511.2 1827 511 1826.1 511.7C1825.2 512.4 1825 513.6 1825.7 514.5C1828.1 517.8 1830.5 521.1 1832.8 524.4C1833.2 525 1833.8 525.3 1834.5 525.3C1834.9 525.3 1835.3 525.2 1835.7 524.9C1836.4 524.3 1836.7 523 1836 522.1ZM666.3 505.8C665.4 505.1 664.2 505.2 663.4 506C660.8 509.1 658.1 512.2 655.6 515.4C654.9 516.3 655 517.5 655.9 518.3C656.3 518.6 656.7 518.8 657.2 518.8C657.8 518.8 658.4 518.5 658.8 518.1C661.4 515 664 511.8 666.6 508.8C667.2 507.8 667.1 506.5 666.3 505.8ZM1821.6 502.3C1819.1 499.1 1816.6 495.8 1814.1 492.6C1813.4 491.7 1812.1 491.6 1811.3 492.2C1810.4 492.9 1810.3 494.2 1810.9 495.1C1813.4 498.3 1815.9 501.5 1818.3 504.8C1818.7 505.3 1819.3 505.6 1819.9 505.6C1820.3 505.6 1820.8 505.5 1821.1 505.2C1822.1 504.5 1822.3 503.2 1821.6 502.3ZM682.4 487.4C681.6 486.6 680.3 486.7 679.5 487.5C676.8 490.5 674 493.6 671.4 496.6C670.7 497.4 670.7 498.7 671.6 499.5C672 499.8 672.5 500 672.9 500C673.5 500 674 499.8 674.4 499.3C677.1 496.3 679.8 493.2 682.5 490.2C683.3 489.5 683.2 488.2 682.4 487.4ZM1806.5 483C1803.9 479.8 1801.3 476.6 1798.7 473.5C1798 472.6 1796.7 472.5 1795.8 473.2C1794.9 473.9 1794.8 475.2 1795.5 476.1C1798.1 479.2 1800.7 482.4 1803.2 485.5C1803.6 486 1804.2 486.3 1804.8 486.3C1805.2 486.3 1805.7 486.2 1806.1 485.8C1807.1 485.1 1807.3 483.9 1806.5 483ZM699.1 469.6C698.3 468.8 697 468.8 696.2 469.7C693.4 472.6 690.5 475.6 687.8 478.6C687 479.4 687.1 480.7 687.9 481.5C688.3 481.9 688.8 482.1 689.3 482.1C689.8 482.1 690.4 481.9 690.8 481.4C693.5 478.5 696.4 475.5 699.2 472.6C699.9 471.7 699.9 470.4 699.1 469.6ZM1790.8 464.2C1788.1 461.1 1785.4 458 1782.7 455C1782 454.2 1780.7 454.1 1779.8 454.8C1778.9 455.5 1778.9 456.8 1779.6 457.7C1782.3 460.7 1785 463.8 1787.6 466.8C1788 467.3 1788.6 467.5 1789.1 467.5C1789.6 467.5 1790 467.3 1790.4 467C1791.5 466.3 1791.6 465 1790.8 464.2ZM716.3 452.3C715.5 451.5 714.2 451.5 713.4 452.3C710.5 455.1 707.6 458 704.7 460.9C703.9 461.7 703.9 463 704.7 463.8C705.1 464.2 705.6 464.4 706.1 464.4C706.6 464.4 707.1 464.2 707.5 463.8C710.4 460.9 713.3 458 716.1 455.2C717.1 454.4 717.1 453.1 716.3 452.3ZM1774.5 445.9C1771.7 442.9 1768.9 439.9 1766.1 437C1765.3 436.2 1764 436.2 1763.2 436.9C1762.4 437.7 1762.4 439 1763.1 439.8C1765.9 442.7 1768.7 445.7 1771.5 448.7C1771.9 449.1 1772.4 449.4 1773 449.4C1773.5 449.4 1774 449.2 1774.4 448.9C1775.2 448.1 1775.3 446.8 1774.5 445.9ZM734.1 435.6C733.3 434.8 732 434.7 731.2 435.5C728.2 438.2 725.2 441 722.2 443.8C721.4 444.6 721.3 445.9 722.1 446.7C722.5 447.1 723 447.3 723.6 447.3C724.1 447.3 724.6 447.1 725 446.7C727.9 443.9 730.9 441.1 733.9 438.4C734.8 437.7 734.9 436.4 734.1 435.6ZM1757.5 428.3C1754.6 425.4 1751.7 422.5 1748.8 419.7C1748 418.9 1746.7 418.9 1745.9 419.7C1745.1 420.5 1745.1 421.8 1745.9 422.6C1748.8 425.4 1751.7 428.3 1754.6 431.2C1755 431.6 1755.5 431.8 1756 431.8C1756.5 431.8 1757 431.6 1757.4 431.2C1758.3 430.4 1758.3 429.1 1757.5 428.3ZM752.5 419.5C751.8 418.6 750.5 418.5 749.6 419.3C746.5 421.9 743.4 424.6 740.4 427.3C739.6 428 739.5 429.3 740.2 430.2C740.6 430.7 741.2 430.9 741.7 430.9C742.2 430.9 742.7 430.7 743.1 430.4C746.1 427.7 749.2 425 752.3 422.4C753.1 421.6 753.2 420.3 752.5 419.5ZM771.3 404C770.6 403.1 769.3 403 768.4 403.7C765.2 406.2 762 408.8 758.9 411.4C758 412.1 757.9 413.4 758.6 414.3C759 414.8 759.6 415 760.2 415C760.7 415 761.1 414.8 761.5 414.5C764.6 411.9 767.8 409.3 770.9 406.8C771.9 406.1 772 404.9 771.3 404ZM1740 411.2C1737 408.4 1734 405.6 1731 402.9C1730.2 402.2 1728.9 402.2 1728.1 403C1727.3 403.8 1727.4 405.1 1728.2 405.9C1731.2 408.6 1734.2 411.4 1737.2 414.1C1737.6 414.5 1738.1 414.6 1738.6 414.6C1739.1 414.6 1739.7 414.4 1740.1 414C1740.8 413.3 1740.8 412 1740 411.2ZM790.7 389.1C790 388.2 788.8 388 787.9 388.7C784.7 391.1 781.4 393.6 778.1 396.1C777.2 396.8 777 398.1 777.7 398.9C778.1 399.4 778.7 399.7 779.3 399.7C779.7 399.7 780.2 399.6 780.5 399.3C783.7 396.8 787 394.4 790.2 391.9C791.2 391.3 791.4 390 790.7 389.1ZM1721.8 394.8C1718.7 392.1 1715.6 389.5 1712.5 386.9C1711.6 386.2 1710.4 386.3 1709.6 387.2C1708.9 388.1 1709 389.3 1709.9 390.1C1713 392.7 1716.1 395.4 1719.2 398C1719.6 398.3 1720.1 398.5 1720.5 398.5C1721.1 398.5 1721.6 398.3 1722 397.8C1722.7 396.9 1722.6 395.6 1721.8 394.8ZM810.5 374.9C809.9 374 808.6 373.8 807.7 374.4C804.4 376.7 801 379.1 797.7 381.5C796.8 382.2 796.6 383.4 797.2 384.3C797.6 384.9 798.2 385.1 798.9 385.1C799.3 385.1 799.7 385 800.1 384.7C803.4 382.3 806.7 380 810 377.7C810.9 377.1 811.2 375.8 810.5 374.9ZM1703 379.1C1699.8 376.5 1696.6 374 1693.4 371.5C1692.5 370.8 1691.2 371 1690.5 371.9C1689.8 372.8 1690 374.1 1690.9 374.7C1694.1 377.2 1697.3 379.7 1700.5 382.2C1700.9 382.5 1701.3 382.6 1701.8 382.6C1702.4 382.6 1703 382.3 1703.4 381.8C1704 381.1 1703.9 379.8 1703 379.1ZM830.9 361.4C830.3 360.5 829 360.2 828.1 360.8C824.7 363 821.2 365.3 817.9 367.5C817 368.1 816.7 369.4 817.3 370.3C817.7 370.9 818.3 371.2 819 371.2C819.4 371.2 819.8 371.1 820.1 370.8C823.5 368.6 826.9 366.3 830.3 364.1C831.2 363.6 831.5 362.3 830.9 361.4ZM1683.6 364.1C1680.3 361.7 1677 359.2 1673.7 356.9C1672.8 356.2 1671.5 356.5 1670.9 357.4C1670.2 358.3 1670.5 359.6 1671.4 360.2C1674.7 362.5 1678 364.9 1681.2 367.4C1681.6 367.7 1682 367.8 1682.4 367.8C1683 367.8 1683.6 367.5 1684 367C1684.7 366.1 1684.5 364.8 1683.6 364.1ZM851.6 348.6C851 347.6 849.8 347.3 848.8 347.9C845.3 350 841.8 352.1 838.3 354.3C837.3 354.9 837 356.1 837.6 357.1C838 357.7 838.6 358.1 839.3 358.1C839.7 358.1 840 358 840.4 357.8C843.8 355.7 847.3 353.5 850.8 351.5C851.9 350.8 852.2 349.6 851.6 348.6ZM1663.7 349.9C1660.3 347.6 1656.9 345.3 1653.5 343.1C1652.6 342.5 1651.3 342.7 1650.7 343.7C1650.1 344.6 1650.3 345.9 1651.3 346.5C1654.7 348.7 1658.1 351 1661.4 353.3C1661.8 353.5 1662.2 353.7 1662.5 353.7C1663.2 353.7 1663.8 353.4 1664.2 352.8C1664.8 351.8 1664.6 350.5 1663.7 349.9ZM872.9 336.5C872.4 335.5 871.1 335.2 870.1 335.7C866.5 337.7 862.9 339.7 859.4 341.7C858.4 342.3 858.1 343.5 858.7 344.5C859.1 345.2 859.8 345.5 860.5 345.5C860.8 345.5 861.2 345.4 861.5 345.2C865 343.2 868.6 341.2 872.1 339.2C873 338.7 873.4 337.5 872.9 336.5ZM1643.2 336.5C1639.8 334.3 1636.3 332.2 1632.8 330.1C1631.8 329.5 1630.6 329.8 1630 330.8C1629.4 331.8 1629.7 333 1630.7 333.6C1634.2 335.7 1637.7 337.8 1641.1 340C1641.4 340.2 1641.8 340.3 1642.2 340.3C1642.9 340.3 1643.5 340 1643.9 339.4C1644.5 338.3 1644.2 337 1643.2 336.5ZM894.5 325.2C894 324.2 892.8 323.8 891.8 324.3C888.2 326.1 884.5 328 880.9 329.9C879.9 330.4 879.5 331.7 880.1 332.7C880.5 333.4 881.2 333.8 881.9 333.8C882.2 333.8 882.6 333.7 882.9 333.6C886.5 331.7 890.1 329.8 893.7 328C894.6 327.4 895 326.2 894.5 325.2ZM1622.3 323.8C1618.8 321.8 1615.2 319.7 1611.6 317.8C1610.6 317.3 1609.4 317.6 1608.8 318.6C1608.3 319.6 1608.6 320.8 1609.6 321.4C1613.1 323.3 1616.7 325.3 1620.2 327.4C1620.5 327.6 1620.9 327.7 1621.2 327.7C1621.9 327.7 1622.6 327.3 1623 326.7C1623.6 325.6 1623.2 324.4 1622.3 323.8ZM916.4 314.5C915.9 313.5 914.7 313 913.7 313.5C910 315.2 906.3 317 902.6 318.8C901.6 319.3 901.2 320.5 901.7 321.5C902 322.2 902.8 322.6 903.5 322.6C903.8 322.6 904.1 322.5 904.4 322.4C908 320.6 911.7 318.9 915.4 317.2C916.5 316.8 916.9 315.6 916.4 314.5ZM1600.8 312C1597.2 310.1 1593.5 308.2 1589.9 306.4C1588.9 305.9 1587.7 306.3 1587.2 307.3C1586.7 308.3 1587.1 309.5 1588.1 310C1591.7 311.8 1595.3 313.7 1598.9 315.6C1599.2 315.8 1599.5 315.8 1599.8 315.8C1600.5 315.8 1601.2 315.4 1601.6 314.7C1602.2 313.7 1601.8 312.5 1600.8 312ZM938.8 304.7C938.4 303.7 937.2 303.2 936.1 303.6C932.4 305.2 928.6 306.8 924.9 308.5C923.9 309 923.4 310.2 923.9 311.2C924.2 312 925 312.4 925.8 312.4C926.1 312.4 926.4 312.3 926.6 312.2C930.3 310.6 934.1 308.9 937.8 307.3C938.7 306.9 939.2 305.7 938.8 304.7ZM1578.9 301C1575.2 299.3 1571.5 297.5 1567.8 295.8C1566.8 295.3 1565.6 295.8 1565.1 296.8C1564.6 297.8 1565.1 299 1566.1 299.5C1569.8 301.2 1573.5 302.9 1577.1 304.6C1577.4 304.7 1577.7 304.8 1578 304.8C1578.8 304.8 1579.5 304.4 1579.8 303.6C1580.4 302.7 1579.9 301.5 1578.9 301ZM961.4 295.6C961 294.6 959.8 294 958.8 294.4C955 295.9 951.2 297.4 947.4 298.9C946.4 299.3 945.9 300.5 946.3 301.5C946.6 302.3 947.4 302.8 948.2 302.8C948.5 302.8 948.7 302.8 949 302.6C952.7 301.1 956.6 299.6 960.3 298.1C961.3 297.8 961.8 296.7 961.4 295.6ZM1556.6 290.9C1552.9 289.3 1549.1 287.7 1545.3 286.2C1544.3 285.8 1543.1 286.3 1542.6 287.3C1542.2 288.3 1542.7 289.5 1543.7 290C1547.4 291.5 1551.2 293.1 1554.9 294.7C1555.2 294.8 1555.4 294.9 1555.7 294.9C1556.5 294.9 1557.2 294.4 1557.6 293.7C1558.1 292.6 1557.7 291.4 1556.6 290.9ZM984.4 287.3C984 286.2 982.9 285.7 981.8 286C978 287.3 974.1 288.7 970.3 290.1C969.3 290.5 968.7 291.7 969.1 292.7C969.4 293.5 970.2 294 971 294C971.2 294 971.5 294 971.7 293.9C975.5 292.5 979.4 291.1 983.2 289.8C984.2 289.5 984.7 288.3 984.4 287.3ZM1007.6 279.7C1007.3 278.6 1006.1 278 1005.1 278.4C1001.2 279.6 997.3 280.9 993.4 282.1C992.3 282.5 991.8 283.6 992.1 284.7C992.4 285.6 993.2 286.1 994 286.1C994.2 286.1 994.4 286.1 994.6 286C998.4 284.7 1002.3 283.5 1006.2 282.3C1007.3 281.9 1007.9 280.8 1007.6 279.7ZM1533.9 281.7C1530.1 280.3 1526.3 278.8 1522.4 277.4C1521.3 277 1520.2 277.6 1519.8 278.6C1519.4 279.7 1520 280.8 1521 281.2C1524.8 282.6 1528.7 284 1532.4 285.5C1532.6 285.6 1532.9 285.6 1533.1 285.6C1533.9 285.6 1534.7 285.1 1535 284.3C1535.5 283.3 1535 282.1 1533.9 281.7ZM1031 272.9C1030.7 271.8 1029.6 271.2 1028.5 271.5C1024.6 272.6 1020.6 273.7 1016.7 274.9C1015.6 275.2 1015 276.3 1015.3 277.4C1015.6 278.3 1016.4 278.9 1017.3 278.9C1017.5 278.9 1017.7 278.9 1017.9 278.8C1021.8 277.7 1025.7 276.5 1029.6 275.5C1030.7 275.1 1031.3 273.9 1031 272.9ZM1510.9 273.4C1507.1 272.1 1503.1 270.8 1499.3 269.6C1498.2 269.3 1497.1 269.8 1496.7 270.9C1496.4 272 1497 273.1 1498 273.5C1501.8 274.7 1505.7 276 1509.6 277.3C1509.8 277.4 1510 277.4 1510.3 277.4C1511.1 277.4 1511.9 276.9 1512.2 276C1512.5 274.9 1512 273.7 1510.9 273.4ZM1054.6 266.8C1054.3 265.7 1053.2 265 1052.1 265.3C1048.1 266.3 1044.2 267.3 1040.2 268.3C1039.1 268.6 1038.5 269.7 1038.7 270.8C1038.9 271.7 1039.8 272.3 1040.7 272.3C1040.9 272.3 1041 272.3 1041.2 272.2C1045.1 271.2 1049.1 270.2 1053 269.2C1054.2 269 1054.9 267.9 1054.6 266.8ZM1487.6 265.9C1483.7 264.7 1479.8 263.6 1475.8 262.5C1474.7 262.2 1473.6 262.8 1473.3 263.9C1473 265 1473.6 266.1 1474.7 266.4C1478.6 267.5 1482.5 268.6 1486.4 269.8C1486.6 269.9 1486.8 269.9 1487 269.9C1487.9 269.9 1488.7 269.3 1488.9 268.4C1489.3 267.4 1488.7 266.3 1487.6 265.9ZM1078.4 261.4C1078.2 260.3 1077.1 259.6 1076 259.8C1074.1 260.2 1072.3 260.6 1070.4 261C1068.3 261.5 1066.2 261.9 1064.1 262.4C1063 262.7 1062.3 263.7 1062.6 264.8C1062.8 265.7 1063.7 266.4 1064.6 266.4C1064.7 266.4 1064.9 266.4 1065.1 266.4C1067.2 265.9 1069.3 265.4 1071.4 265C1073.3 264.6 1075.1 264.2 1077 263.8C1078 263.6 1078.7 262.5 1078.4 261.4ZM1464 259.4C1460.1 258.4 1456.1 257.4 1452.1 256.4C1451 256.1 1449.9 256.8 1449.6 257.9C1449.3 259 1450 260.1 1451.1 260.3C1455 261.2 1459 262.2 1462.9 263.2C1463.1 263.2 1463.2 263.3 1463.4 263.3C1464.3 263.3 1465.1 262.7 1465.4 261.8C1465.8 260.8 1465.1 259.6 1464 259.4ZM1102.4 256.6C1102.2 255.5 1101.1 254.8 1100 255C1096 255.8 1092 256.6 1088 257.4C1086.9 257.6 1086.2 258.7 1086.4 259.8C1086.6 260.8 1087.4 261.4 1088.4 261.4C1088.5 261.4 1088.7 261.4 1088.8 261.4C1092.8 260.6 1096.8 259.8 1100.8 259C1101.9 258.8 1102.6 257.7 1102.4 256.6ZM1440.2 253.7C1436.2 252.8 1432.2 252 1428.2 251.2C1427.1 251 1426 251.7 1425.8 252.8C1425.6 253.9 1426.3 255 1427.4 255.2C1431.4 256 1435.4 256.8 1439.3 257.7C1439.4 257.7 1439.6 257.7 1439.7 257.7C1440.6 257.7 1441.5 257 1441.7 256.1C1442 255 1441.3 253.9 1440.2 253.7ZM1126.4 252.3C1126.2 251.2 1125.2 250.4 1124.1 250.6C1120.1 251.3 1116.1 252 1112 252.7C1110.9 252.9 1110.2 254 1110.4 255.1C1110.6 256.1 1111.4 256.8 1112.4 256.8C1112.5 256.8 1112.6 256.8 1112.8 256.8C1116.8 256.1 1120.8 255.4 1124.8 254.7C1125.8 254.5 1126.6 253.4 1126.4 252.3ZM1416.2 248.9C1412.2 248.2 1408.2 247.5 1404.1 246.8C1403 246.6 1401.9 247.4 1401.8 248.5C1401.6 249.6 1402.4 250.6 1403.5 250.8C1407.5 251.5 1411.5 252.2 1415.5 252.9C1415.6 252.9 1415.7 252.9 1415.9 252.9C1416.9 252.9 1417.7 252.2 1417.9 251.2C1418 250.1 1417.3 249.1 1416.2 248.9ZM1150.5 248.6C1150.3 247.5 1149.3 246.7 1148.2 246.9C1144.2 247.5 1140.1 248.1 1136.1 248.7C1135 248.9 1134.2 249.9 1134.4 251C1134.6 252 1135.4 252.7 1136.4 252.7C1136.5 252.7 1136.6 252.7 1136.7 252.7C1140.7 252.1 1144.7 251.5 1148.7 250.9C1149.9 250.7 1150.7 249.7 1150.5 248.6ZM1174.7 245.4C1174.6 244.3 1173.6 243.5 1172.4 243.6C1168.4 244.1 1164.3 244.6 1160.3 245.1C1159.2 245.2 1158.4 246.3 1158.5 247.4C1158.6 248.4 1159.5 249.2 1160.5 249.2C1160.6 249.2 1160.7 249.2 1160.8 249.2C1164.8 248.7 1168.9 248.2 1172.9 247.7C1174.1 247.5 1174.9 246.5 1174.7 245.4ZM1392.1 244.9C1388.1 244.3 1384 243.8 1380 243.2C1378.9 243.1 1377.9 243.8 1377.7 245C1377.6 246.1 1378.3 247.1 1379.5 247.3C1383.5 247.8 1387.6 248.4 1391.6 249C1391.7 249 1391.8 249 1391.9 249C1392.9 249 1393.8 248.3 1393.9 247.3C1394 246.1 1393.2 245 1392.1 244.9ZM1196.8 241C1192.8 241.4 1188.7 241.8 1184.6 242.2C1183.5 242.3 1182.7 243.3 1182.8 244.4C1182.9 245.5 1183.8 246.2 1184.8 246.2C1184.9 246.2 1184.9 246.2 1185 246.2C1189 245.8 1193.1 245.4 1197.1 245C1198.2 244.9 1199 243.9 1198.9 242.8C1198.9 241.7 1197.9 240.9 1196.8 241ZM1367.8 241.7C1363.8 241.2 1359.7 240.8 1355.6 240.4C1354.5 240.3 1353.5 241.1 1353.4 242.2C1353.3 243.3 1354.1 244.3 1355.2 244.4C1359.2 244.8 1363.3 245.2 1367.3 245.7C1367.4 245.7 1367.5 245.7 1367.5 245.7C1368.5 245.7 1369.4 244.9 1369.5 243.9C1369.7 242.9 1368.9 241.9 1367.8 241.7ZM1221.2 239C1217.2 239.3 1213.1 239.6 1209 239.9C1207.9 240 1207 241 1207.1 242.1C1207.2 243.2 1208.1 244 1209.1 244H1209.3C1213.3 243.7 1217.4 243.4 1221.4 243.1C1222.5 243 1223.4 242.1 1223.3 240.9C1223.3 239.8 1222.3 238.9 1221.2 239ZM1343.4 239.4C1339.4 239.1 1335.3 238.8 1331.2 238.5C1330.1 238.4 1329.1 239.3 1329 240.4C1328.9 241.5 1329.8 242.5 1330.9 242.6C1335 242.9 1339 243.1 1343 243.5C1343.1 243.5 1343.1 243.5 1343.2 243.5C1344.2 243.5 1345.1 242.7 1345.2 241.6C1345.4 240.5 1344.6 239.5 1343.4 239.4ZM1245.6 237.7C1241.6 237.9 1237.5 238.1 1233.4 238.3C1232.3 238.4 1231.4 239.3 1231.5 240.4C1231.6 241.5 1232.5 242.3 1233.5 242.3H1233.6C1237.7 242.1 1241.8 241.9 1245.8 241.7C1246.9 241.7 1247.8 240.7 1247.7 239.6C1247.7 238.5 1246.7 237.6 1245.6 237.7ZM1319 237.9C1315 237.7 1310.8 237.5 1306.8 237.4C1305.7 237.4 1304.7 238.2 1304.7 239.4C1304.7 240.5 1305.5 241.5 1306.7 241.5C1310.8 241.6 1314.8 241.8 1318.9 242H1319C1320.1 242 1321 241.2 1321 240.1C1321 238.9 1320.1 237.9 1319 237.9ZM1270.1 237C1266 237 1261.9 237.1 1257.8 237.2C1256.7 237.2 1255.8 238.2 1255.8 239.3C1255.8 240.4 1256.7 241.3 1257.8 241.3H1257.9C1262 241.2 1266.1 241.1 1270.1 241.1C1271.2 241.1 1272.1 240.2 1272.1 239C1272.1 237.9 1271.2 237 1270.1 237ZM1294.6 237.1C1290.5 237 1286.4 237 1282.4 237C1281.3 237 1280.4 237.9 1280.4 239C1280.4 240.1 1281.3 241 1282.4 241C1286.4 241 1290.5 241 1294.6 241.1C1295.7 241.1 1296.6 240.2 1296.6 239.1C1296.6 238 1295.7 237.1 1294.6 237.1Z" fill="#E75755"/>
<path d="M1436.6 772L1432 768.2L1493.9 687.3L1516.2 686.4L1436.6 772Z" fill="#8D1E5E"/>
<path d="M1355.7 772L1351.8 768.2L1403.1 687.3L1421.6 686.4L1355.7 772Z" fill="#8D1E5E"/>
<path d="M977.6 561.101C977.6 545.701 989.8 533.301 1004.8 533.301C1019.8 533.301 1032 545.801 1032 561.101C1032 576.401 1019.8 588.901 1004.8 588.901C989.7 588.901 977.6 576.401 977.6 561.101Z" fill="#8D1E5E"/>
<path d="M1322 935.901H1045.9C1042.9 935.901 1040.4 933.401 1040.4 930.401V904.301C1040.4 901.301 1042.9 898.801 1045.9 898.801H1289.8C1292.8 898.801 1295.3 901.301 1295.3 904.301L1322 935.901Z" fill="#8D1E5E"/>
<path d="M1465.3 973.834C1497.52 941.616 1497.52 889.38 1465.3 857.162C1433.08 824.944 1380.84 824.944 1348.63 857.162C1316.41 889.38 1316.41 941.616 1348.63 973.834C1380.84 1006.05 1433.08 1006.05 1465.3 973.834Z" fill="#0B0754"/>
<path d="M1364.9 915.5C1364.9 892.3 1383.7 873.4 1407 873.4C1430.2 873.4 1449.1 892.2 1449.1 915.5C1449.1 938.7 1430.3 957.6 1407 957.6C1383.8 957.6 1364.9 938.7 1364.9 915.5Z" fill="#6D89CF"/>
<path d="M982.8 799.001C971.1 795.301 958.7 793.301 945.9 793.301C936.8 793.301 928 794.301 919.4 796.201C870.5 807.001 832.6 847.201 825 897.201C823.6 906.801 831 915.501 840.8 915.501H841.3C846.5 915.501 850.9 911.501 851.4 906.301C856.1 858.301 896.6 820.601 945.8 820.601C960.5 820.601 974.4 824.001 986.8 829.901C1018.6 845.201 1040.6 877.801 1040.6 915.401H1067.9C1068.1 861.001 1032.2 814.701 982.8 799.001Z" fill="#8D1E5E"/>
<path d="M1109.5 898.901L1068.2 915.501C1039.6 859.801 1010.3 832.501 985.3 819.001C940.3 794.701 909 815.301 919.5 796.201L996.7 633.401C1003.9 623.301 1013.4 615.701 1023.9 610.701C1035.4 605.301 1048.1 603.001 1060.8 604.201C1075.5 605.601 1085.2 620.401 1080.5 634.401C1070.4 664.601 1066.5 695.001 1066.5 723.801C1066.4 819.801 1109.5 898.901 1109.5 898.901Z" fill="#8D1E5E"/>
<path d="M1067.3 623L1036.2 611.1C1032 611.1 1023.9 614.9 1023.9 610.7L1028.5 534.6C1028.5 530.4 1032 526.9 1036.2 526.9H1056.3C1060.5 526.9 1077.5 535 1076.3 550.2L1081.6 626.9C1081.6 631.2 1071.5 623 1067.3 623Z" fill="#8D1E5E"/>
<path d="M1594.8 690.101H1393.4C1385.7 690.101 1379.5 683.801 1379.5 676.201V674.701C1379.5 667.001 1385.8 660.801 1393.4 660.801H1594.8C1602.5 660.801 1608.7 667.101 1608.7 674.701V676.201C1608.7 683.901 1602.4 690.101 1594.8 690.101Z" fill="#8D1E5E"/>
<path d="M1004.22 973.863C1036.43 941.645 1036.43 889.41 1004.22 857.192C971.997 824.974 919.762 824.974 887.544 857.192C855.326 889.41 855.326 941.645 887.544 973.863C919.762 1006.08 971.997 1006.08 1004.22 973.863Z" fill="#0B0754"/>
<path d="M987.999 915.5C987.999 922.6 986.199 929.3 983.199 935.1C982.999 935.5 982.799 935.9 982.599 936.2C975.399 948.9 961.699 957.5 945.999 957.5C922.799 957.5 903.899 938.7 903.899 915.4C903.899 897.9 914.599 882.9 929.799 876.6C929.999 876.5 930.099 876.5 930.299 876.4C935.099 874.4 940.399 873.4 945.999 873.4C969.199 873.5 987.999 892.3 987.999 915.5Z" fill="#BED2FA"/>
<path d="M1248.2 749.301C1248.2 749.301 1280.4 821.001 1208.5 898.901H1374.4L1351.8 728.301L1248.2 749.301Z" fill="#8D1E5E"/>
<path d="M1573.3 925C1573.3 928 1572.1 930.7 1570.1 932.7C1568.1 934.7 1565.4 935.9 1562.4 935.9H1297.7C1291.7 935.9 1286.8 931 1286.8 925L1290.3 751.9L1379.4 746.4C1498.2 746.4 1573.3 806.3 1573.3 925Z" fill="#8D1E5E"/>
<path d="M1031.9 559.501C1031.9 562.201 1031.7 564.801 1031.2 567.401C1027.5 587.201 1010.1 602.201 989.199 602.201V516.801C1012.7 516.801 1031.9 535.901 1031.9 559.501Z" fill="#FF8DC4"/>
<path d="M1099.3 565.201C1099.1 565.201 1097.4 564.901 1097.2 564.801L1050.2 551.801C1048.3 551.401 1047 549.101 1047.3 546.601C1047.6 544.101 1049.3 542.401 1051.2 542.801L1098.3 552C1100.2 552.4 1101.6 555.201 1102.1 557.601C1102.8 561.801 1100.9 565.201 1099.3 565.201Z" fill="#0B0754"/>
<path d="M985.7 822.302C986.1 824.902 986.5 827.501 986.9 829.901C986.8 829.801 986.7 829.802 986.5 829.702C974.2 823.802 960.4 820.501 945.8 820.501C896.6 820.501 856 858.202 851.4 906.202C850.9 911.402 846.6 915.401 841.3 915.401H840.8C831.1 915.401 823.6 906.802 825 897.102C832.5 847.302 870.2 807.202 918.9 796.202C919.1 796.202 919.2 796.102 919.4 796.102L996.6 633.302C1003.8 623.202 1013.3 615.602 1023.8 610.602C1010.6 632.702 974.4 703.501 982.8 798.901C983.4 805.501 984.2 812.101 985.2 818.901C985.4 820.101 985.6 821.202 985.7 822.302Z" fill="#FF8DC4"/>
<path d="M1425.4 715.5V741.2C1425.4 745.7 1421.8 749.3 1417.3 749.3H1248.1C1243.6 749.3 1240 745.6 1240 741.2V715.5C1240 711 1243.7 707.4 1248.1 707.4H1417.3C1421.8 707.4 1425.4 711 1425.4 715.5Z" fill="#FF8DC4"/>
<path d="M1552.4 936H1297.7C1297.7 936 1282.2 841.7 1339.5 809.9C1353.3 802.2 1370.6 799.6 1389.5 801.4C1449.1 807.2 1524 857.6 1552.4 936Z" fill="#5B153E"/>
<path d="M1031.1 567.301C1027.4 587.101 1010 602.101 989.1 602.101V578.301C1001.7 578.801 1019.8 577.501 1031.1 567.301Z" fill="#DD3D83"/>
<path d="M1371.9 749.3H1248.2C1243.7 749.3 1240.1 745.6 1240.1 741.2V715.5C1240.1 711 1243.8 707.4 1248.2 707.4H1333C1340.3 717.8 1354.1 735.4 1371.9 749.3Z" fill="#DD3D83"/>
<path d="M1552.4 936H1446.6C1382.8 903.6 1386.7 825.4 1389.5 801.4C1449.1 807.2 1524 857.6 1552.4 936Z" fill="#5B153E"/>
<path d="M982.5 936.301C975.3 949.001 961.6 957.601 945.9 957.601C922.7 957.601 903.8 938.801 903.8 915.501C903.8 898.001 914.5 883.001 929.7 876.701C933.4 894.901 945.2 928.601 982.5 936.301Z" fill="#93B3F4"/>
<path d="M985.699 822.302C986.099 824.902 986.499 827.501 986.899 829.901C986.799 829.801 986.699 829.802 986.499 829.702C971.299 815.602 939.099 803.102 918.899 796.202C919.099 796.202 919.199 796.102 919.399 796.102L996.599 633.302C1003.8 623.202 1013.3 615.602 1023.8 610.602C1010.6 632.702 974.399 703.501 982.799 798.901C983.399 805.501 984.199 812.101 985.199 818.901C985.399 820.101 985.599 821.202 985.699 822.302Z" fill="#DD3D83"/>
<path d="M1396.46 660.777H1528.26V552.077H1396.46V660.777Z" fill="#9E332E"/>
<path d="M1594.2 552.1H1462.4V660.8H1594.2V552.1Z" fill="#FA7269"/>
<path d="M1396.5 633.2H1417.4L1415.6 627.3L1417.4 623.1H1396.5V633.2Z" fill="#FA7269"/>
<path d="M1594.2 624.2V660.8H1462.4V552.1H1485.7L1594.2 624.2Z" fill="#AE4C4C"/>
<path opacity="0.4" d="M1594.2 576.5H1573.3L1575.2 570.6L1573.3 566.4H1594.2V576.5Z" fill="#9E332E"/>
<path d="M1594.2 643.299H1573.3L1575.2 637.399L1573.3 633.199H1594.2V643.299Z" fill="#FA7269"/>
<path d="M1262.9 453.6C1285.7 462.9 1327.4 443.1 1327.4 443.1C1327.4 443.1 1313.6 430.9 1310.9 407.7C1310.8 406.5 1310.7 405.3 1310.6 404.1C1308.2 403.2 1303.7 401.6 1298.8 399.9L1278.6 413.6C1278.6 413.6 1278.1 420.4 1278.8 432.2C1278.9 434.3 1279.1 436.5 1279.3 438.9C1268.8 443.5 1262.9 453.6 1262.9 453.6Z" fill="#FC9290"/>
<path d="M1278.6 413.601C1278.6 413.601 1278.1 420.401 1278.8 432.201C1297.2 428.901 1307.3 414.001 1310.8 407.601C1310.7 406.401 1310.6 405.201 1310.5 404.001C1308.1 403.101 1303.6 401.501 1298.7 399.801L1278.6 413.601Z" fill="#EA8888"/>
<path d="M1274.9 423.4C1274.9 423.4 1314.2 422.1 1313 397.7C1311.8 373.3 1316.1 356.6 1291 356.4C1265.9 356.2 1261.5 365.7 1259.9 374C1258.2 382.3 1264.6 423.1 1274.9 423.4Z" fill="#FC9290"/>
<path d="M1310.9 407.601C1310.9 407.601 1312.4 399.501 1308 394.101C1308 394.101 1310.9 386.101 1307.8 384.301C1304.7 382.501 1303.1 389.301 1301.8 388.001C1300.5 386.701 1294.5 380.701 1292.7 372.701C1290.9 364.701 1263.7 370.401 1260.4 371.401C1257.2 372.401 1278.5 332.701 1301.4 342.101C1324.4 351.501 1326.1 363.301 1323.4 372.901C1320.8 382.501 1321.1 405.601 1310.9 407.601Z" fill="#0B0754"/>
<path d="M1348.4 640.8C1348.4 640.8 1345.7 688.8 1334.8 702.4C1323.9 716.1 1114.6 710.8 1114.6 710.8C1114.6 710.8 1113.7 680.1 1121.9 672.1C1130.1 664.2 1168.3 641.5 1290.3 628.6L1348.4 640.8Z" fill="#A2BEF6"/>
<path d="M1351.2 540.401C1347.8 581.601 1352.3 644.201 1348.4 655.101C1345.1 664.501 1307 658.901 1291.8 655.801C1286.2 654.601 1279.4 653.001 1272.3 651.001C1252.7 645.601 1231.3 637.801 1229 632.001C1228.9 631.801 1228.8 631.601 1228.8 631.301C1228.6 630.501 1228.6 629.701 1228.8 628.901C1229.4 626.701 1231.1 624.401 1232.1 620.401C1232.5 619.001 1232.7 617.401 1232.8 615.501C1233.2 608.001 1233.1 599.401 1233.4 590.001C1233.4 589.101 1233.5 588.301 1233.5 587.401C1233.5 586.201 1233.5 585.001 1233.7 583.801V583.401C1233.7 583.201 1233.7 583.001 1233.7 582.701C1234 571.201 1234.7 559.101 1235.5 547.101C1235.7 543.401 1236 539.601 1236.3 536.001C1236.4 534.701 1236.5 533.401 1236.6 532.101C1236.8 529.701 1237 527.301 1237.2 525.001C1238.9 506.501 1241.2 490.101 1244.3 479.801C1249.3 462.901 1260.3 451.901 1270.3 443.801L1277.5 438.201C1285.6 439.801 1295.1 438.701 1303.8 435.101C1313.1 431.101 1316.4 428.201 1318 429.301C1339.7 444.301 1355.2 490.101 1351.2 540.401Z" fill="#FF8DC4"/>
<path d="M1189.9 868.5C1189.9 868.5 1188 898.3 1182.3 898.8C1181.5 898.9 1153 898.9 1153 898.9L1116.6 898.7C1116.6 898.7 1116.8 889.9 1127.5 888.1C1138.1 886.2 1156 878.8 1162.4 864.7C1169.1 849.8 1189.9 868.5 1189.9 868.5Z" fill="#3A49CD"/>
<path d="M1197.5 870.501C1197.5 870.501 1190.5 875.901 1176.1 876.601C1172.4 876.801 1169 876.601 1166.1 876.201C1158.2 875.201 1153.3 872.901 1153.3 872.901L1114.7 710.801C1114.7 710.801 1156.5 674.201 1178.4 697.001C1181.2 700.001 1183.7 705.101 1185.8 711.801C1199.5 756.501 1197.5 870.501 1197.5 870.501Z" fill="#A2BEF6"/>
<path d="M1290.3 509.1C1290.3 509.1 1263.2 608.3 1232.3 620.4C1232.7 619 1232.9 617.4 1233 615.5C1233.4 608 1233.3 599.4 1233.6 590C1233.6 589.1 1233.7 588.3 1233.7 587.4C1233.7 586.2 1233.7 585 1233.9 583.8V583.4C1233.9 583.2 1233.9 583 1233.9 582.7C1234.2 571.2 1234.9 559.1 1235.7 547.1C1235.9 543.4 1236.2 539.6 1236.5 536C1250 519.6 1268.5 507.8 1290.3 509.1Z" fill="#DD3D83"/>
<path d="M1127.8 547.4C1127.8 547.4 1116 548.3 1113 547.4C1110 546.5 1095.7 538 1090.6 539.8C1085.5 541.6 1072.4 555 1075.7 561C1075.7 561 1081.8 561.2 1087.4 555.4C1093 549.6 1099.1 553.6 1098.5 554.3C1097.9 555.1 1089.1 558.5 1090.6 560.1C1092.1 561.6 1103.6 561.3 1106.4 559.5C1109.1 557.7 1129.4 560 1129.4 560L1127.8 547.4Z" fill="#FC9290"/>
<path d="M1290.3 456.801C1290.3 456.801 1216.9 519.301 1197.6 525.401C1178.3 531.501 1110.1 544.701 1110.1 544.701C1110.1 544.701 1108.2 560.901 1114.6 566.901C1114.6 566.901 1202.3 561.801 1213.2 559.501C1224.1 557.201 1305.5 515.001 1312.1 511.901C1318.7 508.701 1317.7 451.701 1290.3 456.801Z" fill="#FF8DC4"/>
<path d="M1197.5 870.501C1197.5 870.501 1190.5 875.901 1176.1 876.601C1172.4 876.801 1169 876.601 1166.1 876.201C1188.1 848.301 1185.7 711.801 1185.7 711.801C1199.5 756.501 1197.5 870.501 1197.5 870.501Z" fill="#93B3F4"/>
<path d="M1329.3 374.6V375C1329.3 376 1328.8 376.9 1328.2 377.3C1328 377.4 1327.7 377.5 1327.5 377.5H1234.5C1233.5 377.5 1232.6 376.4 1232.6 375V374.6C1232.6 373.2 1233.4 372.1 1234.5 372.1L1255.3 369.4C1257.2 354 1267.5 341.4 1281 337C1284.3 335.9 1287.8 335.4 1291.4 335.4C1310.5 335.4 1326.1 351.2 1327.8 371.3C1327.8 371.5 1327.8 371.8 1327.9 372C1328.1 372.2 1328.3 372.3 1328.3 372.3C1328.8 372.7 1329.3 373.6 1329.3 374.6Z" fill="#FF8DC4"/>
<path d="M1297.8 371.3C1304.7 334.6 1281.7 337 1280.9 337.1C1284.2 336 1287.7 335.5 1291.3 335.5C1310.4 335.5 1326 351.3 1327.7 371.4H1297.8V371.3Z" fill="#DD3D83"/>
<path d="M1417.3 998C1417.3 998 1493.7 978.8 1515.2 955.5C1536.7 932.2 1555.4 958.6 1541.4 973.3C1527.4 988.1 1417.3 998 1417.3 998Z" fill="#DDE8FD"/>
<path d="M1720.5 946.299H1613.5C1610.9 946.299 1608.7 944.099 1608.7 941.499C1608.7 938.899 1610.9 936.699 1613.5 936.699H1720.5C1723.1 936.699 1725.3 938.899 1725.3 941.499C1725.3 944.099 1723.1 946.299 1720.5 946.299Z" fill="#DDE8FD"/>
<path d="M1669.5 924.899H1611.3C1609.9 924.899 1608.7 923.699 1608.7 922.299C1608.7 920.899 1609.9 919.699 1611.3 919.699H1669.5C1670.9 919.699 1672.1 920.899 1672.1 922.299C1672.1 923.699 1670.9 924.899 1669.5 924.899Z" fill="#DDE8FD"/>
<path d="M565.3 745.1C531.2 806.5 478.9 870.8 478.9 870.8C478.9 870.8 363.6 729.3 363.6 665.6C363.6 629.5 380.2 597.3 406.2 576.1C410.6 597 417.7 620.8 429.1 643.9C426.5 650.3 425 657.2 425 664.5C425 694.3 449.1 718.3 478.9 718.3C482.9 718.3 486.9 717.8 490.6 716.9C510.7 730.6 535.3 740.7 565.3 745.1Z" fill="#DD3D83"/>
</svg>
