<svg width="1920" height="1080" viewBox="0 0 1920 1080" fill="none" xmlns="http://www.w3.org/2000/svg">
<path d="M1920 219.343L1423.24 460.8L1041.37 276.943L1617.07 0H1531.43L998.705 256.114L474.819 0H389.486L956.038 276.943L591.238 454.371L0 165.343V206.486L972.8 679.886L808.838 759.086L0 366.686V408.343L765.867 779.914L141.105 1080H226.438L501.638 949.629L641.829 1020.09L948.724 870.686L1379.96 1080H1464.69L1358.93 1031.4L1523.81 951.686L1794.13 1080H1877.64C1879.47 1080 1881.3 1079.74 1883.12 1079.74L1468.65 882.514L1835.28 706.629L1920 746.743V704.571L1465.9 481.629L1920 261V219.343V219.343ZM633.6 475.2L998.4 297.771L1380.27 481.629L1015.47 659.057L633.6 475.2ZM641.524 977.914L544.305 928.8L808.838 800.743L906.057 849.857L641.524 977.914ZM1481.14 931.114L1316.27 1010.83L851.505 780.171L1015.47 700.971L1481.14 931.114ZM1790.78 684L1425.98 861.429L1058.44 679.629L1423.24 502.2L1790.78 684Z" fill="#F9F9F9"/>
</svg>
