<svg xmlns="http://www.w3.org/2000/svg" version="1.1" xmlns:xlink="http://www.w3.org/1999/xlink" xmlns:svgjs="http://svgjs.com/svgjs" width="1440" height="560" preserveAspectRatio="none" viewBox="0 0 1440 560"><g mask="url(&quot;#SvgjsMask1157&quot;)" fill="none"><rect width="1440" height="560" x="0" y="0" fill="rgba(221, 61, 131, 1)"></rect><path d="M0,484.702C91.375,502.536,192.549,470.118,263.052,409.317C330.841,350.857,334.184,250.914,367.456,167.812C398.837,89.432,478.215,15.446,453.009,-65.133C427.216,-147.591,308.904,-153.639,247.798,-214.718C193.221,-269.271,188.775,-370.669,117.574,-400.42C46.241,-430.226,-30.584,-377.292,-106.517,-362.765C-192.175,-346.378,-301.22,-376.39,-357.273,-309.579C-413.479,-242.585,-359.944,-139.907,-366.643,-52.715C-372.762,26.926,-426.933,107.173,-394.916,180.352C-362.859,253.623,-267.764,269.257,-204.416,318.077C-133.347,372.848,-88.063,467.514,0,484.702" fill="#c02267"></path><path d="M1440 993.077C1520.073 1005.405 1594.595 950.213 1660.434 903.001 1723.792 857.568 1783.665 802.246 1808.965 728.501 1833.259 657.689 1814.987 581.188 1795.651 508.865 1778.114 443.273 1741.737 387.872 1702.987 332.12 1659.695 269.834 1629.619 183.31 1556.18 164.327 1482.612 145.31 1419.8 221.774 1345.993 239.83999999999997 1267.056 259.161 1161.1680000000001 210.89499999999998 1109.535 273.651 1057.517 336.874 1135.018 433.492 1120.385 514.046 1104.834 599.652 988.9200000000001 670.385 1022.915 750.476 1056.569 829.765 1184.804 797.927 1259.261 841.235 1328.683 881.615 1360.623 980.856 1440 993.077" fill="#e56da2"></path></g><defs><mask id="SvgjsMask1157"><rect width="1440" height="560" fill="#ffffff"></rect></mask></defs></svg>