<svg xmlns="http://www.w3.org/2000/svg" version="1.1" xmlns:xlink="http://www.w3.org/1999/xlink" xmlns:svgjs="http://svgjs.com/svgjs" width="1440" height="560" preserveAspectRatio="none" viewBox="0 0 1440 560"><g mask="url(&quot;#SvgjsMask1115&quot;)" fill="none"><path d="M552.246,494.078C571.047,493.201,588.674,484.714,598.334,468.561C608.259,451.966,609.36,431.304,599.861,414.462C590.2,397.334,571.898,386.14,552.246,386.849C533.636,387.52,520.127,401.92,510.231,417.695C499.434,434.906,488.259,455.44,498.051,473.242C508.049,491.418,531.525,495.045,552.246,494.078" fill="rgba(221, 61, 131, 1)" class="triangle-float3"></path><path d="M116.337,181.781C147.757,179.98,175.538,161.721,190.293,133.922C204.169,107.779,201.359,76.289,185.642,51.21C170.886,27.665,144.054,17.886,116.337,15.912C83.55,13.577,46.528,13.127,27.528,39.95C6.176,70.094,6.473,112.026,26.077,143.335C44.678,173.042,81.344,183.787,116.337,181.781" fill="rgba(221, 61, 131, 1)" class="triangle-float3"></path><path d="M1269.35,393.867C1311.199,394.365,1340.429,357.066,1360.583,320.386C1379.81,285.392,1390.958,243.606,1370.871,209.099C1350.879,174.756,1309.085,163.21,1269.35,163.658C1230.534,164.096,1190.848,177.568,1171.72,211.346C1152.814,244.731,1163.705,284.429,1181.801,318.259C1201.294,354.701,1228.025,393.375,1269.35,393.867" fill="rgba(221, 61, 131, 1)" class="triangle-float1"></path><path d="M854.078,297.436C897.492,297.455,943.755,289.712,967.265,253.215C992.461,214.101,989.013,163.678,966.454,122.986C943.152,80.953,902.054,46.205,854.078,49.044C809.297,51.694,784.327,95.805,762.594,135.048C741.821,172.558,720.013,215.76,741.059,253.118C762.347,290.905,810.707,297.417,854.078,297.436" fill="rgba(221, 61, 131, 1)" class="triangle-float3"></path><path d="M613.83,204.738C630.488,203.553,644.92,194.351,653.51,180.03C662.386,165.232,665.207,147.345,657.521,131.895C648.938,114.641,633.072,101.324,613.83,100.264C592.751,99.103,571.644,108.388,560.921,126.573C550.045,145.017,550.992,168.739,562.994,186.471C573.812,202.453,594.58,206.108,613.83,204.738" fill="rgba(221, 61, 131, 1)" class="triangle-float1"></path></g><defs><mask id="SvgjsMask1115"><rect width="1440" height="560" fill="#ffffff"></rect></mask><style>
            @keyframes float1 {
                0%{transform: translate(0, 0)}
                50%{transform: translate(-10px, 0)}
                100%{transform: translate(0, 0)}
            }

            .triangle-float1 {
                animation: float1 5s infinite;
            }

            @keyframes float2 {
                0%{transform: translate(0, 0)}
                50%{transform: translate(-5px, -5px)}
                100%{transform: translate(0, 0)}
            }

            .triangle-float2 {
                animation: float2 4s infinite;
            }

            @keyframes float3 {
                0%{transform: translate(0, 0)}
                50%{transform: translate(0, -10px)}
                100%{transform: translate(0, 0)}
            }

            .triangle-float3 {
                animation: float3 6s infinite;
            }
        </style></defs></svg>