<svg width="500" height="500" viewBox="0 0 500 500" fill="none" xmlns="http://www.w3.org/2000/svg">
<circle cx="250" cy="250" r="250" fill="white"/>
<path d="M388.416 194L380.333 223.867H394.083L403.875 194H388.416ZM227.083 201.881V219.387H214.5V232.163H227.291V259.624C227.291 273.727 230.958 280.904 247.208 280.904C250.625 280.904 255.958 280.323 259.166 278.83V266.219C257.25 267.464 253.666 268.086 250.958 268.086C244.083 268.086 242.416 264.353 242.416 258.296V231.997H259.166V219.221H242.416V201.881H227.166H227.083ZM421.416 217.644C409.208 217.644 397 223.742 397 237.099C397 260.039 429.833 250.249 429.833 262.652C429.833 267.547 424.083 269.621 419.708 269.621C413.208 269.621 409.208 266.634 405.208 262.279L395.083 271.695C401.208 278.498 409.417 280.945 418.75 280.945C431.167 280.945 445.083 275.843 445.083 261.532C445.083 238.219 412.25 246.889 412.25 236.145C412.25 231.582 417.25 229.757 421.25 229.757C426.583 229.757 430.416 231.997 433.25 235.979L443.167 226.936C438.167 220.133 429.625 217.644 421.416 217.644V217.644ZM75.0415 217.893C74.8332 217.891 74.6248 217.891 74.4165 217.893C55.8332 217.893 41.1665 230.67 41.1665 249.502C41.1665 268.335 55.8748 280.904 74.2082 281.111C79.5415 281.111 89.8332 278.871 96.1248 272.649L86.0415 261.864C84.6378 263.65 82.8409 265.091 80.7892 266.076C78.7376 267.062 76.486 267.565 74.2082 267.547C62.9582 267.547 56.2915 258.919 56.2915 249.502C56.2058 247.131 56.6076 244.767 57.4723 242.555C58.3371 240.344 59.6464 238.332 61.3202 236.642C62.9939 234.953 64.9967 233.621 67.2057 232.73C69.4148 231.838 71.7835 231.405 74.1665 231.458C78.3748 231.458 82.2082 233.905 85.8332 237.473L96.4998 227.102C93.7237 224.216 90.3942 221.914 86.7083 220.332C83.0224 218.751 79.0552 217.921 75.0415 217.893V217.893ZM131.291 217.893C121.5 217.893 112.166 220.714 105.291 227.434L113.333 235.316C117.789 231.32 123.586 229.13 129.583 229.176C137.75 229.176 143.458 233.117 143.458 240.459V242.119H139.708C124.375 242.119 101.292 243.487 101.292 263.067C101.292 274.889 112.125 281.111 123.416 281.111C131.625 281.111 138.708 278.083 142.917 271.321H143.333V279.618H157.083V244.981C157.208 236.353 157.208 217.893 131.25 217.893H131.291ZM201.291 217.893C193.5 217.893 186.625 222.041 183.375 229.01H183.167V219.387H167.75V279.618H183V247.428C183 244.027 185.083 232.204 199.375 232.204C201.909 232.293 204.426 232.668 206.875 233.324V218.806C205.07 218.225 203.188 217.917 201.291 217.893ZM298.125 217.893C279.791 217.893 264.916 230.504 264.916 249.502C264.916 268.335 279.625 281.111 298.125 281.111C303.062 281.244 307.962 280.225 312.433 278.137C316.904 276.048 320.822 272.947 323.875 269.081L313.041 260.993C311.147 263.562 308.658 265.639 305.786 267.047C302.913 268.455 299.742 269.153 296.541 269.081C292.488 269.247 288.526 267.852 285.478 265.188C282.429 262.524 280.527 258.793 280.166 254.77H326.75V250.622C326.75 229.757 315.083 217.893 298.125 217.893V217.893ZM368.917 217.893C360.875 217.893 354.041 222.041 350.791 229.01H350.625V219.387H335.333V279.618H350.625V247.428C350.625 244.027 352.708 232.204 367.041 232.204C369.541 232.204 372 232.744 374.458 233.324V218.806C372.68 218.234 370.827 217.927 368.958 217.893H368.917V217.893ZM452.916 220.133C452.271 220.133 451.631 220.26 451.035 220.506C450.438 220.752 449.896 221.112 449.44 221.567C448.983 222.022 448.621 222.561 448.374 223.155C448.127 223.749 448 224.385 448 225.028C448 225.671 448.127 226.307 448.374 226.901C448.621 227.495 448.983 228.035 449.44 228.489C449.896 228.944 450.438 229.304 451.035 229.55C451.631 229.796 452.271 229.923 452.916 229.923C453.562 229.923 454.202 229.796 454.798 229.55C455.395 229.304 455.937 228.944 456.393 228.489C456.85 228.035 457.212 227.495 457.459 226.901C457.706 226.307 457.833 225.671 457.833 225.028C457.833 224.385 457.706 223.749 457.459 223.155C457.212 222.561 456.85 222.022 456.393 221.567C455.937 221.112 455.395 220.752 454.798 220.506C454.202 220.26 453.562 220.133 452.916 220.133V220.133ZM452.916 221.087C455 221.087 456.916 222.747 456.916 225.028C456.916 227.31 455.208 229.01 452.916 229.01C452.387 229.028 451.859 228.937 451.365 228.743C450.872 228.549 450.424 228.256 450.049 227.883C449.674 227.509 449.38 227.063 449.186 226.572C448.991 226.081 448.899 225.556 448.916 225.028C448.916 222.788 450.583 221.087 452.916 221.087ZM451 222.041V227.434H452.166V225.236H452.916L454.25 227.476H455.375L453.875 225.236C454.625 225.236 455.208 224.655 455.208 223.742C455.208 222.581 454.625 222.041 453.292 222.041H451ZM452.166 223.161H452.916C453.5 223.161 454.25 223.161 454.25 223.908C454.25 224.655 453.5 224.655 452.916 224.655H452.166V223.161V223.161ZM296 229.176C305.583 229.176 311.416 234.652 311.416 243.487H280.166C281.291 234.818 286.833 229.176 296 229.176ZM139.5 252.489H142.75V255.807C142.75 264.311 137.792 269.579 127.333 269.579C122.333 269.579 116.583 267.09 116.583 261.698C116.583 252.987 131.167 252.489 139.5 252.489Z" fill="#00A9E0"/>
</svg>
