<svg width="500" height="500" viewBox="0 0 500 500" fill="none" xmlns="http://www.w3.org/2000/svg">
<g opacity="0.9">
<path opacity="0.9" d="M419.843 77.3599C429.122 117.847 475.452 353.995 304.505 396.538C304.505 396.538 241.724 241.581 415.047 74.6816C416.572 73.2178 419.246 74.7127 419.843 77.3599Z" fill="#FF8DC4"/>
<path opacity="0.45" d="M411.367 112.132C409.684 123.795 407.797 135.427 405.799 147.044C403.802 158.661 401.695 170.262 399.462 181.832C395.011 204.972 390.041 228.034 384.474 250.94C381.659 262.385 378.702 273.784 375.526 285.136C372.318 296.472 368.905 307.762 365.225 318.943C361.482 330.108 357.456 341.179 352.942 352.048C348.413 362.902 340.377 372.588 334.401 382.71C334.071 383.255 337.342 384.968 337.892 385.295C338.443 385.622 339.15 385.435 339.48 384.89C345.472 374.612 350.426 363.805 354.924 352.874C359.406 341.911 363.416 330.793 367.096 319.565C370.745 308.322 374.11 297.002 377.271 285.634C380.385 274.251 383.31 262.806 386.063 251.329C391.535 228.376 396.395 205.267 400.735 182.096C402.921 170.511 404.966 158.894 406.916 147.262C408.85 135.63 410.69 123.982 412.326 112.288C412.357 112.023 412.169 111.774 411.901 111.743C411.65 111.68 411.398 111.867 411.367 112.132Z" fill="white"/>
</g>
<path d="M469.287 204.006C469.319 201.67 466.693 200.767 465.765 202.792C456.691 222.381 431.559 272.803 403.582 295.149C358.038 331.525 314.192 400.96 329.746 447.831C329.746 447.831 466.221 458.56 469.287 204.006Z" fill="#FF8DC4"/>
<path opacity="0.43" d="M459.223 232.83C459.066 233.312 458.845 233.92 458.657 234.465L458.028 236.162L456.738 239.541L454.112 246.253C452.335 250.722 450.51 255.144 448.655 259.567C444.943 268.396 441.122 277.163 437.143 285.805C429.154 303.09 420.787 320.126 411.666 336.554C407.074 344.745 402.45 352.905 397.559 360.831C392.652 368.741 387.588 376.527 382.288 384.049C371.72 399.138 360.177 413.277 347.36 425.703C347.187 425.875 347.155 426.171 347.297 426.389C347.438 426.591 347.69 426.638 347.863 426.482C354.531 420.611 360.822 414.118 366.861 407.344C372.853 400.492 378.498 393.22 383.971 385.793C394.775 370.766 404.652 354.804 413.742 338.236C418.302 329.967 422.627 321.512 426.842 312.978C431.057 304.445 435.114 295.802 438.967 287.02C442.82 278.253 446.563 269.408 450.101 260.439C451.863 255.954 453.577 251.438 455.26 246.907C456.093 244.633 456.927 242.36 457.729 240.071L458.908 236.629L459.49 234.901C459.679 234.309 459.868 233.779 460.041 233.079C460.103 232.83 459.993 232.549 459.773 232.471C459.569 232.394 459.349 232.518 459.27 232.752L459.223 232.83Z" fill="white"/>
<g opacity="0.9">
<path opacity="0.9" d="M60.3502 115.48C48.7282 150.564 -10.4665 357.452 175.641 447.334C175.641 447.334 250.028 321.061 65.7129 114.375C64.0931 112.568 61.105 113.191 60.3502 115.48Z" fill="#FF8DC4"/>
<path opacity="0.45" d="M65.477 156.029C67.9303 167.584 70.6195 179.06 73.4189 190.537C76.2182 201.998 79.1591 213.427 82.2257 224.826C88.3591 247.623 95.0114 270.28 102.371 292.735C109.747 315.174 117.768 337.427 127.031 359.196C131.623 370.096 136.608 380.841 142.018 391.383C147.428 401.91 153.278 412.265 159.946 422.122C160.34 422.698 161.142 422.854 161.723 422.465C162.305 422.076 162.463 421.281 162.069 420.705C155.433 411.004 149.567 400.758 144.125 390.324C138.7 379.876 133.667 369.209 129.044 358.355C119.718 336.71 111.571 314.551 104.101 292.19C96.647 269.813 89.8846 247.218 83.6254 224.468C80.4958 213.1 77.5078 201.686 74.6455 190.256C71.799 178.811 69.0469 167.35 66.5306 155.827C66.4677 155.531 66.1847 155.36 65.8859 155.422C65.6028 155.453 65.4141 155.733 65.477 156.029Z" fill="white"/>
</g>
<path d="M327.937 227.818H200.804C196.118 227.818 192.28 224.018 192.28 219.378V79.8843C192.28 75.2439 196.118 71.4443 200.804 71.4443H327.937C332.624 71.4443 336.461 75.2439 336.461 79.8843V219.378C336.461 224.018 332.624 227.818 327.937 227.818Z" fill="url(#paint0_linear)"/>
<path d="M311.959 158.475H216.106C215.477 158.475 214.974 157.977 214.974 157.354V33.1212C214.974 32.4983 215.477 32 216.106 32H311.959C312.588 32 313.092 32.4983 313.092 33.1212V157.354C313.092 157.977 312.588 158.475 311.959 158.475Z" fill="#91B3FA"/>
<path d="M305.024 164.082H222.522C220.399 164.082 218.669 162.369 218.669 160.266V41.4059C218.669 39.3037 220.399 37.5908 222.522 37.5908H305.024C307.147 37.5908 308.877 39.3037 308.877 41.4059V160.251C308.877 162.369 307.147 164.082 305.024 164.082Z" fill="#BDD0FB"/>
<g opacity="0.5">
<path opacity="0.5" d="M278.666 50.4382H225.29C225.054 50.4382 224.85 50.2357 224.85 50.0022V47.6352C224.85 47.4017 225.054 47.1992 225.29 47.1992H278.666C278.902 47.1992 279.106 47.4017 279.106 47.6352V50.0022C279.106 50.2513 278.902 50.4382 278.666 50.4382Z" fill="white"/>
<path opacity="0.5" d="M279.044 59.1433H225.668C225.432 59.1433 225.227 58.9408 225.227 58.7072V56.3403C225.227 56.1067 225.432 55.9043 225.668 55.9043H279.044C279.279 55.9043 279.484 56.1067 279.484 56.3403V58.7072C279.484 58.9564 279.279 59.1433 279.044 59.1433Z" fill="white"/>
<path opacity="0.5" d="M278.854 68.3308H225.478C225.242 68.3308 225.038 68.1283 225.038 67.8947V65.5278C225.038 65.2942 225.242 65.0918 225.478 65.0918H278.854C279.09 65.0918 279.294 65.2942 279.294 65.5278V67.8947C279.294 68.1439 279.09 68.3308 278.854 68.3308Z" fill="white"/>
<path opacity="0.5" d="M279.751 125.417H226.375C226.139 125.417 225.935 125.214 225.935 124.981V122.629C225.935 122.396 226.139 122.193 226.375 122.193H279.751C279.987 122.193 280.191 122.396 280.191 122.629V124.996C280.191 125.23 280.003 125.417 279.751 125.417Z" fill="white"/>
<path opacity="0.5" d="M279.751 136.878H226.375C226.139 136.878 225.935 136.675 225.935 136.442V134.075C225.935 133.841 226.139 133.639 226.375 133.639H279.751C279.987 133.639 280.191 133.841 280.191 134.075V136.442C280.191 136.675 280.003 136.878 279.751 136.878Z" fill="white"/>
<path opacity="0.5" d="M279.232 77.0349H225.856C225.62 77.0349 225.416 76.8324 225.416 76.5988V74.2319C225.416 73.9983 225.62 73.7959 225.856 73.7959H279.232C279.468 73.7959 279.673 73.9983 279.673 74.2319V76.5988C279.673 76.848 279.468 77.0349 279.232 77.0349Z" fill="white"/>
<path opacity="0.5" d="M300.888 86.861H225.274C225.038 86.861 224.834 86.6586 224.834 86.425V84.0581C224.834 83.8245 225.038 83.6221 225.274 83.6221H300.888C301.123 83.6221 301.328 83.8245 301.328 84.0581V86.425C301.344 86.6742 301.139 86.861 300.888 86.861Z" fill="white"/>
<path opacity="0.5" d="M279.044 95.9401H225.668C225.432 95.9401 225.227 95.7377 225.227 95.5041V93.1372C225.227 92.9036 225.432 92.7012 225.668 92.7012H279.044C279.279 92.7012 279.484 92.9036 279.484 93.1372V95.5041C279.484 95.7533 279.279 95.9401 279.044 95.9401Z" fill="white"/>
<path opacity="0.5" d="M278.854 106.388H225.478C225.242 106.388 225.038 106.186 225.038 105.952V103.585C225.038 103.352 225.242 103.149 225.478 103.149H278.854C279.09 103.149 279.294 103.352 279.294 103.585V105.952C279.294 106.202 279.09 106.388 278.854 106.388Z" fill="white"/>
<path opacity="0.5" d="M302.02 96.361H282.645C282.409 96.361 282.205 96.1586 282.205 95.925V93.5581C282.205 93.3245 282.409 93.1221 282.645 93.1221H302.02C302.256 93.1221 302.46 93.3245 302.46 93.5581V95.925C302.46 96.1586 302.272 96.361 302.02 96.361Z" fill="white"/>
<path opacity="0.5" d="M249.65 115.327H226.375C226.139 115.327 225.935 115.124 225.935 114.891V112.524C225.935 112.29 226.139 112.088 226.375 112.088H249.65C249.886 112.088 250.091 112.29 250.091 112.524V114.891C250.091 115.14 249.886 115.327 249.65 115.327Z" fill="white"/>
</g>
<path d="M377.633 162.229C378.828 211.109 382.713 379.737 380.857 439.502C380.653 445.84 375.636 450.917 369.377 451.119C338.411 452.147 224.866 454.747 174.21 452.598C163.658 452.147 155.276 443.504 155.055 432.838C154.002 381.528 151.674 237.207 157.194 171.089C157.855 163.163 164.004 156.856 171.836 156.062C205.569 152.652 319.587 144.305 363.354 147.186C371.248 147.7 377.445 154.24 377.633 162.229Z" fill="url(#paint1_linear)"/>
<path d="M357.676 183.78V225.217C357.676 233.159 352.581 239.605 346.306 239.605H189.858C183.583 239.605 178.488 233.159 178.488 225.217V183.78C178.488 175.838 183.583 169.392 189.858 169.392H346.306C352.597 169.392 357.676 175.838 357.676 183.78Z" fill="#91B3FA"/>
<path opacity="0.2" d="M186.807 182.456C188.223 180.665 190.126 179.653 192.107 179.638L338.521 178.672C342.437 178.641 345.693 182.44 345.976 187.377L348.445 228.502C348.649 231.866 344.23 234.638 338.663 234.653L194.718 234.918C189.151 234.933 184.574 232.177 184.59 228.814V189.183C184.606 186.676 185.392 184.247 186.807 182.456Z" fill="white"/>
<path d="M189.843 401.428C189.843 408.513 195.646 414.259 202.801 414.259H218.575C225.731 414.259 231.534 408.513 231.534 401.428C231.534 394.343 225.731 388.597 218.575 388.597H202.801C195.646 388.597 189.843 394.343 189.843 401.428Z" fill="url(#paint2_linear)"/>
<path d="M303.373 401.428C303.373 408.513 309.176 414.259 316.331 414.259H332.105C339.261 414.259 345.064 408.513 345.064 401.428C345.064 394.343 339.261 388.597 332.105 388.597H316.331C309.176 388.597 303.373 394.343 303.373 401.428Z" fill="#7D97F4"/>
<path d="M247.024 401.428C247.024 408.513 252.828 414.259 259.983 414.259H275.757C282.912 414.259 288.715 408.513 288.715 401.428C288.715 394.343 282.912 388.597 275.757 388.597H259.983C252.828 388.597 247.024 394.343 247.024 401.428Z" fill="url(#paint3_linear)"/>
<path d="M336.807 295.197H329.542C324.383 295.197 320.184 291.024 320.184 285.932V284.328C320.184 279.22 324.399 275.062 329.542 275.062H336.807C341.966 275.062 346.165 279.236 346.165 284.328V285.932C346.18 291.024 341.966 295.197 336.807 295.197Z" fill="#7D97F4"/>
<path d="M336.807 329.517H329.542C324.383 329.517 320.184 325.344 320.184 320.252V318.648C320.184 313.541 324.399 309.383 329.542 309.383H336.807C341.966 309.383 346.165 313.556 346.165 318.648V320.252C346.18 325.344 341.966 329.517 336.807 329.517Z" fill="#7D97F4"/>
<path d="M336.807 363.853H329.542C324.383 363.853 320.184 359.68 320.184 354.588V352.984C320.184 347.876 324.399 343.719 329.542 343.719H336.807C341.966 343.719 346.165 347.892 346.165 352.984V354.588C346.18 359.68 341.966 363.853 336.807 363.853Z" fill="#7D97F4"/>
<path d="M294.613 295.197H287.347C282.189 295.197 277.99 291.024 277.99 285.932V284.328C277.99 279.22 282.204 275.062 287.347 275.062H294.613C299.771 275.062 303.97 279.236 303.97 284.328V285.932C303.97 291.024 299.755 295.197 294.613 295.197Z" fill="#7D97F4"/>
<path d="M294.613 329.517H287.347C282.189 329.517 277.99 325.344 277.99 320.252V318.648C277.99 313.541 282.204 309.383 287.347 309.383H294.613C299.771 309.383 303.97 313.556 303.97 318.648V320.252C303.97 325.344 299.755 329.517 294.613 329.517Z" fill="#7D97F4"/>
<path d="M294.236 363.853H286.97C281.812 363.853 277.613 359.68 277.613 354.588V352.984C277.613 347.876 281.827 343.719 286.97 343.719H294.236C299.394 343.719 303.593 347.892 303.593 352.984V354.588C303.593 359.68 299.378 363.853 294.236 363.853Z" fill="#7D97F4"/>
<path d="M252.025 295.197H244.76C239.601 295.197 235.402 291.024 235.402 285.932V284.328C235.402 279.22 239.617 275.062 244.76 275.062H252.025C257.184 275.062 261.383 279.236 261.383 284.328V285.932C261.398 291.024 257.184 295.197 252.025 295.197Z" fill="#7D97F4"/>
<path d="M252.025 329.517H244.76C239.601 329.517 235.402 325.344 235.402 320.252V318.648C235.402 313.541 239.617 309.383 244.76 309.383H252.025C257.184 309.383 261.383 313.556 261.383 318.648V320.252C261.398 325.344 257.184 329.517 252.025 329.517Z" fill="#7D97F4"/>
<path d="M252.025 363.853H244.76C239.601 363.853 235.402 359.68 235.402 354.588V352.984C235.402 347.876 239.617 343.719 244.76 343.719H252.025C257.184 343.719 261.383 347.892 261.383 352.984V354.588C261.398 359.68 257.184 363.853 252.025 363.853Z" fill="#7D97F4"/>
<path d="M205.616 295.197H198.351C193.192 295.197 188.993 291.024 188.993 285.932V284.328C188.993 279.22 193.208 275.062 198.351 275.062H205.616C210.775 275.062 214.974 279.236 214.974 284.328V285.932C214.989 291.024 210.775 295.197 205.616 295.197Z" fill="#7D97F4"/>
<path d="M205.616 329.517H198.351C193.192 329.517 188.993 325.344 188.993 320.252V318.648C188.993 313.541 193.208 309.383 198.351 309.383H205.616C210.775 309.383 214.974 313.556 214.974 318.648V320.252C214.989 325.344 210.775 329.517 205.616 329.517Z" fill="#7D97F4"/>
<path d="M205.616 363.853H198.351C193.192 363.853 188.993 359.68 188.993 354.588V352.984C188.993 347.876 193.208 343.719 198.351 343.719H205.616C210.775 343.719 214.974 347.892 214.974 352.984V354.588C214.989 359.68 210.775 363.853 205.616 363.853Z" fill="#7D97F4"/>
<path d="M208.966 265.345H188.333C186.241 265.345 184.511 263.648 184.511 261.561V260.907C184.511 258.836 186.226 257.123 188.333 257.123H208.966C211.058 257.123 212.788 258.82 212.788 260.907V261.561C212.788 263.648 211.074 265.345 208.966 265.345Z" fill="#7D97F4"/>
<path d="M256.067 265.345H235.434C233.342 265.345 231.613 263.648 231.613 261.561V260.907C231.613 258.836 233.327 257.123 235.434 257.123H256.067C258.159 257.123 259.889 258.82 259.889 260.907V261.561C259.889 263.648 258.175 265.345 256.067 265.345Z" fill="#7D97F4"/>
<path d="M299.409 265.345H278.776C276.685 265.345 274.955 263.648 274.955 261.561V260.907C274.955 258.836 276.669 257.123 278.776 257.123H299.409C301.501 257.123 303.231 258.82 303.231 260.907V261.561C303.215 263.648 301.501 265.345 299.409 265.345Z" fill="#7D97F4"/>
<path d="M346.51 265.345H325.877C323.786 265.345 322.056 263.648 322.056 261.561V260.907C322.056 258.836 323.77 257.123 325.877 257.123H346.51C348.602 257.123 350.332 258.82 350.332 260.907V261.561C350.316 263.648 348.602 265.345 346.51 265.345Z" fill="#7D97F4"/>
<path d="M48.3193 111.556C57.2306 111.556 64.4547 104.403 64.4547 95.5793C64.4547 86.7556 57.2306 79.6025 48.3193 79.6025C39.4079 79.6025 32.1838 86.7556 32.1838 95.5793C32.1838 104.403 39.4079 111.556 48.3193 111.556Z" fill="url(#paint4_linear)"/>
<path d="M48.3195 111.027C56.9355 111.027 63.9202 104.111 63.9202 95.5792C63.9202 87.0479 56.9355 80.1318 48.3195 80.1318C39.7034 80.1318 32.7188 87.0479 32.7188 95.5792C32.7188 104.111 39.7034 111.027 48.3195 111.027Z" fill="url(#paint5_linear)"/>
<path d="M35.4549 89.7563C35.3605 89.7563 35.2661 89.7407 35.1875 89.694C34.8887 89.5383 34.7629 89.1801 34.9202 88.8842C37.4836 83.8389 42.6262 80.709 48.3192 80.709C49.2313 80.709 50.1434 80.7868 51.0241 80.9426C51.3544 81.0049 51.5746 81.3163 51.5117 81.6433C51.4488 81.9703 51.1342 82.1883 50.804 82.126C49.9862 81.9859 49.1527 81.908 48.3192 81.908C43.0822 81.908 38.3643 84.7888 36.0053 89.4137C35.8952 89.6317 35.675 89.7563 35.4549 89.7563Z" fill="white"/>
<path opacity="0.78" d="M57.9589 105.151C63.106 100.043 63.106 91.7617 57.9589 86.6539C52.8118 81.546 44.4667 81.5461 39.3196 86.6539C34.1725 91.7617 34.1725 100.043 39.3196 105.151C44.4667 110.259 52.8118 110.259 57.9589 105.151Z" fill="white"/>
<path d="M47.3599 105.624V104.207C45.8659 104.145 44.3876 103.802 43.3339 103.335C42.9565 103.179 42.7677 102.759 42.8778 102.369L43.2395 101.046C43.3811 100.563 43.9 100.314 44.3718 100.501C45.4098 100.937 46.6994 101.279 48.099 101.279C49.5459 101.279 50.6153 100.797 50.6153 99.8C50.6153 98.8968 49.7818 98.3674 47.7845 97.8379C44.9223 97.0593 42.8778 95.8292 42.8778 93.3376C42.8778 91.0797 44.5448 89.3668 47.4228 88.9152V87.4982C47.4228 87.0466 47.8002 86.6729 48.2563 86.6729H49.1055C49.5616 86.6729 49.939 87.0466 49.939 87.4982V88.7751C51.323 88.8373 52.3295 89.0709 53.1315 89.3357C53.5404 89.4758 53.7606 89.9118 53.6505 90.3323L53.3203 91.5624C53.1944 92.0296 52.6755 92.2943 52.2194 92.123C51.4803 91.8427 50.4423 91.5624 49.0898 91.5624C47.3756 91.5624 46.8881 92.2632 46.8881 92.8861C46.8881 93.6647 47.9103 94.1941 50.1435 94.8637C53.3203 95.8136 54.6413 97.1216 54.6413 99.4574C54.6413 101.606 53.0215 103.553 49.8919 104.036V105.624C49.8919 106.075 49.5144 106.449 49.0584 106.449H48.2091C47.7373 106.449 47.3599 106.091 47.3599 105.624Z" fill="url(#paint6_linear)"/>
<path d="M94.2407 104.44C109.753 104.44 122.328 91.9887 122.328 76.6288C122.328 61.269 109.753 48.8174 94.2407 48.8174C78.7283 48.8174 66.1531 61.269 66.1531 76.6288C66.1531 91.9887 78.7283 104.44 94.2407 104.44Z" fill="url(#paint7_linear)"/>
<path d="M94.2406 103.522C109.24 103.522 121.4 91.4815 121.4 76.629C121.4 61.7766 109.24 49.7363 94.2406 49.7363C79.2406 49.7363 67.0808 61.7766 67.0808 76.629C67.0808 91.4815 79.2406 103.522 94.2406 103.522Z" fill="url(#paint8_linear)"/>
<path d="M71.8621 66.0548C71.7677 66.0548 71.6734 66.0393 71.5947 65.9925C71.2959 65.8368 71.1701 65.4787 71.3274 65.1828C75.7308 56.556 84.5062 51.1992 94.2567 51.1992C95.8136 51.1992 97.3705 51.3394 98.8803 51.6041C99.2106 51.6664 99.4307 51.9778 99.3678 52.3048C99.3049 52.6318 98.9904 52.8498 98.6601 52.7876C97.2133 52.5228 95.735 52.3983 94.241 52.3983C84.9466 52.3983 76.58 57.5059 72.3968 65.7123C72.2867 65.9303 72.0822 66.0548 71.8621 66.0548Z" fill="white"/>
<path opacity="0.78" d="M111.025 93.313C119.988 84.4184 119.988 69.9976 111.025 61.103C102.062 52.2085 87.5299 52.2085 78.567 61.1031C69.604 69.9976 69.604 84.4184 78.567 93.313C87.5299 102.207 102.062 102.207 111.025 93.313Z" fill="white"/>
<path d="M92.5897 94.1316V91.6556C89.9791 91.5466 87.3999 90.9393 85.5757 90.1452C84.9151 89.8649 84.5849 89.133 84.7736 88.4478L85.4027 86.1432C85.6386 85.3023 86.5664 84.8663 87.3842 85.1933C89.2085 85.9407 91.4417 86.548 93.8636 86.548C96.3798 86.548 98.2513 85.7072 98.2513 83.9787C98.2513 82.4215 96.8044 81.4872 93.3131 80.5684C88.3278 79.2137 84.7579 77.0647 84.7579 72.7357C84.7579 68.8116 87.6516 65.8218 92.6683 65.0276V62.5517C92.6683 61.7575 93.3131 61.1035 94.1309 61.1035H95.5935C96.3955 61.1035 97.056 61.742 97.056 62.5517V64.7785C99.4622 64.8719 101.224 65.2768 102.623 65.7595C103.331 66.0087 103.724 66.7717 103.535 67.488L102.953 69.6214C102.733 70.4467 101.837 70.8983 101.035 70.5868C99.7453 70.1041 97.9367 69.6058 95.5778 69.6058C92.6054 69.6058 91.7405 70.8204 91.7405 71.926C91.7405 73.2808 93.5333 74.1995 97.402 75.383C102.938 77.0336 105.234 79.3071 105.234 83.3869C105.234 87.1398 102.419 90.5033 96.9774 91.3442V94.1316C96.9774 94.9257 96.3326 95.5798 95.5148 95.5798H94.0523C93.2345 95.5798 92.5897 94.9257 92.5897 94.1316Z" fill="url(#paint9_linear)"/>
<path d="M113.616 167.365C129.58 167.365 142.522 154.551 142.522 138.744C142.522 122.937 129.58 110.123 113.616 110.123C97.6521 110.123 84.7107 122.937 84.7107 138.744C84.7107 154.551 97.6521 167.365 113.616 167.365Z" fill="url(#paint10_linear)"/>
<path d="M113.616 166.416C129.05 166.416 141.562 154.027 141.562 138.745C141.562 123.462 129.05 111.073 113.616 111.073C98.182 111.073 85.6702 123.462 85.6702 138.745C85.6702 154.027 98.182 166.416 113.616 166.416Z" fill="url(#paint11_linear)"/>
<path d="M90.5767 127.86C90.4823 127.86 90.388 127.845 90.3093 127.798C90.0105 127.642 89.8847 127.284 90.042 126.988C94.5555 118.128 103.598 112.615 113.616 112.615C115.22 112.615 116.824 112.755 118.381 113.036C118.711 113.098 118.932 113.409 118.869 113.736C118.806 114.063 118.491 114.281 118.161 114.219C116.667 113.954 115.142 113.814 113.616 113.814C104.054 113.814 95.4362 119.078 91.1114 127.533C91.017 127.736 90.7968 127.86 90.5767 127.86Z" fill="white"/>
<path opacity="0.78" d="M130.898 155.93C140.125 146.773 140.125 131.928 130.898 122.772C121.671 113.615 106.712 113.615 97.4853 122.772C88.2586 131.928 88.2586 146.773 97.4853 155.93C106.712 165.086 121.671 165.086 130.898 155.93Z" fill="white"/>
<path d="M111.902 156.762V154.208C109.212 154.099 106.57 153.476 104.683 152.651C104.007 152.355 103.661 151.608 103.865 150.907L104.526 148.54C104.762 147.668 105.721 147.216 106.555 147.575C108.426 148.353 110.738 148.96 113.223 148.96C115.802 148.96 117.736 148.088 117.736 146.313C117.736 144.709 116.242 143.759 112.656 142.794C107.53 141.408 103.85 139.197 103.85 134.728C103.85 130.695 106.822 127.611 111.996 126.786V124.232C111.996 123.407 112.672 122.753 113.49 122.753H115C115.833 122.753 116.494 123.423 116.494 124.232V126.521C118.979 126.615 120.787 127.035 122.218 127.534C122.957 127.783 123.351 128.577 123.146 129.324L122.548 131.52C122.313 132.361 121.4 132.828 120.583 132.517C119.262 132.018 117.39 131.504 114.968 131.504C111.902 131.504 111.021 132.766 111.021 133.887C111.021 135.273 112.861 136.223 116.84 137.437C122.533 139.135 124.892 141.47 124.892 145.675C124.892 149.537 121.998 153.009 116.399 153.866V156.715C116.399 157.541 115.723 158.195 114.905 158.195H113.396C112.578 158.241 111.902 157.572 111.902 156.762Z" fill="url(#paint12_linear)"/>
<path d="M150.699 120.744C162.398 120.744 171.883 111.353 171.883 99.7684C171.883 88.184 162.398 78.793 150.699 78.793C139 78.793 129.515 88.184 129.515 99.7684C129.515 111.353 139 120.744 150.699 120.744Z" fill="url(#paint13_linear)"/>
<path d="M150.699 120.044C162.008 120.044 171.175 110.967 171.175 99.7698C171.175 88.5724 162.008 79.4951 150.699 79.4951C139.391 79.4951 130.223 88.5724 130.223 99.7698C130.223 110.967 139.391 120.044 150.699 120.044Z" fill="url(#paint14_linear)"/>
<path d="M133.809 91.9364C133.714 91.9364 133.62 91.9208 133.541 91.8741C133.242 91.7184 133.117 91.3603 133.274 91.0644C136.608 84.5086 143.292 80.4443 150.699 80.4443C151.878 80.4443 153.058 80.5533 154.222 80.7558C154.552 80.8181 154.772 81.1295 154.709 81.4565C154.646 81.7835 154.332 82.0015 154.002 81.9392C152.916 81.7368 151.816 81.6434 150.699 81.6434C143.748 81.6434 137.489 85.4585 134.359 91.6094C134.249 91.8274 134.045 91.9364 133.809 91.9364Z" fill="white"/>
<path opacity="0.78" d="M155.119 116.891C164.434 114.713 170.202 105.47 168.003 96.2471C165.803 87.0237 156.469 81.3123 147.154 83.4902C137.839 85.6681 132.071 94.9106 134.27 104.134C136.47 113.357 145.804 119.069 155.119 116.891Z" fill="white"/>
<path d="M149.441 112.958V111.089C147.475 111.012 145.525 110.56 144.157 109.953C143.669 109.735 143.418 109.19 143.559 108.676L144.031 106.932C144.204 106.293 144.912 105.966 145.525 106.215C146.893 106.792 148.592 107.228 150.416 107.228C152.303 107.228 153.719 106.589 153.719 105.297C153.719 104.129 152.633 103.428 149.991 102.727C146.233 101.715 143.543 100.096 143.543 96.8256C143.543 93.8669 145.729 91.609 149.504 91.0173V89.1486C149.504 88.5413 149.991 88.0586 150.605 88.0586H151.706C152.319 88.0586 152.806 88.5413 152.806 89.1486V90.8304C154.631 90.9083 155.952 91.2041 157.005 91.5778C157.54 91.7647 157.839 92.3409 157.682 92.8859L157.241 94.4898C157.068 95.1127 156.408 95.4553 155.794 95.2217C154.819 94.8635 153.467 94.4898 151.69 94.4898C149.441 94.4898 148.796 95.4085 148.796 96.2339C148.796 97.246 150.149 97.9468 153.058 98.8344C157.226 100.08 158.956 101.793 158.956 104.876C158.956 107.71 156.832 110.249 152.728 110.887V112.974C152.728 113.581 152.24 114.064 151.627 114.064H150.526C149.928 114.048 149.441 113.565 149.441 112.958Z" fill="url(#paint15_linear)"/>
<path d="M126.669 306.422C126.669 306.422 125.977 336.071 94.4923 341.272L88.8464 335.744C88.8464 335.744 116.116 326.572 123.209 307.388L121.699 297.219L122.769 290.492L126.669 306.422Z" fill="url(#paint16_linear)"/>
<path d="M230.763 318.896C201.401 338.595 175.673 339.513 145.462 326.666C143.512 325.841 142.207 323.957 142.144 321.855L142.112 320.64C142.002 316.918 145.635 314.193 149.221 315.33C175.217 323.536 194.592 327.632 224.913 309.771C228.247 307.809 232.54 309.833 233.09 313.633C233.421 315.688 232.509 317.744 230.763 318.896Z" fill="url(#paint17_linear)"/>
<path d="M226.061 333.378L241.143 308.261C241.599 307.498 241.064 306.517 240.167 306.486L211.797 305.271C210.743 305.224 210.035 306.33 210.507 307.249C217.631 315.564 221.956 324.284 223.985 333.316C224.409 334.141 225.573 334.172 226.061 333.378Z" fill="url(#paint18_linear)"/>
<path d="M252.355 198.992L253.267 276.711L253.409 288.749C253.472 290.321 252.214 291.645 250.625 291.707L94.6966 297.157C93.1083 297.22 91.7715 295.974 91.7086 294.401L91.111 282.38L87.258 205.719C87.1951 204.146 88.9564 201.016 92.3848 201.125L244.634 191.891C246.615 191.767 248.581 192.467 250.028 193.806C251.49 195.146 252.324 197.014 252.355 198.992Z" fill="url(#paint19_linear)"/>
<path d="M249.509 286.444C249.556 287.908 248.361 289.154 246.851 289.2L98.3293 294.386C96.8196 294.433 95.5457 293.28 95.4828 291.816L91.2996 209.067C91.2524 207.604 92.9194 204.676 96.1905 204.785L241.221 196.065C243.108 195.956 244.979 196.594 246.363 197.84C247.747 199.086 248.549 200.845 248.565 202.683L249.509 286.444Z" fill="url(#paint20_linear)"/>
<path d="M230.149 290.649C229.882 290.649 229.662 290.447 229.662 290.182C229.646 289.917 229.866 289.684 230.134 289.668L246.757 289.092C248.754 289.03 250.641 287.005 250.578 285.012L248.785 234.652C248.77 234.388 248.99 234.154 249.257 234.138C249.525 234.123 249.76 234.341 249.776 234.606L251.569 284.965C251.663 287.488 249.336 289.964 246.804 290.057L230.181 290.633C230.165 290.649 230.165 290.649 230.149 290.649Z" fill="#BDD0FB"/>
<path d="M92.5264 240.616C92.259 240.616 92.0388 240.414 92.0388 240.149L90.9694 209.971C90.9223 208.429 91.457 206.856 92.4477 205.657C93.5014 204.38 94.9325 203.648 96.4737 203.602L109.684 203.135C109.936 203.119 110.187 203.337 110.203 203.602C110.219 203.866 109.999 204.1 109.731 204.116L96.5209 204.583C95.2628 204.629 94.099 205.237 93.2341 206.28C92.3848 207.308 91.9288 208.631 91.9759 209.939L93.0453 240.118C93.0611 240.383 92.8409 240.616 92.5735 240.632C92.5264 240.616 92.5264 240.616 92.5264 240.616Z" fill="#BDD0FB"/>
<path d="M129.987 236.443C129.924 234.87 128.587 233.625 126.999 233.687L107.734 234.356C106.145 234.419 104.887 235.742 104.95 237.315L105.469 251.813C105.532 253.385 106.869 254.631 108.457 254.569L127.722 253.899C129.311 253.837 130.569 252.513 130.506 250.941L129.987 236.443Z" fill="url(#paint21_linear)"/>
<path opacity="0.8" d="M114.087 248.341C113.348 248.341 112.751 247.765 112.719 247.033L112.546 242.253C112.515 241.505 113.112 240.867 113.867 240.851L119.356 240.664C119.733 240.649 120.063 240.773 120.331 241.023C120.598 241.272 120.755 241.599 120.771 241.972L120.944 246.753C120.96 247.111 120.834 247.454 120.582 247.734C120.331 247.999 120.001 248.154 119.623 248.17L114.134 248.357C114.119 248.341 114.103 248.341 114.087 248.341ZM119.403 241.63L113.899 241.817C113.694 241.817 113.521 242.004 113.537 242.206L113.71 246.987C113.71 247.08 113.757 247.173 113.836 247.251C113.914 247.314 114.009 247.345 114.103 247.345L119.592 247.158C119.686 247.158 119.78 247.111 119.859 247.033C119.922 246.955 119.969 246.862 119.953 246.769L119.78 241.988C119.78 241.895 119.733 241.786 119.655 241.723C119.592 241.661 119.513 241.63 119.403 241.63Z" fill="white"/>
<path d="M105.17 244.089C104.903 244.089 104.683 243.887 104.683 243.622C104.667 243.357 104.887 243.124 105.155 243.108L113.065 242.828C113.317 242.812 113.568 243.03 113.584 243.295C113.6 243.56 113.38 243.793 113.112 243.809L105.202 244.089C105.186 244.089 105.186 244.089 105.17 244.089Z" fill="white"/>
<path d="M105.249 246.036C104.982 246.036 104.762 245.833 104.762 245.568C104.746 245.304 104.966 245.07 105.233 245.055L113.144 244.774C113.395 244.759 113.647 244.977 113.663 245.241C113.678 245.506 113.458 245.74 113.191 245.755L105.281 246.036C105.249 246.036 105.249 246.036 105.249 246.036Z" fill="white"/>
<path d="M121.636 243.514C121.369 243.514 121.149 243.312 121.149 243.047C121.133 242.782 121.353 242.549 121.621 242.533L130.176 242.237C130.427 242.222 130.679 242.44 130.695 242.704C130.71 242.969 130.49 243.203 130.223 243.218L121.668 243.514C121.652 243.514 121.652 243.514 121.636 243.514Z" fill="white"/>
<path d="M121.715 245.461C121.448 245.461 121.227 245.258 121.227 244.993C121.212 244.729 121.432 244.495 121.699 244.479L130.254 244.184C130.506 244.184 130.758 244.386 130.773 244.651C130.789 244.915 130.569 245.149 130.302 245.165L121.746 245.461C121.715 245.461 121.715 245.461 121.715 245.461Z" fill="white"/>
<path d="M114.811 241.817C114.591 241.817 114.402 241.677 114.339 241.459L112.389 234.42C112.31 234.156 112.468 233.891 112.735 233.813C113.002 233.735 113.27 233.891 113.348 234.156L115.298 241.194C115.377 241.459 115.22 241.724 114.952 241.801C114.889 241.817 114.858 241.817 114.811 241.817Z" fill="white"/>
<path d="M119.403 241.661C119.371 241.661 119.34 241.661 119.309 241.645C119.041 241.583 118.868 241.334 118.931 241.069L120.441 233.906C120.504 233.641 120.755 233.47 121.023 233.532C121.29 233.595 121.463 233.844 121.4 234.109L119.89 241.272C119.828 241.505 119.623 241.661 119.403 241.661Z" fill="white"/>
<path d="M113.584 255.146C113.553 255.146 113.521 255.146 113.49 255.13C113.222 255.084 113.049 254.819 113.097 254.554L114.543 247.391C114.591 247.126 114.858 246.955 115.125 247.002C115.393 247.049 115.566 247.313 115.519 247.578L114.072 254.741C114.024 254.975 113.82 255.146 113.584 255.146Z" fill="white"/>
<path d="M121.636 254.865C121.416 254.865 121.227 254.725 121.164 254.507L119.151 247.468C119.073 247.203 119.23 246.939 119.497 246.861C119.765 246.783 120.032 246.939 120.111 247.203L122.124 254.242C122.202 254.507 122.045 254.771 121.778 254.849C121.715 254.849 121.668 254.865 121.636 254.865Z" fill="white"/>
<path opacity="0.47" d="M129.216 215.203C129.279 217.072 127.801 218.645 125.914 218.723L104.447 219.47C102.56 219.532 100.972 218.069 100.893 216.2L100.877 215.811C100.814 213.942 102.293 212.369 104.18 212.291L125.646 211.544C127.534 211.482 129.122 212.945 129.201 214.814L129.216 215.203Z" fill="white"/>
<g opacity="0.47">
<path opacity="0.47" d="M133.022 266.155C133.085 267.946 131.67 269.441 129.877 269.503L106.114 270.329C104.305 270.391 102.796 268.989 102.733 267.214V267.167C102.67 265.377 104.085 263.882 105.878 263.819L129.641 262.994C131.449 262.932 132.959 264.333 133.022 266.109V266.155Z" fill="white"/>
<path opacity="0.47" d="M167.259 264.956C167.322 266.747 165.906 268.242 164.113 268.304L140.351 269.129C138.542 269.192 137.032 267.79 136.969 266.015V265.968C136.906 264.177 138.322 262.683 140.115 262.62L163.877 261.795C165.686 261.733 167.196 263.134 167.259 264.909V264.956Z" fill="white"/>
<path opacity="0.47" d="M201.511 263.758C201.574 265.549 200.159 267.044 198.366 267.106L174.603 267.931C172.795 267.993 171.285 266.592 171.222 264.817V264.77C171.159 262.979 172.574 261.484 174.367 261.422L198.13 260.597C199.939 260.534 201.448 261.936 201.511 263.711V263.758Z" fill="white"/>
<path opacity="0.47" d="M236.424 262.543C236.487 264.334 235.072 265.829 233.279 265.891L209.516 266.716C207.707 266.779 206.198 265.377 206.135 263.602V263.555C206.072 261.764 207.487 260.269 209.28 260.207L233.043 259.382C234.852 259.32 236.361 260.721 236.424 262.496V262.543Z" fill="white"/>
</g>
<g opacity="0.47">
<path opacity="0.47" d="M155.92 279.734C155.967 281.151 154.851 282.35 153.419 282.397L109.212 283.938C107.781 283.985 106.57 282.879 106.523 281.462V281.385C106.476 279.968 107.592 278.768 109.023 278.722L153.231 277.18C154.662 277.133 155.873 278.239 155.92 279.656V279.734Z" fill="white"/>
<path opacity="0.47" d="M232.933 275.731C232.98 277.148 231.864 278.347 230.433 278.394L211.262 279.063C209.831 279.11 208.62 278.004 208.573 276.587V276.51C208.526 275.093 209.642 273.894 211.073 273.847L230.244 273.177C231.675 273.13 232.886 274.236 232.933 275.653V275.731Z" fill="white"/>
</g>
<path d="M123.995 192.078C150.117 166.883 176.003 161.339 208.934 168.923C211.058 169.421 212.725 171.072 213.165 173.189L213.432 174.42C214.234 178.172 211.042 181.583 207.205 181.084C179.384 177.44 159.003 176.755 131.576 200.284C128.556 202.869 123.854 201.593 122.58 197.84C121.888 195.8 122.438 193.573 123.995 192.078Z" fill="url(#paint22_linear)"/>
<path d="M126.119 176.568L115.44 204.707C115.11 205.563 115.833 206.451 116.746 206.326L145.682 202.48C146.752 202.34 147.286 201.094 146.626 200.238C137.898 193.09 131.922 185.039 128.21 176.257C127.644 175.509 126.449 175.681 126.119 176.568Z" fill="url(#paint23_linear)"/>
<path d="M96.2223 408.014C96.2223 408.014 81.282 440.248 73.4502 453.609C73.4502 453.609 71.8933 462.018 73.4502 464.649L74.7712 465.225L68.575 465.038C68.575 465.038 68.0246 453.733 68.4492 453.11C68.8738 452.472 69.7387 452.519 69.7387 452.519C69.7387 452.519 72.3965 431.699 80.0868 427.245L87.5412 401.832L96.2223 408.014Z" fill="url(#paint24_linear)"/>
<path d="M77.429 466.814C77.4447 466.954 72.6009 466.892 69.9589 466.845C68.9838 466.83 68.166 466.145 67.9459 465.21L65.9643 454.871C65.7756 453.89 66.4047 452.94 67.3954 452.706L68.512 452.457C68.512 452.457 70.1004 454.606 69.5971 456.63C69.0939 458.655 68.6536 463.902 69.9117 464.51C71.1698 465.117 74.7869 465.226 74.7869 465.226C74.7869 465.226 77.3503 465.491 77.429 466.814Z" fill="url(#paint25_linear)"/>
<path d="M110.392 467C110.879 467.281 110.675 468.012 110.109 468.012C105.705 467.966 95.8446 467.826 94.9639 467.467C93.8316 467 95.3728 462.967 97.0083 461.612L105.988 464.509L110.392 467Z" fill="url(#paint26_linear)"/>
<path d="M113.175 405.958C113.175 405.958 103.519 452.191 100.799 461.223L107.262 465.24C107.262 465.24 104.022 464.695 101.632 464.524C99.2416 464.353 97.0242 461.628 97.0242 461.628L97.7948 460.413C97.7948 460.413 100.217 414.429 99.6191 409.197L113.175 405.958Z" fill="url(#paint27_linear)"/>
<path d="M137.143 298.107C137.143 298.107 138.479 322.166 116.352 334.452L121.683 346.474C121.683 346.474 141.703 334.483 140.964 301.767C140.948 300.832 141.279 299.914 141.908 299.213L146.17 294.323C147.789 292.455 148.403 289.932 147.789 287.549L147.223 285.338C147.035 284.591 146.185 284.233 145.509 284.622L145.069 284.871C143.653 285.681 142.537 286.927 141.861 288.406L139.769 293.031C138.983 294.759 137.19 295.803 135.287 295.647L133.997 295.538L137.143 298.107Z" fill="url(#paint28_linear)"/>
<path d="M117.123 332.646C113.427 333.658 100.893 336.928 93.061 336.788L97.8734 363.634L97.4959 368.01L113.16 367.948C113.16 367.948 117.563 357.81 121.054 352.75C122.061 351.286 121.306 349.542 120.74 347.875L121.526 347.362C122.328 346.832 122.674 345.851 122.375 344.948L118.554 333.394C118.334 332.817 117.72 332.49 117.123 332.646Z" fill="url(#paint29_linear)"/>
<path d="M114.402 365.658L114.088 368.306C114.088 368.306 118.507 381.433 111.87 412.094C111.87 412.094 97.4803 416.127 85.6697 406.472C85.6697 406.472 89.0037 377.54 89.9158 376.185C94.4451 369.473 97.4803 368.01 97.4803 368.01L97.6219 365.113C97.6219 365.129 110.266 367.387 114.402 365.658Z" fill="url(#paint30_linear)"/>
<path d="M108.269 334.811C108.316 334.733 104.998 324.876 104.998 324.876L100.232 325.296L98.3767 336.493C98.3767 336.493 105.847 337.988 108.269 334.811Z" fill="url(#paint31_linear)"/>
<path d="M101.38 309.304C101.695 309.506 111.555 313.539 109.448 323.676C109.322 324.268 108.913 324.782 108.347 325.031C106.9 325.67 103.787 326.76 100.059 326.386C94.901 325.872 91.5041 316.934 91.6456 314.349C91.7872 311.748 98.235 307.357 101.38 309.304Z" fill="url(#paint32_linear)"/>
<path d="M98.3769 305.364C98.6285 305.395 104.07 307.279 101.381 311.172C98.6757 315.081 97.6692 317.37 98.943 319.083C100.107 320.64 102.686 319.752 102.45 323.007C102.403 323.661 102.686 324.284 103.236 324.658C105.658 326.277 111.587 331.291 105.721 338.423C105.249 338.999 105.139 339.809 105.517 340.463C107.231 343.515 110.848 352.453 97.7793 357.405C84.8678 362.31 80.2127 353.948 78.9074 350.616C78.6243 349.9 77.9009 349.448 77.1303 349.495C75.7149 349.557 73.7019 349.324 73.7963 347.455C73.8592 346.318 74.5669 345.29 75.4161 344.481C76.2496 343.671 76.0924 342.254 75.0701 341.678C74.2995 341.242 73.6233 340.572 73.3245 339.513C72.5382 336.648 74.1108 328.068 82.4144 326.604C83.1064 326.479 83.8298 325.841 83.9399 325.156C83.9399 325.14 83.9399 325.14 83.9399 325.125C84.05 324.455 83.8298 323.77 83.2794 323.381C81.9584 322.415 80.2442 320.484 81.6281 317.37C82.8548 314.614 85.198 313.679 86.9437 313.383C87.9659 313.212 88.6422 312.247 88.422 311.235C87.8401 308.463 88.3591 304.056 98.3769 305.364Z" fill="url(#paint33_linear)"/>
<path d="M340.125 370.89C340.11 370.89 340.094 370.89 340.078 370.89C339.339 370.859 338.757 370.252 338.789 369.52C338.82 368.695 339.685 349.121 348.854 341.646C351.779 339.264 355.223 338.345 359.107 338.937C366.829 340.12 372.365 345.866 375.101 355.552C377.114 362.669 376.925 369.318 376.925 369.598C376.91 370.33 376.265 370.89 375.542 370.875C374.802 370.859 374.221 370.236 374.236 369.505C374.236 369.255 374.818 344.013 358.683 341.537C355.553 341.055 352.895 341.755 350.552 343.671C342.311 350.398 341.478 369.411 341.462 369.598C341.431 370.33 340.833 370.89 340.125 370.89Z" fill="url(#paint34_linear)"/>
<path d="M408.504 453.641L395.074 363.464L344.607 362.639L328.346 458.655H404.132C406.822 458.655 408.898 456.288 408.504 453.641Z" fill="url(#paint35_linear)"/>
<path d="M334.81 363.464L344.607 362.639L328.346 458.655H318.611C316.646 458.655 315.167 456.864 315.56 454.949L334.81 363.464Z" fill="url(#paint36_linear)"/>
<path d="M350.961 370.688C350.945 370.688 350.93 370.688 350.914 370.688C350.175 370.657 349.593 370.05 349.624 369.318C349.656 368.493 350.521 348.919 359.689 341.444C362.614 339.062 366.059 338.143 369.943 338.735C377.665 339.918 383.2 345.664 385.937 355.35C387.95 362.466 387.761 369.116 387.761 369.396C387.745 370.128 387.116 370.719 386.377 370.673C385.638 370.657 385.056 370.034 385.072 369.302C385.072 369.053 385.654 343.811 369.518 341.335C366.389 340.853 363.731 341.553 361.388 343.469C353.147 350.18 352.314 369.209 352.298 369.396C352.266 370.128 351.684 370.688 350.961 370.688Z" fill="url(#paint37_linear)"/>
<defs>
<linearGradient id="paint0_linear" x1="286.934" y1="2.62774" x2="265.463" y2="145.287" gradientUnits="userSpaceOnUse">
<stop stop-color="#09005D"/>
<stop offset="1" stop-color="#1A0F91"/>
</linearGradient>
<linearGradient id="paint1_linear" x1="156.51" y1="470.35" x2="365.311" y2="157.509" gradientUnits="userSpaceOnUse">
<stop stop-color="#09005D"/>
<stop offset="1" stop-color="#1A0F91"/>
</linearGradient>
<linearGradient id="paint2_linear" x1="344.754" y1="529.222" x2="175.639" y2="364.794" gradientUnits="userSpaceOnUse">
<stop stop-color="#FF928E"/>
<stop offset="1" stop-color="#FE7062"/>
</linearGradient>
<linearGradient id="paint3_linear" x1="333.854" y1="464.326" x2="164.74" y2="299.898" gradientUnits="userSpaceOnUse">
<stop stop-color="#FF928E"/>
<stop offset="1" stop-color="#FE7062"/>
</linearGradient>
<linearGradient id="paint4_linear" x1="26.239" y1="120.949" x2="47.6363" y2="95.8658" gradientUnits="userSpaceOnUse">
<stop stop-color="#E1473D"/>
<stop offset="1" stop-color="#E9605A"/>
</linearGradient>
<linearGradient id="paint5_linear" x1="60.111" y1="77.9328" x2="-3.01034" y2="174.238" gradientUnits="userSpaceOnUse">
<stop stop-color="#FF928E"/>
<stop offset="1" stop-color="#FE7062"/>
</linearGradient>
<linearGradient id="paint6_linear" x1="58.2016" y1="80.6766" x2="24.6191" y2="137.616" gradientUnits="userSpaceOnUse">
<stop stop-color="#FF928E"/>
<stop offset="1" stop-color="#FE7062"/>
</linearGradient>
<linearGradient id="paint7_linear" x1="55.8109" y1="120.802" x2="93.0599" y2="77.1373" gradientUnits="userSpaceOnUse">
<stop stop-color="#E1473D"/>
<stop offset="1" stop-color="#E9605A"/>
</linearGradient>
<linearGradient id="paint8_linear" x1="114.776" y1="45.9195" x2="4.89257" y2="213.57" gradientUnits="userSpaceOnUse">
<stop stop-color="#FF928E"/>
<stop offset="1" stop-color="#FE7062"/>
</linearGradient>
<linearGradient id="paint9_linear" x1="111.453" y1="50.6942" x2="52.9915" y2="149.816" gradientUnits="userSpaceOnUse">
<stop stop-color="#FF928E"/>
<stop offset="1" stop-color="#FE7062"/>
</linearGradient>
<linearGradient id="paint10_linear" x1="74.0687" y1="184.202" x2="112.397" y2="139.272" gradientUnits="userSpaceOnUse">
<stop stop-color="#E1473D"/>
<stop offset="1" stop-color="#E9605A"/>
</linearGradient>
<linearGradient id="paint11_linear" x1="134.743" y1="107.149" x2="21.6746" y2="279.659" gradientUnits="userSpaceOnUse">
<stop stop-color="#FF928E"/>
<stop offset="1" stop-color="#FE7062"/>
</linearGradient>
<linearGradient id="paint12_linear" x1="131.323" y1="112.063" x2="71.1669" y2="214.058" gradientUnits="userSpaceOnUse">
<stop stop-color="#FF928E"/>
<stop offset="1" stop-color="#FE7062"/>
</linearGradient>
<linearGradient id="paint13_linear" x1="121.719" y1="133.068" x2="149.802" y2="100.148" gradientUnits="userSpaceOnUse">
<stop stop-color="#E1473D"/>
<stop offset="1" stop-color="#E9605A"/>
</linearGradient>
<linearGradient id="paint14_linear" x1="166.175" y1="76.6128" x2="83.3304" y2="203.01" gradientUnits="userSpaceOnUse">
<stop stop-color="#FF928E"/>
<stop offset="1" stop-color="#FE7062"/>
</linearGradient>
<linearGradient id="paint15_linear" x1="163.669" y1="80.2118" x2="119.593" y2="154.942" gradientUnits="userSpaceOnUse">
<stop stop-color="#FF928E"/>
<stop offset="1" stop-color="#FE7062"/>
</linearGradient>
<linearGradient id="paint16_linear" x1="121.262" y1="289.225" x2="103.861" y2="334.444" gradientUnits="userSpaceOnUse">
<stop stop-color="#FEBBBA"/>
<stop offset="1" stop-color="#FF928E"/>
</linearGradient>
<linearGradient id="paint17_linear" x1="275.581" y1="299.584" x2="-332.785" y2="448.548" gradientUnits="userSpaceOnUse">
<stop stop-color="#FF928E"/>
<stop offset="1" stop-color="#FE7062"/>
</linearGradient>
<linearGradient id="paint18_linear" x1="277.036" y1="305.523" x2="-331.33" y2="454.487" gradientUnits="userSpaceOnUse">
<stop stop-color="#FF928E"/>
<stop offset="1" stop-color="#FE7062"/>
</linearGradient>
<linearGradient id="paint19_linear" x1="284.292" y1="90.781" x2="173.606" y2="245.649" gradientUnits="userSpaceOnUse">
<stop stop-color="#4F52FF"/>
<stop offset="1" stop-color="#4042E2"/>
</linearGradient>
<linearGradient id="paint20_linear" x1="172.066" y1="245.627" x2="258.648" y2="139.734" gradientUnits="userSpaceOnUse">
<stop stop-color="#4F52FF"/>
<stop offset="1" stop-color="#4042E2"/>
</linearGradient>
<linearGradient id="paint21_linear" x1="134.799" y1="193.413" x2="90.5804" y2="327.385" gradientUnits="userSpaceOnUse">
<stop stop-color="#FF928E"/>
<stop offset="1" stop-color="#FE7062"/>
</linearGradient>
<linearGradient id="paint22_linear" x1="174.643" y1="172.066" x2="214.442" y2="89.0259" gradientUnits="userSpaceOnUse">
<stop stop-color="#FF928E"/>
<stop offset="1" stop-color="#FE7062"/>
</linearGradient>
<linearGradient id="paint23_linear" x1="150.457" y1="160.474" x2="190.256" y2="77.4344" gradientUnits="userSpaceOnUse">
<stop stop-color="#FF928E"/>
<stop offset="1" stop-color="#FE7062"/>
</linearGradient>
<linearGradient id="paint24_linear" x1="96.2301" y1="433.539" x2="68.3062" y2="433.539" gradientUnits="userSpaceOnUse">
<stop stop-color="#FEBBBA"/>
<stop offset="1" stop-color="#FF928E"/>
</linearGradient>
<linearGradient id="paint25_linear" x1="65.933" y1="459.686" x2="77.4258" y2="459.686" gradientUnits="userSpaceOnUse">
<stop stop-color="#4F52FF"/>
<stop offset="1" stop-color="#4042E2"/>
</linearGradient>
<linearGradient id="paint26_linear" x1="94.5775" y1="464.813" x2="110.665" y2="464.813" gradientUnits="userSpaceOnUse">
<stop stop-color="#4F52FF"/>
<stop offset="1" stop-color="#4042E2"/>
</linearGradient>
<linearGradient id="paint27_linear" x1="113.174" y1="435.594" x2="97.0039" y2="435.594" gradientUnits="userSpaceOnUse">
<stop stop-color="#FEBBBA"/>
<stop offset="1" stop-color="#FF928E"/>
</linearGradient>
<linearGradient id="paint28_linear" x1="148.008" y1="315.468" x2="116.352" y2="315.468" gradientUnits="userSpaceOnUse">
<stop stop-color="#FEBBBA"/>
<stop offset="1" stop-color="#FF928E"/>
</linearGradient>
<linearGradient id="paint29_linear" x1="162.552" y1="235.954" x2="104.133" y2="352.807" gradientUnits="userSpaceOnUse">
<stop stop-color="#FF928E"/>
<stop offset="1" stop-color="#FE7062"/>
</linearGradient>
<linearGradient id="paint30_linear" x1="85.6797" y1="389.03" x2="115.541" y2="389.03" gradientUnits="userSpaceOnUse">
<stop stop-color="#4F52FF"/>
<stop offset="1" stop-color="#4042E2"/>
</linearGradient>
<linearGradient id="paint31_linear" x1="108.272" y1="330.857" x2="98.3768" y2="330.857" gradientUnits="userSpaceOnUse">
<stop stop-color="#FEBBBA"/>
<stop offset="1" stop-color="#FF928E"/>
</linearGradient>
<linearGradient id="paint32_linear" x1="92.5453" y1="318.195" x2="20.5271" y2="323.141" gradientUnits="userSpaceOnUse">
<stop stop-color="#FEBBBA"/>
<stop offset="1" stop-color="#FF928E"/>
</linearGradient>
<linearGradient id="paint33_linear" x1="80.7072" y1="313.896" x2="105.661" y2="364.3" gradientUnits="userSpaceOnUse">
<stop stop-color="#09005D"/>
<stop offset="1" stop-color="#1A0F91"/>
</linearGradient>
<linearGradient id="paint34_linear" x1="376.918" y1="354.821" x2="338.781" y2="354.821" gradientUnits="userSpaceOnUse">
<stop stop-color="#2B3582"/>
<stop offset="1" stop-color="#150E42"/>
</linearGradient>
<linearGradient id="paint35_linear" x1="389.561" y1="389.107" x2="302.499" y2="525.882" gradientUnits="userSpaceOnUse">
<stop stop-color="#FF928E"/>
<stop offset="1" stop-color="#FE7062"/>
</linearGradient>
<linearGradient id="paint36_linear" x1="451.217" y1="259.324" x2="274.357" y2="488.101" gradientUnits="userSpaceOnUse">
<stop stop-color="#FF928E"/>
<stop offset="1" stop-color="#FE7062"/>
</linearGradient>
<linearGradient id="paint37_linear" x1="387.761" y1="354.614" x2="349.624" y2="354.614" gradientUnits="userSpaceOnUse">
<stop stop-color="#2B3582"/>
<stop offset="1" stop-color="#150E42"/>
</linearGradient>
</defs>
</svg>
