<svg width="500" height="500" viewBox="0 0 500 500" fill="none" xmlns="http://www.w3.org/2000/svg">
<path d="M258.423 48.0927L293 48L293.093 78.8384H258.516L258.423 48.0927Z" fill="#D3671E"/>
<path d="M248.042 48.1548L275.728 48.0312L275.821 78.8388H248.103L248.042 48.1548Z" fill="#F1A34F"/>
<path opacity="0.4" d="M275.727 48.0312L247.979 48.1548V57.9193L275.82 78.8388L275.727 48.0312Z" fill="#D86713"/>
<path d="M38.939 385.308L111.524 385.092L111.74 449.828H39.1244L38.939 385.308Z" fill="#D3671E"/>
<path d="M17.1548 385.433L75.2781 385.186L75.4326 449.86L17.3093 449.829L17.1548 385.433Z" fill="#F1A34F"/>
<path opacity="0.4" d="M75.2779 385.185L17 385.432L17.0309 405.888L75.4324 449.859L75.2779 385.185Z" fill="#D86713"/>
<path d="M305.228 398.019L251.832 398.184L251.978 445.523L305.374 445.358L305.228 398.019Z" fill="#D3671E"/>
<path d="M235.805 398.253L278.571 398.099L278.663 445.438L235.928 445.623L235.805 398.253Z" fill="#F1A34F"/>
<path opacity="0.4" d="M278.57 398.103L235.711 398.257L235.742 413.336L278.663 445.442L278.57 398.103Z" fill="#D86713"/>
<path d="M129.199 304.563L182.594 304.408L182.718 352.025L129.322 351.933L129.199 304.563Z" fill="#D3671E"/>
<path d="M113.162 304.657L155.928 304.503L156.02 352.027H113.285L113.162 304.657Z" fill="#F1A34F"/>
<path opacity="0.4" d="M155.927 304.503L113.285 304.657L113.1 319.706L156.02 351.842L155.927 304.503Z" fill="#D86713"/>
<path d="M232.497 274.932L285.892 274.777L286.047 352.028L232.651 352.182L232.497 274.932Z" fill="#D3671E"/>
<path d="M216.49 275.024L259.225 274.839L259.348 351.966H216.613L216.49 275.024Z" fill="#F1A34F"/>
<path opacity="0.4" d="M259.225 274.839L216.367 275.024L216.428 290.073L259.349 322.209L259.225 274.839Z" fill="#D86713"/>
<path d="M196.652 211.492L250.047 211.338L250.202 258.924H196.806L196.652 211.492Z" fill="#D3671E"/>
<path d="M180.645 211.585L223.38 211.431L223.503 258.955L180.768 258.924L180.645 211.585Z" fill="#F1A34F"/>
<path opacity="0.4" d="M223.381 211.433L180.522 211.587L180.553 226.636L223.505 258.957L223.381 211.433Z" fill="#D86713"/>
<path d="M235.94 372.945L152.85 373.201L153.077 446.898L236.168 446.642L235.94 372.945Z" fill="#D3671E"/>
<path d="M127.932 373.349L194.46 373.071L194.646 446.768L128.118 447.016L127.932 373.349Z" fill="#F1A34F"/>
<path opacity="0.4" d="M194.46 373.071L127.747 373.349L127.808 396.772L194.646 446.768L194.46 373.071Z" fill="#D86713"/>
<path d="M108.741 78.5312V449.828H309.283V78.5312H108.741ZM304.741 445.101H113.283V82.9191H304.741V445.101V445.101Z" fill="#699FF0"/>
<path d="M336.537 78.5283H309.283V449.98H336.537V78.5283Z" fill="#466AA5"/>
<path d="M307.213 165.854H110.842V175.989H307.213V165.854Z" fill="#699FF0"/>
<path d="M307.213 258.925H110.842V269.06H307.213V258.925Z" fill="#699FF0"/>
<path d="M307.213 352.027H110.842V362.163H307.213V352.027Z" fill="#699FF0"/>
<path d="M126.911 451.589C126.664 451.589 126.447 451.558 126.2 451.496C124.532 451.095 123.512 449.426 123.914 447.788L192.543 156.801C192.945 155.132 194.613 154.113 196.251 154.514C197.92 154.916 198.939 156.585 198.538 158.222L129.908 449.21C129.568 450.631 128.301 451.589 126.911 451.589Z" fill="#2E3552"/>
<path d="M65.1107 451.589C64.8635 451.589 64.6472 451.558 64.4 451.496C62.7313 451.095 61.7116 449.426 62.1133 447.788L130.743 156.801C131.144 155.132 132.813 154.113 134.451 154.514C136.119 154.916 137.139 156.585 136.737 158.222L68.108 449.21C67.7681 450.631 66.5012 451.589 65.1107 451.589Z" fill="#2E3552"/>
<path d="M157.224 317.479H95.5475C93.848 317.479 92.4575 316.088 92.4575 314.389C92.4575 312.689 93.848 311.299 95.5475 311.299H157.224C158.924 311.299 160.314 312.689 160.314 314.389C160.314 316.088 158.924 317.479 157.224 317.479Z" fill="#2E3552"/>
<path d="M146.718 365.066H85.7829C84.0834 365.066 82.6929 363.675 82.6929 361.976C82.6929 360.276 84.0834 358.886 85.7829 358.886H146.718C148.418 358.886 149.808 360.276 149.808 361.976C149.808 363.675 148.418 365.066 146.718 365.066Z" fill="#2E3552"/>
<path d="M169.584 269.894H104.539C102.839 269.894 101.449 268.503 101.449 266.804C101.449 265.104 102.839 263.714 104.539 263.714H169.584C171.283 263.714 172.674 265.104 172.674 266.804C172.674 268.503 171.283 269.894 169.584 269.894Z" fill="#2E3552"/>
<path d="M177.618 221.689H107.536C105.836 221.689 104.446 220.298 104.446 218.599C104.446 216.899 105.836 215.509 107.536 215.509H177.618C179.317 215.509 180.708 216.899 180.708 218.599C180.708 220.298 179.317 221.689 177.618 221.689Z" fill="#2E3552"/>
<path d="M135.285 412.962H74.7209C73.0214 412.962 71.6309 411.572 71.6309 409.872C71.6309 408.173 73.0214 406.782 74.7209 406.782H135.285C136.985 406.782 138.375 408.173 138.375 409.872C138.375 411.572 136.985 412.962 135.285 412.962Z" fill="#2E3552"/>
<path d="M189.979 174.102H119.897C118.198 174.102 116.807 172.711 116.807 171.012C116.807 169.312 118.198 167.922 119.897 167.922H189.979C191.678 167.922 193.069 169.312 193.069 171.012C193.069 172.711 191.678 174.102 189.979 174.102Z" fill="#2E3552"/>
<path d="M145.389 132.543C145.389 132.543 145.605 125.838 146.748 123.953C147.892 122.037 150.395 119.689 151.754 120.523C153.114 121.357 153.299 127.877 152.805 129.051C152.341 130.195 149.035 134.459 149.035 134.459L145.389 132.543Z" fill="#FFB27D"/>
<path d="M147.861 131.832C145.914 130.751 145.11 131.616 145.11 131.616C145.11 131.616 131.792 150.218 130.433 151.701C129.073 153.184 106.671 160.693 106.671 160.693C106.671 160.693 97.5859 163.319 96.8134 168.634C96.1336 173.238 98.5438 176.328 101.263 178.275C104.538 180.593 108.895 180.654 112.264 178.46C119.803 173.547 134.79 163.597 137.293 160.786C142.886 154.513 150.178 133.995 150.178 133.995C150.178 133.995 149.375 132.697 147.861 131.832Z" fill="#AA413E"/>
<path d="M199.95 100.975L146.555 101.14L146.701 148.479L200.096 148.314L199.95 100.975Z" fill="#D3671E"/>
<path d="M130.526 101.241L173.261 101.056L173.384 148.426L130.649 148.58L130.526 101.241Z" fill="#F1A34F"/>
<path opacity="0.4" d="M173.262 101.059L130.403 101.244L130.465 116.292L173.386 148.429L173.262 101.059Z" fill="#D86713"/>
<path d="M177.556 143.573C177.556 143.573 177.525 136.868 178.576 134.921C179.627 132.974 182.068 130.533 183.427 131.306C184.818 132.078 185.22 138.598 184.818 139.772C184.385 140.947 181.264 145.334 181.264 145.334L177.556 143.573Z" fill="#FFB27D"/>
<path d="M94.4965 359.195C93.0133 357.928 93.9094 350.759 93.9094 350.759C93.9094 350.759 101.604 344.61 102.654 349.307C103.705 354.004 109.947 356.136 113.531 356.723C115.91 357.094 116.683 358.391 116.961 359.195H94.4965Z" fill="#2C3A64"/>
<path d="M93.6618 351.1C100.769 352.212 103.395 350.513 103.395 350.513C103.303 343.498 106.3 330.366 109.236 312.197C113.129 288.249 117.61 257.565 120.978 240.292C122.893 230.373 124.191 223.976 124.191 223.976L118.382 223.853L89.3667 223.266C89.3667 223.266 91.5297 255.402 90.9426 271.254C90.7881 275.054 90.51 277.897 89.9847 279.195C85.0098 291.215 93.6618 351.1 93.6618 351.1Z" fill="#35488B"/>
<path d="M90.912 271.285C94.8673 278.67 105.466 300.887 109.143 312.753C113.037 288.805 117.61 257.565 120.978 240.292C120.823 233.772 120.02 228.055 118.382 223.853L89.367 223.266C89.3361 223.297 91.4991 255.402 90.912 271.285Z" fill="#2C3A64"/>
<path d="M118.939 359.195C117.456 357.928 118.352 350.759 118.352 350.759C118.352 350.759 126.046 344.61 127.097 349.307C128.147 354.004 134.389 356.136 137.973 356.723C140.353 357.094 141.125 358.391 141.403 359.195H118.939Z" fill="#2C3A64"/>
<path d="M136.798 223.297C136.798 223.297 125.396 328.79 127.652 350.081C127.652 350.081 125.211 351.996 118.011 351.564C118.011 351.564 103.735 297.179 107.752 280.957C109.452 274.066 102.036 225.831 102.036 225.831L136.798 223.297Z" fill="#35488B"/>
<path d="M108.711 147.837C108.711 147.837 123.203 155.068 130.403 151.761C130.403 151.761 127.375 147.837 124.007 146.23C124.068 144.932 124.13 143.789 124.13 142.739C124.192 139.309 124.037 137.362 124.037 137.362L117.796 132.82L113.562 129.729C113.809 131.645 113.84 133.407 113.748 135.013C113.161 143.387 108.711 147.837 108.711 147.837Z" fill="#FFB27D"/>
<path d="M113.716 135.044C113.716 135.044 117.084 141.78 124.161 142.738C124.222 139.308 124.068 137.362 124.068 137.362L117.826 132.819C115.045 133.87 113.716 135.044 113.716 135.044Z" fill="#ED975D"/>
<path d="M125.644 136.96C125.644 136.96 112.666 141.595 109.916 133.468C107.166 125.341 103.643 120.459 111.801 117.184C119.959 113.877 122.647 116.442 124.223 118.945C125.799 121.386 128.951 135.539 125.644 136.96Z" fill="#FFB27D"/>
<path d="M88.4093 223.296C90.4487 227.53 135.409 227.344 137.633 224.347C138.529 223.142 139.58 210.998 140.167 196.877C140.507 189.059 140.692 180.623 140.662 173.114C140.6 160.878 139.92 151.052 138.19 150.31C128.549 146.138 122.585 143.481 110.009 143.852C106.115 143.975 102.623 146.2 100.924 149.723C97.8956 155.996 93.6005 167.089 93.2915 180.19C92.7353 200.368 85.8445 217.951 88.4093 223.296Z" fill="#DD3D83"/>
<path d="M126.108 164.803C126.108 164.803 127.56 185.908 140.168 196.878C140.507 189.06 140.693 180.624 140.662 173.116C136.892 168.079 131.917 164.463 126.108 164.803Z" fill="#8D1E5E"/>
<path d="M119.897 144.315C119.897 144.315 133.74 144.407 138.066 148.424C141.187 151.329 161.952 165.481 163.219 165.265C164.486 165.049 176.568 140.978 176.568 140.978C176.568 140.978 182.903 141.503 183.984 144.253C183.984 144.253 178.206 174.999 165.32 181.951C165.32 181.951 132.474 177.1 122.771 166.316C117.796 160.754 119.897 144.315 119.897 144.315Z" fill="#DD3D83"/>
<path d="M125.088 112.58C125.088 112.58 124.315 120.336 121.998 122.438C119.68 124.539 120.298 127.474 120.02 127.876C119.773 128.309 117.362 127.042 116.93 127.752C115.941 129.39 117.486 130.595 118.444 130.997C119.402 131.399 115.972 138.042 113.469 138.289C109.112 138.722 102.407 126.702 101.851 123.179C101.109 118.575 103.705 111.406 111.182 111.746C122.925 112.333 125.304 109.768 125.088 112.58Z" fill="#2B478B"/>
<path d="M431.106 375.787L348.016 376.043L348.243 449.74L431.334 449.484L431.106 375.787Z" fill="#D3671E"/>
<path d="M323.097 376.191L389.625 375.913L389.81 449.61L323.282 449.888L323.097 376.191Z" fill="#F1A34F"/>
<path opacity="0.4" d="M389.625 375.913L322.912 376.191L322.973 399.614L389.811 449.61L389.625 375.913Z" fill="#D86713"/>
<path d="M481.854 402.224L428.458 402.389L428.605 449.728L482 449.563L481.854 402.224Z" fill="#D3671E"/>
<path d="M412.431 402.489L455.197 402.304L455.289 449.674L412.554 449.828L412.431 402.489Z" fill="#F1A34F"/>
<path opacity="0.4" d="M455.196 402.304L412.337 402.489L412.368 417.538L455.288 449.674L455.196 402.304Z" fill="#D86713"/>
</svg>
