<svg width="2135" height="796" viewBox="0 0 2135 796" fill="none" xmlns="http://www.w3.org/2000/svg">
<path d="M2117.9 579.3C2117 584.5 2116.1 589.6 2115.1 594.7C2114.9 595.8 2114.7 597 2114.4 598.1L2114.3 598.7C2113.7 601.8 2113 604.8 2112.4 607.8C2111.2 613.2 2109.9 618.6 2108.7 623.8C2108.5 624.8 2108.2 625.7 2108 626.7C2104.5 640.4 2100.8 653.3 2096.9 665.3C2096.3 667.3 2095.6 669.3 2095 671.2C2093.3 676.5 2091.5 681.6 2089.8 686.5C2088.5 690 2087.3 693.4 2086.1 696.7C2079.5 714.4 2073 729.1 2067.9 740.1C2063.1 750.4 2058.9 759.1 2056.8 763.4H1067.8V557.3C1143.2 563.1 1243.3 499.5 1316.3 538.6C1399 582.8 1614.5 693.5 1751.9 613.5C1870.8 544.1 2039.9 547.1 2117.9 579.3Z" fill="#BED2FA"/>
<path d="M2132.1 766.7H2.70001C1.20001 766.7 0 765.5 0 764V763.7C0 762.2 1.20001 761 2.70001 761H2132.2C2133.7 761 2134.9 762.2 2134.9 763.7V764C2134.8 765.5 2133.6 766.7 2132.1 766.7Z" fill="#010117"/>
<path d="M1952.3 761H1882.1C1878.3 757.8 1884.7 750.6 1891.4 750.1C1894.3 749.9 1897.9 750.5 1902.1 751.4C1903.1 738.6 1908.6 680.9 1929.4 683.2C1952.8 685.8 1929.4 708.6 1922.8 722.1C1917.9 732.1 1912.7 746.4 1910.4 753.2C1912.3 753.6 1914.3 754 1916.3 754.4C1919.4 744.9 1930.9 712.9 1945.6 714.7C1962.8 716.9 1955.9 729.7 1943.7 737.3C1934.7 742.9 1923.8 750.9 1918.5 754.7C1922.9 755.4 1927.5 755.9 1932.2 755.8C1944.2 755.6 1950 759.1 1952.3 761Z" fill="#6D89CF"/>
<path d="M211.1 758.101C207.8 752.901 197.9 739.501 184.7 741.301C170.3 743.201 200.6 752.701 209.9 758.201C207.8 758.201 206.1 758.101 204.8 757.601C198.6 755.401 188 759.601 184.6 761.101H243.6C243.2 759.701 242.1 757.401 239.4 755.701C238.4 755.101 236.5 755.001 234 755.201C237.5 751.101 239.9 737.801 230.2 741.201C223.1 743.701 223.1 751.801 223.8 756.501C222.3 756.701 220.7 757.001 219.2 757.201C216.3 742.201 205.9 698.301 184.8 697.101C163.4 695.901 202.9 742.601 216.1 757.601C214.3 757.801 212.6 758.001 211.1 758.101Z" fill="#6D89CF"/>
<path d="M478.8 313.199C451.3 313.199 426 322.899 406.1 338.999C380.1 360.199 363.5 392.499 363.5 428.499C363.5 492.199 478.8 633.699 478.8 633.699C478.8 633.699 531.2 569.399 565.2 507.999C581.8 478.299 594.1 449.299 594.1 428.499C594.1 364.899 542.5 313.199 478.8 313.199ZM478.8 481.199C449 481.199 424.9 457.199 424.9 427.399C424.9 420.099 426.4 413.199 429 406.799C437.1 387.199 456.3 373.499 478.8 373.499C508.6 373.499 532.7 397.599 532.7 427.399C532.7 453.199 514.7 474.599 490.5 479.899C486.9 480.699 482.8 481.199 478.8 481.199Z" fill="#FF8DC4"/>
<path d="M1940.4 482.199C1912.1 482.199 1889.2 505.099 1889.2 533.399C1889.2 561.699 1940.4 624.499 1940.4 624.499C1940.4 624.499 1991.6 561.699 1991.6 533.399C1991.6 505.099 1968.7 482.199 1940.4 482.199ZM1940.4 556.799C1927.2 556.799 1916.5 546.099 1916.5 532.899C1916.5 519.699 1927.2 508.999 1940.4 508.999C1953.6 508.999 1964.3 519.699 1964.3 532.899C1964.3 546.099 1953.6 556.799 1940.4 556.799Z" fill="#FF8DC4"/>
<path d="M244.9 540.301C229.4 540.301 216.9 552.801 216.9 568.301C216.9 583.801 244.9 618.201 244.9 618.201C244.9 618.201 272.9 583.801 272.9 568.301C272.9 552.901 260.3 540.301 244.9 540.301ZM244.9 581.201C237.7 581.201 231.8 575.301 231.8 568.101C231.8 560.901 237.7 555.001 244.9 555.001C252.1 555.001 258 560.901 258 568.101C258 575.301 252.1 581.201 244.9 581.201Z" fill="#8D1E5E"/>
<path d="M529.9 761C529.9 761 550 701 607.5 689.5C665 678 707.6 723 758.9 705.5C810.2 687.9 891 595 987.2 662.9C1083.4 730.8 1077.1 750.2 1137.7 734.3C1198.4 718.4 1212.2 761 1212.2 761H529.9Z" fill="#6D89CF"/>
<path d="M589 704.601C589 704.601 547 660.601 525.6 672.401C504.2 684.201 589 704.601 589 704.601Z" fill="#6D89CF"/>
<path d="M578.2 715.8C578.2 715.8 539.5 703.2 529.8 709.5C520.2 715.8 578.2 715.8 578.2 715.8Z" fill="#6D89CF"/>
<path d="M701.3 711.7C701.3 711.7 727.9 652.1 737.1 662.9C746.3 673.7 701.3 711.7 701.3 711.7Z" fill="#6D89CF"/>
<path d="M694.8 707.7C694.8 707.7 705.7 664 689.4 666.7C673.1 669.4 694.8 707.7 694.8 707.7Z" fill="#6D89CF"/>
<path d="M1926.4 458.8C1926.3 458.6 1925.1 454.5 1922.3 447C1921.9 445.9 1920.7 445.4 1919.7 445.8C1918.6 446.2 1918.1 447.4 1918.5 448.4C1921.2 455.8 1922.5 459.9 1922.5 460C1922.8 460.9 1923.6 461.4 1924.4 461.4C1924.6 461.4 1924.8 461.4 1925 461.3C1926.1 461 1926.7 459.9 1926.4 458.8ZM1918 435.5C1916.5 431.8 1915 428 1913.4 424.1C1913 423.1 1911.8 422.6 1910.7 423C1909.7 423.4 1909.2 424.6 1909.6 425.7C1911.2 429.5 1912.8 433.3 1914.2 437C1914.5 437.8 1915.3 438.3 1916.1 438.3C1916.3 438.3 1916.6 438.3 1916.8 438.2C1917.9 437.7 1918.4 436.6 1918 435.5ZM1908.5 412.8C1906.9 409.1 1905.2 405.4 1903.4 401.6C1902.9 400.6 1901.7 400.1 1900.7 400.6C1899.7 401.1 1899.2 402.3 1899.7 403.3C1901.4 407 1903.1 410.8 1904.7 414.4C1905 415.2 1905.8 415.6 1906.6 415.6C1906.9 415.6 1907.2 415.5 1907.4 415.4C1908.5 415.1 1908.9 413.9 1908.5 412.8ZM1898.2 390.6C1896.4 387 1894.6 383.3 1892.8 379.6C1892.3 378.6 1891.1 378.2 1890.1 378.7C1889.1 379.2 1888.7 380.4 1889.2 381.4C1891 385 1892.9 388.7 1894.6 392.3C1894.9 393 1895.7 393.4 1896.4 393.4C1896.7 393.4 1897 393.3 1897.3 393.2C1898.2 392.8 1898.6 391.6 1898.2 390.6ZM1887.1 368.7C1885.2 365.1 1883.3 361.5 1881.3 357.9C1880.8 356.9 1879.5 356.6 1878.5 357.1C1877.5 357.6 1877.1 358.9 1877.7 359.9C1879.6 363.5 1881.6 367.1 1883.5 370.6C1883.9 371.3 1884.6 371.7 1885.3 371.7C1885.6 371.7 1885.9 371.6 1886.2 371.5C1887.2 370.9 1887.6 369.7 1887.1 368.7ZM1875.3 347.2C1873.3 343.7 1871.2 340.1 1869.2 336.6C1868.6 335.6 1867.4 335.3 1866.4 335.9C1865.4 336.5 1865.1 337.7 1865.7 338.7C1867.8 342.2 1869.8 345.7 1871.8 349.3C1872.2 350 1872.9 350.3 1873.6 350.3C1873.9 350.3 1874.3 350.2 1874.6 350C1875.6 349.4 1875.9 348.2 1875.3 347.2ZM621.3 326.6C620.4 325.9 619.1 326.2 618.5 327.1C616.2 330.4 613.8 333.8 611.5 337.1C610.9 338 611.1 339.3 612 339.9C612.3 340.1 612.7 340.3 613.1 340.3C613.8 340.3 614.4 340 614.8 339.4C617.1 336.1 619.4 332.7 621.8 329.4C622.4 328.5 622.2 327.2 621.3 326.6ZM1862.9 326.1C1860.8 322.6 1858.6 319.1 1856.4 315.7C1855.8 314.7 1854.5 314.5 1853.6 315.1C1852.6 315.7 1852.4 317 1853 317.9C1855.1 321.3 1857.3 324.8 1859.4 328.2C1859.8 328.8 1860.4 329.2 1861.1 329.2C1861.5 329.2 1861.8 329.1 1862.2 328.9C1863.2 328.3 1863.5 327 1862.9 326.1ZM635.7 306.9C634.8 306.2 633.5 306.4 632.9 307.3C630.5 310.6 628 313.9 625.6 317.1C624.9 318 625.1 319.3 626 319.9C626.4 320.2 626.8 320.3 627.2 320.3C627.8 320.3 628.4 320 628.8 319.5C631.2 316.2 633.6 312.9 636 309.7C636.8 308.8 636.6 307.5 635.7 306.9ZM1849.8 305.4C1847.6 302 1845.3 298.6 1843 295.2C1842.4 294.3 1841.1 294 1840.2 294.7C1839.3 295.3 1839 296.6 1839.7 297.5C1842 300.8 1844.2 304.2 1846.5 307.6C1846.9 308.2 1847.5 308.5 1848.2 308.5C1848.6 308.5 1849 308.4 1849.3 308.2C1850.1 307.6 1850.4 306.3 1849.8 305.4ZM650.7 287.6C649.8 286.9 648.5 287 647.8 287.9C645.3 291.1 642.7 294.3 640.2 297.5C639.5 298.4 639.7 299.7 640.6 300.4C641 300.7 641.4 300.8 641.8 300.8C642.4 300.8 643 300.5 643.4 300C645.9 296.8 648.4 293.6 650.9 290.4C651.7 289.6 651.6 288.3 650.7 287.6ZM1836 285.1C1833.7 281.8 1831.3 278.4 1828.9 275.1C1828.2 274.2 1827 274 1826.1 274.7C1825.2 275.4 1825 276.6 1825.7 277.5C1828.1 280.8 1830.5 284.1 1832.8 287.4C1833.2 288 1833.8 288.3 1834.5 288.3C1834.9 288.3 1835.3 288.2 1835.7 287.9C1836.4 287.3 1836.7 286 1836 285.1ZM666.3 268.8C665.4 268.1 664.2 268.2 663.4 269C660.8 272.1 658.1 275.2 655.6 278.4C654.9 279.3 655 280.5 655.9 281.3C656.3 281.6 656.7 281.8 657.2 281.8C657.8 281.8 658.4 281.5 658.8 281.1C661.4 278 664 274.8 666.6 271.8C667.2 270.8 667.1 269.5 666.3 268.8ZM1821.6 265.3C1819.1 262.1 1816.6 258.8 1814.1 255.6C1813.4 254.7 1812.1 254.6 1811.3 255.2C1810.4 255.9 1810.3 257.2 1810.9 258.1C1813.4 261.3 1815.9 264.5 1818.3 267.8C1818.7 268.3 1819.3 268.6 1819.9 268.6C1820.3 268.6 1820.8 268.5 1821.1 268.2C1822.1 267.5 1822.3 266.2 1821.6 265.3ZM682.4 250.4C681.6 249.6 680.3 249.7 679.5 250.5C676.8 253.5 674 256.6 671.4 259.6C670.7 260.4 670.7 261.7 671.6 262.5C672 262.8 672.5 263 672.9 263C673.5 263 674 262.8 674.4 262.3C677.1 259.3 679.8 256.2 682.5 253.2C683.3 252.5 683.2 251.2 682.4 250.4ZM1806.5 246C1803.9 242.8 1801.3 239.6 1798.7 236.5C1798 235.6 1796.7 235.5 1795.8 236.2C1794.9 236.9 1794.8 238.2 1795.5 239.1C1798.1 242.2 1800.7 245.4 1803.2 248.5C1803.6 249 1804.2 249.3 1804.8 249.3C1805.2 249.3 1805.7 249.2 1806.1 248.8C1807.1 248.1 1807.3 246.9 1806.5 246ZM699.1 232.6C698.3 231.8 697 231.8 696.2 232.7C693.4 235.6 690.5 238.6 687.8 241.6C687 242.4 687.1 243.7 687.9 244.5C688.3 244.9 688.8 245.1 689.3 245.1C689.8 245.1 690.4 244.9 690.8 244.4C693.5 241.5 696.4 238.5 699.2 235.6C699.9 234.7 699.9 233.4 699.1 232.6ZM1790.8 227.2C1788.1 224.1 1785.4 221 1782.7 218C1782 217.2 1780.7 217.1 1779.8 217.8C1778.9 218.5 1778.9 219.8 1779.6 220.7C1782.3 223.7 1785 226.8 1787.6 229.8C1788 230.3 1788.6 230.5 1789.1 230.5C1789.6 230.5 1790 230.3 1790.4 230C1791.5 229.3 1791.6 228 1790.8 227.2ZM716.3 215.3C715.5 214.5 714.2 214.5 713.4 215.3C710.5 218.1 707.6 221 704.7 223.9C703.9 224.7 703.9 226 704.7 226.8C705.1 227.2 705.6 227.4 706.1 227.4C706.6 227.4 707.1 227.2 707.5 226.8C710.4 223.9 713.3 221 716.1 218.2C717.1 217.4 717.1 216.1 716.3 215.3ZM1774.5 208.9C1771.7 205.9 1768.9 202.9 1766.1 200C1765.3 199.2 1764 199.2 1763.2 199.9C1762.4 200.7 1762.4 202 1763.1 202.8C1765.9 205.7 1768.7 208.7 1771.5 211.7C1771.9 212.1 1772.4 212.4 1773 212.4C1773.5 212.4 1774 212.2 1774.4 211.9C1775.2 211.1 1775.3 209.8 1774.5 208.9ZM734.1 198.6C733.3 197.8 732 197.7 731.2 198.5C728.2 201.2 725.2 204 722.2 206.8C721.4 207.6 721.3 208.9 722.1 209.7C722.5 210.1 723 210.3 723.6 210.3C724.1 210.3 724.6 210.1 725 209.7C727.9 206.9 730.9 204.1 733.9 201.4C734.8 200.7 734.9 199.4 734.1 198.6ZM1757.5 191.3C1754.6 188.4 1751.7 185.5 1748.8 182.7C1748 181.9 1746.7 181.9 1745.9 182.7C1745.1 183.5 1745.1 184.8 1745.9 185.6C1748.8 188.4 1751.7 191.3 1754.6 194.2C1755 194.6 1755.5 194.8 1756 194.8C1756.5 194.8 1757 194.6 1757.4 194.2C1758.3 193.4 1758.3 192.1 1757.5 191.3ZM752.5 182.5C751.8 181.6 750.5 181.5 749.6 182.3C746.5 184.9 743.4 187.6 740.4 190.3C739.6 191 739.5 192.3 740.2 193.2C740.6 193.7 741.2 193.9 741.7 193.9C742.2 193.9 742.7 193.7 743.1 193.4C746.1 190.7 749.2 188 752.3 185.4C753.1 184.6 753.2 183.3 752.5 182.5ZM771.3 167C770.6 166.1 769.3 166 768.4 166.7C765.2 169.2 762 171.8 758.9 174.4C758 175.1 757.9 176.4 758.6 177.3C759 177.8 759.6 178 760.2 178C760.7 178 761.1 177.8 761.5 177.5C764.6 174.9 767.8 172.3 770.9 169.8C771.9 169.1 772 167.9 771.3 167ZM1740 174.2C1737 171.4 1734 168.6 1731 165.9C1730.2 165.2 1728.9 165.2 1728.1 166C1727.3 166.8 1727.4 168.1 1728.2 168.9C1731.2 171.6 1734.2 174.4 1737.2 177.1C1737.6 177.5 1738.1 177.6 1738.6 177.6C1739.1 177.6 1739.7 177.4 1740.1 177C1740.8 176.3 1740.8 175 1740 174.2ZM790.7 152.1C790 151.2 788.8 151 787.9 151.7C784.7 154.1 781.4 156.6 778.1 159.1C777.2 159.8 777 161.1 777.7 161.9C778.1 162.4 778.7 162.7 779.3 162.7C779.7 162.7 780.2 162.6 780.5 162.3C783.7 159.8 787 157.4 790.2 154.9C791.2 154.3 791.4 153 790.7 152.1ZM1721.8 157.8C1718.7 155.1 1715.6 152.5 1712.5 149.9C1711.6 149.2 1710.4 149.3 1709.6 150.2C1708.9 151.1 1709 152.3 1709.9 153.1C1713 155.7 1716.1 158.4 1719.2 161C1719.6 161.3 1720.1 161.5 1720.5 161.5C1721.1 161.5 1721.6 161.3 1722 160.8C1722.7 159.9 1722.6 158.6 1721.8 157.8ZM810.5 137.9C809.9 137 808.6 136.8 807.7 137.4C804.4 139.7 801 142.1 797.7 144.5C796.8 145.2 796.6 146.4 797.2 147.3C797.6 147.9 798.2 148.1 798.9 148.1C799.3 148.1 799.7 148 800.1 147.7C803.4 145.3 806.7 143 810 140.7C810.9 140.1 811.2 138.8 810.5 137.9ZM1703 142.1C1699.8 139.5 1696.6 137 1693.4 134.5C1692.5 133.8 1691.2 134 1690.5 134.9C1689.8 135.8 1690 137.1 1690.9 137.7C1694.1 140.2 1697.3 142.7 1700.5 145.2C1700.9 145.5 1701.3 145.6 1701.8 145.6C1702.4 145.6 1703 145.3 1703.4 144.8C1704 144.1 1703.9 142.8 1703 142.1ZM830.9 124.4C830.3 123.5 829 123.2 828.1 123.8C824.7 126 821.2 128.3 817.9 130.5C817 131.1 816.7 132.4 817.3 133.3C817.7 133.9 818.3 134.2 819 134.2C819.4 134.2 819.8 134.1 820.1 133.8C823.5 131.6 826.9 129.3 830.3 127.1C831.2 126.6 831.5 125.3 830.9 124.4ZM1683.6 127.1C1680.3 124.7 1677 122.2 1673.7 119.9C1672.8 119.2 1671.5 119.5 1670.9 120.4C1670.2 121.3 1670.5 122.6 1671.4 123.2C1674.7 125.5 1678 127.9 1681.2 130.4C1681.6 130.7 1682 130.8 1682.4 130.8C1683 130.8 1683.6 130.5 1684 130C1684.7 129.1 1684.5 127.8 1683.6 127.1ZM851.6 111.6C851 110.6 849.8 110.3 848.8 110.9C845.3 113 841.8 115.1 838.3 117.3C837.3 117.9 837 119.1 837.6 120.1C838 120.7 838.6 121.1 839.3 121.1C839.7 121.1 840 121 840.4 120.8C843.8 118.7 847.3 116.5 850.8 114.5C851.9 113.8 852.2 112.6 851.6 111.6ZM1663.7 112.9C1660.3 110.6 1656.9 108.3 1653.5 106.1C1652.6 105.5 1651.3 105.7 1650.7 106.7C1650.1 107.6 1650.3 108.9 1651.3 109.5C1654.7 111.7 1658.1 114 1661.4 116.3C1661.8 116.5 1662.2 116.7 1662.5 116.7C1663.2 116.7 1663.8 116.4 1664.2 115.8C1664.8 114.8 1664.6 113.5 1663.7 112.9ZM872.9 99.5C872.4 98.5 871.1 98.2 870.1 98.7C866.5 100.7 862.9 102.7 859.4 104.7C858.4 105.3 858.1 106.5 858.7 107.5C859.1 108.2 859.8 108.5 860.5 108.5C860.8 108.5 861.2 108.4 861.5 108.2C865 106.2 868.6 104.2 872.1 102.2C873 101.7 873.4 100.5 872.9 99.5ZM1643.2 99.5C1639.8 97.3 1636.3 95.2 1632.8 93.1C1631.8 92.5 1630.6 92.8 1630 93.8C1629.4 94.8 1629.7 96 1630.7 96.6C1634.2 98.7 1637.7 100.8 1641.1 103C1641.4 103.2 1641.8 103.3 1642.2 103.3C1642.9 103.3 1643.5 103 1643.9 102.4C1644.5 101.3 1644.2 100 1643.2 99.5ZM894.5 88.2C894 87.2 892.8 86.8 891.8 87.3C888.2 89.1 884.5 91 880.9 92.9C879.9 93.4 879.5 94.7 880.1 95.7C880.5 96.4 881.2 96.8 881.9 96.8C882.2 96.8 882.6 96.7 882.9 96.6C886.5 94.7 890.1 92.8 893.7 91C894.6 90.4 895 89.2 894.5 88.2ZM1622.3 86.8C1618.8 84.8 1615.2 82.7 1611.6 80.8C1610.6 80.3 1609.4 80.6 1608.8 81.6C1608.3 82.6 1608.6 83.8 1609.6 84.4C1613.1 86.3 1616.7 88.3 1620.2 90.4C1620.5 90.6 1620.9 90.7 1621.2 90.7C1621.9 90.7 1622.6 90.3 1623 89.7C1623.6 88.6 1623.2 87.4 1622.3 86.8ZM916.4 77.5C915.9 76.5 914.7 76 913.7 76.5C910 78.2 906.3 80 902.6 81.8C901.6 82.3 901.2 83.5 901.7 84.5C902 85.2 902.8 85.6 903.5 85.6C903.8 85.6 904.1 85.5 904.4 85.4C908 83.6 911.7 81.9 915.4 80.2C916.5 79.8 916.9 78.6 916.4 77.5ZM1600.8 75C1597.2 73.1 1593.5 71.2 1589.9 69.4C1588.9 68.9 1587.7 69.3 1587.2 70.3C1586.7 71.3 1587.1 72.5 1588.1 73C1591.7 74.8 1595.3 76.7 1598.9 78.6C1599.2 78.8 1599.5 78.8 1599.8 78.8C1600.5 78.8 1601.2 78.4 1601.6 77.7C1602.2 76.7 1601.8 75.5 1600.8 75ZM938.8 67.7C938.4 66.7 937.2 66.2 936.1 66.6C932.4 68.2 928.6 69.8 924.9 71.5C923.9 72 923.4 73.2 923.9 74.2C924.2 75 925 75.4 925.8 75.4C926.1 75.4 926.4 75.3 926.6 75.2C930.3 73.6 934.1 71.9 937.8 70.3C938.7 69.9 939.2 68.7 938.8 67.7ZM1578.9 64C1575.2 62.3 1571.5 60.5 1567.8 58.8C1566.8 58.3 1565.6 58.8 1565.1 59.8C1564.6 60.8 1565.1 62 1566.1 62.5C1569.8 64.2 1573.5 65.9 1577.1 67.6C1577.4 67.7 1577.7 67.8 1578 67.8C1578.8 67.8 1579.5 67.4 1579.8 66.6C1580.4 65.7 1579.9 64.5 1578.9 64ZM961.4 58.6C961 57.6 959.8 57 958.8 57.4C955 58.9 951.2 60.4 947.4 61.9C946.4 62.3 945.9 63.5 946.3 64.5C946.6 65.3 947.4 65.8 948.2 65.8C948.5 65.8 948.7 65.8 949 65.6C952.7 64.1 956.6 62.6 960.3 61.1C961.3 60.8 961.8 59.7 961.4 58.6ZM1556.6 53.9C1552.9 52.3 1549.1 50.7 1545.3 49.2C1544.3 48.8 1543.1 49.3 1542.6 50.3C1542.2 51.3 1542.7 52.5 1543.7 53C1547.4 54.5 1551.2 56.1 1554.9 57.7C1555.2 57.8 1555.4 57.9 1555.7 57.9C1556.5 57.9 1557.2 57.4 1557.6 56.7C1558.1 55.6 1557.7 54.4 1556.6 53.9ZM984.4 50.3C984 49.2 982.9 48.7 981.8 49C978 50.3 974.1 51.7 970.3 53.1C969.3 53.5 968.7 54.7 969.1 55.7C969.4 56.5 970.2 57 971 57C971.2 57 971.5 57 971.7 56.9C975.5 55.5 979.4 54.1 983.2 52.8C984.2 52.5 984.7 51.3 984.4 50.3ZM1007.6 42.7C1007.3 41.6 1006.1 41 1005.1 41.4C1001.2 42.6 997.3 43.9 993.4 45.1C992.3 45.5 991.8 46.6 992.1 47.7C992.4 48.6 993.2 49.1 994 49.1C994.2 49.1 994.4 49.1 994.6 49C998.4 47.7 1002.3 46.5 1006.2 45.3C1007.3 44.9 1007.9 43.8 1007.6 42.7ZM1533.9 44.7C1530.1 43.3 1526.3 41.8 1522.4 40.4C1521.3 40 1520.2 40.6 1519.8 41.6C1519.4 42.7 1520 43.8 1521 44.2C1524.8 45.6 1528.7 47 1532.4 48.5C1532.6 48.6 1532.9 48.6 1533.1 48.6C1533.9 48.6 1534.7 48.1 1535 47.3C1535.5 46.3 1535 45.1 1533.9 44.7ZM1031 35.9C1030.7 34.8 1029.6 34.2 1028.5 34.5C1024.6 35.6 1020.6 36.7 1016.7 37.9C1015.6 38.2 1015 39.3 1015.3 40.4C1015.6 41.3 1016.4 41.9 1017.3 41.9C1017.5 41.9 1017.7 41.9 1017.9 41.8C1021.8 40.7 1025.7 39.5 1029.6 38.5C1030.7 38.1 1031.3 36.9 1031 35.9ZM1510.9 36.4C1507.1 35.1 1503.1 33.8 1499.3 32.6C1498.2 32.3 1497.1 32.8 1496.7 33.9C1496.4 35 1497 36.1 1498 36.5C1501.8 37.7 1505.7 39 1509.6 40.3C1509.8 40.4 1510 40.4 1510.3 40.4C1511.1 40.4 1511.9 39.9 1512.2 39C1512.5 37.9 1512 36.7 1510.9 36.4ZM1054.6 29.8C1054.3 28.7 1053.2 28 1052.1 28.3C1048.1 29.3 1044.2 30.3 1040.2 31.3C1039.1 31.6 1038.5 32.7 1038.7 33.8C1038.9 34.7 1039.8 35.3 1040.7 35.3C1040.9 35.3 1041 35.3 1041.2 35.2C1045.1 34.2 1049.1 33.2 1053 32.2C1054.2 32 1054.9 30.9 1054.6 29.8ZM1487.6 28.9C1483.7 27.7 1479.8 26.6 1475.8 25.5C1474.7 25.2 1473.6 25.8 1473.3 26.9C1473 28 1473.6 29.1 1474.7 29.4C1478.6 30.5 1482.5 31.6 1486.4 32.8C1486.6 32.9 1486.8 32.9 1487 32.9C1487.9 32.9 1488.7 32.3 1488.9 31.4C1489.3 30.4 1488.7 29.3 1487.6 28.9ZM1078.4 24.4C1078.2 23.3 1077.1 22.6 1076 22.8C1074.1 23.2 1072.3 23.6 1070.4 24C1068.3 24.5 1066.2 24.9 1064.1 25.4C1063 25.7 1062.3 26.7 1062.6 27.8C1062.8 28.7 1063.7 29.4 1064.6 29.4C1064.7 29.4 1064.9 29.4 1065.1 29.4C1067.2 28.9 1069.3 28.4 1071.4 28C1073.3 27.6 1075.1 27.2 1077 26.8C1078 26.6 1078.7 25.5 1078.4 24.4ZM1464 22.4C1460.1 21.4 1456.1 20.4 1452.1 19.4C1451 19.1 1449.9 19.8 1449.6 20.9C1449.3 22 1450 23.1 1451.1 23.3C1455 24.2 1459 25.2 1462.9 26.2C1463.1 26.2 1463.2 26.3 1463.4 26.3C1464.3 26.3 1465.1 25.7 1465.4 24.8C1465.8 23.8 1465.1 22.6 1464 22.4ZM1102.4 19.6C1102.2 18.5 1101.1 17.8 1100 18C1096 18.8 1092 19.6 1088 20.4C1086.9 20.6 1086.2 21.7 1086.4 22.8C1086.6 23.8 1087.4 24.4 1088.4 24.4C1088.5 24.4 1088.7 24.4 1088.8 24.4C1092.8 23.6 1096.8 22.8 1100.8 22C1101.9 21.8 1102.6 20.7 1102.4 19.6ZM1440.2 16.7C1436.2 15.8 1432.2 15 1428.2 14.2C1427.1 14 1426 14.7 1425.8 15.8C1425.6 16.9 1426.3 18 1427.4 18.2C1431.4 19 1435.4 19.8 1439.3 20.7C1439.4 20.7 1439.6 20.7 1439.7 20.7C1440.6 20.7 1441.5 20 1441.7 19.1C1442 18 1441.3 16.9 1440.2 16.7ZM1126.4 15.3C1126.2 14.2 1125.2 13.4 1124.1 13.6C1120.1 14.3 1116.1 15 1112 15.7C1110.9 15.9 1110.2 17 1110.4 18.1C1110.6 19.1 1111.4 19.8 1112.4 19.8C1112.5 19.8 1112.6 19.8 1112.8 19.8C1116.8 19.1 1120.8 18.4 1124.8 17.7C1125.8 17.5 1126.6 16.4 1126.4 15.3ZM1416.2 11.9C1412.2 11.2 1408.2 10.5 1404.1 9.79999C1403 9.59999 1401.9 10.4 1401.8 11.5C1401.6 12.6 1402.4 13.6 1403.5 13.8C1407.5 14.5 1411.5 15.2 1415.5 15.9C1415.6 15.9 1415.7 15.9 1415.9 15.9C1416.9 15.9 1417.7 15.2 1417.9 14.2C1418 13.1 1417.3 12.1 1416.2 11.9ZM1150.5 11.6C1150.3 10.5 1149.3 9.69996 1148.2 9.89996C1144.2 10.5 1140.1 11.1 1136.1 11.7C1135 11.9 1134.2 12.9 1134.4 14C1134.6 15 1135.4 15.7 1136.4 15.7C1136.5 15.7 1136.6 15.7 1136.7 15.7C1140.7 15.1 1144.7 14.5 1148.7 13.9C1149.9 13.7 1150.7 12.7 1150.5 11.6ZM1174.7 8.39996C1174.6 7.29996 1173.6 6.49998 1172.4 6.59998C1168.4 7.09998 1164.3 7.59998 1160.3 8.09998C1159.2 8.19998 1158.4 9.29996 1158.5 10.4C1158.6 11.4 1159.5 12.2 1160.5 12.2C1160.6 12.2 1160.7 12.2 1160.8 12.2C1164.8 11.7 1168.9 11.2 1172.9 10.7C1174.1 10.5 1174.9 9.49996 1174.7 8.39996ZM1392.1 7.89996C1388.1 7.29996 1384 6.80001 1380 6.20001C1378.9 6.10001 1377.9 6.8 1377.7 8C1377.6 9.1 1378.3 10.1 1379.5 10.3C1383.5 10.8 1387.6 11.4 1391.6 12C1391.7 12 1391.8 12 1391.9 12C1392.9 12 1393.8 11.3 1393.9 10.3C1394 9.09999 1393.2 7.99996 1392.1 7.89996ZM1196.8 4C1192.8 4.4 1188.7 4.80001 1184.6 5.20001C1183.5 5.30001 1182.7 6.29996 1182.8 7.39996C1182.9 8.49996 1183.8 9.20001 1184.8 9.20001C1184.9 9.20001 1184.9 9.20001 1185 9.20001C1189 8.80001 1193.1 8.4 1197.1 8C1198.2 7.9 1199 6.89999 1198.9 5.79999C1198.9 4.69999 1197.9 3.9 1196.8 4ZM1367.8 4.70001C1363.8 4.20001 1359.7 3.79996 1355.6 3.39996C1354.5 3.29996 1353.5 4.10001 1353.4 5.20001C1353.3 6.30001 1354.1 7.29996 1355.2 7.39996C1359.2 7.79996 1363.3 8.20001 1367.3 8.70001C1367.4 8.70001 1367.5 8.70001 1367.5 8.70001C1368.5 8.70001 1369.4 7.89996 1369.5 6.89996C1369.7 5.89996 1368.9 4.90001 1367.8 4.70001ZM1221.2 2C1217.2 2.3 1213.1 2.59996 1209 2.89996C1207.9 2.99996 1207 3.99998 1207.1 5.09998C1207.2 6.19998 1208.1 7 1209.1 7H1209.3C1213.3 6.7 1217.4 6.39998 1221.4 6.09998C1222.5 5.99998 1223.4 5.09996 1223.3 3.89996C1223.3 2.79996 1222.3 1.9 1221.2 2ZM1343.4 2.39996C1339.4 2.09996 1335.3 1.8 1331.2 1.5C1330.1 1.4 1329.1 2.29996 1329 3.39996C1328.9 4.49996 1329.8 5.49998 1330.9 5.59998C1335 5.89998 1339 6.1 1343 6.5C1343.1 6.5 1343.1 6.5 1343.2 6.5C1344.2 6.5 1345.1 5.69998 1345.2 4.59998C1345.4 3.49998 1344.6 2.49996 1343.4 2.39996ZM1245.6 0.700012C1241.6 0.900012 1237.5 1.09999 1233.4 1.29999C1232.3 1.39999 1231.4 2.29996 1231.5 3.39996C1231.6 4.49996 1232.5 5.29999 1233.5 5.29999H1233.6C1237.7 5.09999 1241.8 4.90001 1245.8 4.70001C1246.9 4.70001 1247.8 3.69998 1247.7 2.59998C1247.7 1.49998 1246.7 0.600012 1245.6 0.700012ZM1319 0.899963C1315 0.699963 1310.8 0.499963 1306.8 0.399963C1305.7 0.399963 1304.7 1.19996 1304.7 2.39996C1304.7 3.49996 1305.5 4.5 1306.7 4.5C1310.8 4.6 1314.8 4.8 1318.9 5H1319C1320.1 5 1321 4.19998 1321 3.09998C1321 1.89998 1320.1 0.899963 1319 0.899963ZM1270.1 0C1266 0 1261.9 0.100012 1257.8 0.200012C1256.7 0.200012 1255.8 1.19999 1255.8 2.29999C1255.8 3.39999 1256.7 4.29999 1257.8 4.29999H1257.9C1262 4.19999 1266.1 4.09998 1270.1 4.09998C1271.2 4.09998 1272.1 3.2 1272.1 2C1272.1 0.9 1271.2 0 1270.1 0ZM1294.6 0.0999756C1290.5 -2.44156e-05 1286.4 0 1282.4 0C1281.3 0 1280.4 0.9 1280.4 2C1280.4 3.1 1281.3 4 1282.4 4C1286.4 4 1290.5 3.99998 1294.6 4.09998C1295.7 4.09998 1296.6 3.19998 1296.6 2.09998C1296.6 0.999976 1295.7 0.0999756 1294.6 0.0999756Z" fill="#E75755"/>
<path d="M1436.6 535L1432 531.2L1493.9 450.3L1516.2 449.4L1436.6 535Z" fill="#8D1E5E"/>
<path d="M1355.7 535L1351.8 531.2L1403.1 450.3L1421.6 449.4L1355.7 535Z" fill="#8D1E5E"/>
<path d="M977.6 324.101C977.6 308.701 989.8 296.301 1004.8 296.301C1019.8 296.301 1032 308.801 1032 324.101C1032 339.401 1019.8 351.901 1004.8 351.901C989.7 351.901 977.6 339.401 977.6 324.101Z" fill="#8D1E5E"/>
<path d="M1322 698.901H1045.9C1042.9 698.901 1040.4 696.401 1040.4 693.401V667.301C1040.4 664.301 1042.9 661.801 1045.9 661.801H1289.8C1292.8 661.801 1295.3 664.301 1295.3 667.301L1322 698.901Z" fill="#8D1E5E"/>
<path d="M1465.3 736.834C1497.52 704.616 1497.52 652.38 1465.3 620.162C1433.08 587.944 1380.84 587.944 1348.63 620.162C1316.41 652.38 1316.41 704.616 1348.63 736.834C1380.84 769.052 1433.08 769.052 1465.3 736.834Z" fill="#0B0754"/>
<path d="M1364.9 678.5C1364.9 655.3 1383.7 636.4 1407 636.4C1430.2 636.4 1449.1 655.2 1449.1 678.5C1449.1 701.7 1430.3 720.6 1407 720.6C1383.8 720.6 1364.9 701.7 1364.9 678.5Z" fill="#6D89CF"/>
<path d="M982.8 562.001C971.1 558.301 958.7 556.301 945.9 556.301C936.8 556.301 928 557.301 919.4 559.201C870.5 570.001 832.6 610.201 825 660.201C823.6 669.801 831 678.501 840.8 678.501H841.3C846.5 678.501 850.9 674.501 851.4 669.301C856.1 621.301 896.6 583.601 945.8 583.601C960.5 583.601 974.4 587.001 986.8 592.901C1018.6 608.201 1040.6 640.801 1040.6 678.401H1067.9C1068.1 624.001 1032.2 577.701 982.8 562.001Z" fill="#8D1E5E"/>
<path d="M1109.5 661.901L1068.2 678.501C1039.6 622.801 1010.3 595.501 985.3 582.001C940.3 557.701 909 578.301 919.5 559.201L996.7 396.401C1003.9 386.301 1013.4 378.701 1023.9 373.701C1035.4 368.301 1048.1 366.001 1060.8 367.201C1075.5 368.601 1085.2 383.401 1080.5 397.401C1070.4 427.601 1066.5 458.001 1066.5 486.801C1066.4 582.801 1109.5 661.901 1109.5 661.901Z" fill="#8D1E5E"/>
<path d="M1067.3 386L1036.2 374.1C1032 374.1 1023.9 377.9 1023.9 373.7L1028.5 297.6C1028.5 293.4 1032 289.9 1036.2 289.9H1056.3C1060.5 289.9 1077.5 298 1076.3 313.2L1081.6 389.9C1081.6 394.2 1071.5 386 1067.3 386Z" fill="#8D1E5E"/>
<path d="M1594.8 453.101H1393.4C1385.7 453.101 1379.5 446.801 1379.5 439.201V437.701C1379.5 430.001 1385.8 423.801 1393.4 423.801H1594.8C1602.5 423.801 1608.7 430.101 1608.7 437.701V439.201C1608.7 446.901 1602.4 453.101 1594.8 453.101Z" fill="#8D1E5E"/>
<path d="M1004.22 736.863C1036.43 704.645 1036.43 652.41 1004.22 620.192C971.997 587.974 919.762 587.974 887.544 620.192C855.326 652.41 855.326 704.645 887.544 736.863C919.762 769.081 971.997 769.081 1004.22 736.863Z" fill="#0B0754"/>
<path d="M987.999 678.5C987.999 685.6 986.199 692.3 983.199 698.1C982.999 698.5 982.799 698.9 982.599 699.2C975.399 711.9 961.699 720.5 945.999 720.5C922.799 720.5 903.899 701.7 903.899 678.4C903.899 660.9 914.599 645.9 929.799 639.6C929.999 639.5 930.099 639.5 930.299 639.4C935.099 637.4 940.399 636.4 945.999 636.4C969.199 636.5 987.999 655.3 987.999 678.5Z" fill="#BED2FA"/>
<path d="M1248.2 512.301C1248.2 512.301 1280.4 584.001 1208.5 661.901H1374.4L1351.8 491.301L1248.2 512.301Z" fill="#8D1E5E"/>
<path d="M1573.3 688C1573.3 691 1572.1 693.7 1570.1 695.7C1568.1 697.7 1565.4 698.9 1562.4 698.9H1297.7C1291.7 698.9 1286.8 694 1286.8 688L1290.3 514.9L1379.4 509.4C1498.2 509.4 1573.3 569.3 1573.3 688Z" fill="#8D1E5E"/>
<path d="M1031.9 322.501C1031.9 325.201 1031.7 327.801 1031.2 330.401C1027.5 350.201 1010.1 365.201 989.199 365.201V279.801C1012.7 279.801 1031.9 298.901 1031.9 322.501Z" fill="#FF8DC4"/>
<path d="M1099.3 328.201C1099.1 328.201 1097.4 327.901 1097.2 327.801L1050.2 314.801C1048.3 314.401 1047 312.101 1047.3 309.601C1047.6 307.101 1049.3 305.401 1051.2 305.801L1098.3 315C1100.2 315.4 1101.6 318.201 1102.1 320.601C1102.8 324.801 1100.9 328.201 1099.3 328.201Z" fill="#0B0754"/>
<path d="M985.7 585.302C986.1 587.902 986.5 590.501 986.9 592.901C986.8 592.801 986.7 592.802 986.5 592.702C974.2 586.802 960.4 583.501 945.8 583.501C896.6 583.501 856 621.202 851.4 669.202C850.9 674.402 846.6 678.401 841.3 678.401H840.8C831.1 678.401 823.6 669.802 825 660.102C832.5 610.302 870.2 570.202 918.9 559.202C919.1 559.202 919.2 559.102 919.4 559.102L996.6 396.302C1003.8 386.202 1013.3 378.602 1023.8 373.602C1010.6 395.702 974.4 466.501 982.8 561.901C983.4 568.501 984.2 575.101 985.2 581.901C985.4 583.101 985.6 584.202 985.7 585.302Z" fill="#FF8DC4"/>
<path d="M1425.4 478.5V504.2C1425.4 508.7 1421.8 512.3 1417.3 512.3H1248.1C1243.6 512.3 1240 508.6 1240 504.2V478.5C1240 474 1243.7 470.4 1248.1 470.4H1417.3C1421.8 470.4 1425.4 474 1425.4 478.5Z" fill="#FF8DC4"/>
<path d="M1552.4 699H1297.7C1297.7 699 1282.2 604.7 1339.5 572.9C1353.3 565.2 1370.6 562.6 1389.5 564.4C1449.1 570.2 1524 620.6 1552.4 699Z" fill="#5B153E"/>
<path d="M1031.1 330.301C1027.4 350.101 1010 365.101 989.1 365.101V341.301C1001.7 341.801 1019.8 340.501 1031.1 330.301Z" fill="#DD3D83"/>
<path d="M1371.9 512.3H1248.2C1243.7 512.3 1240.1 508.6 1240.1 504.2V478.5C1240.1 474 1243.8 470.4 1248.2 470.4H1333C1340.3 480.8 1354.1 498.4 1371.9 512.3Z" fill="#DD3D83"/>
<path d="M1552.4 699H1446.6C1382.8 666.6 1386.7 588.4 1389.5 564.4C1449.1 570.2 1524 620.6 1552.4 699Z" fill="#5B153E"/>
<path d="M982.5 699.301C975.3 712.001 961.6 720.601 945.9 720.601C922.7 720.601 903.8 701.801 903.8 678.501C903.8 661.001 914.5 646.001 929.7 639.701C933.4 657.901 945.2 691.601 982.5 699.301Z" fill="#93B3F4"/>
<path d="M985.699 585.302C986.099 587.902 986.499 590.501 986.899 592.901C986.799 592.801 986.699 592.802 986.499 592.702C971.299 578.602 939.099 566.102 918.899 559.202C919.099 559.202 919.199 559.102 919.399 559.102L996.599 396.302C1003.8 386.202 1013.3 378.602 1023.8 373.602C1010.6 395.702 974.399 466.501 982.799 561.901C983.399 568.501 984.199 575.101 985.199 581.901C985.399 583.101 985.599 584.202 985.699 585.302Z" fill="#DD3D83"/>
<path d="M1396.46 423.777H1528.26V315.077H1396.46V423.777Z" fill="#9E332E"/>
<path d="M1594.2 315.1H1462.4V423.8H1594.2V315.1Z" fill="#FA7269"/>
<path d="M1396.5 396.2H1417.4L1415.6 390.3L1417.4 386.1H1396.5V396.2Z" fill="#FA7269"/>
<path d="M1594.2 387.2V423.8H1462.4V315.1H1485.7L1594.2 387.2Z" fill="#AE4C4C"/>
<path opacity="0.4" d="M1594.2 339.5H1573.3L1575.2 333.6L1573.3 329.4H1594.2V339.5Z" fill="#9E332E"/>
<path d="M1594.2 406.299H1573.3L1575.2 400.399L1573.3 396.199H1594.2V406.299Z" fill="#FA7269"/>
<path d="M1262.9 216.6C1285.7 225.9 1327.4 206.1 1327.4 206.1C1327.4 206.1 1313.6 193.9 1310.9 170.7C1310.8 169.5 1310.7 168.3 1310.6 167.1C1308.2 166.2 1303.7 164.6 1298.8 162.9L1278.6 176.6C1278.6 176.6 1278.1 183.4 1278.8 195.2C1278.9 197.3 1279.1 199.5 1279.3 201.9C1268.8 206.5 1262.9 216.6 1262.9 216.6Z" fill="#FC9290"/>
<path d="M1278.6 176.601C1278.6 176.601 1278.1 183.401 1278.8 195.201C1297.2 191.901 1307.3 177.001 1310.8 170.601C1310.7 169.401 1310.6 168.201 1310.5 167.001C1308.1 166.101 1303.6 164.501 1298.7 162.801L1278.6 176.601Z" fill="#EA8888"/>
<path d="M1274.9 186.4C1274.9 186.4 1314.2 185.1 1313 160.7C1311.8 136.3 1316.1 119.6 1291 119.4C1265.9 119.2 1261.5 128.7 1259.9 137C1258.2 145.3 1264.6 186.1 1274.9 186.4Z" fill="#FC9290"/>
<path d="M1310.9 170.601C1310.9 170.601 1312.4 162.501 1308 157.101C1308 157.101 1310.9 149.101 1307.8 147.301C1304.7 145.501 1303.1 152.301 1301.8 151.001C1300.5 149.701 1294.5 143.701 1292.7 135.701C1290.9 127.701 1263.7 133.401 1260.4 134.401C1257.2 135.401 1278.5 95.7012 1301.4 105.101C1324.4 114.501 1326.1 126.301 1323.4 135.901C1320.8 145.501 1321.1 168.601 1310.9 170.601Z" fill="#0B0754"/>
<path d="M1348.4 403.8C1348.4 403.8 1345.7 451.8 1334.8 465.4C1323.9 479.1 1114.6 473.8 1114.6 473.8C1114.6 473.8 1113.7 443.1 1121.9 435.1C1130.1 427.2 1168.3 404.5 1290.3 391.6L1348.4 403.8Z" fill="#A2BEF6"/>
<path d="M1351.2 303.401C1347.8 344.601 1352.3 407.201 1348.4 418.101C1345.1 427.501 1307 421.901 1291.8 418.801C1286.2 417.601 1279.4 416.001 1272.3 414.001C1252.7 408.601 1231.3 400.801 1229 395.001C1228.9 394.801 1228.8 394.601 1228.8 394.301C1228.6 393.501 1228.6 392.701 1228.8 391.901C1229.4 389.701 1231.1 387.401 1232.1 383.401C1232.5 382.001 1232.7 380.401 1232.8 378.501C1233.2 371.001 1233.1 362.401 1233.4 353.001C1233.4 352.101 1233.5 351.301 1233.5 350.401C1233.5 349.201 1233.5 348.001 1233.7 346.801V346.401C1233.7 346.201 1233.7 346.001 1233.7 345.701C1234 334.201 1234.7 322.102 1235.5 310.101C1235.7 306.401 1236 302.601 1236.3 299.001C1236.4 297.701 1236.5 296.401 1236.6 295.101C1236.8 292.701 1237 290.301 1237.2 288.001C1238.9 269.501 1241.2 253.101 1244.3 242.801C1249.3 225.901 1260.3 214.901 1270.3 206.801L1277.5 201.201C1285.6 202.801 1295.1 201.701 1303.8 198.101C1313.1 194.101 1316.4 191.201 1318 192.301C1339.7 207.301 1355.2 253.101 1351.2 303.401Z" fill="#FF8DC4"/>
<path d="M1189.9 631.5C1189.9 631.5 1188 661.3 1182.3 661.8C1181.5 661.9 1153 661.9 1153 661.9L1116.6 661.7C1116.6 661.7 1116.8 652.9 1127.5 651.1C1138.1 649.2 1156 641.8 1162.4 627.7C1169.1 612.8 1189.9 631.5 1189.9 631.5Z" fill="#3A49CD"/>
<path d="M1197.5 633.501C1197.5 633.501 1190.5 638.901 1176.1 639.601C1172.4 639.801 1169 639.601 1166.1 639.201C1158.2 638.201 1153.3 635.901 1153.3 635.901L1114.7 473.801C1114.7 473.801 1156.5 437.201 1178.4 460.001C1181.2 463.001 1183.7 468.101 1185.8 474.801C1199.5 519.501 1197.5 633.501 1197.5 633.501Z" fill="#A2BEF6"/>
<path d="M1290.3 272.1C1290.3 272.1 1263.2 371.3 1232.3 383.4C1232.7 382 1232.9 380.4 1233 378.5C1233.4 371 1233.3 362.4 1233.6 353C1233.6 352.1 1233.7 351.3 1233.7 350.4C1233.7 349.2 1233.7 348 1233.9 346.8V346.4C1233.9 346.2 1233.9 346 1233.9 345.7C1234.2 334.2 1234.9 322.1 1235.7 310.1C1235.9 306.4 1236.2 302.6 1236.5 299C1250 282.6 1268.5 270.8 1290.3 272.1Z" fill="#DD3D83"/>
<path d="M1127.8 310.4C1127.8 310.4 1116 311.3 1113 310.4C1110 309.5 1095.7 301 1090.6 302.8C1085.5 304.6 1072.4 318 1075.7 324C1075.7 324 1081.8 324.2 1087.4 318.4C1093 312.6 1099.1 316.6 1098.5 317.3C1097.9 318.1 1089.1 321.5 1090.6 323.1C1092.1 324.6 1103.6 324.3 1106.4 322.5C1109.1 320.7 1129.4 323 1129.4 323L1127.8 310.4Z" fill="#FC9290"/>
<path d="M1290.3 219.801C1290.3 219.801 1216.9 282.301 1197.6 288.401C1178.3 294.501 1110.1 307.701 1110.1 307.701C1110.1 307.701 1108.2 323.901 1114.6 329.901C1114.6 329.901 1202.3 324.801 1213.2 322.501C1224.1 320.201 1305.5 278.001 1312.1 274.901C1318.7 271.701 1317.7 214.701 1290.3 219.801Z" fill="#FF8DC4"/>
<path d="M1197.5 633.501C1197.5 633.501 1190.5 638.901 1176.1 639.601C1172.4 639.801 1169 639.601 1166.1 639.201C1188.1 611.301 1185.7 474.801 1185.7 474.801C1199.5 519.501 1197.5 633.501 1197.5 633.501Z" fill="#93B3F4"/>
<path d="M1329.3 137.6V138C1329.3 139 1328.8 139.9 1328.2 140.3C1328 140.4 1327.7 140.5 1327.5 140.5H1234.5C1233.5 140.5 1232.6 139.4 1232.6 138V137.6C1232.6 136.2 1233.4 135.1 1234.5 135.1L1255.3 132.4C1257.2 117 1267.5 104.4 1281 100C1284.3 98.9004 1287.8 98.4004 1291.4 98.4004C1310.5 98.4004 1326.1 114.2 1327.8 134.3C1327.8 134.5 1327.8 134.8 1327.9 135C1328.1 135.2 1328.3 135.3 1328.3 135.3C1328.8 135.7 1329.3 136.6 1329.3 137.6Z" fill="#FF8DC4"/>
<path d="M1297.8 134.3C1304.7 97.6 1281.7 100 1280.9 100.1C1284.2 99 1287.7 98.5 1291.3 98.5C1310.4 98.5 1326 114.3 1327.7 134.4H1297.8V134.3Z" fill="#DD3D83"/>
<path d="M1417.3 761C1417.3 761 1493.7 741.8 1515.2 718.5C1536.7 695.2 1555.4 721.6 1541.4 736.3C1527.4 751.1 1417.3 761 1417.3 761Z" fill="#DDE8FD"/>
<path d="M1720.5 709.299H1613.5C1610.9 709.299 1608.7 707.099 1608.7 704.499C1608.7 701.899 1610.9 699.699 1613.5 699.699H1720.5C1723.1 699.699 1725.3 701.899 1725.3 704.499C1725.3 707.099 1723.1 709.299 1720.5 709.299Z" fill="#DDE8FD"/>
<path d="M1669.5 687.899H1611.3C1609.9 687.899 1608.7 686.699 1608.7 685.299C1608.7 683.899 1609.9 682.699 1611.3 682.699H1669.5C1670.9 682.699 1672.1 683.899 1672.1 685.299C1672.1 686.699 1670.9 687.899 1669.5 687.899Z" fill="#DDE8FD"/>
<path d="M565.3 508.1C531.2 569.5 478.9 633.8 478.9 633.8C478.9 633.8 363.6 492.3 363.6 428.6C363.6 392.5 380.2 360.3 406.2 339.1C410.6 360 417.7 383.8 429.1 406.9C426.5 413.3 425 420.2 425 427.5C425 457.3 449.1 481.3 478.9 481.3C482.9 481.3 486.9 480.8 490.6 479.9C510.7 493.6 535.3 503.7 565.3 508.1Z" fill="#DD3D83"/>
</svg>
