<svg width="500" height="500" viewBox="0 0 500 500" fill="none" xmlns="http://www.w3.org/2000/svg">
<circle cx="250" cy="250" r="250" fill="white"/>
<g clip-path="url(#clip0)">
<path d="M95.0514 202.451C65.5683 202.451 41 214.918 41 252.535C41 282.335 57.5206 301.1 95.8113 301.1C140.882 301.1 143.771 271.506 143.771 271.506H121.933C121.933 271.506 117.251 287.441 94.4797 287.441C75.9333 287.441 62.5943 274.952 62.5943 257.449H146.056V246.464C146.056 229.147 135.028 202.451 95.0514 202.451V202.451ZM94.2887 216.49C111.943 216.49 123.978 227.27 123.978 243.428H63.0768C63.0768 226.274 78.7873 216.49 94.2887 216.49V216.49Z" fill="#E53238"/>
<path d="M146.041 166.023V282.208C146.041 288.803 145.568 298.063 145.568 298.063H166.397C166.397 298.063 167.146 291.413 167.146 285.334C167.146 285.334 177.437 301.383 205.42 301.383C234.886 301.383 254.902 280.989 254.902 251.774C254.902 224.593 236.518 202.733 205.467 202.733C176.391 202.733 167.357 218.383 167.357 218.383V166.023H146.041ZM200.091 217.103C220.101 217.103 232.827 231.908 232.827 251.774C232.827 273.077 218.13 287.012 200.235 287.012C178.877 287.012 167.357 270.389 167.357 251.963C167.357 234.793 177.694 217.103 200.091 217.103V217.103Z" fill="#0064D2"/>
<path d="M306.67 202.451C262.315 202.451 259.471 226.659 259.471 230.528H281.548C281.548 230.528 282.705 216.395 305.147 216.395C319.73 216.395 331.03 223.05 331.03 235.84V240.393H305.147C270.785 240.393 252.62 250.414 252.62 270.748C252.62 290.759 269.404 301.646 292.087 301.646C323.001 301.646 332.959 284.62 332.959 284.62C332.959 291.392 333.481 298.066 333.481 298.066H353.107C353.107 298.066 352.347 289.794 352.347 284.502V238.757C352.347 208.762 328.076 202.451 306.67 202.451V202.451ZM331.03 254.052V260.123C331.03 268.041 326.128 287.726 297.272 287.726C281.471 287.726 274.696 279.865 274.696 270.747C274.696 254.159 297.511 254.052 331.03 254.052Z" fill="#F5AF02"/>
<path d="M340.458 206.246H365.294L400.938 277.43L436.5 206.246H459L394.224 332.975H370.623L389.314 297.647L340.458 206.246V206.246Z" fill="#86B817"/>
</g>
<defs>
<clipPath id="clip0">
<rect width="418" height="167" fill="white" transform="translate(41 166)"/>
</clipPath>
</defs>
</svg>
