<svg width="146" height="177" viewBox="0 0 146 177" fill="none" xmlns="http://www.w3.org/2000/svg">
<path d="M135 89.5003C135.3 89.2003 135.5 89.0003 135.7 88.7003C137.9 86.0003 138.9 82.5003 138.5 79.1003C138.1 75.6003 136.4 72.5003 133.6 70.3003L114.6 55.2003C101.1 44.1003 85.3 50.4003 78.7 55.3003L71.3 60.4003L85.5 17.2003C86.5 14.0003 86.3 10.6003 84.8 7.60032C83.3 4.60032 80.7 2.40032 77.5 1.40032C70.9 -0.799685 63.8 2.80032 61.7 9.40032L50.2 44.4003L51.2 34.4003C51.9 27.5003 46.8 21.4003 39.9 20.7003C33.2 20.0003 27 25.0003 26.4 31.9003L23.8 58.9003C21.2 54.4003 16 51.7003 10.6 52.7003C4.60003 53.8003 0.400024 59.1003 0.400024 65.0003V65.1003C0.400024 86.3003 5.90002 118.6 17.8 139.4C31 162 55.2 176.1 81.3 176.5H98.5V176.4C124.8 175.1 145.9 153.3 145.9 126.7V101.7C145.9 95.6003 141.1 90.3003 135 89.5003ZM120.8 101.9V107.5V113.7V125.2C117.5 127.5 106.5 133.9 100.3 137.3V110.1L121.6 97.6003C121.1 98.9003 120.8 100.4 120.8 101.9ZM73.9 125.7L73.6 125.6V98.1003L93.8 110.1V137L73.9 125.7ZM97.1 104.5L73.9 90.7003L91.7 80.1003C91.7 80.1003 94.8 77.8003 96.5 78.9003L117.6 90.9003C118 91.2003 118.4 91.5003 118.8 91.7003L97.1 104.5ZM96.1 170.2H82.3C58.2 170.2 35.8 157.3 23.6 136.6C23.6 136.5 23.5 136.4 23.5 136.3C14 119.9 7.30002 91.9003 6.90002 67.6003C7.00002 67.1003 7.00002 66.6003 7.00002 66.1003C6.40002 62.8003 8.60002 59.6003 11.9 59.0003C13.5 58.7003 15.1 59.0003 16.4 60.0003C17.7 60.9003 18.6 62.3003 18.9 63.9003L24.2 92.6003C24.5 94.2003 25.8 95.2003 27.4 95.2003C27.6 95.2003 27.8 95.2003 28 95.1003C29.8 94.8003 30.9 93.1003 30.6 91.3003L28.4 79.4003L32.9 32.4003C33.2 29.1003 36.2 26.6003 39.5 26.9003C42.8 27.2003 45.3 30.2003 45 33.5003L40.7 78.6003C40.5 80.4003 41.8 82.0003 43.6 82.1003C45.4 82.3003 47 81.0003 47.1 79.2003L47.7 73.3003L68 11.4003C69 8.20032 72.5 6.50032 75.6 7.50032C77.1 8.00032 78.4 9.10032 79.1 10.5003C79.8 11.9003 80 13.6003 79.4 15.1003L61.8 69.2003C61.2 70.9003 62 72.6003 63.8 72.8003C65.7 73.0003 67.9 71.2003 67.9 71.2003L82.6 60.5003L82.7 60.4003C82.8 60.3003 97.7 49.4003 110.7 60.1003L129.7 75.2003C131.1 76.3003 132 77.9003 132.2 79.6003C132.4 81.3003 131.9 83.1003 130.8 84.5003C129.7 85.9003 128.1 86.8003 126.4 87.0003C124.6 87.2003 122.9 86.7003 121.5 85.6003L121.3 85.4003L100.3 73.4003C95.9 70.3003 90.9 72.5003 88.4 74.5003L69.5 85.9003C68.2 86.3003 67.2 87.5003 67.2 89.0003V126.7C67.2 129.2 69.9 131 71.3 131.7L94.8 145C94.8 145 97.5 145.9 99.4 145C100.9 144.3 103.3 143.2 112.6 137.8C124.5 130.9 127.3 129.3 127.3 126.7V113.8V107.6V102C127.3 98.7003 130 95.9003 133.4 95.9003C136.7 95.9003 139.5 98.6003 139.5 102V127C139.4 150.7 120 170.2 96.1 170.2Z" fill="#DD3C82"/>
</svg>
