<svg width="699" height="1130" viewBox="0 0 699 1130" fill="none" xmlns="http://www.w3.org/2000/svg">
<g clip-path="url(#clip0)">
<mask id="mask0" mask-type="alpha" maskUnits="userSpaceOnUse" x="3" y="234" width="698" height="627">
<path fill-rule="evenodd" clip-rule="evenodd" d="M316.935 860.086C245.923 856.889 185.661 811.595 132.602 765.096C80.8546 719.747 39.0093 664.896 19.6997 599.602C-0.19532 532.327 -4.07249 459.462 23.0996 394.818C50.199 330.346 102.563 276.384 167.519 247.929C228.054 221.411 295.466 243.332 361.781 246.454C430.488 249.688 502.307 232.989 562.081 266.5C627.895 303.397 703.109 362.257 700.613 436.413C698.029 513.209 588.473 539.013 550.647 606.218C520.178 660.352 548.401 736.024 506.151 781.917C459.172 832.948 387.111 863.246 316.935 860.086Z" fill="#C4C4C4"/>
</mask>
<g mask="url(#mask0)">
<path d="M719.589 0H0V1130H719.589V0Z" fill="#D80027"/>
<path d="M699 188.328H0V439.433H699V188.328Z" fill="black"/>
<path d="M699 690.54H0V941.645H699V690.54Z" fill="#FFDA44"/>
</g>
</g>
<defs>
<clipPath id="clip0">
<rect width="699" height="1130" fill="white"/>
</clipPath>
</defs>
</svg>
