<svg width="559" height="180" viewBox="0 0 559 180" fill="none" xmlns="http://www.w3.org/2000/svg">
<path d="M180.1 118.7C180.1 113 180.9 108 182.6 103.8C184.3 99.5998 186.6 96.3998 189.4 94.0998C194.9 89.8998 200.9 87.7998 207.6 87.7998C212.2 87.7998 216.1 88.5998 219.4 90.0998C222.6 91.5998 225.1 93.2998 226.9 95.2998C228.7 97.2998 230.3 100.1 231.5 103.9C232.8 107.6 233.4 112.1 233.4 117.2C233.4 127.9 230.8 135.9 225.6 141.4C220.4 146.9 213.8 149.6 205.7 149.6C197.6 149.6 191.3 147 186.8 141.8C182.4 136.6 180.1 128.9 180.1 118.7ZM206.7 139.5C215.1 139.5 219.3 132.7 219.3 119.1C219.3 112.2 218.4 107 216.5 103.5C214.6 99.9998 211.4 98.1998 207 98.1998C202.6 98.1998 199.3 99.8998 197.2 103.3C195.1 106.7 194.1 111.3 194.1 117.2C194.1 128.1 196.1 134.9 200.1 137.7C201.9 138.9 204.1 139.5 206.7 139.5Z" fill="#D24481"/>
<path d="M248.4 135V78.6C248.4 77.4 248.2 76.5 247.8 76.1C247.4 75.6 246.6 75.4 245.5 75.3L241.4 75.1V65.5H262V115.6C266.2 115.2 269.9 113.9 273.1 111.7C276.3 109.5 278.4 106.5 279.6 102.9C279.8 102.1 279.9 101.5 279.9 101C279.9 99.7 279.2 99 277.7 99L273.3 98.8V89.8H297.3V99.2L291.7 99.4C290.7 107.3 287.3 113.5 281.5 118L292.8 138.4L299.9 138.7V148H283L270 123.8C267.5 124.5 264.8 125 262.1 125.4V138.3H262.2L268.8 138.6V147.9H241.2V139.1L245 138.8C246.2 138.6 247 138.3 247.5 137.8C248.2 137.3 248.4 136.3 248.4 135Z" fill="#D24481"/>
<path d="M326.6 89.6999V138.3L333.2 138.6V147.9H305.6V139.1L309.4 138.8C311.6 138.6 312.8 137.3 312.8 135.1V102.9C312.8 101.6 312.6 100.7 312.2 100.2C311.8 99.6999 311 99.4999 309.9 99.4999L305.8 99.2999V89.6999H326.6V89.6999ZM312 79.6999C310.4 78.0999 309.6 76.0999 309.6 73.5999C309.6 71.0999 310.4 69.0999 312 67.3999C313.6 65.6999 315.7 64.8999 318.4 64.8999C321 64.8999 323.2 65.6999 324.8 67.3999C326.5 69.0999 327.3 71.0999 327.3 73.5999C327.3 76.0999 326.5 78.0999 324.8 79.6999C323.1 81.2999 321 82.0999 318.4 82.0999C315.7 81.9999 313.6 81.2999 312 79.6999Z" fill="#D24481"/>
<path d="M136 90.4998C136.3 90.1998 136.5 89.9998 136.7 89.6998C138.9 86.9998 139.9 83.4998 139.5 80.0998C139.1 76.5998 137.4 73.4998 134.6 71.2998L115.6 56.1998C102.1 45.0998 86.3004 51.3998 79.7004 56.2998L72.3004 61.3998L86.5004 18.1998C87.5004 14.9998 87.3004 11.5998 85.8004 8.59983C84.3004 5.59983 81.7004 3.39983 78.5004 2.39983C71.9004 0.199827 64.8004 3.79983 62.7004 10.3998L51.2004 45.3998L52.2004 35.3998C52.9004 28.4998 47.8004 22.3998 40.9004 21.6998C34.2004 20.9998 28.0004 25.9998 27.4004 32.8998L24.8004 59.8998C22.2004 55.3998 17.0004 52.6998 11.6004 53.6998C5.60039 54.7998 1.40039 60.0998 1.40039 65.9998V66.0998C1.40039 87.2998 6.90039 119.6 18.8004 140.4C32.0004 163 56.2004 177.1 82.3004 177.5H99.5004V177.4C125.8 176.1 146.9 154.3 146.9 127.7V102.7C146.9 96.5998 142.1 91.2998 136 90.4998ZM121.8 102.9V108.5V114.7V126.2C118.5 128.5 107.5 134.9 101.3 138.3V111.1L122.6 98.5998C122.1 99.8998 121.8 101.4 121.8 102.9ZM74.9004 126.7L74.6004 126.6V99.0998L94.8004 111.1V138L74.9004 126.7ZM98.1004 105.5L74.9004 91.6998L92.7004 81.0998C92.7004 81.0998 95.8004 78.7998 97.5004 79.8998L118.6 91.8998C119 92.1998 119.4 92.4998 119.8 92.6998L98.1004 105.5ZM97.1004 171.2H83.3004C59.2004 171.2 36.8004 158.3 24.6004 137.6C24.6004 137.5 24.5004 137.4 24.5004 137.3C15.0004 120.9 8.30039 92.8998 7.90039 68.5998C8.00039 68.0998 8.00039 67.5998 8.00039 67.0998C7.40039 63.7998 9.60039 60.5998 12.9004 59.9998C14.5004 59.6998 16.1004 59.9998 17.4004 60.9998C18.7004 61.8998 19.6004 63.2998 19.9004 64.8998L25.2004 93.5998C25.5004 95.1998 26.8004 96.1998 28.4004 96.1998C28.6004 96.1998 28.8004 96.1998 29.0004 96.0998C30.8004 95.7998 31.9004 94.0998 31.6004 92.2998L29.4004 80.3998L33.9004 33.3998C34.2004 30.0998 37.2004 27.5998 40.5004 27.8998C43.8004 28.1998 46.3004 31.1998 46.0004 34.4998L41.7004 79.5998C41.5004 81.3998 42.8004 82.9998 44.6004 83.0998C46.4004 83.2998 48.0004 81.9998 48.1004 80.1998L48.7004 74.2998L69.0004 12.3998C70.0004 9.19983 73.5004 7.49983 76.6004 8.49983C78.1004 8.99983 79.4004 10.0998 80.1004 11.4998C80.8004 12.8998 81.0004 14.5998 80.4004 16.0998L62.8004 70.1998C62.2004 71.8998 63.0004 73.5998 64.8004 73.7998C66.7004 73.9998 68.9004 72.1998 68.9004 72.1998L83.6004 61.4998L83.7004 61.3998C83.8004 61.2998 98.7004 50.3998 111.7 61.0998L130.7 76.1998C132.1 77.2998 133 78.8998 133.2 80.5998C133.4 82.2998 132.9 84.0998 131.8 85.4998C130.7 86.8998 129.1 87.7998 127.4 87.9998C125.6 88.1998 123.9 87.6998 122.5 86.5998L122.3 86.3998L101.3 74.3998C96.9004 71.2998 91.9004 73.4998 89.4004 75.4998L70.5004 86.8998C69.2004 87.2998 68.2004 88.4998 68.2004 89.9998V127.7C68.2004 130.2 70.9004 132 72.3004 132.7L95.8004 146C95.8004 146 98.5004 146.9 100.4 146C101.9 145.3 104.3 144.2 113.6 138.8C125.5 131.9 128.3 130.3 128.3 127.7V114.8V108.6V103C128.3 99.6998 131 96.8998 134.4 96.8998C137.7 96.8998 140.5 99.5998 140.5 103V128C140.4 151.7 121 171.2 97.1004 171.2Z" fill="#DD3C82"/>
<path d="M346.2 158.9V102.9C346.2 101.6 346 100.7 345.6 100.2C345.2 99.6999 344.4 99.3999 343.3 99.3999L338.4 99.0999V89.6999H358V97.1999C359.2 94.8999 361.5 92.7999 364.7 90.7999C367.9 88.8999 371.8 87.8999 376.3 87.8999C390.3 87.8999 397.3 97.6999 397.3 117.3C397.3 127.7 395 135.7 390.5 141.3C385.9 146.9 379.8 149.6 372 149.6C367.4 149.6 363.2 148.5 359.6 146.2V162.2L369 162.7V171.8H339V163L342.8 162.7C344 162.5 344.8 162.2 345.3 161.7C345.9 161.3 346.2 160.3 346.2 158.9ZM382.9 118.5C382.9 105.6 379 99.1999 371.2 99.1999C368 99.1999 365.2 100.2 362.9 102.2C360.6 104.2 359.5 106.5 359.5 109.2V135.8C362.4 137.7 366 138.7 370.2 138.7C374.4 138.7 377.6 136.8 379.7 132.9C381.8 129 382.9 124.2 382.9 118.5Z" fill="white"/>
<path d="M405.5 118.7C405.5 113 406.3 108 408 103.8C409.7 99.5998 412 96.3998 414.8 94.0998C420.3 89.8998 426.3 87.7998 433 87.7998C437.6 87.7998 441.5 88.5998 444.8 90.0998C448 91.5998 450.5 93.2998 452.3 95.2998C454.1 97.2998 455.7 100.1 456.9 103.9C458.2 107.6 458.8 112.1 458.8 117.2C458.8 127.9 456.2 135.9 451 141.4C445.8 146.9 439.2 149.6 431.1 149.6C423 149.6 416.7 147 412.2 141.8C407.8 136.6 405.5 128.9 405.5 118.7ZM432.1 139.5C440.5 139.5 444.7 132.7 444.7 119.1C444.7 112.2 443.8 107 441.9 103.5C440 99.9998 436.8 98.1998 432.4 98.1998C428 98.1998 424.7 99.8998 422.6 103.3C420.5 106.7 419.5 111.3 419.5 117.2C419.5 128.1 421.5 134.9 425.5 137.7C427.3 138.9 429.5 139.5 432.1 139.5Z" fill="white"/>
<path d="M497 98.4998C495.1 97.7998 492.9 97.4998 490.3 97.4998C487.7 97.4998 485.6 98.0998 484 99.2998C482.4 100.5 481.6 102 481.6 103.7C481.6 105.4 481.9 106.8 482.5 107.8C483.1 108.8 484 109.6 485.2 110.3C487.1 111.3 489.4 112.2 492.1 112.9C494.8 113.6 496.8 114.2 498.1 114.6C499.4 115 501.1 115.7 503 116.7C505 117.7 506.5 118.8 507.5 119.9C510.2 122.8 511.6 126.4 511.6 130.9C511.6 136.7 509.5 141.2 505.3 144.5C501.1 147.8 495.7 149.4 489.3 149.4C479.9 149.4 472.8 148.2 468 145.8V129.7L478.4 128.9V134.5C478.4 137.9 481.6 139.6 488.1 139.6C494.6 139.6 497.8 137.2 497.8 132.5C497.8 130.8 497.2 129.4 496.1 128.3C495 127.2 493.9 126.5 492.8 126.1C491.7 125.7 490.4 125.3 488.9 124.9C487.4 124.5 485.9 124.1 484.5 123.7C483.1 123.3 481.5 122.8 479.9 122.1C478.2 121.4 476.4 120.5 474.4 119.3C470.5 116.8 468.5 112.5 468.5 106.5C468.5 100.5 470.6 95.8998 474.9 92.6998C479.1 89.4998 484.5 87.7998 490.9 87.7998C497.3 87.7998 503.7 89.2998 510.1 92.3998V106.3L499.7 107.1V102.2C499.6 100.5 498.7 99.1998 497 98.4998Z" fill="white"/>
<path d="M530.5 77.3999H538V89.6999H553.4L552.2 99.3999H538V129.9C538 133.3 538.6 135.7 539.9 137C541.1 138.4 543 139 545.6 139C548.2 139 550.8 138.2 553.4 136.6L556.9 145.5C553 148.2 548.1 149.6 542.2 149.6C538.7 149.6 535.8 149.2 533.4 148.3C531 147.4 529.2 146.4 528.1 145.3C526.9 144.2 526.1 142.6 525.4 140.6C524.8 138.5 524.4 136.9 524.4 135.7C524.3 134.5 524.3 132.7 524.3 130.4V99.3999H516.1L517.3 90.8999C520.9 90.5999 523.7 89.2999 525.5 86.9999C527.3 84.7999 529 81.5999 530.5 77.3999Z" fill="white"/>
</svg>
