<svg width="559" height="180" viewBox="0 0 559 180" fill="none" xmlns="http://www.w3.org/2000/svg">
<path d="M180.1 118.7C180.1 113 180.9 108 182.6 103.8C184.3 99.5998 186.6 96.3998 189.4 94.0998C194.9 89.8998 200.9 87.7998 207.6 87.7998C212.2 87.7998 216.1 88.5998 219.4 90.0998C222.6 91.5998 225.1 93.2998 226.9 95.2998C228.7 97.2998 230.3 100.1 231.5 103.9C232.8 107.6 233.4 112.1 233.4 117.2C233.4 127.9 230.8 135.9 225.6 141.4C220.4 146.9 213.8 149.6 205.7 149.6C197.6 149.6 191.3 147 186.8 141.8C182.4 136.6 180.1 128.9 180.1 118.7ZM206.7 139.5C215.1 139.5 219.3 132.7 219.3 119.1C219.3 112.2 218.4 107 216.5 103.5C214.6 99.9998 211.4 98.1998 207 98.1998C202.6 98.1998 199.3 99.8998 197.2 103.3C195.1 106.7 194.1 111.3 194.1 117.2C194.1 128.1 196.1 134.9 200.1 137.7C201.9 138.9 204.1 139.5 206.7 139.5Z" fill="white"/>
<path d="M248.4 135V78.6C248.4 77.4 248.2 76.5 247.8 76.1C247.4 75.6 246.6 75.4 245.5 75.3L241.4 75.1V65.5H262V115.6C266.2 115.2 269.9 113.9 273.1 111.7C276.3 109.5 278.4 106.5 279.6 102.9C279.8 102.1 279.9 101.5 279.9 101C279.9 99.7 279.2 99 277.7 99L273.3 98.8V89.8H297.3V99.2L291.7 99.4C290.7 107.3 287.3 113.5 281.5 118L292.8 138.4L299.9 138.7V148H283L270 123.8C267.5 124.5 264.8 125 262.1 125.4V138.3H262.2L268.8 138.6V147.9H241.2V139.1L245 138.8C246.2 138.6 247 138.3 247.5 137.8C248.2 137.3 248.4 136.3 248.4 135Z" fill="white"/>
<path d="M326.6 89.7004V138.3L333.2 138.6V147.9H305.6V139.1L309.4 138.8C311.6 138.6 312.8 137.3 312.8 135.1V102.9C312.8 101.6 312.6 100.7 312.2 100.2C311.8 99.7004 311 99.5004 309.9 99.5004L305.8 99.3004V89.7004H326.6V89.7004ZM312 79.7004C310.4 78.1004 309.6 76.1004 309.6 73.6004C309.6 71.1004 310.4 69.1004 312 67.4004C313.6 65.7004 315.7 64.9004 318.4 64.9004C321 64.9004 323.2 65.7004 324.8 67.4004C326.5 69.1004 327.3 71.1004 327.3 73.6004C327.3 76.1004 326.5 78.1004 324.8 79.7004C323.1 81.3004 321 82.1004 318.4 82.1004C315.7 82.0004 313.6 81.3004 312 79.7004Z" fill="white"/>
<path d="M136 90.5003C136.3 90.2003 136.5 90.0003 136.7 89.7003C138.9 87.0003 139.9 83.5003 139.5 80.1003C139.1 76.6003 137.4 73.5003 134.6 71.3003L115.6 56.2003C102.1 45.1003 86.2999 51.4003 79.6999 56.3003L72.2999 61.4003L86.4999 18.2003C87.4999 15.0003 87.2999 11.6003 85.7999 8.60032C84.2999 5.60032 81.6999 3.40032 78.4999 2.40032C71.8999 0.200315 64.7999 3.80032 62.6999 10.4003L51.1999 45.4003L52.1999 35.4003C52.8999 28.5003 47.7999 22.4003 40.8999 21.7003C34.1999 21.0003 27.9999 26.0003 27.3999 32.9003L24.7999 59.9003C22.1999 55.4003 16.9999 52.7003 11.5999 53.7003C5.5999 54.8003 1.3999 60.1003 1.3999 66.0003V66.1003C1.3999 87.3003 6.8999 119.6 18.7999 140.4C31.9999 163 56.1999 177.1 82.2999 177.5H99.4999V177.4C125.8 176.1 146.9 154.3 146.9 127.7V102.7C146.9 96.6003 142.1 91.3003 136 90.5003ZM121.8 102.9V108.5V114.7V126.2C118.5 128.5 107.5 134.9 101.3 138.3V111.1L122.6 98.6003C122.1 99.9003 121.8 101.4 121.8 102.9ZM74.8999 126.7L74.5999 126.6V99.1003L94.7999 111.1V138L74.8999 126.7ZM98.0999 105.5L74.8999 91.7003L92.6999 81.1003C92.6999 81.1003 95.7999 78.8003 97.4999 79.9003L118.6 91.9003C119 92.2003 119.4 92.5003 119.8 92.7003L98.0999 105.5ZM97.0999 171.2H83.2999C59.1999 171.2 36.7999 158.3 24.5999 137.6C24.5999 137.5 24.4999 137.4 24.4999 137.3C14.9999 120.9 8.2999 92.9003 7.8999 68.6003C7.9999 68.1003 7.9999 67.6003 7.9999 67.1003C7.3999 63.8003 9.5999 60.6003 12.8999 60.0003C14.4999 59.7003 16.0999 60.0003 17.3999 61.0003C18.6999 61.9003 19.5999 63.3003 19.8999 64.9003L25.1999 93.6003C25.4999 95.2003 26.7999 96.2003 28.3999 96.2003C28.5999 96.2003 28.7999 96.2003 28.9999 96.1003C30.7999 95.8003 31.8999 94.1003 31.5999 92.3003L29.3999 80.4003L33.8999 33.4003C34.1999 30.1003 37.1999 27.6003 40.4999 27.9003C43.7999 28.2003 46.2999 31.2003 45.9999 34.5003L41.6999 79.6003C41.4999 81.4003 42.7999 83.0003 44.5999 83.1003C46.3999 83.3003 47.9999 82.0003 48.0999 80.2003L48.6999 74.3003L68.9999 12.4003C69.9999 9.20032 73.4999 7.50032 76.5999 8.50032C78.0999 9.00032 79.3999 10.1003 80.0999 11.5003C80.7999 12.9003 80.9999 14.6003 80.3999 16.1003L62.7999 70.2003C62.1999 71.9003 62.9999 73.6003 64.7999 73.8003C66.6999 74.0003 68.8999 72.2003 68.8999 72.2003L83.5999 61.5003L83.6999 61.4003C83.7999 61.3003 98.6999 50.4003 111.7 61.1003L130.7 76.2003C132.1 77.3003 133 78.9003 133.2 80.6003C133.4 82.3003 132.9 84.1003 131.8 85.5003C130.7 86.9003 129.1 87.8003 127.4 88.0003C125.6 88.2003 123.9 87.7003 122.5 86.6003L122.3 86.4003L101.3 74.4003C96.8999 71.3003 91.8999 73.5003 89.3999 75.5003L70.4999 86.9003C69.1999 87.3003 68.1999 88.5003 68.1999 90.0003V127.7C68.1999 130.2 70.8999 132 72.2999 132.7L95.7999 146C95.7999 146 98.4999 146.9 100.4 146C101.9 145.3 104.3 144.2 113.6 138.8C125.5 131.9 128.3 130.3 128.3 127.7V114.8V108.6V103C128.3 99.7003 131 96.9003 134.4 96.9003C137.7 96.9003 140.5 99.6003 140.5 103V128C140.4 151.7 121 171.2 97.0999 171.2Z" fill="white"/>
<path d="M346.2 158.9V102.9C346.2 101.6 346 100.7 345.6 100.2C345.2 99.7004 344.4 99.4004 343.3 99.4004L338.4 99.1004V89.7004H358V97.2004C359.2 94.9004 361.5 92.8004 364.7 90.8004C367.9 88.9004 371.8 87.9004 376.3 87.9004C390.3 87.9004 397.3 97.7004 397.3 117.3C397.3 127.7 395 135.7 390.5 141.3C385.9 146.9 379.8 149.6 372 149.6C367.4 149.6 363.2 148.5 359.6 146.2V162.2L369 162.7V171.8H339V163L342.8 162.7C344 162.5 344.8 162.2 345.3 161.7C345.9 161.3 346.2 160.3 346.2 158.9ZM382.9 118.5C382.9 105.6 379 99.2004 371.2 99.2004C368 99.2004 365.2 100.2 362.9 102.2C360.6 104.2 359.5 106.5 359.5 109.2V135.8C362.4 137.7 366 138.7 370.2 138.7C374.4 138.7 377.6 136.8 379.7 132.9C381.8 129 382.9 124.2 382.9 118.5Z" fill="white"/>
<path d="M405.5 118.7C405.5 113 406.3 108 408 103.8C409.7 99.5998 412 96.3998 414.8 94.0998C420.3 89.8998 426.3 87.7998 433 87.7998C437.6 87.7998 441.5 88.5998 444.8 90.0998C448 91.5998 450.5 93.2998 452.3 95.2998C454.1 97.2998 455.7 100.1 456.9 103.9C458.2 107.6 458.8 112.1 458.8 117.2C458.8 127.9 456.2 135.9 451 141.4C445.8 146.9 439.2 149.6 431.1 149.6C423 149.6 416.7 147 412.2 141.8C407.8 136.6 405.5 128.9 405.5 118.7ZM432.1 139.5C440.5 139.5 444.7 132.7 444.7 119.1C444.7 112.2 443.8 107 441.9 103.5C440 99.9998 436.8 98.1998 432.4 98.1998C428 98.1998 424.7 99.8998 422.6 103.3C420.5 106.7 419.5 111.3 419.5 117.2C419.5 128.1 421.5 134.9 425.5 137.7C427.3 138.9 429.5 139.5 432.1 139.5Z" fill="white"/>
<path d="M497 98.4998C495.1 97.7998 492.9 97.4998 490.3 97.4998C487.7 97.4998 485.6 98.0998 484 99.2998C482.4 100.5 481.6 102 481.6 103.7C481.6 105.4 481.9 106.8 482.5 107.8C483.1 108.8 484 109.6 485.2 110.3C487.1 111.3 489.4 112.2 492.1 112.9C494.8 113.6 496.8 114.2 498.1 114.6C499.4 115 501.1 115.7 503 116.7C505 117.7 506.5 118.8 507.5 119.9C510.2 122.8 511.6 126.4 511.6 130.9C511.6 136.7 509.5 141.2 505.3 144.5C501.1 147.8 495.7 149.4 489.3 149.4C479.9 149.4 472.8 148.2 468 145.8V129.7L478.4 128.9V134.5C478.4 137.9 481.6 139.6 488.1 139.6C494.6 139.6 497.8 137.2 497.8 132.5C497.8 130.8 497.2 129.4 496.1 128.3C495 127.2 493.9 126.5 492.8 126.1C491.7 125.7 490.4 125.3 488.9 124.9C487.4 124.5 485.9 124.1 484.5 123.7C483.1 123.3 481.5 122.8 479.9 122.1C478.2 121.4 476.4 120.5 474.4 119.3C470.5 116.8 468.5 112.5 468.5 106.5C468.5 100.5 470.6 95.8998 474.9 92.6998C479.1 89.4998 484.5 87.7998 490.9 87.7998C497.3 87.7998 503.7 89.2998 510.1 92.3998V106.3L499.7 107.1V102.2C499.6 100.5 498.7 99.1998 497 98.4998Z" fill="white"/>
<path d="M530.5 77.4004H538V89.7004H553.4L552.2 99.4004H538V129.9C538 133.3 538.6 135.7 539.9 137C541.1 138.4 543 139 545.6 139C548.2 139 550.8 138.2 553.4 136.6L556.9 145.5C553 148.2 548.1 149.6 542.2 149.6C538.7 149.6 535.8 149.2 533.4 148.3C531 147.4 529.2 146.4 528.1 145.3C526.9 144.2 526.1 142.6 525.4 140.6C524.8 138.5 524.4 136.9 524.4 135.7C524.3 134.5 524.3 132.7 524.3 130.4V99.4004H516.1L517.3 90.9004C520.9 90.6004 523.7 89.3004 525.5 87.0004C527.3 84.8004 529 81.6004 530.5 77.4004Z" fill="white"/>
</svg>
