<?xml version="1.0" standalone="no"?>
<!DOCTYPE svg PUBLIC "-//W3C//DTD SVG 20010904//EN"
 "http://www.w3.org/TR/2001/REC-SVG-20010904/DTD/svg10.dtd">
<svg version="1.0" xmlns="http://www.w3.org/2000/svg"
 width="312.000000pt" height="162.000000pt" viewBox="0 0 312.000000 162.000000"
 preserveAspectRatio="xMidYMid meet">

<g transform="translate(0.000000,162.000000) scale(0.100000,-0.100000)"
fill="#000000" stroke="none">
<path d="M373 1280 c-21 -9 -43 -56 -80 -176 -17 -57 -18 -58 -21 -24 -4 59
-11 79 -32 90 -25 13 -70 3 -64 -15 3 -7 14 -11 25 -8 31 9 51 -16 44 -53 -4
-25 0 -42 17 -68 l22 -34 43 124 c49 145 48 144 73 144 42 0 41 -30 -12 -194
-28 -86 -48 -159 -45 -162 3 -3 35 15 72 40 55 38 74 46 112 46 41 0 55 -7
120 -56 55 -42 73 -62 73 -80 0 -30 -11 -30 -39 0 -60 64 -166 75 -244 26 -26
-16 -47 -34 -47 -39 0 -16 18 -22 23 -7 8 21 89 56 129 56 52 0 119 -40 145
-86 27 -46 30 -121 8 -163 -17 -33 -65 -77 -96 -86 -14 -5 -18 -10 -11 -17 14
-14 82 23 108 59 30 40 47 100 41 140 -4 24 -2 33 6 30 16 -5 22 -190 7 -239
-6 -21 -26 -57 -45 -82 -44 -58 -28 -69 19 -14 48 55 66 120 66 235 0 80 -3
96 -20 113 -11 11 -24 20 -30 20 -6 0 -5 9 1 24 20 43 3 70 -82 135 -72 55
-86 61 -128 61 -35 0 -59 -8 -94 -30 -26 -16 -49 -30 -52 -30 -2 0 14 53 36
117 21 64 39 129 39 143 0 48 -42 78 -87 60z"/>
<path d="M1333 943 c-38 -5 -47 -37 -13 -46 19 -5 20 -14 20 -180 0 -166 -1
-175 -20 -180 -11 -3 -20 -12 -20 -21 0 -13 13 -16 75 -16 68 0 75 2 75 20 0
11 -7 20 -15 20 -11 0 -15 12 -15 50 0 46 2 50 23 50 19 0 30 -13 57 -70 l34
-70 48 0 c37 0 48 4 48 16 0 9 -8 18 -18 21 -10 2 -33 33 -51 70 l-32 65 28
44 c15 24 36 47 46 50 9 3 17 15 17 26 0 18 -4 20 -31 14 -17 -3 -49 -6 -70
-6 -32 0 -39 -4 -39 -19 0 -11 7 -21 15 -23 25 -5 -22 -68 -51 -68 l-24 0 0
130 0 130 -27 -2 c-16 0 -43 -3 -60 -5z"/>
<path d="M1691 936 c-7 -8 -11 -27 -9 -43 6 -51 88 -41 88 11 0 42 -53 63 -79
32z"/>
<path d="M564 800 c-11 -4 -26 -22 -33 -38 -7 -16 -24 -35 -39 -42 -15 -7 -22
-15 -15 -17 19 -7 61 26 67 52 7 29 50 44 78 26 10 -6 18 -7 18 -1 0 10 -33
30 -47 29 -4 0 -17 -4 -29 -9z"/>
<path d="M1050 792 c-50 -25 -75 -74 -75 -147 1 -74 22 -117 69 -139 73 -34
163 -10 201 55 27 46 27 141 0 186 -36 60 -125 81 -195 45z m109 -51 c55 -55
27 -201 -38 -201 -10 0 -29 9 -42 19 -21 17 -24 28 -24 91 0 63 3 74 24 91 30
24 56 24 80 0z"/>
<path d="M1683 803 c-38 -5 -47 -37 -13 -46 18 -5 20 -14 20 -107 0 -93 -2
-102 -20 -107 -11 -3 -20 -14 -20 -24 0 -17 8 -19 75 -19 67 0 75 2 75 19 0
11 -8 21 -17 23 -16 3 -18 17 -18 133 l0 130 -25 1 c-14 1 -40 -1 -57 -3z"/>
<path d="M573 744 c-7 -20 17 -37 34 -23 15 13 6 39 -13 39 -8 0 -17 -7 -21
-16z"/>
<path d="M647 728 c-10 -36 -42 -54 -72 -40 -30 14 -67 -9 -47 -29 10 -11 12
-10 12 3 0 12 8 15 43 11 33 -4 46 -1 60 15 10 11 17 31 15 44 -3 22 -4 22
-11 -4z"/>
</g>
</svg>
