<svg width="500" height="500" viewBox="0 0 500 500" fill="none" xmlns="http://www.w3.org/2000/svg">
<path d="M298.276 413.799C277.851 399.475 273.077 372.95 274.005 349.078C274.138 345.099 273.74 340.855 275.597 337.406C277.454 333.958 281.963 331.571 285.544 333.162C288.461 334.621 289.788 337.937 291.512 340.855C293.767 344.701 296.95 347.751 300.796 349.741C303.316 351.067 306.499 351.863 309.018 350.536C312.467 348.68 312.865 343.905 312.865 339.926C312.865 332.499 312.732 325.205 312.732 317.778C312.732 313.799 312.732 309.82 313.926 305.974C315.119 302.261 317.904 298.68 321.618 297.619C325.331 296.558 330.106 298.68 330.902 302.658C331.3 304.25 330.902 305.974 331.034 307.566C331.167 309.157 331.963 311.014 333.422 311.544C335.013 312.075 336.605 310.881 337.798 309.688C341.91 305.709 344.695 300.536 347.215 295.364C349.735 290.192 352.387 285.019 356.101 280.643C359.814 276.266 364.987 272.818 370.69 272.552C376.392 272.287 382.361 275.735 383.82 281.306C385.278 286.876 381.963 292.579 378.515 297.088C373.209 303.852 366.976 309.688 360.079 314.595C358.886 315.523 357.427 316.452 357.029 317.91C356.233 320.563 358.621 323.216 361.273 324.011C364.191 324.94 367.374 324.674 370.557 325.072C373.607 325.47 377.056 326.796 378.117 329.714C379.708 333.826 376.392 338.07 373.077 340.855C366.446 346.425 358.753 350.802 350.663 353.852C347.745 354.913 344.695 355.842 342.308 357.964C339.92 359.953 338.594 363.534 339.92 366.319C341.379 369.104 344.96 370.032 348.011 369.502C351.061 368.971 353.846 367.247 356.764 366.186C362.201 364.064 369.231 364.462 372.679 369.237C374.934 372.287 375.199 376.664 374.005 380.377C372.812 384.091 370.557 387.274 368.037 390.192C359.284 400.404 348.143 408.627 335.544 413.136C322.546 417.247 310.875 418.441 298.276 413.799Z" fill="#DD3D83"/>
<path d="M377.851 275.867C377.851 275.867 377.719 276 377.453 276.265C377.188 276.53 376.79 276.928 376.26 277.326C375.199 278.254 373.74 279.581 371.751 281.437C367.904 285.018 362.467 290.456 356.631 297.75C353.713 301.464 350.663 305.575 347.347 310.085C344.164 314.594 340.716 319.501 337.4 324.674C334.085 329.979 330.636 335.549 327.586 341.65C325.995 344.7 324.668 347.883 323.342 351.066C322.016 354.249 320.557 357.565 319.098 360.88C313.528 374.143 308.488 387.008 304.907 399.077C301.326 411.013 299.204 422.154 298.276 431.57C297.347 440.987 297.48 448.679 297.878 453.984C298.143 456.636 298.276 458.626 298.408 460.085C298.541 460.748 298.541 461.278 298.541 461.676C298.541 462.074 298.541 462.207 298.541 462.207C298.541 462.207 298.541 462.074 298.408 461.676C298.408 461.278 298.276 460.748 298.143 460.085C297.878 458.758 297.613 456.636 297.347 453.984C296.817 448.679 296.552 440.987 297.48 431.57C298.408 422.154 300.398 410.88 303.979 398.944C307.56 386.875 312.467 374.01 318.037 360.748C319.496 357.432 320.822 354.117 322.281 350.933C323.607 347.75 325.066 344.567 326.525 341.517C329.575 335.416 333.024 329.713 336.339 324.541C339.788 319.236 343.103 314.461 346.419 309.952C349.602 305.443 352.785 301.331 355.703 297.618C361.671 290.323 367.109 284.886 371.087 281.437C373.077 279.713 374.668 278.387 375.729 277.459C376.26 277.061 376.658 276.663 376.923 276.398C377.719 275.867 377.851 275.867 377.851 275.867Z" fill="#263238"/>
<path d="M327.188 341.252C327.188 341.252 327.056 340.722 326.79 339.528C326.525 338.467 326.393 336.875 325.995 334.886C325.464 330.907 324.801 325.47 324.271 319.369C323.607 313.268 322.944 307.83 322.414 303.984C322.149 301.995 321.883 300.403 321.618 299.342C321.485 298.281 321.353 297.618 321.353 297.618C321.353 297.618 321.618 298.149 321.883 299.342C322.149 300.403 322.546 301.995 322.812 303.984C323.607 307.963 324.271 313.401 324.934 319.369C325.597 325.337 326.127 330.775 326.525 334.886C326.79 336.743 326.923 338.334 327.056 339.528C327.321 340.589 327.321 341.252 327.188 341.252Z" fill="#263238"/>
<path d="M378.25 331.703C378.25 331.703 377.587 331.836 376.26 331.968C374.934 332.101 373.077 332.234 370.69 332.499C366.048 333.029 359.549 333.958 352.52 335.284C345.491 336.61 339.125 338.069 334.616 339.263C332.361 339.793 330.504 340.324 329.178 340.722C327.852 341.12 327.189 341.252 327.189 341.252C327.189 341.252 327.852 340.987 329.045 340.456C330.239 340.059 332.096 339.395 334.351 338.732C338.86 337.406 345.226 335.815 352.255 334.488C359.284 333.162 365.783 332.366 370.425 331.968C372.812 331.703 374.669 331.703 375.995 331.703C377.454 331.703 378.25 331.703 378.25 331.703Z" fill="#263238"/>
<path d="M305.04 397.884C305.04 397.884 304.907 397.619 304.642 397.221C304.376 396.69 304.111 396.16 303.713 395.364C302.918 393.773 301.989 391.385 300.663 388.468C298.143 382.632 295.093 374.409 291.777 365.391C288.461 356.372 285.411 348.149 283.024 342.181C281.83 339.263 280.902 337.009 280.239 335.285C279.973 334.489 279.708 333.958 279.443 333.428C279.31 333.03 279.177 332.765 279.177 332.765C279.177 332.765 279.31 333.03 279.575 333.428C279.841 333.958 280.106 334.489 280.504 335.285C281.3 336.876 282.228 339.263 283.554 342.181C286.074 348.017 289.124 356.239 292.44 365.258C295.756 374.277 298.806 382.499 301.193 388.335C302.387 391.253 303.315 393.507 303.979 395.231C304.244 396.027 304.509 396.558 304.774 397.088C305.04 397.619 305.04 397.884 305.04 397.884Z" fill="#263238"/>
<path d="M372.811 376.133C372.811 376.133 372.546 376.266 372.148 376.398C371.618 376.531 370.955 376.796 370.159 377.061C368.302 377.592 365.915 378.388 362.864 379.449C356.764 381.438 348.276 384.223 338.992 387.406C329.708 390.589 321.22 393.374 314.987 395.231C311.936 396.16 309.416 396.955 307.692 397.353C306.896 397.618 306.233 397.751 305.703 397.884C305.305 398.016 305.04 398.016 305.04 398.016C305.04 398.016 305.305 397.884 305.703 397.751C306.233 397.618 306.896 397.353 307.692 397.088C309.549 396.557 311.936 395.762 314.987 394.701C321.087 392.711 329.575 389.926 338.859 386.743C348.143 383.56 356.631 380.775 362.732 378.918C365.782 377.99 368.302 377.194 370.026 376.796C370.822 376.531 371.485 376.398 372.016 376.266C372.546 376.133 372.811 376 372.811 376.133Z" fill="#263238"/>
<path d="M345.093 54.3813L338.196 56.7686L335.279 47.8826C329.841 31.437 312.732 22.5511 296.95 28.254C281.167 33.8243 272.812 51.8614 278.117 68.307L281.035 77.193L274.138 79.5802C268.833 81.437 265.915 87.6704 267.772 93.2407L286.737 151.331C288.594 157.034 294.43 159.952 299.867 158.095L370.69 132.763C376.127 130.774 379.045 124.673 377.188 118.97L358.223 60.88C356.499 55.4423 350.531 52.3919 345.093 54.3813ZM291.247 63.6651C288.329 54.6465 292.838 44.8322 301.592 41.6492C310.212 38.5988 319.629 43.3733 322.546 52.3919L325.464 61.2778L294.165 72.4184L291.247 63.6651ZM331.035 115.257L335.942 130.111C336.207 130.774 335.809 131.437 335.146 131.57L328.382 133.957C327.852 134.09 327.188 133.824 327.056 133.294L322.149 118.44C316.844 118.174 312.069 114.726 310.212 109.156C307.825 101.994 311.539 94.1691 318.435 91.6492C325.332 89.1293 332.759 92.9755 335.146 100.27C336.87 105.84 335.013 111.676 331.035 115.257Z" fill="#DD3D83"/>
<path d="M338.063 56.6377C338.063 56.7703 325.464 61.5449 309.681 67.2478C293.899 72.9507 281.034 77.46 281.034 77.1947C281.034 77.0621 293.634 72.2876 309.416 66.5847C325.066 60.8817 337.931 56.5051 338.063 56.6377Z" fill="#263238"/>
<path d="M353.05 59.0234C353.05 59.0234 353.05 59.1561 353.183 59.4213C353.316 59.6866 353.448 60.0844 353.581 60.4823C353.979 61.4107 354.377 62.737 355.04 64.4611C356.233 68.042 357.957 73.0818 360.079 79.3152C362.201 85.5486 364.721 93.1083 367.507 101.331C368.833 105.443 370.424 109.819 371.883 114.328C372.546 116.583 373.077 119.103 372.944 121.623C372.812 122.817 372.546 124.143 371.883 125.336C371.22 126.53 370.424 127.458 369.363 128.254C367.374 129.846 364.987 130.774 362.599 131.702C360.345 132.498 357.957 133.294 355.703 134.222C351.194 135.814 346.949 137.405 342.838 138.864C334.615 141.782 327.188 144.435 320.955 146.689C314.721 148.811 309.682 150.668 306.233 151.862C304.509 152.392 303.183 152.923 302.255 153.188C301.857 153.321 301.459 153.453 301.194 153.586C300.928 153.718 300.796 153.718 300.796 153.718C300.796 153.718 300.928 153.718 301.194 153.586C301.459 153.453 301.857 153.321 302.255 153.188C303.183 152.79 304.509 152.26 306.233 151.729C309.814 150.403 314.721 148.546 320.955 146.291C327.188 144.037 334.615 141.384 342.838 138.334C346.949 136.875 351.326 135.283 355.703 133.692C357.957 132.896 360.212 132.1 362.467 131.172C364.721 130.376 367.109 129.448 368.965 127.856C369.894 127.061 370.69 126.132 371.353 125.071C371.883 124.01 372.281 122.817 372.414 121.623C372.679 119.236 372.148 116.848 371.485 114.594C370.026 110.084 368.568 105.708 367.241 101.596C364.456 93.2409 362.069 85.8139 359.947 79.5805C357.957 73.347 356.233 68.3073 355.04 64.7264C354.509 63.0022 354.111 61.676 353.713 60.615C353.581 60.2171 353.448 59.8192 353.448 59.5539C353.05 59.1561 353.05 59.0234 353.05 59.0234Z" fill="#263238"/>
<path d="M315.65 40.8551C315.65 40.8551 314.987 40.4572 313.66 39.9267C312.334 39.3962 310.345 38.8657 307.825 38.7331C305.305 38.6005 302.254 38.9983 299.337 40.3246C296.286 41.6508 293.368 43.9055 291.246 47.0885C289.124 50.2715 288.196 53.8524 288.196 57.1681C288.196 60.4837 288.859 63.4015 289.522 65.7888C290.185 68.1761 290.981 70.1654 291.379 71.4917C291.91 72.818 292.175 73.6137 292.042 73.6137C292.042 73.6137 291.644 72.9506 291.114 71.6243C290.583 70.2981 289.788 68.4413 288.992 66.054C288.196 63.6668 287.533 60.6164 287.533 57.1681C287.533 53.7198 288.461 50.0063 290.716 46.6906C292.971 43.375 296.021 40.9877 299.204 39.6615C302.387 38.3352 305.437 37.9373 307.957 38.2026C310.477 38.3352 312.467 38.9983 313.793 39.6615C314.456 39.9267 314.987 40.192 315.252 40.4572C315.517 40.7225 315.782 40.7225 315.65 40.8551Z" fill="#263238"/>
<path d="M316.313 92.7111C316.313 92.7111 316.578 92.5784 316.976 92.3132C317.374 92.0479 318.169 91.7827 318.965 91.5174C319.894 91.2522 321.087 90.9869 322.413 90.9869C323.74 90.8543 325.464 91.1195 327.055 91.6501C330.504 92.8437 333.554 96.292 335.146 100.934C335.941 103.189 335.941 105.974 335.146 108.494C334.35 111.146 332.891 113.533 330.769 115.655L330.901 115.257C332.626 120.032 334.615 125.337 336.604 130.775L336.737 131.173L336.339 131.305C335.411 131.57 334.35 131.968 333.289 132.366C331.034 133.162 328.912 133.825 326.657 134.621L326.392 134.754L326.26 134.488C324.403 129.051 322.413 123.746 320.955 118.838L321.22 119.104C318.567 118.971 316.047 117.777 314.058 116.318C312.069 114.86 310.61 113.003 309.549 111.013C308.62 109.024 308.09 106.902 308.09 105.045C308.09 103.189 308.62 101.332 309.151 99.8729C310.344 96.9551 312.201 95.0983 313.66 94.0373C315.384 92.9763 316.313 92.7111 316.313 92.7111C316.313 92.7111 315.517 93.1089 314.191 94.1699C312.864 95.2309 311.14 97.0877 309.947 100.005C308.753 102.791 308.355 106.902 310.344 110.748C311.273 112.605 312.732 114.462 314.721 115.788C316.578 117.247 318.965 118.308 321.485 118.441H321.75V118.706C323.209 123.613 325.199 128.785 327.055 134.356L326.657 134.09C328.779 133.427 331.034 132.631 333.289 131.836C334.35 131.438 335.411 131.173 336.339 130.775L336.074 131.173C334.085 125.735 332.228 120.43 330.371 115.655L330.238 115.523L330.371 115.39C332.36 113.401 333.819 111.013 334.615 108.494C335.278 105.974 335.278 103.454 334.615 101.199C333.156 96.6898 330.238 93.3742 326.923 92.1805C325.331 91.5174 323.74 91.3848 322.413 91.3848C321.087 91.3848 319.894 91.65 318.965 91.9153C317.241 92.3132 316.313 92.7111 316.313 92.7111Z" fill="#263238"/>
<path d="M275.332 475.603L142.838 474.94C126.923 474.808 114.059 461.943 114.059 446.028L115.517 113.932C115.65 98.0171 128.515 85.1523 144.563 85.1523L277.056 85.8155C292.971 85.9481 305.836 98.8128 305.836 114.728L304.377 446.823C304.244 462.871 291.247 475.736 275.332 475.603Z" fill="#455A64"/>
<path d="M276.791 97.2221H251.061C247.613 97.2221 244.828 100.14 244.828 103.721V108.363C244.828 111.944 242.043 114.861 238.595 114.861L188.595 114.596C185.146 114.596 182.361 111.678 182.361 108.097V103.456C182.361 99.8746 179.576 96.9569 176.128 96.9569H167.109L144.695 96.8242C133.555 96.8242 124.404 105.843 124.404 116.983L123.077 441.121C123.077 452.262 132.096 461.413 143.237 461.413L275.465 462.076C286.605 462.076 295.756 453.058 295.756 441.917L297.083 117.779C296.95 106.373 287.931 97.3547 276.791 97.2221Z" fill="white"/>
<path d="M259.019 418.574L160.743 418.176C159.682 418.176 158.886 417.115 158.886 415.657L159.019 389.927C159.019 388.601 159.815 387.407 160.876 387.407L259.152 387.805C260.213 387.805 261.008 388.866 261.008 390.325L260.876 416.054C260.876 417.513 260.08 418.574 259.019 418.574Z" fill="#DD3D83"/>
<path d="M190.035 397.452C190.771 397.455 191.433 397.653 192.021 398.045L191.62 398.888C191.042 398.533 190.488 398.355 189.958 398.352C189.671 398.351 189.444 398.401 189.276 398.503C189.113 398.605 189.031 398.751 189.03 398.941C189.029 399.13 189.104 399.293 189.255 399.429C189.406 399.559 189.595 399.657 189.822 399.723C190.049 399.784 190.295 399.864 190.56 399.962C190.825 400.056 191.071 400.157 191.297 400.266C191.524 400.37 191.71 400.536 191.855 400.764C192.006 400.986 192.081 401.257 192.079 401.576C192.077 402.074 191.875 402.471 191.474 402.767C191.077 403.063 190.563 403.209 189.929 403.206C189.497 403.204 189.077 403.121 188.672 402.957C188.267 402.793 187.914 402.572 187.612 402.295L188.029 401.468C188.315 401.735 188.628 401.942 188.968 402.09C189.314 402.232 189.641 402.304 189.949 402.305C190.285 402.307 190.545 402.249 190.729 402.13C190.919 402.007 191.015 401.837 191.016 401.62C191.017 401.425 190.941 401.263 190.79 401.132C190.64 400.996 190.451 400.898 190.224 400.837C189.997 400.771 189.751 400.694 189.486 400.607C189.221 400.513 188.975 400.418 188.748 400.319C188.522 400.215 188.333 400.052 188.182 399.83C188.032 399.607 187.957 399.339 187.958 399.025C187.96 398.543 188.151 398.16 188.531 397.875C188.911 397.59 189.413 397.449 190.035 397.452ZM194.151 403.193L193.193 403.189L193.217 397.507L194.175 397.511L194.151 403.193ZM200.569 403.223L199.628 403.219L196.617 399.13L196.6 403.205L195.642 403.2L195.666 397.518L196.608 397.523L199.635 401.62L199.652 397.537L200.593 397.541L200.569 403.223ZM205.971 400.456L206.807 400.459L206.798 402.554C206.505 402.774 206.158 402.951 205.757 403.085C205.361 403.218 204.971 403.284 204.587 403.282C203.748 403.278 203.041 402.999 202.464 402.444C201.893 401.884 201.609 401.198 201.612 400.387C201.616 399.575 201.911 398.897 202.497 398.353C203.084 397.804 203.808 397.532 204.668 397.536C205.069 397.537 205.461 397.612 205.844 397.76C206.233 397.903 206.568 398.096 206.848 398.341L206.301 399.045C205.838 398.61 205.292 398.391 204.665 398.388C204.086 398.385 203.595 398.578 203.193 398.965C202.791 399.353 202.589 399.828 202.586 400.391C202.584 400.959 202.782 401.439 203.181 401.831C203.585 402.222 204.077 402.419 204.656 402.422C205.094 402.424 205.53 402.296 205.964 402.038L205.971 400.456ZM215.097 397.608L215.083 400.936C215.08 401.677 214.858 402.261 214.418 402.686C213.978 403.112 213.374 403.323 212.605 403.319C211.837 403.316 211.232 403.099 210.79 402.669C210.353 402.24 210.137 401.655 210.14 400.913L210.154 397.585L211.112 397.59L211.097 400.918C211.095 401.394 211.229 401.77 211.499 402.048C211.773 402.32 212.146 402.457 212.617 402.459C213.082 402.461 213.448 402.327 213.714 402.058C213.986 401.789 214.123 401.413 214.125 400.932L214.139 397.604L215.097 397.608ZM216.466 397.614L218.731 397.625C219.445 397.628 219.996 397.801 220.384 398.144C220.778 398.481 220.973 398.958 220.971 399.575C220.968 400.219 220.769 400.719 220.372 401.074C219.981 401.424 219.428 401.597 218.714 401.594L217.407 401.588L217.4 403.301L216.442 403.296L216.466 397.614ZM217.42 398.479L217.411 400.728L218.677 400.733C219.591 400.738 220.05 400.358 220.054 399.595C220.057 398.859 219.601 398.489 218.686 398.485L217.42 398.479Z" fill="#E8E8E3"/>
<path d="M180.257 192.526L146.172 192.369L146.143 198.603L180.228 198.76L180.257 192.526Z" fill="#DD3D83"/>
<path opacity="0.1" d="M180.257 192.526L146.172 192.369L146.143 198.603L180.228 198.76L180.257 192.526Z" fill="black"/>
<path d="M280.372 230.908C280.372 230.908 280.637 230.908 281.167 230.775C281.698 230.643 282.361 229.98 282.494 229.051C282.494 226.929 282.494 223.879 282.494 219.9C282.494 217.911 282.494 215.656 282.494 213.269C282.494 212.606 282.494 212.075 282.494 211.412C282.494 210.749 282.494 210.218 282.096 209.688C281.698 209.157 281.167 208.892 280.504 208.892C279.841 208.892 279.178 208.892 278.382 208.892C272.679 208.892 266.313 208.892 259.284 208.892C230.902 208.759 191.645 208.627 148.409 208.494C147.878 208.494 147.215 208.759 146.95 209.29C146.552 209.82 146.552 210.351 146.552 211.014C146.552 212.34 146.552 213.667 146.552 214.993C146.552 217.645 146.552 220.298 146.552 222.95C146.552 224.277 146.552 225.603 146.552 226.929C146.552 227.592 146.552 228.255 146.552 228.786C146.685 229.316 147.082 229.714 147.613 229.98C147.878 230.112 148.143 230.112 148.409 230.112H149.337H151.326C152.653 230.112 153.846 230.112 155.173 230.112C165.385 230.112 175.199 230.245 184.616 230.245C203.316 230.377 220.292 230.51 234.483 230.51C248.674 230.643 260.08 230.775 268.037 230.775C272.016 230.775 275.066 230.908 277.188 230.908C278.249 230.908 279.045 230.908 279.576 230.908C279.974 230.908 280.372 230.908 280.372 230.908C280.372 230.908 280.106 230.908 279.576 230.908C279.045 230.908 278.249 230.908 277.188 230.908C275.066 230.908 272.016 230.908 268.037 230.908C260.08 230.908 248.541 230.908 234.35 230.908C220.159 230.908 203.183 230.775 184.483 230.775C175.066 230.775 165.252 230.643 155.04 230.643C153.714 230.643 152.52 230.643 151.194 230.643H149.204H148.276C147.878 230.643 147.48 230.643 147.215 230.51C146.552 230.245 146.021 229.582 145.756 228.919C145.624 228.521 145.624 228.123 145.624 227.858V226.929C145.624 225.603 145.624 224.277 145.624 222.95C145.624 220.298 145.624 217.645 145.624 214.993C145.624 213.667 145.624 212.34 145.624 211.014C145.624 210.616 145.624 210.351 145.624 209.953C145.624 209.555 145.889 209.157 146.021 208.892C146.419 208.229 147.215 207.831 148.011 207.831C191.379 208.096 230.504 208.229 258.886 208.494C265.915 208.494 272.414 208.627 277.984 208.627C278.647 208.627 279.443 208.627 280.106 208.627C280.902 208.627 281.565 209.025 281.963 209.555C282.361 210.086 282.361 210.881 282.361 211.545C282.361 212.208 282.361 212.738 282.361 213.401C282.361 215.789 282.361 218.043 282.361 220.033C282.361 224.011 282.228 227.062 282.228 229.184C282.096 230.245 281.3 230.908 280.769 231.041C280.637 231.041 280.372 230.908 280.372 230.908Z" fill="#E0E0E0"/>
<path d="M217.656 216.73L155.322 216.442L155.295 222.278L217.63 222.566L217.656 216.73Z" fill="#DD3D83"/>
<path opacity="0.2" d="M217.656 216.73L155.322 216.442L155.295 222.278L217.63 222.566L217.656 216.73Z" fill="white"/>
<path d="M179.991 249.691L145.906 249.533L145.877 255.767L179.962 255.924L179.991 249.691Z" fill="#DD3D83"/>
<path opacity="0.1" d="M179.991 249.691L145.906 249.533L145.877 255.767L179.962 255.924L179.991 249.691Z" fill="black"/>
<path d="M279.443 288.069C279.443 288.069 279.709 288.069 280.239 287.936C280.77 287.803 281.433 287.406 281.963 286.477C282.228 285.947 282.228 285.416 282.228 284.753C282.228 284.09 282.228 283.427 282.228 282.631C282.228 281.04 282.228 279.315 282.228 277.326C282.228 275.337 282.228 273.082 282.228 270.695C282.228 270.032 282.228 269.501 282.228 268.838C282.228 268.175 282.228 267.644 281.831 267.114C281.565 266.583 281.035 266.185 280.372 266.053C279.841 265.92 279.045 265.92 278.382 265.92C272.812 265.92 266.313 265.92 259.284 265.92C231.035 265.788 191.91 265.655 148.807 265.522C147.613 265.522 146.552 266.451 146.419 267.644C146.419 268.971 146.419 270.297 146.419 271.623C146.419 274.276 146.419 276.928 146.419 279.581C146.419 280.907 146.419 282.233 146.419 283.559C146.419 284.223 146.287 284.886 146.552 285.416C146.685 285.947 147.083 286.477 147.48 286.742C148.011 287.008 148.541 287.14 149.072 287.14H151.061C152.388 287.14 153.581 287.14 154.907 287.14C165.12 287.14 174.934 287.273 184.218 287.273C202.918 287.406 219.762 287.538 233.953 287.538C248.144 287.671 259.549 287.803 267.507 287.803C271.486 287.803 274.536 287.936 276.658 287.936C277.719 287.936 278.515 287.936 279.045 287.936C279.178 288.069 279.443 288.069 279.443 288.069C279.443 288.069 279.178 288.069 278.648 288.069C278.117 288.069 277.321 288.069 276.26 288.069C274.138 288.069 271.088 288.069 267.109 288.069C259.152 288.069 247.746 288.069 233.555 288.069C219.364 288.069 202.52 287.936 183.82 287.936C174.403 287.936 164.589 287.803 154.51 287.803C153.183 287.803 151.99 287.803 150.663 287.803H148.674C148.011 287.803 147.215 287.671 146.685 287.273C146.022 286.875 145.624 286.212 145.491 285.549C145.358 284.753 145.358 284.223 145.358 283.559C145.358 282.233 145.358 280.907 145.358 279.581C145.358 276.928 145.358 274.276 145.358 271.623C145.358 270.297 145.358 268.971 145.358 267.512C145.491 265.92 146.95 264.727 148.409 264.727C191.512 264.992 230.637 265.124 258.886 265.39C265.915 265.39 272.414 265.522 277.984 265.522C278.648 265.522 279.443 265.39 280.106 265.655C280.77 265.92 281.433 266.318 281.698 266.981C282.096 267.512 282.096 268.307 282.096 268.971C282.096 269.634 282.096 270.164 282.096 270.827C282.096 273.215 282.096 275.469 282.096 277.459C282.096 279.448 282.096 281.172 282.096 282.764C282.096 283.559 282.096 284.223 282.096 284.886C282.096 285.549 282.096 286.079 281.831 286.61C281.3 287.538 280.504 287.936 280.106 288.069C279.709 288.069 279.443 288.069 279.443 288.069Z" fill="#E0E0E0"/>
<path d="M179.726 309.239L145.641 309.082L145.612 315.315L179.697 315.472L179.726 309.239Z" fill="#DD3D83"/>
<path opacity="0.1" d="M179.726 309.239L145.641 309.082L145.612 315.315L179.697 315.472L179.726 309.239Z" fill="black"/>
<path d="M279.178 347.619C279.178 347.619 279.443 347.619 279.974 347.486C280.504 347.353 281.167 346.955 281.698 346.027C281.963 345.497 281.963 344.966 281.963 344.303C281.963 343.64 281.963 342.977 281.963 342.181C281.963 340.589 281.963 338.865 281.963 336.876C281.963 334.886 281.963 332.632 281.963 330.245C281.963 329.581 281.963 329.051 281.963 328.388C281.963 327.725 281.963 327.194 281.565 326.664C281.3 326.133 280.769 325.735 280.106 325.603C279.576 325.47 278.78 325.47 278.117 325.47C272.547 325.47 266.048 325.47 259.019 325.47C230.769 325.337 191.645 325.205 148.541 325.072C147.348 325.072 146.287 326 146.154 327.194C146.154 328.52 146.154 329.847 146.154 331.173C146.154 333.825 146.154 336.478 146.154 339.13C146.154 340.457 146.154 341.783 146.154 343.109C146.154 343.772 146.021 344.435 146.287 344.966C146.419 345.496 146.817 346.027 147.215 346.292C147.746 346.558 148.276 346.69 148.807 346.69H150.796C152.122 346.69 153.316 346.69 154.642 346.69C164.854 346.69 174.669 346.823 183.952 346.823C202.653 346.955 219.496 347.088 233.687 347.088C247.878 347.221 259.284 347.353 267.242 347.353C271.22 347.353 274.271 347.486 276.393 347.486C277.454 347.486 278.25 347.486 278.78 347.486C278.913 347.619 279.178 347.619 279.178 347.619C279.178 347.619 278.913 347.619 278.382 347.619C277.852 347.619 277.056 347.619 275.995 347.619C273.873 347.619 270.822 347.619 266.844 347.619C258.886 347.619 247.48 347.619 233.289 347.619C219.098 347.619 202.255 347.486 183.555 347.486C174.138 347.486 164.324 347.353 154.244 347.353C152.918 347.353 151.724 347.353 150.398 347.353H148.409C147.746 347.353 146.95 347.221 146.419 346.823C145.756 346.425 145.358 345.762 145.226 345.099C145.093 344.303 145.093 343.772 145.093 343.109C145.093 341.783 145.093 340.457 145.093 339.13C145.093 336.478 145.093 333.825 145.093 331.173C145.093 329.847 145.093 328.52 145.093 327.061C145.226 325.47 146.685 324.276 148.143 324.276C191.247 324.542 230.372 324.674 258.621 324.939C265.65 324.939 272.149 325.072 277.719 325.072C278.382 325.072 279.178 324.939 279.841 325.205C280.504 325.47 281.167 325.868 281.433 326.531C281.83 327.061 281.83 327.857 281.83 328.52C281.83 329.184 281.83 329.714 281.83 330.377C281.83 332.764 281.83 335.019 281.83 337.008C281.83 338.998 281.83 340.722 281.83 342.313C281.83 343.109 281.83 343.772 281.83 344.435C281.83 345.099 281.83 345.762 281.565 346.16C281.035 347.088 280.239 347.486 279.841 347.619C279.443 347.619 279.178 347.619 279.178 347.619Z" fill="#E0E0E0"/>
<path d="M217.391 273.894L155.057 273.606L155.03 279.442L217.364 279.73L217.391 273.894Z" fill="#DD3D83"/>
<path opacity="0.2" d="M217.391 273.894L155.057 273.606L155.03 279.442L217.364 279.73L217.391 273.894Z" fill="white"/>
<path d="M160.743 336.744C160.743 338.335 159.549 339.662 157.958 339.662C156.499 339.662 155.172 338.335 155.305 336.744C155.305 335.152 156.499 333.826 158.09 333.826C159.549 333.826 160.743 335.152 160.743 336.744Z" fill="#DD3D83"/>
<path d="M169.231 336.875C169.231 338.466 168.037 339.793 166.446 339.793C164.987 339.793 163.66 338.466 163.793 336.875C163.793 335.283 164.987 333.957 166.578 333.957C168.037 333.957 169.231 335.283 169.231 336.875Z" fill="#DD3D83"/>
<path d="M177.719 336.875C177.719 338.466 176.526 339.793 174.934 339.793C173.475 339.793 172.149 338.466 172.282 336.875C172.282 335.283 173.475 333.957 175.067 333.957C176.393 333.957 177.719 335.283 177.719 336.875Z" fill="#DD3D83"/>
<path d="M186.075 336.875C186.075 338.466 184.881 339.793 183.289 339.793C181.83 339.793 180.504 338.466 180.637 336.875C180.637 335.283 181.83 333.957 183.422 333.957C184.881 333.957 186.075 335.283 186.075 336.875Z" fill="#DD3D83"/>
<path d="M194.563 337.009C194.563 338.6 193.369 339.926 191.777 339.926C190.319 339.926 188.992 338.6 189.125 337.009C189.125 335.417 190.319 334.091 191.91 334.091C193.369 334.091 194.563 335.284 194.563 337.009Z" fill="#DD3D83"/>
<path d="M203.051 337.009C203.051 338.6 201.857 339.926 200.265 339.926C198.807 339.926 197.48 338.6 197.613 337.009C197.613 335.417 198.807 334.091 200.398 334.091C201.857 334.091 203.051 335.417 203.051 337.009Z" fill="#DD3D83"/>
<path d="M211.406 337.009C211.406 338.6 210.212 339.926 208.621 339.926C207.162 339.926 205.836 338.6 205.968 337.009C205.968 335.417 207.162 334.091 208.754 334.091C210.212 334.091 211.539 335.417 211.406 337.009Z" fill="#DD3D83"/>
<path d="M219.894 337.009C219.894 338.6 218.7 339.926 217.109 339.926C215.65 339.926 214.324 338.6 214.456 337.009C214.456 335.417 215.65 334.091 217.242 334.091C218.7 334.091 219.894 335.417 219.894 337.009Z" fill="#DD3D83"/>
<path d="M228.382 337.14C228.382 338.732 227.189 340.058 225.597 340.058C224.138 340.058 222.812 338.732 222.945 337.14C222.945 335.549 224.138 334.223 225.73 334.223C227.189 334.223 228.382 335.549 228.382 337.14Z" fill="#DD3D83"/>
<g opacity="0.2">
<g opacity="0.2">
<path opacity="0.2" d="M160.743 336.744C160.743 338.335 159.549 339.662 157.958 339.662C156.499 339.662 155.172 338.335 155.305 336.744C155.305 335.152 156.499 333.826 158.09 333.826C159.549 333.826 160.743 335.152 160.743 336.744Z" fill="white"/>
</g>
<g opacity="0.2">
<path opacity="0.2" d="M169.231 336.875C169.231 338.466 168.037 339.793 166.446 339.793C164.987 339.793 163.66 338.466 163.793 336.875C163.793 335.283 164.987 333.957 166.578 333.957C168.037 333.957 169.231 335.283 169.231 336.875Z" fill="white"/>
</g>
<g opacity="0.2">
<path opacity="0.2" d="M177.719 336.875C177.719 338.466 176.526 339.793 174.934 339.793C173.475 339.793 172.149 338.466 172.282 336.875C172.282 335.283 173.475 333.957 175.067 333.957C176.393 333.957 177.719 335.283 177.719 336.875Z" fill="white"/>
</g>
<g opacity="0.2">
<path opacity="0.2" d="M186.075 336.875C186.075 338.466 184.881 339.793 183.289 339.793C181.83 339.793 180.504 338.466 180.637 336.875C180.637 335.283 181.83 333.957 183.422 333.957C184.881 333.957 186.075 335.283 186.075 336.875Z" fill="white"/>
</g>
<g opacity="0.2">
<path opacity="0.2" d="M194.563 337.009C194.563 338.6 193.369 339.926 191.777 339.926C190.319 339.926 188.992 338.6 189.125 337.009C189.125 335.417 190.319 334.091 191.91 334.091C193.369 334.091 194.563 335.284 194.563 337.009Z" fill="white"/>
</g>
<g opacity="0.2">
<path opacity="0.2" d="M203.051 337.009C203.051 338.6 201.857 339.926 200.265 339.926C198.807 339.926 197.48 338.6 197.613 337.009C197.613 335.417 198.807 334.091 200.398 334.091C201.857 334.091 203.051 335.417 203.051 337.009Z" fill="white"/>
</g>
<g opacity="0.2">
<path opacity="0.2" d="M211.406 337.009C211.406 338.6 210.212 339.926 208.621 339.926C207.162 339.926 205.836 338.6 205.968 337.009C205.968 335.417 207.162 334.091 208.754 334.091C210.212 334.091 211.539 335.417 211.406 337.009Z" fill="white"/>
</g>
<g opacity="0.2">
<path opacity="0.2" d="M219.894 337.009C219.894 338.6 218.7 339.926 217.109 339.926C215.65 339.926 214.324 338.6 214.456 337.009C214.456 335.417 215.65 334.091 217.242 334.091C218.7 334.091 219.894 335.417 219.894 337.009Z" fill="white"/>
</g>
<g opacity="0.2">
<path opacity="0.2" d="M228.382 337.14C228.382 338.732 227.189 340.058 225.597 340.058C224.138 340.058 222.812 338.732 222.945 337.14C222.945 335.549 224.138 334.223 225.73 334.223C227.189 334.223 228.382 335.549 228.382 337.14Z" fill="white"/>
</g>
</g>
<path d="M216.313 145.63C218.037 144.834 219.364 142.977 219.364 140.855C219.364 138.07 217.242 135.683 214.589 135.683C211.937 135.683 209.815 137.937 209.682 140.855C209.682 143.11 211.008 144.966 212.732 145.63C205.305 146.691 205.703 154.781 205.703 154.781L223.21 154.913C223.342 154.913 223.74 146.691 216.313 145.63Z" fill="#DD3D83"/>
<path opacity="0.1" d="M216.313 145.63C218.037 144.834 219.364 142.977 219.364 140.855C219.364 138.07 217.242 135.683 214.589 135.683C211.937 135.683 209.815 137.937 209.682 140.855C209.682 143.11 211.008 144.966 212.732 145.63C205.305 146.691 205.703 154.781 205.703 154.781L223.21 154.913C223.342 154.913 223.74 146.691 216.313 145.63Z" fill="black"/>
<path d="M244.848 160.232L182.249 159.943L182.215 167.37L244.814 167.659L244.848 160.232Z" fill="#DD3D83"/>
<path opacity="0.2" d="M244.848 160.232L182.249 159.943L182.215 167.37L244.814 167.659L244.848 160.232Z" fill="white"/>
</svg>
