<svg width="2113" height="1902" viewBox="0 0 2113 1902" fill="none" xmlns="http://www.w3.org/2000/svg">
<path fill-rule="evenodd" clip-rule="evenodd" d="M1929.45 1014.12C1929.45 1495.39 1501.96 1885.26 974.228 1885.26C446.497 1885.26 19.0013 1495.39 19.0013 1014.12C18.1446 532.841 445.641 0 973.371 0C1501.1 0 1929.45 532.841 1929.45 1014.12Z" fill="white"/>
<path d="M1133.16 1585.81C1090.79 1581.25 1038.65 1568.86 986.503 1549.96C918.714 1525.19 795.519 1467.83 726.426 1362.89L730.989 1359.63C848.317 1538.23 1145.55 1602.76 1206.82 1574.73C1229.63 1564.3 1249.19 1550.61 1264.18 1534.97C1263.53 1534.97 1263.53 1534.32 1262.88 1534.32C1217.9 1507.59 1200.95 1469.79 1217.25 1433.28C1230.28 1404.6 1262.22 1385.05 1284.39 1392.22C1301.33 1398.08 1311.76 1414.38 1312.41 1437.19C1313.72 1466.53 1300.68 1502.38 1273.31 1533.66C1374.34 1590.37 1513.83 1606.02 1515.78 1606.67L1515.13 1612.53C1513.83 1612.53 1371.73 1596.24 1269.39 1538.23C1253.75 1554.52 1233.54 1569.51 1209.43 1580.59C1193.13 1587.11 1166.41 1589.07 1133.16 1585.81ZM1277.22 1396.13C1258.31 1394.17 1234.2 1411.12 1223.11 1435.24C1215.94 1451.53 1205.52 1492.6 1266.13 1529.1C1266.79 1529.75 1268.09 1530.4 1268.74 1530.4C1295.47 1500.42 1308.5 1465.87 1307.2 1437.19C1305.9 1416.99 1297.42 1402 1283.08 1397.43C1280.48 1396.78 1279.17 1396.78 1277.22 1396.13Z" fill="url(#paint0_linear)"/>
<path fill-rule="evenodd" clip-rule="evenodd" d="M1389.98 1828.93C1354.78 1810.03 1331.32 1800.25 1303.94 1774.18C1303.94 1774.18 1554.24 1818.51 1723.06 1797L2103.73 1845.88C2104.38 1845.23 1820.84 1949.52 1389.98 1828.93Z" fill="url(#paint1_linear)"/>
<path fill-rule="evenodd" clip-rule="evenodd" d="M1389.98 1828.94C1389.98 1828.94 1803.24 1940.4 2104.38 1845.23C2104.38 1845.23 2116.11 1856.31 2112.2 1875.87C2112.2 1875.87 1766.73 1950.83 1387.37 1845.88C1388.02 1845.88 1386.72 1837.41 1389.98 1828.94Z" fill="url(#paint2_linear)"/>
<path d="M1303.94 1774.18C1303.94 1774.18 1298.73 1785.26 1300.68 1798.95L1387.37 1845.88L1389.33 1828.28C1389.98 1828.93 1329.36 1796.34 1303.94 1774.18Z" fill="#8E003E"/>
<path opacity="0.45" fill-rule="evenodd" clip-rule="evenodd" d="M1495.58 1797.65C1559.45 1828.93 1628.55 1851.75 1702.86 1868.04C1702.86 1868.04 1788.9 1875.87 1829.96 1866.09L1644.19 1802.86C1644.84 1802.21 1523.6 1798.95 1495.58 1797.65Z" fill="#791B36"/>
<path fill-rule="evenodd" clip-rule="evenodd" d="M1859.29 1728.56C1859.29 1728.56 1852.12 1754.64 1830.61 1772.24C1830.61 1772.24 1794.11 1797.01 1689.17 1759.2C1587.48 1722.05 1489.71 1633.4 1489.71 1633.4L1479.93 1595.59C1479.93 1595.59 1571.84 1578.65 1644.84 1618.41C1717.2 1658.82 1816.93 1729.22 1859.29 1728.56Z" fill="url(#paint3_linear)"/>
<path fill-rule="evenodd" clip-rule="evenodd" d="M1815.62 1746.16C1727.63 1741.6 1670.26 1640.56 1592.7 1613.84C1532.08 1592.33 1482.54 1595.59 1478.63 1595.59C1519.04 1576.03 1646.15 1549.31 1749.14 1595.59C1811.71 1623.62 1856.69 1678.37 1859.29 1713.57C1859.29 1714.87 1859.29 1716.17 1859.29 1716.83C1859.29 1717.48 1859.29 1717.48 1859.29 1718.13C1859.29 1736.38 1845.61 1748.11 1815.62 1746.16Z" fill="url(#paint4_linear)"/>
<path d="M1566.62 1606.02L1565.97 1604.71C1603.13 1587.11 1649.41 1575.38 1683.3 1574.08V1575.38C1649.41 1576.69 1603.78 1588.42 1566.62 1606.02Z" fill="url(#paint5_linear)"/>
<path fill-rule="evenodd" clip-rule="evenodd" d="M1569.23 1576.69C1569.23 1576.69 1623.33 1576.04 1662.44 1599.5L1691.77 1592.98C1691.77 1592.98 1645.49 1570.82 1584.88 1574.73L1569.23 1576.69Z" fill="url(#paint6_linear)"/>
<path fill-rule="evenodd" clip-rule="evenodd" d="M1663.09 1599.5L1676.13 1596.24C1676.13 1596.24 1646.8 1555.82 1589.44 1576.03L1654.62 1594.28L1663.09 1599.5Z" fill="url(#paint7_linear)"/>
<path fill-rule="evenodd" clip-rule="evenodd" d="M1654.62 1594.93C1654.62 1594.93 1633.11 1564.3 1584.88 1577.33L1654.62 1594.93Z" fill="url(#paint8_linear)"/>
<path d="M1799.98 1756.59C1750.44 1751.38 1705.46 1712.92 1664.4 1677.07C1642.89 1658.82 1622.68 1641.22 1603.78 1629.49C1550.33 1597.55 1481.89 1601.46 1481.24 1601.46V1600.15C1481.89 1600.15 1550.33 1595.59 1604.43 1628.18C1623.98 1639.91 1644.19 1656.86 1665.7 1675.77C1719.8 1722.7 1781.73 1775.49 1850.82 1747.47L1851.47 1748.77C1833.22 1756.59 1816.27 1758.55 1799.98 1756.59Z" fill="#5E3075"/>
<path opacity="0.5" fill-rule="evenodd" clip-rule="evenodd" d="M1688.52 1759.19L1719.15 1701.83C1719.15 1701.83 1746.53 1726.6 1777.82 1737.68L1747.18 1775.49C1747.18 1776.14 1717.2 1770.93 1688.52 1759.19Z" fill="url(#paint9_linear)"/>
<path fill-rule="evenodd" clip-rule="evenodd" d="M1815.62 1746.16C1727.63 1741.6 1670.26 1640.57 1592.7 1613.84C1532.08 1592.33 1482.54 1595.59 1478.63 1595.59C1483.19 1594.94 1545.11 1587.77 1610.95 1615.15C1685.91 1646.43 1725.67 1726.61 1798.67 1740.3C1855.38 1750.73 1858.64 1728.56 1859.95 1718.79C1859.29 1736.39 1845.61 1748.12 1815.62 1746.16Z" fill="url(#paint10_linear)"/>
<path opacity="0.5" fill-rule="evenodd" clip-rule="evenodd" d="M1577.71 1608.62L1578.36 1603.41C1578.36 1603.41 1611.6 1610.58 1642.24 1630.79L1636.37 1636.65C1636.37 1636.65 1607.69 1614.49 1577.71 1608.62Z" fill="#5656B1"/>
<path fill-rule="evenodd" clip-rule="evenodd" d="M1479.28 1595.59C1479.28 1595.59 1540.55 1592.98 1599.87 1619.7C1662.44 1647.73 1711.98 1714.87 1773.25 1737.03C1773.25 1737.03 1737.4 1723.34 1695.03 1684.89C1653.32 1645.78 1608.99 1593.63 1479.28 1595.59Z" fill="#DEDDE7"/>
<path fill-rule="evenodd" clip-rule="evenodd" d="M1690.47 1597.55C1693.73 1598.85 1695.69 1600.8 1695.03 1602.76C1694.38 1604.72 1691.12 1604.72 1687.86 1604.06C1684.61 1602.76 1682.65 1600.8 1683.3 1598.85C1683.95 1596.89 1687.21 1596.24 1690.47 1597.55Z" fill="white"/>
<path fill-rule="evenodd" clip-rule="evenodd" d="M1708.72 1606.02C1707.42 1611.23 1697.64 1613.19 1687.21 1610.58C1676.78 1607.97 1668.96 1600.8 1670.92 1595.59C1672.22 1590.38 1682 1588.42 1692.43 1591.03C1702.85 1594.29 1710.02 1600.8 1708.72 1606.02Z" fill="url(#paint11_radial)"/>
<path fill-rule="evenodd" clip-rule="evenodd" d="M268.848 307.582C268.848 307.582 249.293 314.752 229.087 336.262C229.087 336.262 206.273 389.06 277.321 488.137C348.37 587.214 409.641 581.348 409.641 581.348C409.641 581.348 438.973 568.311 453.314 544.846L268.848 307.582Z" fill="url(#paint12_linear)"/>
<path fill-rule="evenodd" clip-rule="evenodd" d="M301.436 470.533C252.55 402.743 238.21 329.739 268.845 307.577C299.481 285.415 364.011 322.569 412.898 390.359C461.785 458.148 476.125 531.152 445.489 553.314C414.202 575.476 349.671 538.322 301.436 470.533Z" fill="url(#paint13_linear)"/>
<path fill-rule="evenodd" clip-rule="evenodd" d="M390.737 551.364L339.895 318.664C339.895 318.664 309.259 299.761 293.615 301.064L345.761 520.729C345.761 520.729 370.53 544.194 390.737 551.364Z" fill="#FBF9FA"/>
<path fill-rule="evenodd" clip-rule="evenodd" d="M309.259 465.322C266.89 406.658 253.202 343.431 276.016 320.617C277.319 319.314 278.623 318.662 279.927 317.358C307.955 297.152 366.619 331.047 410.943 392.97C455.267 454.893 468.304 520.727 440.275 540.933C438.972 541.585 437.668 542.889 436.364 543.541C406.38 557.229 351.627 523.986 309.259 465.322Z" fill="url(#paint14_linear)"/>
<path fill-rule="evenodd" clip-rule="evenodd" d="M309.259 465.318C266.89 406.654 253.202 343.428 276.016 320.614C305.348 306.274 360.753 339.517 402.469 398.833C444.186 458.148 458.526 520.723 435.712 543.537C406.38 557.225 351.627 523.982 309.259 465.318Z" fill="url(#paint15_linear)"/>
<path d="M325.556 384.5C327.511 383.196 326.859 383.848 329.467 383.196C332.074 382.544 356.191 394.929 359.45 394.277L350.977 400.795C349.021 400.144 347.066 400.144 345.11 400.144C343.155 400.144 341.851 400.795 340.548 400.795C339.244 401.447 337.288 401.447 335.985 402.099C334.681 403.403 334.029 405.358 334.029 407.965C334.029 410.573 335.333 413.18 337.288 415.787C339.244 418.395 341.199 420.35 343.155 421.654C345.11 422.957 347.718 423.609 350.325 424.913C352.932 425.565 355.539 426.216 358.147 426.868C360.754 427.52 363.361 428.172 366.62 429.476C369.228 430.779 372.487 432.083 375.094 434.038C377.701 435.994 380.961 439.253 383.568 442.512C386.175 446.423 388.131 449.682 389.434 452.941C390.738 456.2 391.39 459.459 391.39 462.067C391.39 464.674 390.738 467.281 390.086 469.889C389.434 472.496 396.604 467.933 395.301 469.889L419.418 502.48L403.774 513.561L381.612 480.97C381.612 480.97 380.961 481.621 379.657 482.273C379.005 482.925 377.701 483.577 376.398 483.577C375.094 484.229 373.139 484.229 371.835 484.881C369.88 484.881 367.924 484.881 365.969 484.229L353.584 465.978C356.191 466.629 358.799 466.63 360.754 466.63C362.71 466.63 364.665 465.978 366.62 465.326C368.576 464.674 369.88 464.022 371.835 463.37C373.139 459.459 372.487 456.2 369.88 452.289C368.576 450.334 366.62 449.03 364.665 447.727C362.71 446.423 360.102 445.771 357.495 444.468C354.888 443.816 352.28 442.512 349.021 441.86C345.762 441.208 343.155 439.905 339.896 437.949C336.637 436.646 334.029 434.69 330.77 432.083C327.511 429.476 324.904 426.868 322.297 422.957C317.734 416.439 315.126 410.573 315.126 404.706C314.475 398.84 315.778 394.277 318.386 390.366L294.92 359.079L303.394 352.561L325.556 384.5Z" fill="url(#paint16_linear)"/>
<path d="M331.421 379.283C333.376 377.979 335.984 377.327 338.591 376.675C341.198 376.023 344.457 375.372 347.717 374.72L359.449 393.623C357.494 392.971 355.538 392.971 353.583 392.971C351.627 392.971 350.324 393.623 349.02 393.623C347.717 394.274 345.761 394.274 344.457 394.926C343.154 396.23 342.502 398.185 342.502 400.793C342.502 403.4 343.806 406.007 345.761 408.615C347.717 411.222 349.672 413.177 351.627 414.481C353.583 415.785 356.19 416.436 358.798 417.74C361.405 418.392 364.012 419.044 366.619 419.696C369.227 420.347 371.834 420.999 375.093 422.303C377.7 423.606 380.96 424.91 383.567 426.866C386.174 428.821 389.433 432.08 392.04 435.339C394.648 439.25 396.603 442.509 397.907 445.768C399.211 449.028 399.862 452.287 399.862 454.894C399.862 457.501 399.211 460.109 398.559 462.716C397.907 465.323 396.603 467.279 395.3 468.582L419.417 501.173L412.247 505.736L390.085 473.145C390.085 473.145 389.433 473.797 388.13 474.449C387.478 475.1 386.174 475.752 384.87 475.752C383.567 476.404 381.611 476.404 380.308 477.056C378.352 477.056 376.397 477.056 374.441 476.404L362.057 458.153C364.664 458.805 367.271 458.805 369.227 458.805C371.182 458.805 373.138 458.153 375.093 457.501C377.049 456.849 378.352 456.198 380.308 455.546C381.611 451.635 380.959 448.376 378.352 444.465C377.049 442.509 375.093 441.206 373.138 439.902C371.182 438.598 368.575 437.947 365.968 436.643C363.36 435.991 360.753 434.687 357.494 434.036C354.235 433.384 351.627 432.08 348.368 430.125C345.109 428.821 342.502 426.866 339.243 424.258C335.984 421.651 333.376 419.044 330.769 415.133C326.206 408.615 323.599 402.748 323.599 396.882C322.947 391.015 324.251 386.453 326.858 382.542L303.393 351.254L310.563 346.691L331.421 379.283Z" fill="url(#paint17_linear)"/>
<path d="M361.405 460.111L352.932 465.978L364.664 484.881L373.79 478.362L361.405 460.111Z" fill="#D03B48"/>
<path d="M317.081 391.015L325.555 384.496L302.741 353.209L293.615 359.075L317.081 391.015Z" fill="#D03B48"/>
<path d="M380.307 481.614L388.78 475.096L411.594 508.339L402.469 514.205L380.307 481.614Z" fill="#D03B48"/>
<path d="M390.736 551.358L365.966 568.958C365.966 568.958 342.501 559.18 321.643 538.322L345.76 520.723C345.76 520.723 369.877 544.188 390.736 551.358Z" fill="#FBE569"/>
<path d="M254.506 331.045L225.826 351.251C225.826 351.251 224.522 363.636 226.478 374.065L253.203 359.725C253.203 359.725 250.595 342.126 254.506 331.045Z" fill="#FBE569"/>
<path fill-rule="evenodd" clip-rule="evenodd" d="M460.483 501.83C460.483 501.83 447.447 526.599 455.92 539.636C456.572 539.636 464.394 523.34 460.483 501.83Z" fill="#FBF9B8"/>
<path fill-rule="evenodd" clip-rule="evenodd" d="M117.907 507.896C117.907 507.896 102.263 509.852 84.0124 522.237C84.0124 522.237 58.5913 556.783 93.1379 641.52C127.685 726.257 173.964 732.775 173.964 732.775C173.964 732.775 198.081 728.213 212.421 713.872L117.907 507.896Z" fill="url(#paint18_linear)"/>
<path fill-rule="evenodd" clip-rule="evenodd" d="M113.343 633.053C89.2258 575.041 91.1812 518.984 117.906 507.903C143.979 496.822 185.044 535.28 209.161 593.292C233.279 651.304 231.323 707.361 204.598 718.442C177.874 729.523 137.461 691.065 113.343 633.053Z" fill="url(#paint19_linear)"/>
<path fill-rule="evenodd" clip-rule="evenodd" d="M164.837 708.006L167.444 528.755C167.444 528.755 148.541 509.2 136.809 507.896L137.46 678.022C137.46 677.37 151.149 698.881 164.837 708.006Z" fill="#FBF9FA"/>
<path fill-rule="evenodd" clip-rule="evenodd" d="M120.513 630.444C99.6548 580.254 100.307 531.367 121.165 518.331C122.468 517.679 123.12 517.027 124.424 516.375C148.541 506.598 185.695 541.144 207.205 593.942C228.716 646.74 227.412 697.582 203.295 707.359C201.991 708.011 200.687 708.011 200.035 708.663C175.266 715.181 140.72 680.634 120.513 630.444Z" fill="url(#paint20_linear)"/>
<path fill-rule="evenodd" clip-rule="evenodd" d="M120.513 630.443C99.6548 580.252 100.307 531.366 121.165 518.329C145.282 513.115 179.829 547.009 200.687 597.2C221.546 647.39 220.894 696.277 200.035 709.313C175.266 715.18 140.72 680.633 120.513 630.443Z" fill="url(#paint21_linear)"/>
<path d="M145.934 574.387C147.89 573.735 146.586 573.735 149.193 573.735C151.149 573.735 166.792 586.772 169.4 586.772L161.578 590.031C160.274 589.379 158.971 588.727 157.667 588.727C156.363 588.727 155.06 588.727 154.408 588.727C153.104 588.727 151.8 588.727 151.149 589.379C149.845 590.031 149.193 591.335 148.541 593.29C147.889 595.246 148.541 597.201 149.193 599.808C149.845 601.764 151.149 603.719 152.452 605.023C153.756 606.327 155.06 607.63 157.015 608.282C158.971 608.934 160.274 610.237 162.23 610.889C164.185 611.541 166.141 612.845 168.096 614.148C170.051 615.452 172.007 617.407 173.311 619.363C175.266 621.318 176.57 623.926 177.873 627.185C179.177 630.444 179.829 633.051 179.829 635.659C179.829 638.266 179.829 640.873 179.829 642.829C179.177 644.784 178.525 646.74 177.873 648.043C176.57 649.347 183.088 648.043 181.784 648.695L194.169 676.723L180.481 681.938L170.051 653.91C170.051 653.91 169.4 653.91 168.748 654.561C168.096 654.561 166.792 655.213 166.141 655.213C164.837 655.213 163.533 655.213 162.23 655.213C160.926 655.213 159.622 654.561 158.319 653.91L152.452 638.266C154.408 638.918 156.363 639.57 157.667 639.57C159.622 639.57 160.926 639.57 162.23 639.57C163.533 639.57 164.837 639.569 166.141 638.918C167.444 636.31 168.096 633.703 166.792 630.444C166.141 629.14 164.837 627.185 163.533 626.533C162.23 625.229 160.926 623.926 158.971 623.274C157.015 621.97 155.06 621.318 153.104 620.015C151.149 618.711 149.193 617.408 147.238 615.452C145.282 613.497 143.327 611.541 141.371 609.586C139.416 607.63 138.112 604.371 136.809 601.112C134.853 595.897 133.549 590.683 134.201 586.772C134.853 582.209 136.157 578.95 138.764 576.343L127.031 548.966L134.853 545.707L145.934 574.387Z" fill="url(#paint22_linear)"/>
<path d="M151.148 571.133C153.103 570.481 155.059 570.481 157.014 570.481C158.97 570.481 161.577 570.481 164.184 571.133L169.399 587.429C168.095 586.777 166.791 586.125 165.488 586.125C164.184 586.125 162.88 586.125 162.229 586.125C160.925 586.125 159.621 586.125 158.97 586.777C157.666 587.429 157.014 588.732 156.362 590.688C155.71 592.643 156.362 594.599 157.014 597.206C157.666 599.161 158.97 601.117 160.273 602.42C161.577 603.724 162.88 605.028 164.836 605.68C166.791 606.331 168.095 607.635 170.051 608.287C172.006 608.939 173.962 610.242 175.917 611.546C177.872 612.85 179.828 614.805 181.131 616.761C183.087 618.716 184.391 621.323 185.694 624.582C186.998 627.842 187.65 630.449 187.65 633.056C187.65 635.663 187.65 638.271 187.65 640.226C186.998 642.182 186.346 644.137 185.694 645.441C184.391 646.744 183.739 648.048 182.435 649.352L194.82 677.38L188.953 679.987L178.524 651.959C178.524 651.959 177.872 651.959 177.221 652.611C176.569 652.611 175.265 653.263 174.613 653.263C173.31 653.263 172.006 653.263 170.702 653.263C169.399 653.263 168.095 652.611 166.791 651.959L160.925 636.315C162.881 636.967 164.836 637.619 166.14 637.619C168.095 637.619 169.399 637.619 170.702 637.619C172.006 637.619 173.31 637.619 174.613 636.967C175.917 634.36 176.569 631.752 175.265 628.493C174.613 627.19 173.31 625.234 172.006 624.582C170.702 623.279 169.399 621.975 167.443 621.323C165.488 620.02 163.532 619.368 161.577 618.064C159.621 616.761 157.666 615.457 155.71 613.501C153.755 611.546 151.8 609.591 149.844 607.635C147.889 605.68 146.585 602.42 145.281 599.161C143.326 593.947 142.022 588.732 142.674 584.821C143.326 580.258 144.629 576.999 147.237 574.392L135.504 547.016L141.37 544.408L151.148 571.133Z" fill="url(#paint23_linear)"/>
<path d="M159.621 635.664L151.799 638.923L157.665 654.567L164.835 651.308L159.621 635.664Z" fill="#D03B48"/>
<path d="M138.764 577.653L145.934 574.394L134.853 547.018L127.031 550.277L138.764 577.653Z" fill="#D03B48"/>
<path d="M169.399 654.57L177.221 651.311L187.65 679.339L179.829 682.598L169.399 654.57Z" fill="#D03B48"/>
<path d="M164.839 708.007L143.329 716.48C143.329 716.48 127.685 705.399 115.952 685.845L136.811 677.371C137.462 677.371 151.151 698.881 164.839 708.007Z" fill="#FBE569"/>
<path d="M103.566 522.244L78.7972 532.021C78.7972 532.021 76.1899 540.495 75.5381 548.969L97.7001 543.102C97.7001 543.754 98.3519 530.066 103.566 522.244Z" fill="#FBE569"/>
<path fill-rule="evenodd" clip-rule="evenodd" d="M224.807 683.24C224.807 683.24 211.119 698.884 215.03 710.617C215.03 710.617 224.155 699.536 224.807 683.24Z" fill="#FBF9B8"/>
<path fill-rule="evenodd" clip-rule="evenodd" d="M1659.83 726.71L1638.32 1244.26L1630.5 1426.12C1629.85 1445.67 1613.55 1461.31 1594 1461.31H330.768C311.213 1461.31 294.918 1445.67 294.266 1426.12L272.104 726.71C271.452 705.852 287.748 688.904 308.606 688.904H1623.33C1644.19 688.252 1661.14 705.852 1659.83 726.71Z" fill="url(#paint24_linear)"/>
<path fill-rule="evenodd" clip-rule="evenodd" d="M322.296 728.668L334.029 1374.62L1594.65 1373.97L1618.12 726.061L322.296 728.668Z" fill="url(#paint25_radial)"/>
<path fill-rule="evenodd" clip-rule="evenodd" d="M294.269 1425.46V1409.82L1631.81 1402L1630.51 1426.11C1630.51 1426.11 1631.16 1458.7 1594 1461.31H330.771C330.771 1461.31 295.572 1459.36 294.269 1425.46Z" fill="url(#paint26_radial)"/>
<path fill-rule="evenodd" clip-rule="evenodd" d="M1524.91 1431.33C1524.91 1437.2 1519.69 1442.41 1513.83 1442.41C1507.96 1442.41 1502.75 1437.2 1502.75 1431.33C1502.75 1425.47 1507.96 1420.25 1513.83 1420.25C1519.69 1420.25 1524.91 1425.47 1524.91 1431.33Z" fill="#FFFB00"/>
<path fill-rule="evenodd" clip-rule="evenodd" d="M844.406 1461.31L872.435 1594.28H1039.95L1067.33 1461.31H844.406Z" fill="url(#paint27_linear)"/>
<path opacity="0.5" fill-rule="evenodd" clip-rule="evenodd" d="M854.184 1507.59L1053.64 1527.79L1067.33 1461.31H844.406L854.184 1507.59Z" fill="#401734"/>
<path d="M1155.33 1594.28H747.285V1619.7H1155.33V1594.28Z" fill="url(#paint28_radial)"/>
<path fill-rule="evenodd" clip-rule="evenodd" d="M1155.33 1594.29L1042.56 1580.6H869.828L747.285 1594.29H1155.33Z" fill="url(#paint29_radial)"/>
<path fill-rule="evenodd" clip-rule="evenodd" d="M467.002 853.166L478.083 1373.32L1437.57 1375.93L1457.77 855.121L467.002 853.166Z" fill="url(#paint30_linear)"/>
<g opacity="0.2">
<path opacity="0.2" d="M1378.9 882.497L1388.68 873.371L1419.97 910.525L1415.4 915.088L1378.9 882.497Z" fill="#401734"/>
<path opacity="0.2" d="M1413.45 873.371L1422.57 882.497L1385.42 914.436L1380.86 909.873L1413.45 873.371Z" fill="#401734"/>
</g>
<path opacity="0.8" fill-rule="evenodd" clip-rule="evenodd" d="M1058.86 1619.7V1594.28H1148.16L1142.29 1619.7H1058.86Z" fill="#FBF9FA"/>
<path opacity="0.8" fill-rule="evenodd" clip-rule="evenodd" d="M1659.84 726.71L1638.33 1244.26L1631.81 1297.05L1609 1267.72L1628.55 718.888H956.521L926.537 688.904H1623.34C1644.19 688.252 1661.14 705.852 1659.84 726.71Z" fill="#FBF9FA"/>
<path opacity="0.5" fill-rule="evenodd" clip-rule="evenodd" d="M996.933 727.364L1599.87 1231.22L1618.12 726.061L996.933 727.364Z" fill="#FBF9FA"/>
<path opacity="0.8" fill-rule="evenodd" clip-rule="evenodd" d="M285.793 1156.26L322.295 1181.68L328.813 1378.54H646.251L719.907 1460.66H330.769C330.769 1460.66 302.089 1461.97 294.267 1431.33L285.793 1156.26Z" fill="#FBF9FA"/>
<path opacity="0.5" fill-rule="evenodd" clip-rule="evenodd" d="M330.769 1201.24L587.587 1374.63H334.028L330.769 1201.24Z" fill="#FBF9FA"/>
<g opacity="0.2">
<path opacity="0.2" d="M1079.72 955.496H946.092V964.622H1079.72V955.496Z" fill="#5E1765"/>
<path opacity="0.2" d="M1148.16 972.441H946.092V981.567H1148.16V972.441Z" fill="#5E1765"/>
<path opacity="0.2" d="M1079.72 938.553H946.092V947.678H1079.72V938.553Z" fill="#5E1765"/>
<path opacity="0.2" d="M1026.27 919.646H946.092V928.772H1026.27V919.646Z" fill="#5E1765"/>
<path opacity="0.2" d="M1001.5 989.387H946.092V998.512H1001.5V989.387Z" fill="#5E1765"/>
<path opacity="0.2" d="M1141.64 989.387H1036.04V998.512H1141.64V989.387Z" fill="#5E1765"/>
<path opacity="0.2" d="M1029.53 989.387H1012.58V998.512H1029.53V989.387Z" fill="#5E1765"/>
<path opacity="0.2" d="M1105.13 954.848H1088.19V963.973H1105.13V954.848Z" fill="#5E1765"/>
<path opacity="0.2" d="M1079.72 1005.03H946.092V1014.16H1079.72V1005.03Z" fill="#5E1765"/>
<path opacity="0.2" d="M1148.16 1022.64H946.092V1031.76H1148.16V1022.64Z" fill="#5E1765"/>
<path opacity="0.2" d="M1001.5 1039.58H946.092V1048.71H1001.5V1039.58Z" fill="#5E1765"/>
<path opacity="0.2" d="M1029.53 1039.58H1012.58V1048.71H1029.53V1039.58Z" fill="#5E1765"/>
<path opacity="0.2" d="M1116.22 919.646H1036.04V928.772H1116.22V919.646Z" fill="#5E1765"/>
</g>
<path fill-rule="evenodd" clip-rule="evenodd" d="M502.852 912.48L508.718 1202.54H914.804V912.48H502.852Z" fill="url(#paint31_linear)"/>
<path fill-rule="evenodd" clip-rule="evenodd" d="M1142.29 1239.04V1322.47H1364.56L1367.82 1239.04H1142.29Z" fill="url(#paint32_linear)"/>
<path opacity="0.2" fill-rule="evenodd" clip-rule="evenodd" d="M508.718 1258.6L510.021 1323.78H571.293V1258.6H508.718Z" fill="#5E1765"/>
<path opacity="0.2" fill-rule="evenodd" clip-rule="evenodd" d="M577.159 1258.6L579.115 1323.78H639.734V1258.6H577.159Z" fill="#5E1765"/>
<path opacity="0.2" d="M708.828 1258.6H646.253V1323.78H708.828V1258.6Z" fill="#5E1765"/>
<path opacity="0.2" fill-rule="evenodd" clip-rule="evenodd" d="M714.694 1258.6L716.65 1323.78H777.269V1258.6H714.694Z" fill="#5E1765"/>
<path opacity="0.2" fill-rule="evenodd" clip-rule="evenodd" d="M783.785 1258.6L785.089 1323.78H846.36V1258.6H783.785Z" fill="#5E1765"/>
<path opacity="0.2" d="M914.802 1258.6H852.227V1323.78H914.802V1258.6Z" fill="#5E1765"/>
<path opacity="0.5" fill-rule="evenodd" clip-rule="evenodd" d="M280.58 989.395L1648.1 1010.25L1656.58 811.447L280.58 876.63V989.395Z" fill="#811734"/>
<path fill-rule="evenodd" clip-rule="evenodd" d="M266.891 937.903C227.781 937.903 193.235 914.437 189.324 885.757L178.895 804.279H323.599L332.073 885.757C335.332 914.437 306 937.903 266.891 937.903Z" fill="url(#paint33_linear)"/>
<path fill-rule="evenodd" clip-rule="evenodd" d="M408.987 937.903C369.878 937.903 335.983 914.437 332.724 885.757L324.25 804.279H468.955L475.473 885.757C478.08 914.437 448.096 937.903 408.987 937.903Z" fill="url(#paint34_radial)"/>
<path fill-rule="evenodd" clip-rule="evenodd" d="M550.434 937.903C511.325 937.903 477.43 914.437 475.474 885.757L468.956 804.279H613.661L618.223 885.757C620.179 914.437 589.543 937.903 550.434 937.903Z" fill="url(#paint35_linear)"/>
<path fill-rule="evenodd" clip-rule="evenodd" d="M691.88 937.903C652.77 937.903 619.528 914.437 618.224 885.757L613.661 804.279H758.366L760.973 885.757C762.277 914.437 730.989 937.903 691.88 937.903Z" fill="url(#paint36_radial)"/>
<path fill-rule="evenodd" clip-rule="evenodd" d="M833.976 937.903C794.867 937.903 762.276 914.437 761.624 885.757L759.017 804.279H903.721L904.373 885.757C904.373 914.437 873.086 937.903 833.976 937.903Z" fill="url(#paint37_linear)"/>
<path fill-rule="evenodd" clip-rule="evenodd" d="M975.423 937.903C936.314 937.903 904.374 914.437 904.374 885.757L903.723 804.279H1048.43L1047.12 885.757C1046.47 914.437 1014.53 937.903 975.423 937.903Z" fill="url(#paint38_radial)"/>
<path fill-rule="evenodd" clip-rule="evenodd" d="M1116.87 937.903C1077.76 937.903 1046.47 914.437 1047.12 885.757L1048.42 804.279H1193.13L1189.87 885.757C1189.22 914.437 1155.98 937.903 1116.87 937.903Z" fill="url(#paint39_linear)"/>
<path fill-rule="evenodd" clip-rule="evenodd" d="M1258.96 937.903C1219.86 937.903 1189.22 914.437 1190.52 885.757L1193.78 804.279H1338.49L1333.27 885.757C1331.32 914.437 1298.07 937.903 1258.96 937.903Z" fill="url(#paint40_radial)"/>
<path fill-rule="evenodd" clip-rule="evenodd" d="M1400.41 937.903C1361.3 937.903 1331.32 914.437 1333.27 885.757L1338.49 804.279H1483.19L1476.02 885.757C1473.41 914.437 1439.52 937.903 1400.41 937.903Z" fill="url(#paint41_linear)"/>
<path fill-rule="evenodd" clip-rule="evenodd" d="M1541.85 937.903C1502.75 937.903 1473.41 914.437 1476.02 885.757L1483.19 804.279H1627.9L1618.77 885.757C1615.51 914.437 1580.96 937.903 1541.85 937.903Z" fill="url(#paint42_radial)"/>
<path fill-rule="evenodd" clip-rule="evenodd" d="M1683.95 937.903C1644.84 937.903 1615.51 914.437 1618.77 885.757L1627.89 804.279H1772.6L1761.52 885.757C1757.61 914.437 1723.06 937.903 1683.95 937.903Z" fill="url(#paint43_linear)"/>
<path fill-rule="evenodd" clip-rule="evenodd" d="M324.904 724.107L178.896 804.281C768.795 828.399 1168.36 829.051 1773.25 804.281L1620.73 718.893L324.904 724.107Z" fill="url(#paint44_linear)"/>
<path opacity="0.5" fill-rule="evenodd" clip-rule="evenodd" d="M379.658 1359.63L444.84 1355.72L485.905 1461.31H360.104L379.658 1359.63Z" fill="#811734"/>
<path d="M30.2802 1500.42C65.4786 1500.42 121.535 1467.18 149.564 1433.29C150.867 1431.33 150.867 1428.72 148.912 1427.42C146.956 1426.12 144.349 1426.12 143.046 1428.07C110.454 1468.48 40.7093 1502.38 17.2437 1489.34C5.51092 1482.82 8.11823 1465.22 12.681 1452.19C39.4057 1370.71 194.54 1347.24 195.843 1347.24C197.799 1347.24 199.754 1344.64 199.102 1342.68C198.45 1340.73 196.495 1338.77 194.54 1339.42C188.021 1340.07 32.2356 1363.54 4.20727 1450.23C-5.57007 1480.22 3.55547 1492.6 12.681 1497.82C17.8956 1499.12 23.762 1500.42 30.2802 1500.42Z" fill="url(#paint45_radial)"/>
<path fill-rule="evenodd" clip-rule="evenodd" d="M392.693 1311.39L300.134 1313.34L52.4414 1355.06L105.239 1360.28L392.693 1311.39Z" fill="url(#paint46_linear)"/>
<path fill-rule="evenodd" clip-rule="evenodd" d="M494.378 1716.82L392.694 1311.39L105.24 1360.28L176.941 1789.17L494.378 1716.82Z" fill="url(#paint47_linear)"/>
<path fill-rule="evenodd" clip-rule="evenodd" d="M176.94 1789.17L104.587 1765.71L52.4414 1355.06L119.579 1347.89L105.239 1360.27L176.94 1789.17Z" fill="url(#paint48_linear)"/>
<path fill-rule="evenodd" clip-rule="evenodd" d="M104.588 1765.71L152.171 1725.95L176.94 1789.17L104.588 1765.71Z" fill="#FF9F57"/>
<path opacity="0.5" fill-rule="evenodd" clip-rule="evenodd" d="M152.171 1725.95L94.8105 1350.5L119.58 1347.89L105.24 1360.27L176.94 1789.17L152.171 1725.95Z" fill="#811734"/>
<path fill-rule="evenodd" clip-rule="evenodd" d="M302.092 1366.79C304.047 1375.92 310.565 1382.44 316.432 1381.13C322.298 1379.83 326.209 1371.35 324.254 1362.23C322.298 1353.1 315.78 1346.59 309.914 1347.89C304.047 1349.19 300.136 1357.67 302.092 1366.79Z" fill="#95295C"/>
<path d="M209.772 1405.53C215.769 1404.31 219.121 1395.89 217.257 1386.72C215.394 1377.54 209.021 1371.1 203.023 1372.32C197.026 1373.53 193.675 1381.96 195.538 1391.13C197.402 1400.3 203.774 1406.75 209.772 1405.53Z" fill="#95295C"/>
<path d="M308.608 1367.45C318.385 1361.58 324.903 1354.41 332.073 1346.59C339.243 1338.77 345.11 1330.29 350.324 1321.82C355.539 1313.34 360.753 1304.22 364.664 1294.44C368.575 1285.32 373.138 1275.54 375.745 1265.11C379.004 1255.33 379.656 1244.25 379.004 1233.82C378.353 1223.39 375.093 1212.31 369.227 1203.19C363.361 1194.06 354.235 1185.59 343.806 1181.68C333.377 1177.11 320.992 1177.11 309.911 1180.37C298.83 1182.98 289.053 1191.45 283.186 1200.58C277.32 1209.7 273.409 1220.13 270.15 1229.91C264.284 1249.47 260.373 1269.67 255.158 1289.23C249.943 1308.78 244.077 1327.68 234.3 1344.63C225.174 1361.58 212.138 1376.57 195.842 1388.3C193.887 1389.61 193.235 1392.21 194.539 1394.17C195.842 1396.13 198.449 1396.13 200.405 1395.47C218.004 1383.74 232.344 1368.1 243.425 1350.5C253.854 1332.25 261.025 1312.69 266.239 1293.14C272.105 1273.58 275.365 1253.38 281.883 1234.47C285.142 1225.35 288.401 1216.22 293.616 1208.4C296.223 1204.49 298.83 1201.23 302.741 1198.62C304.045 1197.32 306 1196.02 307.956 1195.36C309.911 1194.71 311.867 1193.41 313.822 1193.41C322.296 1190.8 331.421 1190.8 339.895 1194.06C348.369 1197.32 355.539 1203.19 360.102 1210.36C365.316 1218.18 368.575 1226.65 369.227 1236.43C369.879 1239.04 369.879 1240.99 369.879 1243.6C369.879 1246.21 369.879 1248.16 369.879 1250.77L369.227 1257.94C368.575 1260.55 367.923 1262.5 367.923 1265.11C367.272 1269.67 365.316 1274.23 364.013 1278.8C362.057 1283.36 360.102 1287.92 358.146 1292.49C353.583 1301.61 349.672 1310.08 344.458 1318.56C339.243 1327.03 333.377 1334.85 326.859 1342.68C320.34 1349.85 313.17 1357.02 305.348 1361.58H304.697C302.741 1362.88 302.089 1365.49 303.393 1367.45C304.045 1368.1 306.652 1368.75 308.608 1367.45Z" fill="url(#paint49_linear)"/>
<path d="M426.587 1605.36L404.425 1458.7L159.34 1491.94L199.753 1649.68L426.587 1605.36Z" fill="#FFE557"/>
<defs>
<linearGradient id="paint0_linear" x1="1130.42" y1="1635.44" x2="1112.12" y2="1336.22" gradientUnits="userSpaceOnUse">
<stop stop-color="#603082"/>
<stop offset="0.9944" stop-color="#2A0E51"/>
</linearGradient>
<linearGradient id="paint1_linear" x1="1302.27" y1="1789.05" x2="2098.73" y2="1890.61" gradientUnits="userSpaceOnUse">
<stop stop-color="#FF6E27"/>
<stop offset="0.998" stop-color="#E03347"/>
</linearGradient>
<linearGradient id="paint2_linear" x1="1391.65" y1="1808.04" x2="2109.57" y2="1899.59" gradientUnits="userSpaceOnUse">
<stop stop-color="#C73E27"/>
<stop offset="0.998" stop-color="#A4152C"/>
</linearGradient>
<linearGradient id="paint3_linear" x1="1471.93" y1="1666.66" x2="1861.29" y2="1706.66" gradientUnits="userSpaceOnUse">
<stop stop-color="#EBD7E3"/>
<stop offset="0.891" stop-color="#9C87BB"/>
<stop offset="1" stop-color="#B7A8CE"/>
</linearGradient>
<linearGradient id="paint4_linear" x1="1475.46" y1="1632.24" x2="1864.77" y2="1672.24" gradientUnits="userSpaceOnUse">
<stop stop-color="#7F36BB"/>
<stop offset="0.9944" stop-color="#2A0E51"/>
</linearGradient>
<linearGradient id="paint5_linear" x1="1567.33" y1="1587.17" x2="1682.34" y2="1593.7" gradientUnits="userSpaceOnUse">
<stop offset="0.00558659" stop-color="#2A0E51"/>
<stop offset="1" stop-color="#2F174C"/>
</linearGradient>
<linearGradient id="paint6_linear" x1="1569.21" y1="1579.8" x2="1692.14" y2="1592.42" gradientUnits="userSpaceOnUse">
<stop stop-color="#2F174C"/>
<stop offset="0.9944" stop-color="#2A0E51"/>
</linearGradient>
<linearGradient id="paint7_linear" x1="1588.67" y1="1582" x2="1676.41" y2="1586.98" gradientUnits="userSpaceOnUse">
<stop stop-color="#688EFF"/>
<stop offset="0.9944" stop-color="#4C346C"/>
</linearGradient>
<linearGradient id="paint8_linear" x1="1584.28" y1="1579.6" x2="1655.21" y2="1586.88" gradientUnits="userSpaceOnUse">
<stop stop-color="#2F174C"/>
<stop offset="0.9944" stop-color="#2A0E51"/>
</linearGradient>
<linearGradient id="paint9_linear" x1="1730.66" y1="1774.18" x2="1737.87" y2="1703.98" gradientUnits="userSpaceOnUse">
<stop/>
<stop offset="1" stop-color="#BDB3B1"/>
</linearGradient>
<linearGradient id="paint10_linear" x1="1473.85" y1="1650.45" x2="1862.9" y2="1690.42" gradientUnits="userSpaceOnUse">
<stop stop-color="#9F6BF1"/>
<stop offset="0.9944" stop-color="#000024"/>
</linearGradient>
<radialGradient id="paint11_radial" cx="0" cy="0" r="1" gradientUnits="userSpaceOnUse" gradientTransform="translate(1689.32 1600.74) rotate(15.4301) scale(19.8951 9.96885)">
<stop stop-color="#FF7E00"/>
<stop offset="0.00876701" stop-color="#FC7C00"/>
<stop offset="0.2283" stop-color="#B15700"/>
<stop offset="0.434" stop-color="#723800"/>
<stop offset="0.6198" stop-color="#412000"/>
<stop offset="0.7819" stop-color="#1D0F00"/>
<stop offset="0.9141" stop-color="#080400"/>
<stop offset="1"/>
</radialGradient>
<linearGradient id="paint12_linear" x1="232.416" y1="330.476" x2="412.144" y2="581.41" gradientUnits="userSpaceOnUse">
<stop offset="0.0351351" stop-color="#FF8447"/>
<stop offset="0.2614" stop-color="#ED3D47"/>
<stop offset="1" stop-color="#FF8427"/>
</linearGradient>
<linearGradient id="paint13_linear" x1="268.818" y1="307.593" x2="445.017" y2="553.6" gradientUnits="userSpaceOnUse">
<stop stop-color="#FFA700"/>
<stop offset="1" stop-color="#FFD328"/>
</linearGradient>
<linearGradient id="paint14_linear" x1="279.928" y1="317.082" x2="440.107" y2="540.721" gradientUnits="userSpaceOnUse">
<stop offset="0.0351351" stop-color="#FF8447"/>
<stop offset="0.2614" stop-color="#ED3D47"/>
<stop offset="1" stop-color="#FF8427"/>
</linearGradient>
<linearGradient id="paint15_linear" x1="276.218" y1="320.284" x2="435.877" y2="543.197" gradientUnits="userSpaceOnUse">
<stop stop-color="#FFA700"/>
<stop offset="1" stop-color="#FF9C28"/>
</linearGradient>
<linearGradient id="paint16_linear" x1="412.156" y1="507.816" x2="300.541" y2="354.299" gradientUnits="userSpaceOnUse">
<stop offset="0.0351351" stop-color="#FF8447"/>
<stop offset="0.2614" stop-color="#ED3D47"/>
<stop offset="1" stop-color="#FF8427"/>
</linearGradient>
<linearGradient id="paint17_linear" x1="417.153" y1="504.179" x2="305.539" y2="350.663" gradientUnits="userSpaceOnUse">
<stop stop-color="#FFA700"/>
<stop offset="1" stop-color="#FFD328"/>
</linearGradient>
<linearGradient id="paint18_linear" x1="87.2209" y1="518.562" x2="175.569" y2="733.347" gradientUnits="userSpaceOnUse">
<stop offset="0.0351351" stop-color="#FF8447"/>
<stop offset="0.2614" stop-color="#ED3D47"/>
<stop offset="1" stop-color="#FF8427"/>
</linearGradient>
<linearGradient id="paint19_linear" x1="117.831" y1="508.091" x2="204.445" y2="718.66" gradientUnits="userSpaceOnUse">
<stop stop-color="#FFA700"/>
<stop offset="1" stop-color="#FFD328"/>
</linearGradient>
<linearGradient id="paint20_linear" x1="124.331" y1="516.952" x2="203.07" y2="708.376" gradientUnits="userSpaceOnUse">
<stop offset="0.0351351" stop-color="#FF8447"/>
<stop offset="0.2614" stop-color="#ED3D47"/>
<stop offset="1" stop-color="#FF8427"/>
</linearGradient>
<linearGradient id="paint21_linear" x1="121.061" y1="518.659" x2="199.544" y2="709.461" gradientUnits="userSpaceOnUse">
<stop stop-color="#FFA700"/>
<stop offset="1" stop-color="#FF9C28"/>
</linearGradient>
<linearGradient id="paint22_linear" x1="188.268" y1="679.454" x2="132.998" y2="547.768" gradientUnits="userSpaceOnUse">
<stop offset="0.0351351" stop-color="#FF8447"/>
<stop offset="0.2614" stop-color="#ED3D47"/>
<stop offset="1" stop-color="#FF8427"/>
</linearGradient>
<linearGradient id="paint23_linear" x1="192.555" y1="677.659" x2="137.285" y2="545.973" gradientUnits="userSpaceOnUse">
<stop stop-color="#FFA700"/>
<stop offset="1" stop-color="#FFD328"/>
</linearGradient>
<linearGradient id="paint24_linear" x1="965.984" y1="1461.08" x2="965.984" y2="688.202" gradientUnits="userSpaceOnUse">
<stop offset="0.00558659" stop-color="#2A0E45"/>
<stop offset="1" stop-color="#561F7D"/>
</linearGradient>
<radialGradient id="paint25_radial" cx="0" cy="0" r="1" gradientUnits="userSpaceOnUse" gradientTransform="translate(970.265 1050.43) scale(512.272)">
<stop stop-color="#00FFFF"/>
<stop offset="0.9944" stop-color="#26A9FF"/>
</radialGradient>
<radialGradient id="paint26_radial" cx="0" cy="0" r="1" gradientUnits="userSpaceOnUse" gradientTransform="translate(1163.12 1433.96) scale(378.749 502.599)">
<stop stop-color="#EBD7E3"/>
<stop offset="0.9829" stop-color="#BDAFD2"/>
</radialGradient>
<linearGradient id="paint27_linear" x1="955.71" y1="1594.33" x2="955.71" y2="1461.07" gradientUnits="userSpaceOnUse">
<stop stop-color="#603082"/>
<stop offset="0.9944" stop-color="#2A0E51"/>
</linearGradient>
<radialGradient id="paint28_radial" cx="0" cy="0" r="1" gradientUnits="userSpaceOnUse" gradientTransform="translate(951.212 1607.06) scale(144.469 144.47)">
<stop stop-color="#B3819D"/>
<stop offset="1" stop-color="#785CA6"/>
</radialGradient>
<radialGradient id="paint29_radial" cx="0" cy="0" r="1" gradientUnits="userSpaceOnUse" gradientTransform="translate(951.212 1587.55) scale(144.268 144.266)">
<stop stop-color="#EBD7E3"/>
<stop offset="0.9829" stop-color="#BDAFD2"/>
</radialGradient>
<linearGradient id="paint30_linear" x1="962.542" y1="1375.7" x2="962.542" y2="853.199" gradientUnits="userSpaceOnUse">
<stop offset="0.0171145" stop-color="#E2DCEB"/>
<stop offset="1" stop-color="white"/>
</linearGradient>
<linearGradient id="paint31_linear" x1="708.963" y1="1202.34" x2="708.963" y2="912.46" gradientUnits="userSpaceOnUse">
<stop stop-color="#CA81B9"/>
<stop offset="1" stop-color="#785CA6"/>
</linearGradient>
<linearGradient id="paint32_linear" x1="1254.96" y1="1322.76" x2="1254.96" y2="1238.79" gradientUnits="userSpaceOnUse">
<stop offset="0.00198414" stop-color="#E03347"/>
<stop offset="1" stop-color="#FF6E27"/>
</linearGradient>
<linearGradient id="paint33_linear" x1="255.804" y1="937.64" x2="255.804" y2="804.402" gradientUnits="userSpaceOnUse">
<stop stop-color="#FF6E27"/>
<stop offset="0.998" stop-color="#E03347"/>
</linearGradient>
<radialGradient id="paint34_radial" cx="0" cy="0" r="1" gradientUnits="userSpaceOnUse" gradientTransform="translate(399.693 927.263) scale(108.34 98.351)">
<stop stop-color="#FFD1A9"/>
<stop offset="0.9944" stop-color="#F99B98"/>
</radialGradient>
<linearGradient id="paint35_linear" x1="543.611" y1="937.64" x2="543.611" y2="804.402" gradientUnits="userSpaceOnUse">
<stop stop-color="#FF6E27"/>
<stop offset="0.998" stop-color="#E03347"/>
</linearGradient>
<radialGradient id="paint36_radial" cx="0" cy="0" r="1" gradientUnits="userSpaceOnUse" gradientTransform="translate(687.514 927.263) scale(105.45 95.7267)">
<stop stop-color="#FFD1A9"/>
<stop offset="0.9944" stop-color="#F99B98"/>
</radialGradient>
<linearGradient id="paint37_linear" x1="831.463" y1="937.64" x2="831.463" y2="804.402" gradientUnits="userSpaceOnUse">
<stop stop-color="#FF6E27"/>
<stop offset="0.998" stop-color="#E03347"/>
</linearGradient>
<radialGradient id="paint38_radial" cx="0" cy="0" r="1" gradientUnits="userSpaceOnUse" gradientTransform="translate(976.054 927.263) scale(103.574 94.0242)">
<stop stop-color="#FFD1A9"/>
<stop offset="0.9944" stop-color="#F99B98"/>
</radialGradient>
<linearGradient id="paint39_linear" x1="1120.34" y1="937.64" x2="1120.34" y2="804.402" gradientUnits="userSpaceOnUse">
<stop stop-color="#FF6E27"/>
<stop offset="0.998" stop-color="#E03347"/>
</linearGradient>
<radialGradient id="paint40_radial" cx="0" cy="0" r="1" gradientUnits="userSpaceOnUse" gradientTransform="translate(1264.23 927.263) scale(105.957 96.1876)">
<stop stop-color="#FFD1A9"/>
<stop offset="0.9944" stop-color="#F99B98"/>
</radialGradient>
<linearGradient id="paint41_linear" x1="1408.19" y1="937.64" x2="1408.19" y2="804.402" gradientUnits="userSpaceOnUse">
<stop stop-color="#FF6E27"/>
<stop offset="0.998" stop-color="#E03347"/>
</linearGradient>
<radialGradient id="paint42_radial" cx="0" cy="0" r="1" gradientUnits="userSpaceOnUse" gradientTransform="translate(1552.04 927.263) scale(108.86 98.8228)">
<stop stop-color="#FFD1A9"/>
<stop offset="0.9944" stop-color="#F99B98"/>
</radialGradient>
<linearGradient id="paint43_linear" x1="1695.98" y1="937.64" x2="1695.98" y2="804.402" gradientUnits="userSpaceOnUse">
<stop stop-color="#FF6E27"/>
<stop offset="0.998" stop-color="#E03347"/>
</linearGradient>
<linearGradient id="paint44_linear" x1="976.082" y1="822.8" x2="976.082" y2="718.877" gradientUnits="userSpaceOnUse">
<stop stop-color="#FF842A"/>
<stop offset="0.998" stop-color="#FF6354"/>
</linearGradient>
<radialGradient id="paint45_radial" cx="0" cy="0" r="1" gradientUnits="userSpaceOnUse" gradientTransform="translate(100.792 1420.19) rotate(176.233) scale(90.5665)">
<stop stop-color="#EBD7E3"/>
<stop offset="0.9829" stop-color="#BDAFD2"/>
</radialGradient>
<linearGradient id="paint46_linear" x1="223.873" y1="1352.39" x2="221.657" y2="1318.74" gradientUnits="userSpaceOnUse">
<stop stop-color="#C73E27"/>
<stop offset="0.998" stop-color="#A4152C"/>
</linearGradient>
<linearGradient id="paint47_linear" x1="315.755" y1="1780.3" x2="285.327" y2="1318.18" gradientUnits="userSpaceOnUse">
<stop stop-color="#FF8647"/>
<stop offset="1" stop-color="#FFB934"/>
</linearGradient>
<linearGradient id="paint48_linear" x1="129.343" y1="1792.57" x2="100.132" y2="1348.94" gradientUnits="userSpaceOnUse">
<stop offset="0.00198413" stop-color="#C93347"/>
<stop offset="1" stop-color="#FF7527"/>
</linearGradient>
<linearGradient id="paint49_linear" x1="286.986" y1="1394.89" x2="286.986" y2="1177.82" gradientUnits="userSpaceOnUse">
<stop offset="0.0171145" stop-color="#BD8BD2"/>
<stop offset="1" stop-color="#EBD7E3"/>
</linearGradient>
</defs>
</svg>
