<svg width="2014" height="1284" viewBox="0 0 2014 1284" fill="none" xmlns="http://www.w3.org/2000/svg">
<path d="M1041.42 543.844C1037.82 522.044 1034.12 500.244 1013.12 483.644C996.117 470.144 975.117 467.244 954.717 473.344C896.917 490.644 932.717 523.844 856.317 560.644C777.317 598.744 794.417 671.844 817.618 694.444C928.717 802.744 1026.62 676.044 1033.72 642.544C1039.12 617.744 1043.72 557.844 1041.42 543.844Z" fill="#2D2861"/>
<path d="M174.917 873.645L209.818 1072.94H368.417V873.645H174.917Z" fill="#352E73"/>
<path d="M146.917 1175.45L122.217 1272.85H134.617L184.717 1178.55L146.917 1175.45Z" fill="#352E73"/>
<path d="M1690.42 1175.45L1715.12 1277.15H1702.72L1652.62 1178.65L1690.42 1175.45Z" fill="#352E73"/>
<path d="M1508.32 1175.45L1533.02 1277.15H1520.72L1470.52 1178.65L1508.32 1175.45Z" fill="#352E73"/>
<path d="M409.818 787.545L333.417 1072.94H1684.02L1715.02 725.145H491.017C453.017 725.145 419.718 750.745 409.818 787.545Z" fill="url(#paint0_linear)"/>
<path d="M1610.82 811.745L1561.92 1072.94H1684.12L1715.12 725.145C1664.02 725.145 1620.22 761.545 1610.82 811.745Z" fill="#94E4EA"/>
<path d="M122.217 873.645L127.317 1182.04H250.517L182.217 873.645H122.217Z" fill="#7271B3"/>
<path d="M1427.72 861.245L1402.82 860.545L1414.52 1072.94L1443.12 1073.24L1427.72 861.245Z" fill="#FFA42F"/>
<path d="M1392.82 877.044V848.544C1392.82 827.344 1375.52 810.044 1354.32 810.044C1333.12 810.044 1315.82 827.344 1315.82 848.544V877.044C1315.82 879.844 1311.62 879.844 1311.62 877.044V848.544C1311.62 824.944 1330.82 805.744 1354.42 805.744C1378.02 805.744 1397.22 824.944 1397.22 848.544V877.044C1397.02 879.844 1392.82 879.844 1392.82 877.044Z" fill="#FF7A03"/>
<path d="M1414.52 1072.94H1244.62L1254.02 861.245L1402.82 860.545L1414.52 1072.94Z" fill="#FCC13F"/>
<path d="M1326.02 1052.24L1244.62 1072.94H1414.52L1326.02 1052.24Z" fill="#FFA42F"/>
<path d="M1367.02 880.945V852.445C1367.02 831.245 1349.72 813.945 1328.52 813.945C1307.32 813.945 1290.02 831.245 1290.02 852.445V880.945C1290.02 883.745 1285.82 883.745 1285.82 880.945V852.445C1285.82 828.845 1305.02 809.645 1328.62 809.645C1352.22 809.645 1371.42 828.845 1371.42 852.445V880.945C1371.22 883.745 1367.02 883.845 1367.02 880.945Z" fill="#FF7A03"/>
<path d="M1300.02 945.545C1300.62 967.045 1318.52 983.945 1340.02 983.345C1361.52 982.745 1378.42 964.845 1377.82 943.345C1377.22 921.845 1359.32 904.945 1337.82 905.545C1316.32 906.145 1299.42 924.045 1300.02 945.545Z" fill="#FEE2BF"/>
<path d="M1359.92 950.045C1360.22 961.545 1351.22 971.145 1339.72 971.445C1328.22 971.745 1318.62 962.745 1318.32 951.245L1359.92 950.045Z" fill="#F3FFFF"/>
<path d="M172.517 1072.95L149.217 1136.95H1521.22V1072.95H172.517Z" fill="#ADEFF7"/>
<path d="M1365.12 1072.95L1344.72 1136.95H1521.22V1072.95H1365.12Z" fill="#94E4EA"/>
<path d="M1556.12 873.645L1532.82 1182.04H127.317L126.617 1136.94H1432.92L1474.92 873.645H1556.12Z" fill="#7271B3"/>
<path d="M1556.12 873.645H1745.22L1721.92 1182.04H1532.82L1556.12 873.645Z" fill="#352E73"/>
<path d="M1351.92 328.345C1351.92 369.845 1318.22 403.545 1276.72 403.545C1235.22 403.545 1201.52 369.845 1201.52 328.345C1201.52 286.845 1235.22 253.145 1276.72 253.145C1318.22 253.245 1351.92 286.845 1351.92 328.345Z" fill="#8CD334"/>
<path d="M1297.32 322.344L1281.32 303.144C1277.42 298.444 1270.52 297.844 1265.82 301.744L1215.02 344.044L1245.12 380.144L1295.92 337.844C1300.52 333.944 1301.12 327.044 1297.32 322.344ZM1276.82 323.044C1274.62 320.444 1275.02 316.544 1277.62 314.344C1280.22 312.144 1284.12 312.544 1286.32 315.144C1288.52 317.744 1288.12 321.644 1285.52 323.844C1282.92 326.044 1279.02 325.744 1276.82 323.044Z" fill="white"/>
<path d="M1284.02 315.545C1284.22 315.545 1308.32 310.845 1317.32 303.345C1325.12 296.845 1325.62 283.845 1311.12 285.345C1299.72 286.545 1290.22 303.745 1286.62 311.145C1285.42 313.645 1281.72 311.845 1282.92 309.345C1287.72 299.445 1297.72 282.645 1310.62 281.245C1328.82 279.345 1331.32 297.045 1319.92 306.545C1310.12 314.745 1285.72 319.445 1284.72 319.645C1282.12 320.145 1281.32 316.045 1284.02 315.545Z" fill="white"/>
<path d="M1011.22 76.5436C1013.32 87.1436 1024.82 142.144 1044.92 159.044C1045.72 159.744 1073.72 165.344 1074.52 166.044C1097.12 184.444 1094.62 188.244 1094.02 190.444C1093.52 192.344 1092.12 197.244 1089.42 197.344C1084.62 197.544 1069.82 194.244 1029.02 182.444C1028.22 182.244 1027.52 181.544 1027.32 180.644C1017.32 138.944 999.518 120.944 997.518 129.244C987.118 171.844 987.918 173.144 984.518 172.244C982.918 171.544 978.417 171.844 978.917 168.544C980.617 157.644 987.718 110.644 984.718 105.544C981.318 99.9436 983.617 72.5436 1008.92 74.5436C1010.02 74.6436 1010.92 75.4436 1011.22 76.5436Z" fill="#D6007E"/>
<path d="M311.217 1175.45L286.417 1267.85H298.818L349.017 1178.35L311.217 1175.45Z" fill="#184655"/>
<path d="M532.118 337.744L518.718 348.344L499.318 328.744L477.718 341.844L460.818 329.444L454.518 338.044L477.218 354.544L497.618 342.144L517.918 362.644L538.018 346.644L532.118 337.744Z" fill="#8CD334"/>
<path d="M1323.82 467.845C1315.62 465.745 1308.62 459.345 1308.22 453.645C1307.82 447.945 1313.62 445.245 1321.22 447.745C1328.82 450.145 1335.72 456.545 1336.82 461.945C1337.82 467.345 1332.02 469.945 1323.82 467.845Z" fill="#FC008B"/>
<path d="M580.217 152.945C572.017 150.845 565.017 144.445 564.617 138.745C564.217 133.045 570.017 130.345 577.617 132.845C585.217 135.245 592.117 141.645 593.217 147.045C594.217 152.445 588.417 155.145 580.217 152.945Z" fill="#FC008B"/>
<path d="M1279.52 690.845L1266.42 679.345L1249.52 683.645C1247.62 684.145 1245.92 682.245 1246.72 680.345L1253.62 664.345L1244.32 649.645C1243.22 647.945 1244.62 645.845 1246.52 645.945L1263.92 647.545L1275.02 634.145C1276.32 632.645 1278.72 633.245 1279.22 635.145L1283.12 652.145L1299.32 658.645C1301.12 659.345 1301.32 661.945 1299.62 662.945L1284.62 671.845L1283.52 689.245C1283.32 691.145 1281.02 692.145 1279.52 690.845Z" fill="#FCC13F"/>
<path d="M829.118 57.5443L816.018 46.0443L799.118 50.3443C797.218 50.8443 795.518 48.9444 796.318 47.0443L803.218 31.0443L793.917 16.3443C792.817 14.6443 794.218 12.5443 796.118 12.6443L813.518 14.2443L824.618 0.844337C825.918 -0.655663 828.318 -0.0556631 828.818 1.84434L832.718 18.8443L848.917 25.3443C850.717 26.0443 850.918 28.6443 849.218 29.6443L834.218 38.5443L833.118 55.9443C832.918 57.8443 830.618 58.8443 829.118 57.5443Z" fill="#FC008B"/>
<path d="M1203.22 462.945L1190.12 451.445L1173.22 455.745C1171.32 456.245 1169.62 454.345 1170.42 452.445L1177.32 436.445L1168.02 421.745C1166.92 420.045 1168.32 417.945 1170.22 418.045L1187.62 419.645L1198.82 406.245C1200.12 404.745 1202.52 405.345 1203.02 407.245L1206.92 424.245L1223.12 430.745C1224.92 431.445 1225.12 434.045 1223.42 435.045L1208.42 443.945L1207.32 461.345C1207.02 463.245 1204.72 464.245 1203.22 462.945Z" fill="#FC008B"/>
<path d="M1215.32 563.644C1246.52 557.844 1269.12 544.544 1288.02 520.244C1285.12 519.644 1275.02 518.644 1273.32 518.644C1289.82 492.944 1291.22 470.044 1285.12 444.244C1273.02 446.544 1256.22 447.944 1244.72 450.944C1250.32 468.244 1257.62 500.744 1245.62 521.944C1240.22 520.244 1239.42 519.444 1234.62 516.944C1233.82 532.044 1223.52 548.644 1215.32 563.644Z" fill="#FCC13F"/>
<path d="M1338.82 587.245C1338.82 587.245 1345.92 586.645 1350.12 592.445C1353.92 597.645 1351.42 604.945 1345.62 609.245C1338.82 614.245 1327.22 615.145 1310.92 607.545C1308.72 589.745 1313.22 578.945 1320.02 574.045C1325.92 569.745 1333.62 569.645 1337.32 574.945C1341.52 580.745 1338.82 587.245 1338.82 587.245Z" fill="#7271B3"/>
<path d="M1144.62 50.1449L1141.12 30.3449L1149.12 29.0449L1151.02 39.9449L1166.42 35.5449L1168.62 43.3449L1144.62 50.1449Z" fill="#FCC13F"/>
<path d="M309.617 872.044L275.817 1022.84C270.017 1048.54 289.617 1072.94 315.917 1072.94H522.017C541.117 1072.94 547.017 1059.84 551.417 1041.24L578.818 894.044C583.117 875.744 576.517 843.544 570.217 843.344L350.617 839.944C331.017 839.544 313.917 852.944 309.617 872.044Z" fill="#FC008B"/>
<path d="M582.017 847.045C569.517 839.545 547.117 843.344 544.017 859.244L502.617 1072.84H552.617L592.917 874.645C595.217 863.745 590.717 852.345 582.017 847.045Z" fill="#D6007E"/>
<path d="M541.117 940.943L518.918 1040.04C515.118 1056.94 528.017 1072.94 545.217 1072.94H680.618C693.118 1072.94 697.017 1064.34 699.917 1052.14L717.917 955.443C720.717 943.443 716.417 922.243 712.217 922.143L567.918 919.843C555.218 919.543 543.917 928.443 541.117 940.943Z" fill="#FC008B"/>
<path d="M720.118 924.544C711.918 919.544 697.218 922.144 695.218 932.544L668.018 1072.84H700.818L727.318 942.644C728.718 935.444 725.818 928.044 720.118 924.544Z" fill="#D6007E"/>
<path d="M1678.12 1006.24C1677.62 1010.24 1680.52 1013.84 1684.52 1014.24C1688.52 1014.74 1692.12 1011.84 1692.52 1007.84C1693.02 1003.84 1690.12 1000.24 1686.12 999.845C1682.12 999.445 1678.52 1002.24 1678.12 1006.24Z" fill="#FF7A03"/>
<path d="M1688.92 1011.04C1686.22 1015.14 1679.72 1012.84 1680.32 1007.94C1680.62 1005.44 1682.92 1003.54 1685.52 1003.84C1689.02 1004.24 1690.82 1008.14 1688.92 1011.04Z" fill="#FF7A03"/>
<path d="M1641.72 1017.14C1644.32 1020.24 1643.92 1024.74 1640.82 1027.34C1637.72 1029.94 1633.22 1029.54 1630.62 1026.44C1628.02 1023.34 1628.42 1018.84 1631.52 1016.24C1634.62 1013.64 1639.12 1014.14 1641.72 1017.14Z" fill="#FF7A03"/>
<path d="M1640.32 1026.44C1638.32 1028.14 1635.42 1027.84 1633.72 1025.84C1632.42 1024.24 1632.22 1021.94 1633.42 1020.24C1633.62 1019.84 1633.92 1019.54 1634.32 1019.24C1635.32 1018.44 1636.52 1018.04 1637.72 1018.14C1641.82 1018.54 1643.42 1023.74 1640.32 1026.44Z" fill="#FF7A03"/>
<path d="M1674.42 1006.04C1674.42 1010.04 1671.22 1013.34 1667.22 1013.34C1663.22 1013.34 1659.92 1010.14 1659.92 1006.14C1659.92 1002.14 1663.12 998.844 1667.12 998.844C1671.22 998.744 1674.42 1002.04 1674.42 1006.04Z" fill="#FF7A03"/>
<path d="M1667.42 1012.14C1663.72 1012.14 1661.42 1007.94 1663.52 1004.84C1666.12 1000.94 1672.12 1002.84 1672.12 1007.34C1672.02 1010.04 1670.02 1012.14 1667.42 1012.14Z" fill="#FF7A03"/>
<path d="M1706.72 1018.54C1704.12 1021.64 1699.62 1022.04 1696.52 1019.44C1693.42 1016.84 1693.02 1012.34 1695.62 1009.24C1698.22 1006.14 1702.72 1005.74 1705.82 1008.34C1708.82 1010.84 1709.22 1015.44 1706.72 1018.54Z" fill="#FF7A03"/>
<path d="M1703.92 1018.04C1702.22 1020.04 1699.32 1020.34 1697.32 1018.64C1695.32 1017.04 1695.02 1014.04 1696.72 1012.04C1698.42 1010.04 1701.32 1009.74 1703.32 1011.44C1705.32 1013.14 1705.62 1016.04 1703.92 1018.04Z" fill="#FF7A03"/>
<path d="M1651.82 1102.24C1653.62 1098.64 1652.22 1094.34 1648.62 1092.54C1645.02 1090.74 1640.72 1092.14 1638.92 1095.74C1637.12 1099.34 1638.52 1103.64 1642.12 1105.44C1645.62 1107.24 1650.02 1105.74 1651.82 1102.24Z" fill="#FF7A03"/>
<path d="M1650.02 1100.34C1648.72 1102.34 1646.12 1103.04 1644.02 1101.94C1641.52 1100.74 1640.62 1097.54 1642.22 1095.14C1643.52 1093.14 1646.12 1092.44 1648.22 1093.54C1650.72 1094.84 1651.62 1097.94 1650.02 1100.34Z" fill="#FF7A03"/>
<path d="M1627.52 1077.64C1631.22 1076.04 1632.92 1071.74 1631.32 1068.14C1629.72 1064.44 1625.42 1062.74 1621.82 1064.34C1618.12 1065.94 1616.42 1070.24 1618.02 1073.84C1619.52 1077.54 1623.82 1079.24 1627.52 1077.64Z" fill="#FF7A03"/>
<path d="M1629.92 1073.14C1627.92 1076.24 1623.22 1075.84 1621.72 1072.44C1620.72 1070.04 1621.82 1067.34 1624.12 1066.24C1628.42 1064.44 1632.52 1069.24 1629.92 1073.14Z" fill="#FF7A03"/>
<path d="M1624.72 1043.24C1628.52 1044.34 1632.62 1042.24 1633.72 1038.34C1634.82 1034.44 1632.72 1030.44 1628.82 1029.34C1625.02 1028.24 1620.92 1030.34 1619.82 1034.24C1618.62 1038.04 1620.82 1042.04 1624.72 1043.24Z" fill="#FF7A03"/>
<path d="M1623.92 1039.04C1623.32 1037.94 1623.22 1036.64 1623.52 1035.44C1624.72 1031.44 1630.12 1030.94 1632.12 1034.54C1632.72 1035.64 1632.82 1036.94 1632.52 1038.14C1631.42 1042.14 1625.92 1042.74 1623.92 1039.04Z" fill="#FF7A03"/>
<path d="M1629.12 1080.94C1632.62 1078.94 1637.02 1080.14 1639.02 1083.54C1641.02 1087.04 1639.82 1091.44 1636.42 1093.44C1632.92 1095.44 1628.52 1094.24 1626.52 1090.84C1624.52 1087.34 1625.72 1082.94 1629.12 1080.94Z" fill="#FF7A03"/>
<path d="M1632.72 1090.84C1628.72 1089.74 1627.92 1084.34 1631.52 1082.24C1633.72 1080.94 1636.62 1081.74 1637.92 1083.94C1640.12 1087.54 1636.72 1091.94 1632.72 1090.84Z" fill="#FF7A03"/>
<path d="M1644.62 1015.04C1646.82 1018.34 1651.32 1019.34 1654.62 1017.14C1657.92 1014.94 1658.92 1010.44 1656.72 1007.14C1654.52 1003.84 1650.02 1002.84 1646.72 1005.04C1643.42 1007.14 1642.42 1011.64 1644.62 1015.04Z" fill="#FF7A03"/>
<path d="M1653.92 1016.25C1651.72 1017.65 1648.82 1017.05 1647.42 1014.95C1646.02 1012.75 1646.62 1009.85 1648.72 1008.45C1650.92 1007.05 1653.82 1007.65 1655.22 1009.75C1656.22 1011.35 1656.22 1013.35 1655.22 1014.95C1655.22 1015.05 1654.82 1015.65 1653.92 1016.25Z" fill="#FF7A03"/>
<path d="M1623.82 1046.74C1627.72 1047.44 1630.42 1051.14 1629.72 1055.14C1629.02 1059.04 1625.32 1061.74 1621.32 1061.04C1617.42 1060.34 1614.72 1056.64 1615.42 1052.64C1616.12 1048.64 1619.92 1046.04 1623.82 1046.74Z" fill="#FF7A03"/>
<path d="M1623.22 1058.65C1619.92 1058.05 1618.22 1054.25 1620.12 1051.45C1621.12 1049.85 1623.02 1049.05 1624.82 1049.35C1627.32 1049.75 1629.12 1052.25 1628.62 1054.75C1628.22 1057.35 1625.82 1059.05 1623.22 1058.65Z" fill="#FF7A03"/>
<path d="M1675.32 1052.14L1684.22 1014.14L1682.92 1013.84L1673.72 1053.44L1669.02 1013.04L1667.62 1013.24L1672.12 1052.04L1654.42 1017.24L1653.22 1017.84L1671.62 1054.14L1642.02 1026.14L1641.12 1027.14L1669.52 1053.94L1633.62 1038.64L1633.12 1039.94L1670.52 1055.94L1629.92 1053.54L1629.82 1054.94L1668.82 1057.24L1631.52 1068.54L1631.92 1069.84L1670.82 1058.04L1638.22 1082.34L1639.02 1083.44L1670.32 1060.14L1649.02 1092.84L1650.12 1093.54L1698.02 1020.44L1696.92 1019.64L1675.32 1052.14Z" fill="#FF7A03"/>
<path d="M1672.24 1051.87L1669.01 1056.81L1822.32 1157.27L1825.56 1152.34L1672.24 1051.87Z" fill="#FF7A03"/>
<path d="M1751.92 820.844C1747.92 826.344 1749.22 834.044 1754.72 837.944C1760.22 841.944 1767.92 840.644 1771.82 835.144C1775.82 829.644 1774.52 821.944 1769.02 818.044C1763.52 814.044 1755.82 815.344 1751.92 820.844Z" fill="#FF7A03"/>
<path d="M1763.92 836.844C1756.52 840.744 1748.92 831.944 1753.72 825.244C1756.22 821.744 1761.22 820.844 1764.82 823.444C1769.62 826.844 1769.12 834.144 1763.92 836.844Z" fill="#FF7A03"/>
<path d="M1689.12 807.244C1690.42 813.944 1686.12 820.344 1679.42 821.644C1672.72 822.944 1666.32 818.644 1665.02 811.944C1663.72 805.244 1668.02 798.844 1674.72 797.544C1681.32 796.244 1687.72 800.544 1689.12 807.244Z" fill="#FF7A03"/>
<path d="M1679.32 819.744C1675.02 820.644 1670.82 817.744 1670.02 813.544C1669.32 810.144 1671.02 806.644 1674.12 804.944C1674.82 804.544 1675.52 804.344 1676.32 804.144C1678.42 803.744 1680.52 804.144 1682.32 805.344C1688.12 809.244 1686.22 818.344 1679.32 819.744Z" fill="#FF7A03"/>
<path d="M1746.72 817.544C1743.42 823.444 1736.02 825.644 1730.02 822.344C1724.12 819.044 1721.92 811.644 1725.22 805.644C1728.52 799.744 1735.92 797.544 1741.92 800.844C1747.92 804.144 1749.92 811.544 1746.72 817.544Z" fill="#FF7A03"/>
<path d="M1731.12 820.844C1725.52 817.744 1725.72 809.744 1731.22 806.844C1738.22 803.144 1745.62 810.944 1741.92 817.644C1739.82 821.544 1735.02 822.944 1731.12 820.844Z" fill="#FF7A03"/>
<path d="M1784.12 862.444C1777.82 864.944 1770.72 861.744 1768.22 855.444C1765.72 849.144 1768.92 842.043 1775.22 839.543C1781.52 837.043 1788.62 840.243 1791.12 846.543C1793.62 852.843 1790.52 859.944 1784.12 862.444Z" fill="#FF7A03"/>
<path d="M1780.42 859.543C1776.32 861.143 1771.72 859.143 1770.12 855.043C1768.52 850.943 1770.52 846.342 1774.62 844.742C1778.72 843.142 1783.32 845.142 1784.92 849.242C1786.52 853.342 1784.52 857.943 1780.42 859.543Z" fill="#FF7A03"/>
<path d="M1634.32 941.444C1639.92 937.644 1641.32 929.944 1637.52 924.344C1633.72 918.744 1626.02 917.344 1620.42 921.144C1614.82 924.944 1613.42 932.644 1617.22 938.244C1621.02 943.844 1628.72 945.244 1634.32 941.444Z" fill="#FF7A03"/>
<path d="M1633.22 937.143C1629.62 939.043 1625.22 937.943 1623.02 934.543C1620.32 930.643 1621.62 925.243 1625.92 923.043C1629.52 921.143 1633.92 922.243 1636.12 925.643C1638.72 929.543 1637.42 934.943 1633.22 937.143Z" fill="#FF7A03"/>
<path d="M1618.42 885.143C1625.12 885.843 1631.22 880.843 1631.82 874.143C1632.52 867.443 1627.52 861.343 1620.82 860.743C1614.12 860.043 1608.02 865.043 1607.42 871.743C1606.72 878.443 1611.72 884.443 1618.42 885.143Z" fill="#FF7A03"/>
<path d="M1625.72 880.444C1620.22 883.344 1613.52 878.944 1614.12 872.644C1614.52 868.244 1618.42 865.044 1622.82 865.544C1630.62 866.244 1632.72 876.744 1625.72 880.444Z" fill="#FF7A03"/>
<path d="M1642.52 831.744C1647.22 836.544 1655.02 836.644 1659.92 831.944C1664.72 827.244 1664.82 819.444 1660.12 814.544C1655.42 809.744 1647.62 809.644 1642.72 814.344C1637.82 819.144 1637.72 826.944 1642.52 831.744Z" fill="#FF7A03"/>
<path d="M1644.82 825.044C1644.82 822.944 1645.72 820.944 1647.22 819.444C1652.22 814.544 1660.82 818.144 1660.72 825.244C1660.72 827.344 1659.82 829.344 1658.32 830.844C1653.32 835.744 1644.72 832.144 1644.82 825.044Z" fill="#FF7A03"/>
<path d="M1618.22 891.244C1625.02 891.144 1630.62 896.444 1630.72 903.244C1630.82 910.044 1625.52 915.644 1618.72 915.744C1611.92 915.844 1606.32 910.544 1606.22 903.744C1606.02 897.044 1611.42 891.444 1618.22 891.244Z" fill="#FF7A03"/>
<path d="M1615.42 908.944C1610.32 904.044 1613.62 895.444 1620.72 895.244C1625.12 895.144 1628.72 898.644 1628.82 903.044C1629.02 910.144 1620.42 913.844 1615.42 908.944Z" fill="#FF7A03"/>
<path d="M1695.22 806.344C1695.72 813.144 1701.62 818.144 1708.42 817.644C1715.22 817.144 1720.22 811.244 1719.72 804.444C1719.22 797.644 1713.32 792.644 1706.52 793.144C1699.72 793.744 1694.72 799.644 1695.22 806.344Z" fill="#FF7A03"/>
<path d="M1707.92 815.843C1703.52 816.143 1699.72 812.943 1699.42 808.543C1699.12 804.143 1702.32 800.343 1706.72 800.043C1711.12 799.743 1714.92 802.943 1715.22 807.343C1715.42 810.543 1713.82 813.543 1711.02 814.943C1710.72 815.043 1709.72 815.643 1707.92 815.843Z" fill="#FF7A03"/>
<path d="M1638.32 836.344C1643.62 840.544 1644.42 848.344 1640.22 853.644C1636.02 858.944 1628.22 859.744 1622.92 855.544C1617.62 851.344 1616.82 843.544 1621.02 838.244C1625.32 832.944 1633.02 832.144 1638.32 836.344Z" fill="#FF7A03"/>
<path d="M1627.72 853.445C1623.22 849.845 1624.02 842.844 1629.02 840.244C1631.82 838.744 1635.22 839.145 1637.72 841.045C1641.12 843.745 1641.72 848.744 1638.92 852.244C1636.12 855.644 1631.12 856.145 1627.72 853.445Z" fill="#FF7A03"/>
<path d="M1711.32 885.143L1754.32 837.543L1752.62 835.943L1707.92 883.443L1732.62 823.343L1730.52 822.443L1705.52 881.343L1707.82 817.543L1705.52 817.443L1701.22 880.743L1682.12 820.643L1679.92 821.343L1699.92 884.343L1659.32 832.243L1657.52 833.643L1699.02 886.943L1641.62 851.143L1640.42 853.143L1696.22 888.443L1631.62 874.643L1631.12 876.943L1696.92 891.043L1630.22 900.543L1630.52 902.843L1696.02 894.043L1637.62 924.943L1638.72 926.943L1769.72 857.943L1768.62 855.843L1711.32 885.143Z" fill="#FF7A03"/>
<path d="M1705.78 883.597L1697.02 888.213L1841.69 1162.74L1850.44 1158.12L1705.78 883.597Z" fill="#FF7A03"/>
<path d="M1834.32 1165.74C1834.32 1165.74 1934.82 1091.14 1948.62 1059.04C1962.42 1026.94 1934.02 1030.54 1934.02 1030.54C1934.02 1030.54 1974.62 973.044 1963.82 954.044C1953.02 935.044 1930.62 959.344 1930.62 959.344C1930.62 959.344 1949.42 881.544 1933.12 877.244C1902.62 869.144 1877.62 952.844 1877.62 952.844C1877.62 952.844 1879.82 918.044 1860.82 922.744C1832.02 929.844 1847.22 1004.64 1847.22 1004.64C1847.22 1004.64 1838.02 991.344 1822.22 1004.04C1793.92 1026.54 1834.32 1165.74 1834.32 1165.74Z" fill="#8CD334"/>
<path d="M1818.02 1005.84C1833.82 993.244 1847.22 1004.54 1847.22 1004.54C1847.22 1004.54 1832.02 929.744 1860.82 922.644C1879.92 917.944 1877.72 951.244 1877.72 951.244C1877.72 951.244 1902.72 869.044 1933.12 877.044L1833.62 1165.34C1829.22 1147.44 1791.52 1027.04 1818.02 1005.84Z" fill="#2BA14C"/>
<path d="M1834.52 1163.14C1834.52 1163.14 1902.82 1164.24 1939.82 1154.64C1948.42 1152.44 1954.82 1148.54 1958.82 1145.14C1980.12 1127.34 1954.02 1125.94 1954.02 1125.94C1954.02 1125.94 2003.22 1099.84 2002.52 1082.44C2001.82 1065.04 1985.12 1068.54 1985.12 1068.54C1985.12 1068.54 2019.12 1038.04 2012.12 1023.34C2001.42 1000.64 1952.72 1043.64 1952.72 1043.64C1952.72 1043.64 1956.42 1026.34 1941.32 1022.74C1918.52 1017.34 1895.52 1082.04 1895.52 1082.04C1895.52 1082.04 1906.42 1052.94 1890.72 1056.14C1862.62 1061.84 1834.52 1163.14 1834.52 1163.14Z" fill="#2BA14C"/>
<path d="M1830.22 1168.84C1830.22 1168.84 1738.82 1090.84 1727.72 1059.44C1716.52 1028.04 1743.32 1033.24 1743.32 1033.24C1743.32 1033.24 1708.22 976.044 1719.62 958.644C1731.02 941.244 1750.82 965.644 1750.82 965.644C1750.82 965.644 1737.62 890.544 1753.42 887.344C1782.92 881.544 1800.82 970.644 1800.82 970.644C1800.82 970.644 1805.62 942.044 1820.42 948.444C1842.32 957.944 1827.42 1013.84 1827.42 1013.84C1827.42 1013.84 1837.32 987.544 1851.62 1000.54C1877.22 1023.74 1830.22 1168.84 1830.22 1168.84Z" fill="#2BA14C"/>
<path d="M1856.02 995.843C1839.52 985.943 1831.32 998.743 1831.32 998.743C1831.32 998.743 1846.52 943.643 1819.52 935.143C1801.62 929.543 1801.72 962.743 1801.72 962.743C1801.72 962.743 1783.02 881.543 1753.52 887.443L1830.72 1167.84C1835.92 1150.84 1875.62 1007.64 1856.02 995.843Z" fill="url(#paint1_linear)"/>
<path d="M1821.02 1157.64C1821.02 1157.64 1720.62 1157.64 1706.62 1156.04C1692.62 1154.44 1708.12 1141.94 1708.12 1141.94C1708.12 1141.94 1676.92 1143.04 1672.12 1135.44C1667.32 1127.84 1680.12 1124.84 1680.12 1124.84C1680.12 1124.84 1649.02 1115.84 1650.52 1109.24C1653.32 1096.94 1687.62 1104.94 1687.62 1104.94C1687.62 1104.94 1674.82 1098.74 1680.02 1092.94C1687.82 1084.24 1721.22 1107.84 1721.22 1107.84C1721.22 1107.84 1708.72 1084.14 1716.12 1081.14C1729.42 1075.84 1821.02 1157.64 1821.02 1157.64Z" fill="#8CD334"/>
<path d="M1748.52 1270.64H1915.62C1936.92 1251.24 1949.82 1224.44 1949.42 1195.04C1949.22 1180.24 1946.12 1167.24 1939.72 1154.54L1724.32 1156.94C1718.32 1169.84 1715.22 1184.04 1715.42 1198.84C1715.82 1226.94 1728.42 1252.14 1748.52 1270.64Z" fill="#FC008B"/>
<path d="M562.717 1131.45L541.317 1130.95L551.417 1270.45L575.917 1270.65L562.717 1131.45Z" fill="#2BA14C"/>
<path d="M532.717 1141.94V1123.14C532.717 1109.14 517.917 1097.84 499.617 1097.84C481.317 1097.84 466.517 1109.24 466.517 1123.14V1141.84C466.517 1143.64 462.917 1143.64 462.917 1141.84V1123.14C462.917 1107.64 479.417 1095.04 499.617 1095.04C519.917 1095.04 536.318 1107.64 536.318 1123.14V1141.84C536.318 1143.74 532.717 1143.74 532.717 1141.94Z" fill="#FF7A03"/>
<path d="M551.417 1270.45H405.317L413.417 1131.45L541.317 1130.95L551.417 1270.45Z" fill="#8CD334"/>
<path d="M475.317 1256.95L405.317 1270.45H551.417L475.317 1256.95Z" fill="#2BA14C"/>
<path d="M510.517 1144.54V1125.84C510.517 1111.84 495.717 1100.54 477.417 1100.54C459.117 1100.54 444.317 1111.94 444.317 1125.84V1144.54C444.317 1146.34 440.717 1146.34 440.717 1144.54V1125.84C440.717 1110.34 457.217 1097.74 477.417 1097.74C497.717 1097.74 514.117 1110.34 514.117 1125.84V1144.54C514.217 1146.34 510.517 1146.34 510.517 1144.54Z" fill="#FF7A03"/>
<path d="M660.417 586.145L638.917 585.645L649.018 725.245L673.618 725.445L660.417 586.145Z" fill="#FFA42F"/>
<path d="M630.318 596.644V577.944C630.318 563.944 615.518 552.644 597.218 552.644C578.918 552.644 564.118 564.044 564.118 577.944V596.644C564.118 598.444 560.518 598.444 560.518 596.644V577.944C560.518 562.444 577.018 549.844 597.218 549.844C617.518 549.844 633.917 562.444 633.917 577.944V596.644C634.017 598.544 630.318 598.544 630.318 596.644Z" fill="#FF7A03"/>
<path d="M649.017 725.245H502.917L511.017 586.145L638.917 585.645L649.017 725.245Z" fill="#FCC13F"/>
<path d="M572.917 711.645L502.917 725.245H649.017L572.917 711.645Z" fill="#FFA42F"/>
<path d="M608.217 599.343V580.643C608.217 566.643 593.417 555.343 575.117 555.343C556.817 555.343 542.017 566.743 542.017 580.643V599.343C542.017 601.143 538.417 601.143 538.417 599.343V580.643C538.417 565.143 554.917 552.543 575.117 552.543C595.417 552.543 611.818 565.143 611.818 580.643V599.343C611.818 601.143 608.217 601.143 608.217 599.343Z" fill="#FF7A03"/>
<path d="M417.318 1058.75L392.417 1057.95L404.117 1270.35L432.717 1270.65L417.318 1058.75Z" fill="#FFA42F"/>
<path d="M382.417 1074.44V1045.94C382.417 1024.74 365.117 1007.44 343.917 1007.44C322.717 1007.44 305.417 1024.74 305.417 1045.94V1074.44C305.417 1077.24 301.217 1077.24 301.217 1074.44V1045.94C301.217 1022.34 320.417 1003.14 344.017 1003.14C367.617 1003.14 386.817 1022.34 386.817 1045.94V1074.44C386.617 1077.24 382.417 1077.24 382.417 1074.44Z" fill="#FF7A03"/>
<path d="M404.117 1270.35H234.217L243.617 1058.75L392.417 1057.95L404.117 1270.35Z" fill="#FCC13F"/>
<path d="M315.617 1249.74L234.217 1270.34H404.117L315.617 1249.74Z" fill="#FFA42F"/>
<path d="M356.617 1078.44V1049.94C356.617 1028.74 339.317 1011.44 318.117 1011.44C296.917 1011.44 279.617 1028.74 279.617 1049.94V1078.44C279.617 1081.24 275.417 1081.24 275.417 1078.44V1049.94C275.417 1026.34 294.617 1007.14 318.217 1007.14C341.817 1007.14 361.017 1026.34 361.017 1049.94V1078.44C360.817 1081.24 356.617 1081.24 356.617 1078.44Z" fill="#FF7A03"/>
<path d="M801.618 672.844L828.318 732.244L858.917 728.644L848.018 664.844L801.618 672.844Z" fill="#F7CC7F"/>
<path d="M1224.62 1222.95L1225.32 1270.85H1228.02C1228.02 1270.85 1231.32 1236.85 1233.12 1234.25C1234.92 1231.65 1224.62 1222.95 1224.62 1222.95Z" fill="#D6007E"/>
<path d="M1225.32 1270.75H1222.32C1222.32 1270.75 1223.82 1241.55 1222.32 1234.15C1220.82 1226.75 1218.02 1215.85 1218.02 1215.85L1224.62 1222.85L1225.32 1270.75Z" fill="#FC008B"/>
<path d="M1231.42 1185.55C1230.82 1185.65 1227.22 1189.75 1226.02 1194.95C1224.82 1200.15 1221.22 1205.55 1221.22 1205.55C1221.22 1205.55 1242.82 1247.05 1247.42 1255.95C1252.02 1264.85 1287.32 1257.25 1287.32 1257.25C1287.32 1257.25 1288.22 1253.95 1281.82 1249.85C1275.42 1245.65 1267.82 1237.25 1261.02 1225.15C1254.22 1213.05 1239.42 1184.55 1231.42 1185.55Z" fill="#352E73"/>
<path d="M1281.82 1249.84C1281.82 1249.84 1269.82 1257.54 1259.02 1255.34C1248.32 1253.14 1244.62 1231.94 1240.12 1217.44C1235.62 1202.84 1229.82 1190.34 1230.62 1187.94L1231.32 1185.54C1231.32 1185.54 1221.82 1193.14 1218.42 1203.54C1216.52 1209.34 1216.92 1214.54 1219.12 1219.44C1220.82 1223.34 1223.72 1227.04 1227.32 1230.74C1235.52 1238.94 1239.52 1250.84 1240.42 1260.24C1241.32 1269.64 1241.72 1270.04 1242.52 1270.74C1243.22 1271.44 1298.52 1271.34 1303.12 1270.54C1307.72 1269.94 1295.02 1252.54 1281.82 1249.84Z" fill="#FC008B"/>
<path d="M1309.12 1214.34L1316.52 1270.94H1321.72C1321.72 1270.94 1322.42 1236.94 1324.22 1234.34C1326.02 1231.74 1309.12 1214.34 1309.12 1214.34Z" fill="#D6007E"/>
<path d="M1367.72 1250.14C1356.82 1249.64 1344.72 1232.24 1336.22 1217.54C1328.62 1204.34 1324.52 1198.14 1317.62 1190.24C1317.62 1190.24 1313.12 1193.24 1309.62 1203.74C1307.72 1209.54 1308.12 1214.74 1310.32 1219.64C1312.02 1223.54 1314.32 1228.04 1318.52 1230.94C1335.12 1242.34 1344.62 1270.64 1345.42 1271.34C1346.12 1272.04 1389.72 1271.54 1394.32 1270.74C1398.92 1269.94 1396.52 1251.34 1367.72 1250.14Z" fill="#FC008B"/>
<path d="M810.017 856.044C809.517 856.344 815.117 862.744 819.917 868.944C824.717 875.144 834.717 882.544 833.217 883.644C832.017 884.544 825.317 880.644 820.017 876.044C821.017 877.744 821.217 878.744 820.117 878.644C815.517 878.344 798.617 864.244 787.417 845.344C776.217 826.444 719.617 704.744 740.017 697.144C747.517 694.344 810.917 677.544 827.417 673.244L835.417 729.944H778.517C782.717 765.344 795.717 807.944 796.417 810.144C798.417 816.144 808.317 819.444 810.117 820.744C820.217 827.744 833.017 836.944 832.717 841.844C832.417 846.744 824.017 838.844 817.317 836.544C810.617 834.244 818.217 861.944 838.017 874.644C857.817 887.344 830.217 880.044 825.217 873.844C820.117 867.644 810.817 855.544 810.017 856.044Z" fill="#F7A491"/>
<path d="M1196.62 652.346C1195.82 651.346 1195.12 652.646 1194.52 655.046C1193.52 647.546 1190.12 639.046 1188.52 638.846C1186.62 638.546 1190.22 650.846 1189.12 658.646C1188.02 666.446 1187.82 675.646 1187.22 675.546C1186.22 675.246 1187.82 664.746 1188.82 656.746C1189.82 648.746 1175.52 619.246 1180.62 642.346C1185.72 665.446 1170.82 690.246 1167.72 683.746C1164.52 677.246 1164.22 665.746 1160.42 668.846C1156.62 671.946 1161.02 687.546 1161.32 699.846C1161.32 701.246 1162.72 705.146 1164.52 709.646C1165.42 711.946 1164.72 714.646 1162.82 716.346L1108.32 758.346L1077.62 710.046L1030.22 738.046C1030.22 738.046 1070.32 808.046 1107.92 802.746C1122.92 800.646 1174.62 744.446 1190.72 715.546C1206.72 686.946 1200.32 656.546 1196.62 652.346Z" fill="#F7A491"/>
<path d="M1032.12 651.445C1047.62 658.845 1094.52 730.045 1094.52 730.045L1049.82 773.845L1020.32 735.345C1020.32 735.345 1013.02 642.345 1032.12 651.445Z" fill="#D6007E"/>
<path d="M912.217 643.744C912.217 643.744 902.617 644.144 878.217 651.944C851.617 660.444 801.617 672.944 801.617 672.944L828.317 732.244L917.517 721.644C917.517 721.644 926.217 643.744 912.217 643.744Z" fill="#D6007E"/>
<path d="M1036.32 872.146C1012.42 884.846 925.917 882.846 925.917 882.846C923.617 858.946 901.717 785.046 896.417 733.546C889.717 697.746 904.917 697.246 912.217 643.746C912.217 643.346 949.317 640.846 949.317 640.846L987.917 641.846C987.917 641.846 1021.52 644.546 1032.12 651.546C1032.82 652.046 1037.12 712.446 1033.82 755.346C1031.52 784.546 1028.22 808.146 1028.42 827.446C1028.82 855.346 1036.32 872.146 1036.32 872.146Z" fill="#FC008B"/>
<path d="M924.217 871.346L834.917 943.646C834.917 943.646 1000.92 1030.45 1058.52 1013.95L1074.22 935.446L1036.32 872.146L924.217 871.346Z" fill="#352E73"/>
<path d="M908.217 966.845C908.217 966.845 844.617 957.145 806.517 987.745C768.417 1018.45 743.717 1079.75 763.117 1089.45C782.517 1099.15 839.417 1087.95 884.317 1071.55C929.217 1055.15 944.817 975.845 908.217 966.845Z" fill="#2D2861"/>
<path d="M766.117 1030.44C760.817 1041.84 765.517 1052.84 774.317 1058.84C785.217 1066.34 935.417 1088.24 986.717 1095.24C1026.72 1100.64 1087.02 1113.44 1103.42 1116.44C1119.92 1119.44 1177.82 1120.44 1178.92 1118.64C1182.02 1113.74 1175.22 1104.44 1163.22 1101.44C1151.22 1098.44 1143.02 1100.74 1119.82 1084.94C1096.62 1069.24 1087.62 1081.94 1081.72 1085.64C1075.72 1089.34 813.217 1001.14 813.217 1001.14C813.217 1001.14 777.917 1004.94 766.117 1030.44Z" fill="#F48C7F"/>
<path d="M911.917 885.346C911.917 885.346 795.717 939.846 771.217 955.646C725.317 985.246 751.417 1070.55 757.917 1084.05C757.917 1084.05 771.218 1008.05 813.118 1001.25L820.618 965.346L911.917 885.346Z" fill="#352E73"/>
<path d="M1028.62 899.546C1028.62 899.546 864.817 855.445 803.517 912.245C803.517 912.245 774.817 938.646 785.217 970.046C791.117 987.846 813.217 1001.25 813.217 1001.25C813.217 1001.25 870.017 952.645 893.217 960.845C916.417 969.045 1006.42 1032.55 1032.32 1029.65C1072.72 1025.25 1119.82 932.446 1028.62 899.546Z" fill="#7271B3"/>
<path d="M925.817 972.545C908.417 963.745 867.017 944.445 839.317 952.645C811.617 960.845 800.718 983.245 813.118 1001.24C820.418 1011.84 1062.12 1084.24 1073.42 1090.94C1084.62 1097.64 1131.02 1107.44 1145.22 1107.44C1159.42 1107.44 1185.62 1112.64 1187.82 1108.94C1190.02 1105.24 1177.32 1092.44 1161.62 1089.54C1145.92 1086.54 1124.22 1065.64 1115.22 1058.14C1106.22 1050.64 1103.32 1043.84 1086.82 1054.44C1079.02 1059.54 966.217 992.945 925.817 972.545Z" fill="#F7A491"/>
<path d="M1040.72 723.246C1042.02 761.046 1004.42 771.446 962.517 771.446C920.617 771.446 886.717 752.946 886.717 730.046C886.717 707.146 914.517 676.446 956.417 675.046C1008.92 673.346 1039.82 694.246 1040.72 723.246Z" fill="#FC008B"/>
<path d="M959.117 578.546C959.117 578.546 958.217 584.846 956.917 593.546C954.417 609.446 953.117 635.646 949.917 643.546C947.117 650.546 952.017 700.646 972.117 700.646C995.317 700.646 993.217 656.246 993.917 647.646C994.617 639.146 996.917 609.946 998.417 590.546C999.217 580.046 999.817 572.346 999.817 572.346L959.117 578.546Z" fill="#F7A491"/>
<path d="M998.517 590.146C999.317 579.846 999.817 572.346 999.817 572.346L959.017 578.546C959.017 578.546 958.017 584.446 956.817 592.846C973.417 602.446 988.317 599.446 998.517 590.146Z" fill="#F47458"/>
<path d="M971.917 486.246C971.917 486.246 955.817 489.846 945.917 505.046C936.017 520.146 929.217 564.746 961.917 585.646C994.617 606.446 1020.02 577.046 1020.42 548.246C1020.82 519.446 1014.62 481.146 971.917 486.246Z" fill="#F7A491"/>
<path d="M1027.82 539.244C1025.02 546.144 1019.52 550.444 1015.42 548.844C1011.32 547.244 1010.42 540.244 1013.12 533.344C1015.92 526.444 1021.42 522.144 1025.52 523.744C1029.62 525.344 1030.62 532.244 1027.82 539.244Z" fill="#F7A491"/>
<path d="M976.717 485.245C976.717 485.245 956.217 531.245 938.217 535.345C920.217 539.445 920.517 562.545 920.517 562.545C920.517 562.545 920.917 509.145 937.817 496.845C954.617 484.645 976.717 485.245 976.717 485.245Z" fill="#2D2861"/>
<path d="M945.717 553.146C947.917 560.046 945.917 566.746 941.217 568.246C936.517 569.746 931.017 565.346 928.917 558.446C926.717 551.546 928.717 544.846 933.417 543.346C938.017 541.946 943.517 546.346 945.717 553.146Z" fill="#F7A491"/>
<path d="M1201.02 646.846C1200.22 645.846 1195.12 652.746 1194.52 655.046C1193.52 647.546 1190.12 639.046 1188.52 638.846C1186.62 638.546 1190.22 650.846 1189.12 658.646C1188.02 666.446 1187.82 675.646 1187.22 675.546C1186.22 675.246 1187.82 664.746 1188.82 656.746C1189.82 648.746 1175.52 619.246 1180.62 642.346C1185.72 665.446 1170.82 690.246 1167.72 683.746C1164.52 677.246 1164.22 665.746 1160.42 668.846C1156.62 671.946 1161.02 687.546 1161.32 699.846C1161.32 701.246 1162.72 705.146 1164.52 709.646C1165.42 711.946 1164.72 714.646 1162.82 716.346L1182.72 728.346C1185.92 723.546 1188.62 719.246 1190.72 715.546C1206.72 686.946 1204.72 650.946 1201.02 646.846Z" fill="#F7A491"/>
<path d="M1198.22 611.645L1183.62 698.245L1184.62 698.645C1189.32 700.145 1192.32 697.545 1192.72 696.045L1206.32 621.545C1206.92 618.245 1207.52 612.445 1198.22 611.645Z" fill="#2D2861"/>
<path d="M1176.22 614.045L1166.52 686.945C1166.22 688.845 1167.32 690.745 1169.02 691.545L1183.92 698.445C1186.62 699.645 1189.72 698.045 1190.12 695.045L1202.22 616.745C1202.62 614.245 1200.82 611.845 1198.22 611.645L1180.92 610.145C1178.62 609.945 1176.52 611.645 1176.22 614.045Z" fill="#352E73"/>
<path d="M641.517 493.243L527.217 503.843C518.317 504.643 510.417 498.143 509.617 489.143L656.217 475.543C657.017 484.543 650.417 492.443 641.517 493.243Z" fill="#FEE2BF"/>
<path d="M638.818 420.043C626.018 421.243 616.418 430.443 617.318 440.443C618.218 450.543 629.418 457.743 642.218 456.643C655.018 455.443 664.618 446.243 663.718 436.243C662.818 426.243 651.618 418.943 638.818 420.043ZM641.418 448.443C633.318 449.243 626.018 445.243 625.518 439.743C625.018 434.343 631.418 429.043 639.518 428.343C647.618 427.643 654.918 431.543 655.418 437.043C655.918 442.443 649.518 447.643 641.418 448.443Z" fill="#FEE2BF"/>
<path d="M632.917 404.244C637.217 450.244 614.118 489.944 581.318 492.944C548.618 495.944 518.618 461.144 514.318 415.144C513.818 409.344 539.918 402.144 572.618 399.144C605.418 396.144 632.417 398.444 632.917 404.244Z" fill="#FEE2BF"/>
<path d="M632.917 404.243C633.417 410.043 607.318 417.243 574.618 420.343C541.918 423.343 514.918 421.043 514.318 415.243C513.818 409.443 539.918 402.243 572.618 399.243C605.418 396.143 632.417 398.443 632.917 404.243Z" fill="#FCC13F"/>
<path d="M750.717 145.245C747.017 140.045 746.617 133.445 748.917 127.445C742.517 127.645 736.318 124.845 732.518 119.445C731.418 117.845 730.518 116.145 730.018 114.345C723.718 116.445 716.218 113.845 711.818 107.645C710.618 105.945 709.717 104.045 709.217 102.145C696.917 102.645 684.517 106.545 673.717 114.245C643.817 135.345 636.718 176.745 657.818 206.645C678.918 236.545 720.317 243.645 750.217 222.545C773.717 205.945 783.217 176.845 775.917 150.545C766.717 154.945 756.117 152.845 750.717 145.245ZM726.618 189.245C715.118 197.345 699.218 194.645 691.118 183.145C683.018 171.645 685.717 155.745 697.217 147.645C708.717 139.545 724.617 142.245 732.717 153.745C740.817 165.245 738.118 181.145 726.618 189.245Z" fill="#FCC13F"/>
<path d="M671.018 166.845C669.518 167.945 667.418 167.545 666.318 166.045L662.418 160.545C661.318 159.045 661.718 156.945 663.218 155.845C664.718 154.745 666.818 155.145 667.918 156.645L671.818 162.145C672.918 163.645 672.518 165.745 671.018 166.845Z" fill="#FAE0B2"/>
<path d="M742.318 142.345L742.518 144.645C742.618 145.845 741.718 146.945 740.518 147.045L734.618 147.545C733.418 147.645 732.318 146.745 732.218 145.545L732.018 143.245C731.918 142.045 732.818 140.945 734.018 140.845L739.918 140.345C741.218 140.245 742.218 141.145 742.318 142.345Z" fill="#FAE0B2"/>
<path d="M676.318 185.444L678.318 186.244C679.518 186.744 680.018 188.044 679.618 189.144L677.218 195.144C676.718 196.344 675.418 196.844 674.318 196.444L672.318 195.644C671.118 195.144 670.618 193.844 671.018 192.744L673.418 186.744C673.818 185.544 675.118 184.944 676.318 185.444Z" fill="#FAE0B2"/>
<path d="M755.718 164.745L757.718 165.545C758.918 166.045 759.418 167.345 759.018 168.445L756.618 174.445C756.118 175.645 754.818 176.145 753.718 175.745L751.718 174.945C750.518 174.445 750.018 173.145 750.418 172.045L752.818 166.045C753.318 164.845 754.618 164.245 755.718 164.745Z" fill="#FAE0B2"/>
<path d="M687.017 135.044L688.017 136.944C688.617 138.044 688.218 139.444 687.118 140.044L681.417 143.044C680.317 143.644 678.918 143.244 678.318 142.144L677.318 140.244C676.718 139.144 677.117 137.744 678.217 137.144L683.917 134.144C685.017 133.544 686.417 133.944 687.017 135.044Z" fill="#FAE0B2"/>
<path d="M753.517 186.944L754.517 188.844C755.117 189.944 754.718 191.344 753.618 191.944L747.917 194.944C746.817 195.544 745.418 195.144 744.818 194.044L743.818 192.144C743.218 191.044 743.617 189.644 744.717 189.044L750.417 186.044C751.617 185.444 752.917 185.844 753.517 186.944Z" fill="#FAE0B2"/>
<path d="M712.518 119.545L714.718 119.845C715.918 120.045 716.818 121.145 716.618 122.345L715.818 128.745C715.618 129.945 714.518 130.845 713.318 130.645L711.118 130.345C709.918 130.145 709.018 129.045 709.218 127.845L710.018 121.445C710.118 120.245 711.318 119.345 712.518 119.545Z" fill="#FAE0B2"/>
<path d="M726.118 205.344L728.318 205.644C729.518 205.844 730.418 206.944 730.218 208.144L729.418 214.544C729.218 215.744 728.118 216.644 726.918 216.444L724.718 216.144C723.518 215.944 722.618 214.844 722.818 213.644L723.618 207.244C723.718 206.044 724.818 205.144 726.118 205.344Z" fill="#FAE0B2"/>
<path d="M702.818 205.844C703.518 207.544 702.818 209.544 701.118 210.244L694.918 212.944C693.218 213.644 691.218 212.944 690.518 211.244C689.818 209.544 690.518 207.544 692.218 206.844L698.418 204.144C700.118 203.344 702.118 204.144 702.818 205.844Z" fill="#FAE0B2"/>
<path d="M996.318 72.944C998.418 83.544 1009.92 138.544 1030.02 155.444C1030.82 156.144 1058.82 161.744 1059.62 162.444C1082.22 180.844 1079.72 184.644 1079.12 186.844C1078.72 188.744 1077.22 193.644 1074.52 193.744C1069.72 193.944 1054.92 190.644 1014.12 178.844C1013.32 178.644 1012.62 177.944 1012.42 177.044C1002.42 135.344 984.618 117.344 982.618 125.644C972.218 168.244 973.018 169.544 969.618 168.644C968.018 167.944 963.518 168.244 964.018 164.944C965.718 154.044 972.818 107.044 969.818 101.944C966.418 96.344 968.718 68.944 994.018 70.944C995.218 71.044 996.118 71.844 996.318 72.944Z" fill="#FC008B"/>
<path d="M653.618 293.343H635.517V274.443C635.517 271.443 633.017 268.943 630.017 268.943C627.017 268.943 624.517 271.443 624.517 274.443V293.343H606.417C603.517 293.343 601.117 295.743 601.117 298.643C601.117 301.543 603.517 303.943 606.417 303.943H624.517V323.043C624.517 326.043 627.017 328.543 630.017 328.543C633.017 328.543 635.517 326.043 635.517 323.043V303.943H653.618C656.518 303.943 658.917 301.543 658.917 298.643C658.817 295.643 656.518 293.343 653.618 293.343Z" fill="#7271B3"/>
<path d="M881.018 118.343H862.917V99.4434C862.917 96.4434 860.417 93.9434 857.417 93.9434C854.417 93.9434 851.917 96.4434 851.917 99.4434V118.343H833.818C830.918 118.343 828.518 120.743 828.518 123.643C828.518 126.543 830.918 128.943 833.818 128.943H851.917V148.043C851.917 151.043 854.417 153.543 857.417 153.543C860.417 153.543 862.917 151.043 862.917 148.043V128.943H881.018C883.918 128.943 886.318 126.543 886.318 123.643C886.218 120.643 883.918 118.343 881.018 118.343Z" fill="#7271B3"/>
<path d="M1178.52 192.045H1160.42V173.145C1160.42 170.145 1157.92 167.645 1154.92 167.645C1151.92 167.645 1149.42 170.145 1149.42 173.145V192.045H1131.32C1128.42 192.045 1126.02 194.445 1126.02 197.345C1126.02 200.245 1128.42 202.645 1131.32 202.645H1149.42V221.745C1149.42 224.745 1151.92 227.245 1154.92 227.245C1157.92 227.245 1160.42 224.745 1160.42 221.745V202.645H1178.52C1181.42 202.645 1183.82 200.245 1183.82 197.345C1183.72 194.445 1181.42 192.045 1178.52 192.045Z" fill="#7271B3"/>
<path d="M1943.92 1270.64H8.01749C3.91749 1270.64 0.317488 1273.24 0.0174885 1276.64C-0.282512 1280.44 3.31744 1283.54 7.71744 1283.54H1943.92C1948.22 1283.54 1951.62 1280.64 1951.62 1277.04C1951.62 1273.54 1948.22 1270.64 1943.92 1270.64Z" fill="#FEE2BF"/>
<defs>
<linearGradient id="paint0_linear" x1="1035.83" y1="533.865" x2="1020.7" y2="1012.64" gradientUnits="userSpaceOnUse">
<stop stop-color="#8BF9FD"/>
<stop offset="0.9898" stop-color="#FAFEE5"/>
</linearGradient>
<linearGradient id="paint1_linear" x1="1845.84" y1="1169.46" x2="1806.4" y2="942.456" gradientUnits="userSpaceOnUse">
<stop stop-color="#37A849"/>
<stop offset="0.9898" stop-color="#91D53D"/>
</linearGradient>
</defs>
</svg>
