<svg width="460" height="407" viewBox="0 0 460 407" fill="none" xmlns="http://www.w3.org/2000/svg">
<path d="M100.859 184.901C103.159 186.201 103.159 188.401 100.859 189.701C98.559 191.001 94.859 191.001 92.559 189.701C90.259 188.401 90.259 186.201 92.559 184.901C94.859 183.601 98.559 183.601 100.859 184.901Z" fill="#EBE9EE"/>
<path d="M131.659 169.7L102.559 186.5C101.559 187.1 99.959 187.1 98.959 186.5C97.959 185.9 97.959 185 98.959 184.4L128.059 167.6C129.059 167 130.659 167 131.659 167.6C132.659 168.2 132.659 169.1 131.659 169.7Z" fill="#EBE9EE"/>
<path d="M174.859 144.7L145.759 161.5C144.759 162.1 143.159 162.1 142.159 161.5C141.159 160.9 141.159 160 142.159 159.4L171.259 142.6C172.259 142 173.859 142 174.859 142.6C175.859 143.2 175.859 144.2 174.859 144.7Z" fill="#EBE9EE"/>
<path d="M81.6588 265L11.1588 305.7C8.85879 307 5.15879 307 2.85879 305.7C0.558789 304.4 0.558789 302.2 2.85879 300.9L73.3588 260.2C75.6588 258.9 79.3588 258.9 81.6588 260.2C83.9588 261.6 83.9588 263.7 81.6588 265Z" fill="#EBE9EE"/>
<path d="M136.159 233.599L98.859 255.099C96.559 256.399 92.859 256.399 90.559 255.099C88.259 253.799 88.259 251.599 90.559 250.299L127.859 228.799C130.159 227.499 133.859 227.499 136.159 228.799C138.359 230.099 138.359 232.299 136.159 233.599Z" fill="#EBE9EE"/>
<path d="M102.559 231.599L32.0592 272.299C29.7592 273.599 26.0592 273.599 23.7592 272.299C21.4592 270.999 21.4592 268.799 23.7592 267.499L94.2592 226.799C96.5592 225.499 100.259 225.499 102.559 226.799C104.859 228.099 104.859 230.299 102.559 231.599Z" fill="#EBE9EE"/>
<path d="M192.759 179.5L122.259 220.2C119.959 221.5 116.259 221.5 113.959 220.2C111.659 218.9 111.659 216.7 113.959 215.4L184.459 174.7C186.759 173.4 190.459 173.4 192.759 174.7C194.959 176 194.959 178.2 192.759 179.5Z" fill="#EBE9EE"/>
<path d="M233.259 198.9L162.759 239.6C160.459 240.9 156.759 240.9 154.459 239.6C152.159 238.3 152.159 236.1 154.459 234.8L224.959 194.1C227.259 192.8 230.959 192.8 233.259 194.1C235.459 195.4 235.459 197.5 233.259 198.9Z" fill="#EBE9EE"/>
<path d="M100.159 275.699L79.5592 287.599C77.2592 288.899 73.5592 288.899 71.2592 287.599C68.9592 286.299 68.9592 284.099 71.2592 282.799L91.8592 270.899C94.1592 269.599 97.8592 269.599 100.159 270.899C102.459 272.299 102.459 274.399 100.159 275.699Z" fill="#EBE9EE"/>
<path d="M277.159 173.5L256.559 185.4C254.259 186.7 250.559 186.7 248.259 185.4C245.959 184.1 245.959 181.9 248.259 180.6L268.859 168.7C271.159 167.4 274.859 167.4 277.159 168.7C279.359 170 279.359 172.2 277.159 173.5Z" fill="#EBE9EE"/>
<path d="M116.559 202.099L46.0592 242.799C43.7592 244.099 40.0592 244.099 37.7592 242.799C35.4592 241.499 35.4592 239.299 37.7592 237.999L108.259 197.299C110.559 195.999 114.259 195.999 116.559 197.299C118.859 198.599 118.859 200.799 116.559 202.099Z" fill="#EBE9EE"/>
<path d="M160.459 176.8L139.859 188.7C137.559 190 133.859 190 131.559 188.7C129.259 187.4 129.259 185.2 131.559 183.9L152.159 172C154.459 170.7 158.159 170.7 160.459 172C162.759 173.3 162.759 175.4 160.459 176.8Z" fill="#EBE9EE"/>
<path d="M2.2589 321.6L5.3589 322.2C5.6589 322.2 5.8589 322.2 6.1589 322.1L8.75889 321C9.25889 320.8 10.0589 321 10.0589 321.4V323.3C10.0589 323.5 10.1589 323.6 10.3589 323.7L13.0589 324.8C13.6589 325 13.4589 325.5 12.8589 325.6L9.75889 326.2C9.45889 326.2 9.25889 326.4 9.25889 326.5L8.25889 328.3C8.05889 328.7 7.1589 328.8 6.7589 328.4L4.8589 326.8C4.6589 326.7 4.4589 326.6 4.1589 326.6H0.858901C0.158901 326.6 -0.241096 326.2 0.158904 325.8L2.1589 324.3C2.3589 324.2 2.3589 324 2.2589 323.9L1.1589 322.1C1.0589 321.8 1.6589 321.4 2.2589 321.6Z" fill="#EBE9EE"/>
<path d="M15.6593 313.899L18.7593 314.499C19.0593 314.499 19.2593 314.499 19.5593 314.399L22.1593 313.299C22.6593 313.099 23.4593 313.299 23.4593 313.699V315.599C23.4593 315.799 23.5593 315.899 23.7593 315.999L26.4593 317.099C27.0593 317.299 26.8593 317.799 26.2593 317.899L23.1593 318.499C22.8593 318.499 22.6593 318.699 22.6593 318.799L21.6593 320.599C21.4593 320.999 20.5593 321.099 20.1593 320.699L18.2593 319.099C18.0593 318.999 17.8593 318.899 17.5593 318.899H14.2593C13.5593 318.899 13.1593 318.499 13.5593 318.099L15.5593 316.599C15.7593 316.499 15.7593 316.299 15.6593 316.199L14.5593 314.399C14.3593 314.099 14.9593 313.699 15.6593 313.899Z" fill="#EBE9EE"/>
<path d="M28.9591 306.1L32.0591 306.7C32.3591 306.7 32.5591 306.7 32.8591 306.6L35.4591 305.5C35.9591 305.3 36.7591 305.5 36.7591 305.9V307.8C36.7591 308 36.8591 308.1 37.0591 308.2L39.7591 309.3C40.3591 309.5 40.1591 310 39.5591 310.1L36.4591 310.7C36.1591 310.7 35.9591 310.9 35.9591 311L34.9591 312.8C34.7591 313.2 33.8591 313.3 33.4591 312.9L31.5591 311.4C31.3591 311.3 31.1591 311.2 30.8591 311.2H27.5591C26.8591 311.2 26.4591 310.8 26.8591 310.4L28.8591 308.9C29.0591 308.8 29.0591 308.6 28.9591 308.5L27.8591 306.7C27.7591 306.4 28.3591 306 28.9591 306.1Z" fill="#EBE9EE"/>
<path d="M42.3585 298.399L45.4585 298.999C45.7585 299.099 45.9585 298.999 46.2585 298.899L48.8585 297.799C49.3585 297.599 50.1585 297.799 50.1585 298.199V300.099C50.1585 300.299 50.2585 300.399 50.4585 300.499L53.1585 301.599C53.7585 301.799 53.5585 302.299 52.9585 302.399L49.8585 302.999C49.5585 302.999 49.3585 303.199 49.3585 303.299L48.3585 305.099C48.1585 305.499 47.2585 305.599 46.8585 305.199L44.9585 303.599C44.7585 303.499 44.5585 303.399 44.2585 303.399H40.9585C40.2585 303.399 39.8585 302.999 40.2585 302.599L42.2585 301.099C42.4585 300.999 42.4585 300.799 42.3585 300.699L41.3585 298.999C41.0585 298.699 41.6585 298.299 42.3585 298.399Z" fill="#EBE9EE"/>
<path d="M55.6593 290.7L58.7593 291.3C59.0593 291.4 59.2593 291.3 59.5593 291.2L62.1593 290.1C62.6593 289.9 63.4593 290.1 63.4593 290.5V292.4C63.4593 292.6 63.5593 292.7 63.7593 292.8L66.4593 293.9C67.0593 294.1 66.8593 294.6 66.2593 294.7L63.1593 295.3C62.8593 295.3 62.6593 295.5 62.6593 295.6L61.6593 297.4C61.4593 297.8 60.5593 297.9 60.1593 297.5L58.2593 295.9C58.0593 295.8 57.8593 295.7 57.5593 295.7H54.2593C53.5593 295.7 53.1593 295.3 53.5593 294.9L55.5593 293.4C55.7593 293.3 55.7593 293.1 55.6593 293L54.5593 291.2C54.4593 291 55.0593 290.6 55.6593 290.7Z" fill="#EBE9EE"/>
<path d="M85.359 360L14.859 400.7C12.559 402 8.85898 402 6.55898 400.7C4.25898 399.4 4.25898 397.2 6.55898 395.9L77.059 355.2C79.359 353.9 83.059 353.9 85.359 355.2C87.659 356.6 87.659 358.7 85.359 360Z" fill="#EBE9EE"/>
<path d="M139.859 328.599L102.559 350.099C100.259 351.399 96.5592 351.399 94.2592 350.099C91.9592 348.799 91.9592 346.599 94.2592 345.299L131.559 323.799C133.859 322.499 137.559 322.499 139.859 323.799C142.159 325.099 142.159 327.199 139.859 328.599Z" fill="#EBE9EE"/>
<path d="M106.259 326.599L35.7594 367.299C33.4594 368.599 29.7594 368.599 27.4594 367.299C25.1594 365.999 25.1594 363.799 27.4594 362.499L97.9594 321.799C100.259 320.499 103.959 320.499 106.259 321.799C108.559 323.099 108.559 325.299 106.259 326.599Z" fill="#EBE9EE"/>
<path d="M196.459 274.5L125.959 315.2C123.659 316.5 119.959 316.5 117.659 315.2C115.359 313.9 115.359 311.7 117.659 310.4L188.159 269.7C190.459 268.4 194.159 268.4 196.459 269.7C198.759 271 198.759 273.2 196.459 274.5Z" fill="#EBE9EE"/>
<path d="M236.959 293.8L166.459 334.5C164.159 335.8 160.459 335.8 158.159 334.5C155.859 333.2 155.859 331 158.159 329.7L228.659 289C230.959 287.7 234.659 287.7 236.959 289C239.259 290.4 239.259 292.5 236.959 293.8Z" fill="#EBE9EE"/>
<path d="M103.859 370.699L83.2594 382.599C80.9594 383.899 77.2594 383.899 74.9594 382.599C72.6594 381.299 72.6594 379.099 74.9594 377.799L95.5594 365.899C97.8594 364.599 101.559 364.599 103.859 365.899C106.159 367.299 106.159 369.399 103.859 370.699Z" fill="#EBE9EE"/>
<path d="M280.859 268.5L260.259 280.4C257.959 281.7 254.259 281.7 251.959 280.4C249.659 279.1 249.659 276.9 251.959 275.6L272.559 263.7C274.859 262.4 278.559 262.4 280.859 263.7C283.159 265 283.159 267.2 280.859 268.5Z" fill="#EBE9EE"/>
<path d="M120.259 297.099L49.7594 337.799C47.4594 339.099 43.7594 339.099 41.4594 337.799C39.1594 336.499 39.1594 334.299 41.4594 332.999L111.959 292.299C114.259 290.999 117.959 290.999 120.259 292.299C122.559 293.599 122.559 295.799 120.259 297.099Z" fill="#EBE9EE"/>
<path d="M164.159 271.699L143.559 283.599C141.259 284.899 137.559 284.899 135.259 283.599C132.959 282.299 132.959 280.099 135.259 278.799L155.859 266.899C158.159 265.599 161.859 265.599 164.159 266.899C166.459 268.299 166.459 270.399 164.159 271.699Z" fill="#EBE9EE"/>
<path d="M193.559 339.8L123.059 380.5C120.759 381.8 117.059 381.8 114.759 380.5C112.459 379.2 112.459 377 114.759 375.7L185.259 335C187.559 333.7 191.259 333.7 193.559 335C195.859 336.4 195.859 338.5 193.559 339.8Z" fill="#EBE9EE"/>
<path d="M248.059 308.4L210.759 329.9C208.459 331.2 204.759 331.2 202.459 329.9C200.159 328.6 200.159 326.4 202.459 325.1L239.759 303.6C242.059 302.3 245.759 302.3 248.059 303.6C250.359 304.9 250.359 307 248.059 308.4Z" fill="#EBE9EE"/>
<path d="M214.46 306.4L143.96 347.1C141.66 348.4 137.96 348.4 135.66 347.1C133.36 345.8 133.36 343.6 135.66 342.3L206.16 301.6C208.46 300.3 212.16 300.3 214.46 301.6C216.76 302.9 216.76 305 214.46 306.4Z" fill="#EBE9EE"/>
<path d="M304.659 254.3L234.159 295C231.859 296.3 228.159 296.3 225.859 295C223.559 293.7 223.559 291.5 225.859 290.2L296.359 249.5C298.659 248.2 302.359 248.2 304.659 249.5C306.959 250.8 306.959 253 304.659 254.3Z" fill="#EBE9EE"/>
<path d="M345.159 273.601L274.659 314.301C272.359 315.601 268.659 315.601 266.359 314.301C264.059 313.001 264.059 310.801 266.359 309.501L336.859 268.801C339.159 267.501 342.859 267.501 345.159 268.801C347.459 270.201 347.459 272.301 345.159 273.601Z" fill="#EBE9EE"/>
<path d="M212.059 350.5L191.359 362.4C189.059 363.7 185.359 363.7 183.059 362.4C180.759 361.1 180.759 358.9 183.059 357.6L203.659 345.7C205.959 344.4 209.659 344.4 211.959 345.7C214.359 347 214.359 349.2 212.059 350.5Z" fill="#EBE9EE"/>
<path d="M389.059 248.3L368.359 260.2C366.059 261.5 362.359 261.5 360.059 260.2C357.759 258.9 357.759 256.7 360.059 255.4L380.659 243.5C382.959 242.2 386.659 242.2 388.959 243.5C391.359 244.8 391.359 247 389.059 248.3Z" fill="#EBE9EE"/>
<path d="M228.46 276.9L157.96 317.6C155.66 318.9 151.96 318.9 149.66 317.6C147.36 316.3 147.36 314.1 149.66 312.8L220.16 272.1C222.46 270.8 226.16 270.8 228.46 272.1C230.76 273.4 230.76 275.6 228.46 276.9Z" fill="#EBE9EE"/>
<path d="M272.359 251.5L251.759 263.4C249.459 264.7 245.759 264.7 243.459 263.4C241.159 262.1 241.159 259.9 243.459 258.6L264.059 246.7C266.359 245.4 270.059 245.4 272.359 246.7C274.659 248.1 274.659 250.2 272.359 251.5Z" fill="#EBE9EE"/>
<path d="M349.058 185.798L278.558 226.498C276.258 227.798 272.558 227.798 270.258 226.498C267.958 225.198 267.958 222.998 270.258 221.698L340.758 180.998C343.058 179.698 346.758 179.698 349.058 180.998C351.358 182.398 351.358 184.498 349.058 185.798Z" fill="#EBE9EE"/>
<path d="M382.058 203.798L311.558 244.498C309.258 245.798 305.558 245.798 303.258 244.498C300.958 243.198 300.958 240.998 303.258 239.698L373.758 198.998C376.058 197.698 379.758 197.698 382.058 198.998C384.358 200.298 384.358 202.498 382.058 203.798Z" fill="#EBE9EE"/>
<path d="M265.459 207.099L194.959 247.799C192.659 249.099 188.959 249.099 186.659 247.799C184.359 246.499 184.359 244.299 186.659 242.999L257.159 202.299C259.459 200.999 263.159 200.999 265.459 202.299C267.759 203.599 267.759 205.699 265.459 207.099Z" fill="#EBE9EE"/>
<path d="M309.358 181.699L288.758 193.599C286.458 194.899 282.758 194.899 280.458 193.599C278.158 192.299 278.158 190.099 280.458 188.799L301.058 176.899C303.358 175.599 307.058 175.599 309.358 176.899C311.658 178.199 311.658 180.399 309.358 181.699Z" fill="#EBE9EE"/>
<path d="M417.059 183.798L396.359 195.698C394.059 196.998 390.359 196.998 388.059 195.698C385.759 194.398 385.759 192.198 388.059 190.898L408.659 178.998C410.959 177.698 414.659 177.698 416.959 178.998C419.359 180.298 419.359 182.398 417.059 183.798Z" fill="#EBE9EE"/>
<path d="M164.86 308.101C163.26 322.901 155.86 334.001 151.36 340.901C143.06 339.101 111.96 332.201 58.0596 320.301C63.6596 311.801 69.3596 303.301 74.9596 294.801C129.86 307.001 159.86 311.401 164.86 308.101ZM150.26 333.201L158.66 320.501C157.66 320.301 156.56 319.901 155.66 319.301C154.96 318.801 154.36 318.101 154.16 317.201C154.06 316.601 154.26 315.901 154.56 315.301L83.4596 299.601C83.0596 300.301 82.3596 300.801 81.5596 301.201C80.5596 301.701 79.5596 302.001 78.4596 302.101C77.1596 302.301 75.7596 302.201 74.4596 301.901L66.0596 314.601C67.0596 314.801 68.1596 315.201 69.0596 315.801C69.7596 316.301 70.3596 317.001 70.5596 317.901C70.6596 318.501 70.4595 319.201 70.1595 319.801L141.26 335.501C141.66 334.801 142.36 334.301 143.16 333.901C144.16 333.401 145.16 333.101 146.26 333.001C147.56 332.901 148.96 333.001 150.26 333.201Z" fill="#96CCA4"/>
<path d="M158.66 320.502L150.26 333.202C148.96 332.902 147.56 332.902 146.26 333.002C145.16 333.102 144.16 333.402 143.16 333.902C142.46 334.302 141.76 334.802 141.26 335.502L70.1595 319.802C70.4595 319.302 70.6596 318.602 70.5596 317.902C70.4596 317.102 69.7596 316.302 69.0596 315.802C68.1596 315.102 67.1596 314.802 66.0596 314.602L74.4596 301.902C75.7596 302.202 77.1596 302.202 78.4596 302.102C79.5596 302.002 80.5596 301.702 81.5596 301.202C82.2596 300.802 82.9596 300.302 83.4596 299.602L154.56 315.302C154.26 315.802 154.06 316.502 154.16 317.202C154.26 318.002 154.96 318.802 155.66 319.302C156.66 319.902 157.66 320.302 158.66 320.502ZM125.56 318.302C125.66 317.402 125.56 316.402 125.16 315.502C124.66 314.402 123.76 313.502 122.86 312.802C121.36 311.602 119.56 310.902 117.66 310.402C115.76 309.902 113.86 309.702 111.96 309.702C110.06 309.702 108.16 309.902 106.26 310.402C104.86 310.802 103.56 311.302 102.26 312.002C101.26 312.602 100.26 313.302 99.4596 314.302C98.8596 315.102 98.4596 315.902 98.2596 316.902C98.1596 317.802 98.2595 318.802 98.6595 319.702C99.1595 320.802 100.06 321.702 100.96 322.402C102.56 323.602 104.26 324.302 106.16 324.802C108.06 325.302 109.96 325.502 111.86 325.502C113.76 325.502 115.66 325.302 117.56 324.802C118.96 324.402 120.26 323.902 121.56 323.202C122.56 322.602 123.56 321.902 124.36 320.902C124.96 320.202 125.36 319.302 125.56 318.302Z" fill="#61B87C"/>
<path d="M125.159 315.501C125.559 316.401 125.759 317.401 125.559 318.301C125.459 319.201 124.959 320.101 124.359 320.901C123.659 321.801 122.659 322.601 121.559 323.201C120.259 323.901 118.959 324.401 117.559 324.801C115.659 325.301 113.759 325.501 111.859 325.501C109.959 325.501 107.959 325.301 106.159 324.801C104.259 324.301 102.559 323.601 100.959 322.401C99.9591 321.701 99.1591 320.801 98.6591 319.701C98.2591 318.801 98.0591 317.801 98.2591 316.901C98.3591 316.001 98.8591 315.101 99.4591 314.301C100.159 313.401 101.159 312.601 102.259 312.001C103.559 311.301 104.859 310.801 106.259 310.401C108.159 309.901 110.059 309.701 111.959 309.701C113.859 309.701 115.859 309.901 117.659 310.401C119.559 310.901 121.259 311.601 122.859 312.801C123.759 313.601 124.659 314.501 125.159 315.501Z" fill="#96CBA2"/>
<path d="M385.859 34.2988C388.359 34.9988 389.859 37.4988 387.959 41.8988V40.8988C387.959 38.6988 387.159 36.2988 385.859 34.2988Z" fill="#FBBF4E"/>
<path d="M382.759 70V101.4L381.959 101.8V69.5L382.759 70Z" fill="#AB957B"/>
<path d="M381.959 69.4992V101.799L380.459 99.4992V98.7992V68.6992L381.959 69.4992Z" fill="#C5AC8E"/>
<path d="M380.46 68.6992V98.7992L378.76 96.0992V67.6992L380.46 68.6992Z" fill="#DDCBB8"/>
<path d="M379.359 45.4984C378.159 46.1984 376.259 45.4984 374.859 43.2984C375.859 42.5984 376.759 41.9984 377.759 41.3984C378.359 42.3984 379.359 43.3984 380.359 43.8984C380.159 44.6984 379.859 45.1984 379.359 45.4984Z" fill="#53802F"/>
<path d="M378.359 96.3V67.5L378.759 67.7V96.1L378.359 96.3Z" fill="#AB957B"/>
<path d="M376.459 36.299C376.459 36.499 376.459 36.699 376.459 36.999C375.459 37.599 374.459 38.199 373.459 38.899C373.359 36.799 374.559 35.499 376.459 36.299Z" fill="#53802F"/>
<path d="M375.56 79.6992L375.96 79.8992V80.7992L374.76 80.0992L375.56 79.6992Z" fill="#DDCBB8"/>
<path d="M375.56 86.2988L375.96 86.5988V87.3988L374.76 86.6988L375.56 86.2988Z" fill="#DDCBB8"/>
<path d="M374.76 80.0984L375.96 80.7984V79.8984V75.5984L374.76 74.8984V65.3984L378.36 67.4984V96.2984L374.76 90.8984V86.6984L375.96 87.3984V86.5984V82.1984L374.76 81.4984V80.0984Z" fill="#C5AC8E"/>
<path d="M376.46 36.2998C374.56 35.5998 373.46 36.7998 373.36 38.8998C371.76 39.9998 370.26 41.0998 368.76 42.2998V33.3998C368.76 31.3998 369.46 29.9998 370.56 29.2998C371.56 28.6998 372.86 28.7998 374.26 29.5998L379.56 32.6998C382.46 34.3998 384.96 38.7998 384.96 42.6998V71.2998L382.76 69.9998L382.06 69.5998L380.56 68.6998L378.86 67.6998L378.46 67.4998L374.86 65.3998L368.86 61.8998V56.3998V48.0998C370.76 46.3998 372.76 44.6998 374.86 43.1998C376.36 45.4998 378.26 46.1998 379.36 45.3998C379.86 45.0998 380.16 44.4998 380.36 43.6998C380.46 43.3998 380.46 43.0998 380.46 42.7998C380.46 41.7998 380.26 40.8998 379.86 39.9998C379.26 38.3998 378.16 37.0998 377.06 36.3998C376.86 36.4998 376.66 36.3998 376.46 36.2998Z" fill="#72B32C"/>
<path d="M373.459 27.5994C373.559 27.5994 373.559 27.4994 373.659 27.4994C373.959 27.2994 374.259 27.1994 374.559 27.1994C375.559 26.9994 376.359 27.2994 377.359 27.7994L382.659 30.8994C383.859 31.5994 385.059 32.7994 385.959 34.2994C387.259 36.2994 388.059 38.6994 388.059 40.8994V41.8994V69.4994L385.059 71.1994V42.6994C385.059 38.7994 382.559 34.3994 379.659 32.6994L374.359 29.5994C372.959 28.7994 371.659 28.6994 370.659 29.2994C371.559 28.6994 372.459 28.1994 373.459 27.5994Z" fill="#53802F"/>
<path d="M358.659 61.6C359.059 61.6 359.659 61.5 360.059 61.3C362.859 60.5 366.359 58.2 368.759 56.4V61.9C365.759 63.8 360.559 66.8 357.159 65.9C354.959 65.3 353.559 63.2 354.459 60C355.559 55.7 360.259 50.4 363.359 47.2C364.959 45.6 366.859 43.9 368.859 42.2C370.359 41 371.859 39.8 373.459 38.8C374.459 38.1 375.459 37.5 376.459 36.9C376.659 36.8 376.859 36.7 377.059 36.5C378.159 37.2 379.159 38.5 379.859 40.1C379.159 40.5 378.459 40.9 377.759 41.3C376.759 41.9 375.859 42.5 374.859 43.2C372.759 44.7 370.759 46.4 368.859 48.1C367.559 49.3 366.359 50.5 365.259 51.7C363.259 53.9 359.559 58.2 358.859 61.1C358.759 61.3 358.659 61.4 358.659 61.6Z" fill="#FDC850"/>
<path d="M379.759 40.2C379.759 40.2 378.359 40.7 377.659 41.4C378.959 43.4 380.259 43.9 380.259 43.9C380.259 43.9 380.259 44.2 379.959 44.8C379.659 45.3 379.359 45.6 379.359 45.6C379.359 45.6 379.159 47.5 379.259 47.9C380.359 52.6 381.359 57.2 382.459 61.9C382.959 64 383.659 68.2 383.659 68.2L382.759 70V92C382.759 92 386.159 90.6 387.859 89.8C393.059 87.5 398.459 86.2 404.059 85.6C409.059 85.1 413.959 85.1 418.859 86.2C420.459 86.6 422.059 87.1 423.459 87.9C427.559 90 428.159 92.3 425.759 96.4C428.059 98.7 431.659 99.2 433.759 102.1C431.959 103.7 430.159 104.8 427.759 104.7C422.159 104.6 416.459 105 410.859 104.6C405.659 104.2 400.559 105.6 395.359 105.2C391.459 104.9 387.659 104.5 384.059 102.9C383.459 102.6 382.059 101.8 382.059 101.8L380.559 99.5V98.7L378.859 96.1L378.459 96.3L374.859 90.8V86.7L378.459 89.1C378.459 89.1 378.459 87.5 378.459 87C378.459 81.8 378.459 76.6 378.459 71.4C378.459 69.9 378.059 68.9 376.659 68.3C375.759 67.9 374.859 65.4 374.859 65.4L380.559 68.7C380.559 68.7 379.059 60.2 378.359 56.3C377.559 52.4 376.659 48.6 375.859 44.6C376.459 44.2 376.959 43.9 377.559 43.5C377.359 43.3 377.259 43 377.159 42.9C376.359 42.4 375.659 42.8 375.059 43.3C369.259 47.6 364.059 52.3 360.159 58.5C359.859 58.9 359.159 60.5 358.959 61.5C358.859 62.3 359.259 62.5 360.759 62.7C362.259 62.9 363.759 62.7 365.159 62.1C366.359 61.6 369.059 60.4 369.059 60.4V61.9C369.059 61.9 363.759 65.6 359.859 65.9C359.159 66 358.359 66 357.659 65.8C355.159 65.2 354.359 63.5 355.759 61.4C357.259 59.1 358.859 56.9 360.659 54.9C365.359 49.3 370.859 44.6 376.859 40.4C377.359 40 377.859 39.6 378.459 39.1C377.259 37.3 373.659 38.8 373.659 38.8C373.659 38.8 373.459 36.5 375.459 36C378.259 36 379.759 40.2 379.759 40.2ZM421.359 94.5C422.359 92 422.059 90.7 419.859 89.7C418.359 89 416.759 88.6 415.159 88.3C411.759 87.6 408.259 87.8 404.859 88.2C401.159 88.6 397.559 89.4 394.059 90.6C391.559 91.4 389.159 92.6 387.059 94.2C386.059 95 385.059 95.9 385.059 97.6C386.659 97.2 388.059 97.4 389.559 97.5C391.159 97.6 392.759 97 394.459 96.7C394.059 96.2 393.559 95.7 393.159 95.2C394.559 93.9 395.959 93.5 397.659 93.6C405.459 94 413.359 93 421.359 94.5ZM379.159 70.7C379.159 77.2 379.159 83.6 379.159 89.9C379.159 91.4 379.559 91.5 381.559 91.4C381.659 91.1 381.759 90.8 381.759 90.5C381.759 84.6 381.859 78.6 381.759 72.7C381.859 71 381.559 70.9 379.159 70.7ZM390.959 101.8C394.959 102.8 398.959 102.9 403.059 101.8C398.959 101.8 394.959 101.8 390.959 101.8Z" fill="#9A89B0"/>
<path d="M387.959 69.4984L384.959 71.1984C384.959 71.1984 384.859 43.8984 384.959 42.9984C384.959 41.6984 384.959 40.3984 384.459 39.1984C385.059 38.7984 386.359 37.7984 387.259 37.1984C387.259 36.6984 386.759 35.6984 386.359 34.8984C386.659 34.9984 387.559 35.6984 387.759 35.7984C389.059 36.9984 389.059 37.5984 388.859 39.1984C388.659 40.5984 388.059 41.7984 388.059 41.7984V69.4984H387.959Z" fill="#B5A9C4"/>
<path d="M397.96 180.801V190.601L327.76 231.101V226.201V221.301L397.96 180.801Z" fill="#B8ABD3"/>
<path d="M397.96 101V107L388.16 112.7L379.06 117.9L374.56 120.6L327.76 147.6V147.1V141.6L397.96 101Z" fill="#EF91BC"/>
<path d="M397.959 101L327.759 141.5C307.559 113.7 234.359 12.5 233.959 12C234.559 12.3 381.559 92.1 397.959 101Z" fill="#EB569A"/>
<path d="M397.959 101L233.959 12.0004L225.459 1.40039L397.959 101Z" fill="#C84983"/>
<path d="M397.959 180.8L327.759 221.3L275.459 191.1L242.159 210.4L121.859 141L140.759 130.1V141L242.159 199.5L275.459 180.3L297.759 193.1L327.759 210.4L355.159 194.6L374.559 183.4L379.059 186L388.159 180.8V175.1L397.959 180.8Z" fill="#EEE7F2"/>
<path d="M388.16 175.099V180.799L379.06 185.999V117.899L388.16 112.699V175.099Z" fill="#954795"/>
<path d="M379.06 117.9V186L374.56 183.4V120.6L379.06 117.9Z" fill="#EE77AB"/>
<path d="M360.159 140.3L327.959 158.9L292.959 138.7L297.759 136L327.759 153.3L355.159 137.4L360.159 140.3Z" fill="#EE77AB"/>
<path d="M355.16 137.4L327.76 153.3V147.6L374.56 120.6V183.4L355.16 194.6V191.6V184.7V146.4L360.16 143.5V140.3L355.16 137.4Z" fill="#624D9B"/>
<path d="M325.16 174.301L355.16 191.601L327.76 207.401L297.76 190.101L325.16 174.301Z" fill="#EEE7F2"/>
<path d="M327.959 158.901L360.159 140.301V143.501L355.159 146.401L327.959 162.101V158.901Z" fill="#EE77AB"/>
<path d="M355.16 194.6L327.76 210.4V207.4L355.16 191.6V194.6Z" fill="#B8ABD3"/>
<path d="M327.959 158.899V162.099L325.159 160.499L297.759 144.599L292.959 141.899V138.699L327.959 158.899Z" fill="#EF91BC"/>
<path d="M327.959 162.1L355.159 146.4V184.7V191.6L325.159 174.3V160.5L327.959 162.1Z" fill="#B5A9C4"/>
<path d="M327.759 147.1V147.6L275.459 117.4V117.2V111.4L327.759 141.6V147.1Z" fill="#EF91BC"/>
<path d="M327.76 141.5L275.56 111.3C274.06 107.6 279.76 121.4 234.06 11.9004C293.36 94.1004 295.56 97.1004 327.76 141.5Z" fill="#EE77AB"/>
<path d="M327.759 226.2L318.659 231.4L266.459 201.3L275.459 196.1L327.759 226.2Z" fill="#EEE7F2"/>
<path d="M297.76 144.6L325.16 160.5V174.3L297.76 190.1V183.3V144.6Z" fill="#B8ABD3"/>
<path d="M318.659 231.399L327.759 226.199V231.099L318.659 236.299V231.399Z" fill="#B8ABD3"/>
<path d="M327.76 207.4V210.4L297.76 193.1V190.1L327.76 207.4Z" fill="#B8ABD3"/>
<path d="M297.759 136L292.959 138.7V141.9L297.759 144.6V183.3V190.1V193.1L275.459 180.3V117.4L327.759 147.6V153.3L297.759 136Z" fill="#9B8CC2"/>
<path d="M275.459 191.1L327.759 221.3V226.2L275.459 196.1V191.1Z" fill="#B8ABD3"/>
<path d="M275.459 117.4V180.3L242.159 199.5V136.7L275.459 117.4Z" fill="#624D9B"/>
<path d="M275.459 117.2V117.4L242.159 136.7V136.3V130.7L275.459 111.4V117.2Z" fill="#EF91BC"/>
<path d="M275.459 111.4L242.159 130.7L241.359 119.8L241.159 117.1L240.359 105.5L240.159 102.7L239.359 91.1L239.259 88.4L238.359 76.5L238.259 73.8L237.359 62L237.259 59.3L236.459 47.9L236.259 45.2L235.459 33.3L235.259 30.6L233.959 12L240.459 27.6L241.459 29.9L245.559 39.8L246.559 42.1L250.559 51.6L251.459 53.9L255.559 63.7L256.559 66L260.659 76L261.659 78.3L265.659 88L266.659 90.3L270.759 100L271.659 102.3L275.459 111.4Z" fill="#EB569A"/>
<path d="M266.459 201.301L318.659 231.401V236.301L266.459 206.201V201.301Z" fill="#B8ABD3"/>
<path d="M242.159 210.4L275.459 191.1V196.1L266.459 201.3V206.2L242.159 220.2V210.4Z" fill="#B8ABD3"/>
<path d="M242.159 210.4V220.2L121.859 150.8V141L242.159 210.4Z" fill="#B8ABD3"/>
<path d="M242.159 136.299V136.699L140.759 78.1992V78.0992L121.859 67.2992V61.1992L242.159 130.699V136.299Z" fill="#EF91BC"/>
<path d="M242.159 130.7L121.859 61.2004C121.959 61.1004 233.759 12.0004 233.959 11.9004C233.959 12.1004 242.059 130.5 242.159 130.7Z" fill="#EE77AB"/>
<path d="M230.959 136V179L228.959 180.2V137.1L230.959 136Z" fill="#D69900"/>
<path d="M225.359 139.3V171.6L213.459 164.7V132.4L225.359 139.3Z" fill="#9FD1F2"/>
<path d="M211.459 131.199L213.459 132.399V164.699L211.459 165.799V131.199Z" fill="#D69900"/>
<path d="M213.459 164.699L225.359 171.599V173.899L211.459 165.799L213.459 164.699Z" fill="#FECD54"/>
<path d="M225.359 173.9V171.6V139.3L213.359 132.4L211.359 131.2V165.8L225.359 173.9ZM228.959 180.2L207.859 168V125L228.959 137.2V180.2Z" fill="#FBB911"/>
<path d="M208.859 18.6004V11.0004L225.459 1.40039L233.959 12.0004L197.659 27.9004L196.659 25.5004L208.859 18.6004Z" fill="#EF91BC"/>
<path d="M209.859 123.801L230.959 136.001L228.959 137.101L207.859 125.001L209.859 123.801Z" fill="#FECD54"/>
<path d="M208.859 10.9996V18.5996L196.659 25.4996V14.0996L208.859 7.09961V10.9996Z" fill="#B8ABD3"/>
<path d="M203.959 7.10039L196.659 11.3004C196.659 8.50039 196.659 5.70039 196.659 2.90039L203.959 7.10039Z" fill="#B8ABD3"/>
<path d="M201.459 118.9V161.9L199.459 163.1V120.1L201.459 118.9Z" fill="#D69900"/>
<path d="M201.46 161.9V118.9L180.36 106.7L178.36 107.9V150.9L199.46 163.1L201.46 161.9ZM242.16 136.7V199.5L140.76 141V130.1V78.0996L242.16 136.7ZM230.96 179V136L209.86 123.8L207.86 125V168L228.96 180.2L230.96 179ZM172.46 145.2V102.2L151.36 89.9996L149.36 91.1996V134.2L170.46 146.4L172.46 145.2Z" fill="#9B8CC2"/>
<path d="M180.26 106.699L201.46 118.899L199.46 120.099L178.26 107.899L180.26 106.699Z" fill="#FECD54"/>
<path d="M196.659 14.0996V25.4996L184.459 29.6996V25.0996V7.09961L196.659 14.0996Z" fill="#B8ABD3"/>
<path d="M196.659 2.90039C196.659 5.70039 196.659 8.50039 196.659 11.3004L189.359 7.10039L196.659 2.90039Z" fill="#B8ABD3"/>
<path d="M195.859 122.201V154.501L183.859 147.601V115.301L195.859 122.201Z" fill="#9FD1F2"/>
<path d="M196.659 11.3L203.959 7.1L196.659 2.9L189.359 7.1L196.659 11.3ZM196.659 0L208.859 7L196.659 14L184.459 7L196.659 0Z" fill="#EEE7F2"/>
<path d="M197.659 27.8996L121.859 61.1996L184.459 25.0996V29.6996L196.659 25.4996L197.659 27.8996Z" fill="#EF91BC"/>
<path d="M183.859 115.299V147.599L181.859 148.799V114.199L183.859 115.299Z" fill="#D69900"/>
<path d="M195.859 154.5V156.8L181.859 148.8L183.859 147.6L195.859 154.5Z" fill="#FECD54"/>
<path d="M195.859 156.8V154.5V122.2L183.859 115.3L181.859 114.1V148.7L195.859 156.8ZM199.459 163.1L178.359 150.9V107.9L199.459 120.1V163.1Z" fill="#FBB911"/>
<path d="M172.459 102.199V145.199L170.459 146.399V103.399L172.459 102.199Z" fill="#D69900"/>
<path d="M166.859 105.5V137.8L154.959 130.9V98.5996L166.859 105.5Z" fill="#9FD1F2"/>
<path d="M154.959 130.9L166.859 137.8V140.1L152.959 132L154.959 130.9Z" fill="#FECD54"/>
<path d="M152.959 132V97.5L154.959 98.6V130.9L152.959 132Z" fill="#D69900"/>
<path d="M166.859 140.099V137.799V105.499L154.859 98.5992L152.859 97.4992V131.999L166.859 140.099ZM170.459 103.399V146.399L149.359 134.199V91.1992L170.459 103.399Z" fill="#FBB911"/>
<path d="M151.359 90L172.459 102.2L170.459 103.4L149.359 91.2L151.359 90Z" fill="#FECD54"/>
<path d="M211.459 131.199L225.459 139.299V144.099C225.459 144.099 219.359 141.099 216.459 139.599C216.459 148.599 216.459 166.399 216.459 166.399L211.459 165.899V131.199Z" fill="#B5A9C4"/>
<path d="M181.859 114.199L195.859 122.299V127.099C195.859 127.099 189.759 124.099 186.859 122.599C186.859 131.599 186.859 149.399 186.859 149.399L181.859 148.899V114.199Z" fill="#B5A9C4"/>
<path d="M152.959 97.5L166.959 105.6V110.4C166.959 110.4 160.859 107.4 157.959 105.9C157.959 114.9 157.959 132.7 157.959 132.7L152.959 132.2V97.5Z" fill="#B5A9C4"/>
<path d="M196.659 25.4996V14.0996L208.859 7.09961V14.6996L211.459 17.2996L196.659 25.4996Z" fill="#B5A9C4"/>
<path d="M196.659 2.90039V11.3004L189.359 7.10039L196.659 2.90039Z" fill="#B5A9C4"/>
<path d="M241.36 119.9L132.06 56.7996L134.76 55.5996L241.16 117L241.36 119.9Z" fill="#F299C1"/>
<path d="M316.06 125.401L270.26 99.0008L268.76 95.3008L312.56 120.601L316.06 125.401Z" fill="#F299C1"/>
<path d="M300.26 103.6L263.36 82.3L261.76 78.5L296.76 98.8L300.26 103.6Z" fill="#F299C1"/>
<path d="M284.46 81.8008L256.36 65.5008L254.76 61.8008L280.96 76.9008L284.46 81.8008Z" fill="#F299C1"/>
<path d="M268.66 59.9L249.36 48.8L247.76 45L265.16 55.1L268.66 59.9Z" fill="#F299C1"/>
<path d="M240.36 105.5L145.56 50.7996L148.36 49.5996L240.16 102.6L240.36 105.5Z" fill="#F299C1"/>
<path d="M239.359 91.0996L159.159 44.7996L161.959 43.5996L239.159 88.1996L239.359 91.0996Z" fill="#F299C1"/>
<path d="M238.46 76.6996L172.76 38.7996L175.56 37.5996L238.26 73.7996L238.46 76.6996Z" fill="#F299C1"/>
<path d="M237.459 62.2996L186.359 32.8996L189.159 31.5996L237.259 59.3996L237.459 62.2996Z" fill="#F299C1"/>
<path d="M236.459 47.8992L199.959 26.8992L202.759 25.6992L236.259 44.9992L236.459 47.8992Z" fill="#F299C1"/>
<path d="M235.46 33.4992L213.56 20.8992L216.36 19.6992L235.26 30.5992L235.46 33.4992Z" fill="#F299C1"/>
<path d="M388.26 95.7004L322.16 133.9L320.76 131.9L385.66 94.4004L388.26 95.7004Z" fill="#C84983"/>
<path d="M362.759 81.8996L307.659 113.8L306.159 111.8L360.259 80.5996L362.759 81.8996Z" fill="#C84983"/>
<path d="M350.059 74.9992L300.359 103.799L298.959 101.799L347.559 73.6992L350.059 74.9992Z" fill="#C84983"/>
<path d="M337.359 68.1008L293.059 93.7008L291.659 91.7008L334.859 66.8008L337.359 68.1008Z" fill="#C84983"/>
<path d="M324.659 61.2004L285.859 83.7004L284.359 81.7004L322.159 59.9004L324.659 61.2004Z" fill="#C84983"/>
<path d="M311.959 54.3L278.559 73.6L277.159 71.6L309.459 53L311.959 54.3Z" fill="#C84983"/>
<path d="M299.259 47.3996L271.359 63.5996L269.859 61.5996L296.759 46.0996L299.259 47.3996Z" fill="#C84983"/>
<path d="M286.56 40.4992L264.06 53.5992L262.56 51.5992L284.06 39.1992L286.56 40.4992Z" fill="#C84983"/>
<path d="M273.859 33.6008L256.759 43.5008L255.359 41.5008L271.359 32.3008L273.859 33.6008Z" fill="#C84983"/>
<path d="M261.16 26.7004L249.56 33.5004L248.06 31.5004L258.66 25.4004L261.16 26.7004Z" fill="#C84983"/>
<path d="M248.459 19.8L242.259 23.4L240.859 21.4L245.959 18.5L248.459 19.8Z" fill="#C84983"/>
<path d="M271.659 102.3L241.359 119.8L241.159 117.1L270.759 100L271.659 102.3Z" fill="#C84983"/>
<path d="M266.659 90.3L240.359 105.5L240.159 102.7L265.659 88L266.659 90.3Z" fill="#C84983"/>
<path d="M261.66 78.3L239.36 91.1L239.26 88.4L260.66 76L261.66 78.3Z" fill="#C84983"/>
<path d="M256.56 65.9992L238.36 76.4992L238.26 73.7992L255.56 63.6992L256.56 65.9992Z" fill="#C84983"/>
<path d="M251.46 53.8996L237.36 61.9996L237.26 59.2996L250.56 51.5996L251.46 53.8996Z" fill="#C84983"/>
<path d="M246.56 42.1008L236.46 47.9008L236.26 45.2008L245.56 39.8008L246.56 42.1008Z" fill="#C84983"/>
<path d="M241.46 29.8996L235.46 33.2996L235.26 30.5996L240.46 27.5996L241.46 29.8996Z" fill="#C84983"/>
<path d="M234.459 19.0992L227.159 14.9992L229.959 13.6992L234.259 16.1992L234.459 19.0992Z" fill="#F299C1"/>
<path d="M375.859 88.9992L315.059 124.099L313.659 122.099L373.359 87.6992L375.859 88.9992Z" fill="#C84983"/>
<path d="M128.359 221.7C128.359 221.7 126.259 224.5 124.559 225.5C122.859 226.5 121.159 228.5 123.259 230C125.359 231.5 125.959 227.7 128.959 227C131.959 226.3 131.959 226 131.959 223.3C131.959 221.6 131.259 221.7 131.259 221.7H128.359Z" fill="#5D5189"/>
<path d="M140.359 228.1C140.359 228.1 140.459 230.7 139.859 232.1C139.259 233.5 138.759 236.8 140.359 237.1C141.959 237.5 145.459 237 143.659 228.1H140.359Z" fill="#5D5189"/>
<path d="M123.76 174.5C123.76 174.5 120.36 179.8 122.76 196.1C125.86 217.3 128.36 221.7 128.36 221.7C128.36 221.7 131.36 223.4 131.26 221.7C131.16 214.6 131.16 190.1 131.16 190.1C131.16 190.1 131.46 184.9 132.76 190.1C134.16 195.5 135.96 208.8 140.16 228.4C140.16 228.4 142.16 230 143.86 228.4C143.86 228.4 143.16 187.2 139.66 174.1C138.56 170.2 123.76 174.5 123.76 174.5Z" fill="#9B8CC2"/>
<path d="M124.759 153.499C121.959 156.199 117.459 159.899 113.959 161.799C113.059 162.299 112.459 162.499 111.559 162.899C108.059 164.199 104.559 165.199 101.159 165.899C100.659 165.999 100.259 165.699 100.159 165.199C100.059 164.799 100.259 164.399 100.659 164.199C104.159 162.799 107.959 160.999 111.359 158.899C114.559 156.799 118.459 152.699 120.759 149.799C121.759 148.599 123.459 148.499 124.559 149.399C125.859 150.499 125.959 152.399 124.759 153.499Z" fill="#F0A49E"/>
<path d="M151.06 164.6C152.06 167.9 151.96 170.1 151.36 172.2C150.36 176.2 147.76 181.2 145.66 184.7C145.46 185.1 144.86 185.3 144.46 185C144.06 184.8 143.96 184.3 144.06 183.9C145.46 180.5 147.96 173.8 147.96 170.1C147.86 167.4 146.16 164.3 144.56 162.1C144.36 161.8 143.76 161 143.66 160.9C142.46 159.9 142.36 158.2 143.26 157.1C144.46 155.7 146.66 155.8 147.66 157.3C149.26 159.7 150.46 162.5 151.06 164.6Z" fill="#F0A49E"/>
<path d="M137.16 148.5C132.66 147.4 127.06 146.1 125.06 146.3C123.06 146.5 116.86 150.8 116.06 154.2C116.06 154.2 116.66 157.6 120.06 159L122.66 157.4C122.66 157.4 121.36 173.1 122.86 175.6C124.36 178.2 131.16 179.3 133.86 178.6C136.56 178 140.66 175.3 140.66 175.3L140.96 161.1C140.96 161.1 142.66 162.8 144.66 163.9C146.66 165 150.26 161.7 150.26 160C150.26 160.1 143.46 150.1 137.16 148.5Z" fill="#E62159"/>
<path d="M101.86 164.9C101.96 166.3 100.36 167.5 98.4597 167.6C96.4597 167.7 94.8596 166.6 94.7596 165.3C94.6596 164.3 97.2597 164.5 98.4597 164.1C98.8597 163.9 97.6596 162.6 98.1596 162.6C100.16 162.4 101.76 163.5 101.86 164.9Z" fill="#F0A49E"/>
<path d="M101.859 163.2L102.759 166.4C102.759 166.4 118.459 161.8 122.759 157.4C127.059 153 116.959 152.6 116.959 152.6C116.959 152.6 107.559 160.7 101.859 163.2Z" fill="#E62159"/>
<path d="M136.06 150.4C136.06 152.1 134.26 153.5 132.06 153.5C129.86 153.5 128.06 152.1 128.06 150.4C128.06 148.7 129.86 147.3 132.06 147.3C134.26 147.2 136.06 148.6 136.06 150.4Z" fill="#FCFBFD"/>
<path d="M132.36 152.099C130.56 152.099 129.16 150.799 129.56 149.299L131.36 140.899C131.66 139.599 133.16 138.699 134.66 138.999C136.26 139.199 137.26 140.499 136.96 141.799L135.16 150.199C134.86 151.299 133.66 152.099 132.36 152.099Z" fill="#DF928C"/>
<path d="M128.96 137.8C128.96 137.8 126.66 146.7 129.06 148.3C131.46 149.9 134.86 148.1 136.76 145.2C136.76 145.2 137.16 144.3 137.86 143.8C139.36 142.8 140.46 138.1 137.26 137C132.36 135.1 128.96 137.8 128.96 137.8Z" fill="#F0A49E"/>
<path d="M127.46 135.9C127.46 135.9 128.56 139.3 132.06 139.2C135.56 139.1 136.06 139.6 136.56 140.5C137.06 141.4 137.26 143.3 137.26 143.3C137.26 143.3 138.36 141.1 139.06 141.4C139.76 141.7 140.56 139.8 140.06 137.4C139.06 133 124.86 129 127.46 135.9Z" fill="#5A5A8D"/>
<path d="M129.46 152.699L130.26 159.499L132.76 153.499L129.46 152.699Z" fill="#FCFBFD"/>
<path d="M154.16 178.099L138.16 187.299C137.26 187.799 136.46 187.499 136.46 186.599V177.199C136.46 176.299 137.26 175.099 138.16 174.499L154.16 165.299C155.06 164.799 155.86 165.099 155.86 165.999V175.399C155.86 176.399 155.06 177.599 154.16 178.099Z" fill="#5A5A8D"/>
<path d="M145.86 183.199C146.96 183.999 146.76 185.399 144.26 186.599C141.96 187.699 140.66 187.299 139.56 186.499C139.56 186.499 141.86 185.099 142.46 184.599C142.86 184.299 141.56 182.899 142.16 182.799C143.16 182.799 144.76 182.399 145.86 183.199Z" fill="#F0A49E"/>
<path d="M143.059 162.699C143.059 162.699 147.559 167.899 147.459 169.899C147.359 171.599 145.059 179.399 144.459 181.599C144.359 182.099 144.359 182.599 144.659 182.999C145.059 183.599 145.759 184.099 147.059 183.699C149.359 182.999 152.359 171.799 153.059 169.199C154.259 164.099 150.259 159.999 150.259 159.999C150.259 159.999 140.159 156.799 143.059 162.699Z" fill="#E62159"/>
<path d="M70.6592 297.7C70.6592 297.7 89.4592 305.4 94.4592 305.9C99.4592 306.4 110.059 307.1 114.959 304.2C119.859 301.3 119.059 297 114.259 294.3C111.459 292.7 97.9592 291.3 87.0592 294.2C81.1592 295.8 86.0592 298.2 70.6592 297.7Z" fill="#9A89B0"/>
<path d="M64.1592 285.1C63.9592 280 69.9592 275.4 78.6592 274.3C82.9592 273.7 87.5592 274 91.6592 275.2C91.6592 275.2 89.5592 275.3 87.0592 276.2C83.9592 275.7 80.6592 275.8 77.4592 276.5C74.6592 277.1 71.6592 278.3 69.5592 280.3C66.4592 283.4 66.7592 287.2 70.1592 290C72.3592 291.8 75.3592 292.9 78.2592 293.4C78.3592 293.8 78.6592 294.5 78.6592 294.6C78.8592 295 79.0592 295.4 79.0592 295.5C75.1592 295 70.9592 293.8 67.8592 291.4C66.6592 290.5 65.6592 289.5 64.9592 288.2C64.4592 287.3 64.1592 286.2 64.1592 285.1Z" fill="#FDC850"/>
<path d="M78.859 285.1C78.659 285.8 78.459 286.5 78.259 287.2C77.959 286.9 77.959 286.6 77.959 286.2C78.059 285.9 78.359 285.5 78.859 285.1Z" fill="#F9B132"/>
<path d="M78.3594 293.501C75.5594 293.001 72.5594 291.901 70.2594 290.101C66.7594 287.201 66.4594 283.401 69.6594 280.401C71.6594 278.401 74.7594 277.201 77.5594 276.601C80.7594 275.901 84.0594 275.801 87.1594 276.301C83.4594 277.601 80.1594 280.301 79.1594 284.201C79.0594 284.401 79.0594 284.701 78.9594 284.901C78.4594 284.701 77.9594 284.501 77.4594 284.301C76.7594 284.701 76.3594 285.201 76.1594 285.701C75.9594 286.201 75.9594 286.601 76.1594 287.001C76.3594 287.401 76.7594 287.801 77.3594 288.301C76.8594 288.601 76.4594 288.801 75.9594 289.101C76.2594 289.301 76.4594 289.401 76.7594 289.601C77.1594 289.401 77.4594 289.201 77.8594 289.001V289.201C77.7594 290.401 77.7594 291.601 78.0594 292.901C78.1594 293.101 78.2594 293.401 78.3594 293.501Z" fill="#F9B132"/>
<path d="M78.9596 284.8C78.9596 284.9 78.9596 285 78.8596 285.1C78.3596 285.5 78.0596 285.9 78.0596 286.2C77.9596 286.6 78.0596 286.9 78.3596 287.2C78.1596 288.1 78.1596 288.1 77.9596 288.8C77.5596 289 77.2596 289.2 76.8596 289.4C76.5596 289.2 76.3596 289.1 76.0596 288.9C76.5596 288.6 76.9596 288.4 77.4596 288.1C76.8596 287.6 76.4596 287.2 76.2596 286.8C76.0596 286.4 76.0596 286 76.2596 285.5C76.4596 285 76.8596 284.6 77.5596 284.1C77.9596 284.4 78.4596 284.6 78.9596 284.8Z" fill="#FDC850"/>
<path d="M64.1592 289.799C64.1592 289.599 64.1592 289.899 64.1592 285.199C64.1592 286.299 64.4592 287.299 65.1592 288.399C65.8592 289.699 66.9592 290.699 68.0592 291.599C71.1592 293.999 75.3592 295.199 79.2592 295.699C79.9592 297.099 81.0592 298.499 81.9592 299.399C82.3592 299.799 82.6592 300.099 82.9592 300.399C77.4592 300.399 70.6592 298.899 66.7592 295.099C65.3592 293.599 64.2592 291.799 64.1592 289.799Z" fill="#F9B132"/>
<path d="M110.559 284.8C114.159 289.7 113.259 295.3 108.059 298.3C102.859 301.3 94.3593 300.9 88.0593 296.5C84.7593 294.2 82.9593 291.4 82.3593 289C81.7593 286.5 82.2593 284.2 83.5593 282.3C84.9593 280.2 87.7593 278.3 91.7593 277.7C98.8593 276.6 106.759 279.7 110.559 284.8ZM104.659 290.1C105.459 289.5 105.759 288.8 105.659 288C105.559 287.4 105.259 286.7 104.559 285.9C104.759 285.8 104.959 285.6 105.259 285.5C104.959 285.3 104.759 285 104.459 284.8C104.259 284.9 104.059 285.1 103.759 285.2C102.759 284.5 101.859 284 100.959 283.8C99.6593 283.6 98.5593 283.7 97.5593 284.3C96.5593 284.9 95.9593 285.8 96.3593 286.9C96.5593 287.6 96.9593 288.2 97.3593 288.8C95.8593 289.7 94.3593 290.5 92.9593 291.4C92.4593 290.9 92.2593 290.3 92.4593 289.7C92.5593 289.3 92.9593 288.8 93.5593 288.3C93.0593 288 92.4593 287.6 91.9593 287.3C91.2593 287.8 90.8593 288.3 90.6593 288.8C90.4593 289.4 90.4593 289.9 90.6593 290.4C90.8593 290.9 91.2593 291.5 91.8593 292.1C91.3593 292.4 90.9593 292.6 90.4593 292.9C90.7593 293.1 90.9593 293.4 91.2593 293.6C91.7593 293.3 92.1593 293.1 92.6593 292.8C93.6593 293.6 94.7593 294.1 95.9593 294.2C97.1593 294.4 98.2593 294.2 99.2593 293.6C100.059 293.2 100.659 292.5 100.659 291.6C100.659 291.2 100.559 290.8 100.359 290.3C100.259 290 99.9593 289.6 99.4593 288.9C100.759 288.1 102.159 287.4 103.459 286.6C104.159 287.5 104.059 288.3 103.159 289C103.659 289.4 104.159 289.8 104.659 290.1Z" fill="#F9B132"/>
<path d="M105.759 288.001C105.859 288.801 105.459 289.501 104.759 290.101C104.259 289.701 103.659 289.401 103.159 289.001C104.059 288.301 104.159 287.501 103.459 286.601C102.159 287.401 100.759 288.101 99.459 288.901C99.959 289.601 100.259 290.101 100.359 290.301C100.559 290.801 100.659 291.201 100.659 291.601C100.659 292.501 100.059 293.201 99.259 293.601C98.259 294.201 97.159 294.401 95.959 294.201C94.759 294.001 93.559 293.601 92.659 292.801C92.159 293.101 91.759 293.301 91.259 293.601C90.959 293.401 90.759 293.101 90.459 292.901C90.959 292.601 91.359 292.401 91.859 292.101C91.259 291.501 90.859 290.901 90.659 290.401C90.459 289.901 90.459 289.401 90.659 288.801C90.859 288.201 91.259 287.701 91.959 287.301C92.459 287.601 93.059 288.001 93.559 288.301C92.959 288.801 92.559 289.301 92.459 289.701C92.359 290.301 92.559 290.901 92.959 291.401C94.459 290.501 95.959 289.701 97.359 288.801C96.959 288.201 96.559 287.601 96.359 286.901C95.959 285.801 96.559 284.901 97.559 284.301C98.559 283.701 99.659 283.601 100.959 283.801C101.859 284.001 102.759 284.401 103.759 285.201C103.959 285.101 104.159 284.901 104.459 284.801C104.759 285.001 104.959 285.301 105.259 285.501C105.059 285.601 104.859 285.801 104.559 285.901C105.259 286.701 105.659 287.301 105.759 288.001ZM98.759 288.101C100.059 287.401 101.359 286.601 102.659 285.901C100.559 284.501 98.459 285.401 98.259 286.501C98.159 286.901 98.359 287.501 98.759 288.101ZM98.659 291.501C98.759 291.101 98.559 290.501 98.059 289.701C96.659 290.501 95.259 291.301 93.859 292.101C94.459 292.501 95.159 292.801 95.859 292.801C96.559 292.901 97.259 292.701 97.859 292.401C98.259 292.201 98.559 291.801 98.659 291.501Z" fill="#FDC850"/>
<path d="M80.5595 281.001C82.3595 278.501 85.6595 276.201 90.5595 275.401C99.0595 274.001 108.759 277.701 113.359 284.001C117.759 290.001 116.659 296.801 110.359 300.401C104.059 304.101 93.7595 303.501 86.0595 298.301C82.0595 295.501 79.8594 292.101 79.1594 289.201C78.3594 286.101 78.9595 283.301 80.5595 281.001ZM108.059 298.301C113.259 295.301 114.159 289.701 110.559 284.801C106.759 279.701 98.8595 276.601 91.7595 277.701C87.7595 278.401 84.9595 280.201 83.5595 282.301C82.2595 284.201 81.7595 286.501 82.3595 289.001C82.9595 291.401 84.7595 294.201 88.0595 296.501C94.3595 300.901 102.859 301.301 108.059 298.301Z" fill="#FDC850"/>
<path d="M78.9589 284.801C78.7589 286.201 78.8589 287.601 79.1589 289.001C79.8589 292.001 82.0589 295.401 86.0589 298.101C93.7589 303.401 104.059 303.901 110.359 300.201C113.159 298.601 114.959 296.301 115.659 293.801C115.359 295.001 115.059 296.201 114.659 297.401C114.659 297.501 114.259 298.901 113.459 300.201C113.259 300.501 112.859 301.101 112.759 301.101C110.859 303.501 107.959 304.901 105.059 305.701C97.0589 307.801 87.2589 304.801 81.9589 299.201C80.8589 298.101 79.6589 296.501 79.1589 295.301C78.4589 294.001 77.9589 292.401 77.8589 290.901C77.7589 290.201 77.8589 289.601 77.8589 289.001C77.9589 288.101 78.1589 287.701 78.9589 284.801Z" fill="#F9B132"/>
<path d="M102.659 285.899C101.359 286.599 100.059 287.399 98.7589 288.099C98.3589 287.399 98.1589 286.899 98.2589 286.499C98.3589 285.299 100.559 284.399 102.659 285.899Z" fill="#F9B132"/>
<path d="M98.0588 289.699C98.5588 290.499 98.7588 291.099 98.6588 291.499C98.5588 291.899 98.2588 292.199 97.7588 292.499C97.1588 292.799 96.4588 292.999 95.7588 292.899C95.0588 292.799 94.3588 292.599 93.7588 292.199C95.1588 291.299 96.5588 290.499 98.0588 289.699Z" fill="#F9B132"/>
<path d="M65.4595 247.2C65.4595 247.2 65.1595 249.5 64.7595 250.5C64.4595 251.5 64.3595 254 66.3595 253.8C67.2595 253.7 68.3595 252.4 69.5595 251.8C70.8595 251.1 72.9595 250.4 73.4595 250C74.6595 249.1 74.3595 248.6 73.6595 247.7C73.3595 247.3 71.8595 247.9 70.9595 248.1C69.6595 248.5 68.2595 248 67.3595 246.9L65.4595 247.2Z" fill="#5D5189"/>
<path d="M76.6597 253.1C76.6597 253.1 75.0597 257.7 75.8597 258.4C76.6597 259 79.5597 258 81.6597 258.4C83.6597 258.8 87.0597 258.6 87.4597 257.6C87.7597 256.6 86.5597 256.1 82.8597 254.9C79.1597 253.7 78.6597 251.9 78.6597 251.9L76.6597 253.1Z" fill="#5D5189"/>
<path d="M67.5594 200.4C67.5594 200.4 66.6594 208.6 66.4594 215.5C66.2594 222.4 64.6594 226.2 64.6594 229.1C64.6594 232 63.9594 247.4 65.3594 248C65.7594 248.2 66.2594 248.3 66.6594 248.4C67.4594 248.6 68.1594 248.1 68.3594 247.4L78.0594 206.3L67.5594 200.4Z" fill="#F59B26"/>
<path d="M67.26 195.901C67.26 195.901 65.46 201.401 67.26 202.601C69.06 203.701 75.76 208.601 75.76 208.601C75.76 208.601 76.06 223.301 75.76 226.601C75.46 229.901 75.16 234.401 75.76 240.101C76.36 245.801 77.06 252.601 76.76 253.101C76.46 253.701 77.96 254.101 79.26 253.701C80.46 253.301 88.66 208.301 87.96 199.801C87.26 191.401 67.26 195.901 67.26 195.901Z" fill="#FAB61F"/>
<path d="M82.3596 168.399L80.7596 166.599L81.5596 165.299C81.5596 165.299 83.3596 166.499 84.2596 165.299C85.1596 164.099 85.5595 155.199 83.6595 153.399C81.7595 151.699 75.9596 154.299 75.9596 157.399C75.9596 160.599 77.7596 164.899 76.2596 165.399C74.7596 165.999 74.5596 167.399 74.5596 167.399L82.3596 168.399Z" fill="#F0A49E"/>
<path d="M82.6593 150C82.6593 150 85.4593 150.5 85.1593 153.4C84.8593 156.3 81.3593 159.2 79.8593 159.4C78.3593 159.5 80.3593 162.8 79.0593 164C77.8593 165.2 76.3593 165.7 74.8593 163.5C73.3593 161.4 73.3593 161.4 73.3593 161.4C73.3593 161.4 70.5593 157.1 72.9593 154C75.5593 150.8 76.1593 147.9 82.6593 150Z" fill="#5D5189"/>
<path d="M67.9596 176.399C65.8596 180.999 63.5595 190.199 63.1595 195.199C63.1595 195.499 63.1595 195.799 63.1595 196.099C63.1595 196.699 63.1595 196.299 63.1595 196.999C63.1595 197.299 63.1595 197.599 63.1595 197.999L63.2596 198.999C63.4596 201.199 63.9596 202.899 63.9596 202.799C64.0596 203.099 63.8596 203.499 63.4596 203.599C63.1596 203.699 62.8596 203.499 62.7596 203.299C62.0596 202.099 61.5595 200.799 61.1595 199.399C60.7595 197.999 60.8596 198.199 60.5596 196.799C59.4596 190.799 60.7596 184.199 62.3596 178.499C63.3596 174.999 64.3596 172.599 65.3596 170.699C66.0596 169.499 66.8595 168.199 67.6595 167.199C68.3595 166.299 69.6596 166.199 70.5596 166.999C71.2596 167.599 71.4595 168.499 71.1595 169.199C70.6595 170.699 68.6596 174.799 67.9596 176.399Z" fill="#F0A49E"/>
<path d="M76.1596 165.499C76.1596 165.499 70.4596 164 69.0596 166.1C67.6596 168.1 66.2596 196.599 66.9596 198.199C67.6596 199.799 77.1596 207.199 82.2596 205.399C87.3596 203.599 87.8596 199.899 87.8596 199.899L87.1596 182.399C87.1596 182.399 89.4596 182.099 90.2596 180.699C91.0596 179.299 89.1596 173.099 86.5596 170.899C83.8596 168.699 76.1596 165.499 76.1596 165.499Z" fill="#DD3D83"/>
<path d="M67.06 167.2C65.06 168.4 62.06 174 63.06 176.1C63.46 177 65.4599 177.7 66.8599 178.3C71.3599 180.3 71.7599 166.4 71.7599 166.4C70.7599 165.7 70.1599 165.4 69.1599 166.1L67.06 167.2Z" fill="#DD3D83"/>
<path d="M61.9596 204.901C61.2596 203.401 61.5596 201.801 62.5596 201.301C63.6596 200.801 65.4596 201.201 66.2596 203.601C66.3596 204.001 64.5596 202.701 64.5596 203.001C64.7596 204.101 66.1596 206.601 65.3596 207.001C64.2596 207.601 62.6596 206.401 61.9596 204.901Z" fill="#F0A49E"/>
<path d="M103.16 177.801C103.46 177.501 103.26 180.001 103.56 179.801C104.46 179.201 106.06 176.601 106.76 177.101C107.76 177.901 107.36 180.301 106.36 181.601C105.36 182.901 103.76 183.301 102.76 182.501C101.86 181.801 102.16 179.101 103.16 177.801Z" fill="#F0A49E"/>
<path d="M87.5597 191.5C87.5597 191.5 84.5597 187.9 83.9597 184.2C83.2597 180.7 83.6597 176.9 83.6597 176.9L87.3597 185.2L87.5597 191.5Z" fill="#9A89B0"/>
<path d="M89.7595 177.4C89.7595 177.5 89.8595 178.6 89.8595 178.9C90.1595 181.4 91.0595 185.4 93.1595 186.9C93.2595 186.9 93.3595 187 93.3595 187C93.4595 187 93.5595 187.1 93.5595 187.1C93.5595 187.1 93.5595 187.1 93.6595 187.1C93.6595 187.1 93.6595 187.1 93.7595 187.1H93.8595C94.0595 187.1 94.5595 187.1 94.9595 186.9C97.9595 185.9 102.16 181.8 104.36 179.6C104.66 179.3 105.26 179.3 105.56 179.6C105.86 179.9 105.86 180.4 105.66 180.7C103.46 183.5 100.86 186.7 98.0595 188.8C96.8595 189.7 95.4595 190.5 93.9595 190.6C93.5595 190.6 93.6595 190.6 93.2595 190.6C92.9595 190.6 92.7595 190.5 92.4595 190.5C91.7595 190.3 91.5595 190.2 91.2595 190.1C87.2595 188.2 85.0595 182.4 84.1595 178C84.0595 177.7 84.0595 177.2 84.0595 177.2C83.8595 175.7 84.8595 174.2 86.4595 174C88.3595 174 89.9595 175.5 89.7595 177.4Z" fill="#F0A49E"/>
<path d="M84.56 183.901C84.56 183.901 87.06 184.401 88.86 183.901C90.16 183.501 91.06 181.401 91.06 181.401C91.06 181.401 91.66 175.601 88.26 173.101C84.86 170.601 82.16 176.001 84.56 183.901Z" fill="#DD3D83"/>
<path d="M285.36 238.899L280.66 241.599L280.16 241.899L268.46 248.699L268.06 247.399L300.36 228.699L300.76 229.999L292.56 234.799L285.36 238.899Z" fill="#D78D5B"/>
<path d="M300.26 222.5L300.46 223.6L293.96 228.4H292.56L300.26 222.5Z" fill="#D78D5B"/>
<path d="M300.259 222.5L292.559 228.4L266.459 213.4L274.259 207.5L300.259 222.5Z" fill="#EDC095"/>
<path d="M292.559 228.4H293.959L300.359 228.7L268.059 247.4L260.159 247.1L292.559 228.4Z" fill="#EDC095"/>
<path d="M292.559 246.099L292.059 246.399C292.059 242.999 290.459 241.199 289.059 240.199C288.059 239.499 287.159 239.099 285.359 238.899L292.459 234.799V246.099H292.559Z" fill="#B46E3D"/>
<path d="M291.959 246.4C291.959 247.7 291.759 249.1 291.359 250.9L286.659 253.6C288.459 247 286.259 244.3 284.359 242.9C283.359 242.2 282.459 241.8 280.659 241.6L285.359 238.9C287.159 239.1 288.059 239.5 289.059 240.2C290.459 241.2 291.959 243 291.959 246.4Z" fill="#DEE4E8"/>
<path d="M290.56 228.4L283.16 232.7C281.66 231.4 280.16 229.8 278.66 229.1C277.66 228.6 276.66 228.5 275.76 228.4V220.7L266.56 215.4C266.56 215.1 266.56 214.8 266.56 214.6L290.56 228.4Z" fill="#E8AC7C"/>
<path d="M287.059 249.3C287.059 247.5 286.759 245.8 285.659 244.5C285.059 243.7 283.959 242.9 282.959 242.5C282.059 242.2 281.059 242 280.159 241.9L280.659 241.6C282.459 241.8 283.359 242.2 284.359 242.9C286.259 244.3 288.459 247 286.659 253.6L286.359 253.3C286.759 252.1 287.059 250.7 287.059 249.3Z" fill="#C6D2DE"/>
<path d="M266.46 233.7C269.56 231.9 272.66 230.1 275.66 228.4C276.56 228.6 277.56 228.7 278.56 229.1C280.06 229.8 281.56 231.3 283.06 232.7L260.06 246L254.06 242.5C257.16 240.7 260.26 238.9 263.36 237.1V234.2L256.86 230.5C256.96 230.5 256.96 230.4 257.06 230.4C257.56 230.1 258.06 229.8 258.56 229.5C258.56 229.5 258.66 229.5 258.66 229.4C260.26 228.6 261.96 231.9 264.16 233C265.06 233.4 265.76 233.6 266.46 233.7Z" fill="#DBE385"/>
<path d="M275.76 228.299C272.66 230.099 269.56 231.899 266.56 233.599V225.999L275.76 220.699V228.299Z" fill="#4E9C4F"/>
<path d="M274.059 253.699V255.199L269.159 258.099V256.499L274.059 253.699Z" fill="#D2A06E"/>
<path d="M274.059 251.6V253.1L269.159 256V254.4L274.059 251.6Z" fill="#D2A06E"/>
<path d="M274.059 249.5V251L269.159 253.8V252.3L274.059 249.5Z" fill="#D2A06E"/>
<path d="M268.659 252.699V258.399L261.159 262.699V256.999L268.659 252.699Z" fill="#D2A06E"/>
<path d="M266.459 213.4L292.459 228.4L260.159 247.1L234.159 232.1L266.459 213.4ZM283.159 232.7L290.559 228.4L266.459 214.5L236.059 232L240.259 234.4L251.659 241L254.159 242.4L260.159 245.9L283.159 232.7Z" fill="#F7E0BE"/>
<path d="M258.86 229.399C258.86 229.399 258.76 229.399 258.76 229.499C258.26 229.799 257.76 230.099 257.26 230.399V220.699L266.46 225.999V233.699C265.76 233.599 265.06 233.399 264.36 233.099C262.16 231.899 260.46 228.599 258.86 229.399Z" fill="#64B667"/>
<path d="M266.46 215.299L275.76 220.699L266.46 225.999L257.26 220.699L266.46 215.299Z" fill="#86C063"/>
<path d="M266.459 214.5C266.459 214.8 266.459 215.1 266.459 215.3L257.259 220.6V230.3C257.159 230.3 257.159 230.4 257.059 230.4L252.159 227.6L240.359 234.4L236.159 232L266.459 214.5Z" fill="#D78D5B"/>
<path d="M258.66 204.6L266.46 213.4L234.16 232L226.26 223.3L232.16 219.9L232.46 219.7L237.06 217.1L237.66 216.7L237.86 216.6L242.56 213.9L258.66 204.6Z" fill="#EDC095"/>
<path d="M263.459 237.099C260.359 238.899 257.259 240.699 254.159 242.499L251.659 241.099L263.459 234.299V237.099Z" fill="#E65B6A"/>
<path d="M263.46 234.2L251.66 241L240.26 234.5L252.06 227.6L257.06 230.5L263.46 234.2Z" fill="#E98A8B"/>
<path d="M285.659 244.5C285.059 243.7 283.959 242.9 282.959 242.5C282.059 242.2 281.059 242 280.159 241.9L268.459 248.7L260.559 248.4L260.459 248.1L260.159 247.1V248.6V264.8L287.059 249.3C287.059 247.5 286.759 245.8 285.659 244.5ZM268.659 258.4L261.159 262.7V257L268.659 252.7V258.4ZM274.059 255.2L269.159 258V256.5L274.059 253.7V255.2ZM274.059 253.1L269.159 255.9V254.4L274.059 251.6V253.1ZM274.059 251L269.159 253.8V252.3L274.059 249.5V251Z" fill="#B46E3D"/>
<path d="M260.159 247.1L268.059 247.4L268.459 248.7L260.559 248.3L260.459 248.1L260.159 247.1Z" fill="#E8AC7C"/>
<path d="M260.159 248.6V264.8L234.159 249.8V245L254.959 257L260.159 248.6Z" fill="#E8AC7C"/>
<path d="M260.16 247.1V248.6L254.96 257L254.26 256.5L260.16 247.1Z" fill="#D78D5B"/>
<path d="M237.66 211.599C238.26 211.299 238.96 211.399 239.66 211.699C240.56 211.999 241.26 212.599 242.66 213.899L237.96 216.599C236.66 215.299 235.86 214.699 234.96 214.399C234.26 214.099 233.66 213.999 233.06 214.299C234.56 213.399 236.06 212.499 237.66 211.599Z" fill="#DEE4E8"/>
<path d="M236.959 216.1C236.959 216.4 237.059 216.7 237.059 217L232.359 219.7C232.159 218.4 231.959 216.3 232.559 215.2C233.059 214.3 233.959 214.4 234.859 214.8C235.659 215.1 236.359 215.6 236.959 216.1Z" fill="#A1B5C2"/>
<path d="M260.16 247.1L254.26 256.5L234.16 244.9L228.26 241.5L233.66 232.8L234.16 232L260.16 247.1Z" fill="#EDC095"/>
<path d="M226.259 223.299L234.159 231.999L233.659 232.799L225.859 224.099L226.259 223.299Z" fill="#E8AC7C"/>
<path d="M237.859 216.6L237.659 216.7C237.459 216.5 237.259 216.3 236.959 216.1C236.359 215.6 235.659 215.1 234.959 214.7C234.059 214.3 233.159 214.2 232.659 215.1C232.059 216.2 232.259 218.4 232.459 219.6L232.159 219.8C231.659 216.2 232.159 214.7 232.959 214.2C232.959 214.2 232.959 214.2 233.059 214.2C233.559 213.9 234.259 214.1 234.959 214.3C235.759 214.7 236.559 215.3 237.859 216.6Z" fill="#C6D2DE"/>
<path d="M254.959 257L234.159 245V244.9L254.259 256.5L254.959 257Z" fill="#D78D5B"/>
<path d="M234.16 244.9V245L228.96 242L228.26 241.5L234.16 244.9Z" fill="#D78D5B"/>
<path d="M266.459 214.5L266.859 215.6C266.859 215.6 266.159 215.8 257.559 220.8C258.359 223.7 260.159 229.6 260.159 229.6L259.259 230L258.159 230.7L257.059 230.6L253.759 228.7L242.559 235.2H241.459L236.159 232.2L266.459 214.5Z" fill="#B6A9C5"/>
<path d="M266.459 233.701V226.001L275.659 220.701C275.659 220.701 277.659 226.701 278.159 228.801C277.559 229.201 278.959 228.301 271.759 232.501C271.459 232.701 271.159 232.701 270.759 232.801C269.559 233.001 266.459 233.701 266.459 233.701Z" fill="#B6A9C5"/>
<path d="M265.359 236.901L254.959 242.901L251.659 241.001L263.459 234.201V236.101L265.359 236.901Z" fill="#B6A9C5"/>
<path d="M232.459 219.7C232.459 219.4 232.359 219.2 232.359 219C232.259 218 232.159 216.3 232.659 215.3C232.959 214.6 233.559 214.3 234.259 214.5C235.459 214.6 236.959 216 236.959 216L237.059 217C237.059 217.1 233.059 219.4 232.459 219.7Z" fill="#B6A9C5"/>
<path d="M300.359 222.6C300.559 223.5 300.559 223.5 299.959 224C298.159 225.4 296.359 226.7 294.559 228.1C294.259 228.3 293.859 228.5 293.459 228.4C293.259 228.4 293.059 228.4 292.859 228.4C292.859 228.3 292.859 228.3 292.859 228.3C292.859 228.2 293.059 228.1 300.159 222.7C300.259 222.6 300.259 222.6 300.359 222.6Z" fill="#B6A9C5"/>
<path d="M300.459 259.7C302.159 260.5 303.659 261.1 304.959 262.2C305.159 262.3 305.359 262.5 305.459 262.7C305.659 262.9 305.559 263 305.359 263.2C304.959 263.5 303.259 264.4 300.959 265.8C300.459 266.1 299.859 266.2 299.259 266.1C298.059 266 296.859 265.9 295.659 265.8C295.559 265.8 295.359 265.7 295.159 265.6C296.159 264.9 297.259 264.4 298.259 263.8C298.159 263.7 298.059 263.6 297.959 263.6C297.359 263.3 296.659 263 296.059 262.7C295.759 262.6 295.559 262.6 295.259 262.8C293.959 263.6 284.059 269.3 283.759 269.5C283.459 269.7 283.259 269.7 282.959 269.6C281.059 268.8 279.259 268 277.359 267.3C272.259 265.2 273.659 265.8 272.459 265.2C270.659 265.8 265.659 267.4 263.259 268.3C262.859 268.4 262.559 268.4 262.259 268.2C256.759 265 239.359 255 237.059 253.6C236.859 253.5 236.659 253.5 236.659 253.2C236.659 252.9 236.959 252.9 237.159 252.9C237.559 252.7 238.059 252.6 238.459 252.4C238.059 250.6 237.659 248.8 237.259 246.8C238.359 247.4 241.859 249.5 254.459 256.7C256.459 253.6 260.259 247.3 260.259 247.3L260.659 248.5L268.459 248.8L268.059 247.6L300.359 228.9L300.759 230.2L297.259 232.2C297.259 232.2 296.259 231.6 308.059 238.4C314.059 241.9 313.059 241.3 313.859 241.8C310.959 243.3 308.059 244.8 305.159 246.3C307.459 247.3 306.659 246.9 315.859 250.8C315.859 251.1 315.659 251.1 315.459 251.2C310.959 253.6 301.459 259.1 300.459 259.7ZM281.059 241.6C281.059 241.6 281.159 241.8 281.159 241.9C281.859 242.1 282.559 242.2 283.159 242.5C287.159 244.3 287.659 248.2 286.659 252.4C286.559 252.7 286.559 252.9 286.459 253.2C286.459 253.4 286.459 253.6 286.659 253.6C287.259 251.2 287.659 248.5 286.859 246.2C288.459 245.3 289.959 244.5 291.559 243.5C290.159 239.5 286.259 238.9 285.859 238.9C285.459 238.8 285.559 238.9 285.359 239C284.959 239.3 281.059 241.6 281.059 241.6Z" fill="#B6A9C5"/>
<path d="M231.46 251.102V274.502L221.56 280.202V256.902L231.46 251.102Z" fill="#B46E3D"/>
<path d="M231.459 251.1L221.559 256.9L211.659 251.1L221.559 245.4L231.459 251.1Z" fill="#EDC095"/>
<path d="M221.559 256.9V280.2L218.159 282.1V258.8L221.559 256.9Z" fill="#C1CED6"/>
<path d="M221.559 245.4L211.659 251.1L208.359 249.2L218.159 243.5L221.559 245.4Z" fill="#DEE4E8"/>
<path d="M221.559 256.902L218.159 258.802L208.359 253.102L211.659 251.102L221.559 256.902Z" fill="#E4EBEF"/>
<path d="M218.159 258.801V282.101L208.259 287.801V264.501L218.159 258.801ZM215.059 283.001V279.101L209.259 282.501V286.401L215.059 283.001Z" fill="#B46E3D"/>
<path d="M218.159 258.802L208.359 264.502L198.459 258.802L208.359 253.102L218.159 258.802Z" fill="#EDC095"/>
<path d="M218.159 243.501L208.359 249.201L198.459 243.501L208.359 237.801L218.159 243.501Z" fill="#EDC095"/>
<path d="M215.059 279.102V283.002L209.159 286.402V282.502L215.059 279.102Z" fill="#D2A06E"/>
<path d="M208.359 249.201L211.659 251.101L208.359 253.101L204.959 251.101L208.359 249.201Z" fill="#E4EBEF"/>
<path d="M208.359 264.501V287.801L198.459 282.101V258.801L208.359 264.501Z" fill="#E8AC7C"/>
<path d="M208.36 249.2L204.96 251.1L195.06 245.4L198.46 243.5L208.36 249.2Z" fill="#E4EBEF"/>
<path d="M208.36 253.102L198.46 258.802L195.06 256.902L204.96 251.102L208.36 253.102Z" fill="#DEE4E8"/>
<path d="M204.959 251.1L195.059 256.9L185.159 251.1L195.059 245.4L204.959 251.1Z" fill="#EDC095"/>
<path d="M198.46 258.8V282.1L195.06 280.2V256.9L198.46 258.8Z" fill="#DEE4E8"/>
<path d="M195.059 256.902V280.202L185.159 274.502V251.102L195.059 256.902Z" fill="#E8AC7C"/>
<path d="M262.26 271.801V295.201L248.76 297.301V273.901L262.26 271.801Z" fill="#B46E3D"/>
<path d="M260.06 267.102L262.26 271.802L248.76 273.902L246.56 269.202L260.06 267.102Z" fill="#EDC095"/>
<path d="M260.059 267.1L246.559 269.2L245.359 266.5L258.859 264.4L260.059 267.1Z" fill="#DEE4E8"/>
<path d="M258.86 264.401L245.36 266.501L243.16 261.801L238.56 262.501L256.66 259.701L258.86 264.401Z" fill="#EDC095"/>
<path d="M248.759 273.9V297.3L244.159 298V274.6L248.759 273.9Z" fill="#C1CED6"/>
<path d="M246.56 269.201L248.76 273.901L244.16 274.601L241.96 269.901L246.56 269.201Z" fill="#E4EBEF"/>
<path d="M245.36 266.502L246.56 269.202L241.96 269.902L240.76 267.202L245.36 266.502Z" fill="#E4EBEF"/>
<path d="M243.16 261.801L245.36 266.501L240.76 267.201L238.56 262.501L243.16 261.801Z" fill="#E4EBEF"/>
<path d="M244.159 274.602V298.002L230.659 300.102V276.802L244.159 274.602ZM239.859 297.702V293.802L231.959 295.002V298.902L239.859 297.702Z" fill="#B46E3D"/>
<path d="M241.96 269.9L244.16 274.6L230.66 276.7L228.46 272L241.96 269.9Z" fill="#EDC095"/>
<path d="M240.76 267.201L241.96 269.901L228.46 272.001L227.26 269.301L240.76 267.201Z" fill="#DEE4E8"/>
<path d="M238.56 262.502L240.76 267.202L227.26 269.302L225.06 264.602L238.56 262.502Z" fill="#EDC095"/>
<path d="M239.859 293.801V297.701L231.859 298.901V295.001L239.859 293.801Z" fill="#D2A06E"/>
<path d="M230.66 276.702V300.102L228.46 295.302V272.002L230.66 276.702Z" fill="#E8AC7C"/>
<path d="M228.46 272.001V295.301L227.26 292.701V269.301L228.46 272.001Z" fill="#DEE4E8"/>
<path d="M227.26 269.302V292.702L225.06 287.902V264.602L227.26 269.302Z" fill="#E8AC7C"/>
<path d="M205.559 286.4V296.3L192.459 298.3V288.4L205.559 286.4Z" fill="#B46E3D"/>
<path d="M203.359 281.801L205.559 286.401L192.459 288.401L190.359 283.801L203.359 281.801Z" fill="#EDC095"/>
<path d="M203.359 281.801L190.359 283.801L189.159 281.301L202.159 279.301L203.359 281.801Z" fill="#E4EBEF"/>
<path d="M200.06 274.701L202.16 279.301L189.16 281.301L187.06 276.701L200.06 274.701Z" fill="#EDC095"/>
<path d="M192.46 288.4V298.3L188.06 299V289.1L192.46 288.4Z" fill="#C1CED6"/>
<path d="M190.359 283.801L192.459 288.401L188.059 289.101L185.959 284.501L190.359 283.801Z" fill="#DEE4E8"/>
<path d="M189.159 281.301L190.359 283.801L185.959 284.501L184.759 282.001L189.159 281.301Z" fill="#DEE4E8"/>
<path d="M187.059 276.701L189.159 281.301L184.759 282.001L182.659 277.401L187.059 276.701Z" fill="#DEE4E8"/>
<path d="M188.059 289.102L175.059 291.102L172.959 286.502L185.959 284.502L188.059 289.102Z" fill="#EDC095"/>
<path d="M185.959 284.502L172.959 286.502L171.759 284.002L184.759 282.002L185.959 284.502Z" fill="#E4EBEF"/>
<path d="M182.659 277.4L184.759 282L171.759 284L169.659 279.4L182.659 277.4Z" fill="#EDC095"/>
<path d="M188.06 299.002L175.06 301.002V291.102L188.06 289.102V299.002ZM183.86 299.202V295.902L176.26 297.102V300.402L183.86 299.202Z" fill="#B46E3D"/>
<path d="M183.859 295.9V299.2L176.259 300.4V297.1L183.859 295.9Z" fill="#D2A06E"/>
<path d="M175.059 291.102V301.002L172.959 296.402V286.502L175.059 291.102Z" fill="#E8AC7C"/>
<path d="M172.959 286.502V296.402L171.759 293.902V284.002L172.959 286.502Z" fill="#DEE4E8"/>
<path d="M169.659 279.4L171.759 284V293.9L169.659 289.3V279.4Z" fill="#E8AC7C"/>
<path d="M175.06 291.102V301.002L195.96 303.302L212.16 298.302V292.302L226.26 290.402L225.06 287.902V264.602L231.76 263.602L231.46 251.102L208.36 264.502V287.802L200.06 274.702L205.56 286.402L175.06 291.102Z" fill="#BBABC6"/>
<path d="M230.659 276.701V300.101L280.859 297.301L262.259 286.601V271.801L230.659 276.701Z" fill="#BBABC6"/>
<path d="M424.159 240L316.059 302.5L271.959 277L380.059 214.6L424.159 240Z" fill="#DFE3E7"/>
<path d="M424.16 240V289.3L404.66 300.6L316.06 351.7V302.5L424.16 240Z" fill="#C8D1DC"/>
<path d="M316.059 302.5V351.7L276.559 328.9L271.959 326.3V277L316.059 302.5Z" fill="#F4F4F5"/>
<path d="M303.959 359.4H304.059V364.1H303.859L267.859 343.3V338.6H267.959L303.959 359.4Z" fill="#A5B4C0"/>
<path d="M316.06 357.099L402.76 306.999L409.26 303.199V307.999L402.76 311.799L316.06 361.799V357.099Z" fill="#1A2738"/>
<path d="M316.059 357.1V361.8L304.059 364.1V359.4H303.959L316.059 357.1Z" fill="#1A2738"/>
<path d="M402.759 307L316.059 357.1L303.959 359.4L267.959 338.6L271.959 331.6L276.559 328.9L316.059 351.7L404.659 300.6L409.259 303.2L402.759 307Z" fill="#5A6977"/>
<path d="M283.76 349L283.96 359.4L283.26 359.6L283.46 349.6C283.46 348.6 282.46 347.3 280.86 347L275.56 346.2V345.6L280.36 346.3L281.16 346.4C282.76 346.7 283.76 347.9 283.76 349Z" fill="#7E8D9E"/>
<path d="M304.06 359.298V364.098H303.96H304.06L299.46 366.698V356.998L304.06 354.398V359.298H303.96H304.06Z" fill="#598230"/>
<path d="M304.06 350.299V354.399L299.46 356.999V352.899L304.06 350.299Z" fill="#3F6228"/>
<path d="M304.06 350V350.3L299.46 352.9V325.6L304.06 323V350Z" fill="#3F6228"/>
<path d="M300.259 317.1L304.059 323L299.459 325.6L295.659 319.7L300.259 317.1Z" fill="#598230"/>
<path d="M299.459 357V366.8L290.059 372.2C289.259 371.7 288.459 371.3 287.759 370.9C285.659 369.7 282.859 370.2 280.359 371.6V368L299.459 357Z" fill="#476929"/>
<path d="M299.459 352.898V356.998L280.359 367.998V363.898L299.459 352.898Z" fill="#30481E"/>
<path d="M299.459 325.6V352.9L280.359 363.9V360.5L280.859 360.6C282.059 360.8 282.959 360.3 283.259 359.6C283.359 359.4 283.459 359.2 283.559 359C283.659 358.8 283.759 358.5 283.759 358.3V349C283.759 347.9 282.759 346.7 281.159 346.4L280.359 346.3V336.6L299.459 325.6Z" fill="#181810"/>
<path d="M295.66 319.699L299.46 325.599L280.36 336.599L276.56 330.699L295.66 319.699Z" fill="#598230"/>
<path d="M293.56 377.8C293.16 378 292.76 378.3 292.36 378.5C292.26 377.3 291.86 376 291.06 375C290.26 374 289.06 373.4 287.76 373.3C287.16 373.2 286.56 373.3 285.96 373.4C284.46 373.7 283.06 374.5 281.76 375.5C281.16 376 280.56 376.5 280.06 377C276.96 380.1 274.46 384.7 273.96 389.1C273.66 388.9 273.26 388.7 272.96 388.5C273.16 387.2 273.46 386 273.96 384.7C275.16 381.4 277.16 378.3 279.56 375.9C281.76 373.7 285.26 371.4 288.36 371.8C288.86 371.9 289.46 372 289.96 372.2C290.76 372.6 291.56 373.2 292.06 373.9C293.06 375 293.46 376.4 293.56 377.8Z" fill="#5A6977"/>
<path d="M285.96 373.4C286.56 373.2 287.16 373.2 287.76 373.3C288.96 373.4 290.26 374.1 291.06 375C291.86 376 292.26 377.2 292.36 378.5C291.56 378.1 290.86 377.6 290.06 377.2C289.96 376.8 289.76 376.5 289.56 376.2C289.06 375.3 288.16 374.6 287.16 374.3C285.36 373.8 283.46 374.4 281.76 375.5C283.06 374.5 284.46 373.8 285.96 373.4Z" fill="#293D49"/>
<path d="M290.059 377.198C290.359 378.098 290.459 378.998 290.459 379.898C290.459 384.398 287.559 390.498 283.159 393.498C281.459 394.698 279.359 395.598 277.559 395.098C277.159 394.998 276.859 394.798 276.559 394.598C275.659 393.998 274.959 393.098 274.559 392.098C274.159 391.198 274.059 390.198 274.159 389.098C274.659 384.698 277.059 380.098 280.259 376.998C280.759 376.498 281.259 375.998 281.959 375.498C283.659 374.398 285.559 373.698 287.359 374.298C288.359 374.598 289.159 375.298 289.759 376.198C289.759 376.498 289.859 376.798 290.059 377.198ZM288.559 380.998C288.559 378.798 287.759 377.298 286.259 376.698C285.459 376.398 284.559 376.398 283.559 376.698C282.459 376.998 281.259 377.798 279.959 378.998C277.859 381.198 276.259 384.098 275.859 387.298C275.759 388.098 275.759 388.998 275.859 389.698C275.959 390.098 276.059 390.498 276.359 390.898C276.559 391.398 276.859 391.698 277.259 391.998C280.959 395.098 288.359 388.298 288.559 380.998Z" fill="#293D49"/>
<path d="M290.059 372.1C289.459 371.9 288.959 371.8 288.459 371.7C285.459 371.3 281.859 373.6 279.659 375.8C277.259 378.2 275.259 381.3 274.059 384.6V383L271.859 381.7C273.859 378.1 276.959 373.8 280.359 371.5C282.859 370 285.659 369.6 287.759 370.8C288.559 371.2 289.259 371.7 290.059 372.1Z" fill="#728090"/>
<path d="M286.36 376.699C287.76 377.299 288.66 378.799 288.66 380.999C288.46 388.299 281.06 395.099 277.46 392.099C278.66 392.499 280.06 392.099 281.26 391.499C283.06 390.599 284.36 389.099 285.36 387.399C286.66 385.299 287.76 382.899 287.76 380.399C287.76 379.099 287.56 378.099 286.76 377.099C286.56 376.999 286.46 376.899 286.36 376.699Z" fill="#5A6977"/>
<path d="M286.66 377.099C287.46 378.099 287.66 379.099 287.66 380.399C287.66 382.799 286.66 385.299 285.26 387.399C284.26 389.099 282.96 390.499 281.16 391.499C279.96 392.099 278.56 392.499 277.36 392.099C277.06 391.799 276.76 391.499 276.46 390.999C276.26 390.599 276.06 390.199 275.96 389.799C277.56 391.299 279.96 390.199 281.56 388.799C282.26 388.899 283.06 388.599 283.96 387.699C285.16 386.499 285.76 384.999 285.76 383.699C285.76 383.099 285.56 382.599 285.36 382.199C285.46 381.599 285.56 381.099 285.56 380.499C285.56 378.899 284.96 377.299 283.46 376.799C284.46 376.499 285.36 376.499 286.16 376.799C286.46 376.899 286.56 376.999 286.66 377.099Z" fill="#5A6977"/>
<path d="M285.559 382.1C285.859 382.4 286.059 382.9 285.959 383.6C285.959 384.9 285.259 386.5 284.159 387.6C283.259 388.5 282.459 388.8 281.759 388.7C281.559 388.7 281.459 388.6 281.259 388.5C280.659 388.2 280.359 387.4 280.459 386.3C280.659 384.9 281.259 383.6 282.259 382.7C283.259 381.6 284.359 381.4 285.059 381.7C285.259 381.8 285.459 382 285.559 382.1Z" fill="#A5B4C0"/>
<path d="M285.059 381.699C284.459 381.399 283.859 380.999 283.259 380.699C282.559 380.299 281.659 380.699 280.959 381.099C279.759 381.899 278.759 383.799 278.559 385.199C278.459 386.099 278.659 386.999 279.359 387.399C279.959 387.799 280.659 388.099 281.259 388.499C281.359 388.599 281.559 388.599 281.759 388.699C280.059 390.199 277.659 391.199 276.159 389.699C275.959 388.899 276.059 388.099 276.159 387.299C276.559 384.099 278.059 381.199 280.259 378.999C281.459 377.799 282.659 376.999 283.859 376.699C285.359 377.199 285.959 378.799 285.959 380.399C285.959 380.999 285.859 381.499 285.759 382.099C285.459 381.999 285.259 381.799 285.059 381.699Z" fill="#4A5661"/>
<path d="M285.059 381.699C284.359 381.399 283.359 381.699 282.259 382.699C281.259 383.699 280.659 384.899 280.459 386.299C280.359 387.399 280.659 388.199 281.259 388.499C280.659 388.099 279.959 387.799 279.359 387.399C278.659 386.999 278.459 385.999 278.559 385.199C278.659 383.699 279.759 381.899 280.959 381.099C281.659 380.599 282.559 380.299 283.259 380.699C283.859 380.999 284.459 381.399 285.059 381.699Z" fill="#728090"/>
<path d="M280.36 360.599L275.56 359.899V346.299L280.86 347.099C282.46 347.299 283.46 348.699 283.46 349.699V358.999C283.46 359.199 283.46 359.499 283.26 359.699C282.86 360.399 281.96 360.899 280.86 360.699L280.36 360.599Z" fill="#ABBED0"/>
<path d="M280.359 368V371.5C276.959 373.8 273.859 378.1 271.859 381.7L271.259 381.3L263.859 385.6L269.059 376.7L280.359 368Z" fill="#598230"/>
<path d="M280.36 363.898V367.998L268.96 376.798L275.56 366.698L280.36 363.898Z" fill="#3F6228"/>
<path d="M280.36 360.598V363.898L275.56 366.698V359.898L280.36 360.598Z" fill="#3F6228"/>
<path d="M280.36 336.6V346.3L275.56 345.6V339.4L280.36 336.6Z" fill="#3F6228"/>
<path d="M276.56 330.699L280.36 336.599L275.56 339.399L271.76 333.499L276.56 330.699Z" fill="#598230"/>
<path d="M276.56 394.6L277.06 394.9C275.16 393.8 272.56 392.4 270.66 391.3C269.66 390.7 268.86 389.7 268.46 388L269.06 387.6C270.36 388.3 271.56 389.1 272.86 389.8C273.26 389.6 273.66 389.3 274.06 389.1C274.06 390.2 274.16 391.3 274.46 392.1C274.96 393.1 275.66 394 276.56 394.6Z" fill="#050405"/>
<path d="M275.56 359.898V366.698L264.26 368.898L266.06 340.498L275.56 339.398V345.598V346.198V359.898Z" fill="#A57767"/>
<path d="M267.16 341.499L274.46 340.699V365.699L265.46 367.499L267.16 341.499Z" fill="#181810"/>
<path d="M271.76 333.498L275.56 339.398L266.06 340.498L268.96 331.898L271.76 333.498Z" fill="#86BF56"/>
<path d="M275.559 366.699L268.959 376.799L252.859 376.199L264.259 368.899L275.559 366.699Z" fill="#7ABA44"/>
<path d="M274.06 383V384.7L269.06 387.6L268.46 388L263.26 390.9V389.3L274.06 383Z" fill="#7E8D9E"/>
<path d="M274.06 382.999L263.26 389.299L250.56 386.299L226.66 372.499L221.56 365.199L227.46 361.699L226.56 366.099L230.06 371.199L233.86 373.399L248.96 382.099L252.86 384.399L262.36 386.499L263.76 385.699V385.599L271.26 381.399L271.86 381.799L274.06 382.999Z" fill="#D1E2EE"/>
<path d="M269.06 387.599L274.06 384.699C273.56 385.899 273.26 387.199 273.06 388.499C272.96 388.899 272.96 389.399 272.86 389.799C271.56 388.999 270.36 388.299 269.06 387.599Z" fill="#728090"/>
<path d="M274.059 389.1C273.659 389.3 273.259 389.6 272.859 389.8C272.859 389.4 272.959 388.9 273.059 388.5C273.359 388.7 273.759 388.9 274.059 389.1Z" fill="#5A6977"/>
<path d="M268.96 331.9L266.06 340.5L259.46 336.6L265.06 329.6L268.96 331.9Z" fill="#86BF56"/>
<path d="M268.959 376.799L263.759 385.699L262.259 386.499L252.859 384.299V376.199L268.959 376.799ZM259.359 384.899C262.359 384.499 263.959 381.299 261.459 379.499C258.659 377.599 253.159 379.099 254.459 382.299C255.159 383.899 257.259 385.099 259.359 384.899Z" fill="#86BF56"/>
<path d="M266.06 340.5L264.26 368.9L257.56 365L242.36 356.3L235.76 352.5L236.06 348.6L237.36 328.7L237.76 324.1L244.26 327.9L259.46 336.6L266.06 340.5Z" fill="#F0DFDB"/>
<path d="M236.96 351.8L237.26 348.6L238.76 326L258.86 337.6L264.96 341.1L263.26 367L236.96 351.8Z" fill="#4B4B37"/>
<path d="M265.06 329.598L259.46 336.598L244.26 327.898L249.96 320.898L265.06 329.598Z" fill="#86BF56"/>
<path d="M264.26 368.9L252.86 376.2L248.96 374L257.56 365L264.26 368.9Z" fill="#7ABA44"/>
<path d="M263.26 389.299V390.899L250.56 387.999V386.299L263.26 389.299Z" fill="#ABBED0"/>
<path d="M261.459 379.5C263.859 381.2 262.259 384.5 259.359 384.9C257.259 385.2 255.159 383.9 254.559 382.3C253.159 379.1 258.659 377.6 261.459 379.5Z" fill="#F4F4F5"/>
<path d="M257.559 364.999L248.959 373.999L233.859 365.299L242.359 356.299L257.559 364.999Z" fill="#B7DABA"/>
<path d="M252.86 376.2V384.4L248.96 382.1V374L252.86 376.2Z" fill="#86BF56"/>
<path d="M250.559 386.3V388L226.659 374.2V372.5L250.559 386.3Z" fill="#ABBED0"/>
<path d="M249.96 320.899L244.26 327.899L237.76 324.099L246.26 318.699L249.96 320.899Z" fill="#86BF56"/>
<path d="M248.959 373.999V382.099L233.859 373.399V365.299L248.959 373.999Z" fill="#CFE5D2"/>
<path d="M271.759 300.699L243.359 317.099L271.759 333.499L300.259 317.099L271.759 300.699Z" fill="url(#paint0_linear)"/>
<path d="M267.96 302.199L263.46 304.799L251.36 311.799L239.56 318.599L243.36 317.099L246.26 315.399L251.96 312.099L267.26 303.299L271.76 300.699L267.96 302.199Z" fill="#70A84A"/>
<path d="M238.46 321.7L239.56 318.6L243.36 317.1L246.26 318.7L237.76 324.1L238.26 322.6L238.46 321.7Z" fill="#86BF56"/>
<path d="M242.36 356.3L233.86 365.3L230.06 363.1L235.76 352.5L242.36 356.3Z" fill="#7ABA44"/>
<path d="M238.26 322.599L237.76 324.099L237.46 328.699V322.999C237.46 322.299 237.56 321.899 237.76 321.799C237.86 321.899 238.06 322.099 238.26 322.599Z" fill="#ABBED0"/>
<path d="M236.059 348.6L235.759 352.5L230.059 363.1L229.159 353.8L236.059 348.6Z" fill="#7ABA44"/>
<path d="M233.86 365.3V373.4L230.06 371.2V363.1L233.86 365.3Z" fill="#86BF56"/>
<path d="M230.06 363.099V371.199L226.56 366.099L227.46 361.699L229.16 353.799L230.06 363.099ZM229.86 367.199C229.86 366.199 229.76 361.899 229.36 360.999C228.76 359.899 227.46 364.299 228.36 367.299C228.46 367.699 228.86 368.499 229.26 368.599C229.76 368.799 229.76 367.699 229.86 367.199Z" fill="#86BF56"/>
<path d="M229.26 361C229.66 361.9 229.86 366.2 229.76 367.2C229.76 367.8 229.66 368.8 229.16 368.6C228.76 368.4 228.46 367.7 228.26 367.3C227.36 364.3 228.76 359.8 229.26 361Z" fill="#F4F4F5"/>
<path d="M226.66 372.499V374.199L221.56 366.799V365.199L226.66 372.499Z" fill="#ABBED0"/>
<path d="M390.06 327.7C393.86 327.3 395.86 325.2 397.46 322.7C398.76 320.6 399.86 318.2 399.86 315.7C399.86 314.2 399.56 313.1 398.56 312C399.96 312.6 400.86 314.1 400.86 316.3C400.56 323.2 393.76 329.8 390.06 327.7Z" fill="#7E8D9E"/>
<path d="M388.259 325C389.759 326.4 392.059 325.5 393.759 324.1C394.459 324.3 395.359 324 396.359 323C397.559 321.8 398.159 320.3 398.159 319C398.159 318.4 398.059 317.9 397.759 317.6C397.959 317 397.959 316.3 397.959 315.7C397.959 313.5 397.059 312.3 395.759 312C396.759 311.7 397.759 311.7 398.459 312C399.459 313.1 399.759 314.3 399.759 315.7C399.759 318.1 398.759 320.5 397.359 322.7C395.759 325.2 393.759 327.3 389.959 327.7C389.459 327.4 388.959 327 388.559 326.3C388.459 325.9 388.259 325.5 388.259 325Z" fill="#40505E"/>
<path d="M390.659 320.699C390.759 319.199 391.859 317.399 393.059 316.599C393.759 316.099 394.659 315.799 395.359 316.199C395.959 316.499 396.559 316.899 397.159 317.199C396.459 316.899 395.459 317.099 394.359 318.199C393.359 319.199 392.759 320.399 392.559 321.799C392.459 322.899 392.759 323.699 393.359 323.999C392.759 323.599 392.059 323.299 391.459 322.899C390.759 322.499 390.559 321.599 390.659 320.699Z" fill="#7E8D9E"/>
<path d="M388.159 322.6C388.559 319.4 390.059 316.5 392.259 314.3C393.459 313.1 394.659 312.3 395.759 312C396.959 312.3 397.959 313.5 397.959 315.7C397.959 316.3 397.859 317 397.759 317.6C397.659 317.4 397.459 317.3 397.259 317.2C396.659 316.9 396.059 316.5 395.459 316.2C394.759 315.8 393.859 316.2 393.159 316.6C391.959 317.4 390.959 319.3 390.759 320.7C390.659 321.6 390.859 322.5 391.559 322.9C392.159 323.3 392.859 323.6 393.459 324C393.559 324.1 393.659 324.1 393.759 324.1C392.159 325.5 389.859 326.4 388.259 325C388.059 324.2 388.059 323.4 388.159 322.6Z" fill="#5E6672"/>
<path d="M392.559 321.8C392.759 320.4 393.359 319.1 394.359 318.2C395.359 317.1 396.459 316.9 397.159 317.2C397.359 317.3 397.559 317.4 397.659 317.6C397.959 317.9 398.059 318.4 398.059 319C398.059 320.3 397.459 321.9 396.259 323C395.359 324 394.359 324.3 393.659 324.1C393.559 324.1 393.459 324 393.359 324C392.759 323.7 392.459 322.9 392.559 321.8Z" fill="#ABBED0"/>
<path d="M392.759 330.099C391.059 330.599 389.659 330.499 388.559 329.799C386.659 328.699 384.759 327.599 382.759 326.499C383.059 326.699 383.259 326.799 383.559 326.899L384.759 327.599L386.259 326.599C385.959 319.999 390.659 312.899 395.459 309.899C397.259 309.099 398.959 309.199 400.159 309.899C401.459 310.599 402.359 312.099 402.459 314.299C402.459 314.599 402.459 314.899 402.459 315.199C402.559 321.699 397.159 328.699 392.759 330.099ZM388.659 326.299C389.059 326.999 389.459 327.399 390.059 327.699C393.859 329.799 400.559 323.199 400.759 316.299C400.759 314.099 399.959 312.599 398.459 311.999C397.659 311.699 396.759 311.699 395.759 311.999C394.659 312.399 393.459 313.099 392.259 314.299C390.059 316.499 388.559 319.399 388.159 322.599C388.059 323.399 388.059 324.299 388.159 324.999C388.259 325.499 388.459 325.899 388.659 326.299Z" fill="#203844"/>
<path d="M395.459 309.899C397.459 308.599 399.559 308.099 401.259 308.599C402.659 308.999 403.759 310.199 404.359 311.499C404.959 312.799 405.059 314.299 405.059 315.699L402.459 314.199C402.259 312.099 401.459 310.599 400.159 309.799C398.959 309.199 397.259 309.099 395.459 309.899Z" fill="#1A2738"/>
<path d="M384.76 327.601C384.36 319.401 390.96 309.801 397.26 307.301C398.86 306.701 400.659 306.301 402.159 306.801C402.359 306.901 402.56 306.901 402.76 307.001C404.06 307.601 405.159 308.801 405.859 310.101C406.559 311.601 406.659 313.201 406.659 314.901V315.001L405.159 315.801C405.259 314.401 405.159 312.901 404.459 311.601C403.859 310.301 402.659 309.201 401.359 308.701C399.659 308.201 397.559 308.701 395.559 310.001C390.759 313.001 386.159 320.101 386.359 326.701L384.76 327.601Z" fill="#293D49"/>
<path d="M388.659 303.8C390.559 302.8 392.859 302.2 394.759 302.6C395.259 302.7 395.759 302.8 396.259 303.1C397.659 303.9 398.959 304.7 400.259 305.4C401.059 305.9 401.959 306.4 402.759 306.9C402.559 306.8 402.359 306.7 402.159 306.7C400.559 306.2 398.759 306.6 397.259 307.2C390.959 309.7 384.359 319.3 384.759 327.5L383.559 326.8L377.659 323.4C377.559 321.1 378.059 318.7 378.859 316.5C379.559 314.6 380.459 312.8 381.559 311C381.759 310.6 382.059 310.2 382.359 309.8C383.959 307.4 385.959 305.3 388.659 303.8Z" fill="#5A6977"/>
<path d="M330.359 311C331.259 311 331.959 311.4 332.359 312.3C332.759 313.2 332.959 314.7 332.959 316.8C332.959 318.9 332.759 320.6 332.359 322C331.959 323.4 331.259 324.6 330.359 325.6C329.459 326.6 328.159 327.6 326.559 328.5C324.759 329.6 322.759 330.6 320.659 331.7V316C322.759 314.7 324.659 313.5 326.559 312.4C328.159 311.5 329.459 311 330.359 311ZM328.659 324.4C329.159 323.8 329.459 323 329.659 322.1C329.859 321.2 329.959 320 329.959 318.5C329.959 317 329.859 316 329.659 315.3C329.459 314.6 329.059 314.2 328.659 314.2C328.159 314.1 327.459 314.4 326.659 314.9L323.659 316.7V328C324.859 327.3 325.859 326.8 326.659 326.3C327.459 325.6 328.159 325 328.659 324.4Z" fill="#8D1E5E"/>
<path d="M345.959 314.8L346.059 316.9C345.159 317.5 344.159 318.1 343.059 318.8C341.959 319.4 340.659 320.2 339.059 321.1C338.059 321.7 337.259 321.9 336.659 321.7C336.059 321.5 335.759 321 335.759 320V310.2C335.759 309.3 336.059 308.4 336.659 307.5C337.259 306.6 338.059 305.9 339.059 305.3C340.659 304.4 341.959 303.6 343.059 303.1C344.159 302.5 345.059 302 346.059 301.5L345.959 303.8L339.859 307.3C339.459 307.5 339.159 307.8 338.959 308.1C338.759 308.4 338.659 308.8 338.659 309.3V312.1L345.059 308.4V310.6L338.659 314.3V317.8C338.659 318.3 338.759 318.6 338.959 318.7C339.159 318.8 339.459 318.7 339.859 318.5L345.959 314.8Z" fill="#8D1E5E"/>
<path d="M351.659 310.1C351.659 310.6 351.759 310.9 351.959 310.9C352.159 311 352.459 310.9 352.959 310.6L358.459 307.5L358.559 309.6C357.059 310.6 354.959 311.9 352.359 313.4C350.059 314.8 348.859 314.4 348.859 312.2V299.7L351.659 298.1V310.1V310.1Z" fill="#8D1E5E"/>
<path d="M363.559 306.899L360.759 308.499V292.799L363.559 291.199V306.899Z" fill="#8D1E5E"/>
<path d="M374.759 299.699C374.659 299.999 374.559 300.299 374.359 300.499C374.159 300.799 373.959 300.999 373.759 301.099L371.059 302.599C370.759 302.699 370.559 302.799 370.359 302.799C370.159 302.799 370.059 302.599 369.959 302.399L365.459 290.099L368.359 288.399L371.559 298.299L371.959 299.799L372.559 299.499C372.659 298.999 372.759 298.299 372.959 297.499L376.159 283.899L379.059 282.199L374.759 299.699Z" fill="#8D1E5E"/>
<path d="M391.159 288.7L391.259 290.8C390.359 291.4 389.359 292 388.259 292.7C387.159 293.3 385.859 294.1 384.259 295C383.259 295.6 382.459 295.8 381.859 295.6C381.259 295.4 380.959 294.9 380.959 293.9V284.1C380.959 283.2 381.259 282.3 381.859 281.4C382.459 280.5 383.259 279.8 384.259 279.2C385.859 278.3 387.159 277.5 388.259 277C389.359 276.4 390.259 275.9 391.259 275.4L391.159 277.7L385.059 281.2C384.659 281.4 384.359 281.7 384.159 282C383.959 282.3 383.859 282.7 383.859 283.2V286L390.259 282.3V284.5L383.859 288.2V291.7C383.859 292.2 383.959 292.5 384.159 292.6C384.359 292.7 384.659 292.6 385.059 292.4L391.159 288.7Z" fill="#8D1E5E"/>
<path d="M405.86 282.5L402.86 284.2L401.56 280.1C401.36 279.7 401.16 279.5 400.86 279.4C400.56 279.3 400.16 279.5 399.66 279.7L396.86 281.3V287.6L394.06 289.2V273.5C394.86 272.9 395.76 272.4 396.46 271.9C397.26 271.4 398.36 270.8 399.76 270C401.06 269.2 402.16 268.8 402.96 268.6C403.76 268.4 404.36 268.6 404.66 269C405.06 269.5 405.26 270.3 405.26 271.5C405.26 272.7 405.06 273.8 404.56 274.7C404.06 275.6 403.36 276.4 402.26 277.2V277.3C402.76 277.1 403.16 277.1 403.56 277.3C403.96 277.5 404.26 277.8 404.36 278.4L405.86 282.5ZM401.36 276.3C401.76 275.9 401.96 275.5 402.16 275.1C402.36 274.7 402.36 274.1 402.36 273.5C402.36 272.8 402.26 272.4 402.16 272.1C401.96 271.8 401.76 271.8 401.36 271.8C400.96 271.9 400.46 272.1 399.76 272.5L396.96 274.1V279L399.76 277.4C400.36 277 400.96 276.6 401.36 276.3Z" fill="#8D1E5E"/>
<path d="M414.459 272.3V277.6L411.659 279.2V273.9L406.459 266.5L409.459 264.8L412.359 269.2C412.459 269.4 412.659 269.7 412.759 270.1C412.859 270.4 412.959 270.7 413.059 270.8L413.259 270.7C413.259 270.6 413.359 270.2 413.559 269.7C413.659 269.2 413.759 268.8 413.959 268.4L416.859 260.7L419.859 259L414.459 272.3Z" fill="#8D1E5E"/>
<defs>
<linearGradient id="paint0_linear" x1="243.377" y1="317.068" x2="300.23" y2="317.068" gradientUnits="userSpaceOnUse">
<stop stop-color="#B4D7A8"/>
<stop offset="1" stop-color="#86BF56"/>
</linearGradient>
</defs>
</svg>
