<svg width="295" height="273" viewBox="0 0 295 273" fill="none" xmlns="http://www.w3.org/2000/svg">
<g clip-path="url(#clip0)">
<path d="M191.1 240.614C190.3 236.914 186.2 234.214 182.4 235.014C178.7 235.814 176.1 240.014 177 243.814C174.6 241.314 170.3 240.914 167.4 242.814C164.5 244.714 163.2 248.714 164.5 252.014C162 249.614 158.1 248.814 154.9 250.114C151.7 251.314 149.3 254.614 149.1 258.014C146.4 254.914 141.8 253.414 137.8 254.414C133.8 255.414 130.4 258.814 129.4 262.914C122.8 258.214 112.1 261.414 109.3 269.014H207.6L191.1 240.614Z" fill="white"/>
<path d="M129.9 262.814C128.9 258.714 125.6 255.414 121.5 254.314C117.5 253.314 112.9 254.714 110.2 257.914C110 254.514 107.6 251.214 104.4 250.014C101.2 248.814 97.3 249.514 94.8 251.914C96.1 248.714 94.8 244.614 91.9 242.714C89.3 241.014 85.6 241.214 83.2 243.014L82.5 241.914C82.4 238.714 80 235.714 76.9 235.014C76.3 234.914 75.6 234.814 75 234.914C74.4 234.914 73.7 234.914 73.1 235.014C70 235.714 67.7 238.814 67.5 241.914L66.8 243.014C64.3 241.214 60.7 241.014 58.1 242.714C55.2 244.614 53.9 248.614 55.2 251.914C52.7 249.514 48.8 248.714 45.6 250.014C42.4 251.214 40 254.514 39.8 257.914C37.1 254.814 32.5 253.314 28.5 254.314C24.5 255.314 21.1 258.714 20.1 262.814C13.5 258.114 2.8 261.314 0 268.914H51.7H98.3H150C147.2 261.414 136.5 258.114 129.9 262.814Z" fill="white"/>
<path d="M239.2 249.714C239.7 247.214 242.6 245.314 245.1 245.914C247.6 246.514 249.4 249.314 248.8 251.814C250.5 250.114 253.3 249.814 255.3 251.114C257.3 252.414 258.1 255.114 257.3 257.314C259 255.714 261.6 255.114 263.8 256.014C266 256.814 267.6 259.014 267.7 261.414C269.6 259.314 272.7 258.314 275.4 259.014C278.1 259.714 280.4 262.014 281.1 264.714C285.6 261.514 292.8 263.714 294.7 268.914H228L239.2 249.714Z" fill="white"/>
<path d="M110.7 65.0152C110.5 65.0152 107.4 65.2152 104.8 65.3152C102.8 65.4152 101.2 65.5152 101.2 65.5152C101.2 65.5152 101.2 56.7152 102.9 50.6152C103.9 47.1152 105.8 44.9152 107.3 43.6152C108.5 42.6152 109.4 42.1152 109.4 42.1152L112.3 43.5152C112.3 43.4152 110.4 65.0152 110.7 65.0152Z" fill="#FF8DC4"/>
<path opacity="0.5" d="M110.7 65.0156C110.5 65.0156 107.4 65.2156 104.8 65.3156C104.6 60.0156 104.6 54.7156 105.1 51.1156C105.6 47.8156 106.4 45.3156 107.3 43.5156C108.5 42.5156 109.4 42.0156 109.4 42.0156L112.3 43.4156C112.3 43.4156 110.4 65.0156 110.7 65.0156Z" fill="#FF8DC4"/>
<path d="M108.3 265.516C108.3 265.516 107.2 265.216 106.1 265.916C105.2 266.416 104.7 267.516 104.7 268.516V270.216H145.3C145.3 270.216 146.5 268.316 146.1 266.816C145.7 265.416 144.9 264.516 144.9 264.516L108.3 265.516Z" fill="#666666"/>
<path d="M122.8 251.316C122.8 251.316 115.1 259.016 110.6 262.116C106.1 265.216 106 267.316 106.5 267.916H144.5C144.5 267.916 147.1 260.116 142.9 251.016L122.8 251.316Z" fill="#231F20"/>
<path d="M127.5 267.215C127.5 267.215 126.4 266.915 125.3 267.615C124.4 268.115 123.9 269.215 123.9 270.215V271.915H164.5C164.5 271.915 165.7 270.015 165.3 268.515C164.9 267.115 164.1 266.215 164.1 266.215L127.5 267.215Z" fill="#666666"/>
<path d="M142 253.015C142 253.015 134.3 260.715 129.8 263.815C125.3 266.915 125.2 269.015 125.7 269.615H163.7C163.7 269.615 166.3 261.815 162.1 252.715L142 253.015Z" fill="#231F20"/>
<path d="M141.1 208.414C145.6 232.214 142 251.114 142 251.114C140.4 251.614 138.8 252.114 137.2 252.414C135.7 252.714 134.3 252.914 132.9 253.014C125.3 253.814 118.8 252.814 118.8 252.814C118.8 252.814 117.5 233.314 117.4 222.314C117.3 211.314 112.9 186.014 111.7 160.214C111 144.914 110.7 131.914 110.7 123.914C110.7 118.314 110.7 115.114 110.7 115.114L144.5 114.814C144.5 114.814 144.1 120.514 142.9 128.514C142.3 133.014 141.4 138.114 140.3 143.414C138.9 149.814 138.1 158.514 137.9 168.214C137.6 180.714 138.6 195.014 141.1 208.414Z" fill="#8D1E5E"/>
<path opacity="0.5" d="M142 251.014C140.4 251.514 138.8 252.014 137.2 252.314C135.7 252.614 134.3 252.814 132.9 252.914C133.5 245.814 133.4 233.214 131.8 217.714C129.9 199.314 124.9 178.714 122.2 159.614C119.5 140.514 120.7 131.014 120.7 131.014L123.7 128.814L137.9 168.114C137.7 180.714 138.6 195.014 141.2 208.414C145.6 232.114 142 251.014 142 251.014Z" fill="#8D1E5E"/>
<path d="M165.3 255.615C146.3 260.115 137.1 256.315 137.1 256.315C137.1 256.315 137.2 255.015 137.2 252.415C137.2 249.115 137.3 243.815 137.1 236.115C136.8 222.215 130.7 189.615 125.5 165.715C122.3 150.915 120.5 135.315 119.6 125.615C119 119.615 118.8 115.915 118.8 115.915L144.5 114.815L158.6 114.215C159.1 120.515 158.2 125.015 157.3 129.015C156.5 132.615 155.6 135.815 155.5 139.715C155.2 147.915 155.8 166.915 160.8 193.215C165.8 219.415 165.3 255.615 165.3 255.615Z" fill="#8D1E5E"/>
<path opacity="0.5" d="M157.2 128.916C152.2 128.916 147.4 128.716 142.8 128.416C133.7 127.816 125.6 126.616 119.5 125.516C115.7 124.816 112.7 124.216 110.6 123.716C110.6 118.116 110.6 114.916 110.6 114.916L144.4 114.616L158.5 114.016C159 120.416 158.1 124.916 157.2 128.916Z" fill="#8D1E5E"/>
<path d="M160.6 119.714C124.6 126.514 106.9 120.914 106.9 120.914C110.2 109.114 106.4 76.8145 106.5 66.4145C106.6 56.0145 105.3 46.9145 107.9 43.5145C110.5 40.1145 123.2 33.8145 123.2 33.8145L134.3 29.4145C134.3 29.4145 148 29.0145 155.4 34.6145C159.9 38.0145 159.5 45.9145 158.5 53.7145C157.8 58.7145 156.9 63.7145 156.8 67.4145C156.7 71.6145 156.9 76.0145 157.2 80.6145C157.6 86.1145 158.4 92.0145 159.4 98.0145C161.3 109.014 160.6 119.714 160.6 119.714Z" fill="#FF8DC4"/>
<path d="M148.4 116.114C148.4 116.114 142.2 116.614 132.9 117.314C131.3 117.414 129.6 117.514 127.9 117.714C121.7 118.214 114.7 118.714 107.3 119.214C99.9999 119.814 92.3999 120.314 85.1999 120.814C83.4999 120.914 81.7999 121.014 80.1999 121.214C78.8999 121.314 77.4999 121.414 76.1999 121.514C70.1999 121.914 64.7999 122.314 60.4999 122.614C54.1999 123.014 50.2999 123.314 50.1999 123.214C49.8999 122.814 49.7999 67.4145 50.1999 68.8145L77.1999 63.6145L82.4999 62.6145L104.6 58.3145L124 60.9144L128.9 61.6145L144.5 63.7144L148.4 116.114Z" fill="#E6B57B"/>
<path d="M85.1997 120.814C83.4997 120.914 81.7997 121.014 80.1997 121.214C79.6997 110.914 77.8997 72.2137 77.1997 63.5137L82.4997 62.5137C82.5997 71.1137 84.5997 109.814 85.1997 120.814Z" fill="#EFCEAB"/>
<path opacity="0.5" d="M120.2 79.6157C119.8 81.2157 119.4 82.9157 118.6 84.3157C117.2 86.7157 114.8 88.5157 112.1 89.3157C109.4 90.2157 106.6 90.3157 103.8 90.0157C102.7 89.9157 101.7 89.8157 100.6 89.9157C99.4 90.1157 98.2 90.6157 97.1 91.1157C91.5 93.7157 86.1 96.6157 80.9 99.8157C77.4 101.916 73.8 104.216 69.8 104.716C68.4 104.916 67.6 104.816 66.9 106.116C70.5 110.916 73.6 116.016 76.2 121.316C70.2 121.716 64.8 122.116 60.5 122.416C59.8 118.416 58.6 114.616 56.9 110.916C56.2 109.516 55.5 108.116 55.1 106.616C54.1 102.316 56.5 97.9157 59.5 94.6157C60.4 93.6157 61.3 92.7157 62.5 92.2157C64.9 91.2157 67.7 92.2157 70.3 92.7157C73.2 93.2157 76.2 92.8157 78.9 91.7157C83 90.0157 86.2 86.7157 90.3 85.1157C92.2 84.4157 94.3 84.1157 96.2 83.3157C98.6 82.3157 100.4 80.7157 101.9 78.6157C102.3 78.1157 102.8 77.7157 103.2 77.2157C104.2 76.1157 104.6 74.7157 105.6 73.5157C106.7 72.2157 107.9 71.0157 109.2 70.0157C109.7 69.6157 110.4 69.1157 111 69.4157C111.9 69.7157 111.8 71.0157 111.4 71.9157C111 72.8157 110.5 73.8157 111.1 74.6157C111.4 75.1157 112.1 75.2157 112.6 75.3157C113.9 75.5157 115.2 75.5157 116.5 75.2157C117 75.1157 117.5 74.9157 118.1 75.0157C118.6 75.1157 119.1 75.5157 119.2 76.0157C119.2 76.3157 119 76.7157 119.1 77.0157C119.2 77.7157 120.1 77.9157 120.3 78.6157C120.4 79.0157 120.3 79.3157 120.2 79.6157Z" fill="#BD8C53"/>
<path opacity="0.5" d="M148.4 116.115C148.4 116.115 139.6 116.815 127.3 117.715C121.3 118.215 114.4 118.715 107.3 119.215L104.7 58.2148L144.5 63.5148L147.1 98.7148L148.4 116.115Z" fill="#BD8C53"/>
<path d="M132.9 116.715C131.3 116.815 129.6 116.915 127.9 117.115L124 60.2148L128.9 60.8148C129.5 70.4149 131.8 103.215 132.9 116.715Z" fill="#E6B57B"/>
<path opacity="0.5" d="M148.4 116.114C148.4 116.114 139.6 116.814 127.3 117.714C127.3 117.614 127.4 117.514 127.4 117.514C127.9 116.314 129 115.614 129.9 114.714C132.1 112.714 133.8 110.114 134.6 107.314C134.8 106.814 134.9 106.214 134.7 105.714C134.4 104.814 133.4 104.314 132.4 104.114C131.4 103.914 130.4 103.914 129.5 103.414C128.6 102.914 128.1 101.614 128.8 100.914C129.1 100.614 129.4 100.514 129.8 100.414C131.8 99.714 133.7 98.814 135.5 97.714C137.4 96.514 139.3 94.014 141.8 94.414C143.8 94.714 146.2 96.8141 147 98.6141C147 98.7141 147 98.7141 147.1 98.8141L148.4 116.114Z" fill="#BD8C53"/>
<path d="M133.5 123.216C133.5 123.216 133.5 123.216 133.4 123.116C133.5 123.016 133.6 123.116 133.5 123.216Z" fill="#E6B57B"/>
<path d="M104 110.914C101.3 111.114 90.7997 111.914 89.1997 112.014C89.2997 113.614 89.4997 115.614 89.5997 117.414C92.0997 117.214 102.2 116.614 104.3 116.514L104 110.914Z" fill="#231F20"/>
<path opacity="0.5" d="M157.3 80.4148C154.8 75.7148 147.7 61.9149 146.4 51.8148C144.8 39.5148 151.9 35.2148 151.9 35.2148C151.9 35.2148 152.6 37.1149 152.8 37.1149L158.5 53.5148C157.8 58.5148 156.9 63.5148 156.8 67.2148C156.8 71.5148 156.9 75.9148 157.3 80.4148Z" fill="#FF8DC4"/>
<path d="M135.5 27.7145L131.5 35.7145L125.5 41.8145L124.1 38.1145L122.2 33.8145V31.1145L122.1 30.9145L121.3 22.9145L132.2 18.3145L133.2 21.2145L134.5 25.1145L135.5 27.7145Z" fill="#DB9C94"/>
<path d="M133.2 21.2141C132.2 24.5141 129.5 29.6141 122.2 30.9141L121.4 22.9141L132.3 18.4141L133.2 21.2141Z" fill="#DB9C94"/>
<path d="M125.9 41.3152C125.7 40.6152 125.4 39.6152 124.8 38.2152C123.7 35.8152 124 34.6152 123.3 33.7152C122.6 32.7152 122.2 31.1152 122.2 31.1152C122.2 31.1152 121.2 31.7152 120.2 33.7152C119.2 35.8152 115.7 40.6152 115.7 40.6152C115.7 40.6152 119.6 39.2152 122.1 37.9152L125.4 41.8152C125.6 41.6152 125.7 41.5152 125.9 41.3152Z" fill="#8D1E5E"/>
<path d="M134.2 26.8142C134.2 26.8142 131.7 34.3142 129.5 36.5142C127.3 38.6142 125.2 41.1142 124.1 42.5142C123 44.0142 122.3 49.4142 122.3 49.4142C122.3 49.4142 123.6 44.5142 125.7 42.1142C127.8 39.7142 130.8 38.1142 130.8 38.1142L132.6 37.2142L139.3 41.8142C139.3 41.8142 142.8 32.0142 142.7 29.8142C142.7 29.8142 137.4 26.4142 136.1 25.6142C134.7 24.8142 134.7 25.4142 134.5 25.3142C134.3 25.0142 134.3 26.4142 134.2 26.8142Z" fill="#8D1E5E"/>
<path d="M170.8 85.8141C167.8 88.4141 160.4 94.8141 155.5 98.2141C150.6 101.514 150.3 101.814 150.3 101.814C150.3 101.814 148.3 103.114 146.7 106.514C145 109.914 146.2 114.714 143.7 116.714C141.2 118.714 139.3 118.514 138.2 118.514C138.2 118.514 135.9 119.114 134.6 118.914C134.6 118.914 130.8 120.014 129.8 119.414C128.8 118.814 129.6 116.514 131.6 116.214C133.6 115.914 135 114.714 135.6 113.714C136.2 112.714 136.9 110.214 136.9 110.014C136.8 110.114 135.6 111.714 133.6 113.314C131.6 115.014 129.5 115.814 128.6 115.114C127.7 114.314 129.5 113.014 130.6 111.914C131.6 110.914 134.3 107.114 135 105.414C135.7 103.814 136.5 100.814 136.5 100.714C136.4 100.814 134.6 102.514 132.2 102.614C129.7 102.714 128.7 100.514 129.8 99.6142C130.9 98.8142 132.3 98.4142 134 97.1142C135.7 95.7142 137.7 94.5141 139.9 94.0141C142.1 93.5141 145.2 93.6142 145.2 93.6142C145.2 93.6142 152.5 87.1141 155.3 83.5141C158.1 79.9141 159.1 79.3141 159.1 79.3141C159.1 79.3141 158.5 76.9142 157.6 74.1142C157.2 72.9142 156.8 71.6141 156.3 70.4141C154.7 66.4141 169.5 66.4141 169.5 66.4141L170.5 68.4141C170.5 68.4141 171.2 70.5142 171.7 73.1142C172 74.6142 172.3 76.3141 172.3 77.9141C172.4 81.8141 173.7 83.2141 170.8 85.8141Z" fill="#DB9C94"/>
<path d="M171.5 72.7156C166.2 71.8156 160.2 73.0156 157.4 73.7156C157 72.5156 156.6 71.2156 156.1 70.0156C154.5 66.0156 169.3 66.0156 169.3 66.0156L170.3 68.0156C170.4 68.0156 171 70.0156 171.5 72.7156Z" fill="#DB9C94"/>
<path d="M155.7 73.4167C155.7 73.4167 150 62.0167 148.2 53.0167C146.5 44.0167 148.7 35.2167 154 34.5167C159.3 33.8167 167 43.9167 169.6 58.9167L171.6 69.8167C171.6 69.7167 164.3 69.0167 155.7 73.4167Z" fill="#FF8DC4"/>
<path d="M113.8 11.8158C113.6 11.7158 109.1 10.0158 106.3 13.7158C106.3 13.7158 104.4 16.1158 107.5 17.4158L119.2 15.1158C119.1 15.1158 116.3 12.8158 113.8 11.8158Z" fill="#8D1E5E"/>
<path d="M124.4 27.5154C119.7 28.0154 115.3 24.1154 113.7 18.5154C113.4 17.6154 113.3 16.7154 113.2 15.7154C113.1 14.5154 113.1 13.3154 113.2 12.2154C113.4 10.5154 113.9 8.9154 114.6 7.4154C114.6 7.4154 114.6 7.3154 114.7 7.3154C114.9 6.9154 115.2 6.51539 115.5 6.11539C117.1 3.81539 119.3 2.31539 121.9 2.11539C124.3 1.91539 126.7 2.81539 128.7 4.51539L128.8 4.61539C131.1 6.71539 132.8 10.0154 133.1 13.8154C133.8 20.8154 129.9 27.0154 124.4 27.5154Z" fill="#DB9C94"/>
<path d="M130.8 9.91524C130.4 9.91524 124.3 12.9152 118.6 14.6152C116 15.4152 114.2 15.7152 113.1 15.8152C113 14.6152 113 13.4152 113.1 12.3152C113.3 10.6152 113.8 9.01524 114.5 7.51524C116.6 7.01524 118.5 6.61523 118.6 6.61523C118.8 6.61523 130.3 9.81524 130.8 9.91524Z" fill="#DB9C94"/>
<path d="M121.3 11.2158C121.3 11.3158 121.3 11.5158 121.4 11.6158C121.6 12.0158 122 12.3158 122.4 12.4158C123.2 12.7158 124 12.4158 124.8 12.5158C125.5 12.5158 126.1 13.3158 126.1 14.0158C126.1 14.5158 125.8 15.1158 126 15.6158C126.1 16.1158 126.6 16.4158 127.1 16.3158C127.4 16.3158 127.6 16.1158 127.8 16.1158C128 16.0158 128.3 16.0158 128.5 16.2158C128.7 16.4158 128.7 16.7158 128.7 16.9158C128.7 17.2158 128.7 17.2158 128.6 17.5158C128.5 18.0158 128.5 18.7158 128.8 19.1158C129.6 20.2158 131.2 22.2158 132.7 21.1158C133.3 20.7158 133.5 19.5158 133.7 18.9158C134.2 16.8158 134 14.5158 133.1 12.6158C132.2 10.7158 129.9 10.1158 127.9 10.0158C126.7 9.91579 125.5 10.0158 124.4 10.2158C123.7 10.3158 121.7 10.3158 121.4 10.9158C121.3 11.0158 121.3 11.1158 121.3 11.2158Z" fill="#231F20"/>
<path d="M112.8 11.4155C112.7 11.8155 112.4 12.2155 112.3 12.6155C112.1 13.0155 112 13.4155 112.1 13.8155C112.2 14.2155 112.6 14.6155 113 14.5155C113.3 14.5155 113.6 14.2155 113.9 14.1155C114.4 13.9155 115 14.1155 115.5 14.0155C116 13.9155 116.5 13.6155 116.9 13.3155C117.5 12.9155 118 12.5155 118.6 12.1155C118.8 12.0155 119 11.7155 118.9 11.5155C118.9 11.4155 118.8 11.4155 118.7 11.3155C118.4 11.1155 118 10.9155 117.6 10.8155C117.2 10.8155 116.7 10.9155 116.3 10.8155C116.1 10.8155 115.8 10.6155 115.6 10.5155C114.6 10.3155 113.5 10.8155 112.8 11.4155Z" fill="#231F20"/>
<path d="M125.1 0.915316C125.1 1.41532 124.7 1.91532 124.2 1.91532C123.7 1.91532 123.2 1.51531 123.2 1.01531C123.2 0.515314 123.6 0.0153143 124.1 0.0153143C124.6 -0.0846857 125.1 0.315316 125.1 0.915316Z" fill="#8D1E5E"/>
<path d="M112.7 11.1148C112.7 11.1148 113.4 6.21483 116.6 3.01483C119.8 -0.185168 130.5 -0.385171 133 7.21483C133 7.21483 133.8 10.3148 133.8 13.5148C133.8 13.5148 130.9 11.9148 128.4 11.6148C125.9 11.3148 119.7 11.1148 119.7 11.1148H112.7Z" fill="#FF8DC4"/>
<path d="M128.3 11.6155C128.1 11.7155 120.2 13.4155 117.2 13.2155C114.2 13.0155 110.9 11.0155 108.1 12.4155C108.1 12.4155 107.1 12.9155 106.2 13.8155C106.2 13.8155 107 12.0155 109.9 11.2155C112.7 10.4155 113.5 10.3155 113.5 10.3155C113.5 10.3155 116 9.71549 118.6 10.3155C121.2 10.9155 128.3 11.6155 128.3 11.6155Z" fill="#8D1E5E"/>
<path d="M130.7 13.8141L131.2 12.4141C131.2 12.4141 132.5 12.6141 132.4 14.4141C132.4 16.2141 131.1 18.2141 129.4 18.7141L128.4 18.8141V18.4141L130.7 13.8141Z" fill="#DB9C94"/>
<path d="M128.5 18.5145C128.9 18.5145 129.3 18.4145 129.7 18.3145C131.8 17.4145 133.1 13.7145 131.6 12.6145C131.3 12.4145 131 12.3145 130.7 12.3145C129.5 12.3145 128.7 13.8145 128.7 13.8145L128.5 18.5145Z" fill="#DB9C94"/>
<path d="M60.3002 61.5148C58.6002 70.5148 36.3002 86.0148 25.7002 89.7148C24.4002 90.2148 23.2002 90.5148 22.3002 90.5148C21.2002 90.6148 20.2002 90.5148 19.4002 90.4148C13.9002 89.3148 13.2002 83.3148 13.7002 76.8148C13.7002 76.2148 13.8002 75.5148 13.9002 74.8148C14.2002 72.5148 14.6002 70.1148 15.1002 68.0148C16.1002 63.4148 17.3002 59.8148 17.3002 59.8148L31.3002 60.7148L28.9002 72.2148C35.7002 66.8148 52.1002 56.2148 52.1002 56.2148L60.3002 61.5148Z" fill="#DB9C94"/>
<path d="M25.6998 89.7141C24.3998 90.2141 23.1998 90.5141 22.2998 90.5141C21.1998 90.6141 20.1998 90.5141 19.3998 90.4141C16.5998 86.1141 14.7998 79.5141 13.7998 74.9141C14.0998 72.6141 14.4998 70.2142 14.9998 68.1142C16.6998 66.9142 18.8998 65.4141 19.1998 65.4141C19.4998 65.4141 24.9998 81.5141 25.6998 89.7141Z" fill="#DB9C94"/>
<path d="M27.8 55.2156L21 49.0156C21 49.0156 14.1 56.1156 13.5 69.6156L19.2 72.2156L27.8 55.2156Z" fill="#FAD037"/>
<path d="M27.8 55.2156L21 49.0156C21 49.0156 14.1 56.1156 13.5 69.6156L19.2 72.2156L27.8 55.2156Z" fill="#D3AD33"/>
<path d="M51.3999 267.717C50.7999 268.817 49.6999 269.517 48.4999 270.017C47.2999 270.417 46.0999 270.617 44.7999 270.717C40.9999 271.017 37.0999 271.217 33.2999 270.917C31.6999 270.817 30.1999 270.517 28.6999 269.917C27.2999 269.317 25.8999 268.217 25.2999 266.817C24.5999 265.217 24.3999 262.817 24.4999 261.117C24.5999 260.117 24.7999 259.117 24.9999 258.217C26.5999 249.517 25.0999 239.817 24.9999 231.117C24.8999 222.717 24.3999 214.217 24.8999 205.817C25.0999 202.717 25.2999 199.717 24.9999 196.617C24.7999 195.317 24.5999 193.917 24.2999 192.617C24.0999 191.717 23.8999 190.717 23.6999 189.817C22.0999 182.317 21.5999 174.917 22.5999 167.417C22.6999 167.017 22.6999 166.517 22.7999 166.117C23.3999 162.117 24.2999 158.017 25.9999 154.317C27.0999 152.117 28.4999 150.017 30.5999 148.717C32.2999 147.717 34.3999 147.317 36.2999 147.817C36.7999 147.917 37.1999 148.117 37.5999 148.417C38.1999 148.817 38.6999 149.317 38.9999 149.917C39.2999 150.517 39.5999 151.217 39.7999 152.017C39.7999 152.017 42.2999 155.517 43.7999 165.817C44.4999 170.717 44.9999 177.117 44.8999 185.317C44.7999 189.417 44.7999 193.417 44.5999 197.217C43.9999 217.017 42.5999 232.117 41.1999 240.317C40.9999 244.617 40.6999 250.517 40.3999 254.817C40.2999 256.517 40.1999 258.417 41.3999 259.617C42.0999 260.317 43.0999 260.617 44.0999 260.917C46.2999 261.717 48.4999 262.817 50.3999 264.317C51.0999 264.817 51.7999 265.517 51.8999 266.317C51.7999 266.617 51.5999 267.217 51.3999 267.717Z" fill="#DB9C94"/>
<path d="M84.0002 267.716C83.4002 268.816 82.3002 269.616 81.2002 270.016C80.0002 270.416 78.8002 270.616 77.6002 270.716C73.8002 271.116 69.9002 271.416 66.1002 271.116C64.5002 271.016 62.9002 270.816 61.5002 270.216C60.0002 269.616 58.7002 268.616 58.1002 267.116C57.4002 265.516 57.1002 263.116 57.2002 261.416C57.2002 260.416 57.5002 259.416 57.6002 258.516C58.1002 255.616 57.8002 231.516 56.2002 222.716C55.0002 216.316 52.8002 210.516 50.5002 197.416C49.7002 192.616 48.9002 186.816 48.1002 179.616C47.5002 174.116 47.2002 169.416 47.0002 165.316C46.3002 149.416 48.3002 143.316 48.3002 143.316L69.5002 139.516C69.3002 139.816 70.2002 150.016 71.0002 163.416C71.6002 173.216 72.3002 184.616 72.7002 195.216C72.8002 198.716 72.9002 202.216 72.9002 205.416C73.0002 211.816 73.0002 218.216 73.1002 224.716C73.1002 227.416 73.2002 230.116 73.2002 232.816C73.2002 235.316 73.5002 237.816 73.4002 240.216C73.3002 244.516 73.1002 250.416 72.8002 254.716C72.7002 256.416 72.6002 258.316 73.9002 259.416C74.6002 260.116 75.6002 260.416 76.6002 260.716C78.9002 261.416 81.0002 262.516 82.9002 263.916C83.6002 264.416 84.3002 265.016 84.5002 265.916C84.4002 266.716 84.2002 267.216 84.0002 267.716Z" fill="#DB9C94"/>
<path d="M44.7998 185.115C44.6998 189.215 44.6998 193.215 44.4998 197.015C36.3998 196.115 29.2998 194.115 24.1998 192.415C23.9998 191.515 23.7998 190.515 23.5998 189.615C21.9998 182.115 21.4998 174.715 22.4998 167.215C28.5998 166.815 35.9998 166.215 43.6998 165.615C44.4998 170.515 44.8998 176.915 44.7998 185.115Z" fill="#DB9C94"/>
<path d="M72.4999 195.415C64.7999 197.315 57.2999 197.815 50.3999 197.515C49.5999 192.715 48.7999 186.915 47.9999 179.715C47.3999 174.215 47.0999 169.515 46.8999 165.415C55.0999 164.815 63.5999 164.115 70.8999 163.615C71.4999 173.315 72.1999 184.815 72.4999 195.415Z" fill="#DB9C94"/>
<path d="M50.2998 271.117C45.9998 271.817 31.9998 272.117 27.0998 271.917L22.1998 271.617C22.1998 271.617 22.0998 270.917 22.0998 269.917C21.9998 267.617 21.9998 263.517 23.1998 261.117C23.1998 261.117 29.1998 259.517 31.6998 262.217C34.1998 264.917 35.1998 267.817 37.2998 268.317C38.3998 268.617 39.4998 268.617 40.6998 268.617C41.7998 268.617 42.7998 268.617 43.3998 267.617C43.9998 266.617 43.9998 265.417 43.6998 264.217C43.4998 263.117 43.0998 261.917 43.1998 260.817C43.1998 260.617 43.2998 260.417 43.3998 260.317C43.6998 259.917 44.2998 260.017 44.7998 260.117C45.1998 260.217 45.4998 260.217 45.8998 260.317C46.9998 260.717 48.1998 261.417 49.1998 262.117C49.9998 262.717 50.7998 263.317 51.4998 264.117C52.6998 265.517 53.5998 267.217 53.5998 269.117C53.5998 269.417 53.5998 269.717 53.5998 270.017C53.5998 269.817 54.5998 270.417 50.2998 271.117Z" fill="#FFF688"/>
<path d="M83.2998 271.514C78.9998 272.214 64.9998 272.514 60.0998 272.314L55.1998 272.014C55.1998 272.014 55.0998 271.414 55.0998 270.614C54.9998 268.314 54.8998 264.014 56.1998 261.514C56.1998 261.514 62.1998 259.914 64.6998 262.614C67.1998 265.314 68.1998 268.214 70.2998 268.714C71.7998 269.114 73.2998 269.114 74.7998 269.014C75.3998 269.014 76.0998 269.014 76.4998 268.514C76.9998 267.914 77.2998 267.214 77.2998 266.414C77.2998 265.414 76.9998 264.514 76.5998 263.514C76.2998 262.614 76.0998 261.914 76.1998 260.914C76.1998 260.714 76.1998 260.414 76.3998 260.314C77.5998 260.214 78.7998 260.514 79.7998 261.014C80.6998 261.514 81.6998 262.014 82.5998 262.614C84.3998 263.914 85.8998 265.714 86.4998 267.814C86.5998 268.314 86.6998 268.814 86.6998 269.414C86.6998 269.714 86.6998 270.014 86.6998 270.214C86.5998 270.214 87.5998 270.814 83.2998 271.514Z" fill="#FFF688"/>
<path d="M58.9 59.7137L61.7 60.3138C61.7 60.3138 66.7 58.9138 68.4 58.8138C70.1 58.7138 75.3 57.2138 76.7 56.1138C78.1 55.0138 77.9 54.0137 77.9 54.0137C77.9 54.0137 79.5 52.5137 79.5 52.0137C79.5 51.4137 77.8 51.1138 77.8 51.1138C77.8 51.1138 79.3 51.3137 80.1 50.2137C80.9 49.1137 78.8 48.3138 78.8 48.3138L78.2 47.3138C78.2 47.3138 79.9 47.6137 81 46.2137C82.1 44.7137 78.9 43.5137 77.5 43.5137C76.1 43.5137 70.6 44.5137 66.1 47.2137C61.5 49.9137 57 57.1138 57 57.1138L58.9 59.7137Z" fill="#DB9C94"/>
<path d="M66.1997 56.016C66.1997 56.016 68.1997 31.616 68.2997 31.516C68.2997 31.416 78.3997 31.816 78.3997 31.816L75.5997 56.916L66.1997 56.016Z" fill="#808F61"/>
<path d="M69.1997 32.3145H69.0997L67.1997 54.9145V55.0145H67.2997C73.4997 55.6145 74.4997 55.7145 74.5997 55.6145V55.5145C74.5997 55.2145 76.1997 40.5145 76.9997 32.8145V32.7145L69.1997 32.3145ZM74.6997 52.4145C71.7997 52.9145 71.1997 54.6145 71.0997 55.2145C69.8997 55.1145 68.4997 55.0145 67.3997 54.8145L68.9997 35.6145C69.4997 35.6145 71.3997 35.4145 71.9997 32.8145L76.6997 33.0145C75.5997 43.8145 74.9997 49.4145 74.6997 52.4145Z" fill="#414E2A"/>
<path d="M71.2996 40.8153C69.5996 41.2153 68.4997 42.7153 68.8997 44.2153C69.2997 45.6153 70.8996 46.5153 72.6996 46.1153C74.3996 45.7153 75.4997 44.2153 75.0997 42.7153C74.6997 41.2153 72.9996 40.4153 71.2996 40.8153Z" fill="#414E2A"/>
<path d="M65.5 56.9153C65.5 56.9153 70.2 32.8153 70.3 32.8153C70.3 32.7153 80.3 34.2153 80.3 34.2153L74.7 58.8153L65.5 56.9153Z" fill="#A6B38B"/>
<path d="M71.2002 33.6152H71.1002L66.7002 55.8152V55.9152H66.8002C72.9002 57.2152 73.8002 57.4152 74.0002 57.3152H74.1002V57.2152C74.1002 56.9152 77.3002 42.5152 79.0002 34.9152V34.8152L71.2002 33.6152ZM74.5002 54.2152C71.6002 54.4152 70.8002 56.0152 70.6002 56.5152C69.4002 56.3152 68.1002 56.0152 67.0002 55.7152L70.7002 36.8152C71.2002 36.8152 73.1002 36.8152 74.0002 34.3152L78.7002 35.0152C76.3002 45.8152 75.1002 51.3152 74.5002 54.2152Z" fill="#637248"/>
<path d="M72.4004 42.3164C70.7004 42.5164 69.4004 43.9164 69.6004 45.4164C69.8004 46.9164 71.4004 47.9164 73.1004 47.7164C74.8004 47.5164 76.1004 46.1164 75.9004 44.6164C75.7004 43.1164 74.1004 42.1164 72.4004 42.3164Z" fill="#637248"/>
<path d="M65.5 57.0148C65.5 57.0148 73.4 33.8148 73.4 33.7148L83.2 36.4148L74.4 60.1149L65.5 57.0148Z" fill="#C3CCB0"/>
<path d="M74.1998 34.8145H74.0998L66.7998 56.2144V56.3145H66.8998C72.7998 58.4145 73.6998 58.7144 73.8998 58.7144H73.9998V58.6145C74.0998 58.3145 79.0998 44.4145 81.7998 37.1145V37.0145L74.1998 34.8145ZM74.7998 55.6145C71.8998 55.4145 70.8998 56.9144 70.5998 57.4144C69.3998 57.0144 68.1998 56.5144 67.0998 56.2144L73.2998 37.9144C73.7998 38.0144 75.6998 38.3144 76.8998 35.9144L81.3998 37.2144C77.6998 47.5144 75.7998 52.8145 74.7998 55.6145Z" fill="#7D8C64"/>
<path d="M74.2 43.5137C72.4 43.5137 71 44.7137 71 46.2137C71 47.7137 72.4 48.9137 74.2 48.9137C76 48.9137 77.4 47.7137 77.4 46.2137C77.4 44.8137 76 43.5137 74.2 43.5137Z" fill="#7D8C64"/>
<path d="M60.6001 55.3152C60.6001 55.3152 64.9001 56.4152 67.5001 54.7152C70.0001 53.0152 70.8001 51.5152 70.8001 51.5152C70.8001 51.5152 74.3001 52.0152 76.3001 49.3152L68.8001 49.1152L60.6001 55.3152Z" fill="#DB9C94"/>
<path d="M36.8999 65.9144C36.8999 65.9144 47.0999 60.4144 52.7999 56.5144C58.4999 52.6144 60.4999 49.4144 63.8999 47.8144C67.2999 46.3144 71.8999 47.1144 74.3999 47.2144C76.8999 47.4144 77.8999 47.6145 76.2999 49.1145C74.5999 50.6145 73.0999 50.3144 69.9999 50.2144C69.9999 50.2144 68.6999 52.8144 66.3999 54.3144C64.0999 55.8144 60.3999 56.0144 60.3999 56.0144L61.7999 60.2144L44.6999 75.3144L36.8999 65.9144Z" fill="#DB9C94"/>
<path d="M38.6998 26.9151C36.9998 32.5151 39.1998 38.2151 43.5998 39.5151C47.3998 40.7151 51.5998 38.3151 53.7998 34.0151C54.1998 33.3151 54.3998 32.6151 54.6998 31.8151C54.9998 30.8151 55.1998 29.9151 55.2998 28.9151C55.3998 27.4151 55.2998 26.0151 54.8998 24.7151C54.7998 24.3151 54.6998 23.9151 54.4998 23.6151C53.5998 21.5151 51.9998 19.9151 49.8998 19.3151C47.8998 18.7151 45.8998 19.1151 43.9998 20.1151L43.8998 20.2151C41.4998 21.4151 39.5998 23.8151 38.6998 26.9151Z" fill="#DB9C94"/>
<path d="M83.2 183.216C49.2 202.816 16.2 187.316 16.2 187.316C16.2 187.316 15.2 182.516 17.3 161.516C19.4 140.516 26.5 113.816 27 113.116C27.1 113.016 27 112.516 26.7 111.616C26.6 111.216 26.4 110.816 26.3 110.216C24.6 104.816 20 92.216 16.6 75.616C13 58.016 21.1 48.9161 21.1 48.9161C21.1 48.9161 43.7001 40.416 50.2001 46.516C55.4001 51.316 57.7002 58.216 59.9002 69.016C60.5002 71.816 61 74.8161 61.6 78.2161C63 85.9161 63.7 92.916 64.1 98.116C64.3 100.916 64.4 103.116 64.5 104.716C64.5 105.016 64.5 105.216 64.5 105.516C64.5 106.716 64.5 107.416 64.5 107.416C65.1 108.416 65.7 109.516 66.2 110.516C85.3 146.416 83.2 183.216 83.2 183.216Z" fill="#FAD037"/>
<path d="M64.2 98.1152C62.7 97.4152 61.2 96.3152 60 94.4152C56.9 89.3152 48.6 68.0152 46.8 58.7152C45 49.4152 48.7 46.6152 48.7 46.6152L50.9 48.5152C50.9 48.5152 55.7 59.4152 59.9 69.0152C60.5 71.8152 61 74.8152 61.6 78.2152C63.1 85.9152 63.8 92.9152 64.2 98.1152Z" fill="#D3AD33"/>
<path d="M118.6 79.4157C118.4 79.9157 117.7 80.1157 117.2 80.4157C117.7 80.7157 118.2 81.0157 118.1 81.5157C118.1 81.9157 117.7 82.2157 117.3 82.5157C116.8 82.8157 116.4 83.2157 115.9 83.2157C115.9 83.2157 116.7 84.1157 115.9 84.9157C115.1 85.7157 110.4 87.8157 108 87.6157C105.5 87.5157 100.5 86.6157 100.5 86.6157C100.5 86.6157 81.9999 95.8157 76.9999 98.0157C71.9999 100.216 65.9999 103.316 60.4999 90.2157C57.1999 82.3157 54.7999 75.2157 53.2999 70.9157C52.3999 68.0157 51.8999 66.4157 51.8999 66.4157C51.8999 66.4157 58.5999 58.6157 61.0999 59.5157C63.5999 60.4157 65.3999 64.0157 65.3999 64.0157C65.8999 64.5157 66.4999 65.5157 67.0999 66.9157C69.9999 72.9157 73.7999 85.2157 73.7999 85.2157C83.2999 81.5157 99.2999 77.9157 99.2999 77.9157C99.8999 77.4157 100.2 76.6157 100.5 76.0157C101.2 74.9157 102.1 73.9157 103.1 73.0157C104 72.2157 104.9 71.4157 106 70.9157C106.7 70.6157 107.4 70.4157 108 70.0157C108.7 69.6157 109.1 68.9157 109.8 68.6157C110 68.5157 110.2 68.5157 110.4 68.5157C110.7 68.6157 111 68.9157 111 69.2157C111 69.5157 110.9 69.9157 110.8 70.2157C110.1 71.6157 108.6 72.7157 108 74.2157C108.4 74.2157 108.7 74.2157 109.1 74.2157C109.5 74.2157 110 74.2157 110.4 74.3157C110.7 74.3157 111 74.4157 111.4 74.5157C112.2 74.7157 113.2 75.1157 114.1 75.0157C115 74.9157 115.9 74.6157 116.7 74.9157C116.8 74.9157 116.9 75.0157 117.1 75.1157C117.4 75.4157 117.5 75.8157 117.4 76.2157C117.2 76.6157 116.8 76.9157 116.4 77.1157C116 77.3157 115.6 77.5157 115.3 77.7157C116 77.6157 116.8 77.7157 117.5 78.0157C117.8 78.1157 118.1 78.3157 118.2 78.6157C118.6 78.7157 118.7 79.1157 118.6 79.4157Z" fill="#DB9C94"/>
<path d="M67.3 66.8157C62.2 65.5157 55.7 69.5157 53.4 70.9157C52.5 68.0157 52 66.4157 52 66.4157C52 66.4157 58.7 58.6157 61.2 59.5157C63.7 60.4157 65.5 64.0157 65.5 64.0157C66 64.4157 66.6 65.4157 67.3 66.8157Z" fill="#DB9C94"/>
<path d="M49.3999 45.9158C49.3999 45.9158 55.8999 44.0158 60.3999 50.6158C63.7999 55.5158 66.4999 62.9158 65.9999 64.5158C65.9999 64.5158 65.1999 62.0158 62.5999 63.4158C59.9999 64.8158 52.2999 70.7158 52.2999 70.7158C52.2999 70.7158 49.1999 64.1158 47.5999 56.8158C46.0999 49.5158 47.8999 47.2158 49.3999 45.9158Z" fill="#FAD037"/>
<path d="M66.3002 110.516C58.4002 108.916 46.0002 112.716 40.1002 113.116C33.5002 113.616 27.0002 113.116 27.0002 113.116C27.1002 113.016 27.0002 112.516 26.7002 111.616C27.1002 111.516 27.6002 111.416 28.2002 111.416C32.9002 111.116 42.5002 110.216 54.3002 107.416C59.3002 106.216 62.6002 105.716 64.6002 105.516C64.6002 106.716 64.6002 107.416 64.6002 107.416C65.2002 108.416 65.8002 109.416 66.3002 110.516Z" fill="#D3AD33"/>
<path d="M64.5998 107.316C57.6998 107.416 51.1998 109.616 43.2998 111.316C35.3998 113.016 26.9998 113.016 26.9998 113.016C27.0998 112.816 26.7998 111.816 26.2998 110.116C32.2998 109.816 39.5998 109.216 50.1998 106.716C58.3998 104.816 62.6998 104.516 64.5998 104.516C64.5998 106.416 64.5998 107.316 64.5998 107.316Z" fill="#FFF688"/>
<path d="M56.7 22.2155C56.6 23.2155 55.9 23.5155 55 23.7155C52.4 24.3155 52.8 28.0155 52.8 30.0155C52.8 34.8155 51.4 39.7155 48.6 43.7155C48.2 44.3155 47.8 44.9155 47.2 45.3155C46.1 46.1155 44.7 46.3155 43.6 47.1155C41.9 48.4155 41.6 50.9155 40.1 52.5155C39.6 53.1155 38.9 53.5155 38.3 53.9155C37.6 54.5155 36.9 55.1155 36.2 55.6155C33.8 57.4155 30.6 57.6155 27.6 57.8155C25.1 58.0155 22.5 58.1155 20.4 56.8155C19.9 56.5155 19.4 56.0155 19.2 55.5155C19 55.0155 19 54.5155 19 54.0155C19.1 47.3155 24.4 41.7155 26 35.2155C26.7 32.5155 26.7 29.8155 27 27.1155C27.5 22.7155 28.6 18.2155 31.3 14.6155C34 11.1155 38.5 8.61546 42.9 9.41546C44.1 9.61546 45.3 10.0155 46.5 10.5155C47.7 10.9155 48.8 11.4155 49.8 12.1155C50.7 12.8155 51.4 13.7155 52.1 14.6155C53.5 16.4155 54.9 18.2155 56 20.2155C56.3 20.7155 56.7 21.4155 56.7 22.2155Z" fill="#231F20"/>
<path d="M50.3001 271.116C46.0001 271.816 32.0001 272.116 27.1001 271.916L22.2001 271.616C22.2001 271.616 22.1001 270.916 22.1001 269.916C25.6001 270.116 38.3001 270.516 43.0001 270.316C47.4001 270.116 52.0001 269.316 53.6001 269.016C53.6001 269.316 53.6001 269.616 53.6001 269.916C53.6001 269.816 54.6001 270.416 50.3001 271.116Z" fill="#FAD037"/>
<path d="M83.3001 271.516C79.0001 272.216 65.0001 272.516 60.1001 272.316L55.2001 272.016C55.2001 272.016 55.1001 271.416 55.1001 270.616C57.8001 270.716 72.2001 271.416 79.1001 270.616C83.0001 270.116 85.4001 269.716 86.7001 269.516C86.7001 269.816 86.7001 270.116 86.7001 270.316C86.6001 270.216 87.6001 270.816 83.3001 271.516Z" fill="#FAD037"/>
<path d="M247.2 158.314H175.6V213.614H247.2V158.314Z" fill="#E6B57B"/>
<path opacity="0.5" d="M247.2 158.314H175.6V213.614H247.2V158.314Z" fill="#BD8C53"/>
<path d="M215.2 158.314H207.7V213.614H215.2V158.314Z" fill="#E6B57B"/>
<path d="M257.5 216.314H185.9V271.614H257.5V216.314Z" fill="#E6B57B"/>
<path d="M225.7 216.314H217.8V271.614H225.7V216.314Z" fill="#EFCEAB"/>
<path d="M199.8 261.217H191.9V267.217H199.8V261.217Z" fill="#231F20"/>
</g>
<defs>
<clipPath id="clip0">
<rect width="295" height="273" fill="white"/>
</clipPath>
</defs>
</svg>
