<svg width="500" height="500" viewBox="0 0 500 500" fill="none" xmlns="http://www.w3.org/2000/svg">
<circle cx="250" cy="250" r="250" fill="white"/>
<path d="M57.9993 188.763L70.9534 223.281C71.7631 221.483 72.7301 219.191 73.8546 216.404C74.9791 213.573 76.1486 210.606 77.3631 207.505C77.453 207.236 77.5429 206.988 77.6329 206.764C77.7678 206.494 77.8802 206.224 77.9702 205.955C79.6344 201.64 81.1862 197.573 82.6256 193.752C84.0649 189.887 84.987 187.28 85.3919 185.932C85.5717 185.437 85.7067 184.966 85.7967 184.516C85.9316 184.067 85.9991 183.685 85.9991 183.37C85.9991 183.28 85.9991 183.213 85.9991 183.168C85.9991 183.078 85.9766 182.988 85.9317 182.898C85.8867 182.673 85.7967 182.471 85.6618 182.291C85.5268 182.112 85.3469 181.954 85.122 181.819C84.9421 181.775 84.7621 181.73 84.5822 181.685C84.4023 181.64 84.1999 181.617 83.975 181.617C83.7501 181.572 83.5027 181.55 83.2329 181.55C83.0079 181.55 82.783 181.55 82.5582 181.55C82.3782 181.55 82.1983 181.527 82.0185 181.482C81.8835 181.438 81.816 181.325 81.816 181.145C81.816 180.921 81.9284 180.786 82.1533 180.741C82.3782 180.651 82.7605 180.606 83.3003 180.606C83.5252 180.606 83.7276 180.606 83.9076 180.606C84.1324 180.606 84.3349 180.606 84.5148 180.606C85.0096 180.606 85.4818 180.628 85.9317 180.673C86.4264 180.673 86.8762 180.673 87.281 180.673C87.9107 180.718 88.4505 180.763 88.9003 180.808C89.395 180.808 89.7324 180.808 89.9123 180.808C90.0022 180.808 90.2271 180.808 90.587 180.808C90.9918 180.763 91.4416 180.718 91.9365 180.673C92.1613 180.673 92.3862 180.673 92.6111 180.673C92.881 180.673 93.1508 180.673 93.4208 180.673C93.7356 180.628 94.0279 180.606 94.2978 180.606C94.6126 180.606 94.9051 180.606 95.175 180.606C95.5348 180.606 95.8046 180.651 95.9846 180.741C96.2095 180.786 96.3219 180.898 96.322 181.078C96.3219 181.258 96.2544 181.393 96.1196 181.482C95.9846 181.527 95.7821 181.55 95.5123 181.55C95.3323 181.55 94.995 181.572 94.5003 181.617C94.0055 181.662 93.4882 181.797 92.9485 182.022C92.8135 182.067 92.6786 182.112 92.5437 182.157C92.4537 182.202 92.3637 182.269 92.2738 182.359C91.8239 182.673 91.3067 183.235 90.722 184.044C90.1822 184.853 89.4625 186.404 88.563 188.696C88.2031 189.64 87.281 191.887 85.7967 195.438C84.3124 198.988 82.7155 202.831 81.0064 206.966C78.9373 211.865 77.1606 216.09 75.6763 219.64C74.1919 223.146 73.0674 225.73 72.3028 227.393C71.5381 229.011 70.9983 230.18 70.6835 230.899C70.3686 231.618 70.0988 232.09 69.8739 232.315C69.7839 232.36 69.7165 232.382 69.6715 232.382C69.6265 232.427 69.5591 232.45 69.4691 232.45C69.3342 232.45 69.1992 232.404 69.0643 232.315C68.9743 232.27 68.8844 232.202 68.7944 232.112C68.5695 231.843 68.3221 231.416 68.0522 230.832C67.8273 230.247 67.4899 229.416 67.0401 228.337L50.5102 186.943C50.3302 186.494 50.1503 186.089 49.9704 185.73C49.7905 185.325 49.6105 184.966 49.4306 184.651C48.9358 183.752 48.3961 183.123 47.8113 182.763C47.2266 182.404 46.507 182.089 45.6524 181.819C45.5624 181.82 45.4724 181.82 45.3824 181.819C45.3375 181.775 45.27 181.73 45.1801 181.685C44.7303 181.64 44.3255 181.617 43.9657 181.617C43.6058 181.572 43.3359 181.55 43.156 181.55C42.9311 181.55 42.7962 181.505 42.7512 181.415C42.6612 181.325 42.6162 181.213 42.6162 181.078C42.6162 180.853 42.7736 180.718 43.0885 180.673C43.4034 180.628 43.8082 180.606 44.303 180.606C44.5729 180.606 44.8427 180.606 45.1126 180.606C45.3825 180.606 45.6748 180.606 45.9897 180.606C46.5294 180.606 47.0692 180.628 47.609 180.673C48.1487 180.673 48.666 180.673 49.1608 180.673C49.8804 180.718 50.5101 180.763 51.0499 180.808C51.6346 180.808 52.017 180.808 52.1969 180.808C52.3768 180.808 52.6692 180.808 53.074 180.808C53.5238 180.763 54.0411 180.718 54.6258 180.673C55.0307 180.673 55.4354 180.673 55.8402 180.673C56.29 180.628 56.7398 180.606 57.1896 180.606C57.4145 180.606 57.6169 180.606 57.7968 180.606C58.0217 180.606 58.2467 180.606 58.4716 180.606C59.1013 180.606 59.5511 180.651 59.821 180.741C60.1358 180.786 60.2933 180.898 60.2933 181.078C60.2933 181.258 60.2258 181.393 60.0909 181.482C60.0009 181.527 59.8435 181.55 59.6186 181.55C59.4387 181.55 59.2362 181.55 59.0113 181.55C58.8314 181.55 58.6515 181.572 58.4716 181.617C58.2017 181.617 57.9318 181.64 57.6619 181.685C57.437 181.73 57.2346 181.797 57.0547 181.887C56.7848 182.022 56.5824 182.179 56.4475 182.359C56.3125 182.539 56.2225 182.718 56.1776 182.898C56.1776 182.943 56.1776 183.011 56.1776 183.1C56.1776 183.145 56.1776 183.19 56.1776 183.235C56.1776 183.685 56.3576 184.404 56.7174 185.393C57.0772 186.381 57.5045 187.527 57.9993 188.831V188.763ZM111.416 200.089V211.955C111.416 215.236 111.416 218.157 111.416 220.719C111.461 223.236 111.574 225.213 111.754 226.652C111.844 227.64 112.046 228.472 112.361 229.146C112.721 229.82 113.395 230.225 114.385 230.36C114.565 230.404 114.745 230.449 114.925 230.494C115.15 230.494 115.374 230.494 115.599 230.494C115.959 230.539 116.297 230.584 116.611 230.629C116.971 230.629 117.241 230.629 117.421 230.629C117.646 230.629 117.781 230.674 117.826 230.764C117.916 230.854 117.961 230.944 117.961 231.034C117.961 231.213 117.871 231.326 117.691 231.371C117.511 231.461 117.241 231.506 116.881 231.506C116.656 231.506 116.431 231.506 116.207 231.506C115.982 231.506 115.757 231.506 115.532 231.506C114.812 231.506 114.093 231.483 113.373 231.438C112.698 231.438 112.068 231.438 111.484 231.438C110.674 231.393 109.999 231.348 109.46 231.303C108.965 231.303 108.672 231.303 108.583 231.303C108.493 231.303 108.178 231.303 107.638 231.303C107.143 231.348 106.558 231.393 105.884 231.438C105.704 231.438 105.524 231.438 105.344 231.438C105.164 231.438 104.962 231.438 104.737 231.438C104.242 231.438 103.747 231.438 103.252 231.438C102.758 231.483 102.33 231.506 101.97 231.506C101.611 231.506 101.341 231.461 101.161 231.371C100.981 231.326 100.891 231.213 100.891 231.034C100.891 230.944 100.936 230.854 101.026 230.764C101.116 230.674 101.251 230.629 101.431 230.629C101.566 230.629 101.723 230.629 101.903 230.629C102.083 230.584 102.263 230.562 102.443 230.562C102.623 230.517 102.803 230.494 102.983 230.494C103.162 230.449 103.32 230.404 103.455 230.36C104.13 230.225 104.579 229.82 104.804 229.146C105.074 228.472 105.277 227.64 105.411 226.652C105.591 225.213 105.681 223.236 105.681 220.719C105.726 218.157 105.749 215.258 105.749 212.022V200.089C105.749 195.056 105.749 191.685 105.749 189.977C105.749 188.224 105.704 186.831 105.614 185.797C105.614 185.752 105.614 185.73 105.614 185.73C105.614 185.685 105.614 185.64 105.614 185.595C105.569 184.426 105.366 183.55 105.007 182.965C104.647 182.381 104.085 181.999 103.32 181.819C103.23 181.775 103.14 181.752 103.05 181.752C102.96 181.707 102.87 181.685 102.78 181.685C102.465 181.64 102.173 181.617 101.903 181.617C101.633 181.572 101.408 181.55 101.228 181.55C101.093 181.55 100.958 181.527 100.824 181.482C100.734 181.393 100.689 181.28 100.689 181.145C100.689 180.921 100.779 180.786 100.958 180.741C101.138 180.651 101.408 180.606 101.768 180.606C102.128 180.606 102.555 180.606 103.05 180.606C103.545 180.606 104.04 180.628 104.534 180.673C104.759 180.673 104.984 180.673 105.209 180.673C105.434 180.673 105.659 180.673 105.884 180.673C106.558 180.718 107.143 180.763 107.638 180.808C108.178 180.808 108.493 180.808 108.583 180.808C108.672 180.808 108.965 180.808 109.46 180.808C109.999 180.763 110.607 180.718 111.281 180.673C111.461 180.673 111.641 180.673 111.821 180.673C112.001 180.673 112.203 180.673 112.428 180.673C112.923 180.673 113.418 180.673 113.913 180.673C114.407 180.628 114.835 180.606 115.195 180.606C115.554 180.606 115.824 180.651 116.004 180.741C116.184 180.786 116.274 180.921 116.274 181.145C116.274 181.28 116.207 181.393 116.072 181.482C115.982 181.527 115.869 181.55 115.734 181.55C115.689 181.55 115.644 181.55 115.599 181.55C115.599 181.55 115.577 181.55 115.532 181.55C115.352 181.55 115.15 181.572 114.925 181.617C114.7 181.662 114.407 181.707 114.048 181.752C113.148 181.932 112.518 182.336 112.158 182.965C111.844 183.55 111.641 184.426 111.551 185.595C111.551 185.64 111.551 185.685 111.551 185.73C111.551 185.73 111.551 185.752 111.551 185.797C111.461 186.831 111.416 188.224 111.416 189.977C111.416 191.685 111.416 195.078 111.416 200.157V200.089ZM156.443 232.45C151.405 232.45 147.087 231.843 143.489 230.629C139.935 229.416 136.832 227.618 134.178 225.236C132.244 223.528 130.714 221.685 129.59 219.708C128.465 217.685 127.633 215.663 127.094 213.64C126.689 212.202 126.396 210.786 126.216 209.393C126.081 207.955 126.014 206.584 126.014 205.28C126.014 203.842 126.194 202.112 126.554 200.089C126.959 198.067 127.678 195.977 128.713 193.82C129.253 192.606 129.927 191.415 130.737 190.247C131.546 189.078 132.491 187.954 133.571 186.876C135.595 184.853 138.226 183.145 141.465 181.752C144.748 180.359 148.976 179.662 154.149 179.662C155.093 179.662 156.128 179.685 157.252 179.729C158.422 179.775 159.614 179.864 160.828 179.999C161.368 180.089 161.885 180.179 162.38 180.269C162.92 180.314 163.437 180.381 163.932 180.471C165.236 180.696 166.428 180.898 167.508 181.078C168.632 181.258 169.734 181.393 170.814 181.482C171.174 181.527 171.398 181.617 171.488 181.752C171.623 181.842 171.691 181.999 171.691 182.224C171.691 182.404 171.668 182.673 171.623 183.033C171.578 183.348 171.533 183.82 171.488 184.449C171.443 184.674 171.398 184.921 171.354 185.19C171.353 185.415 171.353 185.685 171.354 185.999C171.308 186.404 171.286 186.853 171.286 187.348C171.286 187.797 171.263 188.269 171.219 188.763C171.219 189.168 171.219 189.595 171.219 190.044C171.219 190.449 171.219 190.831 171.219 191.19C171.219 191.595 171.196 191.954 171.151 192.269C171.151 192.539 171.151 192.763 171.151 192.943C171.106 193.438 171.039 193.797 170.949 194.022C170.904 194.247 170.769 194.359 170.544 194.359C170.319 194.359 170.161 194.247 170.072 194.022C170.027 193.752 170.004 193.393 170.004 192.943C170.004 192.808 170.004 192.696 170.004 192.606C170.004 192.471 170.004 192.337 170.004 192.202C169.914 190.988 169.622 189.842 169.127 188.763C168.632 187.64 167.98 186.741 167.17 186.067C166.001 185.033 164.202 184.134 161.773 183.37C159.344 182.606 156.645 182.224 153.677 182.224C149.718 182.224 146.592 182.651 144.298 183.505C142.049 184.359 140.295 185.303 139.036 186.336C138.856 186.471 138.698 186.606 138.563 186.741C138.428 186.876 138.293 187.011 138.158 187.145C135.685 189.482 134.043 192.134 133.233 195.101C132.469 198.067 132.086 201.281 132.086 204.741C132.086 211.168 134.335 216.899 138.833 221.932C143.376 226.921 149.246 229.416 156.443 229.416C158.962 229.416 161.211 229.213 163.19 228.809C165.169 228.359 166.833 227.438 168.182 226.045C168.497 225.685 168.79 225.281 169.06 224.831C169.329 224.382 169.577 223.91 169.802 223.416C170.027 222.786 170.207 222.202 170.341 221.663C170.521 221.123 170.634 220.696 170.679 220.382C170.769 220.022 170.859 219.775 170.949 219.64C171.039 219.461 171.174 219.371 171.354 219.371C171.533 219.371 171.646 219.483 171.691 219.708C171.781 219.887 171.826 220.112 171.826 220.382C171.826 220.517 171.758 221.078 171.623 222.067C171.488 223.011 171.331 224.045 171.151 225.168C171.061 225.618 170.971 226.09 170.881 226.584C170.791 227.034 170.701 227.461 170.611 227.865C170.566 228.09 170.521 228.292 170.476 228.472C170.431 228.652 170.386 228.831 170.341 229.011C170.296 229.146 170.251 229.281 170.207 229.416C170.206 229.506 170.184 229.596 170.139 229.685C170.049 229.91 169.937 230.09 169.802 230.225C169.712 230.36 169.554 230.494 169.329 230.629C169.239 230.674 169.127 230.719 168.992 230.764C168.902 230.809 168.767 230.876 168.587 230.966C167.598 231.326 166.293 231.618 164.674 231.843C163.1 232.112 161.48 232.292 159.816 232.382C159.231 232.382 158.647 232.382 158.062 232.382C157.522 232.427 156.983 232.45 156.443 232.45ZM201.334 183.438V211.955C201.334 215.236 201.334 218.157 201.334 220.719C201.379 223.236 201.492 225.213 201.672 226.652C201.762 227.64 201.964 228.472 202.279 229.146C202.639 229.82 203.313 230.225 204.303 230.36C204.483 230.404 204.663 230.449 204.843 230.494C205.068 230.494 205.293 230.494 205.517 230.494C205.877 230.539 206.215 230.584 206.529 230.629C206.889 230.629 207.159 230.629 207.339 230.629C207.564 230.629 207.699 230.674 207.744 230.764C207.834 230.854 207.879 230.944 207.879 231.034C207.879 231.213 207.789 231.326 207.609 231.371C207.429 231.461 207.159 231.506 206.799 231.506C206.574 231.506 206.35 231.506 206.125 231.506C205.9 231.506 205.675 231.506 205.45 231.506C204.73 231.506 204.011 231.483 203.291 231.438C202.616 231.438 201.986 231.438 201.402 231.438C200.592 231.393 199.917 231.348 199.378 231.303C198.883 231.303 198.591 231.303 198.501 231.303C198.411 231.303 198.096 231.303 197.556 231.303C197.061 231.348 196.476 231.393 195.802 231.438C195.622 231.438 195.442 231.438 195.262 231.438C195.082 231.438 194.88 231.438 194.655 231.438C194.16 231.438 193.665 231.438 193.171 231.438C192.676 231.483 192.248 231.506 191.889 231.506C191.529 231.506 191.259 231.461 191.079 231.371C190.899 231.326 190.809 231.213 190.809 231.034C190.809 230.944 190.854 230.854 190.944 230.764C191.034 230.674 191.169 230.629 191.349 230.629C191.484 230.629 191.641 230.629 191.821 230.629C192.001 230.584 192.181 230.562 192.361 230.562C192.541 230.517 192.721 230.494 192.901 230.494C193.081 230.449 193.238 230.404 193.373 230.36C194.048 230.225 194.497 229.82 194.722 229.146C194.992 228.472 195.195 227.64 195.33 226.652C195.509 225.213 195.599 223.236 195.599 220.719C195.644 218.157 195.667 215.258 195.667 212.022V183.438L185.681 183.572C183.612 183.662 182.083 183.864 181.093 184.179C180.104 184.449 179.339 184.988 178.8 185.797C178.44 186.381 178.17 186.831 177.99 187.145C177.855 187.415 177.742 187.662 177.653 187.887C177.563 188.157 177.45 188.336 177.315 188.426C177.225 188.516 177.113 188.561 176.978 188.561C176.888 188.561 176.798 188.516 176.708 188.426C176.663 188.291 176.641 188.134 176.641 187.954C176.641 187.775 176.708 187.348 176.843 186.674C176.978 185.999 177.135 185.258 177.315 184.449C177.315 184.404 177.315 184.359 177.315 184.314C177.36 184.269 177.383 184.224 177.383 184.179C177.563 183.415 177.72 182.718 177.855 182.089C177.99 181.46 178.08 181.078 178.125 180.943C178.17 180.853 178.192 180.763 178.192 180.673C178.237 180.583 178.282 180.494 178.327 180.404C178.372 180.224 178.44 180.067 178.53 179.932C178.62 179.752 178.71 179.662 178.8 179.662C178.934 179.662 179.092 179.707 179.272 179.797C179.452 179.887 179.677 179.977 179.946 180.067C180.171 180.157 180.419 180.246 180.689 180.336C181.004 180.381 181.363 180.426 181.768 180.471C182.038 180.516 182.308 180.561 182.578 180.606C182.848 180.606 183.118 180.606 183.387 180.606C184.152 180.651 184.872 180.696 185.546 180.741C186.266 180.786 186.783 180.808 187.098 180.808L212.399 180.741C213.479 180.786 214.401 180.786 215.166 180.741C215.975 180.651 216.65 180.561 217.19 180.471C217.684 180.381 218.089 180.314 218.404 180.269C218.719 180.179 218.944 180.134 219.079 180.134C219.259 180.134 219.349 180.224 219.349 180.404C219.394 180.539 219.416 180.718 219.416 180.943C219.416 181.348 219.394 181.842 219.349 182.426C219.349 183.011 219.349 183.617 219.349 184.246C219.349 184.381 219.349 184.539 219.349 184.718C219.349 184.853 219.349 184.988 219.349 185.123C219.304 185.887 219.259 186.584 219.214 187.213C219.214 187.797 219.214 188.179 219.214 188.359C219.214 188.674 219.169 188.898 219.079 189.033C218.989 189.168 218.876 189.235 218.741 189.235C218.562 189.235 218.427 189.168 218.337 189.033C218.292 188.853 218.247 188.539 218.202 188.089L218.134 187.28C217.999 186.292 217.392 185.46 216.313 184.786C215.233 184.067 213.074 183.685 209.835 183.64L201.334 183.438ZM223.305 205.955C223.305 204.741 223.395 203.483 223.575 202.179C223.8 200.831 224.137 199.483 224.587 198.134C226.026 193.505 228.793 189.28 232.886 185.46C237.024 181.595 242.691 179.662 249.888 179.662C257.49 179.662 263.809 181.909 268.847 186.404C273.885 190.898 276.404 197.078 276.404 204.943C276.404 212.494 273.952 218.966 269.05 224.359C264.147 229.753 257.625 232.45 249.483 232.45C241.477 232.45 235.405 230.225 231.267 225.775C227.173 221.281 224.655 216.359 223.71 211.011C223.575 210.157 223.463 209.325 223.373 208.516C223.328 207.663 223.305 206.831 223.305 206.022V205.955ZM229.715 204.067C229.715 211.977 231.784 218.269 235.922 222.944C240.105 227.618 245.233 229.955 251.305 229.955C252.34 229.955 253.532 229.843 254.881 229.618C256.23 229.348 257.602 228.899 258.997 228.27C261.74 226.966 264.237 224.696 266.486 221.46C268.78 218.18 269.927 213.303 269.927 206.831C269.927 198.741 267.835 192.584 263.652 188.359C259.514 184.089 254.768 181.954 249.416 181.954C243.793 181.954 239.093 183.819 235.315 187.55C231.581 191.235 229.715 196.764 229.715 204.134V204.067ZM290.053 211.955V200.089C290.053 195.056 290.053 191.685 290.053 189.977C290.053 188.224 290.008 186.831 289.918 185.797C289.918 185.752 289.918 185.73 289.918 185.73C289.918 185.685 289.918 185.64 289.918 185.595C289.873 184.426 289.648 183.55 289.243 182.965C288.883 182.381 288.141 181.977 287.017 181.752C286.882 181.707 286.702 181.685 286.477 181.685C286.252 181.64 286.027 181.617 285.802 181.617C285.622 181.572 285.42 181.55 285.195 181.55C285.015 181.55 284.858 181.55 284.723 181.55C284.588 181.55 284.453 181.527 284.318 181.482C284.228 181.393 284.183 181.28 284.183 181.145C284.183 180.921 284.273 180.786 284.453 180.741C284.633 180.651 284.903 180.606 285.262 180.606C285.622 180.606 285.982 180.606 286.342 180.606C286.747 180.606 287.152 180.606 287.556 180.606C288.006 180.651 288.433 180.673 288.838 180.673C289.288 180.673 289.715 180.673 290.12 180.673C290.84 180.718 291.447 180.763 291.942 180.808C292.482 180.808 292.796 180.808 292.886 180.808C293.066 180.808 293.471 180.808 294.101 180.808C294.776 180.763 295.54 180.718 296.395 180.673C296.53 180.673 296.665 180.673 296.8 180.673C296.98 180.673 297.137 180.673 297.272 180.673C297.947 180.673 298.599 180.673 299.229 180.673C299.858 180.628 300.398 180.606 300.848 180.606C301.343 180.606 301.815 180.628 302.265 180.673C302.759 180.673 303.232 180.673 303.682 180.673C305.391 180.763 307.055 181.033 308.674 181.482C310.293 181.887 311.8 182.584 313.195 183.572C313.465 183.752 313.734 183.977 314.004 184.246C314.319 184.516 314.634 184.831 314.949 185.19C315.669 186.044 316.321 187.123 316.906 188.426C317.535 189.685 317.85 191.123 317.85 192.741C317.85 195.213 317.243 197.73 316.028 200.292C314.859 202.854 312.745 205.528 309.686 208.314C312.475 211.865 315.016 215.101 317.31 218.022C319.649 220.944 321.786 223.461 323.72 225.573C325.564 227.506 327.183 228.764 328.578 229.348C329.972 229.933 331.097 230.292 331.951 230.427C332.581 230.517 333.121 230.584 333.57 230.629C334.065 230.629 334.403 230.629 334.583 230.629C334.762 230.629 334.897 230.674 334.987 230.764C335.122 230.854 335.19 230.944 335.19 231.034C335.19 231.213 335.077 231.326 334.852 231.371C334.628 231.461 334.2 231.506 333.57 231.506H328.78C326.936 231.506 325.497 231.438 324.462 231.303C323.473 231.124 322.55 230.809 321.696 230.36C321.696 230.36 321.673 230.36 321.628 230.36C321.628 230.315 321.606 230.292 321.561 230.292C321.156 230.067 320.774 229.82 320.414 229.551C320.054 229.281 319.694 228.989 319.334 228.674C318.3 227.775 317.243 226.629 316.163 225.236C315.084 223.843 313.847 222.225 312.453 220.382C312.228 220.112 312.003 219.82 311.778 219.505C311.553 219.191 311.328 218.899 311.103 218.629C311.013 218.494 310.901 218.359 310.766 218.224C310.676 218.045 310.586 217.887 310.496 217.753C309.371 216.269 308.314 214.854 307.325 213.505C306.38 212.112 305.638 211.078 305.098 210.404C305.053 210.359 305.008 210.337 304.963 210.337C304.963 210.292 304.941 210.247 304.896 210.202C304.806 210.157 304.694 210.112 304.559 210.067C304.469 210.022 304.356 210 304.221 210L295.923 209.797C295.743 209.842 295.608 209.91 295.518 210C295.473 210.09 295.45 210.224 295.45 210.404V211.955C295.45 215.236 295.45 218.157 295.45 220.719C295.495 223.236 295.608 225.213 295.788 226.652C295.878 227.64 296.08 228.472 296.395 229.146C296.755 229.82 297.429 230.225 298.419 230.36C298.599 230.404 298.779 230.449 298.959 230.494C299.184 230.494 299.408 230.494 299.633 230.494C299.993 230.539 300.33 230.584 300.645 230.629C301.005 230.629 301.275 230.629 301.455 230.629C301.68 230.629 301.815 230.674 301.86 230.764C301.95 230.854 301.995 230.944 301.995 231.034C301.995 231.213 301.905 231.326 301.725 231.371C301.545 231.461 301.275 231.506 300.915 231.506C300.69 231.506 300.465 231.506 300.241 231.506C300.016 231.506 299.791 231.506 299.566 231.506C298.846 231.506 298.126 231.483 297.407 231.438C296.732 231.438 296.102 231.438 295.518 231.438C294.708 231.393 294.033 231.348 293.494 231.303C292.999 231.303 292.706 231.303 292.617 231.303C292.617 231.303 292.369 231.303 291.874 231.303C291.425 231.348 290.862 231.393 290.188 231.438C289.963 231.438 289.738 231.438 289.513 231.438C289.333 231.438 289.131 231.438 288.906 231.438C288.411 231.483 287.939 231.506 287.489 231.506C287.039 231.506 286.634 231.506 286.274 231.506C285.915 231.506 285.645 231.461 285.465 231.371C285.285 231.326 285.195 231.213 285.195 231.034C285.195 230.944 285.24 230.854 285.33 230.764C285.42 230.674 285.555 230.629 285.735 230.629C285.87 230.629 286.027 230.629 286.207 230.629C286.387 230.584 286.567 230.562 286.747 230.562C286.927 230.517 287.107 230.494 287.286 230.494C287.466 230.449 287.624 230.404 287.759 230.36C288.433 230.225 288.883 229.82 289.108 229.146C289.378 228.472 289.58 227.64 289.715 226.652C289.895 225.213 289.985 223.236 289.985 220.719C290.03 218.157 290.053 215.258 290.053 212.022V211.955ZM295.45 183.909V205.955C295.45 206.179 295.473 206.359 295.518 206.494C295.608 206.629 295.743 206.741 295.923 206.831C296.417 207.101 297.272 207.348 298.486 207.573C299.746 207.752 301.073 207.865 302.467 207.91C302.557 207.91 302.647 207.91 302.737 207.91C302.827 207.91 302.917 207.91 303.007 207.91C303.367 207.91 303.727 207.91 304.086 207.91C304.491 207.865 304.896 207.797 305.301 207.708C305.751 207.618 306.2 207.505 306.65 207.37C307.145 207.191 307.617 206.944 308.067 206.629C309.237 205.82 310.204 204.539 310.968 202.786C311.778 200.988 312.183 198.808 312.183 196.247C312.183 192.022 311.126 188.719 309.012 186.336C306.943 183.954 304.109 182.763 300.51 182.763C299.521 182.763 298.599 182.808 297.744 182.898C296.935 182.988 296.35 183.078 295.99 183.168C295.81 183.213 295.675 183.303 295.585 183.438C295.495 183.572 295.45 183.752 295.45 183.977V183.909ZM345.947 200.089V211.955C345.947 215.236 345.947 218.157 345.947 220.719C345.992 223.236 346.104 225.213 346.284 226.652C346.374 227.64 346.577 228.472 346.892 229.146C347.251 229.82 347.926 230.225 348.916 230.36C349.096 230.404 349.276 230.449 349.455 230.494C349.68 230.494 349.905 230.494 350.13 230.494C350.49 230.539 350.827 230.584 351.142 230.629C351.502 230.629 351.772 230.629 351.952 230.629C352.177 230.629 352.312 230.674 352.357 230.764C352.447 230.854 352.492 230.944 352.492 231.034C352.492 231.213 352.402 231.326 352.222 231.371C352.042 231.461 351.772 231.506 351.412 231.506C351.187 231.506 350.962 231.506 350.737 231.506C350.513 231.506 350.288 231.506 350.063 231.506C349.343 231.506 348.623 231.483 347.904 231.438C347.229 231.438 346.599 231.438 346.015 231.438C345.205 231.393 344.53 231.348 343.99 231.303C343.496 231.303 343.203 231.303 343.113 231.303C343.023 231.303 342.708 231.303 342.169 231.303C341.674 231.348 341.089 231.393 340.415 231.438C340.235 231.438 340.055 231.438 339.875 231.438C339.695 231.438 339.492 231.438 339.268 231.438C338.773 231.438 338.278 231.438 337.783 231.438C337.288 231.483 336.861 231.506 336.501 231.506C336.141 231.506 335.872 231.461 335.692 231.371C335.512 231.326 335.422 231.213 335.422 231.034C335.422 230.944 335.467 230.854 335.557 230.764C335.647 230.674 335.782 230.629 335.962 230.629C336.097 230.629 336.254 230.629 336.434 230.629C336.614 230.584 336.794 230.562 336.974 230.562C337.154 230.517 337.333 230.494 337.513 230.494C337.693 230.449 337.851 230.404 337.986 230.36C338.66 230.225 339.11 229.82 339.335 229.146C339.605 228.472 339.807 227.64 339.942 226.652C340.122 225.213 340.212 223.236 340.212 220.719C340.257 218.157 340.28 215.258 340.28 212.022V200.089C340.28 195.056 340.28 191.685 340.28 189.977C340.28 188.224 340.235 186.831 340.145 185.797C340.145 185.752 340.145 185.73 340.145 185.73C340.145 185.685 340.145 185.64 340.145 185.595C340.1 184.426 339.897 183.55 339.537 182.965C339.178 182.381 338.615 181.999 337.851 181.819C337.761 181.775 337.671 181.752 337.581 181.752C337.491 181.707 337.401 181.685 337.311 181.685C336.996 181.64 336.704 181.617 336.434 181.617C336.164 181.572 335.939 181.55 335.759 181.55C335.624 181.55 335.489 181.527 335.354 181.482C335.264 181.393 335.219 181.28 335.219 181.145C335.219 180.921 335.309 180.786 335.489 180.741C335.669 180.651 335.939 180.606 336.299 180.606C336.659 180.606 337.086 180.606 337.581 180.606C338.076 180.606 338.57 180.628 339.065 180.673C339.29 180.673 339.515 180.673 339.74 180.673C339.965 180.673 340.19 180.673 340.415 180.673C341.089 180.718 341.674 180.763 342.169 180.808C342.708 180.808 343.023 180.808 343.113 180.808C343.203 180.808 343.496 180.808 343.99 180.808C344.53 180.763 345.137 180.718 345.812 180.673C345.992 180.673 346.172 180.673 346.352 180.673C346.532 180.673 346.734 180.673 346.959 180.673C347.454 180.673 347.949 180.673 348.443 180.673C348.938 180.628 349.365 180.606 349.725 180.606C350.085 180.606 350.355 180.651 350.535 180.741C350.715 180.786 350.805 180.921 350.805 181.145C350.805 181.28 350.737 181.393 350.602 181.482C350.513 181.527 350.4 181.55 350.265 181.55C350.22 181.55 350.175 181.55 350.13 181.55C350.13 181.55 350.108 181.55 350.063 181.55C349.883 181.55 349.68 181.572 349.455 181.617C349.231 181.662 348.938 181.707 348.578 181.752C347.679 181.932 347.049 182.336 346.689 182.965C346.374 183.55 346.172 184.426 346.082 185.595C346.082 185.64 346.082 185.685 346.082 185.73C346.082 185.73 346.082 185.752 346.082 185.797C345.992 186.831 345.947 188.224 345.947 189.977C345.947 191.685 345.947 195.078 345.947 200.157V200.089ZM363.691 224.09L379.006 182.224C379.321 181.37 379.568 180.763 379.748 180.404C379.928 180.044 380.108 179.819 380.288 179.729C380.288 179.685 380.311 179.662 380.356 179.662C380.401 179.662 380.445 179.662 380.49 179.662C380.535 179.662 380.58 179.662 380.625 179.662C380.67 179.662 380.693 179.685 380.693 179.729C380.873 179.775 381.053 179.977 381.233 180.336C381.413 180.651 381.66 181.235 381.975 182.089C382.29 182.853 383.302 185.482 385.011 189.977C386.72 194.471 388.587 199.325 390.611 204.539C391.96 208.09 393.265 211.505 394.524 214.786C395.829 218.022 396.886 220.674 397.695 222.741C398.91 225.753 399.989 227.708 400.934 228.607C401.923 229.461 402.778 230 403.498 230.225C403.992 230.405 404.487 230.517 404.982 230.562C405.477 230.607 405.881 230.629 406.196 230.629C406.421 230.629 406.579 230.652 406.669 230.697C406.804 230.742 406.871 230.854 406.871 231.034C406.871 231.213 406.736 231.326 406.466 231.371C406.196 231.461 405.881 231.506 405.522 231.506C405.027 231.506 403.835 231.506 401.946 231.506C400.057 231.506 398.01 231.461 395.806 231.371C395.671 231.371 395.514 231.371 395.334 231.371C395.199 231.371 395.064 231.371 394.929 231.371C394.839 231.371 394.749 231.371 394.659 231.371C394.569 231.371 394.479 231.371 394.389 231.371C393.939 231.326 393.58 231.303 393.31 231.303C393.04 231.258 392.905 231.146 392.905 230.966C392.905 230.831 392.95 230.742 393.04 230.697C393.13 230.607 393.242 230.539 393.377 230.494C393.377 230.494 393.377 230.494 393.377 230.494C393.422 230.494 393.467 230.472 393.512 230.427C393.602 230.382 393.692 230.292 393.782 230.157C393.917 229.977 393.962 229.753 393.917 229.483C393.917 229.438 393.917 229.393 393.917 229.348C393.917 229.303 393.917 229.258 393.917 229.214C393.917 229.124 393.894 229.034 393.849 228.944C393.849 228.854 393.827 228.764 393.782 228.674L387.507 212.022C387.462 211.932 387.395 211.865 387.305 211.82C387.215 211.73 387.08 211.685 386.9 211.685L372.394 211.618C372.214 211.663 372.079 211.73 371.989 211.82C371.899 211.91 371.809 212.045 371.719 212.224L367.671 224.09C367.356 224.989 367.109 225.82 366.929 226.584C366.794 227.348 366.727 228.045 366.727 228.674C366.727 229.258 366.929 229.708 367.334 230.022C367.784 230.292 368.256 230.472 368.751 230.562C368.841 230.607 368.931 230.629 369.021 230.629C369.111 230.629 369.201 230.629 369.291 230.629L369.965 230.562C370.19 230.607 370.348 230.674 370.438 230.764C370.572 230.809 370.64 230.899 370.64 231.034C370.64 231.213 370.55 231.326 370.37 231.371C370.19 231.461 369.943 231.506 369.628 231.506C369.313 231.506 368.976 231.483 368.616 231.438C368.256 231.438 367.874 231.438 367.469 231.438C367.334 231.438 367.199 231.438 367.064 231.438C366.929 231.438 366.794 231.438 366.659 231.438C366.164 231.393 365.692 231.348 365.242 231.303C364.838 231.303 364.545 231.303 364.365 231.303C364.185 231.303 363.825 231.303 363.286 231.303C362.791 231.348 362.184 231.393 361.464 231.438C360.969 231.438 360.452 231.438 359.912 231.438C359.373 231.483 358.81 231.506 358.226 231.506C358.001 231.506 357.753 231.506 357.483 231.506C357.259 231.506 357.034 231.506 356.809 231.506C356.359 231.506 356.044 231.461 355.864 231.371C355.639 231.326 355.527 231.213 355.527 231.034C355.527 230.899 355.594 230.809 355.729 230.764C355.819 230.674 355.954 230.629 356.134 230.629C356.269 230.629 356.426 230.629 356.606 230.629C356.786 230.629 356.966 230.607 357.146 230.562C357.281 230.562 357.416 230.562 357.551 230.562C357.731 230.517 357.888 230.494 358.023 230.494C359.597 230.27 360.789 229.573 361.599 228.404C362.409 227.236 363.106 225.82 363.691 224.157V224.09ZM373.136 209.191H386.023C386.203 209.236 386.293 209.213 386.293 209.123C386.338 209.033 386.338 208.921 386.293 208.786L379.883 190.516C379.703 190.067 379.523 189.842 379.344 189.842C379.209 189.842 379.051 190.089 378.871 190.584L372.934 208.719C372.889 208.809 372.866 208.876 372.866 208.921C372.866 208.966 372.866 209.011 372.866 209.056C372.866 209.101 372.889 209.146 372.934 209.191C373.024 209.236 373.091 209.258 373.136 209.258V209.191ZM408.956 185.643C408.956 184.879 409.234 184.219 409.79 183.664C410.346 183.074 411.024 182.779 411.823 182.778C412.657 182.779 413.335 183.143 413.856 183.872C414.412 184.601 414.69 185.452 414.69 186.424C414.69 188.126 414.273 189.584 413.439 190.799C412.64 192.015 411.285 193.23 409.373 194.445C408.956 194.549 408.835 194.41 409.009 194.028C410.26 192.709 411.007 191.685 411.25 190.956C411.528 190.192 411.632 189.601 411.563 189.185C411.528 188.733 411.319 188.455 410.937 188.351C410.59 188.212 410.173 187.9 409.686 187.414C409.2 186.893 408.956 186.303 408.956 185.643ZM437.801 232.45C436.226 232.45 434.674 232.315 433.145 232.045C431.616 231.775 430.154 231.326 428.76 230.697C428.715 230.652 428.67 230.629 428.625 230.629C428.58 230.584 428.535 230.562 428.49 230.562C428.13 230.337 427.905 230.09 427.815 229.82C427.77 229.506 427.748 228.944 427.748 228.135C427.748 227.191 427.77 226.292 427.815 225.438C427.86 224.584 427.905 223.843 427.95 223.213C427.95 222.719 427.972 222.292 428.017 221.932C428.062 221.528 428.085 221.213 428.085 220.989C428.13 220.629 428.175 220.359 428.22 220.18C428.31 220 428.445 219.91 428.625 219.91C428.85 219.91 428.985 219.977 429.03 220.112C429.074 220.202 429.097 220.382 429.097 220.652C429.097 220.966 429.097 221.348 429.097 221.798C429.142 222.202 429.209 222.652 429.299 223.146C429.794 225.618 431.009 227.393 432.943 228.472C434.922 229.506 437.036 230.022 439.285 230.022C442.298 230.022 444.592 229.191 446.167 227.528C447.786 225.82 448.686 223.955 448.865 221.932C448.91 221.798 448.933 221.663 448.933 221.528C448.933 221.348 448.933 221.191 448.933 221.056C448.933 219.932 448.798 218.899 448.528 217.955C448.303 217.011 447.921 216.09 447.381 215.191C446.751 214.247 445.919 213.281 444.885 212.292C443.895 211.303 442.658 210.18 441.174 208.921L438.138 206.359C435.259 204.022 433.19 201.91 431.931 200.022C430.671 198.089 429.884 196.224 429.569 194.426C429.479 193.977 429.412 193.55 429.367 193.146C429.367 192.696 429.367 192.247 429.367 191.797C429.367 188.202 430.626 185.28 433.145 183.033C435.664 180.786 439.06 179.662 443.333 179.662C444.637 179.662 445.784 179.73 446.774 179.864C447.808 179.954 448.753 180.112 449.608 180.336C450.237 180.471 450.71 180.561 451.025 180.606C451.384 180.651 451.699 180.673 451.969 180.673C452.239 180.673 452.419 180.718 452.509 180.808C452.599 180.853 452.644 180.965 452.644 181.145C452.644 181.235 452.621 181.437 452.576 181.752C452.576 182.067 452.554 182.516 452.509 183.1C452.464 183.685 452.419 184.404 452.374 185.258C452.374 186.112 452.374 187.123 452.374 188.292C452.374 188.831 452.329 189.235 452.239 189.505C452.194 189.73 452.082 189.842 451.902 189.842C451.722 189.842 451.587 189.775 451.497 189.64C451.452 189.46 451.407 189.235 451.362 188.966C451.362 188.786 451.317 188.561 451.227 188.292C451.182 187.977 451.137 187.662 451.092 187.348C451.002 186.988 450.89 186.651 450.755 186.336C450.665 186.022 450.575 185.775 450.485 185.595C450.395 185.415 450.237 185.19 450.013 184.921C449.788 184.606 449.45 184.269 449 183.909C448.371 183.415 447.494 182.988 446.369 182.628C445.29 182.224 443.85 182.022 442.051 182.022C439.712 182.022 437.733 182.718 436.114 184.112C434.54 185.46 433.752 187.37 433.752 189.842C433.752 190.516 433.82 191.145 433.955 191.73C434.09 192.314 434.292 192.898 434.562 193.483C435.102 194.561 435.956 195.685 437.126 196.853C438.295 198.022 439.915 199.46 441.984 201.168L443.873 202.584C446.392 204.606 448.348 206.449 449.743 208.112C451.137 209.73 452.149 211.326 452.779 212.899C453.139 213.798 453.386 214.719 453.521 215.663C453.656 216.562 453.723 217.505 453.723 218.494C453.723 219.258 453.611 220.202 453.386 221.326C453.206 222.404 452.824 223.528 452.239 224.697C451.789 225.595 451.227 226.472 450.552 227.326C449.878 228.18 449.023 228.966 447.988 229.685C446.549 230.674 444.952 231.371 443.198 231.775C441.444 232.225 439.645 232.45 437.801 232.45ZM126.266 322.164C124.691 322.164 123.14 322.029 121.61 321.759C120.081 321.49 118.619 321.04 117.225 320.411C117.18 320.366 117.135 320.344 117.09 320.344C117.045 320.299 117 320.276 116.955 320.276C116.595 320.052 116.37 319.804 116.28 319.535C116.235 319.22 116.213 318.658 116.213 317.849C116.213 316.905 116.235 316.007 116.28 315.153C116.325 314.299 116.37 313.557 116.415 312.928C116.415 312.434 116.438 312.007 116.483 311.647C116.528 311.242 116.55 310.928 116.55 310.703C116.595 310.344 116.64 310.074 116.685 309.894C116.775 309.714 116.91 309.625 117.09 309.625C117.315 309.625 117.45 309.692 117.495 309.827C117.54 309.917 117.562 310.096 117.562 310.366C117.562 310.681 117.562 311.063 117.562 311.512C117.607 311.917 117.675 312.366 117.765 312.861C118.259 315.332 119.474 317.108 121.408 318.186C123.387 319.22 125.501 319.737 127.75 319.737C130.764 319.737 133.058 318.905 134.632 317.243C136.251 315.535 137.151 313.67 137.331 311.647C137.376 311.512 137.398 311.377 137.398 311.243C137.398 311.063 137.398 310.905 137.398 310.771C137.398 309.647 137.263 308.613 136.993 307.669C136.768 306.726 136.386 305.804 135.846 304.905C135.217 303.961 134.385 302.995 133.35 302.006C132.36 301.018 131.123 299.894 129.639 298.636L126.603 296.074C123.724 293.737 121.655 291.624 120.396 289.736C119.136 287.804 118.349 285.939 118.034 284.141C117.944 283.692 117.877 283.265 117.832 282.86C117.832 282.411 117.832 281.961 117.832 281.512C117.832 277.916 119.091 274.995 121.61 272.747C124.129 270.5 127.525 269.377 131.798 269.377C133.103 269.377 134.25 269.444 135.239 269.579C136.274 269.669 137.218 269.826 138.073 270.051C138.703 270.186 139.175 270.276 139.49 270.32C139.85 270.365 140.164 270.388 140.434 270.388C140.704 270.388 140.884 270.433 140.974 270.523C141.064 270.568 141.109 270.68 141.109 270.86C141.109 270.95 141.086 271.152 141.042 271.466C141.041 271.781 141.019 272.231 140.974 272.815C140.929 273.399 140.884 274.118 140.839 274.972C140.839 275.826 140.839 276.838 140.839 278.006C140.839 278.545 140.794 278.95 140.704 279.219C140.659 279.444 140.547 279.557 140.367 279.557C140.187 279.557 140.052 279.489 139.962 279.354C139.917 279.175 139.872 278.95 139.827 278.68C139.827 278.5 139.782 278.276 139.692 278.006C139.647 277.691 139.602 277.377 139.557 277.062C139.467 276.703 139.355 276.366 139.22 276.051C139.13 275.736 139.04 275.489 138.95 275.309C138.86 275.13 138.703 274.905 138.478 274.635C138.253 274.321 137.915 273.983 137.466 273.624C136.836 273.13 135.959 272.703 134.834 272.343C133.755 271.938 132.315 271.736 130.516 271.736C128.177 271.736 126.198 272.433 124.579 273.826C123.005 275.175 122.218 277.085 122.218 279.557C122.218 280.231 122.285 280.86 122.42 281.444C122.555 282.028 122.757 282.613 123.027 283.197C123.567 284.276 124.422 285.399 125.591 286.568C126.761 287.736 128.38 289.175 130.449 290.883L132.338 292.298C134.857 294.321 136.813 296.164 138.208 297.827C139.602 299.445 140.614 301.04 141.244 302.613C141.604 303.512 141.851 304.433 141.986 305.377C142.121 306.276 142.188 307.22 142.188 308.209C142.188 308.973 142.076 309.917 141.851 311.04C141.671 312.119 141.289 313.243 140.704 314.411C140.254 315.31 139.692 316.186 139.017 317.04C138.343 317.894 137.488 318.681 136.454 319.4C135.014 320.389 133.417 321.085 131.663 321.49C129.909 321.939 128.11 322.164 126.266 322.164ZM159.076 301.669V289.804C159.076 284.77 159.076 281.399 159.076 279.691C159.076 277.939 159.031 276.545 158.941 275.512C158.941 275.467 158.941 275.444 158.941 275.444C158.941 275.399 158.941 275.354 158.941 275.309C158.896 274.141 158.671 273.264 158.267 272.68C157.907 272.096 157.165 271.691 156.04 271.466C155.905 271.422 155.725 271.399 155.5 271.399C155.275 271.354 155.051 271.332 154.826 271.332C154.646 271.287 154.443 271.264 154.218 271.264C154.038 271.264 153.881 271.264 153.746 271.264C153.611 271.264 153.476 271.242 153.341 271.197C153.251 271.107 153.206 270.995 153.206 270.86C153.206 270.635 153.296 270.5 153.476 270.455C153.656 270.365 153.926 270.321 154.286 270.32C154.646 270.321 155.006 270.321 155.365 270.32C155.77 270.321 156.175 270.321 156.58 270.32C157.03 270.365 157.457 270.388 157.862 270.388C158.312 270.388 158.739 270.388 159.144 270.388C159.863 270.433 160.471 270.478 160.965 270.523C161.505 270.523 161.82 270.523 161.91 270.523C162.045 270.523 162.899 270.523 164.474 270.523C166.093 270.523 167.825 270.523 169.669 270.523C171.423 270.523 173.042 270.523 174.527 270.523C176.056 270.478 177.001 270.455 177.36 270.455C177.99 270.41 178.552 270.365 179.047 270.32C179.587 270.231 179.992 270.163 180.262 270.118C180.352 270.118 180.419 270.096 180.464 270.051C180.554 270.006 180.621 269.983 180.666 269.983C180.666 269.939 180.666 269.916 180.666 269.916C180.711 269.916 180.734 269.916 180.734 269.916C180.824 269.871 180.891 269.849 180.936 269.848C181.026 269.804 181.116 269.781 181.206 269.781C181.296 269.781 181.364 269.849 181.409 269.983C181.454 270.073 181.476 270.208 181.476 270.388C181.476 270.568 181.431 270.792 181.341 271.062C181.296 271.332 181.229 271.714 181.139 272.208C181.094 272.388 181.049 272.59 181.004 272.815C181.004 273.04 180.981 273.287 180.936 273.556C180.936 273.736 180.914 274.051 180.869 274.5C180.824 274.905 180.801 275.354 180.801 275.849C180.756 276.298 180.711 276.725 180.666 277.13C180.666 277.534 180.644 277.826 180.599 278.006C180.599 278.051 180.599 278.096 180.599 278.141C180.599 278.141 180.599 278.141 180.599 278.141C180.554 278.276 180.486 278.41 180.397 278.545C180.352 278.68 180.262 278.748 180.127 278.748C179.947 278.748 179.812 278.68 179.722 278.545C179.632 278.366 179.587 278.141 179.587 277.871C179.587 277.691 179.564 277.467 179.519 277.197C179.519 276.927 179.497 276.635 179.452 276.321C179.407 276.186 179.362 276.051 179.317 275.916C179.272 275.736 179.227 275.579 179.182 275.444C178.957 274.905 178.552 274.433 177.968 274.028C177.428 273.624 176.236 273.332 174.392 273.152C174.122 273.107 173.537 273.085 172.638 273.084C171.783 273.04 170.838 273.017 169.804 273.017C168.724 272.972 167.712 272.95 166.768 272.95C165.868 272.95 165.328 272.95 165.148 272.95C165.014 272.95 164.901 273.017 164.811 273.152C164.766 273.242 164.744 273.399 164.744 273.624V292.164C164.744 292.433 164.766 292.636 164.811 292.77C164.856 292.86 164.969 292.905 165.148 292.905C165.373 292.905 166.026 292.905 167.105 292.905C168.185 292.905 169.354 292.905 170.613 292.905C171.738 292.905 172.795 292.905 173.785 292.905C174.819 292.86 175.516 292.815 175.876 292.77C176.686 292.68 177.338 292.591 177.833 292.501C178.327 292.366 178.732 292.141 179.047 291.827C179.272 291.557 179.452 291.355 179.587 291.22C179.767 291.04 179.924 290.95 180.059 290.95C180.149 290.95 180.217 290.995 180.262 291.085C180.352 291.13 180.397 291.265 180.397 291.489C180.397 291.624 180.352 291.871 180.262 292.231C180.217 292.591 180.149 293.062 180.059 293.647C180.014 293.871 179.969 294.119 179.924 294.388C179.924 294.658 179.902 294.95 179.857 295.265C179.812 295.489 179.767 295.759 179.722 296.074C179.722 296.388 179.722 296.703 179.722 297.018C179.677 297.602 179.632 298.141 179.587 298.636C179.587 299.13 179.587 299.445 179.587 299.579C179.587 299.624 179.587 299.692 179.587 299.782C179.587 299.827 179.587 299.872 179.587 299.917C179.587 300.186 179.542 300.411 179.452 300.591C179.407 300.77 179.294 300.86 179.115 300.86C178.935 300.86 178.8 300.815 178.71 300.725C178.665 300.591 178.642 300.433 178.642 300.254C178.642 299.894 178.62 299.557 178.575 299.242C178.575 298.883 178.507 298.478 178.372 298.029C178.327 297.939 178.282 297.849 178.238 297.759C178.238 297.669 178.215 297.579 178.17 297.489C177.99 297.085 177.653 296.703 177.158 296.343C176.708 295.984 175.944 295.759 174.864 295.669C174.459 295.624 173.807 295.579 172.907 295.534C172.053 295.489 171.153 295.467 170.209 295.467C169.084 295.422 168.05 295.4 167.105 295.4C166.16 295.355 165.531 295.332 165.216 295.332C165.036 295.332 164.901 295.377 164.811 295.467C164.766 295.557 164.744 295.669 164.744 295.804V301.669C164.744 302.074 164.744 302.613 164.744 303.287C164.744 303.961 164.744 304.681 164.744 305.445C164.744 305.759 164.744 306.074 164.744 306.389C164.744 306.658 164.744 306.95 164.744 307.265C164.744 308.568 164.744 309.804 164.744 310.973C164.744 312.141 164.744 312.905 164.744 313.265C164.834 315.602 165.328 317.108 166.228 317.782C167.172 318.456 169.287 318.793 172.57 318.793C173.02 318.793 173.515 318.793 174.054 318.793C174.639 318.793 175.224 318.771 175.809 318.726C176.393 318.681 176.956 318.613 177.495 318.523C178.08 318.389 178.597 318.231 179.047 318.052C179.947 317.692 180.621 317.153 181.071 316.434C181.521 315.67 181.858 314.591 182.083 313.198C182.173 312.838 182.241 312.591 182.286 312.456C182.376 312.276 182.511 312.186 182.69 312.186C182.87 312.186 182.983 312.276 183.028 312.456C183.073 312.636 183.095 312.838 183.095 313.063C183.095 313.063 183.095 313.085 183.095 313.13C183.095 313.13 183.095 313.153 183.095 313.198C183.095 313.332 183.05 313.759 182.96 314.479C182.915 315.153 182.825 315.872 182.69 316.636C182.69 316.861 182.668 317.108 182.623 317.377C182.578 317.602 182.556 317.827 182.556 318.052C182.466 318.366 182.398 318.681 182.353 318.995C182.308 319.31 182.263 319.557 182.218 319.737C181.993 320.591 181.656 321.085 181.206 321.22C180.756 321.355 179.879 321.422 178.575 321.422C176.011 321.422 173.784 321.4 171.895 321.355C170.051 321.31 168.477 321.265 167.173 321.22C165.823 321.175 164.721 321.13 163.867 321.085C163.057 321.04 162.405 321.018 161.91 321.018C161.82 321.018 161.505 321.018 160.965 321.018C160.471 321.063 159.886 321.108 159.211 321.153C159.031 321.153 158.851 321.153 158.671 321.153C158.491 321.153 158.289 321.153 158.064 321.153C157.569 321.153 157.075 321.153 156.58 321.153C156.085 321.198 155.658 321.22 155.298 321.22C154.938 321.22 154.668 321.175 154.488 321.085C154.308 321.04 154.218 320.928 154.218 320.748C154.218 320.658 154.263 320.568 154.353 320.479C154.443 320.389 154.578 320.344 154.758 320.344C154.893 320.344 155.05 320.344 155.23 320.344C155.41 320.299 155.59 320.276 155.77 320.276C155.95 320.231 156.13 320.209 156.31 320.209C156.49 320.164 156.647 320.119 156.782 320.074C157.457 319.939 157.907 319.535 158.132 318.861C158.401 318.186 158.604 317.355 158.739 316.366C158.919 314.928 159.009 312.95 159.009 310.433C159.054 307.872 159.076 304.973 159.076 301.737V301.669ZM221.982 322.164C216.945 322.164 212.626 321.557 209.028 320.344C205.475 319.13 202.371 317.332 199.717 314.95C197.783 313.242 196.254 311.4 195.129 309.422C194.005 307.4 193.173 305.377 192.633 303.355C192.228 301.916 191.936 300.501 191.756 299.107C191.621 297.669 191.553 296.298 191.554 294.995C191.553 293.557 191.733 291.826 192.093 289.804C192.498 287.781 193.218 285.692 194.252 283.534C194.792 282.321 195.467 281.13 196.276 279.961C197.086 278.793 198.031 277.669 199.11 276.59C201.134 274.568 203.766 272.86 207.004 271.466C210.288 270.073 214.516 269.377 219.688 269.377C220.633 269.377 221.667 269.399 222.792 269.444C223.961 269.489 225.153 269.579 226.368 269.714C226.908 269.804 227.425 269.894 227.92 269.983C228.459 270.028 228.977 270.096 229.471 270.186C230.776 270.41 231.968 270.613 233.047 270.792C234.172 270.972 235.274 271.107 236.353 271.197C236.713 271.242 236.938 271.332 237.028 271.466C237.163 271.556 237.23 271.714 237.23 271.938C237.23 272.118 237.208 272.388 237.163 272.747C237.118 273.062 237.073 273.534 237.028 274.163C236.983 274.388 236.938 274.635 236.893 274.905C236.893 275.13 236.893 275.399 236.893 275.714C236.848 276.118 236.826 276.568 236.826 277.062C236.826 277.512 236.803 277.984 236.758 278.478C236.758 278.882 236.758 279.309 236.758 279.759C236.758 280.163 236.758 280.545 236.758 280.905C236.758 281.309 236.736 281.669 236.691 281.984C236.691 282.253 236.691 282.478 236.691 282.658C236.646 283.152 236.578 283.512 236.488 283.736C236.443 283.961 236.308 284.074 236.083 284.074C235.858 284.074 235.701 283.961 235.611 283.736C235.566 283.467 235.544 283.107 235.544 282.658C235.544 282.523 235.544 282.411 235.544 282.321C235.544 282.186 235.544 282.051 235.544 281.916C235.454 280.703 235.161 279.557 234.667 278.478C234.172 277.354 233.519 276.455 232.71 275.781C231.54 274.748 229.741 273.849 227.312 273.084C224.883 272.32 222.185 271.939 219.216 271.938C215.258 271.939 212.132 272.366 209.838 273.219C207.589 274.073 205.835 275.017 204.575 276.051C204.395 276.186 204.238 276.321 204.103 276.455C203.968 276.59 203.833 276.725 203.698 276.86C201.224 279.197 199.582 281.849 198.773 284.815C198.008 287.781 197.626 290.995 197.626 294.456C197.626 300.883 199.875 306.613 204.373 311.647C208.916 316.636 214.786 319.13 221.982 319.13C224.501 319.13 226.75 318.928 228.729 318.523C230.708 318.074 232.372 317.153 233.722 315.759C234.037 315.4 234.329 314.995 234.599 314.546C234.869 314.096 235.116 313.625 235.341 313.13C235.566 312.501 235.746 311.917 235.881 311.377C236.061 310.838 236.173 310.411 236.218 310.096C236.308 309.737 236.398 309.49 236.488 309.355C236.578 309.175 236.713 309.085 236.893 309.085C237.073 309.085 237.185 309.197 237.23 309.422C237.32 309.602 237.365 309.827 237.365 310.096C237.365 310.231 237.298 310.793 237.163 311.782C237.028 312.726 236.871 313.759 236.691 314.883C236.601 315.332 236.511 315.804 236.421 316.299C236.331 316.748 236.241 317.175 236.151 317.58C236.106 317.804 236.061 318.007 236.016 318.186C235.971 318.366 235.926 318.546 235.881 318.726C235.836 318.861 235.791 318.995 235.746 319.13C235.746 319.22 235.723 319.31 235.679 319.4C235.589 319.625 235.476 319.804 235.341 319.939C235.251 320.074 235.094 320.209 234.869 320.344C234.779 320.389 234.666 320.434 234.532 320.479C234.442 320.523 234.307 320.591 234.127 320.681C233.137 321.04 231.833 321.333 230.214 321.557C228.639 321.827 227.02 322.007 225.356 322.097C224.771 322.097 224.186 322.097 223.602 322.097C223.062 322.141 222.522 322.164 221.982 322.164ZM248.96 301.669V289.804C248.96 284.77 248.96 281.399 248.96 279.691C248.96 277.939 248.915 276.545 248.825 275.512C248.825 275.467 248.825 275.444 248.825 275.444C248.825 275.399 248.825 275.354 248.825 275.309C248.78 274.141 248.555 273.264 248.15 272.68C247.79 272.096 247.048 271.691 245.924 271.466C245.789 271.422 245.609 271.399 245.384 271.399C245.159 271.354 244.934 271.332 244.709 271.332C244.529 271.287 244.327 271.264 244.102 271.264C243.922 271.264 243.765 271.264 243.63 271.264C243.495 271.264 243.36 271.242 243.225 271.197C243.135 271.107 243.09 270.995 243.09 270.86C243.09 270.635 243.18 270.5 243.36 270.455C243.54 270.365 243.81 270.321 244.169 270.32C244.529 270.321 244.889 270.321 245.249 270.32C245.654 270.321 246.059 270.321 246.463 270.32C246.913 270.365 247.34 270.388 247.745 270.388C248.195 270.388 248.622 270.388 249.027 270.388C249.747 270.433 250.354 270.478 250.849 270.523C251.389 270.523 251.703 270.523 251.793 270.523C251.973 270.523 252.378 270.523 253.008 270.523C253.683 270.478 254.447 270.433 255.302 270.388C255.437 270.388 255.572 270.388 255.707 270.388C255.887 270.388 256.044 270.388 256.179 270.388C256.854 270.388 257.506 270.388 258.136 270.388C258.765 270.343 259.305 270.321 259.755 270.32C260.25 270.321 260.722 270.343 261.172 270.388C261.666 270.388 262.139 270.388 262.589 270.388C264.298 270.478 265.962 270.748 267.581 271.197C269.201 271.601 270.707 272.298 272.102 273.287C272.372 273.467 272.641 273.691 272.911 273.961C273.226 274.231 273.541 274.545 273.856 274.905C274.576 275.759 275.228 276.837 275.813 278.141C276.442 279.399 276.757 280.838 276.757 282.456C276.757 284.928 276.15 287.444 274.935 290.006C273.766 292.568 271.652 295.242 268.593 298.029C271.382 301.579 273.923 304.815 276.217 307.737C278.556 310.658 280.693 313.175 282.627 315.287C284.471 317.22 286.09 318.479 287.485 319.063C288.879 319.647 290.004 320.007 290.858 320.141C291.488 320.231 292.028 320.299 292.478 320.344C292.972 320.344 293.31 320.344 293.49 320.344C293.669 320.344 293.804 320.389 293.894 320.479C294.029 320.568 294.097 320.658 294.097 320.748C294.097 320.928 293.984 321.04 293.759 321.085C293.535 321.175 293.107 321.22 292.478 321.22H287.687C285.843 321.22 284.404 321.153 283.369 321.018C282.38 320.838 281.457 320.524 280.603 320.074C280.603 320.074 280.58 320.074 280.535 320.074C280.535 320.029 280.513 320.007 280.468 320.007C280.063 319.782 279.681 319.535 279.321 319.265C278.961 318.995 278.601 318.703 278.241 318.389C277.207 317.49 276.15 316.344 275.07 314.95C273.991 313.557 272.754 311.939 271.36 310.096C271.135 309.827 270.91 309.535 270.685 309.22C270.46 308.905 270.235 308.613 270.01 308.344C269.92 308.209 269.808 308.074 269.673 307.939C269.583 307.759 269.493 307.602 269.403 307.467C268.278 305.984 267.221 304.568 266.232 303.22C265.287 301.827 264.545 300.793 264.005 300.119C263.96 300.074 263.915 300.051 263.87 300.051C263.87 300.006 263.848 299.961 263.803 299.917C263.713 299.872 263.601 299.827 263.466 299.782C263.376 299.737 263.263 299.714 263.128 299.714L254.83 299.512C254.65 299.557 254.515 299.624 254.425 299.714C254.38 299.804 254.357 299.939 254.357 300.119V301.669C254.357 304.95 254.357 307.872 254.357 310.433C254.402 312.95 254.515 314.928 254.695 316.366C254.785 317.355 254.987 318.186 255.302 318.861C255.662 319.535 256.336 319.939 257.326 320.074C257.506 320.119 257.686 320.164 257.866 320.209C258.091 320.209 258.315 320.209 258.54 320.209C258.9 320.254 259.238 320.299 259.552 320.344C259.912 320.344 260.182 320.344 260.362 320.344C260.587 320.344 260.722 320.389 260.767 320.479C260.857 320.568 260.902 320.658 260.902 320.748C260.902 320.928 260.812 321.04 260.632 321.085C260.452 321.175 260.182 321.22 259.822 321.22C259.597 321.22 259.373 321.22 259.148 321.22C258.923 321.22 258.698 321.22 258.473 321.22C257.753 321.22 257.034 321.198 256.314 321.153C255.639 321.153 255.009 321.153 254.425 321.153C253.615 321.108 252.94 321.063 252.401 321.018C251.906 321.018 251.614 321.018 251.524 321.018C251.524 321.018 251.276 321.018 250.781 321.018C250.332 321.063 249.769 321.108 249.095 321.153C248.87 321.153 248.645 321.153 248.42 321.153C248.24 321.153 248.038 321.153 247.813 321.153C247.318 321.198 246.846 321.22 246.396 321.22C245.946 321.22 245.541 321.22 245.181 321.22C244.822 321.22 244.552 321.175 244.372 321.085C244.192 321.04 244.102 320.928 244.102 320.748C244.102 320.658 244.147 320.568 244.237 320.479C244.327 320.389 244.462 320.344 244.642 320.344C244.777 320.344 244.934 320.344 245.114 320.344C245.294 320.299 245.474 320.276 245.654 320.276C245.834 320.231 246.014 320.209 246.194 320.209C246.373 320.164 246.531 320.119 246.666 320.074C247.34 319.939 247.79 319.535 248.015 318.861C248.285 318.186 248.487 317.355 248.622 316.366C248.802 314.928 248.892 312.95 248.892 310.433C248.937 307.872 248.96 304.973 248.96 301.737V301.669ZM254.357 273.624V295.669C254.357 295.894 254.38 296.074 254.425 296.208C254.515 296.343 254.65 296.456 254.83 296.546C255.324 296.815 256.179 297.063 257.393 297.287C258.653 297.467 259.98 297.579 261.374 297.624C261.464 297.624 261.554 297.624 261.644 297.624C261.734 297.624 261.824 297.624 261.914 297.624C262.274 297.624 262.633 297.624 262.993 297.624C263.398 297.579 263.803 297.512 264.208 297.422C264.658 297.332 265.107 297.22 265.557 297.085C266.052 296.905 266.524 296.658 266.974 296.343C268.144 295.534 269.111 294.254 269.875 292.501C270.685 290.703 271.09 288.523 271.09 285.961C271.09 281.736 270.033 278.433 267.919 276.051C265.85 273.669 263.016 272.478 259.417 272.478C258.428 272.478 257.506 272.523 256.651 272.613C255.842 272.703 255.257 272.792 254.897 272.882C254.717 272.927 254.582 273.017 254.492 273.152C254.402 273.287 254.357 273.467 254.357 273.691V273.624ZM298.88 301.669V289.804C298.88 284.77 298.88 281.399 298.88 279.691C298.88 277.939 298.835 276.545 298.745 275.512C298.745 275.467 298.745 275.444 298.745 275.444C298.745 275.399 298.745 275.354 298.745 275.309C298.7 274.141 298.475 273.264 298.07 272.68C297.711 272.096 296.968 271.691 295.844 271.466C295.709 271.422 295.529 271.399 295.304 271.399C295.079 271.354 294.854 271.332 294.629 271.332C294.45 271.287 294.247 271.264 294.022 271.264C293.842 271.264 293.685 271.264 293.55 271.264C293.415 271.264 293.28 271.242 293.145 271.197C293.055 271.107 293.01 270.995 293.01 270.86C293.01 270.635 293.1 270.5 293.28 270.455C293.46 270.365 293.73 270.321 294.09 270.32C294.45 270.321 294.809 270.321 295.169 270.32C295.574 270.321 295.979 270.321 296.384 270.32C296.833 270.365 297.261 270.388 297.666 270.388C298.115 270.388 298.543 270.388 298.948 270.388C299.667 270.433 300.274 270.478 300.769 270.523C301.309 270.523 301.624 270.523 301.714 270.523C301.849 270.523 302.703 270.523 304.278 270.523C305.897 270.523 307.629 270.523 309.473 270.523C311.227 270.523 312.846 270.523 314.331 270.523C315.86 270.478 316.804 270.455 317.164 270.455C317.794 270.41 318.356 270.365 318.851 270.32C319.391 270.231 319.796 270.163 320.065 270.118C320.155 270.118 320.223 270.096 320.268 270.051C320.358 270.006 320.425 269.983 320.47 269.983C320.47 269.939 320.47 269.916 320.47 269.916C320.515 269.916 320.538 269.916 320.538 269.916C320.628 269.871 320.695 269.849 320.74 269.848C320.83 269.804 320.92 269.781 321.01 269.781C321.1 269.781 321.167 269.849 321.212 269.983C321.257 270.073 321.28 270.208 321.28 270.388C321.28 270.568 321.235 270.792 321.145 271.062C321.1 271.332 321.032 271.714 320.943 272.208C320.898 272.388 320.853 272.59 320.808 272.815C320.808 273.04 320.785 273.287 320.74 273.556C320.74 273.736 320.718 274.051 320.673 274.5C320.628 274.905 320.605 275.354 320.605 275.849C320.56 276.298 320.515 276.725 320.47 277.13C320.47 277.534 320.448 277.826 320.403 278.006C320.403 278.051 320.403 278.096 320.403 278.141C320.403 278.141 320.403 278.141 320.403 278.141C320.358 278.276 320.29 278.41 320.2 278.545C320.155 278.68 320.065 278.748 319.931 278.748C319.751 278.748 319.616 278.68 319.526 278.545C319.436 278.366 319.391 278.141 319.391 277.871C319.391 277.691 319.368 277.467 319.323 277.197C319.323 276.927 319.301 276.635 319.256 276.321C319.211 276.186 319.166 276.051 319.121 275.916C319.076 275.736 319.031 275.579 318.986 275.444C318.761 274.905 318.356 274.433 317.772 274.028C317.232 273.624 316.04 273.332 314.196 273.152C313.926 273.107 313.341 273.085 312.441 273.084C311.587 273.04 310.642 273.017 309.608 273.017C308.528 272.972 307.516 272.95 306.572 272.95C305.672 272.95 305.132 272.95 304.952 272.95C304.817 272.95 304.705 273.017 304.615 273.152C304.57 273.242 304.547 273.399 304.547 273.624V292.164C304.547 292.433 304.57 292.636 304.615 292.77C304.66 292.86 304.772 292.905 304.952 292.905C305.177 292.905 305.829 292.905 306.909 292.905C307.988 292.905 309.158 292.905 310.417 292.905C311.542 292.905 312.599 292.905 313.588 292.905C314.623 292.86 315.32 292.815 315.68 292.77C316.49 292.68 317.142 292.591 317.637 292.501C318.131 292.366 318.536 292.141 318.851 291.827C319.076 291.557 319.256 291.355 319.391 291.22C319.571 291.04 319.728 290.95 319.863 290.95C319.953 290.95 320.02 290.995 320.065 291.085C320.155 291.13 320.2 291.265 320.2 291.489C320.2 291.624 320.155 291.871 320.065 292.231C320.02 292.591 319.953 293.062 319.863 293.647C319.818 293.871 319.773 294.119 319.728 294.388C319.728 294.658 319.706 294.95 319.661 295.265C319.616 295.489 319.571 295.759 319.526 296.074C319.526 296.388 319.526 296.703 319.526 297.018C319.481 297.602 319.436 298.141 319.391 298.636C319.391 299.13 319.391 299.445 319.391 299.579C319.391 299.624 319.391 299.692 319.391 299.782C319.391 299.827 319.391 299.872 319.391 299.917C319.391 300.186 319.346 300.411 319.256 300.591C319.211 300.77 319.098 300.86 318.918 300.86C318.739 300.86 318.604 300.815 318.514 300.725C318.469 300.591 318.446 300.433 318.446 300.254C318.446 299.894 318.424 299.557 318.379 299.242C318.379 298.883 318.311 298.478 318.176 298.029C318.131 297.939 318.086 297.849 318.041 297.759C318.041 297.669 318.019 297.579 317.974 297.489C317.794 297.085 317.457 296.703 316.962 296.343C316.512 295.984 315.747 295.759 314.668 295.669C314.263 295.624 313.611 295.579 312.711 295.534C311.857 295.489 310.957 295.467 310.013 295.467C308.888 295.422 307.853 295.4 306.909 295.4C305.964 295.355 305.335 295.332 305.02 295.332C304.84 295.332 304.705 295.377 304.615 295.467C304.57 295.557 304.547 295.669 304.547 295.804V301.669C304.547 302.074 304.547 302.613 304.547 303.287C304.547 303.961 304.547 304.681 304.547 305.445C304.547 305.759 304.547 306.074 304.547 306.389C304.547 306.658 304.547 306.95 304.547 307.265C304.547 308.568 304.547 309.804 304.547 310.973C304.547 312.141 304.547 312.905 304.547 313.265C304.637 315.602 305.132 317.108 306.032 317.782C306.976 318.456 309.09 318.793 312.374 318.793C312.824 318.793 313.319 318.793 313.858 318.793C314.443 318.793 315.028 318.771 315.612 318.726C316.197 318.681 316.759 318.613 317.299 318.523C317.884 318.389 318.401 318.231 318.851 318.052C319.751 317.692 320.425 317.153 320.875 316.434C321.325 315.67 321.662 314.591 321.887 313.198C321.977 312.838 322.045 312.591 322.09 312.456C322.18 312.276 322.314 312.186 322.494 312.186C322.674 312.186 322.787 312.276 322.832 312.456C322.877 312.636 322.899 312.838 322.899 313.063C322.899 313.063 322.899 313.085 322.899 313.13C322.899 313.13 322.899 313.153 322.899 313.198C322.899 313.332 322.854 313.759 322.764 314.479C322.719 315.153 322.629 315.872 322.494 316.636C322.494 316.861 322.472 317.108 322.427 317.377C322.382 317.602 322.359 317.827 322.359 318.052C322.269 318.366 322.202 318.681 322.157 318.995C322.112 319.31 322.067 319.557 322.022 319.737C321.797 320.591 321.46 321.085 321.01 321.22C320.56 321.355 319.683 321.422 318.379 321.422C315.815 321.422 313.588 321.4 311.699 321.355C309.855 321.31 308.281 321.265 306.976 321.22C305.627 321.175 304.525 321.13 303.67 321.085C302.861 321.04 302.209 321.018 301.714 321.018C301.624 321.018 301.309 321.018 300.769 321.018C300.274 321.063 299.69 321.108 299.015 321.153C298.835 321.153 298.655 321.153 298.475 321.153C298.295 321.153 298.093 321.153 297.868 321.153C297.373 321.153 296.878 321.153 296.384 321.153C295.889 321.198 295.462 321.22 295.102 321.22C294.742 321.22 294.472 321.175 294.292 321.085C294.112 321.04 294.022 320.928 294.022 320.748C294.022 320.658 294.067 320.568 294.157 320.479C294.247 320.389 294.382 320.344 294.562 320.344C294.697 320.344 294.854 320.344 295.034 320.344C295.214 320.299 295.394 320.276 295.574 320.276C295.754 320.231 295.934 320.209 296.114 320.209C296.294 320.164 296.451 320.119 296.586 320.074C297.261 319.939 297.711 319.535 297.935 318.861C298.205 318.186 298.408 317.355 298.543 316.366C298.723 314.928 298.813 312.95 298.813 310.433C298.858 307.872 298.88 304.973 298.88 301.737V301.669ZM357.052 273.152V301.669C357.052 304.95 357.052 307.872 357.052 310.433C357.097 312.95 357.209 314.928 357.389 316.366C357.479 317.355 357.681 318.186 357.996 318.861C358.356 319.535 359.031 319.939 360.02 320.074C360.2 320.119 360.38 320.164 360.56 320.209C360.785 320.209 361.01 320.209 361.235 320.209C361.595 320.254 361.932 320.299 362.247 320.344C362.607 320.344 362.877 320.344 363.057 320.344C363.281 320.344 363.416 320.389 363.461 320.479C363.551 320.568 363.596 320.658 363.596 320.748C363.596 320.928 363.506 321.04 363.326 321.085C363.146 321.175 362.877 321.22 362.517 321.22C362.292 321.22 362.067 321.22 361.842 321.22C361.617 321.22 361.392 321.22 361.167 321.22C360.448 321.22 359.728 321.198 359.008 321.153C358.334 321.153 357.704 321.153 357.119 321.153C356.31 321.108 355.635 321.063 355.095 321.018C354.6 321.018 354.308 321.018 354.218 321.018C354.128 321.018 353.813 321.018 353.273 321.018C352.779 321.063 352.194 321.108 351.519 321.153C351.339 321.153 351.159 321.153 350.979 321.153C350.8 321.153 350.597 321.153 350.372 321.153C349.877 321.153 349.383 321.153 348.888 321.153C348.393 321.198 347.966 321.22 347.606 321.22C347.246 321.22 346.976 321.175 346.796 321.085C346.616 321.04 346.526 320.928 346.526 320.748C346.526 320.658 346.571 320.568 346.661 320.479C346.751 320.389 346.886 320.344 347.066 320.344C347.201 320.344 347.359 320.344 347.539 320.344C347.718 320.299 347.898 320.276 348.078 320.276C348.258 320.231 348.438 320.209 348.618 320.209C348.798 320.164 348.955 320.119 349.09 320.074C349.765 319.939 350.215 319.535 350.44 318.861C350.71 318.186 350.912 317.355 351.047 316.366C351.227 314.928 351.317 312.95 351.317 310.433C351.362 307.872 351.384 304.973 351.384 301.737V273.152L341.399 273.287C339.33 273.377 337.8 273.579 336.811 273.894C335.821 274.163 335.057 274.703 334.517 275.512C334.157 276.096 333.887 276.545 333.707 276.86C333.572 277.13 333.46 277.377 333.37 277.601C333.28 277.871 333.168 278.051 333.033 278.141C332.943 278.231 332.83 278.276 332.695 278.276C332.605 278.276 332.515 278.231 332.425 278.141C332.38 278.006 332.358 277.849 332.358 277.669C332.358 277.489 332.425 277.062 332.56 276.388C332.695 275.714 332.853 274.972 333.033 274.163C333.033 274.118 333.033 274.073 333.033 274.028C333.078 273.983 333.1 273.939 333.1 273.894C333.28 273.13 333.437 272.433 333.572 271.804C333.707 271.175 333.797 270.792 333.842 270.658C333.887 270.568 333.91 270.478 333.91 270.388C333.955 270.298 334 270.208 334.045 270.118C334.09 269.938 334.157 269.781 334.247 269.646C334.337 269.467 334.427 269.377 334.517 269.377C334.652 269.377 334.809 269.422 334.989 269.512C335.169 269.601 335.394 269.691 335.664 269.781C335.889 269.871 336.136 269.961 336.406 270.051C336.721 270.096 337.081 270.141 337.486 270.186C337.755 270.231 338.025 270.276 338.295 270.32C338.565 270.321 338.835 270.321 339.105 270.32C339.869 270.365 340.589 270.41 341.264 270.455C341.984 270.5 342.501 270.523 342.816 270.523L368.117 270.455C369.196 270.5 370.118 270.5 370.883 270.455C371.693 270.365 372.367 270.276 372.907 270.186C373.402 270.096 373.807 270.028 374.122 269.983C374.436 269.894 374.661 269.849 374.796 269.848C374.976 269.849 375.066 269.938 375.066 270.118C375.111 270.253 375.133 270.433 375.134 270.658C375.133 271.062 375.111 271.557 375.066 272.141C375.066 272.725 375.066 273.332 375.066 273.961C375.066 274.096 375.066 274.253 375.066 274.433C375.066 274.568 375.066 274.703 375.066 274.837C375.021 275.602 374.976 276.298 374.931 276.927C374.931 277.512 374.931 277.894 374.931 278.073C374.931 278.388 374.886 278.613 374.796 278.748C374.706 278.882 374.594 278.95 374.459 278.95C374.279 278.95 374.144 278.882 374.054 278.748C374.009 278.568 373.964 278.253 373.919 277.804L373.852 276.995C373.717 276.006 373.109 275.175 372.03 274.5C370.95 273.781 368.791 273.399 365.553 273.354L357.052 273.152Z" fill="#F1396D"/>
</svg>
