<?xml version="1.0" encoding="UTF-8" standalone="no"?>
<!-- Created with Inkscape (http://www.inkscape.org/) -->
<svg
   xmlns:svg="http://www.w3.org/2000/svg"
   xmlns="http://www.w3.org/2000/svg"
   version="1.0"
   width="160"
   height="60"
   id="svg2">
  <defs
     id="defs4" />
  <g
     transform="translate(-290.10581,-522.52618)"
     id="layer1">
    <path
       d="M 298.34914,529.56257 L 303.20315,542.5066 C 303.50652,541.83244 303.86888,540.97287 304.29025,539.92791 C 304.71159,538.8661 305.1498,537.75372 305.60488,536.59077 C 305.63857,536.48966 305.67228,536.39696 305.706,536.31268 C 305.75655,536.21156 305.79869,536.11044 305.83241,536.0093 C 306.456,534.39131 307.03747,532.86601 307.57682,531.43339 C 308.11614,529.98394 308.46165,529.0064 308.61335,528.50075 C 308.68075,528.31537 308.73132,528.13841 308.76504,527.96985 C 308.81559,527.80132 308.84087,527.65806 308.84088,527.54006 C 308.84087,527.50637 308.84087,527.48109 308.84088,527.46422 C 308.84087,527.43053 308.83244,527.39682 308.8156,527.36309 C 308.79873,527.27884 308.76502,527.203 308.71448,527.13556 C 308.6639,527.06816 308.59648,527.00917 308.51223,526.95859 C 308.44479,526.94176 308.37738,526.9249 308.30998,526.90803 C 308.24254,526.8912 308.1667,526.88277 308.08244,526.88275 C 307.99816,526.86591 307.90546,526.85749 307.80435,526.85747 C 307.72006,526.85749 307.63579,526.85749 307.55154,526.85747 C 307.48411,526.85749 307.41669,526.84906 307.34929,526.83219 C 307.29871,526.81535 307.27343,526.77322 307.27344,526.70578 C 307.27343,526.62153 307.31556,526.57097 307.39985,526.55409 C 307.48411,526.5204 307.62737,526.50355 307.82963,526.50353 C 307.91389,526.50355 307.98973,526.50355 308.05716,526.50353 C 308.14142,526.50355 308.21726,526.50355 308.28469,526.50353 C 308.47008,526.50355 308.64704,526.51198 308.8156,526.52881 C 309.00098,526.52883 309.16952,526.52883 309.32123,526.52881 C 309.55717,526.54568 309.75942,526.56254 309.92798,526.57937 C 310.11336,526.57939 310.23977,526.57939 310.3072,526.57937 C 310.34089,526.57939 310.42516,526.57939 310.56001,526.57937 C 310.71168,526.56254 310.88022,526.54568 311.06564,526.52881 C 311.14989,526.52883 311.23416,526.52883 311.31845,526.52881 C 311.41956,526.52883 311.52068,526.52883 311.62183,526.52881 C 311.73979,526.51198 311.84934,526.50355 311.95048,526.50353 C 312.06844,526.50355 312.178,526.50355 312.27914,526.50353 C 312.41396,526.50355 312.51508,526.5204 312.58252,526.55409 C 312.66677,526.57097 312.7089,526.6131 312.70892,526.6805 C 312.7089,526.74793 312.68362,526.7985 312.63308,526.83219 C 312.5825,526.84906 312.50665,526.85749 312.40555,526.85747 C 312.33811,526.85749 312.21171,526.86591 312.02633,526.88275 C 311.84091,526.89962 311.64709,526.95018 311.44486,527.03444 C 311.39428,527.05131 311.34371,527.06816 311.29317,527.085 C 311.25944,527.10187 311.22574,527.12715 311.19205,527.16084 C 311.02349,527.27884 310.82966,527.48952 310.61057,527.79288 C 310.40831,528.09627 310.13864,528.67774 309.80157,529.53729 C 309.66672,529.89124 309.32121,530.73395 308.76504,532.06542 C 308.20884,533.39691 307.61051,534.83795 306.97007,536.38852 C 306.19476,538.22564 305.52902,539.80993 304.97284,541.14141 C 304.41664,542.45604 303.99529,543.42516 303.70878,544.04876 C 303.42225,544.65551 303.21999,545.09372 303.10203,545.36339 C 302.98404,545.63306 302.88291,545.81002 302.79865,545.8943 C 302.76493,545.91115 302.73965,545.91958 302.72281,545.91958 C 302.70594,545.93643 302.68066,545.94486 302.64696,545.94486 C 302.59639,545.94486 302.54583,545.928 302.49527,545.8943 C 302.46156,545.87744 302.42785,545.85216 302.39415,545.81845 C 302.30987,545.71733 302.21717,545.55721 302.11605,545.33811 C 302.03177,545.119 301.90537,544.8072 301.73683,544.4027 L 295.54291,528.87997 C 295.47549,528.71145 295.40808,528.55976 295.34066,528.42491 C 295.27324,528.27324 295.20583,528.13841 295.13841,528.02041 C 294.95301,527.68334 294.75076,527.44738 294.53166,527.31253 C 294.31256,527.17772 294.04289,527.05974 293.72266,526.95859 C 293.68895,526.95861 293.65524,526.95861 293.62153,526.95859 C 293.60468,526.94176 293.5794,526.9249 293.54569,526.90803 C 293.37715,526.8912 293.22546,526.88277 293.09063,526.88275 C 292.95579,526.86591 292.85467,526.85749 292.78725,526.85747 C 292.70298,526.85749 292.65242,526.84063 292.63556,526.80691 C 292.60185,526.77322 292.585,526.73108 292.585,526.6805 C 292.585,526.59625 292.64399,526.54568 292.76197,526.52881 C 292.87995,526.51198 293.03164,526.50355 293.21703,526.50353 C 293.31816,526.50355 293.41928,526.50355 293.52041,526.50353 C 293.62153,526.50355 293.73109,526.50355 293.84907,526.50353 C 294.05132,526.50355 294.25357,526.51198 294.45582,526.52881 C 294.65807,526.52883 294.85189,526.52883 295.03729,526.52881 C 295.30695,526.54568 295.54291,526.56254 295.74516,526.57937 C 295.96427,526.57939 296.10753,526.57939 296.17495,526.57937 C 296.24236,526.57939 296.35191,526.57939 296.5036,526.57937 C 296.67214,526.56254 296.86597,526.54568 297.08507,526.52881 C 297.23676,526.52883 297.38845,526.52883 297.54014,526.52881 C 297.70867,526.51198 297.87722,526.50355 298.04576,526.50353 C 298.13003,526.50355 298.20587,526.50355 298.2733,526.50353 C 298.35756,526.50355 298.44183,526.50355 298.52611,526.50353 C 298.76206,526.50355 298.9306,526.5204 299.03173,526.55409 C 299.14971,526.57097 299.2087,526.6131 299.2087,526.6805 C 299.2087,526.74793 299.18342,526.7985 299.13286,526.83219 C 299.09915,526.84906 299.04016,526.85749 298.95589,526.85747 C 298.88847,526.85749 298.81262,526.85749 298.72836,526.85747 C 298.66094,526.85749 298.59352,526.86591 298.52611,526.88275 C 298.42498,526.88277 298.32385,526.8912 298.22273,526.90803 C 298.13846,526.9249 298.06261,526.95018 297.9952,526.98387 C 297.89407,527.03446 297.81823,527.09345 297.76767,527.16084 C 297.7171,527.22828 297.68339,527.2957 297.66654,527.36309 C 297.66654,527.37997 297.66654,527.40525 297.66654,527.43894 C 297.66654,527.45581 297.66654,527.47266 297.66654,527.4895 C 297.66654,527.65806 297.73396,527.92773 297.86879,528.2985 C 298.00362,528.66931 298.16374,529.09909 298.34914,529.58785 L 298.34914,529.56257 M 318.36486,533.80983 L 318.36486,538.25934 C 318.36486,539.4897 318.36486,540.58522 318.36486,541.54591 C 318.38171,542.48975 318.42385,543.23133 318.49127,543.77067 C 318.52497,544.14146 318.60082,544.45326 318.7188,544.70607 C 318.85363,544.95889 319.10644,545.11058 319.47724,545.16114 C 319.54465,545.17799 319.61207,545.19485 319.67949,545.2117 C 319.76376,545.2117 319.84803,545.2117 319.93231,545.2117 C 320.06713,545.22855 320.19354,545.24541 320.31153,545.26226 C 320.44635,545.26226 320.54748,545.26226 320.6149,545.26226 C 320.69916,545.26226 320.74973,545.27912 320.76659,545.31283 C 320.80029,545.34653 320.81714,545.38024 320.81715,545.41395 C 320.81714,545.48137 320.78343,545.5235 320.71603,545.54036 C 320.6486,545.57407 320.54748,545.59092 320.41265,545.59092 C 320.32837,545.59092 320.2441,545.59092 320.15984,545.59092 C 320.07556,545.59092 319.99129,545.59092 319.90702,545.59092 C 319.63735,545.59092 319.36768,545.58249 319.09802,545.56564 C 318.8452,545.56564 318.60924,545.56564 318.39015,545.56564 C 318.08676,545.54878 317.83395,545.53193 317.63171,545.51508 C 317.4463,545.51508 317.33675,545.51508 317.30305,545.51508 C 317.26934,545.51508 317.15136,545.51508 316.94911,545.51508 C 316.76371,545.53193 316.54461,545.54878 316.2918,545.56564 C 316.22438,545.56564 316.15696,545.56564 316.08955,545.56564 C 316.02213,545.56564 315.94628,545.56564 315.86201,545.56564 C 315.67661,545.56564 315.49122,545.56564 315.30583,545.56564 C 315.12043,545.58249 314.96031,545.59092 314.82548,545.59092 C 314.69064,545.59092 314.58952,545.57407 314.52211,545.54036 C 314.45469,545.5235 314.42098,545.48137 314.42098,545.41395 C 314.42098,545.38024 314.43783,545.34653 314.47154,545.31283 C 314.50525,545.27912 314.55581,545.26226 314.62323,545.26226 C 314.67379,545.26226 314.73278,545.26226 314.8002,545.26226 C 314.86761,545.24541 314.93503,545.23698 315.00245,545.23698 C 315.06986,545.22013 315.13728,545.2117 315.2047,545.2117 C 315.27211,545.19485 315.3311,545.17799 315.38167,545.16114 C 315.63448,545.11058 315.80302,544.95889 315.8873,544.70607 C 315.98842,544.45326 316.06426,544.14146 316.11483,543.77067 C 316.18224,543.23133 316.21595,542.48975 316.21595,541.54591 C 316.2328,540.58522 316.24123,539.49813 316.24123,538.28462 L 316.24123,533.80983 C 316.24123,531.92217 316.24123,530.65811 316.24123,530.01763 C 316.24123,529.36033 316.22438,528.83785 316.19067,528.45019 C 316.19067,528.43335 316.19067,528.42493 316.19067,528.42491 C 316.19067,528.40807 316.19067,528.39122 316.19067,528.37435 C 316.17381,527.93615 316.09797,527.6075 315.96314,527.38838 C 315.8283,527.16929 315.61762,527.02603 315.33111,526.95859 C 315.2974,526.94176 315.26369,526.93333 315.22998,526.93331 C 315.19627,526.91648 315.16256,526.90805 315.12886,526.90803 C 315.01087,526.8912 314.90132,526.88277 314.8002,526.88275 C 314.69907,526.86591 314.6148,526.85749 314.54739,526.85747 C 314.49682,526.85749 314.44626,526.84906 314.3957,526.83219 C 314.36199,526.7985 314.34513,526.75636 314.34514,526.70578 C 314.34513,526.62153 314.37884,526.57097 314.44626,526.55409 C 314.51368,526.5204 314.6148,526.50355 314.74964,526.50353 C 314.88447,526.50355 315.04458,526.50355 315.22998,526.50353 C 315.41537,526.50355 315.60077,526.51198 315.78617,526.52881 C 315.87044,526.52883 315.95471,526.52883 316.03898,526.52881 C 316.12325,526.52883 316.20752,526.52883 316.2918,526.52881 C 316.54461,526.54568 316.76371,526.56254 316.94911,526.57937 C 317.15136,526.57939 317.26934,526.57939 317.30305,526.57937 C 317.33675,526.57939 317.4463,526.57939 317.63171,526.57937 C 317.83395,526.56254 318.06148,526.54568 318.3143,526.52881 C 318.38171,526.52883 318.44913,526.52883 318.51655,526.52881 C 318.58396,526.52883 318.65981,526.52883 318.74408,526.52881 C 318.92947,526.52883 319.11487,526.52883 319.30027,526.52881 C 319.48566,526.51198 319.64578,526.50355 319.78062,526.50353 C 319.91544,526.50355 320.01657,526.5204 320.08399,526.55409 C 320.1514,526.57097 320.18511,526.62153 320.18512,526.70578 C 320.18511,526.75636 320.15983,526.7985 320.10928,526.83219 C 320.07556,526.84906 320.03342,526.85749 319.98287,526.85747 C 319.96601,526.85749 319.94915,526.85749 319.93231,526.85747 C 319.9323,526.85749 319.92387,526.85749 319.90702,526.85747 C 319.8396,526.85749 319.76376,526.86591 319.67949,526.88275 C 319.59521,526.89962 319.48566,526.91648 319.35084,526.93331 C 319.01374,527.00075 318.77779,527.15244 318.64296,527.38838 C 318.52497,527.6075 318.44913,527.93615 318.41543,528.37435 C 318.41542,528.39122 318.41542,528.40807 318.41543,528.42491 C 318.41542,528.42493 318.41542,528.43335 318.41543,528.45019 C 318.38171,528.83785 318.36486,529.36033 318.36486,530.01763 C 318.36486,530.65811 318.36486,531.9306 318.36486,533.83511 L 318.36486,533.80983 M 335.23662,545.94486 C 333.34894,545.94486 331.73094,545.71733 330.38261,545.26226 C 329.05112,544.8072 327.88818,544.13303 326.89379,543.23976 C 326.16905,542.5993 325.59601,541.90828 325.17466,541.16669 C 324.7533,540.40826 324.4415,539.64982 324.23925,538.89137 C 324.08756,538.35204 323.97801,537.82114 323.91059,537.29865 C 323.86003,536.75932 323.83475,536.24527 323.83475,535.75649 C 323.83475,535.21717 323.90217,534.56828 324.037,533.80983 C 324.18869,533.0514 324.45835,532.26768 324.846,531.45867 C 325.04825,531.00362 325.30106,530.55698 325.60444,530.11876 C 325.90781,529.68056 326.26175,529.25921 326.66626,528.85469 C 327.42469,528.09627 328.41066,527.45581 329.62417,526.93331 C 330.85452,526.41085 332.43881,526.14961 334.37706,526.14959 C 334.73098,526.14961 335.11863,526.15804 335.54,526.17487 C 335.97819,526.19175 336.42483,526.22545 336.87991,526.276 C 337.08214,526.30973 337.27597,526.34343 337.46138,526.37712 C 337.66361,526.394 337.85744,526.41928 338.04285,526.45297 C 338.5316,526.53726 338.97824,526.6131 339.38276,526.6805 C 339.80409,526.74793 340.21702,526.7985 340.62154,526.83219 C 340.75636,526.84906 340.84063,526.88277 340.87435,526.93331 C 340.9249,526.96704 340.95018,527.02603 340.9502,527.11028 C 340.95018,527.17772 340.94175,527.27884 340.92492,527.41366 C 340.90804,527.53165 340.89119,527.70862 340.87435,527.94456 C 340.85748,528.02885 340.84063,528.12155 340.82379,528.22266 C 340.82377,528.30695 340.82377,528.40807 340.82379,528.52603 C 340.80692,528.67774 340.79849,528.84628 340.79851,529.03166 C 340.79849,529.20022 340.79006,529.37719 340.77323,529.56257 C 340.77321,529.71427 340.77321,529.87439 340.77323,530.04291 C 340.77321,530.19462 340.77321,530.33788 340.77323,530.4727 C 340.77321,530.6244 340.76478,530.75923 340.74795,530.8772 C 340.74793,530.97834 340.74793,531.06261 340.74795,531.13001 C 340.73108,531.31542 340.70579,531.45025 340.6721,531.53451 C 340.65523,531.6188 340.60467,531.66093 340.52042,531.66092 C 340.43613,531.66093 340.37714,531.6188 340.34345,531.53451 C 340.32657,531.4334 340.31815,531.29857 340.31817,531.13001 C 340.31815,531.07946 340.31815,531.03733 340.31817,531.0036 C 340.31815,530.95306 340.31815,530.90249 340.31817,530.85192 C 340.28444,530.39687 340.17489,529.96708 339.98951,529.56257 C 339.80409,529.14123 339.55971,528.80415 339.25635,528.55132 C 338.81812,528.16369 338.14396,527.8266 337.23385,527.54006 C 336.3237,527.25356 335.31245,527.1103 334.20009,527.11028 C 332.71691,527.1103 331.54554,527.27041 330.68599,527.59063 C 329.84327,527.91087 329.18595,528.26481 328.71404,528.65244 C 328.64662,528.70302 328.58763,528.75358 328.53707,528.80413 C 328.48651,528.85471 328.43594,528.90527 328.38539,528.95582 C 327.4584,529.83225 326.84322,530.82665 326.53985,531.93901 C 326.25333,533.0514 326.11007,534.25648 326.11007,535.55424 C 326.11007,537.9644 326.95277,540.11331 328.6382,542.00097 C 330.34047,543.87179 332.53994,544.8072 335.23662,544.8072 C 336.18044,544.8072 337.02315,544.73136 337.76475,544.57967 C 338.50632,544.41113 339.12993,544.06562 339.63557,543.54313 C 339.75353,543.4083 339.86308,543.25661 339.96423,543.08807 C 340.06533,542.91953 340.15803,542.74256 340.24232,542.55716 C 340.32657,542.32121 340.39399,542.1021 340.44457,541.89985 C 340.51197,541.6976 340.55411,541.53749 340.57098,541.4195 C 340.60467,541.28467 340.63838,541.19198 340.6721,541.14141 C 340.70579,541.074 340.75636,541.04029 340.82379,541.04028 C 340.89119,541.04029 340.93333,541.08242 340.9502,541.16669 C 340.98389,541.23411 341.00074,541.31838 341.00076,541.4195 C 341.00074,541.47007 340.97546,541.68075 340.92492,542.05154 C 340.87434,542.40548 340.81535,542.79312 340.74795,543.21448 C 340.71422,543.38302 340.68051,543.55999 340.64682,543.74538 C 340.6131,543.91393 340.57939,544.07404 340.5457,544.22573 C 340.52882,544.31 340.51197,544.38584 340.49513,544.45326 C 340.47826,544.52068 340.46141,544.5881 340.44457,544.65551 C 340.4277,544.70607 340.41085,544.75664 340.39401,544.8072 C 340.39399,544.84091 340.38556,544.87462 340.36873,544.90832 C 340.335,544.9926 340.29287,545.06001 340.24232,545.11057 C 340.2086,545.16114 340.14961,545.2117 340.06535,545.26226 C 340.03163,545.27912 339.98949,545.29597 339.93895,545.31283 C 339.90522,545.32968 339.85466,545.35496 339.78726,545.38867 C 339.41645,545.5235 338.92768,545.63306 338.32094,545.71733 C 337.73103,545.81845 337.12428,545.88587 336.50069,545.91958 C 336.28157,545.91958 336.06246,545.91958 335.84337,545.91958 C 335.64111,545.93643 335.43886,545.94486 335.23662,545.94486 L 335.23662,545.94486 M 352.05782,527.56534 L 352.05782,538.25934 C 352.05781,539.4897 352.05781,540.58522 352.05782,541.54591 C 352.07466,542.48975 352.1168,543.23133 352.18422,543.77067 C 352.21792,544.14146 352.29377,544.45326 352.41176,544.70607 C 352.54658,544.95889 352.79939,545.11058 353.17019,545.16114 C 353.2376,545.17799 353.30502,545.19485 353.37245,545.2117 C 353.45671,545.2117 353.54098,545.2117 353.62526,545.2117 C 353.76008,545.22855 353.88649,545.24541 354.00448,545.26226 C 354.1393,545.26226 354.24042,545.26226 354.30785,545.26226 C 354.39211,545.26226 354.44268,545.27912 354.45954,545.31283 C 354.49324,545.34653 354.51009,545.38024 354.5101,545.41395 C 354.51009,545.48137 354.47638,545.5235 354.40898,545.54036 C 354.34155,545.57407 354.24042,545.59092 354.1056,545.59092 C 354.02132,545.59092 353.93705,545.59092 353.85279,545.59092 C 353.76851,545.59092 353.68424,545.59092 353.59998,545.59092 C 353.3303,545.59092 353.06063,545.58249 352.79098,545.56564 C 352.53815,545.56564 352.30219,545.56564 352.0831,545.56564 C 351.77971,545.54878 351.5269,545.53193 351.32466,545.51508 C 351.13925,545.51508 351.0297,545.51508 350.996,545.51508 C 350.96228,545.51508 350.84431,545.51508 350.64206,545.51508 C 350.45666,545.53193 350.23755,545.54878 349.98475,545.56564 C 349.91733,545.56564 349.84991,545.56564 349.7825,545.56564 C 349.71507,545.56564 349.63923,545.56564 349.55497,545.56564 C 349.36956,545.56564 349.18417,545.56564 348.99878,545.56564 C 348.81338,545.58249 348.65326,545.59092 348.51843,545.59092 C 348.38359,545.59092 348.28247,545.57407 348.21506,545.54036 C 348.14764,545.5235 348.11393,545.48137 348.11393,545.41395 C 348.11393,545.38024 348.13078,545.34653 348.1645,545.31283 C 348.1982,545.27912 348.24876,545.26226 348.31618,545.26226 C 348.36674,545.26226 348.42573,545.26226 348.49315,545.26226 C 348.56056,545.24541 348.62798,545.23698 348.6954,545.23698 C 348.76281,545.22013 348.83023,545.2117 348.89765,545.2117 C 348.96506,545.19485 349.02405,545.17799 349.07462,545.16114 C 349.32743,545.11058 349.49597,544.95889 349.58025,544.70607 C 349.68137,544.45326 349.75721,544.14146 349.80778,543.77067 C 349.87519,543.23133 349.9089,542.48975 349.90891,541.54591 C 349.92575,540.58522 349.93418,539.49813 349.93419,538.28462 L 349.93419,527.56534 L 346.19255,527.61591 C 345.41726,527.64963 344.84421,527.72548 344.47342,527.84344 C 344.10263,527.94458 343.81611,528.14683 343.61386,528.45019 C 343.47902,528.66931 343.3779,528.83785 343.31048,528.95582 C 343.25992,529.05696 343.21778,529.14966 343.18408,529.23391 C 343.15037,529.33505 343.10823,529.40247 343.05767,529.43616 C 343.02396,529.46989 342.98183,529.48674 342.93126,529.48672 C 342.89755,529.48674 342.86385,529.46989 342.83014,529.43616 C 342.81328,529.38562 342.80486,529.32663 342.80486,529.25919 C 342.80486,529.19179 342.83014,529.03168 342.8807,528.77885 C 342.93126,528.52605 342.99025,528.24796 343.05767,527.94456 C 343.05767,527.92773 343.05767,527.91087 343.05767,527.894 C 343.07452,527.87717 343.08295,527.86031 343.08295,527.84344 C 343.15037,527.55694 343.20936,527.2957 343.25992,527.05972 C 343.31048,526.82378 343.34419,526.68052 343.36105,526.62994 C 343.3779,526.59625 343.38633,526.56254 343.38633,526.52881 C 343.40318,526.49512 343.42003,526.46141 343.43689,526.42769 C 343.45374,526.36029 343.47902,526.3013 343.51273,526.25072 C 343.54644,526.18332 343.58015,526.14961 343.61386,526.14959 C 343.66442,526.14961 343.72341,526.16646 343.79083,526.20015 C 343.85824,526.23388 343.94251,526.26759 344.04364,526.30128 C 344.12791,526.33501 344.22061,526.36872 344.32174,526.4024 C 344.43971,526.41928 344.57455,526.43613 344.72624,526.45297 C 344.82736,526.46984 344.92848,526.48669 345.02961,526.50353 C 345.13074,526.50355 345.23186,526.50355 345.33299,526.50353 C 345.61951,526.5204 345.88917,526.53726 346.14199,526.55409 C 346.41165,526.57097 346.60548,526.57939 346.72346,526.57937 L 356.20395,526.55409 C 356.60844,526.57097 356.95395,526.57097 357.24049,526.55409 C 357.54385,526.5204 357.79666,526.48669 357.99893,526.45297 C 358.18431,526.41928 358.33599,526.394 358.45399,526.37712 C 358.57195,526.34343 358.65622,526.32658 358.7068,526.32656 C 358.7742,526.32658 358.80791,526.36029 358.80793,526.42769 C 358.82476,526.47827 358.83319,526.54568 358.83321,526.62994 C 358.83319,526.78164 358.82476,526.96704 358.80793,527.18613 C 358.80791,527.40525 358.80791,527.63278 358.80793,527.86872 C 358.80791,527.9193 358.80791,527.97829 358.80793,528.04569 C 358.80791,528.09627 358.80791,528.14683 358.80793,528.19738 C 358.79106,528.48392 358.7742,528.74516 358.75736,528.9811 C 358.75735,529.20022 358.75735,529.34348 358.75736,529.41088 C 358.75735,529.52888 358.74049,529.61315 358.7068,529.66369 C 358.67308,529.71427 358.63094,529.73955 358.5804,529.73954 C 358.51296,529.73955 358.4624,529.71427 358.42871,529.66369 C 358.41184,529.59629 358.39498,529.47831 358.37814,529.30976 L 358.35286,529.00638 C 358.30228,528.6356 358.07475,528.3238 357.67027,528.07097 C 357.26575,527.80132 356.45675,527.65806 355.24326,527.64119 L 352.05782,527.56534 L 352.05782,527.56534 M 360.29047,536.0093 C 360.29047,535.55425 360.32418,535.08233 360.3916,534.59355 C 360.47587,534.08793 360.60227,533.58231 360.77082,533.07667 C 361.31015,531.3407 362.34668,529.75641 363.88042,528.32378 C 365.431,526.87434 367.55463,526.14961 370.25131,526.14959 C 373.09966,526.14961 375.46767,526.99232 377.35536,528.67772 C 379.24301,530.36316 380.18684,532.68061 380.18687,535.63008 C 380.18684,538.4616 379.26829,540.8886 377.4312,542.9111 C 375.59408,544.93361 373.15022,545.94486 370.09962,545.94486 C 367.09957,545.94486 364.82425,545.11058 363.27367,543.44201 C 361.73993,541.75659 360.7961,539.91106 360.44216,537.9054 C 360.3916,537.58518 360.34946,537.27338 360.31576,536.96999 C 360.2989,536.64977 360.29047,536.33797 360.29047,536.03458 L 360.29047,536.0093 M 362.6922,535.30143 C 362.69219,538.26777 363.46749,540.62736 365.01808,542.38019 C 366.58551,544.13303 368.50689,545.00945 370.78222,545.00945 C 371.16985,545.00945 371.61649,544.96731 372.12213,544.88304 C 372.62774,544.78192 373.14179,544.61338 373.66429,544.37742 C 374.69238,543.88865 375.62779,543.03751 376.47051,541.824 C 377.33006,540.59365 377.75984,538.76497 377.75986,536.33796 C 377.75984,533.30421 376.97612,530.99519 375.4087,529.41088 C 373.8581,527.80975 372.07998,527.00917 370.07434,527.00916 C 367.96756,527.00917 366.20629,527.70862 364.79055,529.1075 C 363.39164,530.48956 362.69219,532.56263 362.6922,535.32671 L 362.6922,535.30143 M 385.30124,538.25934 L 385.30124,533.80983 C 385.30123,531.92217 385.30123,530.65811 385.30124,530.01763 C 385.30123,529.36033 385.28438,528.83785 385.25067,528.45019 C 385.25067,528.43335 385.25067,528.42493 385.25067,528.42491 C 385.25067,528.40807 385.25067,528.39122 385.25067,528.37435 C 385.23381,527.93615 385.14954,527.6075 384.99786,527.38838 C 384.86302,527.16929 384.58493,527.0176 384.16358,526.93331 C 384.11301,526.91648 384.04559,526.90805 383.96133,526.90803 C 383.87705,526.8912 383.79278,526.88277 383.70851,526.88275 C 383.64109,526.86591 383.56525,526.85749 383.48098,526.85747 C 383.41356,526.85749 383.35457,526.85749 383.30401,526.85747 C 383.25345,526.85749 383.20288,526.84906 383.15232,526.83219 C 383.11861,526.7985 383.10176,526.75636 383.10176,526.70578 C 383.10176,526.62153 383.13547,526.57097 383.20289,526.55409 C 383.2703,526.5204 383.37143,526.50355 383.50626,526.50353 C 383.64109,526.50355 383.77593,526.50355 383.91076,526.50353 C 384.06245,526.50355 384.21414,526.50355 384.36583,526.50353 C 384.53437,526.5204 384.69448,526.52883 384.84617,526.52881 C 385.01471,526.52883 385.17482,526.52883 385.32652,526.52881 C 385.59618,526.54568 385.82371,526.56254 386.00911,526.57937 C 386.21136,526.57939 386.32934,526.57939 386.36305,526.57937 C 386.43046,526.57939 386.58215,526.57939 386.81811,526.57937 C 387.07092,526.56254 387.35744,526.54568 387.67768,526.52881 C 387.72823,526.52883 387.7788,526.52883 387.82937,526.52881 C 387.89678,526.52883 387.95577,526.52883 388.00634,526.52881 C 388.25914,526.52883 388.50353,526.52883 388.73949,526.52881 C 388.97544,526.51198 389.1777,526.50355 389.34625,526.50353 C 389.53163,526.50355 389.7086,526.51198 389.87715,526.52881 C 390.06254,526.52883 390.23951,526.52883 390.40806,526.52881 C 391.04851,526.56254 391.67212,526.66366 392.27888,526.83219 C 392.88562,526.98389 393.45023,527.24513 393.97273,527.61591 C 394.07384,527.68334 394.17496,527.76761 394.2761,527.86872 C 394.39407,527.96986 394.51205,528.08784 394.63004,528.22266 C 394.89969,528.54291 395.14408,528.94741 395.3632,529.43616 C 395.59914,529.9081 395.71712,530.44743 395.71714,531.05417 C 395.71712,531.98116 395.48959,532.925 395.03454,533.88567 C 394.59632,534.84637 393.80417,535.8492 392.6581,536.89415 C 393.70305,538.22564 394.65531,539.43914 395.51489,540.53466 C 396.39129,541.63018 397.19186,542.57402 397.91661,543.36616 C 398.60761,544.0909 399.21437,544.56281 399.73686,544.78192 C 400.25933,545.00102 400.68068,545.13586 401.00093,545.18642 C 401.23687,545.22013 401.43912,545.24541 401.60768,545.26226 C 401.79306,545.26226 401.91946,545.26226 401.9869,545.26226 C 402.0543,545.26226 402.10486,545.27912 402.13859,545.31283 C 402.18913,545.34653 402.21441,545.38024 402.21443,545.41395 C 402.21441,545.48137 402.17228,545.5235 402.08803,545.54036 C 402.00373,545.57407 401.84362,545.59092 401.60768,545.59092 L 399.81271,545.59092 C 399.12167,545.59092 398.58233,545.56564 398.1947,545.51508 C 397.82389,545.44766 397.47838,545.32968 397.15817,545.16114 C 397.15815,545.16114 397.14973,545.16114 397.13289,545.16114 C 397.13287,545.14428 397.12445,545.13586 397.10761,545.13586 C 396.9559,545.05159 396.81264,544.95889 396.67783,544.85776 C 396.54298,544.75664 396.40814,544.64708 396.27332,544.5291 C 395.88566,544.19202 395.48959,543.76224 395.0851,543.23976 C 394.68059,542.71728 394.2171,542.11053 393.69463,541.4195 C 393.61035,541.31838 393.52608,541.20883 393.44182,541.09085 C 393.35753,540.97287 393.27326,540.86332 393.189,540.76219 C 393.15528,540.71163 393.11315,540.66107 393.0626,540.6105 C 393.02888,540.54309 392.99517,540.4841 392.96147,540.43353 C 392.54011,539.87735 392.14403,539.34644 391.77325,538.84081 C 391.4193,538.31834 391.14121,537.93069 390.93897,537.67787 C 390.9221,537.66102 390.90525,537.6526 390.88841,537.65259 C 390.8884,537.63574 390.87997,537.61889 390.86312,537.60203 C 390.82941,537.58518 390.78727,537.56832 390.73672,537.55146 C 390.703,537.53462 390.66086,537.52619 390.61031,537.52618 L 387.50071,537.45034 C 387.43329,537.4672 387.38272,537.49248 387.34902,537.52618 C 387.33216,537.5599 387.32373,537.61046 387.32374,537.67787 L 387.32374,538.25934 C 387.32373,539.4897 387.32373,540.58522 387.32374,541.54591 C 387.34059,542.48975 387.38272,543.23133 387.45015,543.77067 C 387.48385,544.14146 387.55969,544.45326 387.67768,544.70607 C 387.81251,544.95889 388.06532,545.11058 388.43612,545.16114 C 388.50353,545.17799 388.57094,545.19485 388.63837,545.2117 C 388.72263,545.2117 388.8069,545.2117 388.89118,545.2117 C 389.02601,545.22855 389.15241,545.24541 389.2704,545.26226 C 389.40523,545.26226 389.50635,545.26226 389.57378,545.26226 C 389.65804,545.26226 389.7086,545.27912 389.72547,545.31283 C 389.75916,545.34653 389.77602,545.38024 389.77603,545.41395 C 389.77602,545.48137 389.74231,545.5235 389.6749,545.54036 C 389.60748,545.57407 389.50635,545.59092 389.37153,545.59092 C 389.28725,545.59092 389.20298,545.59092 389.11871,545.59092 C 389.03443,545.59092 388.95016,545.59092 388.8659,545.59092 C 388.59623,545.59092 388.32656,545.58249 388.0569,545.56564 C 387.80408,545.56564 387.56812,545.56564 387.34902,545.56564 C 387.04564,545.54878 386.79283,545.53193 386.59058,545.51508 C 386.40518,545.51508 386.29563,545.51508 386.26193,545.51508 C 386.26192,545.51508 386.16922,545.51508 385.98383,545.51508 C 385.81528,545.53193 385.60461,545.54878 385.3518,545.56564 C 385.26752,545.56564 385.18325,545.56564 385.09899,545.56564 C 385.03156,545.56564 384.95572,545.56564 384.87145,545.56564 C 384.68605,545.58249 384.50908,545.59092 384.34055,545.59092 C 384.172,545.59092 384.02031,545.59092 383.88548,545.59092 C 383.75065,545.59092 383.64952,545.57407 383.58211,545.54036 C 383.51469,545.5235 383.48098,545.48137 383.48098,545.41395 C 383.48098,545.38024 383.49783,545.34653 383.53154,545.31283 C 383.56525,545.27912 383.61581,545.26226 383.68323,545.26226 C 383.73379,545.26226 383.79278,545.26226 383.8602,545.26226 C 383.92761,545.24541 383.99503,545.23698 384.06245,545.23698 C 384.12987,545.22013 384.19728,545.2117 384.2647,545.2117 C 384.33212,545.19485 384.39111,545.17799 384.44167,545.16114 C 384.69448,545.11058 384.86302,544.95889 384.9473,544.70607 C 385.04842,544.45326 385.12426,544.14146 385.17483,543.77067 C 385.24224,543.23133 385.27595,542.48975 385.27595,541.54591 C 385.2928,540.58522 385.30123,539.49813 385.30124,538.28462 L 385.30124,538.25934 M 387.32374,527.74231 L 387.32374,536.0093 C 387.32373,536.09358 387.33216,536.161 387.34902,536.21155 C 387.38272,536.26213 387.43329,536.30426 387.50071,536.33796 C 387.6861,536.43909 388.00633,536.53179 388.4614,536.61605 C 388.93331,536.68348 389.43051,536.72562 389.953,536.74246 C 389.9867,536.74247 390.0204,536.74247 390.05412,536.74246 C 390.08782,536.74247 390.12153,536.74247 390.15525,536.74246 C 390.29007,536.74247 390.42491,536.74247 390.55975,536.74246 C 390.71143,536.72562 390.86311,536.70033 391.01481,536.66662 C 391.18334,536.63292 391.35189,536.59078 391.52044,536.54021 C 391.70582,536.4728 391.88279,536.3801 392.05135,536.26212 C 392.48954,535.95875 392.85191,535.47841 393.13844,534.82108 C 393.44181,534.14692 393.59349,533.3295 393.59351,532.36879 C 393.59349,530.78451 393.19742,529.54573 392.40528,528.65244 C 391.62998,527.75919 390.56817,527.31255 389.21984,527.31253 C 388.84904,527.31255 388.50353,527.3294 388.18331,527.36309 C 387.87992,527.39682 387.66082,527.43053 387.52599,527.46422 C 387.45857,527.48109 387.40801,527.5148 387.3743,527.56534 C 387.34059,527.61593 387.32373,527.68334 387.32374,527.7676 L 387.32374,527.74231 M 406.24526,533.80983 L 406.24526,538.25934 C 406.24526,539.4897 406.24526,540.58522 406.24526,541.54591 C 406.26211,542.48975 406.30425,543.23133 406.37167,543.77067 C 406.40537,544.14146 406.48121,544.45326 406.5992,544.70607 C 406.73403,544.95889 406.98684,545.11058 407.35764,545.16114 C 407.42505,545.17799 407.49247,545.19485 407.55989,545.2117 C 407.64415,545.2117 407.72842,545.2117 407.8127,545.2117 C 407.94753,545.22855 408.07394,545.24541 408.19192,545.26226 C 408.32675,545.26226 408.42787,545.26226 408.4953,545.26226 C 408.57956,545.26226 408.63012,545.27912 408.64699,545.31283 C 408.68069,545.34653 408.69754,545.38024 408.69755,545.41395 C 408.69754,545.48137 408.66383,545.5235 408.59642,545.54036 C 408.529,545.57407 408.42787,545.59092 408.29305,545.59092 C 408.20877,545.59092 408.1245,545.59092 408.04024,545.59092 C 407.95596,545.59092 407.87169,545.59092 407.78742,545.59092 C 407.51775,545.59092 407.24808,545.58249 406.97842,545.56564 C 406.7256,545.56564 406.48964,545.56564 406.27054,545.56564 C 405.96716,545.54878 405.71435,545.53193 405.5121,545.51508 C 405.3267,545.51508 405.21715,545.51508 405.18345,545.51508 C 405.14973,545.51508 405.03175,545.51508 404.82951,545.51508 C 404.64411,545.53193 404.425,545.54878 404.17219,545.56564 C 404.10477,545.56564 404.03736,545.56564 403.96994,545.56564 C 403.90252,545.56564 403.82668,545.56564 403.74241,545.56564 C 403.55701,545.56564 403.37162,545.56564 403.18622,545.56564 C 403.00082,545.58249 402.84071,545.59092 402.70588,545.59092 C 402.57104,545.59092 402.46992,545.57407 402.4025,545.54036 C 402.33508,545.5235 402.30138,545.48137 402.30138,545.41395 C 402.30138,545.38024 402.31823,545.34653 402.35194,545.31283 C 402.38565,545.27912 402.43621,545.26226 402.50363,545.26226 C 402.55419,545.26226 402.61318,545.26226 402.6806,545.26226 C 402.74801,545.24541 402.81543,545.23698 402.88285,545.23698 C 402.95026,545.22013 403.01768,545.2117 403.0851,545.2117 C 403.15251,545.19485 403.2115,545.17799 403.26207,545.16114 C 403.51488,545.11058 403.68342,544.95889 403.76769,544.70607 C 403.86881,544.45326 403.94466,544.14146 403.99523,543.77067 C 404.06264,543.23133 404.09635,542.48975 404.09635,541.54591 C 404.1132,540.58522 404.12163,539.49813 404.12163,538.28462 L 404.12163,533.80983 C 404.12163,531.92217 404.12163,530.65811 404.12163,530.01763 C 404.12163,529.36033 404.10477,528.83785 404.07107,528.45019 C 404.07107,528.43335 404.07107,528.42493 404.07107,528.42491 C 404.07107,528.40807 404.07107,528.39122 404.07107,528.37435 C 404.05421,527.93615 403.97837,527.6075 403.84354,527.38838 C 403.7087,527.16929 403.49802,527.02603 403.21151,526.95859 C 403.17779,526.94176 403.14408,526.93333 403.11038,526.93331 C 403.07667,526.91648 403.04296,526.90805 403.00925,526.90803 C 402.89127,526.8912 402.78172,526.88277 402.6806,526.88275 C 402.57947,526.86591 402.4952,526.85749 402.42778,526.85747 C 402.37722,526.85749 402.32666,526.84906 402.2761,526.83219 C 402.24239,526.7985 402.22553,526.75636 402.22553,526.70578 C 402.22553,526.62153 402.25924,526.57097 402.32666,526.55409 C 402.39407,526.5204 402.4952,526.50355 402.63003,526.50353 C 402.76487,526.50355 402.92498,526.50355 403.11038,526.50353 C 403.29577,526.50355 403.48117,526.51198 403.66657,526.52881 C 403.75084,526.52883 403.83511,526.52883 403.91938,526.52881 C 404.00365,526.52883 404.08792,526.52883 404.17219,526.52881 C 404.425,526.54568 404.64411,526.56254 404.82951,526.57937 C 405.03175,526.57939 405.14973,526.57939 405.18345,526.57937 C 405.21715,526.57939 405.3267,526.57939 405.5121,526.57937 C 405.71435,526.56254 405.94188,526.54568 406.1947,526.52881 C 406.26211,526.52883 406.32953,526.52883 406.39695,526.52881 C 406.46436,526.52883 406.5402,526.52883 406.62448,526.52881 C 406.80987,526.52883 406.99527,526.52883 407.18067,526.52881 C 407.36606,526.51198 407.52617,526.50355 407.66102,526.50353 C 407.79584,526.50355 407.89697,526.5204 407.96439,526.55409 C 408.0318,526.57097 408.06551,526.62153 408.06552,526.70578 C 408.06551,526.75636 408.04023,526.7985 407.98967,526.83219 C 407.95596,526.84906 407.91382,526.85749 407.86327,526.85747 C 407.8464,526.85749 407.82955,526.85749 407.8127,526.85747 C 407.8127,526.85749 407.80427,526.85749 407.78742,526.85747 C 407.72,526.85749 407.64415,526.86591 407.55989,526.88275 C 407.47561,526.89962 407.36606,526.91648 407.23123,526.93331 C 406.89414,527.00075 406.65818,527.15244 406.52336,527.38838 C 406.40537,527.6075 406.32953,527.93615 406.29582,528.37435 C 406.29582,528.39122 406.29582,528.40807 406.29582,528.42491 C 406.29582,528.42493 406.29582,528.43335 406.29582,528.45019 C 406.26211,528.83785 406.24526,529.36033 406.24526,530.01763 C 406.24526,530.65811 406.24526,531.9306 406.24526,533.83511 L 406.24526,533.80983 M 412.89389,542.80998 L 418.63275,527.11028 C 418.75072,526.79007 418.84342,526.56254 418.91084,526.42769 C 418.97825,526.29287 419.04567,526.2086 419.11309,526.17487 C 419.11308,526.15804 419.12151,526.14961 419.13837,526.14959 C 419.15522,526.14961 419.17207,526.14961 419.18894,526.14959 C 419.20578,526.14961 419.22264,526.14961 419.2395,526.14959 C 419.25634,526.14961 419.26477,526.15804 419.26478,526.17487 C 419.33219,526.19175 419.3996,526.26759 419.46703,526.4024 C 419.53444,526.5204 419.62714,526.73951 419.74512,527.05972 C 419.86309,527.34626 420.24231,528.33223 420.88278,530.01763 C 421.52323,531.70307 422.22268,533.52332 422.98113,535.4784 C 423.48675,536.80989 423.97552,538.0908 424.44745,539.32115 C 424.93621,540.53466 425.33228,541.52906 425.63567,542.30435 C 426.09072,543.43358 426.49522,544.16674 426.84917,544.50382 C 427.21995,544.82405 427.54018,545.0263 427.80986,545.11057 C 427.99524,545.17799 428.18064,545.22013 428.36605,545.23698 C 428.55143,545.25384 428.70312,545.26226 428.82111,545.26226 C 428.90537,545.26226 428.96436,545.27069 428.99808,545.28754 C 429.04863,545.3044 429.07391,545.34653 429.07393,545.41395 C 429.07391,545.48137 429.02335,545.5235 428.92224,545.54036 C 428.8211,545.57407 428.70312,545.59092 428.5683,545.59092 C 428.38289,545.59092 427.93625,545.59092 427.22839,545.59092 C 426.5205,545.59092 425.75363,545.57407 424.92779,545.54036 C 424.87722,545.54036 424.81823,545.54036 424.75082,545.54036 C 424.70025,545.54036 424.64968,545.54036 424.59914,545.54036 C 424.56541,545.54036 424.53171,545.54036 424.49801,545.54036 C 424.46429,545.54036 424.43058,545.54036 424.39689,545.54036 C 424.22833,545.5235 424.0935,545.51508 423.99238,545.51508 C 423.89125,545.49822 423.84068,545.45609 423.8407,545.38867 C 423.84068,545.33811 423.85754,545.3044 423.89126,545.28754 C 423.92495,545.25384 423.96709,545.22855 424.01767,545.2117 C 424.01765,545.2117 424.01765,545.2117 424.01767,545.2117 C 424.03451,545.2117 424.05136,545.20327 424.06823,545.18642 C 424.10192,545.16956 424.13563,545.13586 424.16935,545.08529 C 424.2199,545.01788 424.23676,544.93361 424.21992,544.83248 C 424.2199,544.81563 424.2199,544.79877 424.21992,544.78192 C 424.2199,544.76506 424.2199,544.74821 424.21992,544.73136 C 424.2199,544.69765 424.21148,544.66394 424.19463,544.63023 C 424.19462,544.59652 424.18619,544.56281 424.16935,544.5291 L 421.81819,538.28462 C 421.80133,538.25092 421.77604,538.22564 421.74235,538.20878 C 421.70863,538.17508 421.65807,538.15822 421.59066,538.15821 L 416.15518,538.13293 C 416.08776,538.14979 416.03719,538.17508 416.00349,538.20878 C 415.96978,538.24249 415.93607,538.29306 415.90236,538.36046 L 414.38549,542.80998 C 414.2675,543.14706 414.1748,543.45886 414.10739,543.74538 C 414.05683,544.03191 414.03154,544.29315 414.03155,544.5291 C 414.03154,544.74821 414.10739,544.91675 414.25908,545.03473 C 414.42762,545.13586 414.60459,545.20327 414.78999,545.23698 C 414.82369,545.25384 414.8574,545.26226 414.89111,545.26226 C 414.92482,545.26226 414.95852,545.26226 414.99224,545.26226 L 415.24505,545.23698 C 415.32932,545.25384 415.38831,545.27912 415.42202,545.31283 C 415.47258,545.32968 415.49786,545.36339 415.49786,545.41395 C 415.49786,545.48137 415.46415,545.5235 415.39674,545.54036 C 415.32932,545.57407 415.23662,545.59092 415.11864,545.59092 C 415.00066,545.59092 414.87425,545.58249 414.73942,545.56564 C 414.60459,545.56564 414.46133,545.56564 414.30964,545.56564 C 414.25908,545.56564 414.20851,545.56564 414.15795,545.56564 C 414.10739,545.56564 414.05683,545.56564 414.00627,545.56564 C 413.82087,545.54878 413.6439,545.53193 413.47536,545.51508 C 413.32367,545.51508 413.21412,545.51508 413.1467,545.51508 C 413.07928,545.51508 412.94445,545.51508 412.7422,545.51508 C 412.5568,545.53193 412.32927,545.54878 412.05961,545.56564 C 411.87421,545.56564 411.68038,545.56564 411.47814,545.56564 C 411.27588,545.58249 411.06521,545.59092 410.8461,545.59092 C 410.76183,545.59092 410.66913,545.59092 410.56801,545.59092 C 410.48374,545.59092 410.39947,545.59092 410.3152,545.59092 C 410.14665,545.59092 410.02867,545.57407 409.96126,545.54036 C 409.87699,545.5235 409.83485,545.48137 409.83485,545.41395 C 409.83485,545.36339 409.86013,545.32968 409.91069,545.31283 C 409.9444,545.27912 409.99497,545.26226 410.06238,545.26226 C 410.11295,545.26226 410.17193,545.26226 410.23935,545.26226 C 410.30677,545.26226 410.37419,545.25384 410.4416,545.23698 C 410.49216,545.23698 410.54273,545.23698 410.59329,545.23698 C 410.66071,545.22013 410.7197,545.2117 410.77026,545.2117 C 411.36016,545.12743 411.80679,544.86619 412.11017,544.42798 C 412.41354,543.98977 412.67478,543.45886 412.89389,542.83526 L 412.89389,542.80998 M 416.43327,537.22281 L 421.262,537.22281 C 421.32941,537.23967 421.36312,537.23124 421.36313,537.19752 C 421.37997,537.16382 421.37997,537.12169 421.36313,537.07112 L 418.9614,530.21988 C 418.89398,530.05136 418.82656,529.96708 418.75915,529.96707 C 418.70858,529.96708 418.64959,530.05978 418.58218,530.24516 L 416.35743,537.04584 C 416.34057,537.07955 416.33214,537.10483 416.33215,537.12168 C 416.33214,537.13854 416.33214,537.1554 416.33215,537.17224 C 416.33214,537.18911 416.34057,537.20596 416.35743,537.22281 C 416.39113,537.23967 416.41641,537.2481 416.43327,537.24809 L 416.43327,537.22281 M 429.85534,528.39243 C 429.85533,528.10599 429.9595,527.85859 430.16784,527.65024 C 430.37617,527.4289 430.63007,527.31823 430.92956,527.31821 C 431.24205,527.31823 431.49596,527.45495 431.69128,527.72837 C 431.8996,528.00182 432.00377,528.32083 432.00378,528.6854 C 432.00377,529.32343 431.84752,529.87031 431.53503,530.32602 C 431.23554,530.78177 430.72773,531.23749 430.01159,531.69321 C 429.85533,531.73229 429.80976,531.6802 429.87487,531.53696 C 430.34362,531.04218 430.62356,530.65807 430.71471,530.38462 C 430.81888,530.09817 430.85794,529.87682 430.8319,529.72055 C 430.81888,529.5513 430.74075,529.44713 430.59753,529.40805 C 430.46731,529.35599 430.31106,529.2388 430.12878,529.05649 C 429.94648,528.86119 429.85533,528.63984 429.85534,528.39243 M 440.66342,545.94486 C 440.07352,545.94486 439.49205,545.89429 438.91901,545.79317 C 438.34596,545.69204 437.7982,545.5235 437.27572,545.28754 C 437.25887,545.27069 437.24201,545.26226 437.22516,545.26226 C 437.2083,545.24541 437.19145,545.23698 437.1746,545.23698 C 437.03976,545.15271 436.95549,545.06001 436.92178,544.95889 C 436.90493,544.84091 436.8965,544.63023 436.8965,544.32685 C 436.8965,543.97292 436.90493,543.63583 436.92178,543.3156 C 436.93864,542.99537 436.95549,542.71728 436.97235,542.48132 C 436.97234,542.29593 436.98077,542.13581 436.99763,542.00097 C 437.01448,541.84929 437.02291,541.73131 437.02291,541.64704 C 437.03976,541.51221 437.05662,541.41108 437.07347,541.34366 C 437.10718,541.27625 437.15774,541.24254 437.22516,541.24253 C 437.30943,541.24254 437.35999,541.26782 437.37685,541.31838 C 437.3937,541.35209 437.40213,541.41951 437.40213,541.52063 C 437.40213,541.63861 437.40213,541.78187 437.40213,541.95041 C 437.41898,542.1021 437.44426,542.27064 437.47797,542.45604 C 437.66337,543.38302 438.11843,544.04876 438.84316,544.45326 C 439.58474,544.84091 440.37689,545.03473 441.21961,545.03473 C 442.34883,545.03473 443.2084,544.72293 443.7983,544.09932 C 444.40504,543.45886 444.74213,542.75942 444.80955,542.00097 C 444.8264,541.95041 444.83482,541.89985 444.83484,541.84929 C 444.83482,541.78187 444.83482,541.72288 444.83484,541.67232 C 444.83482,541.25097 444.78426,540.86332 444.68315,540.50938 C 444.59887,540.15544 444.45561,539.80993 444.25336,539.47284 C 444.0174,539.11891 443.70559,538.75655 443.31796,538.38575 C 442.94716,538.01496 442.48367,537.59361 441.92748,537.12168 L 440.78983,536.16099 C 439.71115,535.28458 438.93586,534.49244 438.46394,533.78455 C 437.99202,533.05983 437.69707,532.36038 437.5791,531.6862 C 437.54539,531.51767 437.52011,531.35756 437.50325,531.20585 C 437.50325,531.03733 437.50325,530.86878 437.50325,530.70023 C 437.50325,529.35191 437.97517,528.25638 438.91901,527.41366 C 439.86284,526.57097 441.13533,526.14961 442.73649,526.14959 C 443.22525,526.14961 443.65503,526.17489 444.02583,526.22544 C 444.41347,526.25916 444.76741,526.31815 445.08765,526.4024 C 445.3236,526.45299 445.50057,526.48669 445.61856,526.50353 C 445.75338,526.5204 445.87136,526.52883 445.97249,526.52881 C 446.07361,526.52883 446.14102,526.54568 446.17474,526.57937 C 446.20844,526.59625 446.2253,526.63838 446.22531,526.70578 C 446.2253,526.73951 446.21687,526.81535 446.20003,526.93331 C 446.20001,527.05131 446.19159,527.21985 446.17474,527.43894 C 446.15788,527.65806 446.14102,527.92773 446.12418,528.24794 C 446.12417,528.56819 446.12417,528.94741 446.12418,529.3856 C 446.12417,529.58787 446.10732,529.73955 446.07362,529.84066 C 446.05675,529.92495 446.01462,529.96708 445.94721,529.96707 C 445.87978,529.96708 445.82922,529.9418 445.79552,529.89123 C 445.77866,529.82382 445.76181,529.73955 445.74496,529.63841 C 445.74495,529.57101 445.7281,529.48674 445.6944,529.3856 C 445.67753,529.26764 445.66068,529.14966 445.64384,529.03166 C 445.61012,528.89684 445.56798,528.77044 445.51743,528.65244 C 445.48371,528.53448 445.45,528.44178 445.41631,528.37435 C 445.38259,528.30695 445.3236,528.22268 445.23934,528.12153 C 445.15505,528.00357 445.02865,527.87717 444.86012,527.74231 C 444.62415,527.55694 444.29549,527.39682 443.87415,527.26197 C 443.46964,527.1103 442.9303,527.03446 442.25614,527.03444 C 441.37972,527.03446 440.63813,527.2957 440.03139,527.81816 C 439.44148,528.3238 439.14654,529.0401 439.14654,529.96707 C 439.14654,530.2199 439.17182,530.45586 439.22238,530.67495 C 439.27294,530.89407 439.34879,531.11317 439.44992,531.33226 C 439.65216,531.73677 439.97239,532.15813 440.41061,532.59633 C 440.84881,533.03455 441.45556,533.57388 442.23086,534.21433 L 442.93874,534.74524 C 443.88256,535.50369 444.61572,536.19471 445.13821,536.8183 C 445.66068,537.42506 446.0399,538.02339 446.27587,538.61328 C 446.41069,538.95037 446.50339,539.29588 446.55396,539.64981 C 446.60451,539.9869 446.6298,540.34084 446.62981,540.71163 C 446.6298,540.99815 446.58766,541.35209 446.5034,541.77344 C 446.43597,542.17795 446.29271,542.5993 446.07362,543.03751 C 445.90507,543.37459 445.69439,543.70325 445.44159,544.02348 C 445.18876,544.34371 444.86853,544.63866 444.4809,544.90832 C 443.94155,545.27912 443.34323,545.54036 442.68592,545.69204 C 442.0286,545.86059 441.35443,545.94486 440.66342,545.94486 L 440.66342,545.94486 M 323.92907,579.58781 C 323.33917,579.58781 322.7577,579.53725 322.18466,579.43612 C 321.61161,579.335 321.06385,579.16645 320.54137,578.9305 C 320.52452,578.91364 320.50766,578.90521 320.49081,578.90521 C 320.47395,578.88836 320.4571,578.87993 320.44025,578.87993 C 320.30541,578.79566 320.22114,578.70296 320.18744,578.60184 C 320.17058,578.48386 320.16215,578.27318 320.16215,577.96981 C 320.16215,577.61587 320.17058,577.27878 320.18744,576.95855 C 320.20429,576.63833 320.22114,576.36023 320.238,576.12427 C 320.238,575.93888 320.24642,575.77876 320.26328,575.64392 C 320.28013,575.49224 320.28856,575.37426 320.28856,575.28999 C 320.30541,575.15516 320.32227,575.05403 320.33912,574.98661 C 320.37283,574.9192 320.42339,574.88549 320.49081,574.88549 C 320.57508,574.88549 320.62564,574.91077 320.6425,574.96133 C 320.65935,574.99504 320.66778,575.06246 320.66778,575.16358 C 320.66778,575.28156 320.66778,575.42482 320.66778,575.59336 C 320.68463,575.74505 320.70991,575.9136 320.74362,576.09899 C 320.92902,577.02597 321.38408,577.69171 322.10881,578.09621 C 322.85039,578.48386 323.64254,578.67768 324.48526,578.67768 C 325.61448,578.67768 326.47405,578.36588 327.06395,577.74227 C 327.67069,577.10182 328.00778,576.40237 328.0752,575.64392 C 328.09205,575.59337 328.10048,575.5428 328.10049,575.49224 C 328.10048,575.42482 328.10048,575.36583 328.10049,575.31527 C 328.10048,574.89392 328.04991,574.50627 327.9488,574.15233 C 327.86452,573.79839 327.72126,573.45288 327.51902,573.11579 C 327.28305,572.76186 326.97124,572.3995 326.58361,572.0287 C 326.21281,571.65791 325.74932,571.23656 325.19313,570.76463 L 324.05548,569.80394 C 322.9768,568.92753 322.20151,568.13539 321.7296,567.4275 C 321.25767,566.70278 320.96273,566.00333 320.84475,565.32915 C 320.81104,565.16062 320.78576,565.00051 320.76891,564.8488 C 320.7689,564.68028 320.7689,564.51174 320.76891,564.34318 C 320.7689,562.99486 321.24082,561.89934 322.18466,561.05661 C 323.12849,560.21392 324.40098,559.79256 326.00214,559.79254 C 326.4909,559.79256 326.92068,559.81784 327.29148,559.86839 C 327.67912,559.90211 328.03306,559.9611 328.3533,560.04536 C 328.58925,560.09594 328.76622,560.12965 328.88421,560.14648 C 329.01903,560.16335 329.13701,560.17178 329.23814,560.17176 C 329.33926,560.17178 329.40667,560.18864 329.44039,560.22232 C 329.47409,560.2392 329.49095,560.28133 329.49096,560.34873 C 329.49095,560.38246 329.48252,560.4583 329.46568,560.57626 C 329.46566,560.69426 329.45724,560.8628 329.44039,561.08189 C 329.42353,561.30101 329.40667,561.57068 329.38983,561.89089 C 329.38982,562.21114 329.38982,562.59036 329.38983,563.02855 C 329.38982,563.23082 329.37297,563.3825 329.33927,563.48361 C 329.3224,563.5679 329.28027,563.61004 329.21286,563.61002 C 329.14543,563.61004 329.09487,563.58475 329.06118,563.53418 C 329.04431,563.46678 329.02746,563.3825 329.01061,563.28136 C 329.0106,563.21396 328.99375,563.12969 328.96005,563.02855 C 328.94318,562.91059 328.92633,562.79261 328.90949,562.67461 C 328.87577,562.5398 328.83363,562.41339 328.78308,562.29539 C 328.74936,562.17743 328.71565,562.08473 328.68196,562.0173 C 328.64824,561.9499 328.58925,561.86563 328.50499,561.76448 C 328.4207,561.64652 328.2943,561.52012 328.12577,561.38527 C 327.8898,561.19989 327.56114,561.03977 327.1398,560.90492 C 326.73529,560.75325 326.19595,560.67741 325.52179,560.67739 C 324.64537,560.67741 323.90378,560.93865 323.29704,561.46111 C 322.70713,561.96675 322.41219,562.68306 322.41219,563.61002 C 322.41219,563.86285 322.43747,564.09881 322.48803,564.3179 C 322.53859,564.53702 322.61444,564.75612 322.71557,564.97521 C 322.91781,565.37973 323.23804,565.80108 323.67626,566.23928 C 324.11446,566.6775 324.72121,567.21683 325.49651,567.85728 L 326.20439,568.38819 C 327.14821,569.14664 327.88137,569.83766 328.40386,570.46126 C 328.92633,571.06802 329.30555,571.66634 329.54152,572.25623 C 329.67634,572.59332 329.76904,572.93883 329.81961,573.29276 C 329.87017,573.62985 329.89545,573.98379 329.89546,574.35458 C 329.89545,574.6411 329.85331,574.99504 329.76905,575.41639 C 329.70162,575.8209 329.55836,576.24225 329.33927,576.68046 C 329.17072,577.01754 328.96004,577.3462 328.70724,577.66643 C 328.45441,577.98666 328.13418,578.28161 327.74655,578.55128 C 327.2072,578.92207 326.60888,579.18331 325.95157,579.335 C 325.29425,579.50354 324.62008,579.58781 323.92907,579.58781 L 323.92907,579.58781 M 336.22339,571.90229 L 336.22339,567.45278 C 336.22339,565.56512 336.22339,564.30106 336.22339,563.66058 C 336.22339,563.00329 336.20653,562.48081 336.17283,562.09314 C 336.17282,562.0763 336.17282,562.06788 336.17283,562.06786 C 336.17282,562.05102 336.17282,562.03417 336.17283,562.0173 C 336.15597,561.57911 336.0717,561.25045 335.92001,561.03133 C 335.78518,560.81224 335.50708,560.66055 335.08573,560.57626 C 335.03516,560.55943 334.96775,560.551 334.88348,560.55098 C 334.79921,560.53415 334.71494,560.52572 334.63067,560.5257 C 334.56325,560.50887 334.4874,560.50044 334.40314,560.50042 C 334.33572,560.50044 334.27673,560.50044 334.22617,560.50042 C 334.1756,560.50044 334.12504,560.49201 334.07448,560.47514 C 334.04077,560.44145 334.02391,560.39931 334.02392,560.34873 C 334.02391,560.26448 334.05762,560.21392 334.12504,560.19704 C 334.19246,560.16335 334.29358,560.1465 334.42842,560.14648 C 334.56325,560.1465 334.69808,560.1465 334.83292,560.14648 C 334.9846,560.1465 335.13629,560.1465 335.28798,560.14648 C 335.45652,560.16335 335.61663,560.17178 335.76833,560.17176 C 335.93686,560.17178 336.09698,560.17178 336.24867,560.17176 C 336.51833,560.18864 336.74587,560.20549 336.93127,560.22232 C 337.13351,560.22234 337.25149,560.22234 337.2852,560.22232 C 337.33576,560.22234 337.65599,560.22234 338.24589,560.22232 C 338.85264,560.22234 339.50153,560.22234 340.19256,560.22232 C 340.84986,560.22234 341.45661,560.22234 342.01281,560.22232 C 342.58584,560.20549 342.93978,560.19706 343.07463,560.19704 C 343.31057,560.18021 343.52125,560.16335 343.70666,560.14648 C 343.9089,560.11279 344.06058,560.08751 344.16172,560.07064 C 344.19542,560.07066 344.2207,560.06223 344.23757,560.04536 C 344.27126,560.02852 344.29654,560.02009 344.31341,560.02007 C 344.3134,560.00324 344.3134,559.99481 344.31341,559.99479 C 344.33025,559.99481 344.33868,559.99481 344.33869,559.99479 C 344.37239,559.97796 344.39767,559.96953 344.41453,559.96951 C 344.44823,559.95268 344.48194,559.94425 344.51566,559.94423 C 344.54936,559.94425 344.57464,559.96953 344.5915,560.02007 C 344.60835,560.0538 344.61677,560.10436 344.61679,560.17176 C 344.61677,560.2392 344.59992,560.32347 344.56622,560.42458 C 344.54936,560.52572 344.52407,560.66898 344.49038,560.85436 C 344.47351,560.92179 344.45666,560.99764 344.43982,561.08189 C 344.4398,561.16618 344.43138,561.25888 344.41453,561.35998 C 344.41452,561.42742 344.40609,561.5454 344.38925,561.71392 C 344.37239,561.86563 344.36396,562.03417 344.36397,562.21955 C 344.34711,562.38811 344.33025,562.54822 344.31341,562.69989 C 344.3134,562.8516 344.30497,562.96115 344.28813,563.02855 C 344.28812,563.04542 344.28812,563.06228 344.28813,563.07911 C 344.28812,563.07913 344.28812,563.07913 344.28813,563.07911 C 344.27126,563.12969 344.24598,563.18025 344.21228,563.2308 C 344.19542,563.28138 344.16171,563.30666 344.11116,563.30664 C 344.04373,563.30666 343.99317,563.28138 343.95947,563.2308 C 343.92575,563.1634 343.9089,563.07913 343.90891,562.97799 C 343.9089,562.91059 343.90047,562.82632 343.88363,562.72517 C 343.88361,562.62407 343.87519,562.51451 343.85835,562.39652 C 343.84148,562.34597 343.82463,562.29541 343.80778,562.24483 C 343.79092,562.17743 343.77406,562.11844 343.75722,562.06786 C 343.67294,561.86563 343.52125,561.68866 343.30216,561.53695 C 343.0999,561.38528 342.65326,561.27573 341.96225,561.2083 C 341.86111,561.19146 341.64201,561.18303 341.30493,561.18301 C 340.98469,561.16618 340.63076,561.15775 340.24312,561.15773 C 339.83861,561.1409 339.45939,561.13247 339.10546,561.13245 C 338.76837,561.13247 338.56612,561.13247 338.49871,561.13245 C 338.44814,561.13247 338.406,561.15775 338.3723,561.2083 C 338.35544,561.24202 338.34701,561.30101 338.34702,561.38527 L 338.34702,568.33763 C 338.34701,568.43876 338.35544,568.51461 338.3723,568.56516 C 338.38915,568.59888 338.43128,568.61573 338.49871,568.61572 C 338.58297,568.61573 338.82736,568.61573 339.23187,568.61572 C 339.63636,568.61573 340.07457,568.61573 340.54649,568.61572 C 340.96784,568.61573 341.36391,568.61573 341.73472,568.61572 C 342.12235,568.59888 342.38359,568.58202 342.51844,568.56516 C 342.8218,568.53146 343.06619,568.49775 343.25159,568.46403 C 343.43698,568.41348 343.58867,568.32921 343.70666,568.21122 C 343.79092,568.11011 343.85833,568.03426 343.90891,567.98369 C 343.97631,567.91628 344.0353,567.88257 344.08588,567.88256 C 344.11957,567.88257 344.14485,567.89943 344.16172,567.93312 C 344.19542,567.94999 344.21227,568.00055 344.21228,568.08481 C 344.21227,568.13539 344.19542,568.22808 344.16172,568.36291 C 344.14485,568.49775 344.11957,568.67472 344.08588,568.89381 C 344.06901,568.9781 344.05216,569.07079 344.03532,569.17191 C 344.0353,569.27304 344.02688,569.3826 344.01003,569.50057 C 343.99317,569.58485 343.97631,569.68597 343.95947,569.80394 C 343.95946,569.92193 343.95946,570.03991 343.95947,570.15788 C 343.9426,570.37699 343.92575,570.57924 343.90891,570.76463 C 343.9089,570.95004 343.9089,571.06802 343.90891,571.11857 C 343.9089,571.13543 343.9089,571.16071 343.90891,571.19441 C 343.9089,571.21128 343.9089,571.22813 343.90891,571.24498 C 343.9089,571.34611 343.89204,571.43038 343.85835,571.49779 C 343.84148,571.56521 343.79934,571.59892 343.73194,571.59891 C 343.66451,571.59892 343.61395,571.58207 343.58025,571.54835 C 343.56339,571.4978 343.55496,571.43881 343.55497,571.37138 C 343.55496,571.23656 343.54653,571.11015 343.52969,570.99216 C 343.52968,570.85734 343.5044,570.70565 343.45384,570.5371 C 343.43698,570.5034 343.42012,570.46969 343.40328,570.43597 C 343.40327,570.40227 343.39484,570.36857 343.378,570.33485 C 343.31057,570.18317 343.18417,570.03991 342.99878,569.90507 C 342.83023,569.77024 342.54371,569.68597 342.13922,569.65225 C 341.98752,569.63541 341.74313,569.61856 341.40606,569.60169 C 341.08582,569.58485 340.74874,569.57642 340.39481,569.57641 C 339.97344,569.55957 339.5858,569.55114 339.23187,569.55113 C 338.87792,569.53428 338.64196,569.52586 338.52399,569.52585 C 338.45657,569.52586 338.406,569.54271 338.3723,569.57641 C 338.35544,569.61013 338.34701,569.65226 338.34702,569.70282 L 338.34702,571.90229 C 338.34701,572.05399 338.34701,572.25624 338.34702,572.50904 C 338.34701,572.76186 338.34701,573.03153 338.34702,573.31804 C 338.34701,573.43603 338.34701,573.55401 338.34702,573.67198 C 338.34701,573.77311 338.34701,573.88267 338.34702,574.00064 C 338.34701,574.48942 338.34701,574.95291 338.34702,575.39111 C 338.34701,575.82932 338.34701,576.11585 338.34702,576.25068 C 338.38072,577.1271 338.56612,577.69171 338.90321,577.94452 C 339.25714,578.19734 340.04929,578.32374 341.27965,578.32374 C 341.44818,578.32374 341.63358,578.32374 341.83584,578.32374 C 342.05494,578.32374 342.27404,578.31532 342.49316,578.29846 C 342.71225,578.28161 342.92293,578.25633 343.12519,578.22262 C 343.34428,578.17206 343.5381,578.11307 343.70666,578.04565 C 344.04373,577.91082 344.29654,577.70857 344.4651,577.4389 C 344.63363,577.15238 344.76003,576.74788 344.84432,576.22539 C 344.87801,576.09056 344.90329,575.99787 344.92016,575.9473 C 344.95386,575.87989 345.00442,575.84618 345.07185,575.84618 C 345.13925,575.84618 345.18139,575.87989 345.19826,575.9473 C 345.2151,576.01472 345.22352,576.09056 345.22354,576.17483 C 345.22352,576.17484 345.22352,576.18326 345.22354,576.20011 C 345.22352,576.20012 345.22352,576.20854 345.22354,576.22539 C 345.22352,576.27596 345.20667,576.43608 345.17297,576.70574 C 345.15611,576.95856 345.1224,577.22822 345.07185,577.51474 C 345.07184,577.59901 345.06341,577.69171 345.04657,577.79284 C 345.0297,577.87711 345.02127,577.96138 345.02129,578.04565 C 344.98756,578.16363 344.96228,578.28161 344.94544,578.39959 C 344.92857,578.51757 344.91172,578.61027 344.89488,578.67768 C 344.8106,578.99791 344.68419,579.18331 344.51566,579.23387 C 344.34711,579.28443 344.01845,579.30971 343.52969,579.30971 C 342.56899,579.30971 341.73471,579.30129 341.02684,579.28443 C 340.33581,579.26758 339.74591,579.25072 339.25715,579.23387 C 338.75151,579.21702 338.33859,579.20016 338.01836,579.18331 C 337.71498,579.16645 337.4706,579.15803 337.2852,579.15803 C 337.25149,579.15803 337.13351,579.15803 336.93127,579.15803 C 336.74587,579.17488 336.52676,579.19174 336.27395,579.20859 C 336.20653,579.20859 336.13911,579.20859 336.0717,579.20859 C 336.00428,579.20859 335.92844,579.20859 335.84417,579.20859 C 335.65877,579.20859 335.47337,579.20859 335.28798,579.20859 C 335.10258,579.22544 334.94247,579.23387 334.80764,579.23387 C 334.6728,579.23387 334.57167,579.21702 334.50426,579.18331 C 334.43684,579.16645 334.40313,579.12432 334.40314,579.0569 C 334.40313,579.02319 334.41999,578.98949 334.4537,578.95578 C 334.4874,578.92207 334.53797,578.90521 334.60539,578.90521 C 334.65595,578.90521 334.71494,578.90521 334.78236,578.90521 C 334.84977,578.88836 334.91719,578.87993 334.98461,578.87993 C 335.05202,578.86308 335.11944,578.85465 335.18686,578.85465 C 335.25427,578.8378 335.31326,578.82094 335.36383,578.80409 C 335.61663,578.75353 335.78518,578.60184 335.86945,578.34902 C 335.97057,578.09621 336.04642,577.78441 336.09698,577.41362 C 336.1644,576.87428 336.1981,576.1327 336.19811,575.18886 C 336.21496,574.22818 336.22339,573.14108 336.22339,571.92757 L 336.22339,571.90229 M 359.79476,579.58781 C 357.90707,579.58781 356.28907,579.36028 354.94075,578.90521 C 353.60926,578.45015 352.44632,577.77598 351.45192,576.88271 C 350.72719,576.24225 350.15415,575.55123 349.7328,574.80964 C 349.31144,574.05121 348.99963,573.29277 348.79739,572.53432 C 348.6457,571.995 348.53614,571.46409 348.46873,570.9416 C 348.41817,570.40227 348.39288,569.88822 348.39289,569.39944 C 348.39288,568.86012 348.4603,568.21123 348.59514,567.45278 C 348.74682,566.69435 349.01649,565.91063 349.40414,565.10162 C 349.60639,564.64657 349.8592,564.19993 350.16258,563.76171 C 350.46595,563.32351 350.81989,562.90216 351.22439,562.49764 C 351.98283,561.73922 352.9688,561.09876 354.18231,560.57626 C 355.41265,560.0538 356.99695,559.79256 358.93519,559.79254 C 359.28912,559.79256 359.67676,559.80099 360.09813,559.81782 C 360.53633,559.8347 360.98296,559.86841 361.43804,559.91895 C 361.64028,559.95268 361.8341,559.98639 362.01951,560.02007 C 362.22175,560.03695 362.41557,560.06223 362.60098,560.09592 C 363.08974,560.18021 363.53637,560.25605 363.94089,560.32345 C 364.36223,560.39089 364.77516,560.44145 365.17968,560.47514 C 365.31449,560.49201 365.39876,560.52572 365.43249,560.57626 C 365.48303,560.60999 365.50831,560.66898 365.50833,560.75323 C 365.50831,560.82067 365.49989,560.92179 365.48305,561.05661 C 365.46618,561.17461 365.44932,561.35157 365.43249,561.58752 C 365.41562,561.6718 365.39876,561.7645 365.38193,561.86561 C 365.38191,561.9499 365.38191,562.05102 365.38193,562.16899 C 365.36505,562.32069 365.35663,562.48923 365.35665,562.67461 C 365.35663,562.84317 365.3482,563.02014 365.33136,563.20552 C 365.33135,563.35722 365.33135,563.51734 365.33136,563.68586 C 365.33135,563.83757 365.33135,563.98083 365.33136,564.11565 C 365.33135,564.26735 365.32292,564.40218 365.30608,564.52015 C 365.30606,564.62129 365.30606,564.70556 365.30608,564.77296 C 365.28921,564.95837 365.26393,565.0932 365.23024,565.17746 C 365.21337,565.26175 365.1628,565.30388 365.07855,565.30387 C 364.99426,565.30388 364.93527,565.26175 364.90158,565.17746 C 364.88471,565.07635 364.87628,564.94152 364.8763,564.77296 C 364.87628,564.72241 364.87628,564.68028 364.8763,564.64655 C 364.87628,564.59601 364.87628,564.54544 364.8763,564.49487 C 364.84257,564.03982 364.73302,563.61004 364.54764,563.20552 C 364.36223,562.78418 364.11784,562.4471 363.81449,562.19427 C 363.37626,561.80664 362.70209,561.46955 361.79198,561.18301 C 360.88184,560.89651 359.87059,560.75325 358.75822,560.75323 C 357.27504,560.75325 356.10368,560.91337 355.24412,561.23358 C 354.4014,561.55382 353.74409,561.90776 353.27218,562.29539 C 353.20476,562.34597 353.14577,562.39653 353.09521,562.44708 C 353.04464,562.49766 352.99408,562.54822 352.94352,562.59877 C 352.01653,563.4752 351.40136,564.4696 351.09799,565.58196 C 350.81146,566.69435 350.6682,567.89943 350.6682,569.19719 C 350.6682,571.60735 351.51091,573.75626 353.19633,575.64392 C 354.8986,577.51474 357.09807,578.45015 359.79476,578.45015 C 360.73858,578.45015 361.58129,578.37431 362.32289,578.22262 C 363.06446,578.05408 363.68806,577.70857 364.19371,577.18608 C 364.31167,577.05125 364.42122,576.89957 364.52236,576.73102 C 364.62347,576.56248 364.71617,576.38551 364.80046,576.20011 C 364.88471,575.96416 364.95213,575.74505 365.00271,575.5428 C 365.07011,575.34055 365.11224,575.18044 365.12911,575.06245 C 365.1628,574.92763 365.19651,574.83493 365.23024,574.78436 C 365.26393,574.71695 365.31449,574.68324 365.38193,574.68323 C 365.44932,574.68324 365.49146,574.72537 365.50833,574.80964 C 365.54202,574.87706 365.55888,574.96133 365.5589,575.06245 C 365.55888,575.11302 365.5336,575.3237 365.48305,575.69449 C 365.43247,576.04843 365.37348,576.43608 365.30608,576.85743 C 365.27236,577.02597 365.23865,577.20294 365.20496,577.38834 C 365.17123,577.55688 365.13752,577.71699 365.10383,577.86868 C 365.08696,577.95295 365.07011,578.0288 365.05327,578.09621 C 365.0364,578.16363 365.01954,578.23105 365.00271,578.29846 C 364.98583,578.34903 364.96898,578.39959 364.95214,578.45015 C 364.95213,578.48386 364.9437,578.51757 364.92686,578.55128 C 364.89314,578.63555 364.851,578.70296 364.80046,578.75353 C 364.76673,578.80409 364.70774,578.85465 364.62349,578.90521 C 364.58976,578.92207 364.54763,578.93892 364.49708,578.95578 C 364.46335,578.97263 364.41279,578.99791 364.34539,579.03162 C 363.97458,579.16645 363.48581,579.27601 362.87908,579.36028 C 362.28916,579.4614 361.68241,579.52882 361.05882,579.56253 C 360.8397,579.56253 360.6206,579.56253 360.40151,579.56253 C 360.19924,579.57938 359.99699,579.58781 359.79476,579.58781 L 359.79476,579.58781 M 369.9034,571.90229 L 369.9034,567.45278 C 369.9034,565.56512 369.9034,564.30106 369.9034,563.66058 C 369.9034,563.00329 369.88654,562.48081 369.85284,562.09314 C 369.85283,562.0763 369.85283,562.06788 369.85284,562.06786 C 369.85283,562.05102 369.85283,562.03417 369.85284,562.0173 C 369.83598,561.57911 369.75171,561.25045 369.60002,561.03133 C 369.46519,560.81224 369.18709,560.66055 368.76574,560.57626 C 368.71517,560.55943 368.64776,560.551 368.56349,560.55098 C 368.47922,560.53415 368.39495,560.52572 368.31068,560.5257 C 368.24326,560.50887 368.16741,560.50044 368.08315,560.50042 C 368.01573,560.50044 367.95674,560.50044 367.90618,560.50042 C 367.85561,560.50044 367.80505,560.49201 367.75449,560.47514 C 367.72078,560.44145 367.70392,560.39931 367.70393,560.34873 C 367.70392,560.26448 367.73763,560.21392 367.80505,560.19704 C 367.87247,560.16335 367.97359,560.1465 368.10843,560.14648 C 368.24326,560.1465 368.37809,560.1465 368.51293,560.14648 C 368.66461,560.1465 368.8163,560.1465 368.96799,560.14648 C 369.13653,560.16335 369.29664,560.17178 369.44834,560.17176 C 369.61687,560.17178 369.77699,560.17178 369.92868,560.17176 C 370.19834,560.18864 370.42588,560.20549 370.61128,560.22232 C 370.81352,560.22234 370.9315,560.22234 370.96521,560.22232 C 371.03263,560.22234 371.18431,560.22234 371.42028,560.22232 C 371.67309,560.20549 371.95961,560.18864 372.27984,560.17176 C 372.3304,560.17178 372.38096,560.17178 372.43153,560.17176 C 372.49894,560.17178 372.55793,560.17178 372.6085,560.17176 C 372.86131,560.17178 373.10569,560.17178 373.34166,560.17176 C 373.57761,560.15493 373.77986,560.1465 373.94841,560.14648 C 374.1338,560.1465 374.31077,560.15493 374.47932,560.17176 C 374.6647,560.17178 374.84167,560.17178 375.01022,560.17176 C 375.65067,560.20549 376.27428,560.30661 376.88104,560.47514 C 377.48778,560.62684 378.0524,560.88808 378.57489,561.25886 C 378.676,561.32629 378.77713,561.41056 378.87827,561.51167 C 378.99623,561.61281 379.11421,561.73079 379.2322,561.86561 C 379.50186,562.18586 379.74624,562.59036 379.96536,563.07911 C 380.20131,563.55105 380.31928,564.09038 380.3193,564.69712 C 380.31928,565.62411 380.09175,566.56795 379.6367,567.52862 C 379.19848,568.48932 378.40633,569.49215 377.26026,570.5371 C 378.30521,571.86859 379.25747,573.08209 380.11705,574.17761 C 380.99345,575.27314 381.79403,576.21697 382.51877,577.00912 C 383.20978,577.73385 383.81653,578.20577 384.33903,578.42487 C 384.86149,578.64397 385.28284,578.77881 385.60309,578.82937 C 385.83903,578.86308 386.04128,578.88836 386.20985,578.90521 C 386.39522,578.90521 386.52163,578.90521 386.58907,578.90521 C 386.65646,578.90521 386.70702,578.92207 386.74075,578.95578 C 386.79129,578.98949 386.81658,579.02319 386.8166,579.0569 C 386.81658,579.12432 386.77444,579.16645 386.69019,579.18331 C 386.6059,579.21702 386.44578,579.23387 386.20985,579.23387 L 384.41487,579.23387 C 383.72383,579.23387 383.1845,579.20859 382.79687,579.15803 C 382.42606,579.09061 382.08055,578.97263 381.76033,578.80409 C 381.76032,578.80409 381.75189,578.80409 381.73505,578.80409 C 381.73504,578.78723 381.72661,578.77881 381.70977,578.77881 C 381.55807,578.69454 381.41481,578.60184 381.27999,578.50071 C 381.14514,578.39959 381.01031,578.29004 380.87549,578.17206 C 380.48783,577.83497 380.09175,577.40519 379.68727,576.88271 C 379.28275,576.36023 378.81926,575.75348 378.2968,575.06245 C 378.21251,574.96133 378.12824,574.85178 378.04398,574.7338 C 377.9597,574.61582 377.87543,574.50627 377.79117,574.40514 C 377.75745,574.35458 377.71531,574.30402 377.66476,574.25345 C 377.63104,574.18604 377.59733,574.12705 377.56364,574.07648 C 377.14227,573.5203 376.7462,572.98939 376.37542,572.48376 C 376.02147,571.96129 375.74337,571.57364 375.54113,571.32082 C 375.52427,571.30397 375.50741,571.29555 375.49057,571.29554 C 375.49056,571.27869 375.48213,571.26184 375.46529,571.24498 C 375.43157,571.22813 375.38943,571.21128 375.33888,571.19441 C 375.30516,571.17757 375.26303,571.16914 375.21248,571.16913 L 372.10287,571.09329 C 372.03545,571.11015 371.98489,571.13543 371.95119,571.16913 C 371.93433,571.20285 371.9259,571.25341 371.9259,571.32082 L 371.9259,571.90229 C 371.9259,573.13265 371.9259,574.22818 371.9259,575.18886 C 371.94275,576.1327 371.98489,576.87428 372.05231,577.41362 C 372.08601,577.78441 372.16186,578.09621 372.27984,578.34902 C 372.41467,578.60184 372.66748,578.75353 373.03828,578.80409 C 373.10569,578.82094 373.17311,578.8378 373.24053,578.85465 C 373.3248,578.85465 373.40907,578.85465 373.49335,578.85465 C 373.62817,578.87151 373.75458,578.88836 373.87257,578.90521 C 374.00739,578.90521 374.10852,578.90521 374.17594,578.90521 C 374.2602,578.90521 374.31077,578.92207 374.32763,578.95578 C 374.36133,578.98949 374.37818,579.02319 374.37819,579.0569 C 374.37818,579.12432 374.34447,579.16645 374.27707,579.18331 C 374.20964,579.21702 374.10852,579.23387 373.97369,579.23387 C 373.88941,579.23387 373.80514,579.23387 373.72088,579.23387 C 373.6366,579.23387 373.55233,579.23387 373.46806,579.23387 C 373.19839,579.23387 372.92872,579.22544 372.65906,579.20859 C 372.40624,579.20859 372.17028,579.20859 371.95119,579.20859 C 371.6478,579.19174 371.39499,579.17488 371.19275,579.15803 C 371.00734,579.15803 370.89779,579.15803 370.86409,579.15803 C 370.86408,579.15803 370.77139,579.15803 370.586,579.15803 C 370.41745,579.17488 370.20677,579.19174 369.95396,579.20859 C 369.86969,579.20859 369.78542,579.20859 369.70115,579.20859 C 369.63373,579.20859 369.55788,579.20859 369.47362,579.20859 C 369.28822,579.22544 369.11125,579.23387 368.94271,579.23387 C 368.77416,579.23387 368.62248,579.23387 368.48765,579.23387 C 368.35281,579.23387 368.25168,579.21702 368.18427,579.18331 C 368.11685,579.16645 368.08314,579.12432 368.08315,579.0569 C 368.08314,579.02319 368.1,578.98949 368.13371,578.95578 C 368.16741,578.92207 368.21798,578.90521 368.2854,578.90521 C 368.33596,578.90521 368.39495,578.90521 368.46237,578.90521 C 368.52978,578.88836 368.5972,578.87993 368.66462,578.87993 C 368.73203,578.86308 368.79945,578.85465 368.86687,578.85465 C 368.93428,578.8378 368.99327,578.82094 369.04384,578.80409 C 369.29664,578.75353 369.46519,578.60184 369.54946,578.34902 C 369.65058,578.09621 369.72643,577.78441 369.77699,577.41362 C 369.84441,576.87428 369.87811,576.1327 369.87812,575.18886 C 369.89497,574.22818 369.9034,573.14108 369.9034,571.92757 L 369.9034,571.90229 M 371.9259,561.38527 L 371.9259,569.65225 C 371.9259,569.73653 371.93433,569.80395 371.95119,569.8545 C 371.98489,569.90508 372.03545,569.94721 372.10287,569.98091 C 372.28826,570.08205 372.60849,570.17474 373.06356,570.25901 C 373.53547,570.32643 374.03267,570.36857 374.55516,570.38541 C 374.58886,570.38542 374.62257,570.38542 374.65629,570.38541 C 374.68999,570.38542 374.72369,570.38542 374.75741,570.38541 C 374.89224,570.38542 375.02707,570.38542 375.16191,570.38541 C 375.31359,570.36857 375.46528,570.34329 375.61698,570.30957 C 375.78551,570.27587 375.95405,570.23373 376.1226,570.18316 C 376.30799,570.11575 376.48496,570.02306 376.65351,569.90507 C 377.09171,569.6017 377.45407,569.12136 377.74061,568.46403 C 378.04397,567.78988 378.19566,566.97245 378.19567,566.01175 C 378.19566,564.42746 377.79958,563.18868 377.00745,562.29539 C 376.23214,561.40214 375.17033,560.9555 373.822,560.95548 C 373.4512,560.9555 373.10569,560.97236 372.78547,561.00605 C 372.48209,561.03977 372.26298,561.07348 372.12816,561.10717 C 372.06073,561.12404 372.01017,561.15775 371.97647,561.2083 C 371.94275,561.25888 371.9259,561.32629 371.9259,561.41055 L 371.9259,561.38527 M 388.60891,571.90229 L 388.60891,567.45278 C 388.6089,565.56512 388.6089,564.30106 388.60891,563.66058 C 388.6089,563.00329 388.59205,562.48081 388.55834,562.09314 C 388.55834,562.0763 388.55834,562.06788 388.55834,562.06786 C 388.55834,562.05102 388.55834,562.03417 388.55834,562.0173 C 388.54148,561.57911 388.45721,561.25045 388.30553,561.03133 C 388.17069,560.81224 387.8926,560.66055 387.47125,560.57626 C 387.42068,560.55943 387.35326,560.551 387.269,560.55098 C 387.18472,560.53415 387.10045,560.52572 387.01618,560.5257 C 386.94876,560.50887 386.87292,560.50044 386.78865,560.50042 C 386.72123,560.50044 386.66224,560.50044 386.61168,560.50042 C 386.56112,560.50044 386.51055,560.49201 386.45999,560.47514 C 386.42628,560.44145 386.40943,560.39931 386.40943,560.34873 C 386.40943,560.26448 386.44314,560.21392 386.51056,560.19704 C 386.57797,560.16335 386.6791,560.1465 386.81393,560.14648 C 386.94876,560.1465 387.0836,560.1465 387.21843,560.14648 C 387.37012,560.1465 387.52181,560.1465 387.6735,560.14648 C 387.84203,560.16335 388.00215,560.17178 388.15384,560.17176 C 388.32238,560.17178 388.48249,560.17178 388.63419,560.17176 C 388.90385,560.18864 389.13138,560.20549 389.31678,560.22232 C 389.51903,560.22234 389.63701,560.22234 389.67072,560.22232 C 389.72128,560.22234 390.04151,560.22234 390.63141,560.22232 C 391.23815,560.22234 391.88704,560.22234 392.57807,560.22232 C 393.23538,560.22234 393.84213,560.22234 394.39833,560.22232 C 394.97136,560.20549 395.3253,560.19706 395.46014,560.19704 C 395.69609,560.18021 395.90677,560.16335 396.09217,560.14648 C 396.29441,560.11279 396.4461,560.08751 396.54724,560.07064 C 396.58093,560.07066 396.60621,560.06223 396.62308,560.04536 C 396.65678,560.02852 396.68206,560.02009 396.69892,560.02007 C 396.69891,560.00324 396.69891,559.99481 396.69892,559.99479 C 396.71577,559.99481 396.72419,559.99481 396.72421,559.99479 C 396.7579,559.97796 396.78318,559.96953 396.80005,559.96951 C 396.83375,559.95268 396.86745,559.94425 396.90118,559.94423 C 396.93487,559.94425 396.96015,559.96953 396.97702,560.02007 C 396.99386,560.0538 397.00229,560.10436 397.0023,560.17176 C 397.00229,560.2392 396.98543,560.32347 396.95174,560.42458 C 396.93487,560.52572 396.90959,560.66898 396.87589,560.85436 C 396.85903,560.92179 396.84217,560.99764 396.82533,561.08189 C 396.82532,561.16618 396.81689,561.25888 396.80005,561.35998 C 396.80004,561.42742 396.79161,561.5454 396.77477,561.71392 C 396.7579,561.86563 396.74947,562.03417 396.74949,562.21955 C 396.73262,562.38811 396.71577,562.54822 396.69892,562.69989 C 396.69891,562.8516 396.69048,562.96115 396.67364,563.02855 C 396.67363,563.04542 396.67363,563.06228 396.67364,563.07911 C 396.67363,563.07913 396.67363,563.07913 396.67364,563.07911 C 396.65678,563.12969 396.6315,563.18025 396.5978,563.2308 C 396.58093,563.28138 396.54722,563.30666 396.49667,563.30664 C 396.42925,563.30666 396.37868,563.28138 396.34499,563.2308 C 396.31127,563.1634 396.29441,563.07913 396.29442,562.97799 C 396.29441,562.91059 396.28598,562.82632 396.26914,562.72517 C 396.26913,562.62407 396.2607,562.51451 396.24386,562.39652 C 396.22699,562.34597 396.21014,562.29541 396.1933,562.24483 C 396.17643,562.17743 396.15958,562.11844 396.14274,562.06786 C 396.05845,561.86563 395.90677,561.68866 395.68767,561.53695 C 395.48541,561.38528 395.03877,561.27573 394.34776,561.2083 C 394.24663,561.19146 394.02752,561.18303 393.69045,561.18301 C 393.37021,561.16618 393.01627,561.15775 392.62863,561.15773 C 392.22412,561.1409 391.84491,561.13247 391.49097,561.13245 C 391.15388,561.13247 390.95163,561.13247 390.88422,561.13245 C 390.83365,561.13247 390.79152,561.15775 390.75782,561.2083 C 390.74096,561.24202 390.73253,561.30101 390.73254,561.38527 L 390.73254,568.33763 C 390.73253,568.43876 390.74096,568.51461 390.75782,568.56516 C 390.77466,568.59888 390.8168,568.61573 390.88422,568.61572 C 390.96849,568.61573 391.21287,568.61573 391.61738,568.61572 C 392.02187,568.61573 392.46008,568.61573 392.93201,568.61572 C 393.35336,568.61573 393.74943,568.61573 394.12023,568.61572 C 394.50787,568.59888 394.76911,568.58202 394.90395,568.56516 C 395.20732,568.53146 395.4517,568.49775 395.63711,568.46403 C 395.82249,568.41348 395.97418,568.32921 396.09217,568.21122 C 396.17643,568.11011 396.24385,568.03426 396.29442,567.98369 C 396.36183,567.91628 396.42082,567.88257 396.47139,567.88256 C 396.50509,567.88257 396.53037,567.89943 396.54724,567.93312 C 396.58093,567.94999 396.59779,568.00055 396.5978,568.08481 C 396.59779,568.13539 396.58093,568.22808 396.54724,568.36291 C 396.53037,568.49775 396.50509,568.67472 396.47139,568.89381 C 396.45453,568.9781 396.43767,569.07079 396.42083,569.17191 C 396.42082,569.27304 396.41239,569.3826 396.39555,569.50057 C 396.37868,569.58485 396.36183,569.68597 396.34499,569.80394 C 396.34497,569.92193 396.34497,570.03991 396.34499,570.15788 C 396.32812,570.37699 396.31127,570.57924 396.29442,570.76463 C 396.29441,570.95004 396.29441,571.06802 396.29442,571.11857 C 396.29441,571.13543 396.29441,571.16071 396.29442,571.19441 C 396.29441,571.21128 396.29441,571.22813 396.29442,571.24498 C 396.29441,571.34611 396.27756,571.43038 396.24386,571.49779 C 396.22699,571.56521 396.18486,571.59892 396.11745,571.59891 C 396.05003,571.59892 395.99946,571.58207 395.96577,571.54835 C 395.9489,571.4978 395.94047,571.43881 395.94049,571.37138 C 395.94047,571.23656 395.93205,571.11015 395.9152,570.99216 C 395.91519,570.85734 395.88991,570.70565 395.83936,570.5371 C 395.82249,570.5034 395.80564,570.46969 395.7888,570.43597 C 395.78879,570.40227 395.78036,570.36857 395.76352,570.33485 C 395.69609,570.18317 395.56968,570.03991 395.3843,569.90507 C 395.21574,569.77024 394.92922,569.68597 394.52473,569.65225 C 394.37303,569.63541 394.12865,569.61856 393.79157,569.60169 C 393.47133,569.58485 393.13425,569.57642 392.78032,569.57641 C 392.35896,569.55957 391.97131,569.55114 391.61738,569.55113 C 391.26344,569.53428 391.02748,569.52586 390.9095,569.52585 C 390.84208,569.52586 390.79152,569.54271 390.75782,569.57641 C 390.74096,569.61013 390.73253,569.65226 390.73254,569.70282 L 390.73254,571.90229 C 390.73253,572.05399 390.73253,572.25624 390.73254,572.50904 C 390.73253,572.76186 390.73253,573.03153 390.73254,573.31804 C 390.73253,573.43603 390.73253,573.55401 390.73254,573.67198 C 390.73253,573.77311 390.73253,573.88267 390.73254,574.00064 C 390.73253,574.48942 390.73253,574.95291 390.73254,575.39111 C 390.73253,575.82932 390.73253,576.11585 390.73254,576.25068 C 390.76624,577.1271 390.95163,577.69171 391.28872,577.94452 C 391.64265,578.19734 392.4348,578.32374 393.66517,578.32374 C 393.8337,578.32374 394.0191,578.32374 394.22136,578.32374 C 394.44045,578.32374 394.65956,578.31532 394.87867,578.29846 C 395.09776,578.28161 395.30844,578.25633 395.5107,578.22262 C 395.7298,578.17206 395.92362,578.11307 396.09217,578.04565 C 396.42925,577.91082 396.68206,577.70857 396.85061,577.4389 C 397.01914,577.15238 397.14555,576.74788 397.22983,576.22539 C 397.26353,576.09056 397.28881,575.99787 397.30568,575.9473 C 397.33937,575.87989 397.38993,575.84618 397.45736,575.84618 C 397.52477,575.84618 397.5669,575.87989 397.58377,575.9473 C 397.60061,576.01472 397.60904,576.09056 397.60905,576.17483 C 397.60904,576.17484 397.60904,576.18326 397.60905,576.20011 C 397.60904,576.20012 397.60904,576.20854 397.60905,576.22539 C 397.60904,576.27596 397.59218,576.43608 397.55849,576.70574 C 397.54162,576.95856 397.50791,577.22822 397.45736,577.51474 C 397.45735,577.59901 397.44892,577.69171 397.43208,577.79284 C 397.41522,577.87711 397.40679,577.96138 397.4068,578.04565 C 397.37308,578.16363 397.3478,578.28161 397.33096,578.39959 C 397.31409,578.51757 397.29724,578.61027 397.28039,578.67768 C 397.19611,578.99791 397.0697,579.18331 396.90118,579.23387 C 396.73262,579.28443 396.40396,579.30971 395.9152,579.30971 C 394.9545,579.30971 394.12022,579.30129 393.41235,579.28443 C 392.72132,579.26758 392.13143,579.25072 391.64266,579.23387 C 391.13703,579.21702 390.7241,579.20016 390.40388,579.18331 C 390.1005,579.16645 389.85611,579.15803 389.67072,579.15803 C 389.63701,579.15803 389.51903,579.15803 389.31678,579.15803 C 389.13138,579.17488 388.91228,579.19174 388.65947,579.20859 C 388.59205,579.20859 388.52463,579.20859 388.45722,579.20859 C 388.3898,579.20859 388.31395,579.20859 388.22969,579.20859 C 388.04429,579.20859 387.85889,579.20859 387.6735,579.20859 C 387.4881,579.22544 387.32798,579.23387 387.19315,579.23387 C 387.05832,579.23387 386.95719,579.21702 386.88978,579.18331 C 386.82236,579.16645 386.78865,579.12432 386.78865,579.0569 C 386.78865,579.02319 386.8055,578.98949 386.83921,578.95578 C 386.87292,578.92207 386.92348,578.90521 386.9909,578.90521 C 387.04146,578.90521 387.10045,578.90521 387.16787,578.90521 C 387.23528,578.88836 387.3027,578.87993 387.37012,578.87993 C 387.43753,578.86308 387.50495,578.85465 387.57237,578.85465 C 387.63978,578.8378 387.69877,578.82094 387.74934,578.80409 C 388.00215,578.75353 388.17069,578.60184 388.25497,578.34902 C 388.35609,578.09621 388.43193,577.78441 388.4825,577.41362 C 388.54991,576.87428 388.58362,576.1327 388.58362,575.18886 C 388.60047,574.22818 388.6089,573.14108 388.60891,571.92757 L 388.60891,571.90229 M 410.40626,561.2083 L 410.40626,571.90229 C 410.40625,573.13265 410.40625,574.22818 410.40626,575.18886 C 410.42311,576.1327 410.46524,576.87428 410.53267,577.41362 C 410.56637,577.78441 410.64221,578.09621 410.7602,578.34902 C 410.89502,578.60184 411.14784,578.75353 411.51864,578.80409 C 411.58605,578.82094 411.65346,578.8378 411.72089,578.85465 C 411.80515,578.85465 411.88942,578.85465 411.9737,578.85465 C 412.10853,578.87151 412.23493,578.88836 412.35292,578.90521 C 412.48774,578.90521 412.58887,578.90521 412.6563,578.90521 C 412.74056,578.90521 412.79112,578.92207 412.80799,578.95578 C 412.84168,578.98949 412.85854,579.02319 412.85855,579.0569 C 412.85854,579.12432 412.82483,579.16645 412.75742,579.18331 C 412.68999,579.21702 412.58887,579.23387 412.45405,579.23387 C 412.36977,579.23387 412.28549,579.23387 412.20123,579.23387 C 412.11695,579.23387 412.03268,579.23387 411.94842,579.23387 C 411.67874,579.23387 411.40908,579.22544 411.13942,579.20859 C 410.8866,579.20859 410.65064,579.20859 410.43154,579.20859 C 410.12816,579.19174 409.87534,579.17488 409.6731,579.15803 C 409.4877,579.15803 409.37815,579.15803 409.34445,579.15803 C 409.31073,579.15803 409.19275,579.15803 408.99051,579.15803 C 408.8051,579.17488 408.586,579.19174 408.33319,579.20859 C 408.26577,579.20859 408.19835,579.20859 408.13094,579.20859 C 408.06352,579.20859 407.98768,579.20859 407.90341,579.20859 C 407.71801,579.20859 407.53261,579.20859 407.34722,579.20859 C 407.16182,579.22544 407.00171,579.23387 406.86688,579.23387 C 406.73204,579.23387 406.63091,579.21702 406.5635,579.18331 C 406.49608,579.16645 406.46237,579.12432 406.46238,579.0569 C 406.46237,579.02319 406.47923,578.98949 406.51294,578.95578 C 406.54664,578.92207 406.5972,578.90521 406.66463,578.90521 C 406.71518,578.90521 406.77417,578.90521 406.8416,578.90521 C 406.90901,578.88836 406.97642,578.87993 407.04385,578.87993 C 407.11126,578.86308 407.17867,578.85465 407.2461,578.85465 C 407.31351,578.8378 407.3725,578.82094 407.42307,578.80409 C 407.67587,578.75353 407.84441,578.60184 407.92869,578.34902 C 408.02981,578.09621 408.10565,577.78441 408.15623,577.41362 C 408.22363,576.87428 408.25734,576.1327 408.25735,575.18886 C 408.2742,574.22818 408.28262,573.14108 408.28263,571.92757 L 408.28263,561.2083 L 404.541,561.25886 C 403.7657,561.29259 403.19266,561.36843 402.82187,561.48639 C 402.45107,561.58753 402.16455,561.78978 401.9623,562.09314 C 401.82747,562.31226 401.72634,562.48081 401.65893,562.59877 C 401.60836,562.69991 401.56623,562.79261 401.53252,562.87686 C 401.49881,562.978 401.45668,563.04542 401.40612,563.07911 C 401.37241,563.11284 401.33027,563.12969 401.27971,563.12968 C 401.246,563.12969 401.21229,563.11284 401.17858,563.07911 C 401.16173,563.02857 401.1533,562.96958 401.1533,562.90214 C 401.1533,562.83474 401.17858,562.67463 401.22915,562.4218 C 401.27971,562.169 401.3387,561.89091 401.40612,561.58752 C 401.40611,561.57068 401.40611,561.55382 401.40612,561.53695 C 401.42297,561.52012 401.4314,561.50326 401.4314,561.48639 C 401.49881,561.19989 401.5578,560.93865 401.60837,560.70267 C 401.65893,560.46673 401.69264,560.32347 401.70949,560.27289 C 401.72634,560.2392 401.73477,560.20549 401.73477,560.17176 C 401.75163,560.13807 401.76848,560.10436 401.78533,560.07064 C 401.80219,560.00324 401.82747,559.94425 401.86118,559.89367 C 401.89489,559.82627 401.92859,559.79256 401.9623,559.79254 C 402.01287,559.79256 402.07185,559.80942 402.13927,559.84311 C 402.20669,559.87683 402.29096,559.91054 402.39209,559.94423 C 402.47636,559.97796 402.56905,560.01167 402.67018,560.04536 C 402.78816,560.06223 402.92299,560.07908 403.07468,560.09592 C 403.1758,560.11279 403.27693,560.12965 403.37806,560.14648 C 403.47918,560.1465 403.5803,560.1465 403.68143,560.14648 C 403.96795,560.16335 404.23762,560.18021 404.49044,560.19704 C 404.7601,560.21392 404.95392,560.22234 405.07191,560.22232 L 414.5524,560.19704 C 414.95688,560.21392 415.30239,560.21392 415.58893,560.19704 C 415.89229,560.16335 416.1451,560.12965 416.34737,560.09592 C 416.53275,560.06223 416.68444,560.03695 416.80243,560.02007 C 416.9204,559.98639 417.00467,559.96953 417.05525,559.96951 C 417.12265,559.96953 417.15636,560.00324 417.15637,560.07064 C 417.17321,560.12122 417.18164,560.18864 417.18165,560.27289 C 417.18164,560.42459 417.17321,560.60999 417.15637,560.82908 C 417.15636,561.0482 417.15636,561.27573 417.15637,561.51167 C 417.15636,561.56225 417.15636,561.62124 417.15637,561.68864 C 417.15636,561.73922 417.15636,561.78978 417.15637,561.84033 C 417.1395,562.12687 417.12265,562.38811 417.10581,562.62405 C 417.10579,562.84317 417.10579,562.98643 417.10581,563.05383 C 417.10579,563.17183 417.08894,563.2561 417.05525,563.30664 C 417.02152,563.35722 416.97939,563.3825 416.92884,563.38249 C 416.86141,563.3825 416.81084,563.35722 416.77715,563.30664 C 416.76028,563.23924 416.74343,563.12126 416.72659,562.95271 L 416.70131,562.64933 C 416.65073,562.27856 416.4232,561.96675 416.01871,561.71392 C 415.6142,561.44427 414.8052,561.30101 413.59171,561.28414 L 410.40626,561.2083 L 410.40626,561.2083"
       id="text3225"
       style="font-size:37.45385742px;font-style:normal;font-weight:normal;line-height:125%;fill:#f1396d;fill-opacity:1;stroke:none;stroke-width:1px;stroke-linecap:butt;stroke-linejoin:miter;stroke-opacity:1;font-family:Bitstream Vera Sans" />
  </g>
</svg>
