<svg width="429" height="444" viewBox="0 0 429 444" fill="none" xmlns="http://www.w3.org/2000/svg">
<path fill-rule="evenodd" clip-rule="evenodd" d="M318.4 341.9C318.2 336.6 323.4 332.1 328.6 332.9C332.5 333.1 335.2 336.3 336.8 339.4C349 359.5 361.3 379.5 373.6 399.5C386.4 378.7 399 357.9 411.8 337.1C413.6 334 417.3 332.4 420.8 332.8C424.7 333.1 427.8 336.4 428.7 340.1V435.5C427.8 440.8 422.1 444.2 417.1 442.7C413.3 441.7 410.4 437.9 410.5 434C410.4 414.1 410.5 394.3 410.5 374.4C401.2 389.6 392.1 404.9 382.6 420C380.7 422.8 378.5 425.9 375 426.7C371.2 427.5 367.7 424.9 365.8 421.9C356.2 406 346.5 390.2 336.8 374.4C336.8 394.3 336.8 414.1 336.8 434C337 439 332.3 443.5 327.3 443C322.5 443.1 318.3 438.7 318.5 434C318.3 403.4 318.3 372.6 318.4 341.9ZM236.1 353.1C220.8 356.2 208.4 370.5 208 386.2C207.3 396.6 211.6 407.1 219.3 414.1C226.9 421.6 238.1 425 248.6 423.5C259.5 422.2 269.1 415.2 274.6 405.9C279.2 398.2 280.3 388.7 278.4 380C276.3 370.4 269.8 362.1 261.5 357.2C254 352.5 244.7 351.4 236.1 353.1ZM232.6 333.9C244.5 331.8 257.1 332.9 268 338.3C278.1 343.4 286.6 351.5 292.2 361.3C298.1 371.8 300 384.3 298.4 396.1C295.2 421.3 272.2 442.5 246.7 443C235.6 443.6 224.3 441.1 214.9 435.1C202.9 427.4 193.3 415.2 190.1 401.2C187 387.4 188.7 372.2 196.2 360C204 346.9 217.3 336.7 232.6 333.9ZM112.6 353.1C97.1 356.3 84.6 371 84.6 386.9C84.1 397.2 88.6 407.5 96.2 414.3C103.7 421.6 114.7 424.8 125 423.4C136.1 422.2 146 415 151.5 405.4C155.8 397.9 156.9 388.9 155.2 380.5C153.3 370.6 146.6 361.9 137.9 356.9C130.4 352.5 121.1 351.4 112.6 353.1ZM116.7 333C128.3 332.3 140.2 334.9 149.9 341.4C161.6 349.1 170.8 361.1 173.9 374.8C177.1 389 175.2 404.6 167.3 417C161.2 426.5 152.4 434.4 142 438.9C132.2 443.2 121.1 443.9 110.6 442.4C94.9 440 81.1 429.6 72.8 416.3C66 405.5 63.9 392.2 65.6 379.6C68.9 354.8 91.5 333.8 116.7 333ZM33.9 333C39.4 331.7 45.5 336.1 45.5 341.8C45.6 364.5 45.5 387.1 45.5 409.8C45.6 417.7 42.5 425.5 37.2 431.3C29.8 439.6 18.5 444.2 7.39997 442.9C3.39997 442.1 -0.100031 438.3 0.0999693 434.1C-0.100031 429.8 3.39997 426.1 7.49997 425.2C9.99997 424.8 12.6 424.9 15 424.1C21.2 422.2 26.1 416.3 26 409.7C26.1 387.1 26 364.5 26.1 341.8C26 337.6 29.7 333.7 33.9 333Z" fill="#3C4056"/>
<path fill-rule="evenodd" clip-rule="evenodd" d="M302.8 0.700195H305C305 61.8002 305 122.8 305 183.9C305 191.6 305.3 199.4 303.5 206.9C299.1 228 285.7 247 267.3 258.2C255.4 265.6 241.5 269.6 227.5 270.1H226.1C226.1 206.3 226 142.6 226.1 78.8002C225.8 57.2002 235.8 36.1002 251.6 21.6002C265.6 8.9002 284 1.5002 302.8 0.700195Z" fill="#3C4056"/>
<path fill-rule="evenodd" clip-rule="evenodd" d="M122.3 229.701C121.1 207.901 142.1 189.001 163.5 190.601C184.2 191.101 202.2 210.301 201.3 231.001C201.5 250.801 184.7 268.401 165.1 270.101H158.3C138.3 268.401 120.5 250.201 122.3 229.701Z" fill="#F63E45"/>
</svg>
