<svg id="Layer_1" height="512" viewBox="0 0 256 256" width="512" xmlns="http://www.w3.org/2000/svg"><g><path d="m41.687 66.087h172.626v163.319h-172.626z" fill="#f8af23"/><g><path d="m41.687 66.087h14.667v163.319h-14.667z" fill="#f87023"/></g><g><path d="m199.646 66.087h14.667v163.319h-14.667z" fill="#f8d323"/></g><path d="m89.31 203.013h77.38v26.394h-77.38z" fill="#63bce7"/><g><circle cx="128" cy="55.994" fill="#63bce7" r="40.374"/><circle cx="128" cy="55.994" fill="#cecece" r="28.395"/><path d="m128.901 179.633h-1.802c-5.988 0-10.843-4.854-10.843-10.843v-45.453c0-5.988 4.854-10.843 10.843-10.843h1.802c5.988 0 10.843 4.854 10.843 10.843v45.453c0 5.988-4.855 10.843-10.843 10.843z" fill="#63bce7"/><g><g><g><path d="m121.777 71.202c-1.279 0-2.56-.467-3.566-1.404l-7.505-6.993c-2.115-1.971-2.232-5.282-.262-7.396 1.972-2.114 5.283-2.23 7.396-.261l3.81 3.55 16.378-16.378c2.042-2.043 5.358-2.043 7.4 0 2.044 2.044 2.044 5.357 0 7.401l-19.95 19.949c-1.02 1.019-2.359 1.532-3.701 1.532z" fill="#f8af23"/></g></g><g fill="#3f3679"><path d="m27.323 238.879h-18.003c-.829 0-1.5.671-1.5 1.5s.671 1.5 1.5 1.5h18.003c.829 0 1.5-.671 1.5-1.5s-.671-1.5-1.5-1.5z"/><path d="m246.68 238.879h-18.003c-.828 0-1.5.671-1.5 1.5s.672 1.5 1.5 1.5h18.003c.828 0 1.5-.671 1.5-1.5s-.672-1.5-1.5-1.5z"/><path d="m218.479 238.879h-180.958c-.829 0-1.5.671-1.5 1.5s.671 1.5 1.5 1.5h180.959c.828 0 1.5-.671 1.5-1.5s-.672-1.5-1.501-1.5z"/><path d="m9.32 230.907h32.367 47.623 77.38 47.622 32.367c.828 0 1.5-.671 1.5-1.5s-.672-1.5-1.5-1.5h-30.867v-161.82c0-.829-.672-1.5-1.5-1.5h-45.329c.581-2.775.89-5.648.89-8.593 0-23.089-18.784-41.874-41.874-41.874-23.089 0-41.874 18.784-41.874 41.874 0 2.945.309 5.818.89 8.593h-45.328c-.829 0-1.5.671-1.5 1.5v161.819h-30.867c-.829 0-1.5.671-1.5 1.5s.671 1.501 1.5 1.501zm81.49-3v-23.394h74.38v23.394zm37.19-210.786c21.436 0 38.874 17.438 38.874 38.874s-17.438 38.873-38.874 38.873c-21.435 0-38.874-17.439-38.874-38.874s17.439-38.873 38.874-38.873zm-.901 96.874h1.802c5.151 0 9.342 4.191 9.342 9.342v45.453c0 5.152-4.191 9.343-9.342 9.343h-1.802c-5.152 0-9.343-4.191-9.343-9.343v-45.453c0-5.151 4.191-9.342 9.343-9.342zm-83.912-46.408h44.584c4.909 17.005 20.321 29.59 38.729 30.243v13.195c-6.527.316-11.744 5.708-11.744 12.312v45.453c0 6.806 5.537 12.343 12.343 12.343h1.802c6.805 0 12.342-5.537 12.342-12.343v-45.453c0-6.603-5.217-11.996-11.743-12.312v-13.195c18.408-.652 33.82-13.238 38.729-30.243h44.584v160.319h-44.623v-24.894c0-.829-.672-1.5-1.5-1.5h-77.38c-.829 0-1.5.671-1.5 1.5v24.894h-44.623z"/><path d="m128 85.889c16.484 0 29.895-13.411 29.895-29.895s-13.411-29.895-29.895-29.895-29.895 13.411-29.895 29.895 13.411 29.895 29.895 29.895zm0-56.79c14.83 0 26.895 12.065 26.895 26.895s-12.065 26.895-26.895 26.895-26.895-12.065-26.895-26.895 12.065-26.895 26.895-26.895z"/><path d="m117.187 70.895c1.251 1.166 2.88 1.807 4.589 1.807 1.799 0 3.49-.7 4.761-1.972l19.95-19.949c1.271-1.271 1.973-2.962 1.973-4.761s-.701-3.489-1.973-4.761c-1.271-1.271-2.962-1.972-4.761-1.972-1.8 0-3.49.7-4.761 1.972l-15.354 15.354-2.751-2.563c-2.715-2.531-6.985-2.379-9.516.336-1.226 1.316-1.866 3.03-1.802 4.828.063 1.797.823 3.462 2.139 4.688zm-5.646-14.464c.734-.788 1.733-1.187 2.733-1.187.912 0 1.825.331 2.543 1l3.81 3.55c.591.55 1.513.535 2.083-.037l16.377-16.378c1.409-1.409 3.868-1.41 5.279 0 .705.706 1.094 1.643 1.094 2.64s-.389 1.935-1.094 2.64l-19.95 19.949c-1.375 1.374-3.761 1.417-5.184.092l-7.505-6.994c-1.505-1.403-1.589-3.77-.186-5.275z"/></g></g></g></g></svg>