<svg height="512" viewBox="0 0 512 512" width="512" xmlns="http://www.w3.org/2000/svg"><g id="Flat"><path d="m472 400v-40h-384v40a24 24 0 0 0 24 24h336a24 24 0 0 0 24-24z" fill="#c9c9c8"/><rect fill="#0093b9" height="320" rx="24" width="384" x="88" y="72"/><rect fill="#2ba3c4" height="288" rx="8" width="352" x="104" y="88"/><path d="m136 392h16v32h-16z" fill="#959494"/><path d="m16 280 16-16v-72a24 24 0 0 1 24-24h32v40l20-20a16.971 16.971 0 0 1 24 0 16.971 16.971 0 0 1 0 24l-36 36a45.255 45.255 0 0 1 0 64l-40 40z" fill="#f7c9a8"/><rect fill="#e5b18c" height="16.001" rx="8.001" transform="matrix(.707 -.707 .707 .707 -129.304 119.833)" width="22.627" x="68.686" y="207.999"/><path d="m384 296a16 16 0 0 0 -32 0v72l-12.8 6.4a34.709 34.709 0 0 0 -3.76 59.92l8.56 5.68 13.28 8.88a23.944 23.944 0 0 1 10.72 20v27.12h96v-40a151.554 151.554 0 0 0 16-67.777v-28.223a16 16 0 0 0 -32 0v-24a16 16 0 0 0 -32 0v-8a16 16 0 0 0 -32 0z" fill="#f7c9a8"/><g fill="#f8bc1e"><path d="m418.142 171.485 13.858-12.511-6.684-16.136-18.646.952-9.729-9.73.952-18.645-16.137-6.685-12.511 13.858h-13.76l-12.511-13.858-16.136 6.685.952 18.645-9.73 9.73-18.645-.952-6.685 16.136 13.858 12.511v13.76l-13.858 12.511 6.685 16.137 18.645-.952 9.73 9.729-.952 18.646 16.136 6.684 12.511-13.858h13.76l12.511 13.858 16.137-6.684-.952-18.646 9.729-9.729 18.646.952 6.684-16.137-13.858-12.511zm-55.777 28.515a21.635 21.635 0 1 1 21.635-21.635 21.635 21.635 0 0 1 -21.635 21.635z"/><path d="m296 336v-24h-16v24h-16v-40h-16v40h-16v-64h-16v64h-16v-40h-16v40h-16v-24h-16v24h-16v16h176v-16z"/><path d="m144 112h16v16h-16z"/><path d="m176 112h80v16h-80z"/><path d="m128 144h128v16h-128z"/><path d="m160 176h96v16h-96z"/><path d="m160 208h80v16h-80z"/></g><path d="m152 40h208v16h-208z" fill="#e3e4e2"/><path d="m376 40h16v16h-16z" fill="#e3e4e2"/><rect fill="#e5b18c" height="32" rx="8" width="16" x="440" y="344"/><rect fill="#e5b18c" height="40" rx="8" width="16" x="344" y="368"/><rect fill="#e5b18c" height="32" rx="8" width="16" x="408" y="336"/><rect fill="#e5b18c" height="32" rx="8" width="16" x="376" y="328"/></g></svg>