<?xml version="1.0" standalone="no"?>
<!DOCTYPE svg PUBLIC "-//W3C//DTD SVG 20010904//EN"
 "http://www.w3.org/TR/2001/REC-SVG-20010904/DTD/svg10.dtd">
<svg version="1.0" xmlns="http://www.w3.org/2000/svg"
 width="800.000000pt" height="800.000000pt" viewBox="0 0 800.000000 800.000000"
 preserveAspectRatio="xMidYMid meet">

<g transform="translate(0.000000,800.000000) scale(0.100000,-0.100000)"
fill="#000000" stroke="none">
<path d="M3845 7594 c-239 -35 -377 -76 -548 -162 -162 -82 -265 -158 -402
-296 -302 -303 -455 -672 -455 -1098 0 -605 341 -1148 885 -1408 214 -102 373
-139 625 -147 159 -5 202 -2 309 16 499 85 921 401 1142 856 103 212 146 384
156 615 7 174 -8 333 -36 370 -35 48 -100 52 -142 7 -19 -21 -20 -28 -12 -117
4 -52 7 -153 7 -225 -8 -737 -628 -1345 -1373 -1345 -761 0 -1381 620 -1381
1381 0 208 48 408 145 604 195 397 561 673 999 752 194 35 454 18 647 -43 188
-59 369 -163 512 -293 67 -62 82 -71 115 -71 56 1 92 38 92 95 0 64 -230 249
-435 350 -232 113 -399 154 -655 160 -91 2 -178 1 -195 -1z"/>
<path d="M3790 7195 c-417 -79 -761 -373 -899 -768 -44 -126 -40 -175 16 -205
63 -34 113 0 143 99 82 272 258 478 515 605 158 77 252 98 440 97 120 0 166
-4 227 -21 165 -45 304 -117 419 -219 40 -35 83 -66 96 -69 56 -15 122 53 107
110 -14 59 -195 199 -355 276 -163 77 -271 102 -469 106 -115 2 -188 -1 -240
-11z"/>
<path d="M5407 7025 c-14 -14 -120 -146 -235 -293 -116 -147 -293 -370 -393
-497 -100 -126 -236 -300 -304 -385 -67 -85 -202 -256 -300 -380 -97 -124
-181 -226 -186 -228 -5 -2 -82 61 -171 140 -513 453 -741 650 -764 658 -52 20
-114 -21 -114 -76 0 -60 -41 -20 615 -596 154 -135 300 -263 325 -285 98 -86
130 -93 185 -40 18 17 341 421 716 897 375 476 702 889 726 918 47 59 59 88
49 127 -16 65 -101 88 -149 40z"/>
<path d="M1409 5051 c-33 -33 -38 -74 -14 -108 8 -12 224 -194 480 -404 416
-343 467 -387 481 -426 15 -39 15 -47 2 -81 -8 -20 -90 -145 -183 -277 -93
-132 -181 -258 -196 -280 -165 -241 -572 -817 -596 -842 -34 -36 -92 -52 -134
-36 -15 6 -171 92 -346 192 -350 198 -370 205 -418 156 -33 -32 -34 -85 -2
-118 12 -14 141 -92 287 -175 443 -249 412 -235 500 -240 65 -4 85 -1 139 21
l63 26 152 -157 c241 -248 242 -249 224 -270 -66 -74 -88 -229 -48 -334 43
-116 164 -210 288 -225 l49 -5 5 -69 c13 -170 151 -316 317 -335 l59 -6 6 -68
c12 -123 93 -242 202 -298 86 -44 155 -48 294 -16 23 5 27 0 42 -44 60 -169
253 -266 433 -218 71 18 105 38 169 97 l57 51 67 -33 c63 -32 73 -34 172 -34
99 0 109 2 172 34 117 58 201 172 215 290 3 28 10 51 14 51 5 0 42 -22 84 -49
154 -101 298 -115 439 -44 109 55 205 186 221 302 4 28 8 51 8 51 1 0 27 -10
57 -22 41 -15 77 -21 140 -21 103 -1 177 25 253 87 85 70 126 143 154 278 l8
38 65 -42 c100 -63 159 -80 261 -76 72 3 97 9 151 36 130 64 208 183 216 329
8 158 -54 272 -203 368 -47 30 -85 58 -85 62 0 5 54 62 120 128 l120 120 45
-52 c29 -32 68 -63 107 -82 52 -27 72 -31 138 -31 68 0 85 4 141 33 102 53
692 426 717 453 41 46 25 115 -33 140 -50 21 0 48 -554 -299 -257 -162 -276
-169 -342 -124 -24 16 -176 235 -527 762 -271 407 -506 763 -523 790 -16 28
-29 63 -29 78 0 66 22 88 332 324 495 376 542 413 561 434 40 48 6 133 -58
145 -39 7 -35 10 -523 -363 -253 -193 -419 -326 -435 -350 -33 -47 -57 -115
-57 -159 l0 -34 -934 0 -933 0 -96 -45 -96 -45 -363 3 -363 2 3 60 c4 65 -15
135 -51 192 -12 19 -159 147 -327 286 -168 138 -379 313 -470 388 -91 75 -175
141 -187 148 -37 19 -73 13 -104 -18z m4414 -1808 c240 -362 436 -662 436
-668 0 -5 -66 -77 -146 -158 -96 -97 -151 -146 -161 -142 -14 5 -1364 851
-1413 886 -50 35 -165 87 -234 105 -64 17 -114 19 -587 19 l-518 0 -27 -28
-28 -27 -5 -209 -5 -208 -29 -38 c-83 -108 -256 -93 -315 27 -20 43 -21 58
-21 390 0 320 1 346 18 361 10 9 63 37 118 63 54 25 144 68 199 94 55 26 150
70 210 98 61 28 128 60 150 71 39 20 61 20 981 21 l942 0 435 -657z m-2953
563 c0 -2 -42 -24 -93 -49 -59 -28 -104 -58 -125 -81 -63 -72 -63 -70 -60
-501 l3 -390 28 -57 c35 -71 104 -140 176 -176 50 -24 67 -27 161 -27 100 0
108 1 168 34 77 42 125 94 165 180 29 62 31 74 35 214 l4 148 462 -3 c441 -3
463 -4 517 -24 30 -12 181 -101 335 -198 153 -97 560 -353 904 -569 682 -429
675 -423 686 -523 8 -63 -8 -114 -49 -161 -57 -65 -147 -89 -223 -60 -18 7
-215 131 -438 277 -223 146 -512 334 -642 418 -190 125 -242 154 -270 154 -40
0 -79 -30 -88 -68 -15 -60 2 -74 472 -379 246 -159 460 -303 475 -319 80 -84
76 -238 -9 -318 -59 -55 -164 -75 -238 -44 -19 8 -239 152 -489 320 -497 334
-499 335 -552 281 -34 -33 -35 -97 -2 -125 12 -10 164 -114 337 -231 173 -116
326 -221 338 -233 40 -35 63 -92 64 -154 0 -70 -11 -100 -57 -151 -47 -52
-107 -75 -183 -69 -64 4 -54 -2 -502 288 -218 141 -238 152 -270 145 -56 -14
-87 -68 -70 -119 8 -25 38 -49 144 -119 122 -80 137 -93 160 -139 98 -196
-117 -388 -302 -270 l-43 27 -4 76 c-7 161 -104 286 -269 343 -18 6 -17 9 11
39 77 83 104 150 104 258 0 104 -28 176 -95 244 -28 28 -64 61 -81 72 -118 79
-306 68 -424 -26 l-37 -29 -28 53 c-32 61 -104 133 -163 164 -62 31 -158 46
-226 34 -57 -10 -57 -10 -64 16 -21 88 -112 194 -201 233 -71 32 -173 35 -247
8 -33 -12 -67 -22 -76 -23 -23 -3 -402 392 -396 412 2 9 116 174 252 366 136
193 291 411 343 485 52 74 114 161 136 192 23 32 57 80 76 107 l35 51 213 0
c116 0 212 -2 212 -4z m-594 -1776 c58 -36 89 -130 64 -195 -14 -36 -93 -136
-122 -154 -143 -88 -323 77 -237 218 90 148 193 194 295 131z m453 -264 c92
-48 135 -176 88 -263 -22 -41 -178 -212 -210 -231 -44 -27 -99 -35 -146 -22
-110 29 -173 163 -123 261 30 60 175 230 212 250 43 22 139 25 179 5z m616
-145 c100 -46 144 -159 97 -248 -31 -58 -441 -504 -478 -519 -40 -17 -102 -18
-141 -3 -34 13 -80 55 -99 91 -18 35 -18 121 1 158 8 16 107 134 220 262 214
244 254 278 324 278 20 0 54 -9 76 -19z m169 -661 c94 -45 126 -169 68 -261
-59 -92 -138 -132 -221 -110 -61 16 -96 44 -120 94 -38 79 -19 169 50 233 72
67 147 81 223 44z"/>
<path d="M1406 3747 c-17 -19 -53 -67 -81 -108 -27 -41 -132 -194 -232 -340
-100 -146 -187 -278 -192 -293 -13 -33 7 -89 37 -105 31 -16 77 -13 101 7 11
9 133 181 271 382 254 371 265 390 244 445 -8 21 -56 45 -90 45 -17 0 -37 -12
-58 -33z"/>
<path d="M6345 3698 c-11 -6 -25 -19 -32 -27 -16 -20 -16 -76 -2 -104 38 -72
464 -745 481 -759 29 -26 81 -23 115 6 57 49 53 60 -215 487 -240 383 -260
410 -310 409 -9 0 -26 -6 -37 -12z"/>
</g>
</svg>
