<svg width="512" height="512" viewBox="0 0 512 512" fill="none" xmlns="http://www.w3.org/2000/svg">
<g clip-path="url(#clip0)">
<path d="M255.829 512C254.144 512 252.437 511.595 250.901 510.784L5.73867 382.784C2.21867 380.949 0 377.301 0 373.333V133.333C0 129.643 1.92 126.208 5.056 124.267C8.192 122.325 12.1387 122.155 15.424 123.797L260.587 246.464C264.192 248.277 266.475 251.968 266.475 256V501.333C266.475 505.067 264.533 508.523 261.333 510.464C259.669 511.488 257.749 512 255.829 512ZM21.3333 366.869L245.163 483.733V262.592L21.3333 150.592V366.869Z" fill="black"/>
<path d="M256.171 512C254.251 512 252.331 511.488 250.645 510.464C247.467 508.523 245.504 505.067 245.504 501.334V256C245.504 251.968 247.787 248.278 251.392 246.464L496.555 123.798C499.819 122.134 503.787 122.304 506.923 124.267C510.08 126.208 512 129.643 512 133.334V373.334C512 377.302 509.781 380.95 506.261 382.784L261.099 510.784C259.563 511.595 257.856 512 256.171 512V512ZM266.837 262.592V483.734L490.667 366.87V150.592L266.837 262.592ZM501.333 373.334H501.547H501.333Z" fill="black"/>
<path d="M10.6666 144C6.74129 144 2.98662 141.845 1.10929 138.112C-1.53604 132.843 0.618622 126.443 5.88795 123.797L251.392 1.13074C254.4 -0.362591 257.941 -0.362591 260.928 1.13074L506.091 123.797C511.36 126.443 513.493 132.843 510.869 138.112C508.224 143.381 501.845 145.493 496.555 142.891L256.171 22.5921L15.4453 142.869C13.9093 143.637 12.288 144 10.6666 144V144Z" fill="black"/>
<path d="M384 320C378.112 320 373.333 315.221 373.333 309.333V198.592L134.059 78.8692C128.789 76.2452 126.656 69.8239 129.301 64.5545C131.947 59.2852 138.347 57.1732 143.616 59.7759L388.779 182.443C392.384 184.277 394.667 187.968 394.667 192V309.333C394.667 315.221 389.888 320 384 320V320Z" fill="black"/>
</g>
<defs>
<clipPath id="clip0">
<rect width="512" height="512" fill="white"/>
</clipPath>
</defs>
</svg>
