<?xml version="1.0" encoding="utf-8"?>
<!-- Generator: Adobe Illustrator 22.1.0, SVG Export Plug-In . SVG Version: 6.00 Build 0)  -->
<svg version="1.1" id="Layer_1" xmlns="http://www.w3.org/2000/svg" xmlns:xlink="http://www.w3.org/1999/xlink" x="0px" y="0px"
	 viewBox="0 0 558.6 180" style="enable-background:new 0 0 558.6 180;" xml:space="preserve">
<style type="text/css">
	.st0{fill:#D24481;}
	.st1{fill:#DD3C82;}
	.st2{fill:#96A1A4;}
</style>
<path class="st0" d="M180.1,118.7c0-5.7,0.8-10.7,2.5-14.9c1.7-4.2,4-7.4,6.8-9.7c5.5-4.2,11.5-6.3,18.2-6.3c4.6,0,8.5,0.8,11.8,2.3
	c3.2,1.5,5.7,3.2,7.5,5.2c1.8,2,3.4,4.8,4.6,8.6c1.3,3.7,1.9,8.2,1.9,13.3c0,10.7-2.6,18.7-7.8,24.2c-5.2,5.5-11.8,8.2-19.9,8.2
	c-8.1,0-14.4-2.6-18.9-7.8C182.4,136.6,180.1,128.9,180.1,118.7 M206.7,139.5c8.4,0,12.6-6.8,12.6-20.4c0-6.9-0.9-12.1-2.8-15.6
	c-1.9-3.5-5.1-5.3-9.5-5.3c-4.4,0-7.7,1.7-9.8,5.1c-2.1,3.4-3.1,8-3.1,13.9c0,10.9,2,17.7,6,20.5
	C201.9,138.9,204.1,139.5,206.7,139.5"/>
<path class="st0" d="M248.4,135V78.6c0-1.2-0.2-2.1-0.6-2.5c-0.4-0.5-1.2-0.7-2.3-0.8l-4.1-0.2v-9.6h20.6v50.1
	c4.2-0.4,7.9-1.7,11.1-3.9c3.2-2.2,5.3-5.2,6.5-8.8c0.2-0.8,0.3-1.4,0.3-1.9c0-1.3-0.7-2-2.2-2l-4.4-0.2v-9h24v9.4l-5.6,0.2
	c-1,7.9-4.4,14.1-10.2,18.6l11.3,20.4l7.1,0.3v9.3h-16.9L270,123.8c-2.5,0.7-5.2,1.2-7.9,1.6v12.9h0.1l6.6,0.3v9.3h-27.6v-8.8
	l3.8-0.3c1.2-0.2,2-0.5,2.5-1C248.2,137.3,248.4,136.3,248.4,135"/>
<path class="st0" d="M326.6,89.7v48.6l6.6,0.3v9.3h-27.6v-8.8l3.8-0.3c2.2-0.2,3.4-1.5,3.4-3.7v-32.2c0-1.3-0.2-2.2-0.6-2.7
	c-0.4-0.5-1.2-0.7-2.3-0.7l-4.1-0.2v-9.6H326.6z M312,79.7c-1.6-1.6-2.4-3.6-2.4-6.1c0-2.5,0.8-4.5,2.4-6.2c1.6-1.7,3.7-2.5,6.4-2.5
	c2.6,0,4.8,0.8,6.4,2.5c1.7,1.7,2.5,3.7,2.5,6.2c0,2.5-0.8,4.5-2.5,6.1c-1.7,1.6-3.8,2.4-6.4,2.4C315.7,82,313.6,81.3,312,79.7"/>
<path class="st1" d="M136,90.5c0.3-0.3,0.5-0.5,0.7-0.8c2.2-2.7,3.2-6.2,2.8-9.6c-0.4-3.5-2.1-6.6-4.9-8.8l-19-15.1
	c-13.5-11.1-29.3-4.8-35.9,0.1l-7.4,5.1l14.2-43.2c1-3.2,0.8-6.6-0.7-9.6c-1.5-3-4.1-5.2-7.3-6.2c-6.6-2.2-13.7,1.4-15.8,8l-11.5,35
	l1-10c0.7-6.9-4.4-13-11.3-13.7C34.2,21,28,26,27.4,32.9l-2.6,27c-2.6-4.5-7.8-7.2-13.2-6.2c-6,1.1-10.2,6.4-10.2,12.3
	c0,0,0,0.1,0,0.1c0,21.2,5.5,53.5,17.4,74.3c0,0,0,0,0,0l0,0c13.2,22.6,37.4,36.7,63.5,37.1v0h17.2v-0.1
	c26.3-1.3,47.4-23.1,47.4-49.7v-25C146.9,96.6,142.1,91.3,136,90.5 M121.8,102.9v5.6v6.2v11.5c-3.3,2.3-14.3,8.7-20.5,12.1v-27.2
	l21.3-12.5C122.1,99.9,121.8,101.4,121.8,102.9 M74.9,126.7l-0.3-0.1V99.1l20.2,12V138L74.9,126.7z M98.1,105.5L74.9,91.7l17.8-10.6
	c0,0,3.1-2.3,4.8-1.2l21.1,12c0.4,0.3,0.8,0.6,1.2,0.8L98.1,105.5z M97.1,171.2H83.3c-24.1,0-46.5-12.9-58.7-33.6
	c0-0.1-0.1-0.2-0.1-0.3C15,120.9,8.3,92.9,7.9,68.6C8,68.1,8,67.6,8,67.1c-0.6-3.3,1.6-6.5,4.9-7.1c1.6-0.3,3.2,0,4.5,1
	c1.3,0.9,2.2,2.3,2.5,3.9l5.3,28.7c0.3,1.6,1.6,2.6,3.2,2.6c0.2,0,0.4,0,0.6-0.1c1.8-0.3,2.9-2,2.6-3.8l-2.2-11.9l4.5-47
	c0.3-3.3,3.3-5.8,6.6-5.5c3.3,0.3,5.8,3.3,5.5,6.6l-4.3,45.1c-0.2,1.8,1.1,3.4,2.9,3.5c1.8,0.2,3.4-1.1,3.5-2.9l0.6-5.9L69,12.4
	c1-3.2,4.5-4.9,7.6-3.9c1.5,0.5,2.8,1.6,3.5,3c0.7,1.4,0.9,3.1,0.3,4.6L62.8,70.2c-0.6,1.7,0.2,3.4,2,3.6c1.9,0.2,4.1-1.6,4.1-1.6
	l14.7-10.7l0.1-0.1c0.1-0.1,15-11,28-0.3l19,15.1c1.4,1.1,2.3,2.7,2.5,4.4s-0.3,3.5-1.4,4.9c-1.1,1.4-2.7,2.3-4.4,2.5
	c-1.8,0.2-3.5-0.3-4.9-1.4l-0.2-0.2l-21-12c-4.4-3.1-9.4-0.9-11.9,1.1L70.5,86.9c-1.3,0.4-2.3,1.6-2.3,3.1v37.7c0,2.5,2.7,4.3,4.1,5
	l23.5,13.3c0,0,2.7,0.9,4.6,0c1.5-0.7,3.9-1.8,13.2-7.2c11.9-6.9,14.7-8.5,14.7-11.1v-12.9v-6.2v-5.6c0-3.3,2.7-6.1,6.1-6.1
	c3.3,0,6.1,2.7,6.1,6.1v25C140.4,151.7,121,171.2,97.1,171.2"/>
<path class="st2" d="M346.2,158.9v-56c0-1.3-0.2-2.2-0.6-2.7c-0.4-0.5-1.2-0.8-2.3-0.8l-4.9-0.3v-9.4H358v7.5
	c1.2-2.3,3.5-4.4,6.7-6.4c3.2-1.9,7.1-2.9,11.6-2.9c14,0,21,9.8,21,29.4c0,10.4-2.3,18.4-6.8,24c-4.6,5.6-10.7,8.3-18.5,8.3
	c-4.6,0-8.8-1.1-12.4-3.4v16l9.4,0.5v9.1H339v-8.8l3.8-0.3c1.2-0.2,2-0.5,2.5-1C345.9,161.3,346.2,160.3,346.2,158.9 M382.9,118.5
	c0-12.9-3.9-19.3-11.7-19.3c-3.2,0-6,1-8.3,3c-2.3,2-3.4,4.3-3.4,7v26.6c2.9,1.9,6.5,2.9,10.7,2.9c4.2,0,7.4-1.9,9.5-5.8
	C381.8,129,382.9,124.2,382.9,118.5"/>
<path class="st2" d="M405.5,118.7c0-5.7,0.8-10.7,2.5-14.9c1.7-4.2,4-7.4,6.8-9.7c5.5-4.2,11.5-6.3,18.2-6.3c4.6,0,8.5,0.8,11.8,2.3
	c3.2,1.5,5.7,3.2,7.5,5.2c1.8,2,3.4,4.8,4.6,8.6c1.3,3.7,1.9,8.2,1.9,13.3c0,10.7-2.6,18.7-7.8,24.2c-5.2,5.5-11.8,8.2-19.9,8.2
	c-8.1,0-14.4-2.6-18.9-7.8C407.8,136.6,405.5,128.9,405.5,118.7 M432.1,139.5c8.4,0,12.6-6.8,12.6-20.4c0-6.9-0.9-12.1-2.8-15.6
	c-1.9-3.5-5.1-5.3-9.5-5.3c-4.4,0-7.7,1.7-9.8,5.1c-2.1,3.4-3.1,8-3.1,13.9c0,10.9,2,17.7,6,20.5
	C427.3,138.9,429.5,139.5,432.1,139.5"/>
<path class="st2" d="M497,98.5c-1.9-0.7-4.1-1-6.7-1c-2.6,0-4.7,0.6-6.3,1.8c-1.6,1.2-2.4,2.7-2.4,4.4c0,1.7,0.3,3.1,0.9,4.1
	c0.6,1,1.5,1.8,2.7,2.5c1.9,1,4.2,1.9,6.9,2.6c2.7,0.7,4.7,1.3,6,1.7c1.3,0.4,3,1.1,4.9,2.1c2,1,3.5,2.1,4.5,3.2
	c2.7,2.9,4.1,6.5,4.1,11c0,5.8-2.1,10.3-6.3,13.6c-4.2,3.3-9.6,4.9-16,4.9c-9.4,0-16.5-1.2-21.3-3.6v-16.1l10.4-0.8v5.6
	c0,3.4,3.2,5.1,9.7,5.1s9.7-2.4,9.7-7.1c0-1.7-0.6-3.1-1.7-4.2c-1.1-1.1-2.2-1.8-3.3-2.2c-1.1-0.4-2.4-0.8-3.9-1.2
	c-1.5-0.4-3-0.8-4.4-1.2c-1.4-0.4-3-0.9-4.6-1.6c-1.7-0.7-3.5-1.6-5.5-2.8c-3.9-2.5-5.9-6.8-5.9-12.8c0-6,2.1-10.6,6.4-13.8
	c4.2-3.2,9.6-4.9,16-4.9c6.4,0,12.8,1.5,19.2,4.6v13.9l-10.4,0.8v-4.9C499.6,100.5,498.7,99.2,497,98.5"/>
<path class="st2" d="M530.5,77.4h7.5v12.3h15.4l-1.2,9.7h-14.2v30.5c0,3.4,0.6,5.8,1.9,7.1c1.2,1.4,3.1,2,5.7,2
	c2.6,0,5.2-0.8,7.8-2.4l3.5,8.9c-3.9,2.7-8.8,4.1-14.7,4.1c-3.5,0-6.4-0.4-8.8-1.3c-2.4-0.9-4.2-1.9-5.3-3c-1.2-1.1-2-2.7-2.7-4.7
	c-0.6-2.1-1-3.7-1-4.9c-0.1-1.2-0.1-3-0.1-5.3V99.4h-8.2l1.2-8.5c3.6-0.3,6.4-1.6,8.2-3.9C527.3,84.8,529,81.6,530.5,77.4"/>
</svg>
